G04 #@! TF.GenerationSoftware,KiCad,Pcbnew,(5.0.0)*
G04 #@! TF.CreationDate,2020-05-05T15:14:54+01:00*
G04 #@! TF.ProjectId,CH552-USB-Devboard,43483535322D5553422D446576626F61,rev?*
G04 #@! TF.SameCoordinates,Original*
G04 #@! TF.FileFunction,Legend,Bot*
G04 #@! TF.FilePolarity,Positive*
%FSLAX46Y46*%
G04 Gerber Fmt 4.6, Leading zero omitted, Abs format (unit mm)*
G04 Created by KiCad (PCBNEW (5.0.0)) date 05/05/20 15:14:54*
%MOMM*%
%LPD*%
G01*
G04 APERTURE LIST*
%ADD10C,0.300000*%
%ADD11C,0.120000*%
%ADD12C,0.010000*%
G04 APERTURE END LIST*
D10*
X81100000Y-70933333D02*
X81033333Y-70733333D01*
X80966666Y-70666666D01*
X80833333Y-70600000D01*
X80633333Y-70600000D01*
X80500000Y-70666666D01*
X80433333Y-70733333D01*
X80366666Y-70866666D01*
X80366666Y-71400000D01*
X81766666Y-71400000D01*
X81766666Y-70933333D01*
X81700000Y-70800000D01*
X81633333Y-70733333D01*
X81500000Y-70666666D01*
X81366666Y-70666666D01*
X81233333Y-70733333D01*
X81166666Y-70800000D01*
X81100000Y-70933333D01*
X81100000Y-71400000D01*
X81300000Y-70133333D02*
X80366666Y-69800000D01*
X81300000Y-69466666D02*
X80366666Y-69800000D01*
X80033333Y-69933333D01*
X79966666Y-70000000D01*
X79900000Y-70133333D01*
X77966666Y-72300000D02*
X78633333Y-72766666D01*
X77966666Y-73100000D02*
X79366666Y-73100000D01*
X79366666Y-72566666D01*
X79300000Y-72433333D01*
X79233333Y-72366666D01*
X79100000Y-72300000D01*
X78900000Y-72300000D01*
X78766666Y-72366666D01*
X78700000Y-72433333D01*
X78633333Y-72566666D01*
X78633333Y-73100000D01*
X77966666Y-71100000D02*
X78700000Y-71100000D01*
X78833333Y-71166666D01*
X78900000Y-71300000D01*
X78900000Y-71566666D01*
X78833333Y-71700000D01*
X78033333Y-71100000D02*
X77966666Y-71233333D01*
X77966666Y-71566666D01*
X78033333Y-71700000D01*
X78166666Y-71766666D01*
X78300000Y-71766666D01*
X78433333Y-71700000D01*
X78500000Y-71566666D01*
X78500000Y-71233333D01*
X78566666Y-71100000D01*
X77966666Y-70433333D02*
X79366666Y-70433333D01*
X78833333Y-70433333D02*
X78900000Y-70300000D01*
X78900000Y-70033333D01*
X78833333Y-69900000D01*
X78766666Y-69833333D01*
X78633333Y-69766666D01*
X78233333Y-69766666D01*
X78100000Y-69833333D01*
X78033333Y-69900000D01*
X77966666Y-70033333D01*
X77966666Y-70300000D01*
X78033333Y-70433333D01*
X77966666Y-69166666D02*
X78900000Y-69166666D01*
X79366666Y-69166666D02*
X79300000Y-69233333D01*
X79233333Y-69166666D01*
X79300000Y-69100000D01*
X79366666Y-69166666D01*
X79233333Y-69166666D01*
X77966666Y-67900000D02*
X79366666Y-67900000D01*
X78033333Y-67900000D02*
X77966666Y-68033333D01*
X77966666Y-68300000D01*
X78033333Y-68433333D01*
X78100000Y-68500000D01*
X78233333Y-68566666D01*
X78633333Y-68566666D01*
X78766666Y-68500000D01*
X78833333Y-68433333D01*
X78900000Y-68300000D01*
X78900000Y-68033333D01*
X78833333Y-67900000D01*
X75566666Y-74366666D02*
X76966666Y-74366666D01*
X76500000Y-73700000D02*
X75566666Y-73700000D01*
X76366666Y-73700000D02*
X76433333Y-73633333D01*
X76500000Y-73500000D01*
X76500000Y-73300000D01*
X76433333Y-73166666D01*
X76300000Y-73100000D01*
X75566666Y-73100000D01*
X76500000Y-72566666D02*
X75566666Y-72233333D01*
X76500000Y-71900000D01*
X75633333Y-70833333D02*
X75566666Y-70966666D01*
X75566666Y-71233333D01*
X75633333Y-71366666D01*
X75766666Y-71433333D01*
X76300000Y-71433333D01*
X76433333Y-71366666D01*
X76500000Y-71233333D01*
X76500000Y-70966666D01*
X76433333Y-70833333D01*
X76300000Y-70766666D01*
X76166666Y-70766666D01*
X76033333Y-71433333D01*
X76500000Y-70166666D02*
X75566666Y-70166666D01*
X76366666Y-70166666D02*
X76433333Y-70100000D01*
X76500000Y-69966666D01*
X76500000Y-69766666D01*
X76433333Y-69633333D01*
X76300000Y-69566666D01*
X75566666Y-69566666D01*
X76500000Y-69100000D02*
X76500000Y-68566666D01*
X76966666Y-68900000D02*
X75766666Y-68900000D01*
X75633333Y-68833333D01*
X75566666Y-68700000D01*
X75566666Y-68566666D01*
X75566666Y-67900000D02*
X75633333Y-68033333D01*
X75700000Y-68100000D01*
X75833333Y-68166666D01*
X76233333Y-68166666D01*
X76366666Y-68100000D01*
X76433333Y-68033333D01*
X76500000Y-67900000D01*
X76500000Y-67700000D01*
X76433333Y-67566666D01*
X76366666Y-67500000D01*
X76233333Y-67433333D01*
X75833333Y-67433333D01*
X75700000Y-67500000D01*
X75633333Y-67566666D01*
X75566666Y-67700000D01*
X75566666Y-67900000D01*
X75566666Y-66833333D02*
X76500000Y-66833333D01*
X76233333Y-66833333D02*
X76366666Y-66766666D01*
X76433333Y-66700000D01*
X76500000Y-66566666D01*
X76500000Y-66433333D01*
D11*
G04 #@! TO.C,C5*
X88290000Y-91496267D02*
X88290000Y-91153733D01*
X89310000Y-91496267D02*
X89310000Y-91153733D01*
G04 #@! TO.C,C6*
X89310000Y-98396267D02*
X89310000Y-98053733D01*
X88290000Y-98396267D02*
X88290000Y-98053733D01*
G04 #@! TO.C,Y1*
X82450000Y-100550000D02*
X82450000Y-87950000D01*
X82450000Y-87950000D02*
X87550000Y-87950000D01*
X87550000Y-87950000D02*
X87550000Y-100550000D01*
D12*
G04 #@! TO.C,G\002A\002A\002A*
G36*
X83432660Y-70550040D02*
X83266438Y-70589243D01*
X83220869Y-70607418D01*
X83111542Y-70670164D01*
X83038228Y-70748435D01*
X82994766Y-70855046D01*
X82974996Y-71002813D01*
X82971930Y-71125237D01*
X82971930Y-71381454D01*
X84404261Y-71381454D01*
X84404261Y-71141710D01*
X84399634Y-71036262D01*
X84117795Y-71036262D01*
X84117795Y-71158647D01*
X83226566Y-71158647D01*
X83226566Y-71081145D01*
X83243245Y-70955743D01*
X83297024Y-70866420D01*
X83393520Y-70809841D01*
X83538349Y-70782673D01*
X83731527Y-70781319D01*
X83899154Y-70796663D01*
X84012757Y-70828584D01*
X84081042Y-70882828D01*
X84112715Y-70965142D01*
X84117795Y-71036262D01*
X84399634Y-71036262D01*
X84396200Y-70958014D01*
X84368089Y-70823600D01*
X84314037Y-70725688D01*
X84228154Y-70651495D01*
X84161105Y-70614132D01*
X84013615Y-70565288D01*
X83828326Y-70538220D01*
X83627315Y-70533084D01*
X83432660Y-70550040D01*
X83432660Y-70550040D01*
G37*
X83432660Y-70550040D02*
X83266438Y-70589243D01*
X83220869Y-70607418D01*
X83111542Y-70670164D01*
X83038228Y-70748435D01*
X82994766Y-70855046D01*
X82974996Y-71002813D01*
X82971930Y-71125237D01*
X82971930Y-71381454D01*
X84404261Y-71381454D01*
X84404261Y-71141710D01*
X84399634Y-71036262D01*
X84117795Y-71036262D01*
X84117795Y-71158647D01*
X83226566Y-71158647D01*
X83226566Y-71081145D01*
X83243245Y-70955743D01*
X83297024Y-70866420D01*
X83393520Y-70809841D01*
X83538349Y-70782673D01*
X83731527Y-70781319D01*
X83899154Y-70796663D01*
X84012757Y-70828584D01*
X84081042Y-70882828D01*
X84112715Y-70965142D01*
X84117795Y-71036262D01*
X84399634Y-71036262D01*
X84396200Y-70958014D01*
X84368089Y-70823600D01*
X84314037Y-70725688D01*
X84228154Y-70651495D01*
X84161105Y-70614132D01*
X84013615Y-70565288D01*
X83828326Y-70538220D01*
X83627315Y-70533084D01*
X83432660Y-70550040D01*
G36*
X82978949Y-71505315D02*
X82972622Y-71576661D01*
X82972007Y-71612218D01*
X82972085Y-71747494D01*
X83250516Y-71890727D01*
X83389976Y-71966238D01*
X83478928Y-72024627D01*
X83526004Y-72072323D01*
X83539119Y-72105577D01*
X83541017Y-72139375D01*
X83527184Y-72160416D01*
X83485878Y-72171719D01*
X83405353Y-72176304D01*
X83273867Y-72177192D01*
X83260610Y-72177193D01*
X82971930Y-72177193D01*
X82971930Y-72400000D01*
X84410055Y-72400000D01*
X84399201Y-72066601D01*
X84396902Y-72024411D01*
X84117795Y-72024411D01*
X84117795Y-72177193D01*
X83799499Y-72177193D01*
X83799499Y-72056957D01*
X83818421Y-71934978D01*
X83869301Y-71844232D01*
X83943311Y-71798274D01*
X83970000Y-71795238D01*
X84050774Y-71813586D01*
X84098067Y-71873847D01*
X84116923Y-71983845D01*
X84117795Y-72024411D01*
X84396902Y-72024411D01*
X84389247Y-71883984D01*
X84368434Y-71755025D01*
X84329557Y-71669827D01*
X84265412Y-71618496D01*
X84168793Y-71591134D01*
X84043864Y-71578549D01*
X83868712Y-71583172D01*
X83734534Y-71620002D01*
X83648113Y-71686537D01*
X83623809Y-71733555D01*
X83602657Y-71779027D01*
X83571165Y-71770205D01*
X83548441Y-71750733D01*
X83501581Y-71719959D01*
X83416156Y-71672997D01*
X83308637Y-71617920D01*
X83195493Y-71562803D01*
X83093197Y-71515720D01*
X83018219Y-71484746D01*
X82989931Y-71476943D01*
X82978949Y-71505315D01*
X82978949Y-71505315D01*
G37*
X82978949Y-71505315D02*
X82972622Y-71576661D01*
X82972007Y-71612218D01*
X82972085Y-71747494D01*
X83250516Y-71890727D01*
X83389976Y-71966238D01*
X83478928Y-72024627D01*
X83526004Y-72072323D01*
X83539119Y-72105577D01*
X83541017Y-72139375D01*
X83527184Y-72160416D01*
X83485878Y-72171719D01*
X83405353Y-72176304D01*
X83273867Y-72177192D01*
X83260610Y-72177193D01*
X82971930Y-72177193D01*
X82971930Y-72400000D01*
X84410055Y-72400000D01*
X84399201Y-72066601D01*
X84396902Y-72024411D01*
X84117795Y-72024411D01*
X84117795Y-72177193D01*
X83799499Y-72177193D01*
X83799499Y-72056957D01*
X83818421Y-71934978D01*
X83869301Y-71844232D01*
X83943311Y-71798274D01*
X83970000Y-71795238D01*
X84050774Y-71813586D01*
X84098067Y-71873847D01*
X84116923Y-71983845D01*
X84117795Y-72024411D01*
X84396902Y-72024411D01*
X84389247Y-71883984D01*
X84368434Y-71755025D01*
X84329557Y-71669827D01*
X84265412Y-71618496D01*
X84168793Y-71591134D01*
X84043864Y-71578549D01*
X83868712Y-71583172D01*
X83734534Y-71620002D01*
X83648113Y-71686537D01*
X83623809Y-71733555D01*
X83602657Y-71779027D01*
X83571165Y-71770205D01*
X83548441Y-71750733D01*
X83501581Y-71719959D01*
X83416156Y-71672997D01*
X83308637Y-71617920D01*
X83195493Y-71562803D01*
X83093197Y-71515720D01*
X83018219Y-71484746D01*
X82989931Y-71476943D01*
X82978949Y-71505315D01*
G36*
X84499749Y-72463660D02*
X87077945Y-72463660D01*
X87077945Y-70553885D01*
X86632331Y-70553885D01*
X86632331Y-71922557D01*
X86091228Y-71922557D01*
X86091228Y-70649374D01*
X85645614Y-70649374D01*
X85645614Y-71922557D01*
X84977193Y-71922557D01*
X84977193Y-70522056D01*
X84499749Y-70522056D01*
X84499749Y-72463660D01*
X84499749Y-72463660D01*
G37*
X84499749Y-72463660D02*
X87077945Y-72463660D01*
X87077945Y-70553885D01*
X86632331Y-70553885D01*
X86632331Y-71922557D01*
X86091228Y-71922557D01*
X86091228Y-70649374D01*
X85645614Y-70649374D01*
X85645614Y-71922557D01*
X84977193Y-71922557D01*
X84977193Y-70522056D01*
X84499749Y-70522056D01*
X84499749Y-72463660D01*
G36*
X84499749Y-73450376D02*
X87077945Y-73450376D01*
X87077945Y-72909274D01*
X84499749Y-72909274D01*
X84499749Y-73450376D01*
X84499749Y-73450376D01*
G37*
X84499749Y-73450376D02*
X87077945Y-73450376D01*
X87077945Y-72909274D01*
X84499749Y-72909274D01*
X84499749Y-73450376D01*
G36*
X82980126Y-72523701D02*
X82972413Y-72593970D01*
X82971930Y-72619633D01*
X82974944Y-72693149D01*
X82994524Y-72734580D01*
X83046479Y-72760050D01*
X83131078Y-72781955D01*
X83290226Y-72820134D01*
X83290226Y-73192040D01*
X83139035Y-73234561D01*
X83048096Y-73263750D01*
X83001894Y-73295859D01*
X82983150Y-73348160D01*
X82977966Y-73395559D01*
X82974386Y-73444780D01*
X82978229Y-73479501D01*
X82997268Y-73499358D01*
X83039282Y-73503983D01*
X83112044Y-73493010D01*
X83223332Y-73466072D01*
X83380922Y-73422804D01*
X83576692Y-73367348D01*
X83824094Y-73297425D01*
X84017149Y-73242813D01*
X84162517Y-73200636D01*
X84266858Y-73168019D01*
X84336832Y-73142085D01*
X84379097Y-73119960D01*
X84400314Y-73098766D01*
X84407141Y-73075630D01*
X84406239Y-73047675D01*
X84404345Y-73013407D01*
X83974561Y-73013407D01*
X83783584Y-73068981D01*
X83679859Y-73098689D01*
X83601420Y-73120275D01*
X83568734Y-73128318D01*
X83553187Y-73102895D01*
X83545161Y-73035309D01*
X83544862Y-73017226D01*
X83545061Y-72962299D01*
X83553221Y-72929517D01*
X83580690Y-72917446D01*
X83638816Y-72924654D01*
X83738946Y-72949705D01*
X83847243Y-72979018D01*
X83974561Y-73013407D01*
X84404345Y-73013407D01*
X84404268Y-73012025D01*
X84404261Y-73009997D01*
X84404261Y-72889691D01*
X83710422Y-72692590D01*
X83510104Y-72635954D01*
X83330479Y-72585679D01*
X83180522Y-72544238D01*
X83069212Y-72514099D01*
X83005526Y-72497735D01*
X82994257Y-72495489D01*
X82980126Y-72523701D01*
X82980126Y-72523701D01*
G37*
X82980126Y-72523701D02*
X82972413Y-72593970D01*
X82971930Y-72619633D01*
X82974944Y-72693149D01*
X82994524Y-72734580D01*
X83046479Y-72760050D01*
X83131078Y-72781955D01*
X83290226Y-72820134D01*
X83290226Y-73192040D01*
X83139035Y-73234561D01*
X83048096Y-73263750D01*
X83001894Y-73295859D01*
X82983150Y-73348160D01*
X82977966Y-73395559D01*
X82974386Y-73444780D01*
X82978229Y-73479501D01*
X82997268Y-73499358D01*
X83039282Y-73503983D01*
X83112044Y-73493010D01*
X83223332Y-73466072D01*
X83380922Y-73422804D01*
X83576692Y-73367348D01*
X83824094Y-73297425D01*
X84017149Y-73242813D01*
X84162517Y-73200636D01*
X84266858Y-73168019D01*
X84336832Y-73142085D01*
X84379097Y-73119960D01*
X84400314Y-73098766D01*
X84407141Y-73075630D01*
X84406239Y-73047675D01*
X84404345Y-73013407D01*
X83974561Y-73013407D01*
X83783584Y-73068981D01*
X83679859Y-73098689D01*
X83601420Y-73120275D01*
X83568734Y-73128318D01*
X83553187Y-73102895D01*
X83545161Y-73035309D01*
X83544862Y-73017226D01*
X83545061Y-72962299D01*
X83553221Y-72929517D01*
X83580690Y-72917446D01*
X83638816Y-72924654D01*
X83738946Y-72949705D01*
X83847243Y-72979018D01*
X83974561Y-73013407D01*
X84404345Y-73013407D01*
X84404268Y-73012025D01*
X84404261Y-73009997D01*
X84404261Y-72889691D01*
X83710422Y-72692590D01*
X83510104Y-72635954D01*
X83330479Y-72585679D01*
X83180522Y-72544238D01*
X83069212Y-72514099D01*
X83005526Y-72497735D01*
X82994257Y-72495489D01*
X82980126Y-72523701D01*
G36*
X83586377Y-73555202D02*
X83357394Y-73594788D01*
X83172794Y-73674667D01*
X83036103Y-73793240D01*
X83022494Y-73810793D01*
X82969692Y-73928827D01*
X82954706Y-74071105D01*
X82977600Y-74210611D01*
X83021329Y-74299483D01*
X83130122Y-74400186D01*
X83285975Y-74477743D01*
X83475428Y-74528761D01*
X83685023Y-74549845D01*
X83901301Y-74537599D01*
X83940834Y-74531433D01*
X84124001Y-74475373D01*
X84268547Y-74381556D01*
X84368444Y-74257738D01*
X84417664Y-74111677D01*
X84414576Y-74045451D01*
X84140828Y-74045451D01*
X84119976Y-74142932D01*
X84044226Y-74227382D01*
X83980013Y-74263375D01*
X83853632Y-74296727D01*
X83698150Y-74307778D01*
X83541140Y-74296964D01*
X83410177Y-74264718D01*
X83386056Y-74254024D01*
X83294154Y-74184722D01*
X83239428Y-74096395D01*
X83230399Y-74006579D01*
X83246087Y-73965927D01*
X83324451Y-73892021D01*
X83446419Y-73837863D01*
X83594358Y-73805811D01*
X83750633Y-73798225D01*
X83897610Y-73817461D01*
X84013494Y-73863292D01*
X84105696Y-73947913D01*
X84140828Y-74045451D01*
X84414576Y-74045451D01*
X84410177Y-73951129D01*
X84405716Y-73933224D01*
X84336793Y-73794671D01*
X84216381Y-73684051D01*
X84051704Y-73604696D01*
X83849987Y-73559940D01*
X83618456Y-73553117D01*
X83586377Y-73555202D01*
X83586377Y-73555202D01*
G37*
X83586377Y-73555202D02*
X83357394Y-73594788D01*
X83172794Y-73674667D01*
X83036103Y-73793240D01*
X83022494Y-73810793D01*
X82969692Y-73928827D01*
X82954706Y-74071105D01*
X82977600Y-74210611D01*
X83021329Y-74299483D01*
X83130122Y-74400186D01*
X83285975Y-74477743D01*
X83475428Y-74528761D01*
X83685023Y-74549845D01*
X83901301Y-74537599D01*
X83940834Y-74531433D01*
X84124001Y-74475373D01*
X84268547Y-74381556D01*
X84368444Y-74257738D01*
X84417664Y-74111677D01*
X84414576Y-74045451D01*
X84140828Y-74045451D01*
X84119976Y-74142932D01*
X84044226Y-74227382D01*
X83980013Y-74263375D01*
X83853632Y-74296727D01*
X83698150Y-74307778D01*
X83541140Y-74296964D01*
X83410177Y-74264718D01*
X83386056Y-74254024D01*
X83294154Y-74184722D01*
X83239428Y-74096395D01*
X83230399Y-74006579D01*
X83246087Y-73965927D01*
X83324451Y-73892021D01*
X83446419Y-73837863D01*
X83594358Y-73805811D01*
X83750633Y-73798225D01*
X83897610Y-73817461D01*
X84013494Y-73863292D01*
X84105696Y-73947913D01*
X84140828Y-74045451D01*
X84414576Y-74045451D01*
X84410177Y-73951129D01*
X84405716Y-73933224D01*
X84336793Y-73794671D01*
X84216381Y-73684051D01*
X84051704Y-73604696D01*
X83849987Y-73559940D01*
X83618456Y-73553117D01*
X83586377Y-73555202D01*
G36*
X83190069Y-74691787D02*
X83155794Y-74705601D01*
X83078215Y-74753002D01*
X83025280Y-74816425D01*
X82992748Y-74907701D01*
X82976379Y-75038657D01*
X82971930Y-75218415D01*
X82971930Y-75519299D01*
X84404261Y-75519299D01*
X84403791Y-75240790D01*
X84402514Y-75203075D01*
X84149624Y-75203075D01*
X84146109Y-75257932D01*
X84124741Y-75285574D01*
X84069285Y-75295319D01*
X83986862Y-75296492D01*
X83824100Y-75296492D01*
X83846728Y-75145301D01*
X83847944Y-75138077D01*
X83576692Y-75138077D01*
X83576692Y-75296492D01*
X83226566Y-75296492D01*
X83226566Y-75187160D01*
X83243303Y-75045018D01*
X83289668Y-74946581D01*
X83359892Y-74897331D01*
X83448205Y-74902752D01*
X83498676Y-74928546D01*
X83547185Y-74971234D01*
X83570393Y-75030484D01*
X83576670Y-75128774D01*
X83576692Y-75138077D01*
X83847944Y-75138077D01*
X83864943Y-75037132D01*
X83885595Y-74977593D01*
X83919352Y-74952193D01*
X83976881Y-74946436D01*
X83993143Y-74946366D01*
X84078395Y-74973508D01*
X84130517Y-75054959D01*
X84149532Y-75190758D01*
X84149624Y-75203075D01*
X84402514Y-75203075D01*
X84398937Y-75097543D01*
X84386309Y-74975328D01*
X84368063Y-74893337D01*
X84363562Y-74882707D01*
X84284234Y-74789630D01*
X84166650Y-74729253D01*
X84029350Y-74705528D01*
X83890879Y-74722409D01*
X83799889Y-74762532D01*
X83744859Y-74782181D01*
X83691117Y-74755859D01*
X83673468Y-74740639D01*
X83582663Y-74692812D01*
X83455806Y-74667643D01*
X83316930Y-74666759D01*
X83190069Y-74691787D01*
X83190069Y-74691787D01*
G37*
X83190069Y-74691787D02*
X83155794Y-74705601D01*
X83078215Y-74753002D01*
X83025280Y-74816425D01*
X82992748Y-74907701D01*
X82976379Y-75038657D01*
X82971930Y-75218415D01*
X82971930Y-75519299D01*
X84404261Y-75519299D01*
X84403791Y-75240790D01*
X84402514Y-75203075D01*
X84149624Y-75203075D01*
X84146109Y-75257932D01*
X84124741Y-75285574D01*
X84069285Y-75295319D01*
X83986862Y-75296492D01*
X83824100Y-75296492D01*
X83846728Y-75145301D01*
X83847944Y-75138077D01*
X83576692Y-75138077D01*
X83576692Y-75296492D01*
X83226566Y-75296492D01*
X83226566Y-75187160D01*
X83243303Y-75045018D01*
X83289668Y-74946581D01*
X83359892Y-74897331D01*
X83448205Y-74902752D01*
X83498676Y-74928546D01*
X83547185Y-74971234D01*
X83570393Y-75030484D01*
X83576670Y-75128774D01*
X83576692Y-75138077D01*
X83847944Y-75138077D01*
X83864943Y-75037132D01*
X83885595Y-74977593D01*
X83919352Y-74952193D01*
X83976881Y-74946436D01*
X83993143Y-74946366D01*
X84078395Y-74973508D01*
X84130517Y-75054959D01*
X84149532Y-75190758D01*
X84149624Y-75203075D01*
X84402514Y-75203075D01*
X84398937Y-75097543D01*
X84386309Y-74975328D01*
X84368063Y-74893337D01*
X84363562Y-74882707D01*
X84284234Y-74789630D01*
X84166650Y-74729253D01*
X84029350Y-74705528D01*
X83890879Y-74722409D01*
X83799889Y-74762532D01*
X83744859Y-74782181D01*
X83691117Y-74755859D01*
X83673468Y-74740639D01*
X83582663Y-74692812D01*
X83455806Y-74667643D01*
X83316930Y-74666759D01*
X83190069Y-74691787D01*
G36*
X85061541Y-73883705D02*
X84876872Y-73956661D01*
X84723919Y-74069502D01*
X84613240Y-74215067D01*
X84566404Y-74333229D01*
X84556610Y-74398446D01*
X84546144Y-74516775D01*
X84535643Y-74677682D01*
X84525742Y-74870636D01*
X84517078Y-75085102D01*
X84512588Y-75224875D01*
X84490284Y-75996742D01*
X87082917Y-75996742D01*
X87075590Y-75455639D01*
X86638877Y-75455639D01*
X86059399Y-75455639D01*
X85620030Y-75455639D01*
X84977193Y-75455639D01*
X84977193Y-75078434D01*
X84981041Y-74866964D01*
X84994192Y-74709400D01*
X85019057Y-74596366D01*
X85058046Y-74518482D01*
X85113571Y-74466370D01*
X85138211Y-74452041D01*
X85268844Y-74409442D01*
X85387377Y-74427469D01*
X85493921Y-74498113D01*
X85597870Y-74590962D01*
X85608950Y-75023301D01*
X85620030Y-75455639D01*
X86059399Y-75455639D01*
X86061296Y-75193045D01*
X86069086Y-74957384D01*
X86089320Y-74778950D01*
X86123062Y-74652338D01*
X86171374Y-74572141D01*
X86186091Y-74558517D01*
X86294900Y-74507658D01*
X86413764Y-74514411D01*
X86527110Y-74577561D01*
X86564122Y-74611665D01*
X86589541Y-74647111D01*
X86605979Y-74696301D01*
X86616046Y-74771633D01*
X86622355Y-74885509D01*
X86627515Y-75050328D01*
X86627646Y-75055004D01*
X86638877Y-75455639D01*
X87075590Y-75455639D01*
X87072464Y-75224875D01*
X87068871Y-74981721D01*
X87064968Y-74793375D01*
X87059954Y-74650990D01*
X87053032Y-74545717D01*
X87043401Y-74468708D01*
X87030264Y-74411113D01*
X87012819Y-74364085D01*
X86990698Y-74319576D01*
X86876063Y-74164246D01*
X86729172Y-74053614D01*
X86561753Y-73989724D01*
X86385533Y-73974621D01*
X86212239Y-74010349D01*
X86053599Y-74098951D01*
X85999659Y-74146846D01*
X85884614Y-74262030D01*
X85788986Y-74121014D01*
X85664822Y-73981491D01*
X85514294Y-73895820D01*
X85328775Y-73859648D01*
X85267367Y-73857795D01*
X85061541Y-73883705D01*
X85061541Y-73883705D01*
G37*
X85061541Y-73883705D02*
X84876872Y-73956661D01*
X84723919Y-74069502D01*
X84613240Y-74215067D01*
X84566404Y-74333229D01*
X84556610Y-74398446D01*
X84546144Y-74516775D01*
X84535643Y-74677682D01*
X84525742Y-74870636D01*
X84517078Y-75085102D01*
X84512588Y-75224875D01*
X84490284Y-75996742D01*
X87082917Y-75996742D01*
X87075590Y-75455639D01*
X86638877Y-75455639D01*
X86059399Y-75455639D01*
X85620030Y-75455639D01*
X84977193Y-75455639D01*
X84977193Y-75078434D01*
X84981041Y-74866964D01*
X84994192Y-74709400D01*
X85019057Y-74596366D01*
X85058046Y-74518482D01*
X85113571Y-74466370D01*
X85138211Y-74452041D01*
X85268844Y-74409442D01*
X85387377Y-74427469D01*
X85493921Y-74498113D01*
X85597870Y-74590962D01*
X85608950Y-75023301D01*
X85620030Y-75455639D01*
X86059399Y-75455639D01*
X86061296Y-75193045D01*
X86069086Y-74957384D01*
X86089320Y-74778950D01*
X86123062Y-74652338D01*
X86171374Y-74572141D01*
X86186091Y-74558517D01*
X86294900Y-74507658D01*
X86413764Y-74514411D01*
X86527110Y-74577561D01*
X86564122Y-74611665D01*
X86589541Y-74647111D01*
X86605979Y-74696301D01*
X86616046Y-74771633D01*
X86622355Y-74885509D01*
X86627515Y-75050328D01*
X86627646Y-75055004D01*
X86638877Y-75455639D01*
X87075590Y-75455639D01*
X87072464Y-75224875D01*
X87068871Y-74981721D01*
X87064968Y-74793375D01*
X87059954Y-74650990D01*
X87053032Y-74545717D01*
X87043401Y-74468708D01*
X87030264Y-74411113D01*
X87012819Y-74364085D01*
X86990698Y-74319576D01*
X86876063Y-74164246D01*
X86729172Y-74053614D01*
X86561753Y-73989724D01*
X86385533Y-73974621D01*
X86212239Y-74010349D01*
X86053599Y-74098951D01*
X85999659Y-74146846D01*
X85884614Y-74262030D01*
X85788986Y-74121014D01*
X85664822Y-73981491D01*
X85514294Y-73895820D01*
X85328775Y-73859648D01*
X85267367Y-73857795D01*
X85061541Y-73883705D01*
G36*
X80216020Y-76100188D02*
X80096701Y-76458271D01*
X79980143Y-76108146D01*
X79863584Y-75758020D01*
X79746704Y-75748142D01*
X79661159Y-75750003D01*
X79630125Y-75775850D01*
X79629825Y-75780239D01*
X79640150Y-75823325D01*
X79668658Y-75914966D01*
X79711645Y-76043939D01*
X79765408Y-76199020D01*
X79801104Y-76299391D01*
X79972383Y-76776567D01*
X80099151Y-76786143D01*
X80225918Y-76795718D01*
X80405738Y-76292784D01*
X80465348Y-76124638D01*
X80516557Y-75977471D01*
X80555820Y-75861687D01*
X80579596Y-75787691D01*
X80585135Y-75765978D01*
X80556631Y-75750892D01*
X80486123Y-75742635D01*
X80460025Y-75742106D01*
X80335339Y-75742106D01*
X80216020Y-76100188D01*
X80216020Y-76100188D01*
G37*
X80216020Y-76100188D02*
X80096701Y-76458271D01*
X79980143Y-76108146D01*
X79863584Y-75758020D01*
X79746704Y-75748142D01*
X79661159Y-75750003D01*
X79630125Y-75775850D01*
X79629825Y-75780239D01*
X79640150Y-75823325D01*
X79668658Y-75914966D01*
X79711645Y-76043939D01*
X79765408Y-76199020D01*
X79801104Y-76299391D01*
X79972383Y-76776567D01*
X80099151Y-76786143D01*
X80225918Y-76795718D01*
X80405738Y-76292784D01*
X80465348Y-76124638D01*
X80516557Y-75977471D01*
X80555820Y-75861687D01*
X80579596Y-75787691D01*
X80585135Y-75765978D01*
X80556631Y-75750892D01*
X80486123Y-75742635D01*
X80460025Y-75742106D01*
X80335339Y-75742106D01*
X80216020Y-76100188D01*
G36*
X90262330Y-75747429D02*
X90113153Y-75754954D01*
X90012408Y-75765497D01*
X89944871Y-75782514D01*
X89895315Y-75809460D01*
X89860358Y-75838662D01*
X89757472Y-75974727D01*
X89700123Y-76142500D01*
X89690565Y-76327005D01*
X89731054Y-76513271D01*
X89751308Y-76562915D01*
X89809637Y-76659890D01*
X89888890Y-76726761D01*
X90000064Y-76768066D01*
X90154154Y-76788343D01*
X90307624Y-76792482D01*
X90579198Y-76792482D01*
X90579198Y-75964913D01*
X90324561Y-75964913D01*
X90324561Y-76601504D01*
X90217450Y-76601504D01*
X90110499Y-76580083D01*
X90026473Y-76535535D01*
X89977456Y-76488430D01*
X89952221Y-76432146D01*
X89943295Y-76344619D01*
X89942607Y-76287980D01*
X89953386Y-76137150D01*
X89989847Y-76038612D01*
X90058176Y-75984058D01*
X90164557Y-75965181D01*
X90183133Y-75964913D01*
X90324561Y-75964913D01*
X90579198Y-75964913D01*
X90579198Y-75734702D01*
X90262330Y-75747429D01*
X90262330Y-75747429D01*
G37*
X90262330Y-75747429D02*
X90113153Y-75754954D01*
X90012408Y-75765497D01*
X89944871Y-75782514D01*
X89895315Y-75809460D01*
X89860358Y-75838662D01*
X89757472Y-75974727D01*
X89700123Y-76142500D01*
X89690565Y-76327005D01*
X89731054Y-76513271D01*
X89751308Y-76562915D01*
X89809637Y-76659890D01*
X89888890Y-76726761D01*
X90000064Y-76768066D01*
X90154154Y-76788343D01*
X90307624Y-76792482D01*
X90579198Y-76792482D01*
X90579198Y-75964913D01*
X90324561Y-75964913D01*
X90324561Y-76601504D01*
X90217450Y-76601504D01*
X90110499Y-76580083D01*
X90026473Y-76535535D01*
X89977456Y-76488430D01*
X89952221Y-76432146D01*
X89943295Y-76344619D01*
X89942607Y-76287980D01*
X89953386Y-76137150D01*
X89989847Y-76038612D01*
X90058176Y-75984058D01*
X90164557Y-75965181D01*
X90183133Y-75964913D01*
X90324561Y-75964913D01*
X90579198Y-75964913D01*
X90579198Y-75734702D01*
X90262330Y-75747429D01*
G36*
X90770175Y-76796324D02*
X90886903Y-76786446D01*
X90939997Y-76778795D01*
X90983531Y-76759635D01*
X91027005Y-76719153D01*
X91079920Y-76647535D01*
X91151777Y-76534970D01*
X91189237Y-76474186D01*
X91374843Y-76171805D01*
X91374890Y-76482143D01*
X91374937Y-76792482D01*
X91597744Y-76792482D01*
X91597744Y-75742106D01*
X91478384Y-75743124D01*
X91426123Y-75745685D01*
X91384674Y-75758534D01*
X91344985Y-75790974D01*
X91298006Y-75852307D01*
X91234688Y-75951836D01*
X91168045Y-76062117D01*
X90977068Y-76380091D01*
X90967997Y-76061098D01*
X90958926Y-75742106D01*
X90770175Y-75742106D01*
X90770175Y-76796324D01*
X90770175Y-76796324D01*
G37*
X90770175Y-76796324D02*
X90886903Y-76786446D01*
X90939997Y-76778795D01*
X90983531Y-76759635D01*
X91027005Y-76719153D01*
X91079920Y-76647535D01*
X91151777Y-76534970D01*
X91189237Y-76474186D01*
X91374843Y-76171805D01*
X91374890Y-76482143D01*
X91374937Y-76792482D01*
X91597744Y-76792482D01*
X91597744Y-75742106D01*
X91478384Y-75743124D01*
X91426123Y-75745685D01*
X91384674Y-75758534D01*
X91344985Y-75790974D01*
X91298006Y-75852307D01*
X91234688Y-75951836D01*
X91168045Y-76062117D01*
X90977068Y-76380091D01*
X90967997Y-76061098D01*
X90958926Y-75742106D01*
X90770175Y-75742106D01*
X90770175Y-76796324D01*
G36*
X77900230Y-75753407D02*
X77840537Y-75782007D01*
X77791778Y-75819775D01*
X77707931Y-75906971D01*
X77667473Y-75986229D01*
X77674760Y-76046809D01*
X77692772Y-76063888D01*
X77786769Y-76090338D01*
X77881925Y-76055012D01*
X77929730Y-76012657D01*
X78017997Y-75946826D01*
X78108329Y-75942649D01*
X78207899Y-75999984D01*
X78216181Y-76006968D01*
X78267644Y-76060755D01*
X78293399Y-76122684D01*
X78301734Y-76216709D01*
X78302077Y-76255200D01*
X78295359Y-76367268D01*
X78278186Y-76462477D01*
X78264781Y-76499236D01*
X78197802Y-76567467D01*
X78106484Y-76594119D01*
X78011159Y-76581370D01*
X77932161Y-76531398D01*
X77892540Y-76459354D01*
X77874963Y-76399506D01*
X77864582Y-76378697D01*
X77793336Y-76395060D01*
X77719329Y-76434096D01*
X77667090Y-76480725D01*
X77656391Y-76506687D01*
X77679011Y-76573943D01*
X77734441Y-76655763D01*
X77804035Y-76729226D01*
X77869147Y-76771415D01*
X77872639Y-76772489D01*
X78034282Y-76804688D01*
X78167719Y-76798720D01*
X78237582Y-76779185D01*
X78326546Y-76742062D01*
X78393481Y-76705374D01*
X78401756Y-76699176D01*
X78473593Y-76603928D01*
X78522470Y-76468018D01*
X78545412Y-76311225D01*
X78539443Y-76153327D01*
X78503977Y-76019592D01*
X78425750Y-75886335D01*
X78319628Y-75801352D01*
X78174002Y-75757005D01*
X78091429Y-75748203D01*
X77976016Y-75744012D01*
X77900230Y-75753407D01*
X77900230Y-75753407D01*
G37*
X77900230Y-75753407D02*
X77840537Y-75782007D01*
X77791778Y-75819775D01*
X77707931Y-75906971D01*
X77667473Y-75986229D01*
X77674760Y-76046809D01*
X77692772Y-76063888D01*
X77786769Y-76090338D01*
X77881925Y-76055012D01*
X77929730Y-76012657D01*
X78017997Y-75946826D01*
X78108329Y-75942649D01*
X78207899Y-75999984D01*
X78216181Y-76006968D01*
X78267644Y-76060755D01*
X78293399Y-76122684D01*
X78301734Y-76216709D01*
X78302077Y-76255200D01*
X78295359Y-76367268D01*
X78278186Y-76462477D01*
X78264781Y-76499236D01*
X78197802Y-76567467D01*
X78106484Y-76594119D01*
X78011159Y-76581370D01*
X77932161Y-76531398D01*
X77892540Y-76459354D01*
X77874963Y-76399506D01*
X77864582Y-76378697D01*
X77793336Y-76395060D01*
X77719329Y-76434096D01*
X77667090Y-76480725D01*
X77656391Y-76506687D01*
X77679011Y-76573943D01*
X77734441Y-76655763D01*
X77804035Y-76729226D01*
X77869147Y-76771415D01*
X77872639Y-76772489D01*
X78034282Y-76804688D01*
X78167719Y-76798720D01*
X78237582Y-76779185D01*
X78326546Y-76742062D01*
X78393481Y-76705374D01*
X78401756Y-76699176D01*
X78473593Y-76603928D01*
X78522470Y-76468018D01*
X78545412Y-76311225D01*
X78539443Y-76153327D01*
X78503977Y-76019592D01*
X78425750Y-75886335D01*
X78319628Y-75801352D01*
X78174002Y-75757005D01*
X78091429Y-75748203D01*
X77976016Y-75744012D01*
X77900230Y-75753407D01*
G36*
X78883725Y-75782831D02*
X78762990Y-75854825D01*
X78691560Y-75963381D01*
X78687993Y-75973921D01*
X78689421Y-76040452D01*
X78733483Y-76079760D01*
X78804253Y-76089589D01*
X78885807Y-76067682D01*
X78961404Y-76012657D01*
X79045429Y-75947324D01*
X79127596Y-75941605D01*
X79222010Y-75994613D01*
X79224015Y-75996184D01*
X79297479Y-76092392D01*
X79330153Y-76225149D01*
X79318935Y-76379699D01*
X79311275Y-76411470D01*
X79258377Y-76519403D01*
X79179035Y-76583016D01*
X79087889Y-76599693D01*
X78999580Y-76566818D01*
X78928749Y-76481775D01*
X78927844Y-76479989D01*
X78889767Y-76418969D01*
X78844719Y-76402994D01*
X78778384Y-76416283D01*
X78697822Y-76454220D01*
X78674937Y-76504483D01*
X78697634Y-76573202D01*
X78753287Y-76656071D01*
X78823246Y-76729974D01*
X78888857Y-76771794D01*
X78891185Y-76772489D01*
X79032308Y-76800386D01*
X79164708Y-76806694D01*
X79215623Y-76801142D01*
X79342772Y-76749016D01*
X79454825Y-76654317D01*
X79522022Y-76550050D01*
X79547066Y-76457318D01*
X79563062Y-76335080D01*
X79566165Y-76259862D01*
X79543650Y-76065183D01*
X79476995Y-75915737D01*
X79367538Y-75812843D01*
X79216616Y-75757819D01*
X79049371Y-75750121D01*
X78883725Y-75782831D01*
X78883725Y-75782831D01*
G37*
X78883725Y-75782831D02*
X78762990Y-75854825D01*
X78691560Y-75963381D01*
X78687993Y-75973921D01*
X78689421Y-76040452D01*
X78733483Y-76079760D01*
X78804253Y-76089589D01*
X78885807Y-76067682D01*
X78961404Y-76012657D01*
X79045429Y-75947324D01*
X79127596Y-75941605D01*
X79222010Y-75994613D01*
X79224015Y-75996184D01*
X79297479Y-76092392D01*
X79330153Y-76225149D01*
X79318935Y-76379699D01*
X79311275Y-76411470D01*
X79258377Y-76519403D01*
X79179035Y-76583016D01*
X79087889Y-76599693D01*
X78999580Y-76566818D01*
X78928749Y-76481775D01*
X78927844Y-76479989D01*
X78889767Y-76418969D01*
X78844719Y-76402994D01*
X78778384Y-76416283D01*
X78697822Y-76454220D01*
X78674937Y-76504483D01*
X78697634Y-76573202D01*
X78753287Y-76656071D01*
X78823246Y-76729974D01*
X78888857Y-76771794D01*
X78891185Y-76772489D01*
X79032308Y-76800386D01*
X79164708Y-76806694D01*
X79215623Y-76801142D01*
X79342772Y-76749016D01*
X79454825Y-76654317D01*
X79522022Y-76550050D01*
X79547066Y-76457318D01*
X79563062Y-76335080D01*
X79566165Y-76259862D01*
X79543650Y-76065183D01*
X79476995Y-75915737D01*
X79367538Y-75812843D01*
X79216616Y-75757819D01*
X79049371Y-75750121D01*
X78883725Y-75782831D01*
G36*
X92069287Y-75753879D02*
X91930634Y-75799292D01*
X91833088Y-75886465D01*
X91805175Y-75932041D01*
X91768047Y-76008877D01*
X91767299Y-76047622D01*
X91810487Y-76066943D01*
X91864095Y-76077628D01*
X91947294Y-76082709D01*
X92012883Y-76051965D01*
X92057182Y-76011855D01*
X92128277Y-75954248D01*
X92196652Y-75939756D01*
X92244293Y-75946215D01*
X92362231Y-75989413D01*
X92435159Y-76067626D01*
X92468973Y-76189224D01*
X92473058Y-76270934D01*
X92468700Y-76379490D01*
X92450009Y-76448609D01*
X92408556Y-76502239D01*
X92383751Y-76524686D01*
X92303192Y-76576610D01*
X92225304Y-76601199D01*
X92218144Y-76601504D01*
X92116302Y-76585630D01*
X92031813Y-76545208D01*
X91984126Y-76491040D01*
X91979699Y-76469077D01*
X91992449Y-76430356D01*
X92041180Y-76413364D01*
X92107018Y-76410527D01*
X92188655Y-76406756D01*
X92224946Y-76386322D01*
X92234135Y-76335542D01*
X92234336Y-76315038D01*
X92234336Y-76219549D01*
X91754103Y-76219549D01*
X91763455Y-76450314D01*
X91769485Y-76569824D01*
X91780304Y-76642521D01*
X91803066Y-76685207D01*
X91844922Y-76714685D01*
X91884211Y-76733988D01*
X92048707Y-76788684D01*
X92222450Y-76808021D01*
X92352900Y-76794091D01*
X92510665Y-76729392D01*
X92622260Y-76622664D01*
X92688888Y-76472141D01*
X92711757Y-76276060D01*
X92711779Y-76268860D01*
X92695241Y-76096231D01*
X92640290Y-75959649D01*
X92538921Y-75839232D01*
X92538713Y-75839037D01*
X92472055Y-75790934D01*
X92387136Y-75763140D01*
X92261947Y-75748621D01*
X92254199Y-75748115D01*
X92069287Y-75753879D01*
X92069287Y-75753879D01*
G37*
X92069287Y-75753879D02*
X91930634Y-75799292D01*
X91833088Y-75886465D01*
X91805175Y-75932041D01*
X91768047Y-76008877D01*
X91767299Y-76047622D01*
X91810487Y-76066943D01*
X91864095Y-76077628D01*
X91947294Y-76082709D01*
X92012883Y-76051965D01*
X92057182Y-76011855D01*
X92128277Y-75954248D01*
X92196652Y-75939756D01*
X92244293Y-75946215D01*
X92362231Y-75989413D01*
X92435159Y-76067626D01*
X92468973Y-76189224D01*
X92473058Y-76270934D01*
X92468700Y-76379490D01*
X92450009Y-76448609D01*
X92408556Y-76502239D01*
X92383751Y-76524686D01*
X92303192Y-76576610D01*
X92225304Y-76601199D01*
X92218144Y-76601504D01*
X92116302Y-76585630D01*
X92031813Y-76545208D01*
X91984126Y-76491040D01*
X91979699Y-76469077D01*
X91992449Y-76430356D01*
X92041180Y-76413364D01*
X92107018Y-76410527D01*
X92188655Y-76406756D01*
X92224946Y-76386322D01*
X92234135Y-76335542D01*
X92234336Y-76315038D01*
X92234336Y-76219549D01*
X91754103Y-76219549D01*
X91763455Y-76450314D01*
X91769485Y-76569824D01*
X91780304Y-76642521D01*
X91803066Y-76685207D01*
X91844922Y-76714685D01*
X91884211Y-76733988D01*
X92048707Y-76788684D01*
X92222450Y-76808021D01*
X92352900Y-76794091D01*
X92510665Y-76729392D01*
X92622260Y-76622664D01*
X92688888Y-76472141D01*
X92711757Y-76276060D01*
X92711779Y-76268860D01*
X92695241Y-76096231D01*
X92640290Y-75959649D01*
X92538921Y-75839232D01*
X92538713Y-75839037D01*
X92472055Y-75790934D01*
X92387136Y-75763140D01*
X92261947Y-75748621D01*
X92254199Y-75748115D01*
X92069287Y-75753879D01*
G36*
X84331198Y-76004256D02*
X84239462Y-76024877D01*
X84109318Y-76055721D01*
X83952372Y-76093905D01*
X83780228Y-76136546D01*
X83604491Y-76180761D01*
X83436768Y-76223667D01*
X83288662Y-76262381D01*
X83171780Y-76294019D01*
X83139035Y-76303279D01*
X83043099Y-76333209D01*
X82993399Y-76361726D01*
X82974741Y-76404110D01*
X82971930Y-76471333D01*
X82971930Y-76591280D01*
X83632394Y-76760881D01*
X83830969Y-76811872D01*
X84010932Y-76858082D01*
X84162335Y-76896958D01*
X84275230Y-76925944D01*
X84339670Y-76942487D01*
X84348559Y-76944767D01*
X84384727Y-76943367D01*
X84400952Y-76904901D01*
X84404261Y-76831762D01*
X84404261Y-76704470D01*
X83433459Y-76461026D01*
X83910902Y-76346865D01*
X84388346Y-76232704D01*
X84398225Y-76114723D01*
X84396525Y-76033173D01*
X84376800Y-75997302D01*
X84372920Y-75996742D01*
X84331198Y-76004256D01*
X84331198Y-76004256D01*
G37*
X84331198Y-76004256D02*
X84239462Y-76024877D01*
X84109318Y-76055721D01*
X83952372Y-76093905D01*
X83780228Y-76136546D01*
X83604491Y-76180761D01*
X83436768Y-76223667D01*
X83288662Y-76262381D01*
X83171780Y-76294019D01*
X83139035Y-76303279D01*
X83043099Y-76333209D01*
X82993399Y-76361726D01*
X82974741Y-76404110D01*
X82971930Y-76471333D01*
X82971930Y-76591280D01*
X83632394Y-76760881D01*
X83830969Y-76811872D01*
X84010932Y-76858082D01*
X84162335Y-76896958D01*
X84275230Y-76925944D01*
X84339670Y-76942487D01*
X84348559Y-76944767D01*
X84384727Y-76943367D01*
X84400952Y-76904901D01*
X84404261Y-76831762D01*
X84404261Y-76704470D01*
X83433459Y-76461026D01*
X83910902Y-76346865D01*
X84388346Y-76232704D01*
X84398225Y-76114723D01*
X84396525Y-76033173D01*
X84376800Y-75997302D01*
X84372920Y-75996742D01*
X84331198Y-76004256D01*
G36*
X82971930Y-77779198D02*
X84404261Y-77779198D01*
X84404261Y-77015289D01*
X84117795Y-77015289D01*
X84117795Y-77556391D01*
X83863158Y-77556391D01*
X83863158Y-77047118D01*
X83576692Y-77047118D01*
X83576692Y-77556391D01*
X83226566Y-77556391D01*
X83226566Y-76983459D01*
X82971930Y-76983459D01*
X82971930Y-77779198D01*
X82971930Y-77779198D01*
G37*
X82971930Y-77779198D02*
X84404261Y-77779198D01*
X84404261Y-77015289D01*
X84117795Y-77015289D01*
X84117795Y-77556391D01*
X83863158Y-77556391D01*
X83863158Y-77047118D01*
X83576692Y-77047118D01*
X83576692Y-77556391D01*
X83226566Y-77556391D01*
X83226566Y-76983459D01*
X82971930Y-76983459D01*
X82971930Y-77779198D01*
G36*
X85111212Y-76420085D02*
X85023541Y-76446056D01*
X84929998Y-76488437D01*
X84765359Y-76592990D01*
X84641283Y-76729248D01*
X84553639Y-76904548D01*
X84498295Y-77126231D01*
X84478344Y-77290734D01*
X84476013Y-77516345D01*
X84503403Y-77741537D01*
X84556796Y-77942947D01*
X84597154Y-78037589D01*
X84698849Y-78179394D01*
X84843789Y-78306497D01*
X85011586Y-78402338D01*
X85076466Y-78426911D01*
X85220427Y-78466931D01*
X85314403Y-78476754D01*
X85364315Y-78456633D01*
X85373456Y-78439662D01*
X85382449Y-78389224D01*
X85394021Y-78295894D01*
X85405238Y-78184392D01*
X85413705Y-78068327D01*
X85411298Y-78000588D01*
X85395655Y-77966411D01*
X85368057Y-77952071D01*
X85183532Y-77874509D01*
X85053566Y-77765837D01*
X84975274Y-77622374D01*
X84945767Y-77440439D01*
X84945363Y-77413158D01*
X84965392Y-77241277D01*
X85021263Y-77103048D01*
X85106657Y-77005866D01*
X85215256Y-76957130D01*
X85331127Y-76961661D01*
X85386209Y-76987117D01*
X85435216Y-77039108D01*
X85482276Y-77125871D01*
X85531517Y-77255643D01*
X85587065Y-77436660D01*
X85610023Y-77518201D01*
X85671812Y-77729828D01*
X85727822Y-77891213D01*
X85784077Y-78014668D01*
X85846598Y-78112508D01*
X85921407Y-78197045D01*
X85959706Y-78233142D01*
X86080177Y-78320655D01*
X86212749Y-78368984D01*
X86375168Y-78382967D01*
X86488657Y-78377362D01*
X86677642Y-78335188D01*
X86833785Y-78240796D01*
X86961939Y-78090881D01*
X86997960Y-78030404D01*
X87041384Y-77945148D01*
X87070018Y-77866957D01*
X87087682Y-77777484D01*
X87098198Y-77658383D01*
X87104402Y-77519233D01*
X87103852Y-77280260D01*
X87080488Y-77088638D01*
X87030617Y-76931000D01*
X86950544Y-76793976D01*
X86880710Y-76709806D01*
X86747597Y-76598508D01*
X86589778Y-76516940D01*
X86431211Y-76476558D01*
X86387939Y-76474186D01*
X86351804Y-76477469D01*
X86329904Y-76495804D01*
X86318681Y-76541915D01*
X86314580Y-76628528D01*
X86314035Y-76738612D01*
X86314035Y-77003038D01*
X86438148Y-77057796D01*
X86558512Y-77143594D01*
X86634691Y-77272832D01*
X86663925Y-77440611D01*
X86664160Y-77458778D01*
X86647488Y-77612616D01*
X86601821Y-77738112D01*
X86533682Y-77825513D01*
X86449595Y-77865062D01*
X86394601Y-77861866D01*
X86343239Y-77838932D01*
X86297925Y-77792441D01*
X86254449Y-77713849D01*
X86208599Y-77594614D01*
X86156162Y-77426192D01*
X86123901Y-77312773D01*
X86041549Y-77044713D01*
X85957263Y-76833864D01*
X85865485Y-76673881D01*
X85760659Y-76558420D01*
X85637229Y-76481135D01*
X85489638Y-76435682D01*
X85339641Y-76417245D01*
X85207500Y-76412059D01*
X85111212Y-76420085D01*
X85111212Y-76420085D01*
G37*
X85111212Y-76420085D02*
X85023541Y-76446056D01*
X84929998Y-76488437D01*
X84765359Y-76592990D01*
X84641283Y-76729248D01*
X84553639Y-76904548D01*
X84498295Y-77126231D01*
X84478344Y-77290734D01*
X84476013Y-77516345D01*
X84503403Y-77741537D01*
X84556796Y-77942947D01*
X84597154Y-78037589D01*
X84698849Y-78179394D01*
X84843789Y-78306497D01*
X85011586Y-78402338D01*
X85076466Y-78426911D01*
X85220427Y-78466931D01*
X85314403Y-78476754D01*
X85364315Y-78456633D01*
X85373456Y-78439662D01*
X85382449Y-78389224D01*
X85394021Y-78295894D01*
X85405238Y-78184392D01*
X85413705Y-78068327D01*
X85411298Y-78000588D01*
X85395655Y-77966411D01*
X85368057Y-77952071D01*
X85183532Y-77874509D01*
X85053566Y-77765837D01*
X84975274Y-77622374D01*
X84945767Y-77440439D01*
X84945363Y-77413158D01*
X84965392Y-77241277D01*
X85021263Y-77103048D01*
X85106657Y-77005866D01*
X85215256Y-76957130D01*
X85331127Y-76961661D01*
X85386209Y-76987117D01*
X85435216Y-77039108D01*
X85482276Y-77125871D01*
X85531517Y-77255643D01*
X85587065Y-77436660D01*
X85610023Y-77518201D01*
X85671812Y-77729828D01*
X85727822Y-77891213D01*
X85784077Y-78014668D01*
X85846598Y-78112508D01*
X85921407Y-78197045D01*
X85959706Y-78233142D01*
X86080177Y-78320655D01*
X86212749Y-78368984D01*
X86375168Y-78382967D01*
X86488657Y-78377362D01*
X86677642Y-78335188D01*
X86833785Y-78240796D01*
X86961939Y-78090881D01*
X86997960Y-78030404D01*
X87041384Y-77945148D01*
X87070018Y-77866957D01*
X87087682Y-77777484D01*
X87098198Y-77658383D01*
X87104402Y-77519233D01*
X87103852Y-77280260D01*
X87080488Y-77088638D01*
X87030617Y-76931000D01*
X86950544Y-76793976D01*
X86880710Y-76709806D01*
X86747597Y-76598508D01*
X86589778Y-76516940D01*
X86431211Y-76476558D01*
X86387939Y-76474186D01*
X86351804Y-76477469D01*
X86329904Y-76495804D01*
X86318681Y-76541915D01*
X86314580Y-76628528D01*
X86314035Y-76738612D01*
X86314035Y-77003038D01*
X86438148Y-77057796D01*
X86558512Y-77143594D01*
X86634691Y-77272832D01*
X86663925Y-77440611D01*
X86664160Y-77458778D01*
X86647488Y-77612616D01*
X86601821Y-77738112D01*
X86533682Y-77825513D01*
X86449595Y-77865062D01*
X86394601Y-77861866D01*
X86343239Y-77838932D01*
X86297925Y-77792441D01*
X86254449Y-77713849D01*
X86208599Y-77594614D01*
X86156162Y-77426192D01*
X86123901Y-77312773D01*
X86041549Y-77044713D01*
X85957263Y-76833864D01*
X85865485Y-76673881D01*
X85760659Y-76558420D01*
X85637229Y-76481135D01*
X85489638Y-76435682D01*
X85339641Y-76417245D01*
X85207500Y-76412059D01*
X85111212Y-76420085D01*
G36*
X83479980Y-77944908D02*
X83349776Y-77962816D01*
X83248841Y-77995343D01*
X83242481Y-77998209D01*
X83133399Y-78055305D01*
X83059937Y-78117225D01*
X83014545Y-78198189D01*
X82989674Y-78312417D01*
X82977775Y-78474132D01*
X82976815Y-78498642D01*
X82965785Y-78797745D01*
X84410406Y-78797745D01*
X84399376Y-78492714D01*
X84396802Y-78432438D01*
X84117795Y-78432438D01*
X84117795Y-78574938D01*
X83218185Y-78574938D01*
X83235888Y-78442948D01*
X83261189Y-78329269D01*
X83308076Y-78252314D01*
X83387026Y-78205613D01*
X83508514Y-78182700D01*
X83666507Y-78177068D01*
X83848575Y-78183342D01*
X83976324Y-78205329D01*
X84058139Y-78247775D01*
X84102409Y-78315425D01*
X84117522Y-78413027D01*
X84117795Y-78432438D01*
X84396802Y-78432438D01*
X84393304Y-78350537D01*
X84384528Y-78256420D01*
X84368610Y-78194790D01*
X84341113Y-78150070D01*
X84297601Y-78106687D01*
X84286596Y-78096809D01*
X84188193Y-78025874D01*
X84071564Y-77978270D01*
X83923395Y-77950668D01*
X83730373Y-77939740D01*
X83656266Y-77939223D01*
X83479980Y-77944908D01*
X83479980Y-77944908D01*
G37*
X83479980Y-77944908D02*
X83349776Y-77962816D01*
X83248841Y-77995343D01*
X83242481Y-77998209D01*
X83133399Y-78055305D01*
X83059937Y-78117225D01*
X83014545Y-78198189D01*
X82989674Y-78312417D01*
X82977775Y-78474132D01*
X82976815Y-78498642D01*
X82965785Y-78797745D01*
X84410406Y-78797745D01*
X84399376Y-78492714D01*
X84396802Y-78432438D01*
X84117795Y-78432438D01*
X84117795Y-78574938D01*
X83218185Y-78574938D01*
X83235888Y-78442948D01*
X83261189Y-78329269D01*
X83308076Y-78252314D01*
X83387026Y-78205613D01*
X83508514Y-78182700D01*
X83666507Y-78177068D01*
X83848575Y-78183342D01*
X83976324Y-78205329D01*
X84058139Y-78247775D01*
X84102409Y-78315425D01*
X84117522Y-78413027D01*
X84117795Y-78432438D01*
X84396802Y-78432438D01*
X84393304Y-78350537D01*
X84384528Y-78256420D01*
X84368610Y-78194790D01*
X84341113Y-78150070D01*
X84297601Y-78106687D01*
X84286596Y-78096809D01*
X84188193Y-78025874D01*
X84071564Y-77978270D01*
X83923395Y-77950668D01*
X83730373Y-77939740D01*
X83656266Y-77939223D01*
X83479980Y-77944908D01*
G36*
X79040159Y-78645149D02*
X78918068Y-79001826D01*
X78685890Y-78304386D01*
X78569010Y-78294508D01*
X78483238Y-78296450D01*
X78452419Y-78322482D01*
X78452188Y-78326337D01*
X78462569Y-78369308D01*
X78491192Y-78460828D01*
X78534343Y-78589691D01*
X78588307Y-78744693D01*
X78624298Y-78845489D01*
X78796350Y-79322933D01*
X79047754Y-79342061D01*
X79227386Y-78845580D01*
X79287358Y-78678075D01*
X79338835Y-78530965D01*
X79378190Y-78414880D01*
X79401800Y-78340449D01*
X79407018Y-78318785D01*
X79378850Y-78299493D01*
X79308802Y-78289069D01*
X79284634Y-78288472D01*
X79162249Y-78288472D01*
X79040159Y-78645149D01*
X79040159Y-78645149D01*
G37*
X79040159Y-78645149D02*
X78918068Y-79001826D01*
X78685890Y-78304386D01*
X78569010Y-78294508D01*
X78483238Y-78296450D01*
X78452419Y-78322482D01*
X78452188Y-78326337D01*
X78462569Y-78369308D01*
X78491192Y-78460828D01*
X78534343Y-78589691D01*
X78588307Y-78744693D01*
X78624298Y-78845489D01*
X78796350Y-79322933D01*
X79047754Y-79342061D01*
X79227386Y-78845580D01*
X79287358Y-78678075D01*
X79338835Y-78530965D01*
X79378190Y-78414880D01*
X79401800Y-78340449D01*
X79407018Y-78318785D01*
X79378850Y-78299493D01*
X79308802Y-78289069D01*
X79284634Y-78288472D01*
X79162249Y-78288472D01*
X79040159Y-78645149D01*
G36*
X88064662Y-78511279D02*
X88382957Y-78511279D01*
X88382957Y-79338847D01*
X88605764Y-79338847D01*
X88605764Y-78511279D01*
X88748998Y-78511279D01*
X88837006Y-78508900D01*
X88878681Y-78492782D01*
X88891347Y-78449450D01*
X88892231Y-78399875D01*
X88892231Y-78288472D01*
X88064662Y-78288472D01*
X88064662Y-78511279D01*
X88064662Y-78511279D01*
G37*
X88064662Y-78511279D02*
X88382957Y-78511279D01*
X88382957Y-79338847D01*
X88605764Y-79338847D01*
X88605764Y-78511279D01*
X88748998Y-78511279D01*
X88837006Y-78508900D01*
X88878681Y-78492782D01*
X88891347Y-78449450D01*
X88892231Y-78399875D01*
X88892231Y-78288472D01*
X88064662Y-78288472D01*
X88064662Y-78511279D01*
G36*
X88987719Y-78511279D02*
X89528822Y-78511279D01*
X89528822Y-78702256D01*
X89019549Y-78702256D01*
X89019549Y-78893233D01*
X89528822Y-78893233D01*
X89528822Y-79147870D01*
X88987719Y-79147870D01*
X88987719Y-79338847D01*
X89783459Y-79338847D01*
X89783459Y-78288472D01*
X88987719Y-78288472D01*
X88987719Y-78511279D01*
X88987719Y-78511279D01*
G37*
X88987719Y-78511279D02*
X89528822Y-78511279D01*
X89528822Y-78702256D01*
X89019549Y-78702256D01*
X89019549Y-78893233D01*
X89528822Y-78893233D01*
X89528822Y-79147870D01*
X88987719Y-79147870D01*
X88987719Y-79338847D01*
X89783459Y-79338847D01*
X89783459Y-78288472D01*
X88987719Y-78288472D01*
X88987719Y-78511279D01*
G36*
X90897494Y-78511279D02*
X91438597Y-78511279D01*
X91438597Y-78702256D01*
X90929323Y-78702256D01*
X90929323Y-78893233D01*
X91438597Y-78893233D01*
X91438597Y-79147870D01*
X90865664Y-79147870D01*
X90865664Y-79338847D01*
X91661404Y-79338847D01*
X91661404Y-78288472D01*
X90897494Y-78288472D01*
X90897494Y-78511279D01*
X90897494Y-78511279D01*
G37*
X90897494Y-78511279D02*
X91438597Y-78511279D01*
X91438597Y-78702256D01*
X90929323Y-78702256D01*
X90929323Y-78893233D01*
X91438597Y-78893233D01*
X91438597Y-79147870D01*
X90865664Y-79147870D01*
X90865664Y-79338847D01*
X91661404Y-79338847D01*
X91661404Y-78288472D01*
X90897494Y-78288472D01*
X90897494Y-78511279D01*
G36*
X92218646Y-78294574D02*
X92078317Y-78311663D01*
X91996609Y-78333749D01*
X91902365Y-78403076D01*
X91847449Y-78504274D01*
X91833014Y-78619467D01*
X91860214Y-78730777D01*
X91930200Y-78820328D01*
X91963785Y-78842553D01*
X92019428Y-78873243D01*
X92040831Y-78885402D01*
X92031715Y-78911499D01*
X91991167Y-78963303D01*
X91989662Y-78964975D01*
X91931728Y-79036043D01*
X91867732Y-79124545D01*
X91809493Y-79212738D01*
X91768830Y-79282880D01*
X91756892Y-79314407D01*
X91785255Y-79329325D01*
X91856579Y-79337942D01*
X91892168Y-79338791D01*
X91976861Y-79333666D01*
X92032595Y-79308675D01*
X92083137Y-79249260D01*
X92112988Y-79203515D01*
X92217511Y-79054052D01*
X92306055Y-78962509D01*
X92381527Y-78926012D01*
X92394724Y-78925063D01*
X92428542Y-78931840D01*
X92447399Y-78961512D01*
X92455520Y-79028086D01*
X92457143Y-79131955D01*
X92457143Y-79338847D01*
X92679950Y-79338847D01*
X92679950Y-78621094D01*
X92457143Y-78621094D01*
X92452363Y-78696476D01*
X92425517Y-78727670D01*
X92357847Y-78734064D01*
X92347811Y-78734086D01*
X92244057Y-78724403D01*
X92154627Y-78702205D01*
X92091907Y-78661733D01*
X92080824Y-78599578D01*
X92080938Y-78598759D01*
X92093997Y-78557603D01*
X92128895Y-78534380D01*
X92201517Y-78522420D01*
X92274123Y-78517648D01*
X92457143Y-78508102D01*
X92457143Y-78621094D01*
X92679950Y-78621094D01*
X92679950Y-78288472D01*
X92392461Y-78288472D01*
X92218646Y-78294574D01*
X92218646Y-78294574D01*
G37*
X92218646Y-78294574D02*
X92078317Y-78311663D01*
X91996609Y-78333749D01*
X91902365Y-78403076D01*
X91847449Y-78504274D01*
X91833014Y-78619467D01*
X91860214Y-78730777D01*
X91930200Y-78820328D01*
X91963785Y-78842553D01*
X92019428Y-78873243D01*
X92040831Y-78885402D01*
X92031715Y-78911499D01*
X91991167Y-78963303D01*
X91989662Y-78964975D01*
X91931728Y-79036043D01*
X91867732Y-79124545D01*
X91809493Y-79212738D01*
X91768830Y-79282880D01*
X91756892Y-79314407D01*
X91785255Y-79329325D01*
X91856579Y-79337942D01*
X91892168Y-79338791D01*
X91976861Y-79333666D01*
X92032595Y-79308675D01*
X92083137Y-79249260D01*
X92112988Y-79203515D01*
X92217511Y-79054052D01*
X92306055Y-78962509D01*
X92381527Y-78926012D01*
X92394724Y-78925063D01*
X92428542Y-78931840D01*
X92447399Y-78961512D01*
X92455520Y-79028086D01*
X92457143Y-79131955D01*
X92457143Y-79338847D01*
X92679950Y-79338847D01*
X92679950Y-78621094D01*
X92457143Y-78621094D01*
X92452363Y-78696476D01*
X92425517Y-78727670D01*
X92357847Y-78734064D01*
X92347811Y-78734086D01*
X92244057Y-78724403D01*
X92154627Y-78702205D01*
X92091907Y-78661733D01*
X92080824Y-78599578D01*
X92080938Y-78598759D01*
X92093997Y-78557603D01*
X92128895Y-78534380D01*
X92201517Y-78522420D01*
X92274123Y-78517648D01*
X92457143Y-78508102D01*
X92457143Y-78621094D01*
X92679950Y-78621094D01*
X92679950Y-78288472D01*
X92392461Y-78288472D01*
X92218646Y-78294574D01*
G36*
X77964308Y-78309798D02*
X77895925Y-78332374D01*
X77839312Y-78381622D01*
X77828698Y-78393693D01*
X77763455Y-78504858D01*
X77761599Y-78613997D01*
X77800686Y-78694112D01*
X77830978Y-78749057D01*
X77818629Y-78791418D01*
X77784771Y-78828513D01*
X77727937Y-78926619D01*
X77718356Y-79045679D01*
X77754662Y-79165554D01*
X77813090Y-79245807D01*
X77882769Y-79304678D01*
X77941840Y-79336826D01*
X77953720Y-79338847D01*
X78026577Y-79347464D01*
X78043700Y-79351857D01*
X78102561Y-79352678D01*
X78184168Y-79336424D01*
X78303815Y-79275775D01*
X78377607Y-79181413D01*
X78395694Y-79114346D01*
X78390795Y-79056432D01*
X78346722Y-79031218D01*
X78313595Y-79026080D01*
X78224710Y-79037738D01*
X78176515Y-79081782D01*
X78107357Y-79138261D01*
X78028948Y-79140203D01*
X77981053Y-79109675D01*
X77947454Y-79040788D01*
X77957460Y-78965273D01*
X78000406Y-78902978D01*
X78065624Y-78873749D01*
X78105359Y-78878383D01*
X78153109Y-78874104D01*
X78170927Y-78833852D01*
X78160671Y-78776812D01*
X78124194Y-78722167D01*
X78087841Y-78697262D01*
X78010920Y-78641561D01*
X77987453Y-78575136D01*
X78009865Y-78523159D01*
X78060855Y-78483638D01*
X78113045Y-78499263D01*
X78157135Y-78543108D01*
X78230509Y-78591952D01*
X78300056Y-78606767D01*
X78369069Y-78587758D01*
X78388383Y-78535149D01*
X78357638Y-78455568D01*
X78311653Y-78393693D01*
X78254457Y-78338798D01*
X78189990Y-78312241D01*
X78092539Y-78304512D01*
X78070175Y-78304386D01*
X77964308Y-78309798D01*
X77964308Y-78309798D01*
G37*
X77964308Y-78309798D02*
X77895925Y-78332374D01*
X77839312Y-78381622D01*
X77828698Y-78393693D01*
X77763455Y-78504858D01*
X77761599Y-78613997D01*
X77800686Y-78694112D01*
X77830978Y-78749057D01*
X77818629Y-78791418D01*
X77784771Y-78828513D01*
X77727937Y-78926619D01*
X77718356Y-79045679D01*
X77754662Y-79165554D01*
X77813090Y-79245807D01*
X77882769Y-79304678D01*
X77941840Y-79336826D01*
X77953720Y-79338847D01*
X78026577Y-79347464D01*
X78043700Y-79351857D01*
X78102561Y-79352678D01*
X78184168Y-79336424D01*
X78303815Y-79275775D01*
X78377607Y-79181413D01*
X78395694Y-79114346D01*
X78390795Y-79056432D01*
X78346722Y-79031218D01*
X78313595Y-79026080D01*
X78224710Y-79037738D01*
X78176515Y-79081782D01*
X78107357Y-79138261D01*
X78028948Y-79140203D01*
X77981053Y-79109675D01*
X77947454Y-79040788D01*
X77957460Y-78965273D01*
X78000406Y-78902978D01*
X78065624Y-78873749D01*
X78105359Y-78878383D01*
X78153109Y-78874104D01*
X78170927Y-78833852D01*
X78160671Y-78776812D01*
X78124194Y-78722167D01*
X78087841Y-78697262D01*
X78010920Y-78641561D01*
X77987453Y-78575136D01*
X78009865Y-78523159D01*
X78060855Y-78483638D01*
X78113045Y-78499263D01*
X78157135Y-78543108D01*
X78230509Y-78591952D01*
X78300056Y-78606767D01*
X78369069Y-78587758D01*
X78388383Y-78535149D01*
X78357638Y-78455568D01*
X78311653Y-78393693D01*
X78254457Y-78338798D01*
X78189990Y-78312241D01*
X78092539Y-78304512D01*
X78070175Y-78304386D01*
X77964308Y-78309798D01*
G36*
X79705963Y-78305873D02*
X79608775Y-78349491D01*
X79538483Y-78406448D01*
X79522278Y-78433131D01*
X79503937Y-78524028D01*
X79506644Y-78623815D01*
X79528080Y-78704843D01*
X79547330Y-78731662D01*
X79570848Y-78764425D01*
X79553019Y-78804883D01*
X79515501Y-78845516D01*
X79454772Y-78945751D01*
X79445074Y-79060065D01*
X79481084Y-79172928D01*
X79557480Y-79268812D01*
X79668937Y-79332185D01*
X79683871Y-79336717D01*
X79764587Y-79357155D01*
X79815300Y-79366325D01*
X79820802Y-79366165D01*
X79861362Y-79357458D01*
X79907247Y-79348356D01*
X79976144Y-79314055D01*
X80048280Y-79248326D01*
X80106321Y-79171220D01*
X80132934Y-79102785D01*
X80132396Y-79087924D01*
X80100598Y-79049239D01*
X80039055Y-79027193D01*
X79972359Y-79024376D01*
X79925103Y-79043380D01*
X79916291Y-79065160D01*
X79890978Y-79117636D01*
X79853361Y-79147480D01*
X79795343Y-79162352D01*
X79739341Y-79129553D01*
X79726043Y-79116770D01*
X79674587Y-79056541D01*
X79668494Y-79006856D01*
X79705844Y-78939880D01*
X79713122Y-78929407D01*
X79776813Y-78874458D01*
X79824525Y-78871600D01*
X79871140Y-78863049D01*
X79888912Y-78818901D01*
X79879130Y-78759636D01*
X79843080Y-78705732D01*
X79812845Y-78685932D01*
X79754641Y-78637464D01*
X79730436Y-78572230D01*
X79744616Y-78513428D01*
X79775783Y-78489914D01*
X79841097Y-78496841D01*
X79886564Y-78537800D01*
X79950040Y-78584725D01*
X80028888Y-78606210D01*
X80097081Y-78597882D01*
X80121709Y-78577323D01*
X80124073Y-78520354D01*
X80089231Y-78445351D01*
X80030006Y-78373645D01*
X79975334Y-78333829D01*
X79882886Y-78300187D01*
X79804887Y-78288472D01*
X79705963Y-78305873D01*
X79705963Y-78305873D01*
G37*
X79705963Y-78305873D02*
X79608775Y-78349491D01*
X79538483Y-78406448D01*
X79522278Y-78433131D01*
X79503937Y-78524028D01*
X79506644Y-78623815D01*
X79528080Y-78704843D01*
X79547330Y-78731662D01*
X79570848Y-78764425D01*
X79553019Y-78804883D01*
X79515501Y-78845516D01*
X79454772Y-78945751D01*
X79445074Y-79060065D01*
X79481084Y-79172928D01*
X79557480Y-79268812D01*
X79668937Y-79332185D01*
X79683871Y-79336717D01*
X79764587Y-79357155D01*
X79815300Y-79366325D01*
X79820802Y-79366165D01*
X79861362Y-79357458D01*
X79907247Y-79348356D01*
X79976144Y-79314055D01*
X80048280Y-79248326D01*
X80106321Y-79171220D01*
X80132934Y-79102785D01*
X80132396Y-79087924D01*
X80100598Y-79049239D01*
X80039055Y-79027193D01*
X79972359Y-79024376D01*
X79925103Y-79043380D01*
X79916291Y-79065160D01*
X79890978Y-79117636D01*
X79853361Y-79147480D01*
X79795343Y-79162352D01*
X79739341Y-79129553D01*
X79726043Y-79116770D01*
X79674587Y-79056541D01*
X79668494Y-79006856D01*
X79705844Y-78939880D01*
X79713122Y-78929407D01*
X79776813Y-78874458D01*
X79824525Y-78871600D01*
X79871140Y-78863049D01*
X79888912Y-78818901D01*
X79879130Y-78759636D01*
X79843080Y-78705732D01*
X79812845Y-78685932D01*
X79754641Y-78637464D01*
X79730436Y-78572230D01*
X79744616Y-78513428D01*
X79775783Y-78489914D01*
X79841097Y-78496841D01*
X79886564Y-78537800D01*
X79950040Y-78584725D01*
X80028888Y-78606210D01*
X80097081Y-78597882D01*
X80121709Y-78577323D01*
X80124073Y-78520354D01*
X80089231Y-78445351D01*
X80030006Y-78373645D01*
X79975334Y-78333829D01*
X79882886Y-78300187D01*
X79804887Y-78288472D01*
X79705963Y-78305873D01*
G36*
X90195699Y-78306286D02*
X90067939Y-78360815D01*
X89986489Y-78453685D01*
X89974635Y-78478969D01*
X89948300Y-78549049D01*
X89953406Y-78585607D01*
X90001331Y-78605235D01*
X90070324Y-78618484D01*
X90149316Y-78626055D01*
X90191848Y-78605070D01*
X90213557Y-78567005D01*
X90269519Y-78508815D01*
X90354865Y-78482979D01*
X90441037Y-78495486D01*
X90470112Y-78513202D01*
X90497089Y-78560436D01*
X90462757Y-78607459D01*
X90366245Y-78655014D01*
X90266194Y-78687594D01*
X90098438Y-78752707D01*
X89988003Y-78836402D01*
X89930333Y-78942300D01*
X89926538Y-78957593D01*
X89926912Y-79056294D01*
X89958435Y-79165089D01*
X90010836Y-79257422D01*
X90059273Y-79300760D01*
X90146234Y-79329676D01*
X90263077Y-79349493D01*
X90376465Y-79355854D01*
X90435965Y-79349961D01*
X90591264Y-79297768D01*
X90691785Y-79223909D01*
X90723932Y-79176797D01*
X90764746Y-79072405D01*
X90758045Y-79005521D01*
X90719828Y-78976213D01*
X90642021Y-78958470D01*
X90576705Y-78962576D01*
X90547462Y-78986821D01*
X90547368Y-78988722D01*
X90519377Y-79056535D01*
X90449516Y-79108710D01*
X90358951Y-79138484D01*
X90268852Y-79139088D01*
X90200385Y-79103757D01*
X90197580Y-79100531D01*
X90170657Y-79038643D01*
X90201545Y-78984274D01*
X90292421Y-78935186D01*
X90389083Y-78903823D01*
X90551150Y-78839015D01*
X90665190Y-78752052D01*
X90727799Y-78649874D01*
X90735573Y-78539419D01*
X90685111Y-78427623D01*
X90645306Y-78381512D01*
X90580908Y-78326194D01*
X90514424Y-78298299D01*
X90419982Y-78288981D01*
X90373174Y-78288472D01*
X90195699Y-78306286D01*
X90195699Y-78306286D01*
G37*
X90195699Y-78306286D02*
X90067939Y-78360815D01*
X89986489Y-78453685D01*
X89974635Y-78478969D01*
X89948300Y-78549049D01*
X89953406Y-78585607D01*
X90001331Y-78605235D01*
X90070324Y-78618484D01*
X90149316Y-78626055D01*
X90191848Y-78605070D01*
X90213557Y-78567005D01*
X90269519Y-78508815D01*
X90354865Y-78482979D01*
X90441037Y-78495486D01*
X90470112Y-78513202D01*
X90497089Y-78560436D01*
X90462757Y-78607459D01*
X90366245Y-78655014D01*
X90266194Y-78687594D01*
X90098438Y-78752707D01*
X89988003Y-78836402D01*
X89930333Y-78942300D01*
X89926538Y-78957593D01*
X89926912Y-79056294D01*
X89958435Y-79165089D01*
X90010836Y-79257422D01*
X90059273Y-79300760D01*
X90146234Y-79329676D01*
X90263077Y-79349493D01*
X90376465Y-79355854D01*
X90435965Y-79349961D01*
X90591264Y-79297768D01*
X90691785Y-79223909D01*
X90723932Y-79176797D01*
X90764746Y-79072405D01*
X90758045Y-79005521D01*
X90719828Y-78976213D01*
X90642021Y-78958470D01*
X90576705Y-78962576D01*
X90547462Y-78986821D01*
X90547368Y-78988722D01*
X90519377Y-79056535D01*
X90449516Y-79108710D01*
X90358951Y-79138484D01*
X90268852Y-79139088D01*
X90200385Y-79103757D01*
X90197580Y-79100531D01*
X90170657Y-79038643D01*
X90201545Y-78984274D01*
X90292421Y-78935186D01*
X90389083Y-78903823D01*
X90551150Y-78839015D01*
X90665190Y-78752052D01*
X90727799Y-78649874D01*
X90735573Y-78539419D01*
X90685111Y-78427623D01*
X90645306Y-78381512D01*
X90580908Y-78326194D01*
X90514424Y-78298299D01*
X90419982Y-78288981D01*
X90373174Y-78288472D01*
X90195699Y-78306286D01*
G36*
X83311700Y-79339605D02*
X83217369Y-79344156D01*
X83158038Y-79355917D01*
X83119378Y-79378306D01*
X83087059Y-79414739D01*
X83076202Y-79429264D01*
X82989037Y-79588373D01*
X82951616Y-79754635D01*
X82967285Y-79908828D01*
X83035412Y-80039324D01*
X83148133Y-80155355D01*
X83286460Y-80239272D01*
X83345057Y-80259991D01*
X83471226Y-80281691D01*
X83630757Y-80290742D01*
X83799484Y-80287578D01*
X83953236Y-80272629D01*
X84065681Y-80247110D01*
X84226155Y-80162165D01*
X84342630Y-80042541D01*
X84409364Y-79897961D01*
X84420609Y-79738143D01*
X84407426Y-79668898D01*
X84353677Y-79540834D01*
X84264974Y-79451197D01*
X84127859Y-79386034D01*
X84037335Y-79360785D01*
X83986567Y-79372183D01*
X83957803Y-79429569D01*
X83945356Y-79482081D01*
X83939197Y-79551796D01*
X83969283Y-79593084D01*
X84021648Y-79620056D01*
X84108180Y-79687807D01*
X84143482Y-79782753D01*
X84121715Y-79888302D01*
X84118364Y-79894802D01*
X84040879Y-79977268D01*
X83921127Y-80033583D01*
X83775415Y-80062518D01*
X83620053Y-80062845D01*
X83471349Y-80033335D01*
X83345613Y-79972760D01*
X83322207Y-79954767D01*
X83248900Y-79872152D01*
X83230666Y-79784629D01*
X83264951Y-79675970D01*
X83275128Y-79655563D01*
X83334816Y-79581221D01*
X83402447Y-79561654D01*
X83453209Y-79568736D01*
X83475770Y-79601891D01*
X83481180Y-79678983D01*
X83481203Y-79688973D01*
X83481203Y-79816291D01*
X83767669Y-79816291D01*
X83767669Y-79338847D01*
X83455359Y-79338847D01*
X83311700Y-79339605D01*
X83311700Y-79339605D01*
G37*
X83311700Y-79339605D02*
X83217369Y-79344156D01*
X83158038Y-79355917D01*
X83119378Y-79378306D01*
X83087059Y-79414739D01*
X83076202Y-79429264D01*
X82989037Y-79588373D01*
X82951616Y-79754635D01*
X82967285Y-79908828D01*
X83035412Y-80039324D01*
X83148133Y-80155355D01*
X83286460Y-80239272D01*
X83345057Y-80259991D01*
X83471226Y-80281691D01*
X83630757Y-80290742D01*
X83799484Y-80287578D01*
X83953236Y-80272629D01*
X84065681Y-80247110D01*
X84226155Y-80162165D01*
X84342630Y-80042541D01*
X84409364Y-79897961D01*
X84420609Y-79738143D01*
X84407426Y-79668898D01*
X84353677Y-79540834D01*
X84264974Y-79451197D01*
X84127859Y-79386034D01*
X84037335Y-79360785D01*
X83986567Y-79372183D01*
X83957803Y-79429569D01*
X83945356Y-79482081D01*
X83939197Y-79551796D01*
X83969283Y-79593084D01*
X84021648Y-79620056D01*
X84108180Y-79687807D01*
X84143482Y-79782753D01*
X84121715Y-79888302D01*
X84118364Y-79894802D01*
X84040879Y-79977268D01*
X83921127Y-80033583D01*
X83775415Y-80062518D01*
X83620053Y-80062845D01*
X83471349Y-80033335D01*
X83345613Y-79972760D01*
X83322207Y-79954767D01*
X83248900Y-79872152D01*
X83230666Y-79784629D01*
X83264951Y-79675970D01*
X83275128Y-79655563D01*
X83334816Y-79581221D01*
X83402447Y-79561654D01*
X83453209Y-79568736D01*
X83475770Y-79601891D01*
X83481180Y-79678983D01*
X83481203Y-79688973D01*
X83481203Y-79816291D01*
X83767669Y-79816291D01*
X83767669Y-79338847D01*
X83455359Y-79338847D01*
X83311700Y-79339605D01*
G36*
X84354535Y-80343167D02*
X84259514Y-80361517D01*
X84120763Y-80386990D01*
X83947802Y-80417852D01*
X83750151Y-80452368D01*
X83648308Y-80469895D01*
X82940100Y-80591200D01*
X82940100Y-80681189D01*
X82952315Y-80747169D01*
X82979887Y-80767099D01*
X83024740Y-80760173D01*
X83119165Y-80744125D01*
X83250105Y-80721219D01*
X83404498Y-80693717D01*
X83433459Y-80688510D01*
X83623608Y-80654314D01*
X83824604Y-80618242D01*
X84010881Y-80584876D01*
X84141667Y-80561513D01*
X84278670Y-80536437D01*
X84364802Y-80516584D01*
X84411870Y-80496035D01*
X84431678Y-80468869D01*
X84436032Y-80429168D01*
X84436090Y-80413889D01*
X84425233Y-80344942D01*
X84396303Y-80333672D01*
X84354535Y-80343167D01*
X84354535Y-80343167D01*
G37*
X84354535Y-80343167D02*
X84259514Y-80361517D01*
X84120763Y-80386990D01*
X83947802Y-80417852D01*
X83750151Y-80452368D01*
X83648308Y-80469895D01*
X82940100Y-80591200D01*
X82940100Y-80681189D01*
X82952315Y-80747169D01*
X82979887Y-80767099D01*
X83024740Y-80760173D01*
X83119165Y-80744125D01*
X83250105Y-80721219D01*
X83404498Y-80693717D01*
X83433459Y-80688510D01*
X83623608Y-80654314D01*
X83824604Y-80618242D01*
X84010881Y-80584876D01*
X84141667Y-80561513D01*
X84278670Y-80536437D01*
X84364802Y-80516584D01*
X84411870Y-80496035D01*
X84431678Y-80468869D01*
X84436032Y-80429168D01*
X84436090Y-80413889D01*
X84425233Y-80344942D01*
X84396303Y-80333672D01*
X84354535Y-80343167D01*
G36*
X86306078Y-78861645D02*
X85958293Y-78863659D01*
X85667653Y-78870155D01*
X85427733Y-78882173D01*
X85232114Y-78900749D01*
X85074371Y-78926924D01*
X84948083Y-78961735D01*
X84846828Y-79006220D01*
X84764184Y-79061419D01*
X84700239Y-79121297D01*
X84601613Y-79267366D01*
X84529107Y-79458773D01*
X84485365Y-79681682D01*
X84473036Y-79922259D01*
X84494764Y-80166669D01*
X84497357Y-80182007D01*
X84534192Y-80353407D01*
X84582015Y-80482411D01*
X84651129Y-80590276D01*
X84743726Y-80690433D01*
X84805530Y-80746207D01*
X84869384Y-80791556D01*
X84942582Y-80827702D01*
X85032422Y-80855860D01*
X85146200Y-80877251D01*
X85291211Y-80893093D01*
X85474752Y-80904603D01*
X85704119Y-80913001D01*
X85986609Y-80919504D01*
X86131015Y-80922104D01*
X87077945Y-80938255D01*
X87077945Y-80394400D01*
X86178759Y-80383854D01*
X85913907Y-80380480D01*
X85704898Y-80376896D01*
X85543915Y-80372522D01*
X85423142Y-80366774D01*
X85334765Y-80359071D01*
X85270967Y-80348829D01*
X85223932Y-80335468D01*
X85185845Y-80318404D01*
X85168170Y-80308567D01*
X85057655Y-80212278D01*
X84984189Y-80082998D01*
X84948238Y-79935397D01*
X84950268Y-79784149D01*
X84990743Y-79643924D01*
X85070127Y-79529396D01*
X85141791Y-79476237D01*
X85178840Y-79459153D01*
X85225460Y-79445541D01*
X85289269Y-79434893D01*
X85377881Y-79426698D01*
X85498914Y-79420447D01*
X85659985Y-79415630D01*
X85868710Y-79411737D01*
X86132705Y-79408259D01*
X86162845Y-79407909D01*
X87077945Y-79397397D01*
X87077945Y-78861404D01*
X86306078Y-78861645D01*
X86306078Y-78861645D01*
G37*
X86306078Y-78861645D02*
X85958293Y-78863659D01*
X85667653Y-78870155D01*
X85427733Y-78882173D01*
X85232114Y-78900749D01*
X85074371Y-78926924D01*
X84948083Y-78961735D01*
X84846828Y-79006220D01*
X84764184Y-79061419D01*
X84700239Y-79121297D01*
X84601613Y-79267366D01*
X84529107Y-79458773D01*
X84485365Y-79681682D01*
X84473036Y-79922259D01*
X84494764Y-80166669D01*
X84497357Y-80182007D01*
X84534192Y-80353407D01*
X84582015Y-80482411D01*
X84651129Y-80590276D01*
X84743726Y-80690433D01*
X84805530Y-80746207D01*
X84869384Y-80791556D01*
X84942582Y-80827702D01*
X85032422Y-80855860D01*
X85146200Y-80877251D01*
X85291211Y-80893093D01*
X85474752Y-80904603D01*
X85704119Y-80913001D01*
X85986609Y-80919504D01*
X86131015Y-80922104D01*
X87077945Y-80938255D01*
X87077945Y-80394400D01*
X86178759Y-80383854D01*
X85913907Y-80380480D01*
X85704898Y-80376896D01*
X85543915Y-80372522D01*
X85423142Y-80366774D01*
X85334765Y-80359071D01*
X85270967Y-80348829D01*
X85223932Y-80335468D01*
X85185845Y-80318404D01*
X85168170Y-80308567D01*
X85057655Y-80212278D01*
X84984189Y-80082998D01*
X84948238Y-79935397D01*
X84950268Y-79784149D01*
X84990743Y-79643924D01*
X85070127Y-79529396D01*
X85141791Y-79476237D01*
X85178840Y-79459153D01*
X85225460Y-79445541D01*
X85289269Y-79434893D01*
X85377881Y-79426698D01*
X85498914Y-79420447D01*
X85659985Y-79415630D01*
X85868710Y-79411737D01*
X86132705Y-79408259D01*
X86162845Y-79407909D01*
X87077945Y-79397397D01*
X87077945Y-78861404D01*
X86306078Y-78861645D01*
G36*
X84117795Y-81057644D02*
X82971930Y-81057644D01*
X82971930Y-81280451D01*
X84114307Y-81280451D01*
X84124008Y-81431642D01*
X84133709Y-81582832D01*
X84268985Y-81592620D01*
X84404261Y-81602407D01*
X84404261Y-80771178D01*
X84117795Y-80771178D01*
X84117795Y-81057644D01*
X84117795Y-81057644D01*
G37*
X84117795Y-81057644D02*
X82971930Y-81057644D01*
X82971930Y-81280451D01*
X84114307Y-81280451D01*
X84124008Y-81431642D01*
X84133709Y-81582832D01*
X84268985Y-81592620D01*
X84404261Y-81602407D01*
X84404261Y-80771178D01*
X84117795Y-80771178D01*
X84117795Y-81057644D01*
G36*
X78561590Y-81665779D02*
X78525364Y-81686603D01*
X78516074Y-81740937D01*
X78515790Y-81773810D01*
X78519644Y-81845138D01*
X78543443Y-81876836D01*
X78605539Y-81884964D01*
X78643108Y-81885213D01*
X78724625Y-81881841D01*
X78760852Y-81861017D01*
X78770141Y-81806682D01*
X78770426Y-81773810D01*
X78766572Y-81702482D01*
X78742773Y-81670784D01*
X78680676Y-81662655D01*
X78643108Y-81662406D01*
X78561590Y-81665779D01*
X78561590Y-81665779D01*
G37*
X78561590Y-81665779D02*
X78525364Y-81686603D01*
X78516074Y-81740937D01*
X78515790Y-81773810D01*
X78519644Y-81845138D01*
X78543443Y-81876836D01*
X78605539Y-81884964D01*
X78643108Y-81885213D01*
X78724625Y-81881841D01*
X78760852Y-81861017D01*
X78770141Y-81806682D01*
X78770426Y-81773810D01*
X78766572Y-81702482D01*
X78742773Y-81670784D01*
X78680676Y-81662655D01*
X78643108Y-81662406D01*
X78561590Y-81665779D01*
G36*
X79056892Y-81885213D02*
X79279699Y-81885213D01*
X79279699Y-81191825D01*
X79518421Y-81314053D01*
X79528793Y-81212338D01*
X79522852Y-81125448D01*
X79481049Y-81078598D01*
X79423388Y-81036999D01*
X79346841Y-80970093D01*
X79316303Y-80940706D01*
X79231197Y-80872737D01*
X79152216Y-80837094D01*
X79133283Y-80834837D01*
X79056892Y-80834837D01*
X79056892Y-81885213D01*
X79056892Y-81885213D01*
G37*
X79056892Y-81885213D02*
X79279699Y-81885213D01*
X79279699Y-81191825D01*
X79518421Y-81314053D01*
X79528793Y-81212338D01*
X79522852Y-81125448D01*
X79481049Y-81078598D01*
X79423388Y-81036999D01*
X79346841Y-80970093D01*
X79316303Y-80940706D01*
X79231197Y-80872737D01*
X79152216Y-80837094D01*
X79133283Y-80834837D01*
X79056892Y-80834837D01*
X79056892Y-81885213D01*
G36*
X80172355Y-80840161D02*
X80022862Y-80847748D01*
X79921995Y-80858382D01*
X79854725Y-80875420D01*
X79806018Y-80902216D01*
X79774486Y-80928985D01*
X79723386Y-80990056D01*
X79699289Y-81063630D01*
X79693484Y-81169048D01*
X79709720Y-81307977D01*
X79763166Y-81404046D01*
X79860934Y-81463909D01*
X80010133Y-81494220D01*
X80044045Y-81497127D01*
X80234587Y-81510910D01*
X80234587Y-81885213D01*
X80489223Y-81885213D01*
X80489223Y-81320610D01*
X80234587Y-81320610D01*
X80117430Y-81301598D01*
X80025554Y-81275826D01*
X79956150Y-81238010D01*
X79950864Y-81233177D01*
X79919226Y-81171817D01*
X79944123Y-81117593D01*
X80018435Y-81078457D01*
X80102553Y-81063772D01*
X80234587Y-81053984D01*
X80234587Y-81320610D01*
X80489223Y-81320610D01*
X80489223Y-80827433D01*
X80172355Y-80840161D01*
X80172355Y-80840161D01*
G37*
X80172355Y-80840161D02*
X80022862Y-80847748D01*
X79921995Y-80858382D01*
X79854725Y-80875420D01*
X79806018Y-80902216D01*
X79774486Y-80928985D01*
X79723386Y-80990056D01*
X79699289Y-81063630D01*
X79693484Y-81169048D01*
X79709720Y-81307977D01*
X79763166Y-81404046D01*
X79860934Y-81463909D01*
X80010133Y-81494220D01*
X80044045Y-81497127D01*
X80234587Y-81510910D01*
X80234587Y-81885213D01*
X80489223Y-81885213D01*
X80489223Y-81320610D01*
X80234587Y-81320610D01*
X80117430Y-81301598D01*
X80025554Y-81275826D01*
X79956150Y-81238010D01*
X79950864Y-81233177D01*
X79919226Y-81171817D01*
X79944123Y-81117593D01*
X80018435Y-81078457D01*
X80102553Y-81063772D01*
X80234587Y-81053984D01*
X80234587Y-81320610D01*
X80489223Y-81320610D01*
X80489223Y-80827433D01*
X80172355Y-80840161D01*
G36*
X90775083Y-81667334D02*
X90744462Y-81695133D01*
X90738360Y-81765330D01*
X90738346Y-81773810D01*
X90743273Y-81848476D01*
X90771073Y-81879097D01*
X90841270Y-81885200D01*
X90849749Y-81885213D01*
X90924416Y-81880286D01*
X90955037Y-81852487D01*
X90961139Y-81782289D01*
X90961153Y-81773810D01*
X90956226Y-81699144D01*
X90928426Y-81668523D01*
X90858229Y-81662420D01*
X90849749Y-81662406D01*
X90775083Y-81667334D01*
X90775083Y-81667334D01*
G37*
X90775083Y-81667334D02*
X90744462Y-81695133D01*
X90738360Y-81765330D01*
X90738346Y-81773810D01*
X90743273Y-81848476D01*
X90771073Y-81879097D01*
X90841270Y-81885200D01*
X90849749Y-81885213D01*
X90924416Y-81880286D01*
X90955037Y-81852487D01*
X90961139Y-81782289D01*
X90961153Y-81773810D01*
X90956226Y-81699144D01*
X90928426Y-81668523D01*
X90858229Y-81662420D01*
X90849749Y-81662406D01*
X90775083Y-81667334D01*
G36*
X92267464Y-80841497D02*
X92134189Y-80859633D01*
X92058048Y-80881042D01*
X91955862Y-80954854D01*
X91897102Y-81064282D01*
X91885803Y-81194937D01*
X91925995Y-81332429D01*
X91929568Y-81339495D01*
X92007085Y-81431738D01*
X92127261Y-81485481D01*
X92295813Y-81503253D01*
X92299493Y-81503259D01*
X92457143Y-81503259D01*
X92457143Y-81885213D01*
X92679950Y-81885213D01*
X92679950Y-81184963D01*
X92457143Y-81184963D01*
X92452703Y-81267084D01*
X92432155Y-81303577D01*
X92384655Y-81312255D01*
X92379641Y-81312281D01*
X92288085Y-81300521D01*
X92220493Y-81281239D01*
X92153813Y-81232412D01*
X92138847Y-81173241D01*
X92155544Y-81108099D01*
X92212129Y-81071487D01*
X92318343Y-81058031D01*
X92348343Y-81057644D01*
X92418013Y-81061659D01*
X92448976Y-81085930D01*
X92456907Y-81148801D01*
X92457143Y-81184963D01*
X92679950Y-81184963D01*
X92679950Y-80834837D01*
X92424291Y-80834837D01*
X92267464Y-80841497D01*
X92267464Y-80841497D01*
G37*
X92267464Y-80841497D02*
X92134189Y-80859633D01*
X92058048Y-80881042D01*
X91955862Y-80954854D01*
X91897102Y-81064282D01*
X91885803Y-81194937D01*
X91925995Y-81332429D01*
X91929568Y-81339495D01*
X92007085Y-81431738D01*
X92127261Y-81485481D01*
X92295813Y-81503253D01*
X92299493Y-81503259D01*
X92457143Y-81503259D01*
X92457143Y-81885213D01*
X92679950Y-81885213D01*
X92679950Y-81184963D01*
X92457143Y-81184963D01*
X92452703Y-81267084D01*
X92432155Y-81303577D01*
X92384655Y-81312255D01*
X92379641Y-81312281D01*
X92288085Y-81300521D01*
X92220493Y-81281239D01*
X92153813Y-81232412D01*
X92138847Y-81173241D01*
X92155544Y-81108099D01*
X92212129Y-81071487D01*
X92318343Y-81058031D01*
X92348343Y-81057644D01*
X92418013Y-81061659D01*
X92448976Y-81085930D01*
X92456907Y-81148801D01*
X92457143Y-81184963D01*
X92679950Y-81184963D01*
X92679950Y-80834837D01*
X92424291Y-80834837D01*
X92267464Y-80841497D01*
G36*
X78031361Y-80844469D02*
X77933311Y-80869415D01*
X77854257Y-80909026D01*
X77845077Y-80916485D01*
X77783738Y-81006344D01*
X77742766Y-81135724D01*
X77721956Y-81288699D01*
X77721101Y-81449341D01*
X77739997Y-81601724D01*
X77778438Y-81729921D01*
X77836219Y-81818003D01*
X77856905Y-81833983D01*
X77989792Y-81887453D01*
X78130573Y-81897621D01*
X78153751Y-81894285D01*
X78253218Y-81845199D01*
X78328297Y-81743563D01*
X78376676Y-81596532D01*
X78396044Y-81411266D01*
X78394106Y-81376184D01*
X78165791Y-81376184D01*
X78160669Y-81500784D01*
X78144560Y-81600182D01*
X78131687Y-81634590D01*
X78082985Y-81684191D01*
X78029692Y-81676780D01*
X77983153Y-81616977D01*
X77965429Y-81566869D01*
X77949649Y-81454483D01*
X77951275Y-81324904D01*
X77967846Y-81199943D01*
X77996897Y-81101410D01*
X78022597Y-81060561D01*
X78065446Y-81028079D01*
X78098938Y-81045213D01*
X78119865Y-81071685D01*
X78144926Y-81139585D01*
X78160389Y-81248435D01*
X78165791Y-81376184D01*
X78394106Y-81376184D01*
X78384090Y-81194922D01*
X78382829Y-81184963D01*
X78359865Y-81066761D01*
X78320161Y-80984914D01*
X78258400Y-80918783D01*
X78180180Y-80859497D01*
X78107718Y-80839502D01*
X78031361Y-80844469D01*
X78031361Y-80844469D01*
G37*
X78031361Y-80844469D02*
X77933311Y-80869415D01*
X77854257Y-80909026D01*
X77845077Y-80916485D01*
X77783738Y-81006344D01*
X77742766Y-81135724D01*
X77721956Y-81288699D01*
X77721101Y-81449341D01*
X77739997Y-81601724D01*
X77778438Y-81729921D01*
X77836219Y-81818003D01*
X77856905Y-81833983D01*
X77989792Y-81887453D01*
X78130573Y-81897621D01*
X78153751Y-81894285D01*
X78253218Y-81845199D01*
X78328297Y-81743563D01*
X78376676Y-81596532D01*
X78396044Y-81411266D01*
X78394106Y-81376184D01*
X78165791Y-81376184D01*
X78160669Y-81500784D01*
X78144560Y-81600182D01*
X78131687Y-81634590D01*
X78082985Y-81684191D01*
X78029692Y-81676780D01*
X77983153Y-81616977D01*
X77965429Y-81566869D01*
X77949649Y-81454483D01*
X77951275Y-81324904D01*
X77967846Y-81199943D01*
X77996897Y-81101410D01*
X78022597Y-81060561D01*
X78065446Y-81028079D01*
X78098938Y-81045213D01*
X78119865Y-81071685D01*
X78144926Y-81139585D01*
X78160389Y-81248435D01*
X78165791Y-81376184D01*
X78394106Y-81376184D01*
X78384090Y-81194922D01*
X78382829Y-81184963D01*
X78359865Y-81066761D01*
X78320161Y-80984914D01*
X78258400Y-80918783D01*
X78180180Y-80859497D01*
X78107718Y-80839502D01*
X78031361Y-80844469D01*
G36*
X90161639Y-80861471D02*
X90056016Y-80915619D01*
X89992582Y-80990511D01*
X89947232Y-81125459D01*
X89924399Y-81294746D01*
X89926363Y-81472355D01*
X89941283Y-81576458D01*
X89996795Y-81736423D01*
X90084507Y-81842851D01*
X90202156Y-81894172D01*
X90347479Y-81888815D01*
X90379863Y-81880749D01*
X90476866Y-81826203D01*
X90545902Y-81722702D01*
X90588982Y-81566257D01*
X90603869Y-81436399D01*
X90603146Y-81368535D01*
X90368118Y-81368535D01*
X90365243Y-81491854D01*
X90357635Y-81592148D01*
X90346816Y-81650913D01*
X90344461Y-81655959D01*
X90292962Y-81690437D01*
X90228621Y-81685536D01*
X90184734Y-81643888D01*
X90169351Y-81565657D01*
X90163679Y-81452124D01*
X90166747Y-81324280D01*
X90177584Y-81203111D01*
X90195219Y-81109607D01*
X90211213Y-81071685D01*
X90249552Y-81029505D01*
X90283493Y-81037849D01*
X90312565Y-81064645D01*
X90342643Y-81109671D01*
X90359998Y-81181054D01*
X90367347Y-81293658D01*
X90368118Y-81368535D01*
X90603146Y-81368535D01*
X90601756Y-81238088D01*
X90567727Y-81067940D01*
X90504836Y-80939878D01*
X90491230Y-80922991D01*
X90399928Y-80862357D01*
X90283170Y-80842784D01*
X90161639Y-80861471D01*
X90161639Y-80861471D01*
G37*
X90161639Y-80861471D02*
X90056016Y-80915619D01*
X89992582Y-80990511D01*
X89947232Y-81125459D01*
X89924399Y-81294746D01*
X89926363Y-81472355D01*
X89941283Y-81576458D01*
X89996795Y-81736423D01*
X90084507Y-81842851D01*
X90202156Y-81894172D01*
X90347479Y-81888815D01*
X90379863Y-81880749D01*
X90476866Y-81826203D01*
X90545902Y-81722702D01*
X90588982Y-81566257D01*
X90603869Y-81436399D01*
X90603146Y-81368535D01*
X90368118Y-81368535D01*
X90365243Y-81491854D01*
X90357635Y-81592148D01*
X90346816Y-81650913D01*
X90344461Y-81655959D01*
X90292962Y-81690437D01*
X90228621Y-81685536D01*
X90184734Y-81643888D01*
X90169351Y-81565657D01*
X90163679Y-81452124D01*
X90166747Y-81324280D01*
X90177584Y-81203111D01*
X90195219Y-81109607D01*
X90211213Y-81071685D01*
X90249552Y-81029505D01*
X90283493Y-81037849D01*
X90312565Y-81064645D01*
X90342643Y-81109671D01*
X90359998Y-81181054D01*
X90367347Y-81293658D01*
X90368118Y-81368535D01*
X90603146Y-81368535D01*
X90601756Y-81238088D01*
X90567727Y-81067940D01*
X90504836Y-80939878D01*
X90491230Y-80922991D01*
X90399928Y-80862357D01*
X90283170Y-80842784D01*
X90161639Y-80861471D01*
G36*
X91355587Y-80852239D02*
X91258399Y-80895857D01*
X91188107Y-80952814D01*
X91171902Y-80979497D01*
X91153561Y-81070394D01*
X91156268Y-81170181D01*
X91177704Y-81251209D01*
X91196954Y-81278028D01*
X91220472Y-81310791D01*
X91202644Y-81351249D01*
X91165125Y-81391882D01*
X91100675Y-81496204D01*
X91096907Y-81618716D01*
X91136545Y-81726703D01*
X91224031Y-81831033D01*
X91351186Y-81888662D01*
X91511811Y-81897033D01*
X91540899Y-81893532D01*
X91616806Y-81861486D01*
X91694104Y-81797710D01*
X91755259Y-81721058D01*
X91782738Y-81650380D01*
X91782020Y-81634290D01*
X91750222Y-81595605D01*
X91688679Y-81573559D01*
X91621983Y-81570742D01*
X91574727Y-81589746D01*
X91565915Y-81611525D01*
X91540602Y-81664002D01*
X91502985Y-81693846D01*
X91444967Y-81708718D01*
X91388965Y-81675919D01*
X91375667Y-81663136D01*
X91324211Y-81602907D01*
X91318118Y-81553222D01*
X91355469Y-81486246D01*
X91362746Y-81475773D01*
X91426437Y-81420824D01*
X91474149Y-81417966D01*
X91520765Y-81409415D01*
X91538537Y-81365267D01*
X91528754Y-81306001D01*
X91492704Y-81252098D01*
X91462469Y-81232297D01*
X91404265Y-81183830D01*
X91380060Y-81118596D01*
X91394240Y-81059794D01*
X91425407Y-81036280D01*
X91490721Y-81043207D01*
X91536188Y-81084166D01*
X91599664Y-81131091D01*
X91678512Y-81152576D01*
X91746705Y-81144248D01*
X91771333Y-81123689D01*
X91773697Y-81066720D01*
X91738855Y-80991717D01*
X91679630Y-80920011D01*
X91624958Y-80880195D01*
X91532510Y-80846552D01*
X91454511Y-80834837D01*
X91355587Y-80852239D01*
X91355587Y-80852239D01*
G37*
X91355587Y-80852239D02*
X91258399Y-80895857D01*
X91188107Y-80952814D01*
X91171902Y-80979497D01*
X91153561Y-81070394D01*
X91156268Y-81170181D01*
X91177704Y-81251209D01*
X91196954Y-81278028D01*
X91220472Y-81310791D01*
X91202644Y-81351249D01*
X91165125Y-81391882D01*
X91100675Y-81496204D01*
X91096907Y-81618716D01*
X91136545Y-81726703D01*
X91224031Y-81831033D01*
X91351186Y-81888662D01*
X91511811Y-81897033D01*
X91540899Y-81893532D01*
X91616806Y-81861486D01*
X91694104Y-81797710D01*
X91755259Y-81721058D01*
X91782738Y-81650380D01*
X91782020Y-81634290D01*
X91750222Y-81595605D01*
X91688679Y-81573559D01*
X91621983Y-81570742D01*
X91574727Y-81589746D01*
X91565915Y-81611525D01*
X91540602Y-81664002D01*
X91502985Y-81693846D01*
X91444967Y-81708718D01*
X91388965Y-81675919D01*
X91375667Y-81663136D01*
X91324211Y-81602907D01*
X91318118Y-81553222D01*
X91355469Y-81486246D01*
X91362746Y-81475773D01*
X91426437Y-81420824D01*
X91474149Y-81417966D01*
X91520765Y-81409415D01*
X91538537Y-81365267D01*
X91528754Y-81306001D01*
X91492704Y-81252098D01*
X91462469Y-81232297D01*
X91404265Y-81183830D01*
X91380060Y-81118596D01*
X91394240Y-81059794D01*
X91425407Y-81036280D01*
X91490721Y-81043207D01*
X91536188Y-81084166D01*
X91599664Y-81131091D01*
X91678512Y-81152576D01*
X91746705Y-81144248D01*
X91771333Y-81123689D01*
X91773697Y-81066720D01*
X91738855Y-80991717D01*
X91679630Y-80920011D01*
X91624958Y-80880195D01*
X91532510Y-80846552D01*
X91454511Y-80834837D01*
X91355587Y-80852239D01*
G36*
X82971930Y-82012532D02*
X82972773Y-82174579D01*
X82979500Y-82281296D01*
X82998406Y-82341007D01*
X83035787Y-82362041D01*
X83097939Y-82352724D01*
X83191156Y-82321382D01*
X83202405Y-82317366D01*
X83278731Y-82287128D01*
X83353947Y-82249039D01*
X83441279Y-82194995D01*
X83553947Y-82116896D01*
X83683639Y-82022510D01*
X83819040Y-81933990D01*
X83925123Y-81891065D01*
X83974166Y-81885213D01*
X84072477Y-81903677D01*
X84129647Y-81949084D01*
X84142332Y-82006454D01*
X84107187Y-82060808D01*
X84021472Y-82097047D01*
X83955061Y-82116676D01*
X83935691Y-82153322D01*
X83944865Y-82215762D01*
X83963860Y-82294037D01*
X83989725Y-82326881D01*
X84043431Y-82327457D01*
X84105185Y-82316393D01*
X84227658Y-82269400D01*
X84328036Y-82187026D01*
X84390866Y-82084923D01*
X84404261Y-82013399D01*
X84379533Y-81864766D01*
X84305729Y-81756460D01*
X84183422Y-81688963D01*
X84013181Y-81662756D01*
X83987711Y-81662406D01*
X83832327Y-81681946D01*
X83671188Y-81743888D01*
X83492749Y-81853217D01*
X83417544Y-81908576D01*
X83274311Y-82018094D01*
X83255219Y-81662406D01*
X82971930Y-81662406D01*
X82971930Y-82012532D01*
X82971930Y-82012532D01*
G37*
X82971930Y-82012532D02*
X82972773Y-82174579D01*
X82979500Y-82281296D01*
X82998406Y-82341007D01*
X83035787Y-82362041D01*
X83097939Y-82352724D01*
X83191156Y-82321382D01*
X83202405Y-82317366D01*
X83278731Y-82287128D01*
X83353947Y-82249039D01*
X83441279Y-82194995D01*
X83553947Y-82116896D01*
X83683639Y-82022510D01*
X83819040Y-81933990D01*
X83925123Y-81891065D01*
X83974166Y-81885213D01*
X84072477Y-81903677D01*
X84129647Y-81949084D01*
X84142332Y-82006454D01*
X84107187Y-82060808D01*
X84021472Y-82097047D01*
X83955061Y-82116676D01*
X83935691Y-82153322D01*
X83944865Y-82215762D01*
X83963860Y-82294037D01*
X83989725Y-82326881D01*
X84043431Y-82327457D01*
X84105185Y-82316393D01*
X84227658Y-82269400D01*
X84328036Y-82187026D01*
X84390866Y-82084923D01*
X84404261Y-82013399D01*
X84379533Y-81864766D01*
X84305729Y-81756460D01*
X84183422Y-81688963D01*
X84013181Y-81662756D01*
X83987711Y-81662406D01*
X83832327Y-81681946D01*
X83671188Y-81743888D01*
X83492749Y-81853217D01*
X83417544Y-81908576D01*
X83274311Y-82018094D01*
X83255219Y-81662406D01*
X82971930Y-81662406D01*
X82971930Y-82012532D01*
G36*
X83276065Y-82432653D02*
X83122567Y-82488977D01*
X83013593Y-82579182D01*
X82983626Y-82625452D01*
X82948856Y-82753238D01*
X82968615Y-82876334D01*
X83034496Y-82980495D01*
X83138091Y-83051476D01*
X83249003Y-83075065D01*
X83328408Y-83073027D01*
X83364714Y-83050135D01*
X83378220Y-82991272D01*
X83379591Y-82977830D01*
X83378574Y-82905203D01*
X83348836Y-82873425D01*
X83319182Y-82866427D01*
X83246630Y-82833229D01*
X83213902Y-82798449D01*
X83204162Y-82737432D01*
X83249816Y-82689017D01*
X83343072Y-82658067D01*
X83453184Y-82649123D01*
X83573378Y-82662774D01*
X83657266Y-82698859D01*
X83697086Y-82750079D01*
X83685073Y-82809133D01*
X83656266Y-82840101D01*
X83625462Y-82890836D01*
X83610271Y-82963848D01*
X83611433Y-83035864D01*
X83629684Y-83083612D01*
X83648308Y-83091025D01*
X83694723Y-83085302D01*
X83789307Y-83072710D01*
X83917191Y-83055251D01*
X84030263Y-83039576D01*
X84372431Y-82991840D01*
X84372431Y-82458146D01*
X84085965Y-82458146D01*
X84085965Y-82629803D01*
X84080137Y-82740539D01*
X84060439Y-82801099D01*
X84035617Y-82820780D01*
X83965367Y-82837756D01*
X83933528Y-82810336D01*
X83926817Y-82742519D01*
X83900378Y-82606884D01*
X83821472Y-82506826D01*
X83690710Y-82442781D01*
X83508708Y-82415186D01*
X83465288Y-82414071D01*
X83276065Y-82432653D01*
X83276065Y-82432653D01*
G37*
X83276065Y-82432653D02*
X83122567Y-82488977D01*
X83013593Y-82579182D01*
X82983626Y-82625452D01*
X82948856Y-82753238D01*
X82968615Y-82876334D01*
X83034496Y-82980495D01*
X83138091Y-83051476D01*
X83249003Y-83075065D01*
X83328408Y-83073027D01*
X83364714Y-83050135D01*
X83378220Y-82991272D01*
X83379591Y-82977830D01*
X83378574Y-82905203D01*
X83348836Y-82873425D01*
X83319182Y-82866427D01*
X83246630Y-82833229D01*
X83213902Y-82798449D01*
X83204162Y-82737432D01*
X83249816Y-82689017D01*
X83343072Y-82658067D01*
X83453184Y-82649123D01*
X83573378Y-82662774D01*
X83657266Y-82698859D01*
X83697086Y-82750079D01*
X83685073Y-82809133D01*
X83656266Y-82840101D01*
X83625462Y-82890836D01*
X83610271Y-82963848D01*
X83611433Y-83035864D01*
X83629684Y-83083612D01*
X83648308Y-83091025D01*
X83694723Y-83085302D01*
X83789307Y-83072710D01*
X83917191Y-83055251D01*
X84030263Y-83039576D01*
X84372431Y-82991840D01*
X84372431Y-82458146D01*
X84085965Y-82458146D01*
X84085965Y-82629803D01*
X84080137Y-82740539D01*
X84060439Y-82801099D01*
X84035617Y-82820780D01*
X83965367Y-82837756D01*
X83933528Y-82810336D01*
X83926817Y-82742519D01*
X83900378Y-82606884D01*
X83821472Y-82506826D01*
X83690710Y-82442781D01*
X83508708Y-82415186D01*
X83465288Y-82414071D01*
X83276065Y-82432653D01*
G36*
X84499749Y-81948873D02*
X85613785Y-81948873D01*
X85613785Y-82935589D01*
X84499749Y-82935589D01*
X84499749Y-83476692D01*
X87077945Y-83476692D01*
X87077945Y-82935589D01*
X86091228Y-82935589D01*
X86091228Y-81948873D01*
X87077945Y-81948873D01*
X87077945Y-81407770D01*
X84499749Y-81407770D01*
X84499749Y-81948873D01*
X84499749Y-81948873D01*
G37*
X84499749Y-81948873D02*
X85613785Y-81948873D01*
X85613785Y-82935589D01*
X84499749Y-82935589D01*
X84499749Y-83476692D01*
X87077945Y-83476692D01*
X87077945Y-82935589D01*
X86091228Y-82935589D01*
X86091228Y-81948873D01*
X87077945Y-81948873D01*
X87077945Y-81407770D01*
X84499749Y-81407770D01*
X84499749Y-81948873D01*
G36*
X83335862Y-83197348D02*
X83233765Y-83215258D01*
X83204766Y-83224176D01*
X83073295Y-83299803D01*
X82988176Y-83401515D01*
X82950256Y-83517024D01*
X82960386Y-83634037D01*
X83019413Y-83740263D01*
X83128187Y-83823414D01*
X83162329Y-83838787D01*
X83261980Y-83876028D01*
X83319364Y-83886985D01*
X83350143Y-83871759D01*
X83366394Y-83840129D01*
X83385081Y-83741984D01*
X83359319Y-83673739D01*
X83324930Y-83652667D01*
X83252300Y-83611510D01*
X83222516Y-83583215D01*
X83200667Y-83540897D01*
X83223709Y-83500366D01*
X83254997Y-83473044D01*
X83357469Y-83425359D01*
X83481103Y-83415549D01*
X83596855Y-83443778D01*
X83641062Y-83470867D01*
X83689007Y-83520892D01*
X83688823Y-83569447D01*
X83675298Y-83598186D01*
X83637883Y-83651292D01*
X83612914Y-83667670D01*
X83599337Y-83694873D01*
X83601363Y-83760581D01*
X83601732Y-83763158D01*
X83610915Y-83810490D01*
X83629285Y-83840233D01*
X83668055Y-83854213D01*
X83738437Y-83854256D01*
X83851644Y-83842188D01*
X83981219Y-83824954D01*
X84143951Y-83803543D01*
X84254294Y-83785847D01*
X84322317Y-83763294D01*
X84358094Y-83727312D01*
X84371695Y-83669330D01*
X84373193Y-83580775D01*
X84372431Y-83492000D01*
X84372431Y-83222056D01*
X84085965Y-83222056D01*
X84085965Y-83413033D01*
X84084280Y-83518875D01*
X84075073Y-83576019D01*
X84052116Y-83599414D01*
X84009180Y-83604006D01*
X84006391Y-83604010D01*
X83951579Y-83595087D01*
X83929909Y-83555662D01*
X83926817Y-83498155D01*
X83897646Y-83381601D01*
X83814892Y-83288762D01*
X83685695Y-83224244D01*
X83517195Y-83192652D01*
X83449373Y-83190226D01*
X83335862Y-83197348D01*
X83335862Y-83197348D01*
G37*
X83335862Y-83197348D02*
X83233765Y-83215258D01*
X83204766Y-83224176D01*
X83073295Y-83299803D01*
X82988176Y-83401515D01*
X82950256Y-83517024D01*
X82960386Y-83634037D01*
X83019413Y-83740263D01*
X83128187Y-83823414D01*
X83162329Y-83838787D01*
X83261980Y-83876028D01*
X83319364Y-83886985D01*
X83350143Y-83871759D01*
X83366394Y-83840129D01*
X83385081Y-83741984D01*
X83359319Y-83673739D01*
X83324930Y-83652667D01*
X83252300Y-83611510D01*
X83222516Y-83583215D01*
X83200667Y-83540897D01*
X83223709Y-83500366D01*
X83254997Y-83473044D01*
X83357469Y-83425359D01*
X83481103Y-83415549D01*
X83596855Y-83443778D01*
X83641062Y-83470867D01*
X83689007Y-83520892D01*
X83688823Y-83569447D01*
X83675298Y-83598186D01*
X83637883Y-83651292D01*
X83612914Y-83667670D01*
X83599337Y-83694873D01*
X83601363Y-83760581D01*
X83601732Y-83763158D01*
X83610915Y-83810490D01*
X83629285Y-83840233D01*
X83668055Y-83854213D01*
X83738437Y-83854256D01*
X83851644Y-83842188D01*
X83981219Y-83824954D01*
X84143951Y-83803543D01*
X84254294Y-83785847D01*
X84322317Y-83763294D01*
X84358094Y-83727312D01*
X84371695Y-83669330D01*
X84373193Y-83580775D01*
X84372431Y-83492000D01*
X84372431Y-83222056D01*
X84085965Y-83222056D01*
X84085965Y-83413033D01*
X84084280Y-83518875D01*
X84075073Y-83576019D01*
X84052116Y-83599414D01*
X84009180Y-83604006D01*
X84006391Y-83604010D01*
X83951579Y-83595087D01*
X83929909Y-83555662D01*
X83926817Y-83498155D01*
X83897646Y-83381601D01*
X83814892Y-83288762D01*
X83685695Y-83224244D01*
X83517195Y-83192652D01*
X83449373Y-83190226D01*
X83335862Y-83197348D01*
G36*
X77879198Y-84431579D02*
X78102005Y-84431579D01*
X78102005Y-83738191D01*
X78340727Y-83860419D01*
X78351099Y-83758704D01*
X78345158Y-83671814D01*
X78303355Y-83624964D01*
X78245694Y-83583365D01*
X78169147Y-83516459D01*
X78138609Y-83487072D01*
X78053503Y-83419103D01*
X77974521Y-83383460D01*
X77955589Y-83381203D01*
X77879198Y-83381203D01*
X77879198Y-84431579D01*
X77879198Y-84431579D01*
G37*
X77879198Y-84431579D02*
X78102005Y-84431579D01*
X78102005Y-83738191D01*
X78340727Y-83860419D01*
X78351099Y-83758704D01*
X78345158Y-83671814D01*
X78303355Y-83624964D01*
X78245694Y-83583365D01*
X78169147Y-83516459D01*
X78138609Y-83487072D01*
X78053503Y-83419103D01*
X77974521Y-83383460D01*
X77955589Y-83381203D01*
X77879198Y-83381203D01*
X77879198Y-84431579D01*
G36*
X78561590Y-84212145D02*
X78525364Y-84232969D01*
X78516074Y-84287303D01*
X78515790Y-84320176D01*
X78519644Y-84391504D01*
X78543443Y-84423202D01*
X78605539Y-84431330D01*
X78643108Y-84431579D01*
X78724625Y-84428207D01*
X78760852Y-84407383D01*
X78770141Y-84353048D01*
X78770426Y-84320176D01*
X78766572Y-84248848D01*
X78742773Y-84217150D01*
X78680676Y-84209021D01*
X78643108Y-84208772D01*
X78561590Y-84212145D01*
X78561590Y-84212145D01*
G37*
X78561590Y-84212145D02*
X78525364Y-84232969D01*
X78516074Y-84287303D01*
X78515790Y-84320176D01*
X78519644Y-84391504D01*
X78543443Y-84423202D01*
X78605539Y-84431330D01*
X78643108Y-84431579D01*
X78724625Y-84428207D01*
X78760852Y-84407383D01*
X78770141Y-84353048D01*
X78770426Y-84320176D01*
X78766572Y-84248848D01*
X78742773Y-84217150D01*
X78680676Y-84209021D01*
X78643108Y-84208772D01*
X78561590Y-84212145D01*
G36*
X79056892Y-84431579D02*
X79279699Y-84431579D01*
X79279699Y-83738191D01*
X79518421Y-83860419D01*
X79528793Y-83758704D01*
X79522926Y-83672018D01*
X79481049Y-83625248D01*
X79423630Y-83583037D01*
X79348884Y-83514985D01*
X79321624Y-83487355D01*
X79226484Y-83409929D01*
X79140187Y-83381216D01*
X79138604Y-83381203D01*
X79056892Y-83381203D01*
X79056892Y-84431579D01*
X79056892Y-84431579D01*
G37*
X79056892Y-84431579D02*
X79279699Y-84431579D01*
X79279699Y-83738191D01*
X79518421Y-83860419D01*
X79528793Y-83758704D01*
X79522926Y-83672018D01*
X79481049Y-83625248D01*
X79423630Y-83583037D01*
X79348884Y-83514985D01*
X79321624Y-83487355D01*
X79226484Y-83409929D01*
X79140187Y-83381216D01*
X79138604Y-83381203D01*
X79056892Y-83381203D01*
X79056892Y-84431579D01*
G36*
X80172355Y-83386526D02*
X80022862Y-83394114D01*
X79921995Y-83404748D01*
X79854725Y-83421786D01*
X79806018Y-83448582D01*
X79774486Y-83475351D01*
X79723386Y-83536422D01*
X79699289Y-83609996D01*
X79693484Y-83715414D01*
X79709720Y-83854343D01*
X79763166Y-83950412D01*
X79860934Y-84010275D01*
X80010133Y-84040586D01*
X80044045Y-84043493D01*
X80234587Y-84057276D01*
X80234587Y-84431579D01*
X80489223Y-84431579D01*
X80489223Y-83866976D01*
X80234587Y-83866976D01*
X80117430Y-83847964D01*
X80025554Y-83822192D01*
X79956150Y-83784376D01*
X79950864Y-83779543D01*
X79919226Y-83718183D01*
X79944123Y-83663959D01*
X80018435Y-83624823D01*
X80102553Y-83610138D01*
X80234587Y-83600350D01*
X80234587Y-83866976D01*
X80489223Y-83866976D01*
X80489223Y-83373799D01*
X80172355Y-83386526D01*
X80172355Y-83386526D01*
G37*
X80172355Y-83386526D02*
X80022862Y-83394114D01*
X79921995Y-83404748D01*
X79854725Y-83421786D01*
X79806018Y-83448582D01*
X79774486Y-83475351D01*
X79723386Y-83536422D01*
X79699289Y-83609996D01*
X79693484Y-83715414D01*
X79709720Y-83854343D01*
X79763166Y-83950412D01*
X79860934Y-84010275D01*
X80010133Y-84040586D01*
X80044045Y-84043493D01*
X80234587Y-84057276D01*
X80234587Y-84431579D01*
X80489223Y-84431579D01*
X80489223Y-83866976D01*
X80234587Y-83866976D01*
X80117430Y-83847964D01*
X80025554Y-83822192D01*
X79956150Y-83784376D01*
X79950864Y-83779543D01*
X79919226Y-83718183D01*
X79944123Y-83663959D01*
X80018435Y-83624823D01*
X80102553Y-83610138D01*
X80234587Y-83600350D01*
X80234587Y-83866976D01*
X80489223Y-83866976D01*
X80489223Y-83373799D01*
X80172355Y-83386526D01*
G36*
X90069925Y-84431579D02*
X90292732Y-84431579D01*
X90292732Y-83730035D01*
X90547368Y-83859941D01*
X90547368Y-83750486D01*
X90535509Y-83666691D01*
X90488666Y-83607586D01*
X90443922Y-83576585D01*
X90363884Y-83516127D01*
X90304895Y-83453471D01*
X90300420Y-83446670D01*
X90231250Y-83391723D01*
X90165144Y-83381203D01*
X90069925Y-83381203D01*
X90069925Y-84431579D01*
X90069925Y-84431579D01*
G37*
X90069925Y-84431579D02*
X90292732Y-84431579D01*
X90292732Y-83730035D01*
X90547368Y-83859941D01*
X90547368Y-83750486D01*
X90535509Y-83666691D01*
X90488666Y-83607586D01*
X90443922Y-83576585D01*
X90363884Y-83516127D01*
X90304895Y-83453471D01*
X90300420Y-83446670D01*
X90231250Y-83391723D01*
X90165144Y-83381203D01*
X90069925Y-83381203D01*
X90069925Y-84431579D01*
G36*
X90775083Y-84213700D02*
X90744462Y-84241499D01*
X90738360Y-84311696D01*
X90738346Y-84320176D01*
X90743273Y-84394842D01*
X90771073Y-84425463D01*
X90841270Y-84431565D01*
X90849749Y-84431579D01*
X90924416Y-84426652D01*
X90955037Y-84398853D01*
X90961139Y-84328655D01*
X90961153Y-84320176D01*
X90956226Y-84245510D01*
X90928426Y-84214888D01*
X90858229Y-84208786D01*
X90849749Y-84208772D01*
X90775083Y-84213700D01*
X90775083Y-84213700D01*
G37*
X90775083Y-84213700D02*
X90744462Y-84241499D01*
X90738360Y-84311696D01*
X90738346Y-84320176D01*
X90743273Y-84394842D01*
X90771073Y-84425463D01*
X90841270Y-84431565D01*
X90849749Y-84431579D01*
X90924416Y-84426652D01*
X90955037Y-84398853D01*
X90961139Y-84328655D01*
X90961153Y-84320176D01*
X90956226Y-84245510D01*
X90928426Y-84214888D01*
X90858229Y-84208786D01*
X90849749Y-84208772D01*
X90775083Y-84213700D01*
G36*
X92267464Y-83387863D02*
X92134189Y-83405999D01*
X92058048Y-83427408D01*
X91955862Y-83501220D01*
X91897102Y-83610648D01*
X91885803Y-83741303D01*
X91925995Y-83878795D01*
X91929568Y-83885860D01*
X92007085Y-83978104D01*
X92127261Y-84031846D01*
X92295813Y-84049618D01*
X92299493Y-84049624D01*
X92457143Y-84049624D01*
X92457143Y-84431579D01*
X92679950Y-84431579D01*
X92679950Y-83731329D01*
X92457143Y-83731329D01*
X92452703Y-83813450D01*
X92432155Y-83849943D01*
X92384655Y-83858621D01*
X92379641Y-83858647D01*
X92288085Y-83846887D01*
X92220493Y-83827605D01*
X92153813Y-83778778D01*
X92138847Y-83719607D01*
X92155544Y-83654465D01*
X92212129Y-83617853D01*
X92318343Y-83604397D01*
X92348343Y-83604010D01*
X92418013Y-83608025D01*
X92448976Y-83632296D01*
X92456907Y-83695167D01*
X92457143Y-83731329D01*
X92679950Y-83731329D01*
X92679950Y-83381203D01*
X92424291Y-83381203D01*
X92267464Y-83387863D01*
X92267464Y-83387863D01*
G37*
X92267464Y-83387863D02*
X92134189Y-83405999D01*
X92058048Y-83427408D01*
X91955862Y-83501220D01*
X91897102Y-83610648D01*
X91885803Y-83741303D01*
X91925995Y-83878795D01*
X91929568Y-83885860D01*
X92007085Y-83978104D01*
X92127261Y-84031846D01*
X92295813Y-84049618D01*
X92299493Y-84049624D01*
X92457143Y-84049624D01*
X92457143Y-84431579D01*
X92679950Y-84431579D01*
X92679950Y-83731329D01*
X92457143Y-83731329D01*
X92452703Y-83813450D01*
X92432155Y-83849943D01*
X92384655Y-83858621D01*
X92379641Y-83858647D01*
X92288085Y-83846887D01*
X92220493Y-83827605D01*
X92153813Y-83778778D01*
X92138847Y-83719607D01*
X92155544Y-83654465D01*
X92212129Y-83617853D01*
X92318343Y-83604397D01*
X92348343Y-83604010D01*
X92418013Y-83608025D01*
X92448976Y-83632296D01*
X92456907Y-83695167D01*
X92457143Y-83731329D01*
X92679950Y-83731329D01*
X92679950Y-83381203D01*
X92424291Y-83381203D01*
X92267464Y-83387863D01*
G36*
X91355587Y-83398605D02*
X91258399Y-83442223D01*
X91188107Y-83499180D01*
X91171902Y-83525862D01*
X91153561Y-83616760D01*
X91156268Y-83716547D01*
X91177704Y-83797575D01*
X91196954Y-83824394D01*
X91220472Y-83857157D01*
X91202644Y-83897615D01*
X91165125Y-83938248D01*
X91100675Y-84042570D01*
X91096907Y-84165081D01*
X91136545Y-84273069D01*
X91224031Y-84377399D01*
X91351186Y-84435028D01*
X91511811Y-84443399D01*
X91540899Y-84439897D01*
X91616806Y-84407851D01*
X91694104Y-84344076D01*
X91755259Y-84267423D01*
X91782738Y-84196746D01*
X91782020Y-84180656D01*
X91744043Y-84138291D01*
X91673259Y-84119534D01*
X91598427Y-84122384D01*
X91563063Y-84157156D01*
X91557139Y-84175236D01*
X91517081Y-84227112D01*
X91450233Y-84241351D01*
X91381113Y-84218001D01*
X91341966Y-84174808D01*
X91329812Y-84100465D01*
X91356691Y-84026449D01*
X91409368Y-83974028D01*
X91473129Y-83964065D01*
X91521541Y-83956509D01*
X91539836Y-83913176D01*
X91529854Y-83853349D01*
X91493433Y-83796306D01*
X91454511Y-83768950D01*
X91394934Y-83718698D01*
X91375643Y-83654536D01*
X91399852Y-83598849D01*
X91427639Y-83581789D01*
X91490248Y-83589628D01*
X91536188Y-83630532D01*
X91599664Y-83677456D01*
X91678512Y-83698942D01*
X91746705Y-83690613D01*
X91771333Y-83670055D01*
X91773697Y-83613086D01*
X91738855Y-83538083D01*
X91679630Y-83466377D01*
X91624958Y-83426561D01*
X91532510Y-83392918D01*
X91454511Y-83381203D01*
X91355587Y-83398605D01*
X91355587Y-83398605D01*
G37*
X91355587Y-83398605D02*
X91258399Y-83442223D01*
X91188107Y-83499180D01*
X91171902Y-83525862D01*
X91153561Y-83616760D01*
X91156268Y-83716547D01*
X91177704Y-83797575D01*
X91196954Y-83824394D01*
X91220472Y-83857157D01*
X91202644Y-83897615D01*
X91165125Y-83938248D01*
X91100675Y-84042570D01*
X91096907Y-84165081D01*
X91136545Y-84273069D01*
X91224031Y-84377399D01*
X91351186Y-84435028D01*
X91511811Y-84443399D01*
X91540899Y-84439897D01*
X91616806Y-84407851D01*
X91694104Y-84344076D01*
X91755259Y-84267423D01*
X91782738Y-84196746D01*
X91782020Y-84180656D01*
X91744043Y-84138291D01*
X91673259Y-84119534D01*
X91598427Y-84122384D01*
X91563063Y-84157156D01*
X91557139Y-84175236D01*
X91517081Y-84227112D01*
X91450233Y-84241351D01*
X91381113Y-84218001D01*
X91341966Y-84174808D01*
X91329812Y-84100465D01*
X91356691Y-84026449D01*
X91409368Y-83974028D01*
X91473129Y-83964065D01*
X91521541Y-83956509D01*
X91539836Y-83913176D01*
X91529854Y-83853349D01*
X91493433Y-83796306D01*
X91454511Y-83768950D01*
X91394934Y-83718698D01*
X91375643Y-83654536D01*
X91399852Y-83598849D01*
X91427639Y-83581789D01*
X91490248Y-83589628D01*
X91536188Y-83630532D01*
X91599664Y-83677456D01*
X91678512Y-83698942D01*
X91746705Y-83690613D01*
X91771333Y-83670055D01*
X91773697Y-83613086D01*
X91738855Y-83538083D01*
X91679630Y-83466377D01*
X91624958Y-83426561D01*
X91532510Y-83392918D01*
X91454511Y-83381203D01*
X91355587Y-83398605D01*
G36*
X82971930Y-84272431D02*
X83576692Y-84272431D01*
X83576692Y-84622557D01*
X82971930Y-84622557D01*
X82971930Y-84845364D01*
X84404261Y-84845364D01*
X84404261Y-84622557D01*
X83863158Y-84622557D01*
X83863158Y-84272431D01*
X84404261Y-84272431D01*
X84404261Y-84017795D01*
X82971930Y-84017795D01*
X82971930Y-84272431D01*
X82971930Y-84272431D01*
G37*
X82971930Y-84272431D02*
X83576692Y-84272431D01*
X83576692Y-84622557D01*
X82971930Y-84622557D01*
X82971930Y-84845364D01*
X84404261Y-84845364D01*
X84404261Y-84622557D01*
X83863158Y-84622557D01*
X83863158Y-84272431D01*
X84404261Y-84272431D01*
X84404261Y-84017795D01*
X82971930Y-84017795D01*
X82971930Y-84272431D01*
G36*
X83341791Y-85021960D02*
X83178202Y-85080974D01*
X83055905Y-85175002D01*
X82978707Y-85293875D01*
X82950413Y-85427424D01*
X82974830Y-85565479D01*
X83055763Y-85697872D01*
X83079380Y-85723090D01*
X83174472Y-85796918D01*
X83282522Y-85852196D01*
X83307634Y-85860452D01*
X83414751Y-85879023D01*
X83558807Y-85889461D01*
X83718782Y-85891853D01*
X83873653Y-85886284D01*
X84002399Y-85872840D01*
X84070050Y-85857336D01*
X84227277Y-85776942D01*
X84339160Y-85668398D01*
X84405060Y-85542237D01*
X84424335Y-85408990D01*
X84396344Y-85279187D01*
X84320444Y-85163361D01*
X84195995Y-85072042D01*
X84119804Y-85040333D01*
X84030625Y-85020192D01*
X83978906Y-85041866D01*
X83949123Y-85114822D01*
X83942028Y-85148739D01*
X83937573Y-85215968D01*
X83967078Y-85257839D01*
X84028962Y-85290978D01*
X84111144Y-85355134D01*
X84137962Y-85438263D01*
X84108342Y-85526094D01*
X84051051Y-85584543D01*
X83954257Y-85629165D01*
X83818156Y-85657653D01*
X83665591Y-85667671D01*
X83519401Y-85656880D01*
X83462386Y-85644777D01*
X83333926Y-85590765D01*
X83255986Y-85518122D01*
X83230487Y-85436682D01*
X83259353Y-85356278D01*
X83344505Y-85286742D01*
X83388449Y-85266600D01*
X83470420Y-85226628D01*
X83498729Y-85188859D01*
X83494856Y-85166259D01*
X83467282Y-85090101D01*
X83457541Y-85058593D01*
X83432340Y-85020282D01*
X83376351Y-85015851D01*
X83341791Y-85021960D01*
X83341791Y-85021960D01*
G37*
X83341791Y-85021960D02*
X83178202Y-85080974D01*
X83055905Y-85175002D01*
X82978707Y-85293875D01*
X82950413Y-85427424D01*
X82974830Y-85565479D01*
X83055763Y-85697872D01*
X83079380Y-85723090D01*
X83174472Y-85796918D01*
X83282522Y-85852196D01*
X83307634Y-85860452D01*
X83414751Y-85879023D01*
X83558807Y-85889461D01*
X83718782Y-85891853D01*
X83873653Y-85886284D01*
X84002399Y-85872840D01*
X84070050Y-85857336D01*
X84227277Y-85776942D01*
X84339160Y-85668398D01*
X84405060Y-85542237D01*
X84424335Y-85408990D01*
X84396344Y-85279187D01*
X84320444Y-85163361D01*
X84195995Y-85072042D01*
X84119804Y-85040333D01*
X84030625Y-85020192D01*
X83978906Y-85041866D01*
X83949123Y-85114822D01*
X83942028Y-85148739D01*
X83937573Y-85215968D01*
X83967078Y-85257839D01*
X84028962Y-85290978D01*
X84111144Y-85355134D01*
X84137962Y-85438263D01*
X84108342Y-85526094D01*
X84051051Y-85584543D01*
X83954257Y-85629165D01*
X83818156Y-85657653D01*
X83665591Y-85667671D01*
X83519401Y-85656880D01*
X83462386Y-85644777D01*
X83333926Y-85590765D01*
X83255986Y-85518122D01*
X83230487Y-85436682D01*
X83259353Y-85356278D01*
X83344505Y-85286742D01*
X83388449Y-85266600D01*
X83470420Y-85226628D01*
X83498729Y-85188859D01*
X83494856Y-85166259D01*
X83467282Y-85090101D01*
X83457541Y-85058593D01*
X83432340Y-85020282D01*
X83376351Y-85015851D01*
X83341791Y-85021960D01*
G36*
X85206180Y-83906985D02*
X85099182Y-83950052D01*
X84979919Y-84009992D01*
X84868425Y-84077118D01*
X84814908Y-84115768D01*
X84717360Y-84217581D01*
X84622287Y-84360650D01*
X84588392Y-84424747D01*
X84538456Y-84531608D01*
X84507577Y-84619329D01*
X84491289Y-84710062D01*
X84485124Y-84825962D01*
X84484450Y-84940183D01*
X84487216Y-85094100D01*
X84497519Y-85206955D01*
X84519472Y-85301252D01*
X84557186Y-85399497D01*
X84576104Y-85441669D01*
X84688935Y-85630143D01*
X84839893Y-85800054D01*
X85011950Y-85934169D01*
X85118164Y-85990259D01*
X85364163Y-86067961D01*
X85641328Y-86108602D01*
X85927868Y-86110453D01*
X86186717Y-86075182D01*
X86453313Y-85988278D01*
X86682277Y-85853187D01*
X86869131Y-85673306D01*
X87009401Y-85452030D01*
X87010312Y-85450126D01*
X87047304Y-85366444D01*
X87071500Y-85289484D01*
X87085554Y-85202063D01*
X87092117Y-85087003D01*
X87093842Y-84927122D01*
X87093850Y-84909023D01*
X87092630Y-84746138D01*
X87087201Y-84630409D01*
X87074893Y-84545349D01*
X87053039Y-84474475D01*
X87018968Y-84401301D01*
X87008363Y-84380970D01*
X86935833Y-84266503D01*
X86847538Y-84157652D01*
X86803561Y-84114188D01*
X86707692Y-84041536D01*
X86595608Y-83973095D01*
X86487622Y-83919807D01*
X86404047Y-83892612D01*
X86389521Y-83891176D01*
X86364677Y-83919316D01*
X86333353Y-83993951D01*
X86302114Y-84099266D01*
X86300605Y-84105326D01*
X86271754Y-84220894D01*
X86247383Y-84316042D01*
X86232973Y-84369446D01*
X86247696Y-84415339D01*
X86322999Y-84456532D01*
X86328271Y-84458468D01*
X86470294Y-84539478D01*
X86570512Y-84656965D01*
X86628844Y-84799324D01*
X86645209Y-84954954D01*
X86619526Y-85112252D01*
X86551714Y-85259614D01*
X86441693Y-85385438D01*
X86335227Y-85456738D01*
X86216871Y-85497910D01*
X86055228Y-85526906D01*
X85869723Y-85542472D01*
X85679785Y-85543354D01*
X85504840Y-85528297D01*
X85431978Y-85515058D01*
X85249390Y-85447316D01*
X85105453Y-85340008D01*
X85005178Y-85202577D01*
X84953577Y-85044465D01*
X84955661Y-84875113D01*
X85008969Y-84718151D01*
X85074646Y-84628675D01*
X85170690Y-84541705D01*
X85276931Y-84472028D01*
X85373199Y-84434428D01*
X85399853Y-84431579D01*
X85453148Y-84418638D01*
X85465581Y-84407707D01*
X85466298Y-84362451D01*
X85447501Y-84278912D01*
X85415363Y-84174378D01*
X85376056Y-84066137D01*
X85335756Y-83971476D01*
X85300634Y-83907684D01*
X85280878Y-83890477D01*
X85206180Y-83906985D01*
X85206180Y-83906985D01*
G37*
X85206180Y-83906985D02*
X85099182Y-83950052D01*
X84979919Y-84009992D01*
X84868425Y-84077118D01*
X84814908Y-84115768D01*
X84717360Y-84217581D01*
X84622287Y-84360650D01*
X84588392Y-84424747D01*
X84538456Y-84531608D01*
X84507577Y-84619329D01*
X84491289Y-84710062D01*
X84485124Y-84825962D01*
X84484450Y-84940183D01*
X84487216Y-85094100D01*
X84497519Y-85206955D01*
X84519472Y-85301252D01*
X84557186Y-85399497D01*
X84576104Y-85441669D01*
X84688935Y-85630143D01*
X84839893Y-85800054D01*
X85011950Y-85934169D01*
X85118164Y-85990259D01*
X85364163Y-86067961D01*
X85641328Y-86108602D01*
X85927868Y-86110453D01*
X86186717Y-86075182D01*
X86453313Y-85988278D01*
X86682277Y-85853187D01*
X86869131Y-85673306D01*
X87009401Y-85452030D01*
X87010312Y-85450126D01*
X87047304Y-85366444D01*
X87071500Y-85289484D01*
X87085554Y-85202063D01*
X87092117Y-85087003D01*
X87093842Y-84927122D01*
X87093850Y-84909023D01*
X87092630Y-84746138D01*
X87087201Y-84630409D01*
X87074893Y-84545349D01*
X87053039Y-84474475D01*
X87018968Y-84401301D01*
X87008363Y-84380970D01*
X86935833Y-84266503D01*
X86847538Y-84157652D01*
X86803561Y-84114188D01*
X86707692Y-84041536D01*
X86595608Y-83973095D01*
X86487622Y-83919807D01*
X86404047Y-83892612D01*
X86389521Y-83891176D01*
X86364677Y-83919316D01*
X86333353Y-83993951D01*
X86302114Y-84099266D01*
X86300605Y-84105326D01*
X86271754Y-84220894D01*
X86247383Y-84316042D01*
X86232973Y-84369446D01*
X86247696Y-84415339D01*
X86322999Y-84456532D01*
X86328271Y-84458468D01*
X86470294Y-84539478D01*
X86570512Y-84656965D01*
X86628844Y-84799324D01*
X86645209Y-84954954D01*
X86619526Y-85112252D01*
X86551714Y-85259614D01*
X86441693Y-85385438D01*
X86335227Y-85456738D01*
X86216871Y-85497910D01*
X86055228Y-85526906D01*
X85869723Y-85542472D01*
X85679785Y-85543354D01*
X85504840Y-85528297D01*
X85431978Y-85515058D01*
X85249390Y-85447316D01*
X85105453Y-85340008D01*
X85005178Y-85202577D01*
X84953577Y-85044465D01*
X84955661Y-84875113D01*
X85008969Y-84718151D01*
X85074646Y-84628675D01*
X85170690Y-84541705D01*
X85276931Y-84472028D01*
X85373199Y-84434428D01*
X85399853Y-84431579D01*
X85453148Y-84418638D01*
X85465581Y-84407707D01*
X85466298Y-84362451D01*
X85447501Y-84278912D01*
X85415363Y-84174378D01*
X85376056Y-84066137D01*
X85335756Y-83971476D01*
X85300634Y-83907684D01*
X85280878Y-83890477D01*
X85206180Y-83906985D01*
G36*
X77942188Y-85947830D02*
X77873054Y-85966477D01*
X77819453Y-86007842D01*
X77796868Y-86032790D01*
X77728520Y-86154124D01*
X77722647Y-86285903D01*
X77779066Y-86427338D01*
X77897594Y-86577640D01*
X77931718Y-86611560D01*
X78081564Y-86755138D01*
X77720050Y-86755138D01*
X77720050Y-86977945D01*
X78070175Y-86977945D01*
X78225951Y-86976701D01*
X78328459Y-86971983D01*
X78388062Y-86962319D01*
X78415121Y-86946232D01*
X78420301Y-86928108D01*
X78408516Y-86865168D01*
X78369071Y-86789536D01*
X78295824Y-86692192D01*
X78182638Y-86564118D01*
X78145070Y-86523777D01*
X78055953Y-86422734D01*
X77986886Y-86332826D01*
X77947919Y-86267701D01*
X77942857Y-86249166D01*
X77965711Y-86173889D01*
X78020213Y-86134492D01*
X78085279Y-86134254D01*
X78139820Y-86176454D01*
X78156921Y-86215870D01*
X78181066Y-86259558D01*
X78234796Y-86273640D01*
X78289175Y-86271411D01*
X78365174Y-86259790D01*
X78394274Y-86232979D01*
X78393972Y-86182206D01*
X78364573Y-86104123D01*
X78307927Y-86025345D01*
X78305717Y-86023058D01*
X78246358Y-85974651D01*
X78175660Y-85950675D01*
X78069387Y-85943564D01*
X78050781Y-85943484D01*
X77942188Y-85947830D01*
X77942188Y-85947830D01*
G37*
X77942188Y-85947830D02*
X77873054Y-85966477D01*
X77819453Y-86007842D01*
X77796868Y-86032790D01*
X77728520Y-86154124D01*
X77722647Y-86285903D01*
X77779066Y-86427338D01*
X77897594Y-86577640D01*
X77931718Y-86611560D01*
X78081564Y-86755138D01*
X77720050Y-86755138D01*
X77720050Y-86977945D01*
X78070175Y-86977945D01*
X78225951Y-86976701D01*
X78328459Y-86971983D01*
X78388062Y-86962319D01*
X78415121Y-86946232D01*
X78420301Y-86928108D01*
X78408516Y-86865168D01*
X78369071Y-86789536D01*
X78295824Y-86692192D01*
X78182638Y-86564118D01*
X78145070Y-86523777D01*
X78055953Y-86422734D01*
X77986886Y-86332826D01*
X77947919Y-86267701D01*
X77942857Y-86249166D01*
X77965711Y-86173889D01*
X78020213Y-86134492D01*
X78085279Y-86134254D01*
X78139820Y-86176454D01*
X78156921Y-86215870D01*
X78181066Y-86259558D01*
X78234796Y-86273640D01*
X78289175Y-86271411D01*
X78365174Y-86259790D01*
X78394274Y-86232979D01*
X78393972Y-86182206D01*
X78364573Y-86104123D01*
X78307927Y-86025345D01*
X78305717Y-86023058D01*
X78246358Y-85974651D01*
X78175660Y-85950675D01*
X78069387Y-85943564D01*
X78050781Y-85943484D01*
X77942188Y-85947830D01*
G36*
X78561590Y-86758511D02*
X78525364Y-86779335D01*
X78516074Y-86833669D01*
X78515790Y-86866542D01*
X78519644Y-86937869D01*
X78543443Y-86969568D01*
X78605539Y-86977696D01*
X78643108Y-86977945D01*
X78724625Y-86974573D01*
X78760852Y-86953749D01*
X78770141Y-86899414D01*
X78770426Y-86866542D01*
X78766572Y-86795214D01*
X78742773Y-86763516D01*
X78680676Y-86755387D01*
X78643108Y-86755138D01*
X78561590Y-86758511D01*
X78561590Y-86758511D01*
G37*
X78561590Y-86758511D02*
X78525364Y-86779335D01*
X78516074Y-86833669D01*
X78515790Y-86866542D01*
X78519644Y-86937869D01*
X78543443Y-86969568D01*
X78605539Y-86977696D01*
X78643108Y-86977945D01*
X78724625Y-86974573D01*
X78760852Y-86953749D01*
X78770141Y-86899414D01*
X78770426Y-86866542D01*
X78766572Y-86795214D01*
X78742773Y-86763516D01*
X78680676Y-86755387D01*
X78643108Y-86755138D01*
X78561590Y-86758511D01*
G36*
X79056892Y-86977945D02*
X79279699Y-86977945D01*
X79279699Y-86284557D01*
X79518421Y-86406785D01*
X79528793Y-86305070D01*
X79522926Y-86218384D01*
X79481049Y-86171614D01*
X79423630Y-86129403D01*
X79348884Y-86061351D01*
X79321624Y-86033721D01*
X79226484Y-85956295D01*
X79140187Y-85927582D01*
X79138604Y-85927569D01*
X79056892Y-85927569D01*
X79056892Y-86977945D01*
X79056892Y-86977945D01*
G37*
X79056892Y-86977945D02*
X79279699Y-86977945D01*
X79279699Y-86284557D01*
X79518421Y-86406785D01*
X79528793Y-86305070D01*
X79522926Y-86218384D01*
X79481049Y-86171614D01*
X79423630Y-86129403D01*
X79348884Y-86061351D01*
X79321624Y-86033721D01*
X79226484Y-85956295D01*
X79140187Y-85927582D01*
X79138604Y-85927569D01*
X79056892Y-85927569D01*
X79056892Y-86977945D01*
G36*
X80172355Y-85932892D02*
X80022862Y-85940480D01*
X79921995Y-85951114D01*
X79854725Y-85968152D01*
X79806018Y-85994948D01*
X79774486Y-86021717D01*
X79723386Y-86082788D01*
X79699289Y-86156362D01*
X79693484Y-86261780D01*
X79709720Y-86400709D01*
X79763166Y-86496778D01*
X79860934Y-86556641D01*
X80010133Y-86586952D01*
X80044045Y-86589859D01*
X80234587Y-86603642D01*
X80234587Y-86977945D01*
X80489223Y-86977945D01*
X80489223Y-86413342D01*
X80234587Y-86413342D01*
X80117430Y-86394330D01*
X80025554Y-86368558D01*
X79956150Y-86330742D01*
X79950864Y-86325909D01*
X79919226Y-86264549D01*
X79944123Y-86210325D01*
X80018435Y-86171189D01*
X80102553Y-86156504D01*
X80234587Y-86146716D01*
X80234587Y-86413342D01*
X80489223Y-86413342D01*
X80489223Y-85920165D01*
X80172355Y-85932892D01*
X80172355Y-85932892D01*
G37*
X80172355Y-85932892D02*
X80022862Y-85940480D01*
X79921995Y-85951114D01*
X79854725Y-85968152D01*
X79806018Y-85994948D01*
X79774486Y-86021717D01*
X79723386Y-86082788D01*
X79699289Y-86156362D01*
X79693484Y-86261780D01*
X79709720Y-86400709D01*
X79763166Y-86496778D01*
X79860934Y-86556641D01*
X80010133Y-86586952D01*
X80044045Y-86589859D01*
X80234587Y-86603642D01*
X80234587Y-86977945D01*
X80489223Y-86977945D01*
X80489223Y-86413342D01*
X80234587Y-86413342D01*
X80117430Y-86394330D01*
X80025554Y-86368558D01*
X79956150Y-86330742D01*
X79950864Y-86325909D01*
X79919226Y-86264549D01*
X79944123Y-86210325D01*
X80018435Y-86171189D01*
X80102553Y-86156504D01*
X80234587Y-86146716D01*
X80234587Y-86413342D01*
X80489223Y-86413342D01*
X80489223Y-85920165D01*
X80172355Y-85932892D01*
G36*
X90144536Y-85946815D02*
X90036289Y-85999781D01*
X89960260Y-86088517D01*
X89947167Y-86119147D01*
X89925996Y-86238315D01*
X89951232Y-86356133D01*
X90026782Y-86483751D01*
X90109385Y-86582365D01*
X90267290Y-86755138D01*
X89910777Y-86755138D01*
X89910777Y-86977945D01*
X90278962Y-86977945D01*
X90436313Y-86977577D01*
X90540160Y-86975073D01*
X90600659Y-86968331D01*
X90627965Y-86955249D01*
X90632233Y-86933727D01*
X90625055Y-86906329D01*
X90581677Y-86796236D01*
X90517140Y-86692857D01*
X90419610Y-86579218D01*
X90342928Y-86501589D01*
X90234239Y-86379672D01*
X90173365Y-86276056D01*
X90162087Y-86195827D01*
X90202179Y-86144067D01*
X90215761Y-86137867D01*
X90289823Y-86120892D01*
X90336030Y-86150248D01*
X90362183Y-86198121D01*
X90406096Y-86256750D01*
X90479211Y-86277009D01*
X90504733Y-86277695D01*
X90580960Y-86266934D01*
X90609683Y-86228476D01*
X90594497Y-86153058D01*
X90573001Y-86101743D01*
X90499233Y-86007083D01*
X90392343Y-85950012D01*
X90268666Y-85930074D01*
X90144536Y-85946815D01*
X90144536Y-85946815D01*
G37*
X90144536Y-85946815D02*
X90036289Y-85999781D01*
X89960260Y-86088517D01*
X89947167Y-86119147D01*
X89925996Y-86238315D01*
X89951232Y-86356133D01*
X90026782Y-86483751D01*
X90109385Y-86582365D01*
X90267290Y-86755138D01*
X89910777Y-86755138D01*
X89910777Y-86977945D01*
X90278962Y-86977945D01*
X90436313Y-86977577D01*
X90540160Y-86975073D01*
X90600659Y-86968331D01*
X90627965Y-86955249D01*
X90632233Y-86933727D01*
X90625055Y-86906329D01*
X90581677Y-86796236D01*
X90517140Y-86692857D01*
X90419610Y-86579218D01*
X90342928Y-86501589D01*
X90234239Y-86379672D01*
X90173365Y-86276056D01*
X90162087Y-86195827D01*
X90202179Y-86144067D01*
X90215761Y-86137867D01*
X90289823Y-86120892D01*
X90336030Y-86150248D01*
X90362183Y-86198121D01*
X90406096Y-86256750D01*
X90479211Y-86277009D01*
X90504733Y-86277695D01*
X90580960Y-86266934D01*
X90609683Y-86228476D01*
X90594497Y-86153058D01*
X90573001Y-86101743D01*
X90499233Y-86007083D01*
X90392343Y-85950012D01*
X90268666Y-85930074D01*
X90144536Y-85946815D01*
G36*
X90775083Y-86760065D02*
X90744462Y-86787865D01*
X90738360Y-86858062D01*
X90738346Y-86866542D01*
X90743273Y-86941208D01*
X90771073Y-86971829D01*
X90841270Y-86977931D01*
X90849749Y-86977945D01*
X90924416Y-86973018D01*
X90955037Y-86945219D01*
X90961139Y-86875021D01*
X90961153Y-86866542D01*
X90956226Y-86791876D01*
X90928426Y-86761254D01*
X90858229Y-86755152D01*
X90849749Y-86755138D01*
X90775083Y-86760065D01*
X90775083Y-86760065D01*
G37*
X90775083Y-86760065D02*
X90744462Y-86787865D01*
X90738360Y-86858062D01*
X90738346Y-86866542D01*
X90743273Y-86941208D01*
X90771073Y-86971829D01*
X90841270Y-86977931D01*
X90849749Y-86977945D01*
X90924416Y-86973018D01*
X90955037Y-86945219D01*
X90961139Y-86875021D01*
X90961153Y-86866542D01*
X90956226Y-86791876D01*
X90928426Y-86761254D01*
X90858229Y-86755152D01*
X90849749Y-86755138D01*
X90775083Y-86760065D01*
G36*
X92267464Y-85934229D02*
X92134189Y-85952365D01*
X92058048Y-85973774D01*
X91955862Y-86047586D01*
X91897102Y-86157014D01*
X91885803Y-86287669D01*
X91925995Y-86425161D01*
X91929568Y-86432226D01*
X92007085Y-86524470D01*
X92127261Y-86578212D01*
X92295813Y-86595984D01*
X92299493Y-86595990D01*
X92457143Y-86595990D01*
X92457143Y-86977945D01*
X92679950Y-86977945D01*
X92679950Y-86275951D01*
X92457143Y-86275951D01*
X92452840Y-86358782D01*
X92432838Y-86395878D01*
X92386493Y-86404963D01*
X92379641Y-86405013D01*
X92288833Y-86393286D01*
X92218380Y-86373168D01*
X92156920Y-86335173D01*
X92143035Y-86272736D01*
X92144692Y-86253807D01*
X92156854Y-86200265D01*
X92189152Y-86172610D01*
X92259491Y-86160045D01*
X92305952Y-86156590D01*
X92457143Y-86146888D01*
X92457143Y-86275951D01*
X92679950Y-86275951D01*
X92679950Y-85927569D01*
X92424291Y-85927569D01*
X92267464Y-85934229D01*
X92267464Y-85934229D01*
G37*
X92267464Y-85934229D02*
X92134189Y-85952365D01*
X92058048Y-85973774D01*
X91955862Y-86047586D01*
X91897102Y-86157014D01*
X91885803Y-86287669D01*
X91925995Y-86425161D01*
X91929568Y-86432226D01*
X92007085Y-86524470D01*
X92127261Y-86578212D01*
X92295813Y-86595984D01*
X92299493Y-86595990D01*
X92457143Y-86595990D01*
X92457143Y-86977945D01*
X92679950Y-86977945D01*
X92679950Y-86275951D01*
X92457143Y-86275951D01*
X92452840Y-86358782D01*
X92432838Y-86395878D01*
X92386493Y-86404963D01*
X92379641Y-86405013D01*
X92288833Y-86393286D01*
X92218380Y-86373168D01*
X92156920Y-86335173D01*
X92143035Y-86272736D01*
X92144692Y-86253807D01*
X92156854Y-86200265D01*
X92189152Y-86172610D01*
X92259491Y-86160045D01*
X92305952Y-86156590D01*
X92457143Y-86146888D01*
X92457143Y-86275951D01*
X92679950Y-86275951D01*
X92679950Y-85927569D01*
X92424291Y-85927569D01*
X92267464Y-85934229D01*
G36*
X91355587Y-85944970D02*
X91258399Y-85988589D01*
X91188107Y-86045546D01*
X91171902Y-86072228D01*
X91153561Y-86163126D01*
X91156268Y-86262913D01*
X91177704Y-86343941D01*
X91196954Y-86370760D01*
X91220472Y-86403523D01*
X91202644Y-86443981D01*
X91165125Y-86484614D01*
X91100933Y-86588806D01*
X91096879Y-86710244D01*
X91151262Y-86841815D01*
X91197616Y-86903883D01*
X91256506Y-86944183D01*
X91347662Y-86973452D01*
X91422682Y-86989524D01*
X91476011Y-86990500D01*
X91540899Y-86984862D01*
X91616645Y-86953780D01*
X91693961Y-86890579D01*
X91755209Y-86814123D01*
X91782749Y-86743273D01*
X91782020Y-86727022D01*
X91744043Y-86684657D01*
X91673259Y-86665900D01*
X91598427Y-86668750D01*
X91563063Y-86703522D01*
X91557139Y-86721602D01*
X91517081Y-86773478D01*
X91450233Y-86787717D01*
X91381113Y-86764367D01*
X91341966Y-86721174D01*
X91329812Y-86646831D01*
X91356691Y-86572815D01*
X91409368Y-86520394D01*
X91473129Y-86510431D01*
X91521541Y-86502875D01*
X91539836Y-86459542D01*
X91529854Y-86399714D01*
X91493433Y-86342672D01*
X91454511Y-86315316D01*
X91394934Y-86265064D01*
X91375643Y-86200902D01*
X91399852Y-86145215D01*
X91427639Y-86128155D01*
X91490248Y-86135993D01*
X91536188Y-86176898D01*
X91599664Y-86223822D01*
X91678512Y-86245308D01*
X91746705Y-86236979D01*
X91771333Y-86216421D01*
X91773697Y-86159452D01*
X91738855Y-86084449D01*
X91679630Y-86012743D01*
X91624958Y-85972927D01*
X91532510Y-85939284D01*
X91454511Y-85927569D01*
X91355587Y-85944970D01*
X91355587Y-85944970D01*
G37*
X91355587Y-85944970D02*
X91258399Y-85988589D01*
X91188107Y-86045546D01*
X91171902Y-86072228D01*
X91153561Y-86163126D01*
X91156268Y-86262913D01*
X91177704Y-86343941D01*
X91196954Y-86370760D01*
X91220472Y-86403523D01*
X91202644Y-86443981D01*
X91165125Y-86484614D01*
X91100933Y-86588806D01*
X91096879Y-86710244D01*
X91151262Y-86841815D01*
X91197616Y-86903883D01*
X91256506Y-86944183D01*
X91347662Y-86973452D01*
X91422682Y-86989524D01*
X91476011Y-86990500D01*
X91540899Y-86984862D01*
X91616645Y-86953780D01*
X91693961Y-86890579D01*
X91755209Y-86814123D01*
X91782749Y-86743273D01*
X91782020Y-86727022D01*
X91744043Y-86684657D01*
X91673259Y-86665900D01*
X91598427Y-86668750D01*
X91563063Y-86703522D01*
X91557139Y-86721602D01*
X91517081Y-86773478D01*
X91450233Y-86787717D01*
X91381113Y-86764367D01*
X91341966Y-86721174D01*
X91329812Y-86646831D01*
X91356691Y-86572815D01*
X91409368Y-86520394D01*
X91473129Y-86510431D01*
X91521541Y-86502875D01*
X91539836Y-86459542D01*
X91529854Y-86399714D01*
X91493433Y-86342672D01*
X91454511Y-86315316D01*
X91394934Y-86265064D01*
X91375643Y-86200902D01*
X91399852Y-86145215D01*
X91427639Y-86128155D01*
X91490248Y-86135993D01*
X91536188Y-86176898D01*
X91599664Y-86223822D01*
X91678512Y-86245308D01*
X91746705Y-86236979D01*
X91771333Y-86216421D01*
X91773697Y-86159452D01*
X91738855Y-86084449D01*
X91679630Y-86012743D01*
X91624958Y-85972927D01*
X91532510Y-85939284D01*
X91454511Y-85927569D01*
X91355587Y-85944970D01*
G36*
X78561590Y-89304877D02*
X78525364Y-89325701D01*
X78516074Y-89380035D01*
X78515790Y-89412908D01*
X78519644Y-89484235D01*
X78543443Y-89515934D01*
X78605539Y-89524062D01*
X78643108Y-89524311D01*
X78724625Y-89520939D01*
X78760852Y-89500115D01*
X78770141Y-89445780D01*
X78770426Y-89412908D01*
X78766572Y-89341580D01*
X78742773Y-89309881D01*
X78680676Y-89301753D01*
X78643108Y-89301504D01*
X78561590Y-89304877D01*
X78561590Y-89304877D01*
G37*
X78561590Y-89304877D02*
X78525364Y-89325701D01*
X78516074Y-89380035D01*
X78515790Y-89412908D01*
X78519644Y-89484235D01*
X78543443Y-89515934D01*
X78605539Y-89524062D01*
X78643108Y-89524311D01*
X78724625Y-89520939D01*
X78760852Y-89500115D01*
X78770141Y-89445780D01*
X78770426Y-89412908D01*
X78766572Y-89341580D01*
X78742773Y-89309881D01*
X78680676Y-89301753D01*
X78643108Y-89301504D01*
X78561590Y-89304877D01*
G36*
X79056892Y-89524311D02*
X79279699Y-89524311D01*
X79279699Y-88830923D01*
X79518421Y-88953151D01*
X79528793Y-88851436D01*
X79522926Y-88764750D01*
X79481049Y-88717979D01*
X79423630Y-88675769D01*
X79348884Y-88607716D01*
X79321624Y-88580087D01*
X79226484Y-88502661D01*
X79140187Y-88473948D01*
X79138604Y-88473935D01*
X79056892Y-88473935D01*
X79056892Y-89524311D01*
X79056892Y-89524311D01*
G37*
X79056892Y-89524311D02*
X79279699Y-89524311D01*
X79279699Y-88830923D01*
X79518421Y-88953151D01*
X79528793Y-88851436D01*
X79522926Y-88764750D01*
X79481049Y-88717979D01*
X79423630Y-88675769D01*
X79348884Y-88607716D01*
X79321624Y-88580087D01*
X79226484Y-88502661D01*
X79140187Y-88473948D01*
X79138604Y-88473935D01*
X79056892Y-88473935D01*
X79056892Y-89524311D01*
G36*
X80172355Y-88479258D02*
X80022862Y-88486846D01*
X79921995Y-88497480D01*
X79854725Y-88514518D01*
X79806018Y-88541314D01*
X79774486Y-88568083D01*
X79723386Y-88629154D01*
X79699289Y-88702728D01*
X79693484Y-88808146D01*
X79709720Y-88947075D01*
X79763166Y-89043144D01*
X79860934Y-89103007D01*
X80010133Y-89133318D01*
X80044045Y-89136225D01*
X80234587Y-89150008D01*
X80234587Y-89524311D01*
X80489223Y-89524311D01*
X80489223Y-88959708D01*
X80234587Y-88959708D01*
X80117430Y-88940696D01*
X80025554Y-88914923D01*
X79956150Y-88877108D01*
X79950864Y-88872275D01*
X79919226Y-88810915D01*
X79944123Y-88756691D01*
X80018435Y-88717555D01*
X80102553Y-88702869D01*
X80234587Y-88693082D01*
X80234587Y-88959708D01*
X80489223Y-88959708D01*
X80489223Y-88466531D01*
X80172355Y-88479258D01*
X80172355Y-88479258D01*
G37*
X80172355Y-88479258D02*
X80022862Y-88486846D01*
X79921995Y-88497480D01*
X79854725Y-88514518D01*
X79806018Y-88541314D01*
X79774486Y-88568083D01*
X79723386Y-88629154D01*
X79699289Y-88702728D01*
X79693484Y-88808146D01*
X79709720Y-88947075D01*
X79763166Y-89043144D01*
X79860934Y-89103007D01*
X80010133Y-89133318D01*
X80044045Y-89136225D01*
X80234587Y-89150008D01*
X80234587Y-89524311D01*
X80489223Y-89524311D01*
X80489223Y-88959708D01*
X80234587Y-88959708D01*
X80117430Y-88940696D01*
X80025554Y-88914923D01*
X79956150Y-88877108D01*
X79950864Y-88872275D01*
X79919226Y-88810915D01*
X79944123Y-88756691D01*
X80018435Y-88717555D01*
X80102553Y-88702869D01*
X80234587Y-88693082D01*
X80234587Y-88959708D01*
X80489223Y-88959708D01*
X80489223Y-88466531D01*
X80172355Y-88479258D01*
G36*
X90775083Y-89306431D02*
X90744462Y-89334231D01*
X90738360Y-89404428D01*
X90738346Y-89412908D01*
X90743273Y-89487574D01*
X90771073Y-89518195D01*
X90841270Y-89524297D01*
X90849749Y-89524311D01*
X90924416Y-89519384D01*
X90955037Y-89491585D01*
X90961139Y-89421387D01*
X90961153Y-89412908D01*
X90956226Y-89338241D01*
X90928426Y-89307620D01*
X90858229Y-89301518D01*
X90849749Y-89301504D01*
X90775083Y-89306431D01*
X90775083Y-89306431D01*
G37*
X90775083Y-89306431D02*
X90744462Y-89334231D01*
X90738360Y-89404428D01*
X90738346Y-89412908D01*
X90743273Y-89487574D01*
X90771073Y-89518195D01*
X90841270Y-89524297D01*
X90849749Y-89524311D01*
X90924416Y-89519384D01*
X90955037Y-89491585D01*
X90961139Y-89421387D01*
X90961153Y-89412908D01*
X90956226Y-89338241D01*
X90928426Y-89307620D01*
X90858229Y-89301518D01*
X90849749Y-89301504D01*
X90775083Y-89306431D01*
G36*
X92267464Y-88480595D02*
X92134189Y-88498731D01*
X92058048Y-88520140D01*
X91955862Y-88593952D01*
X91897102Y-88703380D01*
X91885803Y-88834035D01*
X91925995Y-88971527D01*
X91929568Y-88978592D01*
X92007085Y-89070836D01*
X92127261Y-89124578D01*
X92295813Y-89142350D01*
X92299493Y-89142356D01*
X92457143Y-89142356D01*
X92457143Y-89524311D01*
X92679950Y-89524311D01*
X92679950Y-88822317D01*
X92457143Y-88822317D01*
X92452840Y-88905148D01*
X92432838Y-88942244D01*
X92386493Y-88951329D01*
X92379641Y-88951379D01*
X92288833Y-88939652D01*
X92218380Y-88919534D01*
X92156920Y-88881539D01*
X92143035Y-88819101D01*
X92144692Y-88800173D01*
X92156854Y-88746631D01*
X92189152Y-88718976D01*
X92259491Y-88706411D01*
X92305952Y-88702956D01*
X92457143Y-88693254D01*
X92457143Y-88822317D01*
X92679950Y-88822317D01*
X92679950Y-88473935D01*
X92424291Y-88473935D01*
X92267464Y-88480595D01*
X92267464Y-88480595D01*
G37*
X92267464Y-88480595D02*
X92134189Y-88498731D01*
X92058048Y-88520140D01*
X91955862Y-88593952D01*
X91897102Y-88703380D01*
X91885803Y-88834035D01*
X91925995Y-88971527D01*
X91929568Y-88978592D01*
X92007085Y-89070836D01*
X92127261Y-89124578D01*
X92295813Y-89142350D01*
X92299493Y-89142356D01*
X92457143Y-89142356D01*
X92457143Y-89524311D01*
X92679950Y-89524311D01*
X92679950Y-88822317D01*
X92457143Y-88822317D01*
X92452840Y-88905148D01*
X92432838Y-88942244D01*
X92386493Y-88951329D01*
X92379641Y-88951379D01*
X92288833Y-88939652D01*
X92218380Y-88919534D01*
X92156920Y-88881539D01*
X92143035Y-88819101D01*
X92144692Y-88800173D01*
X92156854Y-88746631D01*
X92189152Y-88718976D01*
X92259491Y-88706411D01*
X92305952Y-88702956D01*
X92457143Y-88693254D01*
X92457143Y-88822317D01*
X92679950Y-88822317D01*
X92679950Y-88473935D01*
X92424291Y-88473935D01*
X92267464Y-88480595D01*
G36*
X77964308Y-88495262D02*
X77895925Y-88517837D01*
X77839312Y-88567086D01*
X77828698Y-88579156D01*
X77766567Y-88687138D01*
X77756934Y-88795921D01*
X77801168Y-88889416D01*
X77802214Y-88890581D01*
X77833299Y-88934908D01*
X77822069Y-88973416D01*
X77786299Y-89012448D01*
X77732124Y-89106977D01*
X77717159Y-89225479D01*
X77740888Y-89342185D01*
X77794527Y-89424034D01*
X77925351Y-89505425D01*
X78077621Y-89531917D01*
X78157511Y-89522773D01*
X78274609Y-89481701D01*
X78348018Y-89410619D01*
X78383403Y-89334192D01*
X78401916Y-89255493D01*
X78378895Y-89217228D01*
X78304565Y-89206151D01*
X78288797Y-89206015D01*
X78201515Y-89230200D01*
X78165664Y-89269675D01*
X78110064Y-89324021D01*
X78042502Y-89329382D01*
X77981586Y-89292611D01*
X77945928Y-89220559D01*
X77942857Y-89187632D01*
X77967778Y-89105736D01*
X78030501Y-89060713D01*
X78100478Y-89062298D01*
X78151408Y-89065961D01*
X78165639Y-89022947D01*
X78165664Y-89019456D01*
X78145453Y-88951724D01*
X78098562Y-88888458D01*
X78045603Y-88856377D01*
X78039478Y-88855890D01*
X78003542Y-88830452D01*
X77991057Y-88774094D01*
X78006783Y-88716749D01*
X78015611Y-88705836D01*
X78073977Y-88679978D01*
X78133093Y-88694243D01*
X78164963Y-88740408D01*
X78165664Y-88749909D01*
X78190600Y-88781459D01*
X78249061Y-88789773D01*
X78316530Y-88777758D01*
X78368489Y-88748318D01*
X78381881Y-88724282D01*
X78368922Y-88667511D01*
X78324341Y-88594551D01*
X78313281Y-88581048D01*
X78255537Y-88525114D01*
X78191622Y-88498011D01*
X78095613Y-88490013D01*
X78070175Y-88489850D01*
X77964308Y-88495262D01*
X77964308Y-88495262D01*
G37*
X77964308Y-88495262D02*
X77895925Y-88517837D01*
X77839312Y-88567086D01*
X77828698Y-88579156D01*
X77766567Y-88687138D01*
X77756934Y-88795921D01*
X77801168Y-88889416D01*
X77802214Y-88890581D01*
X77833299Y-88934908D01*
X77822069Y-88973416D01*
X77786299Y-89012448D01*
X77732124Y-89106977D01*
X77717159Y-89225479D01*
X77740888Y-89342185D01*
X77794527Y-89424034D01*
X77925351Y-89505425D01*
X78077621Y-89531917D01*
X78157511Y-89522773D01*
X78274609Y-89481701D01*
X78348018Y-89410619D01*
X78383403Y-89334192D01*
X78401916Y-89255493D01*
X78378895Y-89217228D01*
X78304565Y-89206151D01*
X78288797Y-89206015D01*
X78201515Y-89230200D01*
X78165664Y-89269675D01*
X78110064Y-89324021D01*
X78042502Y-89329382D01*
X77981586Y-89292611D01*
X77945928Y-89220559D01*
X77942857Y-89187632D01*
X77967778Y-89105736D01*
X78030501Y-89060713D01*
X78100478Y-89062298D01*
X78151408Y-89065961D01*
X78165639Y-89022947D01*
X78165664Y-89019456D01*
X78145453Y-88951724D01*
X78098562Y-88888458D01*
X78045603Y-88856377D01*
X78039478Y-88855890D01*
X78003542Y-88830452D01*
X77991057Y-88774094D01*
X78006783Y-88716749D01*
X78015611Y-88705836D01*
X78073977Y-88679978D01*
X78133093Y-88694243D01*
X78164963Y-88740408D01*
X78165664Y-88749909D01*
X78190600Y-88781459D01*
X78249061Y-88789773D01*
X78316530Y-88777758D01*
X78368489Y-88748318D01*
X78381881Y-88724282D01*
X78368922Y-88667511D01*
X78324341Y-88594551D01*
X78313281Y-88581048D01*
X78255537Y-88525114D01*
X78191622Y-88498011D01*
X78095613Y-88490013D01*
X78070175Y-88489850D01*
X77964308Y-88495262D01*
G36*
X90157761Y-88497398D02*
X90100635Y-88522258D01*
X90020099Y-88595214D01*
X89974808Y-88699124D01*
X89969947Y-88811145D01*
X90010702Y-88908438D01*
X90012454Y-88910610D01*
X90020649Y-88960741D01*
X89977519Y-89034263D01*
X89919664Y-89151383D01*
X89924186Y-89277696D01*
X89973568Y-89388181D01*
X90019922Y-89450249D01*
X90078812Y-89490549D01*
X90169968Y-89519818D01*
X90244988Y-89535890D01*
X90298317Y-89536866D01*
X90363205Y-89531228D01*
X90438950Y-89500145D01*
X90516267Y-89436945D01*
X90577515Y-89360489D01*
X90605055Y-89289639D01*
X90604326Y-89273388D01*
X90566199Y-89231012D01*
X90494127Y-89212159D01*
X90417455Y-89215186D01*
X90379470Y-89250628D01*
X90372881Y-89267861D01*
X90329595Y-89322561D01*
X90263416Y-89333940D01*
X90196694Y-89303463D01*
X90159681Y-89253889D01*
X90140748Y-89184547D01*
X90167504Y-89126727D01*
X90182984Y-89108697D01*
X90247596Y-89063730D01*
X90299438Y-89057844D01*
X90345589Y-89049679D01*
X90362076Y-89005845D01*
X90351138Y-88945761D01*
X90315014Y-88888845D01*
X90276817Y-88861682D01*
X90217240Y-88811430D01*
X90197949Y-88747268D01*
X90222158Y-88691581D01*
X90249945Y-88674521D01*
X90312554Y-88682359D01*
X90358493Y-88723264D01*
X90423134Y-88770724D01*
X90504131Y-88793012D01*
X90572868Y-88783828D01*
X90587209Y-88773610D01*
X90595174Y-88726040D01*
X90569040Y-88654977D01*
X90520213Y-88581448D01*
X90460101Y-88526478D01*
X90450010Y-88520712D01*
X90304322Y-88477247D01*
X90157761Y-88497398D01*
X90157761Y-88497398D01*
G37*
X90157761Y-88497398D02*
X90100635Y-88522258D01*
X90020099Y-88595214D01*
X89974808Y-88699124D01*
X89969947Y-88811145D01*
X90010702Y-88908438D01*
X90012454Y-88910610D01*
X90020649Y-88960741D01*
X89977519Y-89034263D01*
X89919664Y-89151383D01*
X89924186Y-89277696D01*
X89973568Y-89388181D01*
X90019922Y-89450249D01*
X90078812Y-89490549D01*
X90169968Y-89519818D01*
X90244988Y-89535890D01*
X90298317Y-89536866D01*
X90363205Y-89531228D01*
X90438950Y-89500145D01*
X90516267Y-89436945D01*
X90577515Y-89360489D01*
X90605055Y-89289639D01*
X90604326Y-89273388D01*
X90566199Y-89231012D01*
X90494127Y-89212159D01*
X90417455Y-89215186D01*
X90379470Y-89250628D01*
X90372881Y-89267861D01*
X90329595Y-89322561D01*
X90263416Y-89333940D01*
X90196694Y-89303463D01*
X90159681Y-89253889D01*
X90140748Y-89184547D01*
X90167504Y-89126727D01*
X90182984Y-89108697D01*
X90247596Y-89063730D01*
X90299438Y-89057844D01*
X90345589Y-89049679D01*
X90362076Y-89005845D01*
X90351138Y-88945761D01*
X90315014Y-88888845D01*
X90276817Y-88861682D01*
X90217240Y-88811430D01*
X90197949Y-88747268D01*
X90222158Y-88691581D01*
X90249945Y-88674521D01*
X90312554Y-88682359D01*
X90358493Y-88723264D01*
X90423134Y-88770724D01*
X90504131Y-88793012D01*
X90572868Y-88783828D01*
X90587209Y-88773610D01*
X90595174Y-88726040D01*
X90569040Y-88654977D01*
X90520213Y-88581448D01*
X90460101Y-88526478D01*
X90450010Y-88520712D01*
X90304322Y-88477247D01*
X90157761Y-88497398D01*
G36*
X91355587Y-88491336D02*
X91258399Y-88534954D01*
X91188107Y-88591911D01*
X91171902Y-88618594D01*
X91154440Y-88704619D01*
X91154998Y-88802643D01*
X91171976Y-88883714D01*
X91188056Y-88910913D01*
X91202295Y-88951946D01*
X91170969Y-89013486D01*
X91156226Y-89032975D01*
X91097704Y-89150357D01*
X91101475Y-89276277D01*
X91151262Y-89388181D01*
X91197616Y-89450249D01*
X91256506Y-89490549D01*
X91347662Y-89519818D01*
X91422682Y-89535890D01*
X91476011Y-89536866D01*
X91540899Y-89531228D01*
X91616645Y-89500145D01*
X91693961Y-89436945D01*
X91755209Y-89360489D01*
X91782749Y-89289639D01*
X91782020Y-89273388D01*
X91744043Y-89231023D01*
X91673259Y-89212266D01*
X91598427Y-89215116D01*
X91563063Y-89249888D01*
X91557139Y-89267968D01*
X91517081Y-89319844D01*
X91450233Y-89334083D01*
X91381113Y-89310733D01*
X91341966Y-89267540D01*
X91329812Y-89193196D01*
X91356691Y-89119181D01*
X91409368Y-89066760D01*
X91473129Y-89056797D01*
X91521541Y-89049241D01*
X91539836Y-89005908D01*
X91529854Y-88946080D01*
X91493433Y-88889038D01*
X91454511Y-88861682D01*
X91394934Y-88811430D01*
X91375643Y-88747268D01*
X91399852Y-88691581D01*
X91427639Y-88674521D01*
X91490248Y-88682359D01*
X91536188Y-88723264D01*
X91599664Y-88770188D01*
X91678512Y-88791674D01*
X91746705Y-88783345D01*
X91771333Y-88762787D01*
X91773697Y-88705818D01*
X91738855Y-88630815D01*
X91679630Y-88559109D01*
X91624958Y-88519292D01*
X91532510Y-88485650D01*
X91454511Y-88473935D01*
X91355587Y-88491336D01*
X91355587Y-88491336D01*
G37*
X91355587Y-88491336D02*
X91258399Y-88534954D01*
X91188107Y-88591911D01*
X91171902Y-88618594D01*
X91154440Y-88704619D01*
X91154998Y-88802643D01*
X91171976Y-88883714D01*
X91188056Y-88910913D01*
X91202295Y-88951946D01*
X91170969Y-89013486D01*
X91156226Y-89032975D01*
X91097704Y-89150357D01*
X91101475Y-89276277D01*
X91151262Y-89388181D01*
X91197616Y-89450249D01*
X91256506Y-89490549D01*
X91347662Y-89519818D01*
X91422682Y-89535890D01*
X91476011Y-89536866D01*
X91540899Y-89531228D01*
X91616645Y-89500145D01*
X91693961Y-89436945D01*
X91755209Y-89360489D01*
X91782749Y-89289639D01*
X91782020Y-89273388D01*
X91744043Y-89231023D01*
X91673259Y-89212266D01*
X91598427Y-89215116D01*
X91563063Y-89249888D01*
X91557139Y-89267968D01*
X91517081Y-89319844D01*
X91450233Y-89334083D01*
X91381113Y-89310733D01*
X91341966Y-89267540D01*
X91329812Y-89193196D01*
X91356691Y-89119181D01*
X91409368Y-89066760D01*
X91473129Y-89056797D01*
X91521541Y-89049241D01*
X91539836Y-89005908D01*
X91529854Y-88946080D01*
X91493433Y-88889038D01*
X91454511Y-88861682D01*
X91394934Y-88811430D01*
X91375643Y-88747268D01*
X91399852Y-88691581D01*
X91427639Y-88674521D01*
X91490248Y-88682359D01*
X91536188Y-88723264D01*
X91599664Y-88770188D01*
X91678512Y-88791674D01*
X91746705Y-88783345D01*
X91771333Y-88762787D01*
X91773697Y-88705818D01*
X91738855Y-88630815D01*
X91679630Y-88559109D01*
X91624958Y-88519292D01*
X91532510Y-88485650D01*
X91454511Y-88473935D01*
X91355587Y-88491336D01*
G36*
X77815539Y-91338597D02*
X77814665Y-91483465D01*
X77810508Y-91576204D01*
X77800762Y-91628336D01*
X77783124Y-91651383D01*
X77755289Y-91656867D01*
X77751880Y-91656893D01*
X77708005Y-91669354D01*
X77690301Y-91718004D01*
X77688221Y-91768296D01*
X77695342Y-91845078D01*
X77723141Y-91876058D01*
X77751880Y-91879700D01*
X77798476Y-91894706D01*
X77814882Y-91950539D01*
X77815539Y-91975188D01*
X77821749Y-92039344D01*
X77853249Y-92065657D01*
X77926942Y-92070677D01*
X78001790Y-92065354D01*
X78032490Y-92038354D01*
X78038346Y-91975188D01*
X78038346Y-91879700D01*
X78452130Y-91879700D01*
X78452130Y-91781931D01*
X78437014Y-91712599D01*
X78410516Y-91656893D01*
X78201829Y-91656893D01*
X78120087Y-91656893D01*
X78065796Y-91649431D01*
X78042886Y-91614671D01*
X78038346Y-91540184D01*
X78040772Y-91468302D01*
X78046788Y-91436266D01*
X78048654Y-91436738D01*
X78071741Y-91469110D01*
X78116325Y-91533103D01*
X78130395Y-91553446D01*
X78201829Y-91656893D01*
X78410516Y-91656893D01*
X78389396Y-91612495D01*
X78305870Y-91475225D01*
X78223270Y-91352232D01*
X78125181Y-91212382D01*
X78053396Y-91117703D01*
X77999849Y-91059784D01*
X77956474Y-91030214D01*
X77915204Y-91020581D01*
X77904975Y-91020301D01*
X77815539Y-91020301D01*
X77815539Y-91338597D01*
X77815539Y-91338597D01*
G37*
X77815539Y-91338597D02*
X77814665Y-91483465D01*
X77810508Y-91576204D01*
X77800762Y-91628336D01*
X77783124Y-91651383D01*
X77755289Y-91656867D01*
X77751880Y-91656893D01*
X77708005Y-91669354D01*
X77690301Y-91718004D01*
X77688221Y-91768296D01*
X77695342Y-91845078D01*
X77723141Y-91876058D01*
X77751880Y-91879700D01*
X77798476Y-91894706D01*
X77814882Y-91950539D01*
X77815539Y-91975188D01*
X77821749Y-92039344D01*
X77853249Y-92065657D01*
X77926942Y-92070677D01*
X78001790Y-92065354D01*
X78032490Y-92038354D01*
X78038346Y-91975188D01*
X78038346Y-91879700D01*
X78452130Y-91879700D01*
X78452130Y-91781931D01*
X78437014Y-91712599D01*
X78410516Y-91656893D01*
X78201829Y-91656893D01*
X78120087Y-91656893D01*
X78065796Y-91649431D01*
X78042886Y-91614671D01*
X78038346Y-91540184D01*
X78040772Y-91468302D01*
X78046788Y-91436266D01*
X78048654Y-91436738D01*
X78071741Y-91469110D01*
X78116325Y-91533103D01*
X78130395Y-91553446D01*
X78201829Y-91656893D01*
X78410516Y-91656893D01*
X78389396Y-91612495D01*
X78305870Y-91475225D01*
X78223270Y-91352232D01*
X78125181Y-91212382D01*
X78053396Y-91117703D01*
X77999849Y-91059784D01*
X77956474Y-91030214D01*
X77915204Y-91020581D01*
X77904975Y-91020301D01*
X77815539Y-91020301D01*
X77815539Y-91338597D01*
G36*
X78561590Y-91851243D02*
X78525364Y-91872067D01*
X78516074Y-91926401D01*
X78515790Y-91959274D01*
X78519644Y-92030601D01*
X78543443Y-92062300D01*
X78605539Y-92070428D01*
X78643108Y-92070677D01*
X78724625Y-92067304D01*
X78760852Y-92046480D01*
X78770141Y-91992146D01*
X78770426Y-91959274D01*
X78766572Y-91887946D01*
X78742773Y-91856247D01*
X78680676Y-91848119D01*
X78643108Y-91847870D01*
X78561590Y-91851243D01*
X78561590Y-91851243D01*
G37*
X78561590Y-91851243D02*
X78525364Y-91872067D01*
X78516074Y-91926401D01*
X78515790Y-91959274D01*
X78519644Y-92030601D01*
X78543443Y-92062300D01*
X78605539Y-92070428D01*
X78643108Y-92070677D01*
X78724625Y-92067304D01*
X78760852Y-92046480D01*
X78770141Y-91992146D01*
X78770426Y-91959274D01*
X78766572Y-91887946D01*
X78742773Y-91856247D01*
X78680676Y-91848119D01*
X78643108Y-91847870D01*
X78561590Y-91851243D01*
G36*
X79056892Y-92070677D02*
X79279699Y-92070677D01*
X79279699Y-91377289D01*
X79518421Y-91499517D01*
X79528982Y-91395276D01*
X79524012Y-91308056D01*
X79482407Y-91259622D01*
X79481494Y-91259115D01*
X79423566Y-91216963D01*
X79348143Y-91149688D01*
X79321880Y-91123747D01*
X79228445Y-91049805D01*
X79143023Y-91020402D01*
X79138604Y-91020301D01*
X79056892Y-91020301D01*
X79056892Y-92070677D01*
X79056892Y-92070677D01*
G37*
X79056892Y-92070677D02*
X79279699Y-92070677D01*
X79279699Y-91377289D01*
X79518421Y-91499517D01*
X79528982Y-91395276D01*
X79524012Y-91308056D01*
X79482407Y-91259622D01*
X79481494Y-91259115D01*
X79423566Y-91216963D01*
X79348143Y-91149688D01*
X79321880Y-91123747D01*
X79228445Y-91049805D01*
X79143023Y-91020402D01*
X79138604Y-91020301D01*
X79056892Y-91020301D01*
X79056892Y-92070677D01*
G36*
X80172355Y-91025624D02*
X80022862Y-91033211D01*
X79921995Y-91043846D01*
X79854725Y-91060884D01*
X79806018Y-91087680D01*
X79774486Y-91114448D01*
X79723386Y-91175520D01*
X79699289Y-91249094D01*
X79693484Y-91354512D01*
X79709846Y-91493712D01*
X79763626Y-91589928D01*
X79861862Y-91649773D01*
X80011595Y-91679861D01*
X80042568Y-91682484D01*
X80231632Y-91696160D01*
X80241066Y-91875461D01*
X80250501Y-92054762D01*
X80489223Y-92074520D01*
X80489223Y-91506074D01*
X80234587Y-91506074D01*
X80117430Y-91487062D01*
X80025554Y-91461289D01*
X79956150Y-91423474D01*
X79950864Y-91418641D01*
X79919226Y-91357281D01*
X79944123Y-91303057D01*
X80018435Y-91263921D01*
X80102553Y-91249235D01*
X80234587Y-91239448D01*
X80234587Y-91506074D01*
X80489223Y-91506074D01*
X80489223Y-91012897D01*
X80172355Y-91025624D01*
X80172355Y-91025624D01*
G37*
X80172355Y-91025624D02*
X80022862Y-91033211D01*
X79921995Y-91043846D01*
X79854725Y-91060884D01*
X79806018Y-91087680D01*
X79774486Y-91114448D01*
X79723386Y-91175520D01*
X79699289Y-91249094D01*
X79693484Y-91354512D01*
X79709846Y-91493712D01*
X79763626Y-91589928D01*
X79861862Y-91649773D01*
X80011595Y-91679861D01*
X80042568Y-91682484D01*
X80231632Y-91696160D01*
X80241066Y-91875461D01*
X80250501Y-92054762D01*
X80489223Y-92074520D01*
X80489223Y-91506074D01*
X80234587Y-91506074D01*
X80117430Y-91487062D01*
X80025554Y-91461289D01*
X79956150Y-91423474D01*
X79950864Y-91418641D01*
X79919226Y-91357281D01*
X79944123Y-91303057D01*
X80018435Y-91263921D01*
X80102553Y-91249235D01*
X80234587Y-91239448D01*
X80234587Y-91506074D01*
X80489223Y-91506074D01*
X80489223Y-91012897D01*
X80172355Y-91025624D01*
G36*
X90006266Y-91336580D02*
X90005402Y-91481990D01*
X90001290Y-91575235D01*
X89991645Y-91627803D01*
X89974186Y-91651180D01*
X89946628Y-91656856D01*
X89942607Y-91656893D01*
X89898731Y-91669354D01*
X89881028Y-91718004D01*
X89878947Y-91768296D01*
X89886068Y-91845078D01*
X89913868Y-91876058D01*
X89942607Y-91879700D01*
X89989203Y-91894706D01*
X90005609Y-91950539D01*
X90006266Y-91975188D01*
X90012476Y-92039344D01*
X90043976Y-92065657D01*
X90117669Y-92070677D01*
X90192517Y-92065354D01*
X90223216Y-92038354D01*
X90229073Y-91975188D01*
X90229073Y-91879700D01*
X90642857Y-91879700D01*
X90642857Y-91774739D01*
X90630525Y-91706056D01*
X90600212Y-91636532D01*
X90382389Y-91636532D01*
X90350530Y-91654550D01*
X90308647Y-91656893D01*
X90256270Y-91649446D01*
X90234151Y-91614886D01*
X90230217Y-91537532D01*
X90231362Y-91418171D01*
X90309633Y-91513660D01*
X90368735Y-91592708D01*
X90382389Y-91636532D01*
X90600212Y-91636532D01*
X90590468Y-91614184D01*
X90518092Y-91490109D01*
X90428008Y-91352997D01*
X90333974Y-91216801D01*
X90265112Y-91125271D01*
X90212539Y-91069287D01*
X90167372Y-91039733D01*
X90120729Y-91027487D01*
X90109712Y-91026242D01*
X90006266Y-91016268D01*
X90006266Y-91336580D01*
X90006266Y-91336580D01*
G37*
X90006266Y-91336580D02*
X90005402Y-91481990D01*
X90001290Y-91575235D01*
X89991645Y-91627803D01*
X89974186Y-91651180D01*
X89946628Y-91656856D01*
X89942607Y-91656893D01*
X89898731Y-91669354D01*
X89881028Y-91718004D01*
X89878947Y-91768296D01*
X89886068Y-91845078D01*
X89913868Y-91876058D01*
X89942607Y-91879700D01*
X89989203Y-91894706D01*
X90005609Y-91950539D01*
X90006266Y-91975188D01*
X90012476Y-92039344D01*
X90043976Y-92065657D01*
X90117669Y-92070677D01*
X90192517Y-92065354D01*
X90223216Y-92038354D01*
X90229073Y-91975188D01*
X90229073Y-91879700D01*
X90642857Y-91879700D01*
X90642857Y-91774739D01*
X90630525Y-91706056D01*
X90600212Y-91636532D01*
X90382389Y-91636532D01*
X90350530Y-91654550D01*
X90308647Y-91656893D01*
X90256270Y-91649446D01*
X90234151Y-91614886D01*
X90230217Y-91537532D01*
X90231362Y-91418171D01*
X90309633Y-91513660D01*
X90368735Y-91592708D01*
X90382389Y-91636532D01*
X90600212Y-91636532D01*
X90590468Y-91614184D01*
X90518092Y-91490109D01*
X90428008Y-91352997D01*
X90333974Y-91216801D01*
X90265112Y-91125271D01*
X90212539Y-91069287D01*
X90167372Y-91039733D01*
X90120729Y-91027487D01*
X90109712Y-91026242D01*
X90006266Y-91016268D01*
X90006266Y-91336580D01*
G36*
X90775083Y-91852797D02*
X90744462Y-91880597D01*
X90738360Y-91950794D01*
X90738346Y-91959274D01*
X90743273Y-92033940D01*
X90771073Y-92064561D01*
X90841270Y-92070663D01*
X90849749Y-92070677D01*
X90924416Y-92065750D01*
X90955037Y-92037950D01*
X90961139Y-91967753D01*
X90961153Y-91959274D01*
X90956226Y-91884607D01*
X90928426Y-91853986D01*
X90858229Y-91847884D01*
X90849749Y-91847870D01*
X90775083Y-91852797D01*
X90775083Y-91852797D01*
G37*
X90775083Y-91852797D02*
X90744462Y-91880597D01*
X90738360Y-91950794D01*
X90738346Y-91959274D01*
X90743273Y-92033940D01*
X90771073Y-92064561D01*
X90841270Y-92070663D01*
X90849749Y-92070677D01*
X90924416Y-92065750D01*
X90955037Y-92037950D01*
X90961139Y-91967753D01*
X90961153Y-91959274D01*
X90956226Y-91884607D01*
X90928426Y-91853986D01*
X90858229Y-91847884D01*
X90849749Y-91847870D01*
X90775083Y-91852797D01*
G36*
X92267464Y-91026960D02*
X92134189Y-91045097D01*
X92058048Y-91066506D01*
X91955862Y-91140318D01*
X91897102Y-91249746D01*
X91885803Y-91380401D01*
X91925995Y-91517893D01*
X91929568Y-91524958D01*
X92007085Y-91617202D01*
X92127261Y-91670944D01*
X92295813Y-91688716D01*
X92299493Y-91688722D01*
X92457143Y-91688722D01*
X92457143Y-92070677D01*
X92679950Y-92070677D01*
X92679950Y-91368682D01*
X92457143Y-91368682D01*
X92452840Y-91451514D01*
X92432838Y-91488610D01*
X92386493Y-91497695D01*
X92379641Y-91497745D01*
X92288833Y-91486018D01*
X92218380Y-91465900D01*
X92156920Y-91427905D01*
X92143035Y-91365467D01*
X92144692Y-91346539D01*
X92156854Y-91292997D01*
X92189152Y-91265342D01*
X92259491Y-91252777D01*
X92305952Y-91249322D01*
X92457143Y-91239620D01*
X92457143Y-91368682D01*
X92679950Y-91368682D01*
X92679950Y-91020301D01*
X92424291Y-91020301D01*
X92267464Y-91026960D01*
X92267464Y-91026960D01*
G37*
X92267464Y-91026960D02*
X92134189Y-91045097D01*
X92058048Y-91066506D01*
X91955862Y-91140318D01*
X91897102Y-91249746D01*
X91885803Y-91380401D01*
X91925995Y-91517893D01*
X91929568Y-91524958D01*
X92007085Y-91617202D01*
X92127261Y-91670944D01*
X92295813Y-91688716D01*
X92299493Y-91688722D01*
X92457143Y-91688722D01*
X92457143Y-92070677D01*
X92679950Y-92070677D01*
X92679950Y-91368682D01*
X92457143Y-91368682D01*
X92452840Y-91451514D01*
X92432838Y-91488610D01*
X92386493Y-91497695D01*
X92379641Y-91497745D01*
X92288833Y-91486018D01*
X92218380Y-91465900D01*
X92156920Y-91427905D01*
X92143035Y-91365467D01*
X92144692Y-91346539D01*
X92156854Y-91292997D01*
X92189152Y-91265342D01*
X92259491Y-91252777D01*
X92305952Y-91249322D01*
X92457143Y-91239620D01*
X92457143Y-91368682D01*
X92679950Y-91368682D01*
X92679950Y-91020301D01*
X92424291Y-91020301D01*
X92267464Y-91026960D01*
G36*
X91355587Y-91037702D02*
X91258399Y-91081320D01*
X91188107Y-91138277D01*
X91171902Y-91164960D01*
X91154440Y-91250985D01*
X91154998Y-91349009D01*
X91171976Y-91430080D01*
X91188056Y-91457279D01*
X91202295Y-91498312D01*
X91170969Y-91559852D01*
X91156226Y-91579341D01*
X91097704Y-91696723D01*
X91101475Y-91822642D01*
X91151262Y-91934547D01*
X91197616Y-91996615D01*
X91256506Y-92036915D01*
X91347662Y-92066184D01*
X91422682Y-92082256D01*
X91476011Y-92083232D01*
X91540899Y-92077594D01*
X91622353Y-92043157D01*
X91704016Y-91972839D01*
X91766046Y-91887779D01*
X91788722Y-91813598D01*
X91763576Y-91768028D01*
X91703926Y-91748037D01*
X91633448Y-91753378D01*
X91575821Y-91783801D01*
X91556692Y-91816040D01*
X91516901Y-91866713D01*
X91450197Y-91880260D01*
X91381201Y-91856927D01*
X91341966Y-91813906D01*
X91329812Y-91739562D01*
X91356691Y-91665547D01*
X91409368Y-91613126D01*
X91473129Y-91603163D01*
X91521541Y-91595606D01*
X91539836Y-91552274D01*
X91529854Y-91492446D01*
X91493433Y-91435404D01*
X91454511Y-91408048D01*
X91394934Y-91357796D01*
X91375643Y-91293634D01*
X91399852Y-91237947D01*
X91427639Y-91220887D01*
X91490248Y-91228725D01*
X91536188Y-91269630D01*
X91599664Y-91316554D01*
X91678512Y-91338039D01*
X91746705Y-91329711D01*
X91771333Y-91309152D01*
X91773697Y-91252184D01*
X91738855Y-91177181D01*
X91679630Y-91105475D01*
X91624958Y-91065658D01*
X91532510Y-91032016D01*
X91454511Y-91020301D01*
X91355587Y-91037702D01*
X91355587Y-91037702D01*
G37*
X91355587Y-91037702D02*
X91258399Y-91081320D01*
X91188107Y-91138277D01*
X91171902Y-91164960D01*
X91154440Y-91250985D01*
X91154998Y-91349009D01*
X91171976Y-91430080D01*
X91188056Y-91457279D01*
X91202295Y-91498312D01*
X91170969Y-91559852D01*
X91156226Y-91579341D01*
X91097704Y-91696723D01*
X91101475Y-91822642D01*
X91151262Y-91934547D01*
X91197616Y-91996615D01*
X91256506Y-92036915D01*
X91347662Y-92066184D01*
X91422682Y-92082256D01*
X91476011Y-92083232D01*
X91540899Y-92077594D01*
X91622353Y-92043157D01*
X91704016Y-91972839D01*
X91766046Y-91887779D01*
X91788722Y-91813598D01*
X91763576Y-91768028D01*
X91703926Y-91748037D01*
X91633448Y-91753378D01*
X91575821Y-91783801D01*
X91556692Y-91816040D01*
X91516901Y-91866713D01*
X91450197Y-91880260D01*
X91381201Y-91856927D01*
X91341966Y-91813906D01*
X91329812Y-91739562D01*
X91356691Y-91665547D01*
X91409368Y-91613126D01*
X91473129Y-91603163D01*
X91521541Y-91595606D01*
X91539836Y-91552274D01*
X91529854Y-91492446D01*
X91493433Y-91435404D01*
X91454511Y-91408048D01*
X91394934Y-91357796D01*
X91375643Y-91293634D01*
X91399852Y-91237947D01*
X91427639Y-91220887D01*
X91490248Y-91228725D01*
X91536188Y-91269630D01*
X91599664Y-91316554D01*
X91678512Y-91338039D01*
X91746705Y-91329711D01*
X91771333Y-91309152D01*
X91773697Y-91252184D01*
X91738855Y-91177181D01*
X91679630Y-91105475D01*
X91624958Y-91065658D01*
X91532510Y-91032016D01*
X91454511Y-91020301D01*
X91355587Y-91037702D01*
G36*
X77720050Y-93693985D02*
X77722646Y-93747230D01*
X77740535Y-93775740D01*
X77788870Y-93787242D01*
X77882803Y-93789464D01*
X77907315Y-93789474D01*
X78014908Y-93792506D01*
X78074978Y-93804928D01*
X78103513Y-93831730D01*
X78111228Y-93853133D01*
X78113425Y-93896082D01*
X78079154Y-93913849D01*
X78017359Y-93916792D01*
X77883560Y-93935776D01*
X77788844Y-93997933D01*
X77736294Y-94075303D01*
X77691814Y-94224878D01*
X77706412Y-94373843D01*
X77776979Y-94507984D01*
X77845908Y-94576244D01*
X77904681Y-94598636D01*
X78000629Y-94613135D01*
X78063665Y-94616031D01*
X78175752Y-94610362D01*
X78250419Y-94586392D01*
X78310344Y-94538916D01*
X78372727Y-94453647D01*
X78384277Y-94380350D01*
X78344679Y-94329706D01*
X78316855Y-94318809D01*
X78222874Y-94300805D01*
X78175984Y-94312740D01*
X78165664Y-94345372D01*
X78140404Y-94396177D01*
X78102735Y-94425675D01*
X78044717Y-94440547D01*
X77988714Y-94407749D01*
X77975416Y-94394965D01*
X77918904Y-94309872D01*
X77922313Y-94218667D01*
X77943977Y-94169336D01*
X78001125Y-94120796D01*
X78081172Y-94109603D01*
X78152849Y-94139667D01*
X78156152Y-94142819D01*
X78204427Y-94160950D01*
X78273425Y-94158812D01*
X78339162Y-94141359D01*
X78377649Y-94113546D01*
X78378992Y-94096790D01*
X78366835Y-94048972D01*
X78347866Y-93957358D01*
X78325987Y-93840901D01*
X78323904Y-93829261D01*
X78282787Y-93598497D01*
X77720050Y-93598497D01*
X77720050Y-93693985D01*
X77720050Y-93693985D01*
G37*
X77720050Y-93693985D02*
X77722646Y-93747230D01*
X77740535Y-93775740D01*
X77788870Y-93787242D01*
X77882803Y-93789464D01*
X77907315Y-93789474D01*
X78014908Y-93792506D01*
X78074978Y-93804928D01*
X78103513Y-93831730D01*
X78111228Y-93853133D01*
X78113425Y-93896082D01*
X78079154Y-93913849D01*
X78017359Y-93916792D01*
X77883560Y-93935776D01*
X77788844Y-93997933D01*
X77736294Y-94075303D01*
X77691814Y-94224878D01*
X77706412Y-94373843D01*
X77776979Y-94507984D01*
X77845908Y-94576244D01*
X77904681Y-94598636D01*
X78000629Y-94613135D01*
X78063665Y-94616031D01*
X78175752Y-94610362D01*
X78250419Y-94586392D01*
X78310344Y-94538916D01*
X78372727Y-94453647D01*
X78384277Y-94380350D01*
X78344679Y-94329706D01*
X78316855Y-94318809D01*
X78222874Y-94300805D01*
X78175984Y-94312740D01*
X78165664Y-94345372D01*
X78140404Y-94396177D01*
X78102735Y-94425675D01*
X78044717Y-94440547D01*
X77988714Y-94407749D01*
X77975416Y-94394965D01*
X77918904Y-94309872D01*
X77922313Y-94218667D01*
X77943977Y-94169336D01*
X78001125Y-94120796D01*
X78081172Y-94109603D01*
X78152849Y-94139667D01*
X78156152Y-94142819D01*
X78204427Y-94160950D01*
X78273425Y-94158812D01*
X78339162Y-94141359D01*
X78377649Y-94113546D01*
X78378992Y-94096790D01*
X78366835Y-94048972D01*
X78347866Y-93957358D01*
X78325987Y-93840901D01*
X78323904Y-93829261D01*
X78282787Y-93598497D01*
X77720050Y-93598497D01*
X77720050Y-93693985D01*
G36*
X78561590Y-94397609D02*
X78525364Y-94418433D01*
X78516074Y-94472767D01*
X78515790Y-94505639D01*
X78519644Y-94576967D01*
X78543443Y-94608666D01*
X78605539Y-94616794D01*
X78643108Y-94617043D01*
X78724625Y-94613670D01*
X78760852Y-94592846D01*
X78770141Y-94538512D01*
X78770426Y-94505639D01*
X78766572Y-94434312D01*
X78742773Y-94402613D01*
X78680676Y-94394485D01*
X78643108Y-94394236D01*
X78561590Y-94397609D01*
X78561590Y-94397609D01*
G37*
X78561590Y-94397609D02*
X78525364Y-94418433D01*
X78516074Y-94472767D01*
X78515790Y-94505639D01*
X78519644Y-94576967D01*
X78543443Y-94608666D01*
X78605539Y-94616794D01*
X78643108Y-94617043D01*
X78724625Y-94613670D01*
X78760852Y-94592846D01*
X78770141Y-94538512D01*
X78770426Y-94505639D01*
X78766572Y-94434312D01*
X78742773Y-94402613D01*
X78680676Y-94394485D01*
X78643108Y-94394236D01*
X78561590Y-94397609D01*
G36*
X79056892Y-94617043D02*
X79279699Y-94617043D01*
X79279699Y-93923655D01*
X79518421Y-94045883D01*
X79528982Y-93941642D01*
X79524012Y-93854422D01*
X79482407Y-93805988D01*
X79481494Y-93805481D01*
X79423566Y-93763329D01*
X79348143Y-93696054D01*
X79321880Y-93670113D01*
X79228445Y-93596171D01*
X79143023Y-93566768D01*
X79138604Y-93566667D01*
X79056892Y-93566667D01*
X79056892Y-94617043D01*
X79056892Y-94617043D01*
G37*
X79056892Y-94617043D02*
X79279699Y-94617043D01*
X79279699Y-93923655D01*
X79518421Y-94045883D01*
X79528982Y-93941642D01*
X79524012Y-93854422D01*
X79482407Y-93805988D01*
X79481494Y-93805481D01*
X79423566Y-93763329D01*
X79348143Y-93696054D01*
X79321880Y-93670113D01*
X79228445Y-93596171D01*
X79143023Y-93566768D01*
X79138604Y-93566667D01*
X79056892Y-93566667D01*
X79056892Y-94617043D01*
G36*
X80173420Y-93571642D02*
X80024702Y-93578309D01*
X79924524Y-93588207D01*
X79857768Y-93604686D01*
X79809316Y-93631091D01*
X79775551Y-93659747D01*
X79723878Y-93721103D01*
X79699471Y-93794142D01*
X79693484Y-93900878D01*
X79709846Y-94040078D01*
X79763626Y-94136294D01*
X79861862Y-94196139D01*
X80011595Y-94226227D01*
X80042568Y-94228850D01*
X80231632Y-94242526D01*
X80241066Y-94421827D01*
X80250501Y-94601128D01*
X80489223Y-94620886D01*
X80489223Y-94052440D01*
X80234587Y-94052440D01*
X80117430Y-94033428D01*
X80025554Y-94007655D01*
X79956150Y-93969840D01*
X79950864Y-93965007D01*
X79919226Y-93903647D01*
X79944123Y-93849423D01*
X80018435Y-93810287D01*
X80102553Y-93795601D01*
X80234587Y-93785814D01*
X80234587Y-94052440D01*
X80489223Y-94052440D01*
X80489223Y-93560702D01*
X80173420Y-93571642D01*
X80173420Y-93571642D01*
G37*
X80173420Y-93571642D02*
X80024702Y-93578309D01*
X79924524Y-93588207D01*
X79857768Y-93604686D01*
X79809316Y-93631091D01*
X79775551Y-93659747D01*
X79723878Y-93721103D01*
X79699471Y-93794142D01*
X79693484Y-93900878D01*
X79709846Y-94040078D01*
X79763626Y-94136294D01*
X79861862Y-94196139D01*
X80011595Y-94226227D01*
X80042568Y-94228850D01*
X80231632Y-94242526D01*
X80241066Y-94421827D01*
X80250501Y-94601128D01*
X80489223Y-94620886D01*
X80489223Y-94052440D01*
X80234587Y-94052440D01*
X80117430Y-94033428D01*
X80025554Y-94007655D01*
X79956150Y-93969840D01*
X79950864Y-93965007D01*
X79919226Y-93903647D01*
X79944123Y-93849423D01*
X80018435Y-93810287D01*
X80102553Y-93795601D01*
X80234587Y-93785814D01*
X80234587Y-94052440D01*
X80489223Y-94052440D01*
X80489223Y-93560702D01*
X80173420Y-93571642D01*
G36*
X90253661Y-93598287D02*
X90212552Y-93598497D01*
X89942607Y-93598497D01*
X89942607Y-93692397D01*
X89945841Y-93745402D01*
X89965752Y-93774459D01*
X90017650Y-93788235D01*
X90116845Y-93795399D01*
X90125317Y-93795843D01*
X90234312Y-93805783D01*
X90293717Y-93824275D01*
X90317483Y-93856030D01*
X90318629Y-93861091D01*
X90313848Y-93897853D01*
X90271101Y-93913979D01*
X90205532Y-93916792D01*
X90083061Y-93944192D01*
X89988103Y-94017233D01*
X89925222Y-94122179D01*
X89898980Y-94245292D01*
X89913942Y-94372835D01*
X89974671Y-94491072D01*
X90003817Y-94524003D01*
X90074499Y-94582985D01*
X90149413Y-94610385D01*
X90256679Y-94617043D01*
X90376182Y-94607395D01*
X90459721Y-94573358D01*
X90495277Y-94545426D01*
X90556999Y-94474225D01*
X90593795Y-94404998D01*
X90597361Y-94354908D01*
X90560382Y-94326902D01*
X90512094Y-94313905D01*
X90431634Y-94306592D01*
X90387657Y-94333752D01*
X90382158Y-94342540D01*
X90319686Y-94412736D01*
X90246909Y-94435803D01*
X90183539Y-94407814D01*
X90144128Y-94333302D01*
X90135865Y-94240129D01*
X90160187Y-94160326D01*
X90171779Y-94145965D01*
X90232628Y-94115273D01*
X90307738Y-94109909D01*
X90365006Y-94130894D01*
X90372306Y-94139599D01*
X90422033Y-94167677D01*
X90496343Y-94163301D01*
X90542530Y-94143264D01*
X90565020Y-94115703D01*
X90569575Y-94062714D01*
X90556682Y-93968721D01*
X90549234Y-93928901D01*
X90521804Y-93782400D01*
X90500133Y-93686680D01*
X90473353Y-93631076D01*
X90430594Y-93604920D01*
X90360986Y-93597546D01*
X90253661Y-93598287D01*
X90253661Y-93598287D01*
G37*
X90253661Y-93598287D02*
X90212552Y-93598497D01*
X89942607Y-93598497D01*
X89942607Y-93692397D01*
X89945841Y-93745402D01*
X89965752Y-93774459D01*
X90017650Y-93788235D01*
X90116845Y-93795399D01*
X90125317Y-93795843D01*
X90234312Y-93805783D01*
X90293717Y-93824275D01*
X90317483Y-93856030D01*
X90318629Y-93861091D01*
X90313848Y-93897853D01*
X90271101Y-93913979D01*
X90205532Y-93916792D01*
X90083061Y-93944192D01*
X89988103Y-94017233D01*
X89925222Y-94122179D01*
X89898980Y-94245292D01*
X89913942Y-94372835D01*
X89974671Y-94491072D01*
X90003817Y-94524003D01*
X90074499Y-94582985D01*
X90149413Y-94610385D01*
X90256679Y-94617043D01*
X90376182Y-94607395D01*
X90459721Y-94573358D01*
X90495277Y-94545426D01*
X90556999Y-94474225D01*
X90593795Y-94404998D01*
X90597361Y-94354908D01*
X90560382Y-94326902D01*
X90512094Y-94313905D01*
X90431634Y-94306592D01*
X90387657Y-94333752D01*
X90382158Y-94342540D01*
X90319686Y-94412736D01*
X90246909Y-94435803D01*
X90183539Y-94407814D01*
X90144128Y-94333302D01*
X90135865Y-94240129D01*
X90160187Y-94160326D01*
X90171779Y-94145965D01*
X90232628Y-94115273D01*
X90307738Y-94109909D01*
X90365006Y-94130894D01*
X90372306Y-94139599D01*
X90422033Y-94167677D01*
X90496343Y-94163301D01*
X90542530Y-94143264D01*
X90565020Y-94115703D01*
X90569575Y-94062714D01*
X90556682Y-93968721D01*
X90549234Y-93928901D01*
X90521804Y-93782400D01*
X90500133Y-93686680D01*
X90473353Y-93631076D01*
X90430594Y-93604920D01*
X90360986Y-93597546D01*
X90253661Y-93598287D01*
G36*
X90775083Y-94399163D02*
X90744462Y-94426963D01*
X90738360Y-94497160D01*
X90738346Y-94505639D01*
X90743273Y-94580306D01*
X90771073Y-94610927D01*
X90841270Y-94617029D01*
X90849749Y-94617043D01*
X90924416Y-94612116D01*
X90955037Y-94584316D01*
X90961139Y-94514119D01*
X90961153Y-94505639D01*
X90956226Y-94430973D01*
X90928426Y-94400352D01*
X90858229Y-94394250D01*
X90849749Y-94394236D01*
X90775083Y-94399163D01*
X90775083Y-94399163D01*
G37*
X90775083Y-94399163D02*
X90744462Y-94426963D01*
X90738360Y-94497160D01*
X90738346Y-94505639D01*
X90743273Y-94580306D01*
X90771073Y-94610927D01*
X90841270Y-94617029D01*
X90849749Y-94617043D01*
X90924416Y-94612116D01*
X90955037Y-94584316D01*
X90961139Y-94514119D01*
X90961153Y-94505639D01*
X90956226Y-94430973D01*
X90928426Y-94400352D01*
X90858229Y-94394250D01*
X90849749Y-94394236D01*
X90775083Y-94399163D01*
G36*
X91355587Y-93584068D02*
X91258399Y-93627686D01*
X91188107Y-93684643D01*
X91171902Y-93711326D01*
X91154440Y-93797351D01*
X91154998Y-93895375D01*
X91171976Y-93976446D01*
X91188056Y-94003645D01*
X91202295Y-94044678D01*
X91170969Y-94106218D01*
X91156226Y-94125707D01*
X91097635Y-94240936D01*
X91099921Y-94364739D01*
X91136545Y-94458532D01*
X91198137Y-94545648D01*
X91281617Y-94595358D01*
X91403259Y-94615505D01*
X91465504Y-94617043D01*
X91568500Y-94611406D01*
X91635703Y-94587064D01*
X91694531Y-94532866D01*
X91706318Y-94519112D01*
X91774410Y-94419422D01*
X91787886Y-94348455D01*
X91746950Y-94307996D01*
X91681031Y-94298747D01*
X91599324Y-94309821D01*
X91561056Y-94348931D01*
X91556692Y-94362406D01*
X91516901Y-94413079D01*
X91450197Y-94426626D01*
X91381201Y-94403293D01*
X91341966Y-94360272D01*
X91329812Y-94285928D01*
X91356691Y-94211913D01*
X91409368Y-94159492D01*
X91473129Y-94149529D01*
X91521541Y-94141972D01*
X91539836Y-94098640D01*
X91529854Y-94038812D01*
X91493433Y-93981770D01*
X91454511Y-93954413D01*
X91394934Y-93904162D01*
X91375643Y-93840000D01*
X91399852Y-93784312D01*
X91427639Y-93767252D01*
X91490248Y-93775091D01*
X91536188Y-93815996D01*
X91599664Y-93862920D01*
X91678512Y-93884405D01*
X91746705Y-93876077D01*
X91771333Y-93855518D01*
X91773697Y-93798550D01*
X91738855Y-93723547D01*
X91679630Y-93651841D01*
X91624958Y-93612024D01*
X91532510Y-93578382D01*
X91454511Y-93566667D01*
X91355587Y-93584068D01*
X91355587Y-93584068D01*
G37*
X91355587Y-93584068D02*
X91258399Y-93627686D01*
X91188107Y-93684643D01*
X91171902Y-93711326D01*
X91154440Y-93797351D01*
X91154998Y-93895375D01*
X91171976Y-93976446D01*
X91188056Y-94003645D01*
X91202295Y-94044678D01*
X91170969Y-94106218D01*
X91156226Y-94125707D01*
X91097635Y-94240936D01*
X91099921Y-94364739D01*
X91136545Y-94458532D01*
X91198137Y-94545648D01*
X91281617Y-94595358D01*
X91403259Y-94615505D01*
X91465504Y-94617043D01*
X91568500Y-94611406D01*
X91635703Y-94587064D01*
X91694531Y-94532866D01*
X91706318Y-94519112D01*
X91774410Y-94419422D01*
X91787886Y-94348455D01*
X91746950Y-94307996D01*
X91681031Y-94298747D01*
X91599324Y-94309821D01*
X91561056Y-94348931D01*
X91556692Y-94362406D01*
X91516901Y-94413079D01*
X91450197Y-94426626D01*
X91381201Y-94403293D01*
X91341966Y-94360272D01*
X91329812Y-94285928D01*
X91356691Y-94211913D01*
X91409368Y-94159492D01*
X91473129Y-94149529D01*
X91521541Y-94141972D01*
X91539836Y-94098640D01*
X91529854Y-94038812D01*
X91493433Y-93981770D01*
X91454511Y-93954413D01*
X91394934Y-93904162D01*
X91375643Y-93840000D01*
X91399852Y-93784312D01*
X91427639Y-93767252D01*
X91490248Y-93775091D01*
X91536188Y-93815996D01*
X91599664Y-93862920D01*
X91678512Y-93884405D01*
X91746705Y-93876077D01*
X91771333Y-93855518D01*
X91773697Y-93798550D01*
X91738855Y-93723547D01*
X91679630Y-93651841D01*
X91624958Y-93612024D01*
X91532510Y-93578382D01*
X91454511Y-93566667D01*
X91355587Y-93584068D01*
G36*
X92267464Y-93573326D02*
X92134189Y-93591463D01*
X92058048Y-93612872D01*
X91955862Y-93686684D01*
X91897102Y-93796112D01*
X91885803Y-93926766D01*
X91925995Y-94064259D01*
X91929568Y-94071324D01*
X92007085Y-94163567D01*
X92127261Y-94217310D01*
X92295813Y-94235082D01*
X92299493Y-94235088D01*
X92457143Y-94235088D01*
X92457143Y-94617043D01*
X92679950Y-94617043D01*
X92679950Y-94052247D01*
X92457143Y-94052247D01*
X92321867Y-94030635D01*
X92232141Y-94011457D01*
X92170275Y-93989446D01*
X92160025Y-93982493D01*
X92143269Y-93933139D01*
X92144110Y-93880676D01*
X92159111Y-93833917D01*
X92198619Y-93809271D01*
X92280237Y-93797493D01*
X92305952Y-93795687D01*
X92457143Y-93785986D01*
X92457143Y-94052247D01*
X92679950Y-94052247D01*
X92679950Y-93566667D01*
X92424291Y-93566667D01*
X92267464Y-93573326D01*
X92267464Y-93573326D01*
G37*
X92267464Y-93573326D02*
X92134189Y-93591463D01*
X92058048Y-93612872D01*
X91955862Y-93686684D01*
X91897102Y-93796112D01*
X91885803Y-93926766D01*
X91925995Y-94064259D01*
X91929568Y-94071324D01*
X92007085Y-94163567D01*
X92127261Y-94217310D01*
X92295813Y-94235082D01*
X92299493Y-94235088D01*
X92457143Y-94235088D01*
X92457143Y-94617043D01*
X92679950Y-94617043D01*
X92679950Y-94052247D01*
X92457143Y-94052247D01*
X92321867Y-94030635D01*
X92232141Y-94011457D01*
X92170275Y-93989446D01*
X92160025Y-93982493D01*
X92143269Y-93933139D01*
X92144110Y-93880676D01*
X92159111Y-93833917D01*
X92198619Y-93809271D01*
X92280237Y-93797493D01*
X92305952Y-93795687D01*
X92457143Y-93785986D01*
X92457143Y-94052247D01*
X92679950Y-94052247D01*
X92679950Y-93566667D01*
X92424291Y-93566667D01*
X92267464Y-93573326D01*
G36*
X77927477Y-96130117D02*
X77813090Y-96206073D01*
X77745226Y-96289753D01*
X77722511Y-96355050D01*
X77746389Y-96393225D01*
X77781106Y-96399499D01*
X77858188Y-96408614D01*
X77888326Y-96417214D01*
X77933047Y-96407103D01*
X77951609Y-96369470D01*
X77987919Y-96314333D01*
X78044487Y-96312130D01*
X78106916Y-96362401D01*
X78116115Y-96374752D01*
X78160003Y-96453261D01*
X78163449Y-96499490D01*
X78127570Y-96505674D01*
X78099040Y-96493401D01*
X77997477Y-96471693D01*
X77890361Y-96499991D01*
X77793798Y-96568438D01*
X77723892Y-96667179D01*
X77701470Y-96736726D01*
X77699923Y-96861124D01*
X77733064Y-96986104D01*
X77792530Y-97086022D01*
X77825057Y-97115566D01*
X77908358Y-97147150D01*
X78023742Y-97160778D01*
X78141979Y-97155618D01*
X78233840Y-97130841D01*
X78240263Y-97127361D01*
X78310930Y-97051454D01*
X78360163Y-96922620D01*
X78374334Y-96825380D01*
X78151070Y-96825380D01*
X78135678Y-96888009D01*
X78085244Y-96953458D01*
X78016379Y-96966498D01*
X77948732Y-96925738D01*
X77931415Y-96902495D01*
X77913646Y-96824897D01*
X77935934Y-96741373D01*
X77987640Y-96677919D01*
X78030721Y-96659920D01*
X78099924Y-96676099D01*
X78142544Y-96736693D01*
X78151070Y-96825380D01*
X78374334Y-96825380D01*
X78385509Y-96748699D01*
X78388471Y-96654136D01*
X78374330Y-96451510D01*
X78330733Y-96301579D01*
X78255921Y-96199716D01*
X78201582Y-96162891D01*
X78057305Y-96115598D01*
X77927477Y-96130117D01*
X77927477Y-96130117D01*
G37*
X77927477Y-96130117D02*
X77813090Y-96206073D01*
X77745226Y-96289753D01*
X77722511Y-96355050D01*
X77746389Y-96393225D01*
X77781106Y-96399499D01*
X77858188Y-96408614D01*
X77888326Y-96417214D01*
X77933047Y-96407103D01*
X77951609Y-96369470D01*
X77987919Y-96314333D01*
X78044487Y-96312130D01*
X78106916Y-96362401D01*
X78116115Y-96374752D01*
X78160003Y-96453261D01*
X78163449Y-96499490D01*
X78127570Y-96505674D01*
X78099040Y-96493401D01*
X77997477Y-96471693D01*
X77890361Y-96499991D01*
X77793798Y-96568438D01*
X77723892Y-96667179D01*
X77701470Y-96736726D01*
X77699923Y-96861124D01*
X77733064Y-96986104D01*
X77792530Y-97086022D01*
X77825057Y-97115566D01*
X77908358Y-97147150D01*
X78023742Y-97160778D01*
X78141979Y-97155618D01*
X78233840Y-97130841D01*
X78240263Y-97127361D01*
X78310930Y-97051454D01*
X78360163Y-96922620D01*
X78374334Y-96825380D01*
X78151070Y-96825380D01*
X78135678Y-96888009D01*
X78085244Y-96953458D01*
X78016379Y-96966498D01*
X77948732Y-96925738D01*
X77931415Y-96902495D01*
X77913646Y-96824897D01*
X77935934Y-96741373D01*
X77987640Y-96677919D01*
X78030721Y-96659920D01*
X78099924Y-96676099D01*
X78142544Y-96736693D01*
X78151070Y-96825380D01*
X78374334Y-96825380D01*
X78385509Y-96748699D01*
X78388471Y-96654136D01*
X78374330Y-96451510D01*
X78330733Y-96301579D01*
X78255921Y-96199716D01*
X78201582Y-96162891D01*
X78057305Y-96115598D01*
X77927477Y-96130117D01*
G36*
X78561590Y-96943974D02*
X78525364Y-96964798D01*
X78516074Y-97019133D01*
X78515790Y-97052005D01*
X78519644Y-97123333D01*
X78543443Y-97155032D01*
X78605539Y-97163160D01*
X78643108Y-97163409D01*
X78724625Y-97160036D01*
X78760852Y-97139212D01*
X78770141Y-97084878D01*
X78770426Y-97052005D01*
X78766572Y-96980678D01*
X78742773Y-96948979D01*
X78680676Y-96940851D01*
X78643108Y-96940602D01*
X78561590Y-96943974D01*
X78561590Y-96943974D01*
G37*
X78561590Y-96943974D02*
X78525364Y-96964798D01*
X78516074Y-97019133D01*
X78515790Y-97052005D01*
X78519644Y-97123333D01*
X78543443Y-97155032D01*
X78605539Y-97163160D01*
X78643108Y-97163409D01*
X78724625Y-97160036D01*
X78760852Y-97139212D01*
X78770141Y-97084878D01*
X78770426Y-97052005D01*
X78766572Y-96980678D01*
X78742773Y-96948979D01*
X78680676Y-96940851D01*
X78643108Y-96940602D01*
X78561590Y-96943974D01*
G36*
X79056892Y-97163409D02*
X79279699Y-97163409D01*
X79279699Y-96470021D01*
X79518421Y-96592249D01*
X79528982Y-96488008D01*
X79524012Y-96400788D01*
X79482407Y-96352354D01*
X79481494Y-96351846D01*
X79423566Y-96309695D01*
X79348143Y-96242420D01*
X79321880Y-96216479D01*
X79228445Y-96142537D01*
X79143023Y-96113134D01*
X79138604Y-96113033D01*
X79056892Y-96113033D01*
X79056892Y-97163409D01*
X79056892Y-97163409D01*
G37*
X79056892Y-97163409D02*
X79279699Y-97163409D01*
X79279699Y-96470021D01*
X79518421Y-96592249D01*
X79528982Y-96488008D01*
X79524012Y-96400788D01*
X79482407Y-96352354D01*
X79481494Y-96351846D01*
X79423566Y-96309695D01*
X79348143Y-96242420D01*
X79321880Y-96216479D01*
X79228445Y-96142537D01*
X79143023Y-96113134D01*
X79138604Y-96113033D01*
X79056892Y-96113033D01*
X79056892Y-97163409D01*
G36*
X80173420Y-96118008D02*
X80024702Y-96124675D01*
X79924524Y-96134573D01*
X79857768Y-96151051D01*
X79809316Y-96177457D01*
X79775551Y-96206113D01*
X79723878Y-96267469D01*
X79699471Y-96340508D01*
X79693484Y-96447243D01*
X79709846Y-96586444D01*
X79763626Y-96682660D01*
X79861862Y-96742505D01*
X80011595Y-96772593D01*
X80042568Y-96775216D01*
X80231632Y-96788892D01*
X80241066Y-96968193D01*
X80250501Y-97147494D01*
X80489223Y-97167252D01*
X80489223Y-96598806D01*
X80234587Y-96598806D01*
X80117430Y-96579794D01*
X80025554Y-96554021D01*
X79956150Y-96516206D01*
X79950864Y-96511373D01*
X79919226Y-96450013D01*
X79944123Y-96395789D01*
X80018435Y-96356653D01*
X80102553Y-96341967D01*
X80234587Y-96332180D01*
X80234587Y-96598806D01*
X80489223Y-96598806D01*
X80489223Y-96107068D01*
X80173420Y-96118008D01*
X80173420Y-96118008D01*
G37*
X80173420Y-96118008D02*
X80024702Y-96124675D01*
X79924524Y-96134573D01*
X79857768Y-96151051D01*
X79809316Y-96177457D01*
X79775551Y-96206113D01*
X79723878Y-96267469D01*
X79699471Y-96340508D01*
X79693484Y-96447243D01*
X79709846Y-96586444D01*
X79763626Y-96682660D01*
X79861862Y-96742505D01*
X80011595Y-96772593D01*
X80042568Y-96775216D01*
X80231632Y-96788892D01*
X80241066Y-96968193D01*
X80250501Y-97147494D01*
X80489223Y-97167252D01*
X80489223Y-96598806D01*
X80234587Y-96598806D01*
X80117430Y-96579794D01*
X80025554Y-96554021D01*
X79956150Y-96516206D01*
X79950864Y-96511373D01*
X79919226Y-96450013D01*
X79944123Y-96395789D01*
X80018435Y-96356653D01*
X80102553Y-96341967D01*
X80234587Y-96332180D01*
X80234587Y-96598806D01*
X80489223Y-96598806D01*
X80489223Y-96107068D01*
X80173420Y-96118008D01*
G36*
X90081719Y-96141593D02*
X90030577Y-96181166D01*
X89967639Y-96252400D01*
X89929055Y-96321666D01*
X89928262Y-96324283D01*
X89923928Y-96371405D01*
X89957108Y-96394790D01*
X90017762Y-96405024D01*
X90107387Y-96402847D01*
X90159091Y-96365723D01*
X90162267Y-96360879D01*
X90220341Y-96310086D01*
X90282767Y-96318653D01*
X90323442Y-96365577D01*
X90355034Y-96444382D01*
X90340115Y-96481777D01*
X90276302Y-96482235D01*
X90262769Y-96479483D01*
X90141919Y-96480285D01*
X90040269Y-96530856D01*
X89963546Y-96618752D01*
X89917475Y-96731524D01*
X89907783Y-96856726D01*
X89940195Y-96981911D01*
X89993180Y-97065478D01*
X90055394Y-97127555D01*
X90121835Y-97156202D01*
X90221183Y-97163397D01*
X90227610Y-97163409D01*
X90369366Y-97145860D01*
X90462406Y-97098302D01*
X90542537Y-96996955D01*
X90592945Y-96846715D01*
X90593286Y-96843049D01*
X90353847Y-96843049D01*
X90327770Y-96922457D01*
X90316976Y-96935456D01*
X90254632Y-96964322D01*
X90213530Y-96965694D01*
X90170514Y-96946590D01*
X90152200Y-96894143D01*
X90149499Y-96832667D01*
X90165145Y-96730288D01*
X90206416Y-96670274D01*
X90264811Y-96660715D01*
X90305979Y-96683751D01*
X90346095Y-96752317D01*
X90353847Y-96843049D01*
X90593286Y-96843049D01*
X90610670Y-96656449D01*
X90610673Y-96654136D01*
X90591226Y-96448055D01*
X90532718Y-96292061D01*
X90434896Y-96185778D01*
X90297510Y-96128834D01*
X90252794Y-96121778D01*
X90152223Y-96118265D01*
X90081719Y-96141593D01*
X90081719Y-96141593D01*
G37*
X90081719Y-96141593D02*
X90030577Y-96181166D01*
X89967639Y-96252400D01*
X89929055Y-96321666D01*
X89928262Y-96324283D01*
X89923928Y-96371405D01*
X89957108Y-96394790D01*
X90017762Y-96405024D01*
X90107387Y-96402847D01*
X90159091Y-96365723D01*
X90162267Y-96360879D01*
X90220341Y-96310086D01*
X90282767Y-96318653D01*
X90323442Y-96365577D01*
X90355034Y-96444382D01*
X90340115Y-96481777D01*
X90276302Y-96482235D01*
X90262769Y-96479483D01*
X90141919Y-96480285D01*
X90040269Y-96530856D01*
X89963546Y-96618752D01*
X89917475Y-96731524D01*
X89907783Y-96856726D01*
X89940195Y-96981911D01*
X89993180Y-97065478D01*
X90055394Y-97127555D01*
X90121835Y-97156202D01*
X90221183Y-97163397D01*
X90227610Y-97163409D01*
X90369366Y-97145860D01*
X90462406Y-97098302D01*
X90542537Y-96996955D01*
X90592945Y-96846715D01*
X90593286Y-96843049D01*
X90353847Y-96843049D01*
X90327770Y-96922457D01*
X90316976Y-96935456D01*
X90254632Y-96964322D01*
X90213530Y-96965694D01*
X90170514Y-96946590D01*
X90152200Y-96894143D01*
X90149499Y-96832667D01*
X90165145Y-96730288D01*
X90206416Y-96670274D01*
X90264811Y-96660715D01*
X90305979Y-96683751D01*
X90346095Y-96752317D01*
X90353847Y-96843049D01*
X90593286Y-96843049D01*
X90610670Y-96656449D01*
X90610673Y-96654136D01*
X90591226Y-96448055D01*
X90532718Y-96292061D01*
X90434896Y-96185778D01*
X90297510Y-96128834D01*
X90252794Y-96121778D01*
X90152223Y-96118265D01*
X90081719Y-96141593D01*
G36*
X90775083Y-96945529D02*
X90744462Y-96973328D01*
X90738360Y-97043526D01*
X90738346Y-97052005D01*
X90743273Y-97126672D01*
X90771073Y-97157293D01*
X90841270Y-97163395D01*
X90849749Y-97163409D01*
X90924416Y-97158482D01*
X90955037Y-97130682D01*
X90961139Y-97060485D01*
X90961153Y-97052005D01*
X90956226Y-96977339D01*
X90928426Y-96946718D01*
X90858229Y-96940616D01*
X90849749Y-96940602D01*
X90775083Y-96945529D01*
X90775083Y-96945529D01*
G37*
X90775083Y-96945529D02*
X90744462Y-96973328D01*
X90738360Y-97043526D01*
X90738346Y-97052005D01*
X90743273Y-97126672D01*
X90771073Y-97157293D01*
X90841270Y-97163395D01*
X90849749Y-97163409D01*
X90924416Y-97158482D01*
X90955037Y-97130682D01*
X90961139Y-97060485D01*
X90961153Y-97052005D01*
X90956226Y-96977339D01*
X90928426Y-96946718D01*
X90858229Y-96940616D01*
X90849749Y-96940602D01*
X90775083Y-96945529D01*
G36*
X91355587Y-96130434D02*
X91258399Y-96174052D01*
X91188107Y-96231009D01*
X91171902Y-96257692D01*
X91154440Y-96343717D01*
X91154998Y-96441741D01*
X91171976Y-96522812D01*
X91188056Y-96550011D01*
X91202295Y-96591044D01*
X91170969Y-96652584D01*
X91156226Y-96672073D01*
X91097635Y-96787302D01*
X91099921Y-96911105D01*
X91136545Y-97004898D01*
X91198137Y-97092014D01*
X91281617Y-97141724D01*
X91403259Y-97161871D01*
X91465504Y-97163409D01*
X91568500Y-97157772D01*
X91635703Y-97133430D01*
X91694531Y-97079232D01*
X91706318Y-97065478D01*
X91774539Y-96965691D01*
X91787926Y-96894834D01*
X91746667Y-96854458D01*
X91679463Y-96845113D01*
X91595344Y-96856717D01*
X91554328Y-96897166D01*
X91550000Y-96908772D01*
X91506837Y-96959971D01*
X91439188Y-96971343D01*
X91372022Y-96943143D01*
X91341966Y-96906638D01*
X91329812Y-96832294D01*
X91356691Y-96758279D01*
X91409368Y-96705858D01*
X91473129Y-96695895D01*
X91521541Y-96688338D01*
X91539836Y-96645006D01*
X91529854Y-96585178D01*
X91493433Y-96528136D01*
X91454511Y-96500779D01*
X91394934Y-96450528D01*
X91375643Y-96386366D01*
X91399852Y-96330678D01*
X91427639Y-96313618D01*
X91490248Y-96321457D01*
X91536188Y-96362362D01*
X91599664Y-96409286D01*
X91678512Y-96430771D01*
X91746705Y-96422443D01*
X91771333Y-96401884D01*
X91773697Y-96344916D01*
X91738855Y-96269913D01*
X91679630Y-96198207D01*
X91624958Y-96158390D01*
X91532510Y-96124748D01*
X91454511Y-96113033D01*
X91355587Y-96130434D01*
X91355587Y-96130434D01*
G37*
X91355587Y-96130434D02*
X91258399Y-96174052D01*
X91188107Y-96231009D01*
X91171902Y-96257692D01*
X91154440Y-96343717D01*
X91154998Y-96441741D01*
X91171976Y-96522812D01*
X91188056Y-96550011D01*
X91202295Y-96591044D01*
X91170969Y-96652584D01*
X91156226Y-96672073D01*
X91097635Y-96787302D01*
X91099921Y-96911105D01*
X91136545Y-97004898D01*
X91198137Y-97092014D01*
X91281617Y-97141724D01*
X91403259Y-97161871D01*
X91465504Y-97163409D01*
X91568500Y-97157772D01*
X91635703Y-97133430D01*
X91694531Y-97079232D01*
X91706318Y-97065478D01*
X91774539Y-96965691D01*
X91787926Y-96894834D01*
X91746667Y-96854458D01*
X91679463Y-96845113D01*
X91595344Y-96856717D01*
X91554328Y-96897166D01*
X91550000Y-96908772D01*
X91506837Y-96959971D01*
X91439188Y-96971343D01*
X91372022Y-96943143D01*
X91341966Y-96906638D01*
X91329812Y-96832294D01*
X91356691Y-96758279D01*
X91409368Y-96705858D01*
X91473129Y-96695895D01*
X91521541Y-96688338D01*
X91539836Y-96645006D01*
X91529854Y-96585178D01*
X91493433Y-96528136D01*
X91454511Y-96500779D01*
X91394934Y-96450528D01*
X91375643Y-96386366D01*
X91399852Y-96330678D01*
X91427639Y-96313618D01*
X91490248Y-96321457D01*
X91536188Y-96362362D01*
X91599664Y-96409286D01*
X91678512Y-96430771D01*
X91746705Y-96422443D01*
X91771333Y-96401884D01*
X91773697Y-96344916D01*
X91738855Y-96269913D01*
X91679630Y-96198207D01*
X91624958Y-96158390D01*
X91532510Y-96124748D01*
X91454511Y-96113033D01*
X91355587Y-96130434D01*
G36*
X92267464Y-96119692D02*
X92134189Y-96137829D01*
X92058048Y-96159238D01*
X91955862Y-96233049D01*
X91897102Y-96342477D01*
X91885803Y-96473132D01*
X91925995Y-96610625D01*
X91929568Y-96617690D01*
X92007085Y-96709933D01*
X92127261Y-96763676D01*
X92295813Y-96781448D01*
X92299493Y-96781454D01*
X92457143Y-96781454D01*
X92457143Y-97163409D01*
X92679950Y-97163409D01*
X92679950Y-96598613D01*
X92457143Y-96598613D01*
X92321867Y-96577001D01*
X92232141Y-96557823D01*
X92170275Y-96535812D01*
X92160025Y-96528859D01*
X92143269Y-96479505D01*
X92144110Y-96427042D01*
X92159111Y-96380283D01*
X92198619Y-96355637D01*
X92280237Y-96343859D01*
X92305952Y-96342053D01*
X92457143Y-96332352D01*
X92457143Y-96598613D01*
X92679950Y-96598613D01*
X92679950Y-96113033D01*
X92424291Y-96113033D01*
X92267464Y-96119692D01*
X92267464Y-96119692D01*
G37*
X92267464Y-96119692D02*
X92134189Y-96137829D01*
X92058048Y-96159238D01*
X91955862Y-96233049D01*
X91897102Y-96342477D01*
X91885803Y-96473132D01*
X91925995Y-96610625D01*
X91929568Y-96617690D01*
X92007085Y-96709933D01*
X92127261Y-96763676D01*
X92295813Y-96781448D01*
X92299493Y-96781454D01*
X92457143Y-96781454D01*
X92457143Y-97163409D01*
X92679950Y-97163409D01*
X92679950Y-96598613D01*
X92457143Y-96598613D01*
X92321867Y-96577001D01*
X92232141Y-96557823D01*
X92170275Y-96535812D01*
X92160025Y-96528859D01*
X92143269Y-96479505D01*
X92144110Y-96427042D01*
X92159111Y-96380283D01*
X92198619Y-96355637D01*
X92280237Y-96343859D01*
X92305952Y-96342053D01*
X92457143Y-96332352D01*
X92457143Y-96598613D01*
X92679950Y-96598613D01*
X92679950Y-96113033D01*
X92424291Y-96113033D01*
X92267464Y-96119692D01*
G36*
X77905556Y-98691687D02*
X77809169Y-98694825D01*
X77753756Y-98703290D01*
X77727975Y-98719729D01*
X77720484Y-98746787D01*
X77720050Y-98769207D01*
X77737483Y-98838944D01*
X77782186Y-98933464D01*
X77819803Y-98994991D01*
X77893743Y-99126713D01*
X77960011Y-99283869D01*
X78010337Y-99442917D01*
X78036451Y-99580311D01*
X78038346Y-99617122D01*
X78044854Y-99679418D01*
X78077202Y-99704967D01*
X78149749Y-99709775D01*
X78224664Y-99704345D01*
X78255387Y-99677457D01*
X78261153Y-99617639D01*
X78247172Y-99507182D01*
X78210478Y-99364596D01*
X78158945Y-99213580D01*
X78100446Y-99077833D01*
X78055391Y-98998303D01*
X77976605Y-98882206D01*
X78388471Y-98882206D01*
X78388471Y-98691228D01*
X78054261Y-98691228D01*
X77905556Y-98691687D01*
X77905556Y-98691687D01*
G37*
X77905556Y-98691687D02*
X77809169Y-98694825D01*
X77753756Y-98703290D01*
X77727975Y-98719729D01*
X77720484Y-98746787D01*
X77720050Y-98769207D01*
X77737483Y-98838944D01*
X77782186Y-98933464D01*
X77819803Y-98994991D01*
X77893743Y-99126713D01*
X77960011Y-99283869D01*
X78010337Y-99442917D01*
X78036451Y-99580311D01*
X78038346Y-99617122D01*
X78044854Y-99679418D01*
X78077202Y-99704967D01*
X78149749Y-99709775D01*
X78224664Y-99704345D01*
X78255387Y-99677457D01*
X78261153Y-99617639D01*
X78247172Y-99507182D01*
X78210478Y-99364596D01*
X78158945Y-99213580D01*
X78100446Y-99077833D01*
X78055391Y-98998303D01*
X77976605Y-98882206D01*
X78388471Y-98882206D01*
X78388471Y-98691228D01*
X78054261Y-98691228D01*
X77905556Y-98691687D01*
G36*
X78561590Y-99490340D02*
X78525364Y-99511164D01*
X78516074Y-99565499D01*
X78515790Y-99598371D01*
X78519644Y-99669699D01*
X78543443Y-99701397D01*
X78605539Y-99709526D01*
X78643108Y-99709775D01*
X78724625Y-99706402D01*
X78760852Y-99685578D01*
X78770141Y-99631244D01*
X78770426Y-99598371D01*
X78766572Y-99527044D01*
X78742773Y-99495345D01*
X78680676Y-99487217D01*
X78643108Y-99486968D01*
X78561590Y-99490340D01*
X78561590Y-99490340D01*
G37*
X78561590Y-99490340D02*
X78525364Y-99511164D01*
X78516074Y-99565499D01*
X78515790Y-99598371D01*
X78519644Y-99669699D01*
X78543443Y-99701397D01*
X78605539Y-99709526D01*
X78643108Y-99709775D01*
X78724625Y-99706402D01*
X78760852Y-99685578D01*
X78770141Y-99631244D01*
X78770426Y-99598371D01*
X78766572Y-99527044D01*
X78742773Y-99495345D01*
X78680676Y-99487217D01*
X78643108Y-99486968D01*
X78561590Y-99490340D01*
G36*
X79056892Y-99709775D02*
X79279699Y-99709775D01*
X79279699Y-99016387D01*
X79518421Y-99138615D01*
X79528982Y-99034374D01*
X79524012Y-98947154D01*
X79482407Y-98898719D01*
X79481494Y-98898212D01*
X79423566Y-98856061D01*
X79348143Y-98788786D01*
X79321880Y-98762845D01*
X79228445Y-98688903D01*
X79143023Y-98659500D01*
X79138604Y-98659399D01*
X79056892Y-98659399D01*
X79056892Y-99709775D01*
X79056892Y-99709775D01*
G37*
X79056892Y-99709775D02*
X79279699Y-99709775D01*
X79279699Y-99016387D01*
X79518421Y-99138615D01*
X79528982Y-99034374D01*
X79524012Y-98947154D01*
X79482407Y-98898719D01*
X79481494Y-98898212D01*
X79423566Y-98856061D01*
X79348143Y-98788786D01*
X79321880Y-98762845D01*
X79228445Y-98688903D01*
X79143023Y-98659500D01*
X79138604Y-98659399D01*
X79056892Y-98659399D01*
X79056892Y-99709775D01*
G36*
X80173420Y-98664374D02*
X80024702Y-98671041D01*
X79924524Y-98680939D01*
X79857768Y-98697417D01*
X79809316Y-98723823D01*
X79775551Y-98752479D01*
X79723878Y-98813835D01*
X79699471Y-98886873D01*
X79693484Y-98993609D01*
X79709846Y-99132810D01*
X79763626Y-99229026D01*
X79861862Y-99288871D01*
X80011595Y-99318958D01*
X80042568Y-99321582D01*
X80231632Y-99335257D01*
X80241066Y-99514559D01*
X80250501Y-99693860D01*
X80489223Y-99713618D01*
X80489223Y-99143927D01*
X80234587Y-99143927D01*
X80115226Y-99121622D01*
X80026304Y-99098609D01*
X79962295Y-99070923D01*
X79956078Y-99066438D01*
X79914596Y-99006254D01*
X79931543Y-98949589D01*
X80001749Y-98902735D01*
X80115226Y-98872709D01*
X80234587Y-98854379D01*
X80234587Y-99143927D01*
X80489223Y-99143927D01*
X80489223Y-98653434D01*
X80173420Y-98664374D01*
X80173420Y-98664374D01*
G37*
X80173420Y-98664374D02*
X80024702Y-98671041D01*
X79924524Y-98680939D01*
X79857768Y-98697417D01*
X79809316Y-98723823D01*
X79775551Y-98752479D01*
X79723878Y-98813835D01*
X79699471Y-98886873D01*
X79693484Y-98993609D01*
X79709846Y-99132810D01*
X79763626Y-99229026D01*
X79861862Y-99288871D01*
X80011595Y-99318958D01*
X80042568Y-99321582D01*
X80231632Y-99335257D01*
X80241066Y-99514559D01*
X80250501Y-99693860D01*
X80489223Y-99713618D01*
X80489223Y-99143927D01*
X80234587Y-99143927D01*
X80115226Y-99121622D01*
X80026304Y-99098609D01*
X79962295Y-99070923D01*
X79956078Y-99066438D01*
X79914596Y-99006254D01*
X79931543Y-98949589D01*
X80001749Y-98902735D01*
X80115226Y-98872709D01*
X80234587Y-98854379D01*
X80234587Y-99143927D01*
X80489223Y-99143927D01*
X80489223Y-98653434D01*
X80173420Y-98664374D01*
G36*
X90107802Y-98691902D02*
X90007325Y-98695308D01*
X89948439Y-98703522D01*
X89920111Y-98718620D01*
X89911308Y-98742678D01*
X89910777Y-98757110D01*
X89928240Y-98820987D01*
X89972643Y-98909253D01*
X90002813Y-98956762D01*
X90112046Y-99141684D01*
X90187931Y-99338204D01*
X90231632Y-99518899D01*
X90253924Y-99623904D01*
X90275525Y-99680967D01*
X90307526Y-99704703D01*
X90361015Y-99709728D01*
X90376447Y-99709775D01*
X90453688Y-99699114D01*
X90483234Y-99670727D01*
X90483239Y-99669988D01*
X90469984Y-99569396D01*
X90436645Y-99433650D01*
X90390184Y-99285226D01*
X90337563Y-99146598D01*
X90290988Y-99049311D01*
X90196699Y-98882206D01*
X90611028Y-98882206D01*
X90611028Y-98691228D01*
X90260902Y-98691228D01*
X90107802Y-98691902D01*
X90107802Y-98691902D01*
G37*
X90107802Y-98691902D02*
X90007325Y-98695308D01*
X89948439Y-98703522D01*
X89920111Y-98718620D01*
X89911308Y-98742678D01*
X89910777Y-98757110D01*
X89928240Y-98820987D01*
X89972643Y-98909253D01*
X90002813Y-98956762D01*
X90112046Y-99141684D01*
X90187931Y-99338204D01*
X90231632Y-99518899D01*
X90253924Y-99623904D01*
X90275525Y-99680967D01*
X90307526Y-99704703D01*
X90361015Y-99709728D01*
X90376447Y-99709775D01*
X90453688Y-99699114D01*
X90483234Y-99670727D01*
X90483239Y-99669988D01*
X90469984Y-99569396D01*
X90436645Y-99433650D01*
X90390184Y-99285226D01*
X90337563Y-99146598D01*
X90290988Y-99049311D01*
X90196699Y-98882206D01*
X90611028Y-98882206D01*
X90611028Y-98691228D01*
X90260902Y-98691228D01*
X90107802Y-98691902D01*
G36*
X90775083Y-99491895D02*
X90744462Y-99519694D01*
X90738360Y-99589892D01*
X90738346Y-99598371D01*
X90743273Y-99673037D01*
X90771073Y-99703659D01*
X90841270Y-99709761D01*
X90849749Y-99709775D01*
X90924416Y-99704848D01*
X90955037Y-99677048D01*
X90961139Y-99606851D01*
X90961153Y-99598371D01*
X90956226Y-99523705D01*
X90928426Y-99493084D01*
X90858229Y-99486982D01*
X90849749Y-99486968D01*
X90775083Y-99491895D01*
X90775083Y-99491895D01*
G37*
X90775083Y-99491895D02*
X90744462Y-99519694D01*
X90738360Y-99589892D01*
X90738346Y-99598371D01*
X90743273Y-99673037D01*
X90771073Y-99703659D01*
X90841270Y-99709761D01*
X90849749Y-99709775D01*
X90924416Y-99704848D01*
X90955037Y-99677048D01*
X90961139Y-99606851D01*
X90961153Y-99598371D01*
X90956226Y-99523705D01*
X90928426Y-99493084D01*
X90858229Y-99486982D01*
X90849749Y-99486968D01*
X90775083Y-99491895D01*
G36*
X91355587Y-98676800D02*
X91258399Y-98720418D01*
X91188107Y-98777375D01*
X91171902Y-98804058D01*
X91154440Y-98890083D01*
X91154998Y-98988107D01*
X91171976Y-99069178D01*
X91188056Y-99096377D01*
X91202295Y-99137409D01*
X91170969Y-99198950D01*
X91156226Y-99218439D01*
X91097635Y-99333668D01*
X91099921Y-99457471D01*
X91136545Y-99551264D01*
X91200599Y-99640652D01*
X91287969Y-99690552D01*
X91414966Y-99709089D01*
X91454867Y-99709775D01*
X91562150Y-99700864D01*
X91639608Y-99665800D01*
X91695682Y-99616735D01*
X91755081Y-99542011D01*
X91786985Y-99472032D01*
X91788722Y-99457587D01*
X91763494Y-99409415D01*
X91703347Y-99387218D01*
X91631588Y-99391234D01*
X91571523Y-99421703D01*
X91550000Y-99455138D01*
X91506837Y-99506337D01*
X91439188Y-99517708D01*
X91372022Y-99489509D01*
X91341966Y-99453004D01*
X91329812Y-99378660D01*
X91356691Y-99304645D01*
X91409368Y-99252223D01*
X91473129Y-99242261D01*
X91521541Y-99234704D01*
X91539836Y-99191372D01*
X91529854Y-99131544D01*
X91493433Y-99074502D01*
X91454511Y-99047145D01*
X91394934Y-98996894D01*
X91375643Y-98932732D01*
X91399852Y-98877044D01*
X91427639Y-98859984D01*
X91490248Y-98867823D01*
X91536188Y-98908728D01*
X91599664Y-98955652D01*
X91678512Y-98977137D01*
X91746705Y-98968809D01*
X91771333Y-98948250D01*
X91773697Y-98891281D01*
X91738855Y-98816279D01*
X91679630Y-98744573D01*
X91624958Y-98704756D01*
X91532510Y-98671114D01*
X91454511Y-98659399D01*
X91355587Y-98676800D01*
X91355587Y-98676800D01*
G37*
X91355587Y-98676800D02*
X91258399Y-98720418D01*
X91188107Y-98777375D01*
X91171902Y-98804058D01*
X91154440Y-98890083D01*
X91154998Y-98988107D01*
X91171976Y-99069178D01*
X91188056Y-99096377D01*
X91202295Y-99137409D01*
X91170969Y-99198950D01*
X91156226Y-99218439D01*
X91097635Y-99333668D01*
X91099921Y-99457471D01*
X91136545Y-99551264D01*
X91200599Y-99640652D01*
X91287969Y-99690552D01*
X91414966Y-99709089D01*
X91454867Y-99709775D01*
X91562150Y-99700864D01*
X91639608Y-99665800D01*
X91695682Y-99616735D01*
X91755081Y-99542011D01*
X91786985Y-99472032D01*
X91788722Y-99457587D01*
X91763494Y-99409415D01*
X91703347Y-99387218D01*
X91631588Y-99391234D01*
X91571523Y-99421703D01*
X91550000Y-99455138D01*
X91506837Y-99506337D01*
X91439188Y-99517708D01*
X91372022Y-99489509D01*
X91341966Y-99453004D01*
X91329812Y-99378660D01*
X91356691Y-99304645D01*
X91409368Y-99252223D01*
X91473129Y-99242261D01*
X91521541Y-99234704D01*
X91539836Y-99191372D01*
X91529854Y-99131544D01*
X91493433Y-99074502D01*
X91454511Y-99047145D01*
X91394934Y-98996894D01*
X91375643Y-98932732D01*
X91399852Y-98877044D01*
X91427639Y-98859984D01*
X91490248Y-98867823D01*
X91536188Y-98908728D01*
X91599664Y-98955652D01*
X91678512Y-98977137D01*
X91746705Y-98968809D01*
X91771333Y-98948250D01*
X91773697Y-98891281D01*
X91738855Y-98816279D01*
X91679630Y-98744573D01*
X91624958Y-98704756D01*
X91532510Y-98671114D01*
X91454511Y-98659399D01*
X91355587Y-98676800D01*
G36*
X92361403Y-98664789D02*
X92184443Y-98676715D01*
X92060387Y-98699765D01*
X91978699Y-98739780D01*
X91928842Y-98802602D01*
X91900281Y-98894073D01*
X91895027Y-98923370D01*
X91895481Y-99075665D01*
X91949007Y-99195101D01*
X92052260Y-99278307D01*
X92201895Y-99321913D01*
X92296414Y-99327820D01*
X92457143Y-99327820D01*
X92457143Y-99709775D01*
X92679950Y-99709775D01*
X92679950Y-99144979D01*
X92457143Y-99144979D01*
X92324903Y-99123833D01*
X92236110Y-99106899D01*
X92175143Y-99090317D01*
X92165755Y-99086057D01*
X92142551Y-99041909D01*
X92141190Y-98974408D01*
X92159411Y-98916294D01*
X92178634Y-98899602D01*
X92234842Y-98886414D01*
X92321608Y-98870068D01*
X92337782Y-98867329D01*
X92457143Y-98847492D01*
X92457143Y-99144979D01*
X92679950Y-99144979D01*
X92679950Y-98651995D01*
X92361403Y-98664789D01*
X92361403Y-98664789D01*
G37*
X92361403Y-98664789D02*
X92184443Y-98676715D01*
X92060387Y-98699765D01*
X91978699Y-98739780D01*
X91928842Y-98802602D01*
X91900281Y-98894073D01*
X91895027Y-98923370D01*
X91895481Y-99075665D01*
X91949007Y-99195101D01*
X92052260Y-99278307D01*
X92201895Y-99321913D01*
X92296414Y-99327820D01*
X92457143Y-99327820D01*
X92457143Y-99709775D01*
X92679950Y-99709775D01*
X92679950Y-99144979D01*
X92457143Y-99144979D01*
X92324903Y-99123833D01*
X92236110Y-99106899D01*
X92175143Y-99090317D01*
X92165755Y-99086057D01*
X92142551Y-99041909D01*
X92141190Y-98974408D01*
X92159411Y-98916294D01*
X92178634Y-98899602D01*
X92234842Y-98886414D01*
X92321608Y-98870068D01*
X92337782Y-98867329D01*
X92457143Y-98847492D01*
X92457143Y-99144979D01*
X92679950Y-99144979D01*
X92679950Y-98651995D01*
X92361403Y-98664789D01*
G04 #@! TD*
M02*
