G04 #@! TF.GenerationSoftware,KiCad,Pcbnew,(5.0.0)*
G04 #@! TF.CreationDate,2020-05-15T17:20:18+01:00*
G04 #@! TF.ProjectId,CH552-USB-Devboard,43483535322D5553422D446576626F61,rev?*
G04 #@! TF.SameCoordinates,Original*
G04 #@! TF.FileFunction,Paste,Top*
G04 #@! TF.FilePolarity,Positive*
%FSLAX46Y46*%
G04 Gerber Fmt 4.6, Leading zero omitted, Abs format (unit mm)*
G04 Created by KiCad (PCBNEW (5.0.0)) date 05/15/20 17:20:18*
%MOMM*%
%LPD*%
G01*
G04 APERTURE LIST*
%ADD10R,1.050000X0.650000*%
%ADD11R,0.400000X1.350000*%
%ADD12R,1.600000X1.400000*%
%ADD13R,1.900000X1.900000*%
%ADD14C,0.100000*%
%ADD15C,0.950000*%
%ADD16R,0.600000X1.500000*%
%ADD17R,0.450000X1.450000*%
%ADD18R,1.200000X1.200000*%
G04 APERTURE END LIST*
D10*
G04 #@! TO.C,SW2*
X87150000Y-92350000D03*
X83000000Y-92350000D03*
X87150000Y-90200000D03*
X83000000Y-90200000D03*
G04 #@! TD*
G04 #@! TO.C,SW1*
X83000000Y-94400000D03*
X87150000Y-94400000D03*
X83000000Y-96550000D03*
X87150000Y-96550000D03*
G04 #@! TD*
D11*
G04 #@! TO.C,J3*
X85400000Y-70475000D03*
X84750000Y-70475000D03*
X84100000Y-70475000D03*
X86050000Y-70475000D03*
X86700000Y-70475000D03*
D12*
X88600000Y-70250000D03*
X82200000Y-70250000D03*
D13*
X86600000Y-67800000D03*
X84200000Y-67800000D03*
G04 #@! TD*
D14*
G04 #@! TO.C,C1*
G36*
X82260779Y-72201144D02*
X82283834Y-72204563D01*
X82306443Y-72210227D01*
X82328387Y-72218079D01*
X82349457Y-72228044D01*
X82369448Y-72240026D01*
X82388168Y-72253910D01*
X82405438Y-72269562D01*
X82421090Y-72286832D01*
X82434974Y-72305552D01*
X82446956Y-72325543D01*
X82456921Y-72346613D01*
X82464773Y-72368557D01*
X82470437Y-72391166D01*
X82473856Y-72414221D01*
X82475000Y-72437500D01*
X82475000Y-73012500D01*
X82473856Y-73035779D01*
X82470437Y-73058834D01*
X82464773Y-73081443D01*
X82456921Y-73103387D01*
X82446956Y-73124457D01*
X82434974Y-73144448D01*
X82421090Y-73163168D01*
X82405438Y-73180438D01*
X82388168Y-73196090D01*
X82369448Y-73209974D01*
X82349457Y-73221956D01*
X82328387Y-73231921D01*
X82306443Y-73239773D01*
X82283834Y-73245437D01*
X82260779Y-73248856D01*
X82237500Y-73250000D01*
X81762500Y-73250000D01*
X81739221Y-73248856D01*
X81716166Y-73245437D01*
X81693557Y-73239773D01*
X81671613Y-73231921D01*
X81650543Y-73221956D01*
X81630552Y-73209974D01*
X81611832Y-73196090D01*
X81594562Y-73180438D01*
X81578910Y-73163168D01*
X81565026Y-73144448D01*
X81553044Y-73124457D01*
X81543079Y-73103387D01*
X81535227Y-73081443D01*
X81529563Y-73058834D01*
X81526144Y-73035779D01*
X81525000Y-73012500D01*
X81525000Y-72437500D01*
X81526144Y-72414221D01*
X81529563Y-72391166D01*
X81535227Y-72368557D01*
X81543079Y-72346613D01*
X81553044Y-72325543D01*
X81565026Y-72305552D01*
X81578910Y-72286832D01*
X81594562Y-72269562D01*
X81611832Y-72253910D01*
X81630552Y-72240026D01*
X81650543Y-72228044D01*
X81671613Y-72218079D01*
X81693557Y-72210227D01*
X81716166Y-72204563D01*
X81739221Y-72201144D01*
X81762500Y-72200000D01*
X82237500Y-72200000D01*
X82260779Y-72201144D01*
X82260779Y-72201144D01*
G37*
D15*
X82000000Y-72725000D03*
D14*
G36*
X82260779Y-73951144D02*
X82283834Y-73954563D01*
X82306443Y-73960227D01*
X82328387Y-73968079D01*
X82349457Y-73978044D01*
X82369448Y-73990026D01*
X82388168Y-74003910D01*
X82405438Y-74019562D01*
X82421090Y-74036832D01*
X82434974Y-74055552D01*
X82446956Y-74075543D01*
X82456921Y-74096613D01*
X82464773Y-74118557D01*
X82470437Y-74141166D01*
X82473856Y-74164221D01*
X82475000Y-74187500D01*
X82475000Y-74762500D01*
X82473856Y-74785779D01*
X82470437Y-74808834D01*
X82464773Y-74831443D01*
X82456921Y-74853387D01*
X82446956Y-74874457D01*
X82434974Y-74894448D01*
X82421090Y-74913168D01*
X82405438Y-74930438D01*
X82388168Y-74946090D01*
X82369448Y-74959974D01*
X82349457Y-74971956D01*
X82328387Y-74981921D01*
X82306443Y-74989773D01*
X82283834Y-74995437D01*
X82260779Y-74998856D01*
X82237500Y-75000000D01*
X81762500Y-75000000D01*
X81739221Y-74998856D01*
X81716166Y-74995437D01*
X81693557Y-74989773D01*
X81671613Y-74981921D01*
X81650543Y-74971956D01*
X81630552Y-74959974D01*
X81611832Y-74946090D01*
X81594562Y-74930438D01*
X81578910Y-74913168D01*
X81565026Y-74894448D01*
X81553044Y-74874457D01*
X81543079Y-74853387D01*
X81535227Y-74831443D01*
X81529563Y-74808834D01*
X81526144Y-74785779D01*
X81525000Y-74762500D01*
X81525000Y-74187500D01*
X81526144Y-74164221D01*
X81529563Y-74141166D01*
X81535227Y-74118557D01*
X81543079Y-74096613D01*
X81553044Y-74075543D01*
X81565026Y-74055552D01*
X81578910Y-74036832D01*
X81594562Y-74019562D01*
X81611832Y-74003910D01*
X81630552Y-73990026D01*
X81650543Y-73978044D01*
X81671613Y-73968079D01*
X81693557Y-73960227D01*
X81716166Y-73954563D01*
X81739221Y-73951144D01*
X81762500Y-73950000D01*
X82237500Y-73950000D01*
X82260779Y-73951144D01*
X82260779Y-73951144D01*
G37*
D15*
X82000000Y-74475000D03*
G04 #@! TD*
D14*
G04 #@! TO.C,C2*
G36*
X80260779Y-73951144D02*
X80283834Y-73954563D01*
X80306443Y-73960227D01*
X80328387Y-73968079D01*
X80349457Y-73978044D01*
X80369448Y-73990026D01*
X80388168Y-74003910D01*
X80405438Y-74019562D01*
X80421090Y-74036832D01*
X80434974Y-74055552D01*
X80446956Y-74075543D01*
X80456921Y-74096613D01*
X80464773Y-74118557D01*
X80470437Y-74141166D01*
X80473856Y-74164221D01*
X80475000Y-74187500D01*
X80475000Y-74762500D01*
X80473856Y-74785779D01*
X80470437Y-74808834D01*
X80464773Y-74831443D01*
X80456921Y-74853387D01*
X80446956Y-74874457D01*
X80434974Y-74894448D01*
X80421090Y-74913168D01*
X80405438Y-74930438D01*
X80388168Y-74946090D01*
X80369448Y-74959974D01*
X80349457Y-74971956D01*
X80328387Y-74981921D01*
X80306443Y-74989773D01*
X80283834Y-74995437D01*
X80260779Y-74998856D01*
X80237500Y-75000000D01*
X79762500Y-75000000D01*
X79739221Y-74998856D01*
X79716166Y-74995437D01*
X79693557Y-74989773D01*
X79671613Y-74981921D01*
X79650543Y-74971956D01*
X79630552Y-74959974D01*
X79611832Y-74946090D01*
X79594562Y-74930438D01*
X79578910Y-74913168D01*
X79565026Y-74894448D01*
X79553044Y-74874457D01*
X79543079Y-74853387D01*
X79535227Y-74831443D01*
X79529563Y-74808834D01*
X79526144Y-74785779D01*
X79525000Y-74762500D01*
X79525000Y-74187500D01*
X79526144Y-74164221D01*
X79529563Y-74141166D01*
X79535227Y-74118557D01*
X79543079Y-74096613D01*
X79553044Y-74075543D01*
X79565026Y-74055552D01*
X79578910Y-74036832D01*
X79594562Y-74019562D01*
X79611832Y-74003910D01*
X79630552Y-73990026D01*
X79650543Y-73978044D01*
X79671613Y-73968079D01*
X79693557Y-73960227D01*
X79716166Y-73954563D01*
X79739221Y-73951144D01*
X79762500Y-73950000D01*
X80237500Y-73950000D01*
X80260779Y-73951144D01*
X80260779Y-73951144D01*
G37*
D15*
X80000000Y-74475000D03*
D14*
G36*
X80260779Y-72201144D02*
X80283834Y-72204563D01*
X80306443Y-72210227D01*
X80328387Y-72218079D01*
X80349457Y-72228044D01*
X80369448Y-72240026D01*
X80388168Y-72253910D01*
X80405438Y-72269562D01*
X80421090Y-72286832D01*
X80434974Y-72305552D01*
X80446956Y-72325543D01*
X80456921Y-72346613D01*
X80464773Y-72368557D01*
X80470437Y-72391166D01*
X80473856Y-72414221D01*
X80475000Y-72437500D01*
X80475000Y-73012500D01*
X80473856Y-73035779D01*
X80470437Y-73058834D01*
X80464773Y-73081443D01*
X80456921Y-73103387D01*
X80446956Y-73124457D01*
X80434974Y-73144448D01*
X80421090Y-73163168D01*
X80405438Y-73180438D01*
X80388168Y-73196090D01*
X80369448Y-73209974D01*
X80349457Y-73221956D01*
X80328387Y-73231921D01*
X80306443Y-73239773D01*
X80283834Y-73245437D01*
X80260779Y-73248856D01*
X80237500Y-73250000D01*
X79762500Y-73250000D01*
X79739221Y-73248856D01*
X79716166Y-73245437D01*
X79693557Y-73239773D01*
X79671613Y-73231921D01*
X79650543Y-73221956D01*
X79630552Y-73209974D01*
X79611832Y-73196090D01*
X79594562Y-73180438D01*
X79578910Y-73163168D01*
X79565026Y-73144448D01*
X79553044Y-73124457D01*
X79543079Y-73103387D01*
X79535227Y-73081443D01*
X79529563Y-73058834D01*
X79526144Y-73035779D01*
X79525000Y-73012500D01*
X79525000Y-72437500D01*
X79526144Y-72414221D01*
X79529563Y-72391166D01*
X79535227Y-72368557D01*
X79543079Y-72346613D01*
X79553044Y-72325543D01*
X79565026Y-72305552D01*
X79578910Y-72286832D01*
X79594562Y-72269562D01*
X79611832Y-72253910D01*
X79630552Y-72240026D01*
X79650543Y-72228044D01*
X79671613Y-72218079D01*
X79693557Y-72210227D01*
X79716166Y-72204563D01*
X79739221Y-72201144D01*
X79762500Y-72200000D01*
X80237500Y-72200000D01*
X80260779Y-72201144D01*
X80260779Y-72201144D01*
G37*
D15*
X80000000Y-72725000D03*
G04 #@! TD*
D14*
G04 #@! TO.C,C3*
G36*
X79860779Y-91276144D02*
X79883834Y-91279563D01*
X79906443Y-91285227D01*
X79928387Y-91293079D01*
X79949457Y-91303044D01*
X79969448Y-91315026D01*
X79988168Y-91328910D01*
X80005438Y-91344562D01*
X80021090Y-91361832D01*
X80034974Y-91380552D01*
X80046956Y-91400543D01*
X80056921Y-91421613D01*
X80064773Y-91443557D01*
X80070437Y-91466166D01*
X80073856Y-91489221D01*
X80075000Y-91512500D01*
X80075000Y-92087500D01*
X80073856Y-92110779D01*
X80070437Y-92133834D01*
X80064773Y-92156443D01*
X80056921Y-92178387D01*
X80046956Y-92199457D01*
X80034974Y-92219448D01*
X80021090Y-92238168D01*
X80005438Y-92255438D01*
X79988168Y-92271090D01*
X79969448Y-92284974D01*
X79949457Y-92296956D01*
X79928387Y-92306921D01*
X79906443Y-92314773D01*
X79883834Y-92320437D01*
X79860779Y-92323856D01*
X79837500Y-92325000D01*
X79362500Y-92325000D01*
X79339221Y-92323856D01*
X79316166Y-92320437D01*
X79293557Y-92314773D01*
X79271613Y-92306921D01*
X79250543Y-92296956D01*
X79230552Y-92284974D01*
X79211832Y-92271090D01*
X79194562Y-92255438D01*
X79178910Y-92238168D01*
X79165026Y-92219448D01*
X79153044Y-92199457D01*
X79143079Y-92178387D01*
X79135227Y-92156443D01*
X79129563Y-92133834D01*
X79126144Y-92110779D01*
X79125000Y-92087500D01*
X79125000Y-91512500D01*
X79126144Y-91489221D01*
X79129563Y-91466166D01*
X79135227Y-91443557D01*
X79143079Y-91421613D01*
X79153044Y-91400543D01*
X79165026Y-91380552D01*
X79178910Y-91361832D01*
X79194562Y-91344562D01*
X79211832Y-91328910D01*
X79230552Y-91315026D01*
X79250543Y-91303044D01*
X79271613Y-91293079D01*
X79293557Y-91285227D01*
X79316166Y-91279563D01*
X79339221Y-91276144D01*
X79362500Y-91275000D01*
X79837500Y-91275000D01*
X79860779Y-91276144D01*
X79860779Y-91276144D01*
G37*
D15*
X79600000Y-91800000D03*
D14*
G36*
X79860779Y-93026144D02*
X79883834Y-93029563D01*
X79906443Y-93035227D01*
X79928387Y-93043079D01*
X79949457Y-93053044D01*
X79969448Y-93065026D01*
X79988168Y-93078910D01*
X80005438Y-93094562D01*
X80021090Y-93111832D01*
X80034974Y-93130552D01*
X80046956Y-93150543D01*
X80056921Y-93171613D01*
X80064773Y-93193557D01*
X80070437Y-93216166D01*
X80073856Y-93239221D01*
X80075000Y-93262500D01*
X80075000Y-93837500D01*
X80073856Y-93860779D01*
X80070437Y-93883834D01*
X80064773Y-93906443D01*
X80056921Y-93928387D01*
X80046956Y-93949457D01*
X80034974Y-93969448D01*
X80021090Y-93988168D01*
X80005438Y-94005438D01*
X79988168Y-94021090D01*
X79969448Y-94034974D01*
X79949457Y-94046956D01*
X79928387Y-94056921D01*
X79906443Y-94064773D01*
X79883834Y-94070437D01*
X79860779Y-94073856D01*
X79837500Y-94075000D01*
X79362500Y-94075000D01*
X79339221Y-94073856D01*
X79316166Y-94070437D01*
X79293557Y-94064773D01*
X79271613Y-94056921D01*
X79250543Y-94046956D01*
X79230552Y-94034974D01*
X79211832Y-94021090D01*
X79194562Y-94005438D01*
X79178910Y-93988168D01*
X79165026Y-93969448D01*
X79153044Y-93949457D01*
X79143079Y-93928387D01*
X79135227Y-93906443D01*
X79129563Y-93883834D01*
X79126144Y-93860779D01*
X79125000Y-93837500D01*
X79125000Y-93262500D01*
X79126144Y-93239221D01*
X79129563Y-93216166D01*
X79135227Y-93193557D01*
X79143079Y-93171613D01*
X79153044Y-93150543D01*
X79165026Y-93130552D01*
X79178910Y-93111832D01*
X79194562Y-93094562D01*
X79211832Y-93078910D01*
X79230552Y-93065026D01*
X79250543Y-93053044D01*
X79271613Y-93043079D01*
X79293557Y-93035227D01*
X79316166Y-93029563D01*
X79339221Y-93026144D01*
X79362500Y-93025000D01*
X79837500Y-93025000D01*
X79860779Y-93026144D01*
X79860779Y-93026144D01*
G37*
D15*
X79600000Y-93550000D03*
G04 #@! TD*
D14*
G04 #@! TO.C,C4*
G36*
X91760779Y-70526144D02*
X91783834Y-70529563D01*
X91806443Y-70535227D01*
X91828387Y-70543079D01*
X91849457Y-70553044D01*
X91869448Y-70565026D01*
X91888168Y-70578910D01*
X91905438Y-70594562D01*
X91921090Y-70611832D01*
X91934974Y-70630552D01*
X91946956Y-70650543D01*
X91956921Y-70671613D01*
X91964773Y-70693557D01*
X91970437Y-70716166D01*
X91973856Y-70739221D01*
X91975000Y-70762500D01*
X91975000Y-71237500D01*
X91973856Y-71260779D01*
X91970437Y-71283834D01*
X91964773Y-71306443D01*
X91956921Y-71328387D01*
X91946956Y-71349457D01*
X91934974Y-71369448D01*
X91921090Y-71388168D01*
X91905438Y-71405438D01*
X91888168Y-71421090D01*
X91869448Y-71434974D01*
X91849457Y-71446956D01*
X91828387Y-71456921D01*
X91806443Y-71464773D01*
X91783834Y-71470437D01*
X91760779Y-71473856D01*
X91737500Y-71475000D01*
X91162500Y-71475000D01*
X91139221Y-71473856D01*
X91116166Y-71470437D01*
X91093557Y-71464773D01*
X91071613Y-71456921D01*
X91050543Y-71446956D01*
X91030552Y-71434974D01*
X91011832Y-71421090D01*
X90994562Y-71405438D01*
X90978910Y-71388168D01*
X90965026Y-71369448D01*
X90953044Y-71349457D01*
X90943079Y-71328387D01*
X90935227Y-71306443D01*
X90929563Y-71283834D01*
X90926144Y-71260779D01*
X90925000Y-71237500D01*
X90925000Y-70762500D01*
X90926144Y-70739221D01*
X90929563Y-70716166D01*
X90935227Y-70693557D01*
X90943079Y-70671613D01*
X90953044Y-70650543D01*
X90965026Y-70630552D01*
X90978910Y-70611832D01*
X90994562Y-70594562D01*
X91011832Y-70578910D01*
X91030552Y-70565026D01*
X91050543Y-70553044D01*
X91071613Y-70543079D01*
X91093557Y-70535227D01*
X91116166Y-70529563D01*
X91139221Y-70526144D01*
X91162500Y-70525000D01*
X91737500Y-70525000D01*
X91760779Y-70526144D01*
X91760779Y-70526144D01*
G37*
D15*
X91450000Y-71000000D03*
D14*
G36*
X93510779Y-70526144D02*
X93533834Y-70529563D01*
X93556443Y-70535227D01*
X93578387Y-70543079D01*
X93599457Y-70553044D01*
X93619448Y-70565026D01*
X93638168Y-70578910D01*
X93655438Y-70594562D01*
X93671090Y-70611832D01*
X93684974Y-70630552D01*
X93696956Y-70650543D01*
X93706921Y-70671613D01*
X93714773Y-70693557D01*
X93720437Y-70716166D01*
X93723856Y-70739221D01*
X93725000Y-70762500D01*
X93725000Y-71237500D01*
X93723856Y-71260779D01*
X93720437Y-71283834D01*
X93714773Y-71306443D01*
X93706921Y-71328387D01*
X93696956Y-71349457D01*
X93684974Y-71369448D01*
X93671090Y-71388168D01*
X93655438Y-71405438D01*
X93638168Y-71421090D01*
X93619448Y-71434974D01*
X93599457Y-71446956D01*
X93578387Y-71456921D01*
X93556443Y-71464773D01*
X93533834Y-71470437D01*
X93510779Y-71473856D01*
X93487500Y-71475000D01*
X92912500Y-71475000D01*
X92889221Y-71473856D01*
X92866166Y-71470437D01*
X92843557Y-71464773D01*
X92821613Y-71456921D01*
X92800543Y-71446956D01*
X92780552Y-71434974D01*
X92761832Y-71421090D01*
X92744562Y-71405438D01*
X92728910Y-71388168D01*
X92715026Y-71369448D01*
X92703044Y-71349457D01*
X92693079Y-71328387D01*
X92685227Y-71306443D01*
X92679563Y-71283834D01*
X92676144Y-71260779D01*
X92675000Y-71237500D01*
X92675000Y-70762500D01*
X92676144Y-70739221D01*
X92679563Y-70716166D01*
X92685227Y-70693557D01*
X92693079Y-70671613D01*
X92703044Y-70650543D01*
X92715026Y-70630552D01*
X92728910Y-70611832D01*
X92744562Y-70594562D01*
X92761832Y-70578910D01*
X92780552Y-70565026D01*
X92800543Y-70553044D01*
X92821613Y-70543079D01*
X92843557Y-70535227D01*
X92866166Y-70529563D01*
X92889221Y-70526144D01*
X92912500Y-70525000D01*
X93487500Y-70525000D01*
X93510779Y-70526144D01*
X93510779Y-70526144D01*
G37*
D15*
X93200000Y-71000000D03*
G04 #@! TD*
D16*
G04 #@! TO.C,U2*
X80734192Y-79980020D03*
X82004192Y-79980020D03*
X83274192Y-79980020D03*
X84544192Y-79980020D03*
X85814192Y-79980020D03*
X87084192Y-79980020D03*
X88354192Y-79980020D03*
X89624192Y-79980020D03*
X89624192Y-85380020D03*
X88354192Y-85380020D03*
X87084192Y-85380020D03*
X85814192Y-85380020D03*
X84544192Y-85380020D03*
X83274192Y-85380020D03*
X82004192Y-85380020D03*
X80734192Y-85380020D03*
G04 #@! TD*
D17*
G04 #@! TO.C,U1*
X82254192Y-76730020D03*
X82904192Y-76730020D03*
X83554192Y-76730020D03*
X84204192Y-76730020D03*
X84854192Y-76730020D03*
X85504192Y-76730020D03*
X86154192Y-76730020D03*
X86804192Y-76730020D03*
X87454192Y-76730020D03*
X88104192Y-76730020D03*
X88104192Y-82630020D03*
X87454192Y-82630020D03*
X86804192Y-82630020D03*
X86154192Y-82630020D03*
X85504192Y-82630020D03*
X84854192Y-82630020D03*
X84204192Y-82630020D03*
X83554192Y-82630020D03*
X82904192Y-82630020D03*
X82254192Y-82630020D03*
G04 #@! TD*
D18*
G04 #@! TO.C,D3*
X78400000Y-70400000D03*
X76200000Y-70400000D03*
G04 #@! TD*
G04 #@! TO.C,D2*
X89400000Y-97800000D03*
X89400000Y-100000000D03*
G04 #@! TD*
G04 #@! TO.C,D1*
X81000000Y-100000000D03*
X81000000Y-97800000D03*
G04 #@! TD*
D14*
G04 #@! TO.C,R4*
G36*
X91460779Y-99276144D02*
X91483834Y-99279563D01*
X91506443Y-99285227D01*
X91528387Y-99293079D01*
X91549457Y-99303044D01*
X91569448Y-99315026D01*
X91588168Y-99328910D01*
X91605438Y-99344562D01*
X91621090Y-99361832D01*
X91634974Y-99380552D01*
X91646956Y-99400543D01*
X91656921Y-99421613D01*
X91664773Y-99443557D01*
X91670437Y-99466166D01*
X91673856Y-99489221D01*
X91675000Y-99512500D01*
X91675000Y-100087500D01*
X91673856Y-100110779D01*
X91670437Y-100133834D01*
X91664773Y-100156443D01*
X91656921Y-100178387D01*
X91646956Y-100199457D01*
X91634974Y-100219448D01*
X91621090Y-100238168D01*
X91605438Y-100255438D01*
X91588168Y-100271090D01*
X91569448Y-100284974D01*
X91549457Y-100296956D01*
X91528387Y-100306921D01*
X91506443Y-100314773D01*
X91483834Y-100320437D01*
X91460779Y-100323856D01*
X91437500Y-100325000D01*
X90962500Y-100325000D01*
X90939221Y-100323856D01*
X90916166Y-100320437D01*
X90893557Y-100314773D01*
X90871613Y-100306921D01*
X90850543Y-100296956D01*
X90830552Y-100284974D01*
X90811832Y-100271090D01*
X90794562Y-100255438D01*
X90778910Y-100238168D01*
X90765026Y-100219448D01*
X90753044Y-100199457D01*
X90743079Y-100178387D01*
X90735227Y-100156443D01*
X90729563Y-100133834D01*
X90726144Y-100110779D01*
X90725000Y-100087500D01*
X90725000Y-99512500D01*
X90726144Y-99489221D01*
X90729563Y-99466166D01*
X90735227Y-99443557D01*
X90743079Y-99421613D01*
X90753044Y-99400543D01*
X90765026Y-99380552D01*
X90778910Y-99361832D01*
X90794562Y-99344562D01*
X90811832Y-99328910D01*
X90830552Y-99315026D01*
X90850543Y-99303044D01*
X90871613Y-99293079D01*
X90893557Y-99285227D01*
X90916166Y-99279563D01*
X90939221Y-99276144D01*
X90962500Y-99275000D01*
X91437500Y-99275000D01*
X91460779Y-99276144D01*
X91460779Y-99276144D01*
G37*
D15*
X91200000Y-99800000D03*
D14*
G36*
X91460779Y-97526144D02*
X91483834Y-97529563D01*
X91506443Y-97535227D01*
X91528387Y-97543079D01*
X91549457Y-97553044D01*
X91569448Y-97565026D01*
X91588168Y-97578910D01*
X91605438Y-97594562D01*
X91621090Y-97611832D01*
X91634974Y-97630552D01*
X91646956Y-97650543D01*
X91656921Y-97671613D01*
X91664773Y-97693557D01*
X91670437Y-97716166D01*
X91673856Y-97739221D01*
X91675000Y-97762500D01*
X91675000Y-98337500D01*
X91673856Y-98360779D01*
X91670437Y-98383834D01*
X91664773Y-98406443D01*
X91656921Y-98428387D01*
X91646956Y-98449457D01*
X91634974Y-98469448D01*
X91621090Y-98488168D01*
X91605438Y-98505438D01*
X91588168Y-98521090D01*
X91569448Y-98534974D01*
X91549457Y-98546956D01*
X91528387Y-98556921D01*
X91506443Y-98564773D01*
X91483834Y-98570437D01*
X91460779Y-98573856D01*
X91437500Y-98575000D01*
X90962500Y-98575000D01*
X90939221Y-98573856D01*
X90916166Y-98570437D01*
X90893557Y-98564773D01*
X90871613Y-98556921D01*
X90850543Y-98546956D01*
X90830552Y-98534974D01*
X90811832Y-98521090D01*
X90794562Y-98505438D01*
X90778910Y-98488168D01*
X90765026Y-98469448D01*
X90753044Y-98449457D01*
X90743079Y-98428387D01*
X90735227Y-98406443D01*
X90729563Y-98383834D01*
X90726144Y-98360779D01*
X90725000Y-98337500D01*
X90725000Y-97762500D01*
X90726144Y-97739221D01*
X90729563Y-97716166D01*
X90735227Y-97693557D01*
X90743079Y-97671613D01*
X90753044Y-97650543D01*
X90765026Y-97630552D01*
X90778910Y-97611832D01*
X90794562Y-97594562D01*
X90811832Y-97578910D01*
X90830552Y-97565026D01*
X90850543Y-97553044D01*
X90871613Y-97543079D01*
X90893557Y-97535227D01*
X90916166Y-97529563D01*
X90939221Y-97526144D01*
X90962500Y-97525000D01*
X91437500Y-97525000D01*
X91460779Y-97526144D01*
X91460779Y-97526144D01*
G37*
D15*
X91200000Y-98050000D03*
G04 #@! TD*
D14*
G04 #@! TO.C,R5*
G36*
X78460779Y-72326144D02*
X78483834Y-72329563D01*
X78506443Y-72335227D01*
X78528387Y-72343079D01*
X78549457Y-72353044D01*
X78569448Y-72365026D01*
X78588168Y-72378910D01*
X78605438Y-72394562D01*
X78621090Y-72411832D01*
X78634974Y-72430552D01*
X78646956Y-72450543D01*
X78656921Y-72471613D01*
X78664773Y-72493557D01*
X78670437Y-72516166D01*
X78673856Y-72539221D01*
X78675000Y-72562500D01*
X78675000Y-73037500D01*
X78673856Y-73060779D01*
X78670437Y-73083834D01*
X78664773Y-73106443D01*
X78656921Y-73128387D01*
X78646956Y-73149457D01*
X78634974Y-73169448D01*
X78621090Y-73188168D01*
X78605438Y-73205438D01*
X78588168Y-73221090D01*
X78569448Y-73234974D01*
X78549457Y-73246956D01*
X78528387Y-73256921D01*
X78506443Y-73264773D01*
X78483834Y-73270437D01*
X78460779Y-73273856D01*
X78437500Y-73275000D01*
X77862500Y-73275000D01*
X77839221Y-73273856D01*
X77816166Y-73270437D01*
X77793557Y-73264773D01*
X77771613Y-73256921D01*
X77750543Y-73246956D01*
X77730552Y-73234974D01*
X77711832Y-73221090D01*
X77694562Y-73205438D01*
X77678910Y-73188168D01*
X77665026Y-73169448D01*
X77653044Y-73149457D01*
X77643079Y-73128387D01*
X77635227Y-73106443D01*
X77629563Y-73083834D01*
X77626144Y-73060779D01*
X77625000Y-73037500D01*
X77625000Y-72562500D01*
X77626144Y-72539221D01*
X77629563Y-72516166D01*
X77635227Y-72493557D01*
X77643079Y-72471613D01*
X77653044Y-72450543D01*
X77665026Y-72430552D01*
X77678910Y-72411832D01*
X77694562Y-72394562D01*
X77711832Y-72378910D01*
X77730552Y-72365026D01*
X77750543Y-72353044D01*
X77771613Y-72343079D01*
X77793557Y-72335227D01*
X77816166Y-72329563D01*
X77839221Y-72326144D01*
X77862500Y-72325000D01*
X78437500Y-72325000D01*
X78460779Y-72326144D01*
X78460779Y-72326144D01*
G37*
D15*
X78150000Y-72800000D03*
D14*
G36*
X76710779Y-72326144D02*
X76733834Y-72329563D01*
X76756443Y-72335227D01*
X76778387Y-72343079D01*
X76799457Y-72353044D01*
X76819448Y-72365026D01*
X76838168Y-72378910D01*
X76855438Y-72394562D01*
X76871090Y-72411832D01*
X76884974Y-72430552D01*
X76896956Y-72450543D01*
X76906921Y-72471613D01*
X76914773Y-72493557D01*
X76920437Y-72516166D01*
X76923856Y-72539221D01*
X76925000Y-72562500D01*
X76925000Y-73037500D01*
X76923856Y-73060779D01*
X76920437Y-73083834D01*
X76914773Y-73106443D01*
X76906921Y-73128387D01*
X76896956Y-73149457D01*
X76884974Y-73169448D01*
X76871090Y-73188168D01*
X76855438Y-73205438D01*
X76838168Y-73221090D01*
X76819448Y-73234974D01*
X76799457Y-73246956D01*
X76778387Y-73256921D01*
X76756443Y-73264773D01*
X76733834Y-73270437D01*
X76710779Y-73273856D01*
X76687500Y-73275000D01*
X76112500Y-73275000D01*
X76089221Y-73273856D01*
X76066166Y-73270437D01*
X76043557Y-73264773D01*
X76021613Y-73256921D01*
X76000543Y-73246956D01*
X75980552Y-73234974D01*
X75961832Y-73221090D01*
X75944562Y-73205438D01*
X75928910Y-73188168D01*
X75915026Y-73169448D01*
X75903044Y-73149457D01*
X75893079Y-73128387D01*
X75885227Y-73106443D01*
X75879563Y-73083834D01*
X75876144Y-73060779D01*
X75875000Y-73037500D01*
X75875000Y-72562500D01*
X75876144Y-72539221D01*
X75879563Y-72516166D01*
X75885227Y-72493557D01*
X75893079Y-72471613D01*
X75903044Y-72450543D01*
X75915026Y-72430552D01*
X75928910Y-72411832D01*
X75944562Y-72394562D01*
X75961832Y-72378910D01*
X75980552Y-72365026D01*
X76000543Y-72353044D01*
X76021613Y-72343079D01*
X76043557Y-72335227D01*
X76066166Y-72329563D01*
X76089221Y-72326144D01*
X76112500Y-72325000D01*
X76687500Y-72325000D01*
X76710779Y-72326144D01*
X76710779Y-72326144D01*
G37*
D15*
X76400000Y-72800000D03*
G04 #@! TD*
D14*
G04 #@! TO.C,R3*
G36*
X79460779Y-99351144D02*
X79483834Y-99354563D01*
X79506443Y-99360227D01*
X79528387Y-99368079D01*
X79549457Y-99378044D01*
X79569448Y-99390026D01*
X79588168Y-99403910D01*
X79605438Y-99419562D01*
X79621090Y-99436832D01*
X79634974Y-99455552D01*
X79646956Y-99475543D01*
X79656921Y-99496613D01*
X79664773Y-99518557D01*
X79670437Y-99541166D01*
X79673856Y-99564221D01*
X79675000Y-99587500D01*
X79675000Y-100162500D01*
X79673856Y-100185779D01*
X79670437Y-100208834D01*
X79664773Y-100231443D01*
X79656921Y-100253387D01*
X79646956Y-100274457D01*
X79634974Y-100294448D01*
X79621090Y-100313168D01*
X79605438Y-100330438D01*
X79588168Y-100346090D01*
X79569448Y-100359974D01*
X79549457Y-100371956D01*
X79528387Y-100381921D01*
X79506443Y-100389773D01*
X79483834Y-100395437D01*
X79460779Y-100398856D01*
X79437500Y-100400000D01*
X78962500Y-100400000D01*
X78939221Y-100398856D01*
X78916166Y-100395437D01*
X78893557Y-100389773D01*
X78871613Y-100381921D01*
X78850543Y-100371956D01*
X78830552Y-100359974D01*
X78811832Y-100346090D01*
X78794562Y-100330438D01*
X78778910Y-100313168D01*
X78765026Y-100294448D01*
X78753044Y-100274457D01*
X78743079Y-100253387D01*
X78735227Y-100231443D01*
X78729563Y-100208834D01*
X78726144Y-100185779D01*
X78725000Y-100162500D01*
X78725000Y-99587500D01*
X78726144Y-99564221D01*
X78729563Y-99541166D01*
X78735227Y-99518557D01*
X78743079Y-99496613D01*
X78753044Y-99475543D01*
X78765026Y-99455552D01*
X78778910Y-99436832D01*
X78794562Y-99419562D01*
X78811832Y-99403910D01*
X78830552Y-99390026D01*
X78850543Y-99378044D01*
X78871613Y-99368079D01*
X78893557Y-99360227D01*
X78916166Y-99354563D01*
X78939221Y-99351144D01*
X78962500Y-99350000D01*
X79437500Y-99350000D01*
X79460779Y-99351144D01*
X79460779Y-99351144D01*
G37*
D15*
X79200000Y-99875000D03*
D14*
G36*
X79460779Y-97601144D02*
X79483834Y-97604563D01*
X79506443Y-97610227D01*
X79528387Y-97618079D01*
X79549457Y-97628044D01*
X79569448Y-97640026D01*
X79588168Y-97653910D01*
X79605438Y-97669562D01*
X79621090Y-97686832D01*
X79634974Y-97705552D01*
X79646956Y-97725543D01*
X79656921Y-97746613D01*
X79664773Y-97768557D01*
X79670437Y-97791166D01*
X79673856Y-97814221D01*
X79675000Y-97837500D01*
X79675000Y-98412500D01*
X79673856Y-98435779D01*
X79670437Y-98458834D01*
X79664773Y-98481443D01*
X79656921Y-98503387D01*
X79646956Y-98524457D01*
X79634974Y-98544448D01*
X79621090Y-98563168D01*
X79605438Y-98580438D01*
X79588168Y-98596090D01*
X79569448Y-98609974D01*
X79549457Y-98621956D01*
X79528387Y-98631921D01*
X79506443Y-98639773D01*
X79483834Y-98645437D01*
X79460779Y-98648856D01*
X79437500Y-98650000D01*
X78962500Y-98650000D01*
X78939221Y-98648856D01*
X78916166Y-98645437D01*
X78893557Y-98639773D01*
X78871613Y-98631921D01*
X78850543Y-98621956D01*
X78830552Y-98609974D01*
X78811832Y-98596090D01*
X78794562Y-98580438D01*
X78778910Y-98563168D01*
X78765026Y-98544448D01*
X78753044Y-98524457D01*
X78743079Y-98503387D01*
X78735227Y-98481443D01*
X78729563Y-98458834D01*
X78726144Y-98435779D01*
X78725000Y-98412500D01*
X78725000Y-97837500D01*
X78726144Y-97814221D01*
X78729563Y-97791166D01*
X78735227Y-97768557D01*
X78743079Y-97746613D01*
X78753044Y-97725543D01*
X78765026Y-97705552D01*
X78778910Y-97686832D01*
X78794562Y-97669562D01*
X78811832Y-97653910D01*
X78830552Y-97640026D01*
X78850543Y-97628044D01*
X78871613Y-97618079D01*
X78893557Y-97610227D01*
X78916166Y-97604563D01*
X78939221Y-97601144D01*
X78962500Y-97600000D01*
X79437500Y-97600000D01*
X79460779Y-97601144D01*
X79460779Y-97601144D01*
G37*
D15*
X79200000Y-98125000D03*
G04 #@! TD*
M02*
