M48
;DRILL file {KiCad (5.0.0)} date 05/15/20 17:20:22
;FORMAT={-:-/ absolute / inch / decimal}
FMAT,2
INCH,TZ
T1C0.0157
T2C0.0197
T3C0.0394
%
G90
G05
M72
T1
X3.063Y-3.9449
X3.0709Y-3.1024
X3.0866Y-2.7008
X3.0866Y-3.3543
X3.0945Y-3.4252
X3.1339Y-3.0236
X3.1339Y-3.4803
X3.1339Y-3.748
X3.1732Y-3.0315
X3.1811Y-3.2283
X3.1811Y-3.4331
X3.189Y-3.0787
X3.189Y-3.7638
X3.2126Y-3.7087
X3.2441Y-3.9528
X3.2677Y-3.5039
X3.2756Y-2.8976
X3.2756Y-3.5906
X3.2992Y-3.6772
X3.315Y-2.8661
X3.3465Y-2.9291
X3.3543Y-2.8346
X3.3573Y-2.8913
X3.3622Y-3.6772
X3.3701Y-3.4252
X3.3858Y-2.9291
X3.4016Y-2.8346
X3.4252Y-3.4213
X3.4409Y-3.9528
X3.4567Y-3.4882
X3.4828Y-3.4182
X3.4961Y-3.7795
X3.5118Y-2.8268
X3.5197Y-3.0787
X3.5197Y-3.2205
X3.5433Y-3.2913
X3.5512Y-2.9567
X3.5591Y-3.5039
X3.5591Y-3.7323
X3.5669Y-3.5827
X3.5827Y-2.9291
X3.5827Y-3.6929
X3.5906Y-3.7874
X3.6457Y-3.9606
X3.6693Y-2.9055
T3
X3.Y-3.
X3.Y-3.1
X3.Y-3.2
X3.Y-3.3
X3.Y-3.4
X3.Y-3.5
X3.Y-3.6
X3.Y-3.7
X3.Y-3.8
X3.Y-3.9
X3.7Y-3.
X3.7Y-3.1
X3.7Y-3.2
X3.7Y-3.3
X3.7Y-3.4
X3.7Y-3.5
X3.7Y-3.6
X3.7Y-3.7
X3.7Y-3.8
X3.7Y-3.9
T2
X3.2323Y-2.6831G85X3.2323Y-2.6555
G05
X3.4921Y-2.6831G85X3.4921Y-2.6555
G05
T0
M30
