G04 #@! TF.GenerationSoftware,KiCad,Pcbnew,(5.0.0)*
G04 #@! TF.CreationDate,2020-05-15T17:20:18+01:00*
G04 #@! TF.ProjectId,CH552-USB-Devboard,43483535322D5553422D446576626F61,rev?*
G04 #@! TF.SameCoordinates,Original*
G04 #@! TF.FileFunction,Copper,L1,Top,Signal*
G04 #@! TF.FilePolarity,Positive*
%FSLAX46Y46*%
G04 Gerber Fmt 4.6, Leading zero omitted, Abs format (unit mm)*
G04 Created by KiCad (PCBNEW (5.0.0)) date 05/15/20 17:20:18*
%MOMM*%
%LPD*%
G01*
G04 APERTURE LIST*
G04 #@! TA.AperFunction,SMDPad,CuDef*
%ADD10R,1.050000X0.650000*%
G04 #@! TD*
G04 #@! TA.AperFunction,SMDPad,CuDef*
%ADD11R,0.400000X1.350000*%
G04 #@! TD*
G04 #@! TA.AperFunction,ComponentPad*
%ADD12O,0.900000X1.600000*%
G04 #@! TD*
G04 #@! TA.AperFunction,SMDPad,CuDef*
%ADD13R,1.600000X1.400000*%
G04 #@! TD*
G04 #@! TA.AperFunction,SMDPad,CuDef*
%ADD14R,1.900000X1.900000*%
G04 #@! TD*
G04 #@! TA.AperFunction,Conductor*
%ADD15C,0.100000*%
G04 #@! TD*
G04 #@! TA.AperFunction,SMDPad,CuDef*
%ADD16C,0.950000*%
G04 #@! TD*
G04 #@! TA.AperFunction,ComponentPad*
%ADD17O,1.700000X1.700000*%
G04 #@! TD*
G04 #@! TA.AperFunction,ComponentPad*
%ADD18R,1.700000X1.700000*%
G04 #@! TD*
G04 #@! TA.AperFunction,SMDPad,CuDef*
%ADD19R,0.600000X1.500000*%
G04 #@! TD*
G04 #@! TA.AperFunction,SMDPad,CuDef*
%ADD20R,0.450000X1.450000*%
G04 #@! TD*
G04 #@! TA.AperFunction,SMDPad,CuDef*
%ADD21R,1.200000X1.200000*%
G04 #@! TD*
G04 #@! TA.AperFunction,ViaPad*
%ADD22C,0.800000*%
G04 #@! TD*
G04 #@! TA.AperFunction,Conductor*
%ADD23C,0.200000*%
G04 #@! TD*
G04 #@! TA.AperFunction,Conductor*
%ADD24C,0.250000*%
G04 #@! TD*
G04 APERTURE END LIST*
D10*
G04 #@! TO.P,SW2,2*
G04 #@! TO.N,VCC*
X87150000Y-92350000D03*
X83000000Y-92350000D03*
G04 #@! TO.P,SW2,1*
G04 #@! TO.N,/RESET*
X87150000Y-90200000D03*
X83000000Y-90200000D03*
G04 #@! TD*
G04 #@! TO.P,SW1,1*
G04 #@! TO.N,+3V3*
X83000000Y-94400000D03*
X87150000Y-94400000D03*
G04 #@! TO.P,SW1,2*
G04 #@! TO.N,/P3.6*
X83000000Y-96550000D03*
X87150000Y-96550000D03*
G04 #@! TD*
D11*
G04 #@! TO.P,J3,3*
G04 #@! TO.N,/P3.6*
X85400000Y-70475000D03*
G04 #@! TO.P,J3,4*
G04 #@! TO.N,Net-(J3-Pad4)*
X84750000Y-70475000D03*
G04 #@! TO.P,J3,5*
G04 #@! TO.N,GND*
X84100000Y-70475000D03*
G04 #@! TO.P,J3,2*
G04 #@! TO.N,/P3.7*
X86050000Y-70475000D03*
G04 #@! TO.P,J3,1*
G04 #@! TO.N,VCC*
X86700000Y-70475000D03*
D12*
G04 #@! TO.P,J3,SH*
G04 #@! TO.N,GND*
X82100000Y-67800000D03*
X88700000Y-67800000D03*
D13*
X88600000Y-70250000D03*
X82200000Y-70250000D03*
D14*
X86600000Y-67800000D03*
X84200000Y-67800000D03*
G04 #@! TD*
D15*
G04 #@! TO.N,GND*
G04 #@! TO.C,C1*
G36*
X82260779Y-72201144D02*
X82283834Y-72204563D01*
X82306443Y-72210227D01*
X82328387Y-72218079D01*
X82349457Y-72228044D01*
X82369448Y-72240026D01*
X82388168Y-72253910D01*
X82405438Y-72269562D01*
X82421090Y-72286832D01*
X82434974Y-72305552D01*
X82446956Y-72325543D01*
X82456921Y-72346613D01*
X82464773Y-72368557D01*
X82470437Y-72391166D01*
X82473856Y-72414221D01*
X82475000Y-72437500D01*
X82475000Y-73012500D01*
X82473856Y-73035779D01*
X82470437Y-73058834D01*
X82464773Y-73081443D01*
X82456921Y-73103387D01*
X82446956Y-73124457D01*
X82434974Y-73144448D01*
X82421090Y-73163168D01*
X82405438Y-73180438D01*
X82388168Y-73196090D01*
X82369448Y-73209974D01*
X82349457Y-73221956D01*
X82328387Y-73231921D01*
X82306443Y-73239773D01*
X82283834Y-73245437D01*
X82260779Y-73248856D01*
X82237500Y-73250000D01*
X81762500Y-73250000D01*
X81739221Y-73248856D01*
X81716166Y-73245437D01*
X81693557Y-73239773D01*
X81671613Y-73231921D01*
X81650543Y-73221956D01*
X81630552Y-73209974D01*
X81611832Y-73196090D01*
X81594562Y-73180438D01*
X81578910Y-73163168D01*
X81565026Y-73144448D01*
X81553044Y-73124457D01*
X81543079Y-73103387D01*
X81535227Y-73081443D01*
X81529563Y-73058834D01*
X81526144Y-73035779D01*
X81525000Y-73012500D01*
X81525000Y-72437500D01*
X81526144Y-72414221D01*
X81529563Y-72391166D01*
X81535227Y-72368557D01*
X81543079Y-72346613D01*
X81553044Y-72325543D01*
X81565026Y-72305552D01*
X81578910Y-72286832D01*
X81594562Y-72269562D01*
X81611832Y-72253910D01*
X81630552Y-72240026D01*
X81650543Y-72228044D01*
X81671613Y-72218079D01*
X81693557Y-72210227D01*
X81716166Y-72204563D01*
X81739221Y-72201144D01*
X81762500Y-72200000D01*
X82237500Y-72200000D01*
X82260779Y-72201144D01*
X82260779Y-72201144D01*
G37*
D16*
G04 #@! TD*
G04 #@! TO.P,C1,2*
G04 #@! TO.N,GND*
X82000000Y-72725000D03*
D15*
G04 #@! TO.N,VCC*
G04 #@! TO.C,C1*
G36*
X82260779Y-73951144D02*
X82283834Y-73954563D01*
X82306443Y-73960227D01*
X82328387Y-73968079D01*
X82349457Y-73978044D01*
X82369448Y-73990026D01*
X82388168Y-74003910D01*
X82405438Y-74019562D01*
X82421090Y-74036832D01*
X82434974Y-74055552D01*
X82446956Y-74075543D01*
X82456921Y-74096613D01*
X82464773Y-74118557D01*
X82470437Y-74141166D01*
X82473856Y-74164221D01*
X82475000Y-74187500D01*
X82475000Y-74762500D01*
X82473856Y-74785779D01*
X82470437Y-74808834D01*
X82464773Y-74831443D01*
X82456921Y-74853387D01*
X82446956Y-74874457D01*
X82434974Y-74894448D01*
X82421090Y-74913168D01*
X82405438Y-74930438D01*
X82388168Y-74946090D01*
X82369448Y-74959974D01*
X82349457Y-74971956D01*
X82328387Y-74981921D01*
X82306443Y-74989773D01*
X82283834Y-74995437D01*
X82260779Y-74998856D01*
X82237500Y-75000000D01*
X81762500Y-75000000D01*
X81739221Y-74998856D01*
X81716166Y-74995437D01*
X81693557Y-74989773D01*
X81671613Y-74981921D01*
X81650543Y-74971956D01*
X81630552Y-74959974D01*
X81611832Y-74946090D01*
X81594562Y-74930438D01*
X81578910Y-74913168D01*
X81565026Y-74894448D01*
X81553044Y-74874457D01*
X81543079Y-74853387D01*
X81535227Y-74831443D01*
X81529563Y-74808834D01*
X81526144Y-74785779D01*
X81525000Y-74762500D01*
X81525000Y-74187500D01*
X81526144Y-74164221D01*
X81529563Y-74141166D01*
X81535227Y-74118557D01*
X81543079Y-74096613D01*
X81553044Y-74075543D01*
X81565026Y-74055552D01*
X81578910Y-74036832D01*
X81594562Y-74019562D01*
X81611832Y-74003910D01*
X81630552Y-73990026D01*
X81650543Y-73978044D01*
X81671613Y-73968079D01*
X81693557Y-73960227D01*
X81716166Y-73954563D01*
X81739221Y-73951144D01*
X81762500Y-73950000D01*
X82237500Y-73950000D01*
X82260779Y-73951144D01*
X82260779Y-73951144D01*
G37*
D16*
G04 #@! TD*
G04 #@! TO.P,C1,1*
G04 #@! TO.N,VCC*
X82000000Y-74475000D03*
D15*
G04 #@! TO.N,+3V3*
G04 #@! TO.C,C2*
G36*
X80260779Y-73951144D02*
X80283834Y-73954563D01*
X80306443Y-73960227D01*
X80328387Y-73968079D01*
X80349457Y-73978044D01*
X80369448Y-73990026D01*
X80388168Y-74003910D01*
X80405438Y-74019562D01*
X80421090Y-74036832D01*
X80434974Y-74055552D01*
X80446956Y-74075543D01*
X80456921Y-74096613D01*
X80464773Y-74118557D01*
X80470437Y-74141166D01*
X80473856Y-74164221D01*
X80475000Y-74187500D01*
X80475000Y-74762500D01*
X80473856Y-74785779D01*
X80470437Y-74808834D01*
X80464773Y-74831443D01*
X80456921Y-74853387D01*
X80446956Y-74874457D01*
X80434974Y-74894448D01*
X80421090Y-74913168D01*
X80405438Y-74930438D01*
X80388168Y-74946090D01*
X80369448Y-74959974D01*
X80349457Y-74971956D01*
X80328387Y-74981921D01*
X80306443Y-74989773D01*
X80283834Y-74995437D01*
X80260779Y-74998856D01*
X80237500Y-75000000D01*
X79762500Y-75000000D01*
X79739221Y-74998856D01*
X79716166Y-74995437D01*
X79693557Y-74989773D01*
X79671613Y-74981921D01*
X79650543Y-74971956D01*
X79630552Y-74959974D01*
X79611832Y-74946090D01*
X79594562Y-74930438D01*
X79578910Y-74913168D01*
X79565026Y-74894448D01*
X79553044Y-74874457D01*
X79543079Y-74853387D01*
X79535227Y-74831443D01*
X79529563Y-74808834D01*
X79526144Y-74785779D01*
X79525000Y-74762500D01*
X79525000Y-74187500D01*
X79526144Y-74164221D01*
X79529563Y-74141166D01*
X79535227Y-74118557D01*
X79543079Y-74096613D01*
X79553044Y-74075543D01*
X79565026Y-74055552D01*
X79578910Y-74036832D01*
X79594562Y-74019562D01*
X79611832Y-74003910D01*
X79630552Y-73990026D01*
X79650543Y-73978044D01*
X79671613Y-73968079D01*
X79693557Y-73960227D01*
X79716166Y-73954563D01*
X79739221Y-73951144D01*
X79762500Y-73950000D01*
X80237500Y-73950000D01*
X80260779Y-73951144D01*
X80260779Y-73951144D01*
G37*
D16*
G04 #@! TD*
G04 #@! TO.P,C2,1*
G04 #@! TO.N,+3V3*
X80000000Y-74475000D03*
D15*
G04 #@! TO.N,GND*
G04 #@! TO.C,C2*
G36*
X80260779Y-72201144D02*
X80283834Y-72204563D01*
X80306443Y-72210227D01*
X80328387Y-72218079D01*
X80349457Y-72228044D01*
X80369448Y-72240026D01*
X80388168Y-72253910D01*
X80405438Y-72269562D01*
X80421090Y-72286832D01*
X80434974Y-72305552D01*
X80446956Y-72325543D01*
X80456921Y-72346613D01*
X80464773Y-72368557D01*
X80470437Y-72391166D01*
X80473856Y-72414221D01*
X80475000Y-72437500D01*
X80475000Y-73012500D01*
X80473856Y-73035779D01*
X80470437Y-73058834D01*
X80464773Y-73081443D01*
X80456921Y-73103387D01*
X80446956Y-73124457D01*
X80434974Y-73144448D01*
X80421090Y-73163168D01*
X80405438Y-73180438D01*
X80388168Y-73196090D01*
X80369448Y-73209974D01*
X80349457Y-73221956D01*
X80328387Y-73231921D01*
X80306443Y-73239773D01*
X80283834Y-73245437D01*
X80260779Y-73248856D01*
X80237500Y-73250000D01*
X79762500Y-73250000D01*
X79739221Y-73248856D01*
X79716166Y-73245437D01*
X79693557Y-73239773D01*
X79671613Y-73231921D01*
X79650543Y-73221956D01*
X79630552Y-73209974D01*
X79611832Y-73196090D01*
X79594562Y-73180438D01*
X79578910Y-73163168D01*
X79565026Y-73144448D01*
X79553044Y-73124457D01*
X79543079Y-73103387D01*
X79535227Y-73081443D01*
X79529563Y-73058834D01*
X79526144Y-73035779D01*
X79525000Y-73012500D01*
X79525000Y-72437500D01*
X79526144Y-72414221D01*
X79529563Y-72391166D01*
X79535227Y-72368557D01*
X79543079Y-72346613D01*
X79553044Y-72325543D01*
X79565026Y-72305552D01*
X79578910Y-72286832D01*
X79594562Y-72269562D01*
X79611832Y-72253910D01*
X79630552Y-72240026D01*
X79650543Y-72228044D01*
X79671613Y-72218079D01*
X79693557Y-72210227D01*
X79716166Y-72204563D01*
X79739221Y-72201144D01*
X79762500Y-72200000D01*
X80237500Y-72200000D01*
X80260779Y-72201144D01*
X80260779Y-72201144D01*
G37*
D16*
G04 #@! TD*
G04 #@! TO.P,C2,2*
G04 #@! TO.N,GND*
X80000000Y-72725000D03*
D15*
G04 #@! TO.N,/RESET*
G04 #@! TO.C,C3*
G36*
X79860779Y-91276144D02*
X79883834Y-91279563D01*
X79906443Y-91285227D01*
X79928387Y-91293079D01*
X79949457Y-91303044D01*
X79969448Y-91315026D01*
X79988168Y-91328910D01*
X80005438Y-91344562D01*
X80021090Y-91361832D01*
X80034974Y-91380552D01*
X80046956Y-91400543D01*
X80056921Y-91421613D01*
X80064773Y-91443557D01*
X80070437Y-91466166D01*
X80073856Y-91489221D01*
X80075000Y-91512500D01*
X80075000Y-92087500D01*
X80073856Y-92110779D01*
X80070437Y-92133834D01*
X80064773Y-92156443D01*
X80056921Y-92178387D01*
X80046956Y-92199457D01*
X80034974Y-92219448D01*
X80021090Y-92238168D01*
X80005438Y-92255438D01*
X79988168Y-92271090D01*
X79969448Y-92284974D01*
X79949457Y-92296956D01*
X79928387Y-92306921D01*
X79906443Y-92314773D01*
X79883834Y-92320437D01*
X79860779Y-92323856D01*
X79837500Y-92325000D01*
X79362500Y-92325000D01*
X79339221Y-92323856D01*
X79316166Y-92320437D01*
X79293557Y-92314773D01*
X79271613Y-92306921D01*
X79250543Y-92296956D01*
X79230552Y-92284974D01*
X79211832Y-92271090D01*
X79194562Y-92255438D01*
X79178910Y-92238168D01*
X79165026Y-92219448D01*
X79153044Y-92199457D01*
X79143079Y-92178387D01*
X79135227Y-92156443D01*
X79129563Y-92133834D01*
X79126144Y-92110779D01*
X79125000Y-92087500D01*
X79125000Y-91512500D01*
X79126144Y-91489221D01*
X79129563Y-91466166D01*
X79135227Y-91443557D01*
X79143079Y-91421613D01*
X79153044Y-91400543D01*
X79165026Y-91380552D01*
X79178910Y-91361832D01*
X79194562Y-91344562D01*
X79211832Y-91328910D01*
X79230552Y-91315026D01*
X79250543Y-91303044D01*
X79271613Y-91293079D01*
X79293557Y-91285227D01*
X79316166Y-91279563D01*
X79339221Y-91276144D01*
X79362500Y-91275000D01*
X79837500Y-91275000D01*
X79860779Y-91276144D01*
X79860779Y-91276144D01*
G37*
D16*
G04 #@! TD*
G04 #@! TO.P,C3,2*
G04 #@! TO.N,/RESET*
X79600000Y-91800000D03*
D15*
G04 #@! TO.N,VCC*
G04 #@! TO.C,C3*
G36*
X79860779Y-93026144D02*
X79883834Y-93029563D01*
X79906443Y-93035227D01*
X79928387Y-93043079D01*
X79949457Y-93053044D01*
X79969448Y-93065026D01*
X79988168Y-93078910D01*
X80005438Y-93094562D01*
X80021090Y-93111832D01*
X80034974Y-93130552D01*
X80046956Y-93150543D01*
X80056921Y-93171613D01*
X80064773Y-93193557D01*
X80070437Y-93216166D01*
X80073856Y-93239221D01*
X80075000Y-93262500D01*
X80075000Y-93837500D01*
X80073856Y-93860779D01*
X80070437Y-93883834D01*
X80064773Y-93906443D01*
X80056921Y-93928387D01*
X80046956Y-93949457D01*
X80034974Y-93969448D01*
X80021090Y-93988168D01*
X80005438Y-94005438D01*
X79988168Y-94021090D01*
X79969448Y-94034974D01*
X79949457Y-94046956D01*
X79928387Y-94056921D01*
X79906443Y-94064773D01*
X79883834Y-94070437D01*
X79860779Y-94073856D01*
X79837500Y-94075000D01*
X79362500Y-94075000D01*
X79339221Y-94073856D01*
X79316166Y-94070437D01*
X79293557Y-94064773D01*
X79271613Y-94056921D01*
X79250543Y-94046956D01*
X79230552Y-94034974D01*
X79211832Y-94021090D01*
X79194562Y-94005438D01*
X79178910Y-93988168D01*
X79165026Y-93969448D01*
X79153044Y-93949457D01*
X79143079Y-93928387D01*
X79135227Y-93906443D01*
X79129563Y-93883834D01*
X79126144Y-93860779D01*
X79125000Y-93837500D01*
X79125000Y-93262500D01*
X79126144Y-93239221D01*
X79129563Y-93216166D01*
X79135227Y-93193557D01*
X79143079Y-93171613D01*
X79153044Y-93150543D01*
X79165026Y-93130552D01*
X79178910Y-93111832D01*
X79194562Y-93094562D01*
X79211832Y-93078910D01*
X79230552Y-93065026D01*
X79250543Y-93053044D01*
X79271613Y-93043079D01*
X79293557Y-93035227D01*
X79316166Y-93029563D01*
X79339221Y-93026144D01*
X79362500Y-93025000D01*
X79837500Y-93025000D01*
X79860779Y-93026144D01*
X79860779Y-93026144D01*
G37*
D16*
G04 #@! TD*
G04 #@! TO.P,C3,1*
G04 #@! TO.N,VCC*
X79600000Y-93550000D03*
D15*
G04 #@! TO.N,VCC*
G04 #@! TO.C,C4*
G36*
X91760779Y-70526144D02*
X91783834Y-70529563D01*
X91806443Y-70535227D01*
X91828387Y-70543079D01*
X91849457Y-70553044D01*
X91869448Y-70565026D01*
X91888168Y-70578910D01*
X91905438Y-70594562D01*
X91921090Y-70611832D01*
X91934974Y-70630552D01*
X91946956Y-70650543D01*
X91956921Y-70671613D01*
X91964773Y-70693557D01*
X91970437Y-70716166D01*
X91973856Y-70739221D01*
X91975000Y-70762500D01*
X91975000Y-71237500D01*
X91973856Y-71260779D01*
X91970437Y-71283834D01*
X91964773Y-71306443D01*
X91956921Y-71328387D01*
X91946956Y-71349457D01*
X91934974Y-71369448D01*
X91921090Y-71388168D01*
X91905438Y-71405438D01*
X91888168Y-71421090D01*
X91869448Y-71434974D01*
X91849457Y-71446956D01*
X91828387Y-71456921D01*
X91806443Y-71464773D01*
X91783834Y-71470437D01*
X91760779Y-71473856D01*
X91737500Y-71475000D01*
X91162500Y-71475000D01*
X91139221Y-71473856D01*
X91116166Y-71470437D01*
X91093557Y-71464773D01*
X91071613Y-71456921D01*
X91050543Y-71446956D01*
X91030552Y-71434974D01*
X91011832Y-71421090D01*
X90994562Y-71405438D01*
X90978910Y-71388168D01*
X90965026Y-71369448D01*
X90953044Y-71349457D01*
X90943079Y-71328387D01*
X90935227Y-71306443D01*
X90929563Y-71283834D01*
X90926144Y-71260779D01*
X90925000Y-71237500D01*
X90925000Y-70762500D01*
X90926144Y-70739221D01*
X90929563Y-70716166D01*
X90935227Y-70693557D01*
X90943079Y-70671613D01*
X90953044Y-70650543D01*
X90965026Y-70630552D01*
X90978910Y-70611832D01*
X90994562Y-70594562D01*
X91011832Y-70578910D01*
X91030552Y-70565026D01*
X91050543Y-70553044D01*
X91071613Y-70543079D01*
X91093557Y-70535227D01*
X91116166Y-70529563D01*
X91139221Y-70526144D01*
X91162500Y-70525000D01*
X91737500Y-70525000D01*
X91760779Y-70526144D01*
X91760779Y-70526144D01*
G37*
D16*
G04 #@! TD*
G04 #@! TO.P,C4,1*
G04 #@! TO.N,VCC*
X91450000Y-71000000D03*
D15*
G04 #@! TO.N,GND*
G04 #@! TO.C,C4*
G36*
X93510779Y-70526144D02*
X93533834Y-70529563D01*
X93556443Y-70535227D01*
X93578387Y-70543079D01*
X93599457Y-70553044D01*
X93619448Y-70565026D01*
X93638168Y-70578910D01*
X93655438Y-70594562D01*
X93671090Y-70611832D01*
X93684974Y-70630552D01*
X93696956Y-70650543D01*
X93706921Y-70671613D01*
X93714773Y-70693557D01*
X93720437Y-70716166D01*
X93723856Y-70739221D01*
X93725000Y-70762500D01*
X93725000Y-71237500D01*
X93723856Y-71260779D01*
X93720437Y-71283834D01*
X93714773Y-71306443D01*
X93706921Y-71328387D01*
X93696956Y-71349457D01*
X93684974Y-71369448D01*
X93671090Y-71388168D01*
X93655438Y-71405438D01*
X93638168Y-71421090D01*
X93619448Y-71434974D01*
X93599457Y-71446956D01*
X93578387Y-71456921D01*
X93556443Y-71464773D01*
X93533834Y-71470437D01*
X93510779Y-71473856D01*
X93487500Y-71475000D01*
X92912500Y-71475000D01*
X92889221Y-71473856D01*
X92866166Y-71470437D01*
X92843557Y-71464773D01*
X92821613Y-71456921D01*
X92800543Y-71446956D01*
X92780552Y-71434974D01*
X92761832Y-71421090D01*
X92744562Y-71405438D01*
X92728910Y-71388168D01*
X92715026Y-71369448D01*
X92703044Y-71349457D01*
X92693079Y-71328387D01*
X92685227Y-71306443D01*
X92679563Y-71283834D01*
X92676144Y-71260779D01*
X92675000Y-71237500D01*
X92675000Y-70762500D01*
X92676144Y-70739221D01*
X92679563Y-70716166D01*
X92685227Y-70693557D01*
X92693079Y-70671613D01*
X92703044Y-70650543D01*
X92715026Y-70630552D01*
X92728910Y-70611832D01*
X92744562Y-70594562D01*
X92761832Y-70578910D01*
X92780552Y-70565026D01*
X92800543Y-70553044D01*
X92821613Y-70543079D01*
X92843557Y-70535227D01*
X92866166Y-70529563D01*
X92889221Y-70526144D01*
X92912500Y-70525000D01*
X93487500Y-70525000D01*
X93510779Y-70526144D01*
X93510779Y-70526144D01*
G37*
D16*
G04 #@! TD*
G04 #@! TO.P,C4,2*
G04 #@! TO.N,GND*
X93200000Y-71000000D03*
D17*
G04 #@! TO.P,J1,10*
G04 #@! TO.N,/P1.7*
X76200000Y-99060000D03*
G04 #@! TO.P,J1,9*
G04 #@! TO.N,/P1.6*
X76200000Y-96520000D03*
G04 #@! TO.P,J1,8*
G04 #@! TO.N,/P1.5*
X76200000Y-93980000D03*
G04 #@! TO.P,J1,7*
G04 #@! TO.N,/P1.4*
X76200000Y-91440000D03*
G04 #@! TO.P,J1,6*
G04 #@! TO.N,/P1.3*
X76200000Y-88900000D03*
G04 #@! TO.P,J1,5*
G04 #@! TO.N,/P1.2*
X76200000Y-86360000D03*
G04 #@! TO.P,J1,4*
G04 #@! TO.N,/P1.1*
X76200000Y-83820000D03*
G04 #@! TO.P,J1,3*
G04 #@! TO.N,/P1.0*
X76200000Y-81280000D03*
G04 #@! TO.P,J1,2*
G04 #@! TO.N,+3V3*
X76200000Y-78740000D03*
D18*
G04 #@! TO.P,J1,1*
G04 #@! TO.N,VCC*
X76200000Y-76200000D03*
G04 #@! TD*
G04 #@! TO.P,J2,1*
G04 #@! TO.N,GND*
X93980000Y-76200000D03*
D17*
G04 #@! TO.P,J2,2*
G04 #@! TO.N,/RESET*
X93980000Y-78740000D03*
G04 #@! TO.P,J2,3*
G04 #@! TO.N,/P3.0*
X93980000Y-81280000D03*
G04 #@! TO.P,J2,4*
G04 #@! TO.N,/P3.1*
X93980000Y-83820000D03*
G04 #@! TO.P,J2,5*
G04 #@! TO.N,/P3.2*
X93980000Y-86360000D03*
G04 #@! TO.P,J2,6*
G04 #@! TO.N,/P3.3*
X93980000Y-88900000D03*
G04 #@! TO.P,J2,7*
G04 #@! TO.N,/P3.4*
X93980000Y-91440000D03*
G04 #@! TO.P,J2,8*
G04 #@! TO.N,/P3.5*
X93980000Y-93980000D03*
G04 #@! TO.P,J2,9*
G04 #@! TO.N,/P3.6*
X93980000Y-96520000D03*
G04 #@! TO.P,J2,10*
G04 #@! TO.N,/P3.7*
X93980000Y-99060000D03*
G04 #@! TD*
D19*
G04 #@! TO.P,U2,16*
G04 #@! TO.N,+3V3*
X80734192Y-79980020D03*
G04 #@! TO.P,U2,15*
G04 #@! TO.N,VCC*
X82004192Y-79980020D03*
G04 #@! TO.P,U2,14*
G04 #@! TO.N,GND*
X83274192Y-79980020D03*
G04 #@! TO.P,U2,13*
G04 #@! TO.N,/P3.7*
X84544192Y-79980020D03*
G04 #@! TO.P,U2,12*
G04 #@! TO.N,/P3.6*
X85814192Y-79980020D03*
G04 #@! TO.P,U2,11*
G04 #@! TO.N,/P3.4*
X87084192Y-79980020D03*
G04 #@! TO.P,U2,10*
G04 #@! TO.N,/P3.3*
X88354192Y-79980020D03*
G04 #@! TO.P,U2,9*
G04 #@! TO.N,/P1.1*
X89624192Y-79980020D03*
G04 #@! TO.P,U2,8*
G04 #@! TO.N,/P3.1*
X89624192Y-85380020D03*
G04 #@! TO.P,U2,7*
G04 #@! TO.N,/P3.0*
X88354192Y-85380020D03*
G04 #@! TO.P,U2,6*
G04 #@! TO.N,/RESET*
X87084192Y-85380020D03*
G04 #@! TO.P,U2,5*
G04 #@! TO.N,/P1.7*
X85814192Y-85380020D03*
G04 #@! TO.P,U2,4*
G04 #@! TO.N,/P1.6*
X84544192Y-85380020D03*
G04 #@! TO.P,U2,3*
G04 #@! TO.N,/P1.5*
X83274192Y-85380020D03*
G04 #@! TO.P,U2,2*
G04 #@! TO.N,/P1.4*
X82004192Y-85380020D03*
G04 #@! TO.P,U2,1*
G04 #@! TO.N,/P3.2*
X80734192Y-85380020D03*
G04 #@! TD*
D20*
G04 #@! TO.P,U1,20*
G04 #@! TO.N,+3V3*
X82254192Y-76730020D03*
G04 #@! TO.P,U1,19*
G04 #@! TO.N,VCC*
X82904192Y-76730020D03*
G04 #@! TO.P,U1,18*
G04 #@! TO.N,GND*
X83554192Y-76730020D03*
G04 #@! TO.P,U1,17*
G04 #@! TO.N,/P1.2*
X84204192Y-76730020D03*
G04 #@! TO.P,U1,16*
G04 #@! TO.N,/P1.3*
X84854192Y-76730020D03*
G04 #@! TO.P,U1,15*
G04 #@! TO.N,/P3.7*
X85504192Y-76730020D03*
G04 #@! TO.P,U1,14*
G04 #@! TO.N,/P3.6*
X86154192Y-76730020D03*
G04 #@! TO.P,U1,13*
G04 #@! TO.N,/P3.5*
X86804192Y-76730020D03*
G04 #@! TO.P,U1,12*
G04 #@! TO.N,/P3.4*
X87454192Y-76730020D03*
G04 #@! TO.P,U1,11*
G04 #@! TO.N,/P3.3*
X88104192Y-76730020D03*
G04 #@! TO.P,U1,10*
G04 #@! TO.N,/P3.0*
X88104192Y-82630020D03*
G04 #@! TO.P,U1,9*
G04 #@! TO.N,/P3.1*
X87454192Y-82630020D03*
G04 #@! TO.P,U1,8*
G04 #@! TO.N,/P1.1*
X86804192Y-82630020D03*
G04 #@! TO.P,U1,7*
G04 #@! TO.N,/P1.0*
X86154192Y-82630020D03*
G04 #@! TO.P,U1,6*
G04 #@! TO.N,/RESET*
X85504192Y-82630020D03*
G04 #@! TO.P,U1,5*
G04 #@! TO.N,/P1.7*
X84854192Y-82630020D03*
G04 #@! TO.P,U1,4*
G04 #@! TO.N,/P1.6*
X84204192Y-82630020D03*
G04 #@! TO.P,U1,3*
G04 #@! TO.N,/P1.5*
X83554192Y-82630020D03*
G04 #@! TO.P,U1,2*
G04 #@! TO.N,/P1.4*
X82904192Y-82630020D03*
G04 #@! TO.P,U1,1*
G04 #@! TO.N,/P3.2*
X82254192Y-82630020D03*
G04 #@! TD*
D21*
G04 #@! TO.P,D3,1*
G04 #@! TO.N,GND*
X78400000Y-70400000D03*
G04 #@! TO.P,D3,2*
G04 #@! TO.N,Net-(D3-Pad2)*
X76200000Y-70400000D03*
G04 #@! TD*
G04 #@! TO.P,D2,2*
G04 #@! TO.N,/P3.1*
X89400000Y-97800000D03*
G04 #@! TO.P,D2,1*
G04 #@! TO.N,Net-(D2-Pad1)*
X89400000Y-100000000D03*
G04 #@! TD*
G04 #@! TO.P,D1,1*
G04 #@! TO.N,Net-(D1-Pad1)*
X81000000Y-100000000D03*
G04 #@! TO.P,D1,2*
G04 #@! TO.N,/P3.0*
X81000000Y-97800000D03*
G04 #@! TD*
D15*
G04 #@! TO.N,GND*
G04 #@! TO.C,R4*
G36*
X91460779Y-99276144D02*
X91483834Y-99279563D01*
X91506443Y-99285227D01*
X91528387Y-99293079D01*
X91549457Y-99303044D01*
X91569448Y-99315026D01*
X91588168Y-99328910D01*
X91605438Y-99344562D01*
X91621090Y-99361832D01*
X91634974Y-99380552D01*
X91646956Y-99400543D01*
X91656921Y-99421613D01*
X91664773Y-99443557D01*
X91670437Y-99466166D01*
X91673856Y-99489221D01*
X91675000Y-99512500D01*
X91675000Y-100087500D01*
X91673856Y-100110779D01*
X91670437Y-100133834D01*
X91664773Y-100156443D01*
X91656921Y-100178387D01*
X91646956Y-100199457D01*
X91634974Y-100219448D01*
X91621090Y-100238168D01*
X91605438Y-100255438D01*
X91588168Y-100271090D01*
X91569448Y-100284974D01*
X91549457Y-100296956D01*
X91528387Y-100306921D01*
X91506443Y-100314773D01*
X91483834Y-100320437D01*
X91460779Y-100323856D01*
X91437500Y-100325000D01*
X90962500Y-100325000D01*
X90939221Y-100323856D01*
X90916166Y-100320437D01*
X90893557Y-100314773D01*
X90871613Y-100306921D01*
X90850543Y-100296956D01*
X90830552Y-100284974D01*
X90811832Y-100271090D01*
X90794562Y-100255438D01*
X90778910Y-100238168D01*
X90765026Y-100219448D01*
X90753044Y-100199457D01*
X90743079Y-100178387D01*
X90735227Y-100156443D01*
X90729563Y-100133834D01*
X90726144Y-100110779D01*
X90725000Y-100087500D01*
X90725000Y-99512500D01*
X90726144Y-99489221D01*
X90729563Y-99466166D01*
X90735227Y-99443557D01*
X90743079Y-99421613D01*
X90753044Y-99400543D01*
X90765026Y-99380552D01*
X90778910Y-99361832D01*
X90794562Y-99344562D01*
X90811832Y-99328910D01*
X90830552Y-99315026D01*
X90850543Y-99303044D01*
X90871613Y-99293079D01*
X90893557Y-99285227D01*
X90916166Y-99279563D01*
X90939221Y-99276144D01*
X90962500Y-99275000D01*
X91437500Y-99275000D01*
X91460779Y-99276144D01*
X91460779Y-99276144D01*
G37*
D16*
G04 #@! TD*
G04 #@! TO.P,R4,1*
G04 #@! TO.N,GND*
X91200000Y-99800000D03*
D15*
G04 #@! TO.N,Net-(D2-Pad1)*
G04 #@! TO.C,R4*
G36*
X91460779Y-97526144D02*
X91483834Y-97529563D01*
X91506443Y-97535227D01*
X91528387Y-97543079D01*
X91549457Y-97553044D01*
X91569448Y-97565026D01*
X91588168Y-97578910D01*
X91605438Y-97594562D01*
X91621090Y-97611832D01*
X91634974Y-97630552D01*
X91646956Y-97650543D01*
X91656921Y-97671613D01*
X91664773Y-97693557D01*
X91670437Y-97716166D01*
X91673856Y-97739221D01*
X91675000Y-97762500D01*
X91675000Y-98337500D01*
X91673856Y-98360779D01*
X91670437Y-98383834D01*
X91664773Y-98406443D01*
X91656921Y-98428387D01*
X91646956Y-98449457D01*
X91634974Y-98469448D01*
X91621090Y-98488168D01*
X91605438Y-98505438D01*
X91588168Y-98521090D01*
X91569448Y-98534974D01*
X91549457Y-98546956D01*
X91528387Y-98556921D01*
X91506443Y-98564773D01*
X91483834Y-98570437D01*
X91460779Y-98573856D01*
X91437500Y-98575000D01*
X90962500Y-98575000D01*
X90939221Y-98573856D01*
X90916166Y-98570437D01*
X90893557Y-98564773D01*
X90871613Y-98556921D01*
X90850543Y-98546956D01*
X90830552Y-98534974D01*
X90811832Y-98521090D01*
X90794562Y-98505438D01*
X90778910Y-98488168D01*
X90765026Y-98469448D01*
X90753044Y-98449457D01*
X90743079Y-98428387D01*
X90735227Y-98406443D01*
X90729563Y-98383834D01*
X90726144Y-98360779D01*
X90725000Y-98337500D01*
X90725000Y-97762500D01*
X90726144Y-97739221D01*
X90729563Y-97716166D01*
X90735227Y-97693557D01*
X90743079Y-97671613D01*
X90753044Y-97650543D01*
X90765026Y-97630552D01*
X90778910Y-97611832D01*
X90794562Y-97594562D01*
X90811832Y-97578910D01*
X90830552Y-97565026D01*
X90850543Y-97553044D01*
X90871613Y-97543079D01*
X90893557Y-97535227D01*
X90916166Y-97529563D01*
X90939221Y-97526144D01*
X90962500Y-97525000D01*
X91437500Y-97525000D01*
X91460779Y-97526144D01*
X91460779Y-97526144D01*
G37*
D16*
G04 #@! TD*
G04 #@! TO.P,R4,2*
G04 #@! TO.N,Net-(D2-Pad1)*
X91200000Y-98050000D03*
D15*
G04 #@! TO.N,Net-(D3-Pad2)*
G04 #@! TO.C,R5*
G36*
X78460779Y-72326144D02*
X78483834Y-72329563D01*
X78506443Y-72335227D01*
X78528387Y-72343079D01*
X78549457Y-72353044D01*
X78569448Y-72365026D01*
X78588168Y-72378910D01*
X78605438Y-72394562D01*
X78621090Y-72411832D01*
X78634974Y-72430552D01*
X78646956Y-72450543D01*
X78656921Y-72471613D01*
X78664773Y-72493557D01*
X78670437Y-72516166D01*
X78673856Y-72539221D01*
X78675000Y-72562500D01*
X78675000Y-73037500D01*
X78673856Y-73060779D01*
X78670437Y-73083834D01*
X78664773Y-73106443D01*
X78656921Y-73128387D01*
X78646956Y-73149457D01*
X78634974Y-73169448D01*
X78621090Y-73188168D01*
X78605438Y-73205438D01*
X78588168Y-73221090D01*
X78569448Y-73234974D01*
X78549457Y-73246956D01*
X78528387Y-73256921D01*
X78506443Y-73264773D01*
X78483834Y-73270437D01*
X78460779Y-73273856D01*
X78437500Y-73275000D01*
X77862500Y-73275000D01*
X77839221Y-73273856D01*
X77816166Y-73270437D01*
X77793557Y-73264773D01*
X77771613Y-73256921D01*
X77750543Y-73246956D01*
X77730552Y-73234974D01*
X77711832Y-73221090D01*
X77694562Y-73205438D01*
X77678910Y-73188168D01*
X77665026Y-73169448D01*
X77653044Y-73149457D01*
X77643079Y-73128387D01*
X77635227Y-73106443D01*
X77629563Y-73083834D01*
X77626144Y-73060779D01*
X77625000Y-73037500D01*
X77625000Y-72562500D01*
X77626144Y-72539221D01*
X77629563Y-72516166D01*
X77635227Y-72493557D01*
X77643079Y-72471613D01*
X77653044Y-72450543D01*
X77665026Y-72430552D01*
X77678910Y-72411832D01*
X77694562Y-72394562D01*
X77711832Y-72378910D01*
X77730552Y-72365026D01*
X77750543Y-72353044D01*
X77771613Y-72343079D01*
X77793557Y-72335227D01*
X77816166Y-72329563D01*
X77839221Y-72326144D01*
X77862500Y-72325000D01*
X78437500Y-72325000D01*
X78460779Y-72326144D01*
X78460779Y-72326144D01*
G37*
D16*
G04 #@! TD*
G04 #@! TO.P,R5,2*
G04 #@! TO.N,Net-(D3-Pad2)*
X78150000Y-72800000D03*
D15*
G04 #@! TO.N,VCC*
G04 #@! TO.C,R5*
G36*
X76710779Y-72326144D02*
X76733834Y-72329563D01*
X76756443Y-72335227D01*
X76778387Y-72343079D01*
X76799457Y-72353044D01*
X76819448Y-72365026D01*
X76838168Y-72378910D01*
X76855438Y-72394562D01*
X76871090Y-72411832D01*
X76884974Y-72430552D01*
X76896956Y-72450543D01*
X76906921Y-72471613D01*
X76914773Y-72493557D01*
X76920437Y-72516166D01*
X76923856Y-72539221D01*
X76925000Y-72562500D01*
X76925000Y-73037500D01*
X76923856Y-73060779D01*
X76920437Y-73083834D01*
X76914773Y-73106443D01*
X76906921Y-73128387D01*
X76896956Y-73149457D01*
X76884974Y-73169448D01*
X76871090Y-73188168D01*
X76855438Y-73205438D01*
X76838168Y-73221090D01*
X76819448Y-73234974D01*
X76799457Y-73246956D01*
X76778387Y-73256921D01*
X76756443Y-73264773D01*
X76733834Y-73270437D01*
X76710779Y-73273856D01*
X76687500Y-73275000D01*
X76112500Y-73275000D01*
X76089221Y-73273856D01*
X76066166Y-73270437D01*
X76043557Y-73264773D01*
X76021613Y-73256921D01*
X76000543Y-73246956D01*
X75980552Y-73234974D01*
X75961832Y-73221090D01*
X75944562Y-73205438D01*
X75928910Y-73188168D01*
X75915026Y-73169448D01*
X75903044Y-73149457D01*
X75893079Y-73128387D01*
X75885227Y-73106443D01*
X75879563Y-73083834D01*
X75876144Y-73060779D01*
X75875000Y-73037500D01*
X75875000Y-72562500D01*
X75876144Y-72539221D01*
X75879563Y-72516166D01*
X75885227Y-72493557D01*
X75893079Y-72471613D01*
X75903044Y-72450543D01*
X75915026Y-72430552D01*
X75928910Y-72411832D01*
X75944562Y-72394562D01*
X75961832Y-72378910D01*
X75980552Y-72365026D01*
X76000543Y-72353044D01*
X76021613Y-72343079D01*
X76043557Y-72335227D01*
X76066166Y-72329563D01*
X76089221Y-72326144D01*
X76112500Y-72325000D01*
X76687500Y-72325000D01*
X76710779Y-72326144D01*
X76710779Y-72326144D01*
G37*
D16*
G04 #@! TD*
G04 #@! TO.P,R5,1*
G04 #@! TO.N,VCC*
X76400000Y-72800000D03*
D15*
G04 #@! TO.N,GND*
G04 #@! TO.C,R3*
G36*
X79460779Y-99351144D02*
X79483834Y-99354563D01*
X79506443Y-99360227D01*
X79528387Y-99368079D01*
X79549457Y-99378044D01*
X79569448Y-99390026D01*
X79588168Y-99403910D01*
X79605438Y-99419562D01*
X79621090Y-99436832D01*
X79634974Y-99455552D01*
X79646956Y-99475543D01*
X79656921Y-99496613D01*
X79664773Y-99518557D01*
X79670437Y-99541166D01*
X79673856Y-99564221D01*
X79675000Y-99587500D01*
X79675000Y-100162500D01*
X79673856Y-100185779D01*
X79670437Y-100208834D01*
X79664773Y-100231443D01*
X79656921Y-100253387D01*
X79646956Y-100274457D01*
X79634974Y-100294448D01*
X79621090Y-100313168D01*
X79605438Y-100330438D01*
X79588168Y-100346090D01*
X79569448Y-100359974D01*
X79549457Y-100371956D01*
X79528387Y-100381921D01*
X79506443Y-100389773D01*
X79483834Y-100395437D01*
X79460779Y-100398856D01*
X79437500Y-100400000D01*
X78962500Y-100400000D01*
X78939221Y-100398856D01*
X78916166Y-100395437D01*
X78893557Y-100389773D01*
X78871613Y-100381921D01*
X78850543Y-100371956D01*
X78830552Y-100359974D01*
X78811832Y-100346090D01*
X78794562Y-100330438D01*
X78778910Y-100313168D01*
X78765026Y-100294448D01*
X78753044Y-100274457D01*
X78743079Y-100253387D01*
X78735227Y-100231443D01*
X78729563Y-100208834D01*
X78726144Y-100185779D01*
X78725000Y-100162500D01*
X78725000Y-99587500D01*
X78726144Y-99564221D01*
X78729563Y-99541166D01*
X78735227Y-99518557D01*
X78743079Y-99496613D01*
X78753044Y-99475543D01*
X78765026Y-99455552D01*
X78778910Y-99436832D01*
X78794562Y-99419562D01*
X78811832Y-99403910D01*
X78830552Y-99390026D01*
X78850543Y-99378044D01*
X78871613Y-99368079D01*
X78893557Y-99360227D01*
X78916166Y-99354563D01*
X78939221Y-99351144D01*
X78962500Y-99350000D01*
X79437500Y-99350000D01*
X79460779Y-99351144D01*
X79460779Y-99351144D01*
G37*
D16*
G04 #@! TD*
G04 #@! TO.P,R3,1*
G04 #@! TO.N,GND*
X79200000Y-99875000D03*
D15*
G04 #@! TO.N,Net-(D1-Pad1)*
G04 #@! TO.C,R3*
G36*
X79460779Y-97601144D02*
X79483834Y-97604563D01*
X79506443Y-97610227D01*
X79528387Y-97618079D01*
X79549457Y-97628044D01*
X79569448Y-97640026D01*
X79588168Y-97653910D01*
X79605438Y-97669562D01*
X79621090Y-97686832D01*
X79634974Y-97705552D01*
X79646956Y-97725543D01*
X79656921Y-97746613D01*
X79664773Y-97768557D01*
X79670437Y-97791166D01*
X79673856Y-97814221D01*
X79675000Y-97837500D01*
X79675000Y-98412500D01*
X79673856Y-98435779D01*
X79670437Y-98458834D01*
X79664773Y-98481443D01*
X79656921Y-98503387D01*
X79646956Y-98524457D01*
X79634974Y-98544448D01*
X79621090Y-98563168D01*
X79605438Y-98580438D01*
X79588168Y-98596090D01*
X79569448Y-98609974D01*
X79549457Y-98621956D01*
X79528387Y-98631921D01*
X79506443Y-98639773D01*
X79483834Y-98645437D01*
X79460779Y-98648856D01*
X79437500Y-98650000D01*
X78962500Y-98650000D01*
X78939221Y-98648856D01*
X78916166Y-98645437D01*
X78893557Y-98639773D01*
X78871613Y-98631921D01*
X78850543Y-98621956D01*
X78830552Y-98609974D01*
X78811832Y-98596090D01*
X78794562Y-98580438D01*
X78778910Y-98563168D01*
X78765026Y-98544448D01*
X78753044Y-98524457D01*
X78743079Y-98503387D01*
X78735227Y-98481443D01*
X78729563Y-98458834D01*
X78726144Y-98435779D01*
X78725000Y-98412500D01*
X78725000Y-97837500D01*
X78726144Y-97814221D01*
X78729563Y-97791166D01*
X78735227Y-97768557D01*
X78743079Y-97746613D01*
X78753044Y-97725543D01*
X78765026Y-97705552D01*
X78778910Y-97686832D01*
X78794562Y-97669562D01*
X78811832Y-97653910D01*
X78830552Y-97640026D01*
X78850543Y-97628044D01*
X78871613Y-97618079D01*
X78893557Y-97610227D01*
X78916166Y-97604563D01*
X78939221Y-97601144D01*
X78962500Y-97600000D01*
X79437500Y-97600000D01*
X79460779Y-97601144D01*
X79460779Y-97601144D01*
G37*
D16*
G04 #@! TD*
G04 #@! TO.P,R3,2*
G04 #@! TO.N,Net-(D1-Pad1)*
X79200000Y-98125000D03*
D22*
G04 #@! TO.N,VCC*
X78400000Y-85200000D03*
X79600000Y-95200000D03*
X89200000Y-71800000D03*
X83200000Y-73599990D03*
G04 #@! TO.N,/RESET*
X87000000Y-86899990D03*
G04 #@! TO.N,/P3.0*
X89400000Y-81800000D03*
X88464088Y-86821362D03*
G04 #@! TO.N,/P3.1*
X90000000Y-83600000D03*
G04 #@! TO.N,GND*
X84200000Y-72800000D03*
X78400000Y-68600000D03*
X93200000Y-73800000D03*
X83800000Y-93400000D03*
X85400000Y-93400000D03*
X92600000Y-100600000D03*
X85274433Y-73438381D03*
X81000000Y-95600000D03*
X77800000Y-100200000D03*
X82400000Y-100400000D03*
X87400000Y-100400000D03*
X83200000Y-91200000D03*
X87800000Y-88600000D03*
X83000000Y-89000000D03*
X85600000Y-87000000D03*
X90400000Y-94800000D03*
G04 #@! TO.N,/P3.6*
X91200000Y-96200000D03*
X85200000Y-72000000D03*
X90200000Y-75100000D03*
X88800000Y-96000000D03*
G04 #@! TO.N,+3V3*
X78000000Y-78800000D03*
X81000000Y-78200000D03*
X79600000Y-88400000D03*
X81600000Y-94200000D03*
G04 #@! TO.N,/P1.2*
X79600000Y-76800000D03*
X78600000Y-87000000D03*
X84999984Y-74400000D03*
G04 #@! TO.N,/P1.3*
X80600000Y-77000000D03*
X86000029Y-74400000D03*
G04 #@! TO.N,/P3.7*
X86400000Y-72000000D03*
X91000000Y-74400000D03*
G04 #@! TO.N,/P3.5*
X91000000Y-93800000D03*
G04 #@! TO.N,/P3.4*
X90600000Y-91000000D03*
G04 #@! TO.N,/P3.3*
X90400000Y-89000000D03*
G04 #@! TO.N,/P1.1*
X89400000Y-78200000D03*
G04 #@! TO.N,/P1.0*
X80800000Y-82000000D03*
G04 #@! TO.N,/P3.2*
X80800000Y-87200000D03*
G04 #@! TD*
D23*
G04 #@! TO.N,VCC*
X82004192Y-79980020D02*
X82004192Y-79395808D01*
X82904192Y-78495808D02*
X82904192Y-76730020D01*
X82004192Y-79395808D02*
X82904192Y-78495808D01*
X87200000Y-70975000D02*
X86700000Y-70475000D01*
X76200000Y-76200000D02*
X77800000Y-76200000D01*
X77800000Y-76200000D02*
X78800000Y-77200000D01*
X78800000Y-77200000D02*
X78800000Y-84800000D01*
X78800000Y-84800000D02*
X78400000Y-85200000D01*
X79400000Y-94000000D02*
X79400000Y-93800000D01*
X79600000Y-95200000D02*
X79600000Y-93550000D01*
X90650000Y-71800000D02*
X91450000Y-71000000D01*
X87200000Y-71800000D02*
X87200000Y-70975000D01*
X89200000Y-71800000D02*
X90650000Y-71800000D01*
X87200000Y-71800000D02*
X89200000Y-71800000D01*
X76200000Y-73000000D02*
X76400000Y-72800000D01*
X76200000Y-76200000D02*
X76200000Y-73000000D01*
X82425002Y-74575000D02*
X83000001Y-74000001D01*
X82904192Y-76730020D02*
X82904192Y-74095810D01*
X82000000Y-74575000D02*
X82425002Y-74575000D01*
X82904192Y-74095810D02*
X83000001Y-74000001D01*
X83000001Y-74000001D02*
X83000001Y-73799989D01*
X83000001Y-73799989D02*
X83200000Y-73599990D01*
X83000000Y-92350000D02*
X87150000Y-92350000D01*
X79600000Y-93550000D02*
X79650000Y-93550000D01*
X80850000Y-92350000D02*
X83000000Y-92350000D01*
X79650000Y-93550000D02*
X80850000Y-92350000D01*
G04 #@! TO.N,/RESET*
X85504192Y-82630020D02*
X85504192Y-83704192D01*
X85504192Y-83704192D02*
X86000000Y-84200000D01*
X86000000Y-84200000D02*
X86600000Y-84200000D01*
X87084192Y-84684192D02*
X87084192Y-85380020D01*
X86600000Y-84200000D02*
X87084192Y-84684192D01*
X87200000Y-87099990D02*
X87000000Y-86899990D01*
X87150000Y-90200000D02*
X83000000Y-90200000D01*
X87084192Y-86815798D02*
X87000000Y-86899990D01*
X87084192Y-85380020D02*
X87084192Y-86815798D01*
X87000000Y-90050000D02*
X87150000Y-90200000D01*
X87000000Y-86899990D02*
X87000000Y-90050000D01*
X82200000Y-91000000D02*
X83000000Y-90200000D01*
X80200000Y-91000000D02*
X82200000Y-91000000D01*
X79600000Y-91800000D02*
X79600000Y-91600000D01*
X79600000Y-91600000D02*
X80200000Y-91000000D01*
G04 #@! TO.N,Net-(D3-Pad2)*
X78150000Y-72350000D02*
X76200000Y-70400000D01*
X78150000Y-72800000D02*
X78150000Y-72350000D01*
G04 #@! TO.N,/P3.0*
X88104192Y-82630020D02*
X88569980Y-82630020D01*
X88569980Y-82630020D02*
X89000001Y-82199999D01*
X89000001Y-82199999D02*
X89400000Y-81800000D01*
X88354192Y-85380020D02*
X88354192Y-86711466D01*
X88354192Y-86711466D02*
X88464088Y-86821362D01*
X82174999Y-95825001D02*
X82200000Y-95800000D01*
X82000000Y-96000000D02*
X82200000Y-95800000D01*
X81000000Y-97900000D02*
X81000000Y-97000000D01*
X81000000Y-97000000D02*
X82000000Y-96000000D01*
X88800000Y-87157274D02*
X88464088Y-86821362D01*
X88800000Y-95000000D02*
X88800000Y-87157274D01*
X82200000Y-95800000D02*
X88000000Y-95800000D01*
X88000000Y-95800000D02*
X88800000Y-95000000D01*
G04 #@! TO.N,/P3.1*
X87454192Y-82630020D02*
X87454192Y-83654192D01*
X87454192Y-83654192D02*
X87800000Y-84000000D01*
X87800000Y-84000000D02*
X89400000Y-84000000D01*
X89624192Y-84224192D02*
X89624192Y-85380020D01*
X89400000Y-84000000D02*
X89624192Y-84224192D01*
X89624192Y-83975808D02*
X89624192Y-85380020D01*
X90000000Y-83600000D02*
X89624192Y-83975808D01*
X89624192Y-97210108D02*
X89117150Y-97717150D01*
X89624192Y-85380020D02*
X89624192Y-97210108D01*
G04 #@! TO.N,GND*
X83274192Y-79980020D02*
X83274192Y-78725808D01*
X83554192Y-78445808D02*
X83554192Y-76730020D01*
X83274192Y-78725808D02*
X83554192Y-78445808D01*
X83554192Y-74458328D02*
X84200000Y-73636002D01*
X84200000Y-73365685D02*
X84200000Y-72800000D01*
X84200000Y-73636002D02*
X84200000Y-73365685D01*
X83554192Y-76730020D02*
X83554192Y-74458328D01*
G04 #@! TO.N,/P3.6*
X86154192Y-76730020D02*
X86154192Y-78045808D01*
X85814192Y-78385808D02*
X85814192Y-79980020D01*
X86154192Y-78045808D02*
X85814192Y-78385808D01*
X91200000Y-96200000D02*
X91000000Y-96400000D01*
X85400000Y-70475000D02*
X85400000Y-71800000D01*
X85400000Y-71800000D02*
X85200000Y-72000000D01*
X92000000Y-95400000D02*
X91200000Y-96200000D01*
X92000000Y-76800000D02*
X92000000Y-95400000D01*
X90400000Y-75200000D02*
X92000000Y-76800000D01*
X87601702Y-74600000D02*
X89800000Y-74600000D01*
X86154192Y-75880108D02*
X86334289Y-75700012D01*
X89800000Y-74600000D02*
X90400000Y-75200000D01*
X86334289Y-75700012D02*
X86501690Y-75700012D01*
X86501690Y-75700012D02*
X87601702Y-74600000D01*
X86154192Y-76730020D02*
X86154192Y-75880108D01*
X90300000Y-75200000D02*
X90400000Y-75200000D01*
X90200000Y-75100000D02*
X90300000Y-75200000D01*
G04 #@! TO.N,/P1.5*
X83274192Y-85380020D02*
X83274192Y-84125808D01*
X83554192Y-83845808D02*
X83554192Y-82630020D01*
X83274192Y-84125808D02*
X83554192Y-83845808D01*
G04 #@! TO.N,/P3.6*
X85850000Y-96550000D02*
X87150000Y-96550000D01*
X83000000Y-96550000D02*
X87150000Y-96550000D01*
X88250000Y-96550000D02*
X87150000Y-96550000D01*
X88800000Y-96000000D02*
X88250000Y-96550000D01*
G04 #@! TO.N,/P1.5*
X83274192Y-86525808D02*
X83274192Y-85380020D01*
X76420000Y-93980000D02*
X77400000Y-93000000D01*
X77400000Y-93000000D02*
X77400000Y-91200000D01*
X77400000Y-91200000D02*
X78800000Y-89800000D01*
X78800000Y-89800000D02*
X80000000Y-89800000D01*
X76200000Y-93980000D02*
X76420000Y-93980000D01*
X80000000Y-89800000D02*
X83274192Y-86525808D01*
G04 #@! TO.N,+3V3*
X82254192Y-76730020D02*
X82254192Y-78145808D01*
X82254192Y-78145808D02*
X81800000Y-78600000D01*
X81800000Y-78600000D02*
X81000000Y-78600000D01*
X80734192Y-78865808D02*
X80734192Y-79980020D01*
X81000000Y-78600000D02*
X80734192Y-78865808D01*
X80000000Y-74600000D02*
X80200000Y-74600000D01*
X82254192Y-76654192D02*
X82254192Y-76730020D01*
X80200000Y-74600000D02*
X82254192Y-76654192D01*
X76200000Y-78740000D02*
X77940000Y-78740000D01*
X77940000Y-78740000D02*
X78000000Y-78800000D01*
X81000000Y-78200000D02*
X81000000Y-78600000D01*
X87150000Y-94400000D02*
X83000000Y-94400000D01*
X80734192Y-79980020D02*
X80734192Y-80865808D01*
X80734192Y-80865808D02*
X80000000Y-81600000D01*
X80000000Y-81600000D02*
X80000000Y-87400000D01*
X80000000Y-87400000D02*
X80000000Y-88000000D01*
X80000000Y-88000000D02*
X79600000Y-88400000D01*
X82800000Y-94200000D02*
X83000000Y-94400000D01*
X81600000Y-94200000D02*
X82800000Y-94200000D01*
G04 #@! TO.N,/P1.2*
X76200000Y-86360000D02*
X78840000Y-86360000D01*
X78840000Y-86360000D02*
X79200000Y-86000000D01*
X79200000Y-86000000D02*
X79200000Y-77200000D01*
X79200000Y-77200000D02*
X79600000Y-76800000D01*
X78840000Y-86360000D02*
X78840000Y-86760000D01*
X78840000Y-86760000D02*
X78600000Y-87000000D01*
X84204192Y-76730020D02*
X84204192Y-75195792D01*
X84204192Y-75195792D02*
X84999984Y-74400000D01*
G04 #@! TO.N,/P1.3*
X76200000Y-88900000D02*
X77700000Y-88900000D01*
X77700000Y-88900000D02*
X79600000Y-87000000D01*
X79600000Y-87000000D02*
X79600000Y-78000000D01*
X79600000Y-78000000D02*
X80600000Y-77000000D01*
X84854192Y-76730020D02*
X84854192Y-75545837D01*
X84854192Y-75545837D02*
X86000029Y-74400000D01*
G04 #@! TO.N,/P3.7*
X84544192Y-79980020D02*
X84544192Y-78855808D01*
X85504192Y-77895808D02*
X85504192Y-76730020D01*
X84544192Y-78855808D02*
X85504192Y-77895808D01*
X86050000Y-70475000D02*
X86050000Y-71650000D01*
X86050000Y-71650000D02*
X86400000Y-72000000D01*
X93980000Y-98380000D02*
X93980000Y-99060000D01*
X92400000Y-96800000D02*
X93980000Y-98380000D01*
X91000000Y-74400000D02*
X92400000Y-75800000D01*
X92400000Y-75800000D02*
X92400000Y-96800000D01*
X86336001Y-75300001D02*
X87636001Y-74000001D01*
X90600001Y-74000001D02*
X91000000Y-74400000D01*
X86009211Y-75300001D02*
X86336001Y-75300001D01*
X85504192Y-75805020D02*
X86009211Y-75300001D01*
X85504192Y-76730020D02*
X85504192Y-75805020D01*
X87636001Y-74000001D02*
X90600001Y-74000001D01*
G04 #@! TO.N,/P3.5*
X91399999Y-93400001D02*
X91000000Y-93800000D01*
X90800000Y-76200000D02*
X91600000Y-77000000D01*
X91600000Y-77000000D02*
X91600000Y-93200000D01*
X91600000Y-93200000D02*
X91399999Y-93400001D01*
X89600000Y-76200000D02*
X90800000Y-76200000D01*
X86804192Y-75963210D02*
X87767391Y-75000011D01*
X86804192Y-76730020D02*
X86804192Y-75963210D01*
X88400011Y-75000011D02*
X89600000Y-76200000D01*
X87767391Y-75000011D02*
X88400011Y-75000011D01*
G04 #@! TO.N,/P3.4*
X87084192Y-79980020D02*
X87084192Y-78915808D01*
X87454192Y-78545808D02*
X87454192Y-76730020D01*
X87084192Y-78915808D02*
X87454192Y-78545808D01*
X91199989Y-90400011D02*
X91199989Y-77199989D01*
X89400000Y-76600000D02*
X88200022Y-75400022D01*
X88200022Y-75400022D02*
X87933080Y-75400022D01*
X87933080Y-75400022D02*
X87454192Y-75878910D01*
X90600000Y-76600000D02*
X89400000Y-76600000D01*
X90600000Y-91000000D02*
X91199989Y-90400011D01*
X87454192Y-75878910D02*
X87454192Y-76730020D01*
X91199989Y-77199989D02*
X90600000Y-76600000D01*
G04 #@! TO.N,/P3.3*
X88104192Y-76730020D02*
X88104192Y-77904192D01*
X88354192Y-78154192D02*
X88354192Y-79980020D01*
X88104192Y-77904192D02*
X88354192Y-78154192D01*
X88529192Y-76730020D02*
X88104192Y-76730020D01*
X88799194Y-77000022D02*
X88529192Y-76730020D01*
X90400022Y-77000022D02*
X88799194Y-77000022D01*
X90799978Y-77399978D02*
X90400022Y-77000022D01*
X90400000Y-88600004D02*
X90799978Y-88200026D01*
X90799978Y-88200026D02*
X90799978Y-77399978D01*
X90400000Y-89000000D02*
X90400000Y-88600004D01*
G04 #@! TO.N,/P1.1*
X86804192Y-82630020D02*
X86804192Y-81604192D01*
X86804192Y-81604192D02*
X87200000Y-81208384D01*
X87200000Y-81208384D02*
X88991616Y-81208384D01*
X89624192Y-80575808D02*
X89624192Y-79980020D01*
X88991616Y-81208384D02*
X89624192Y-80575808D01*
X89624192Y-79980020D02*
X89624192Y-78424192D01*
X89624192Y-78424192D02*
X89400000Y-78200000D01*
G04 #@! TO.N,/P1.0*
X86154192Y-82630020D02*
X86154192Y-81554192D01*
X86154192Y-81554192D02*
X86000000Y-81400000D01*
X86000000Y-81400000D02*
X81400000Y-81400000D01*
X81400000Y-81400000D02*
X80800000Y-82000000D01*
G04 #@! TO.N,/P1.7*
X85814192Y-85380020D02*
X85814192Y-85014192D01*
X84854192Y-84054192D02*
X84854192Y-82630020D01*
X85814192Y-85014192D02*
X84854192Y-84054192D01*
X78200000Y-96600000D02*
X76200000Y-98600000D01*
X76200000Y-98600000D02*
X76200000Y-99060000D01*
X79200000Y-90600000D02*
X78200000Y-91600000D01*
X85600000Y-85600000D02*
X85600000Y-85800000D01*
X78200000Y-91600000D02*
X78200000Y-96600000D01*
X85600000Y-85800000D02*
X84800000Y-86600000D01*
X84800000Y-86600000D02*
X84400000Y-86600000D01*
X84400000Y-86600000D02*
X80400000Y-90600000D01*
X85800000Y-85400000D02*
X85600000Y-85600000D01*
X80400000Y-90600000D02*
X79200000Y-90600000D01*
G04 #@! TO.N,/P1.6*
X84544192Y-85380020D02*
X84544192Y-84344192D01*
X84204192Y-84004192D02*
X84204192Y-82630020D01*
X84544192Y-84344192D02*
X84204192Y-84004192D01*
X84544192Y-85855808D02*
X84544192Y-85380020D01*
X80200000Y-90200000D02*
X84544192Y-85855808D01*
X79000000Y-90200000D02*
X80200000Y-90200000D01*
X77800000Y-91400000D02*
X79000000Y-90200000D01*
X76200000Y-96520000D02*
X77800000Y-94920000D01*
X77800000Y-94920000D02*
X77800000Y-91400000D01*
G04 #@! TO.N,/P1.4*
X82004192Y-85380020D02*
X82004192Y-84595808D01*
X82904192Y-83695808D02*
X82904192Y-82630020D01*
X82004192Y-84595808D02*
X82904192Y-83695808D01*
X82004192Y-87195808D02*
X82004192Y-85380020D01*
X79800000Y-89400000D02*
X82004192Y-87195808D01*
X78600000Y-89400000D02*
X79800000Y-89400000D01*
X76200000Y-91440000D02*
X76560000Y-91440000D01*
X76560000Y-91440000D02*
X78600000Y-89400000D01*
G04 #@! TO.N,/P3.2*
X82254192Y-82630020D02*
X82254192Y-83545808D01*
X82254192Y-83545808D02*
X81800000Y-84000000D01*
X81800000Y-84000000D02*
X81000000Y-84000000D01*
X80734192Y-84265808D02*
X80734192Y-85380020D01*
X81000000Y-84000000D02*
X80734192Y-84265808D01*
X80734192Y-85380020D02*
X80734192Y-87134192D01*
X80734192Y-87134192D02*
X80800000Y-87200000D01*
G04 #@! TO.N,Net-(D2-Pad1)*
X90700928Y-98549072D02*
X91200000Y-98050000D01*
X90250000Y-99000000D02*
X90700928Y-98549072D01*
X89800000Y-99000000D02*
X90250000Y-99000000D01*
X89400000Y-100200000D02*
X89400000Y-99400000D01*
X89400000Y-99400000D02*
X89800000Y-99000000D01*
G04 #@! TO.N,Net-(D1-Pad1)*
X81000000Y-100100000D02*
X81100000Y-100100000D01*
X79699072Y-98624072D02*
X79200000Y-98125000D01*
X79875001Y-98800001D02*
X79699072Y-98624072D01*
X80500001Y-98800001D02*
X79875001Y-98800001D01*
X81000000Y-99300000D02*
X80500001Y-98800001D01*
X81000000Y-100100000D02*
X81000000Y-99300000D01*
G04 #@! TD*
D24*
G04 #@! TO.N,GND*
G36*
X82889702Y-66609257D02*
X82825000Y-66765462D01*
X82825000Y-66988118D01*
X82701041Y-66813604D01*
X82411751Y-66632038D01*
X82261517Y-66590036D01*
X82125000Y-66681657D01*
X82125000Y-67775000D01*
X84175000Y-67775000D01*
X84175000Y-67755000D01*
X84225000Y-67755000D01*
X84225000Y-67775000D01*
X86575000Y-67775000D01*
X86575000Y-67755000D01*
X86625000Y-67755000D01*
X86625000Y-67775000D01*
X88675000Y-67775000D01*
X88675000Y-66681657D01*
X88725000Y-66681657D01*
X88725000Y-67775000D01*
X89575000Y-67775000D01*
X89575000Y-67425000D01*
X89498828Y-67092055D01*
X89301041Y-66813604D01*
X89011751Y-66632038D01*
X88861517Y-66590036D01*
X88725000Y-66681657D01*
X88675000Y-66681657D01*
X88538483Y-66590036D01*
X88388249Y-66632038D01*
X88098959Y-66813604D01*
X87975000Y-66988118D01*
X87975000Y-66765462D01*
X87910298Y-66609257D01*
X87841041Y-66540000D01*
X93948545Y-66540000D01*
X94486339Y-66607939D01*
X94960860Y-66795815D01*
X95373755Y-67095801D01*
X95699075Y-67489045D01*
X95916376Y-67950831D01*
X96016471Y-68475553D01*
X96020000Y-68587845D01*
X96020001Y-99028537D01*
X95952061Y-99566339D01*
X95764184Y-100040862D01*
X95464196Y-100453759D01*
X95070955Y-100779075D01*
X94609169Y-100996376D01*
X94084448Y-101096471D01*
X93972155Y-101100000D01*
X76231455Y-101100000D01*
X75693661Y-101032061D01*
X75219138Y-100844184D01*
X74806241Y-100544196D01*
X74480925Y-100150955D01*
X74263624Y-99689169D01*
X74163529Y-99164448D01*
X74160000Y-99052155D01*
X74160000Y-78740000D01*
X74900022Y-78740000D01*
X74998977Y-79237480D01*
X75280777Y-79659223D01*
X75702520Y-79941023D01*
X76049290Y-80010000D01*
X75702520Y-80078977D01*
X75280777Y-80360777D01*
X74998977Y-80782520D01*
X74900022Y-81280000D01*
X74998977Y-81777480D01*
X75280777Y-82199223D01*
X75702520Y-82481023D01*
X76049290Y-82550000D01*
X75702520Y-82618977D01*
X75280777Y-82900777D01*
X74998977Y-83322520D01*
X74900022Y-83820000D01*
X74998977Y-84317480D01*
X75280777Y-84739223D01*
X75702520Y-85021023D01*
X76049290Y-85090000D01*
X75702520Y-85158977D01*
X75280777Y-85440777D01*
X74998977Y-85862520D01*
X74900022Y-86360000D01*
X74998977Y-86857480D01*
X75280777Y-87279223D01*
X75702520Y-87561023D01*
X76049290Y-87630000D01*
X75702520Y-87698977D01*
X75280777Y-87980777D01*
X74998977Y-88402520D01*
X74900022Y-88900000D01*
X74998977Y-89397480D01*
X75280777Y-89819223D01*
X75702520Y-90101023D01*
X76049290Y-90170000D01*
X75702520Y-90238977D01*
X75280777Y-90520777D01*
X74998977Y-90942520D01*
X74900022Y-91440000D01*
X74998977Y-91937480D01*
X75280777Y-92359223D01*
X75702520Y-92641023D01*
X76049290Y-92710000D01*
X75702520Y-92778977D01*
X75280777Y-93060777D01*
X74998977Y-93482520D01*
X74900022Y-93980000D01*
X74998977Y-94477480D01*
X75280777Y-94899223D01*
X75702520Y-95181023D01*
X76049290Y-95250000D01*
X75702520Y-95318977D01*
X75280777Y-95600777D01*
X74998977Y-96022520D01*
X74900022Y-96520000D01*
X74998977Y-97017480D01*
X75280777Y-97439223D01*
X75702520Y-97721023D01*
X76049290Y-97790000D01*
X75702520Y-97858977D01*
X75280777Y-98140777D01*
X74998977Y-98562520D01*
X74900022Y-99060000D01*
X74998977Y-99557480D01*
X75280777Y-99979223D01*
X75702520Y-100261023D01*
X76074427Y-100335000D01*
X76325573Y-100335000D01*
X76697480Y-100261023D01*
X77078774Y-100006250D01*
X78300000Y-100006250D01*
X78300000Y-100484538D01*
X78364702Y-100640743D01*
X78484257Y-100760298D01*
X78640462Y-100825000D01*
X79068750Y-100825000D01*
X79175000Y-100718750D01*
X79175000Y-99900000D01*
X78406250Y-99900000D01*
X78300000Y-100006250D01*
X77078774Y-100006250D01*
X77119223Y-99979223D01*
X77401023Y-99557480D01*
X77499978Y-99060000D01*
X77401023Y-98562520D01*
X77232361Y-98310100D01*
X78534667Y-97007795D01*
X78578504Y-96978504D01*
X78694539Y-96804845D01*
X78725000Y-96651706D01*
X78735285Y-96600001D01*
X78725000Y-96548295D01*
X78725000Y-94005040D01*
X78742738Y-94094214D01*
X78888154Y-94311846D01*
X79075000Y-94436692D01*
X79075000Y-94558274D01*
X78900599Y-94732675D01*
X78775000Y-95035897D01*
X78775000Y-95364103D01*
X78900599Y-95667325D01*
X79132675Y-95899401D01*
X79435897Y-96025000D01*
X79764103Y-96025000D01*
X80067325Y-95899401D01*
X80299401Y-95667325D01*
X80425000Y-95364103D01*
X80425000Y-95035897D01*
X80299401Y-94732675D01*
X80125000Y-94558274D01*
X80125000Y-94436692D01*
X80311846Y-94311846D01*
X80457262Y-94094214D01*
X80468862Y-94035897D01*
X80775000Y-94035897D01*
X80775000Y-94364103D01*
X80900599Y-94667325D01*
X81132675Y-94899401D01*
X81435897Y-95025000D01*
X81764103Y-95025000D01*
X82067325Y-94899401D01*
X82075156Y-94891570D01*
X82168592Y-95031408D01*
X82309173Y-95125341D01*
X82475000Y-95158326D01*
X83525000Y-95158326D01*
X83690827Y-95125341D01*
X83831408Y-95031408D01*
X83902507Y-94925000D01*
X86247493Y-94925000D01*
X86318592Y-95031408D01*
X86459173Y-95125341D01*
X86625000Y-95158326D01*
X87675000Y-95158326D01*
X87840827Y-95125341D01*
X87981408Y-95031408D01*
X88075341Y-94890827D01*
X88108326Y-94725000D01*
X88108326Y-94075000D01*
X88075341Y-93909173D01*
X87981408Y-93768592D01*
X87840827Y-93674659D01*
X87675000Y-93641674D01*
X86625000Y-93641674D01*
X86459173Y-93674659D01*
X86318592Y-93768592D01*
X86247493Y-93875000D01*
X83902507Y-93875000D01*
X83831408Y-93768592D01*
X83690827Y-93674659D01*
X83525000Y-93641674D01*
X82475000Y-93641674D01*
X82309173Y-93674659D01*
X82308663Y-93675000D01*
X82241726Y-93675000D01*
X82067325Y-93500599D01*
X81764103Y-93375000D01*
X81435897Y-93375000D01*
X81132675Y-93500599D01*
X80900599Y-93732675D01*
X80775000Y-94035897D01*
X80468862Y-94035897D01*
X80508326Y-93837500D01*
X80508326Y-93434135D01*
X81067462Y-92875000D01*
X82097493Y-92875000D01*
X82168592Y-92981408D01*
X82309173Y-93075341D01*
X82475000Y-93108326D01*
X83525000Y-93108326D01*
X83690827Y-93075341D01*
X83831408Y-92981408D01*
X83902507Y-92875000D01*
X86247493Y-92875000D01*
X86318592Y-92981408D01*
X86459173Y-93075341D01*
X86625000Y-93108326D01*
X87675000Y-93108326D01*
X87840827Y-93075341D01*
X87981408Y-92981408D01*
X88075341Y-92840827D01*
X88108326Y-92675000D01*
X88108326Y-92025000D01*
X88075341Y-91859173D01*
X87981408Y-91718592D01*
X87840827Y-91624659D01*
X87675000Y-91591674D01*
X86625000Y-91591674D01*
X86459173Y-91624659D01*
X86318592Y-91718592D01*
X86247493Y-91825000D01*
X83902507Y-91825000D01*
X83831408Y-91718592D01*
X83690827Y-91624659D01*
X83525000Y-91591674D01*
X82475000Y-91591674D01*
X82309173Y-91624659D01*
X82168592Y-91718592D01*
X82097493Y-91825000D01*
X80901704Y-91825000D01*
X80849999Y-91814715D01*
X80798294Y-91825000D01*
X80645155Y-91855461D01*
X80508326Y-91946887D01*
X80508326Y-91525000D01*
X82148294Y-91525000D01*
X82200000Y-91535285D01*
X82251706Y-91525000D01*
X82404845Y-91494539D01*
X82578504Y-91378504D01*
X82607797Y-91334665D01*
X82984136Y-90958326D01*
X83525000Y-90958326D01*
X83690827Y-90925341D01*
X83831408Y-90831408D01*
X83902507Y-90725000D01*
X86247493Y-90725000D01*
X86318592Y-90831408D01*
X86459173Y-90925341D01*
X86625000Y-90958326D01*
X87675000Y-90958326D01*
X87840827Y-90925341D01*
X87981408Y-90831408D01*
X88075341Y-90690827D01*
X88108326Y-90525000D01*
X88108326Y-89875000D01*
X88075341Y-89709173D01*
X87981408Y-89568592D01*
X87840827Y-89474659D01*
X87675000Y-89441674D01*
X87525000Y-89441674D01*
X87525000Y-87541716D01*
X87699401Y-87367315D01*
X87748328Y-87249194D01*
X87764687Y-87288687D01*
X87996763Y-87520763D01*
X88275001Y-87636013D01*
X88275000Y-94782538D01*
X87782539Y-95275000D01*
X82251706Y-95275000D01*
X82200000Y-95264715D01*
X82148294Y-95275000D01*
X81995155Y-95305461D01*
X81821496Y-95421496D01*
X81792203Y-95465336D01*
X81665336Y-95592203D01*
X81665330Y-95592207D01*
X80665333Y-96592206D01*
X80621497Y-96621496D01*
X80569443Y-96699401D01*
X80524492Y-96766674D01*
X80400000Y-96766674D01*
X80234173Y-96799659D01*
X80093592Y-96893592D01*
X79999659Y-97034173D01*
X79966674Y-97200000D01*
X79966674Y-97445210D01*
X79911846Y-97363154D01*
X79694214Y-97217738D01*
X79437500Y-97166674D01*
X78962500Y-97166674D01*
X78705786Y-97217738D01*
X78488154Y-97363154D01*
X78342738Y-97580786D01*
X78291674Y-97837500D01*
X78291674Y-98412500D01*
X78342738Y-98669214D01*
X78488154Y-98886846D01*
X78581690Y-98949344D01*
X78484257Y-98989702D01*
X78364702Y-99109257D01*
X78300000Y-99265462D01*
X78300000Y-99743750D01*
X78406250Y-99850000D01*
X79175000Y-99850000D01*
X79175000Y-99830000D01*
X79225000Y-99830000D01*
X79225000Y-99850000D01*
X79245000Y-99850000D01*
X79245000Y-99900000D01*
X79225000Y-99900000D01*
X79225000Y-100718750D01*
X79331250Y-100825000D01*
X79759538Y-100825000D01*
X79915743Y-100760298D01*
X79984819Y-100691222D01*
X79999659Y-100765827D01*
X80093592Y-100906408D01*
X80234173Y-101000341D01*
X80400000Y-101033326D01*
X81600000Y-101033326D01*
X81765827Y-101000341D01*
X81906408Y-100906408D01*
X82000341Y-100765827D01*
X82033326Y-100600000D01*
X82033326Y-99400000D01*
X82000341Y-99234173D01*
X81906408Y-99093592D01*
X81765827Y-98999659D01*
X81600000Y-98966674D01*
X81408691Y-98966674D01*
X81378504Y-98921496D01*
X81334667Y-98892205D01*
X81275788Y-98833326D01*
X81600000Y-98833326D01*
X81765827Y-98800341D01*
X81906408Y-98706408D01*
X82000341Y-98565827D01*
X82033326Y-98400000D01*
X82033326Y-97200000D01*
X82000341Y-97034173D01*
X81906408Y-96893592D01*
X81871916Y-96870546D01*
X82041674Y-96700788D01*
X82041674Y-96875000D01*
X82074659Y-97040827D01*
X82168592Y-97181408D01*
X82309173Y-97275341D01*
X82475000Y-97308326D01*
X83525000Y-97308326D01*
X83690827Y-97275341D01*
X83831408Y-97181408D01*
X83902507Y-97075000D01*
X86247493Y-97075000D01*
X86318592Y-97181408D01*
X86459173Y-97275341D01*
X86625000Y-97308326D01*
X87675000Y-97308326D01*
X87840827Y-97275341D01*
X87981408Y-97181408D01*
X88052507Y-97075000D01*
X88198294Y-97075000D01*
X88250000Y-97085285D01*
X88301706Y-97075000D01*
X88395239Y-97056395D01*
X88366674Y-97200000D01*
X88366674Y-98400000D01*
X88399659Y-98565827D01*
X88493592Y-98706408D01*
X88634173Y-98800341D01*
X88800000Y-98833326D01*
X89224213Y-98833326D01*
X89090865Y-98966674D01*
X88800000Y-98966674D01*
X88634173Y-98999659D01*
X88493592Y-99093592D01*
X88399659Y-99234173D01*
X88366674Y-99400000D01*
X88366674Y-100600000D01*
X88399659Y-100765827D01*
X88493592Y-100906408D01*
X88634173Y-101000341D01*
X88800000Y-101033326D01*
X90000000Y-101033326D01*
X90165827Y-101000341D01*
X90306408Y-100906408D01*
X90400341Y-100765827D01*
X90427624Y-100628665D01*
X90484257Y-100685298D01*
X90640462Y-100750000D01*
X91068750Y-100750000D01*
X91175000Y-100643750D01*
X91175000Y-99825000D01*
X91225000Y-99825000D01*
X91225000Y-100643750D01*
X91331250Y-100750000D01*
X91759538Y-100750000D01*
X91915743Y-100685298D01*
X92035298Y-100565743D01*
X92100000Y-100409538D01*
X92100000Y-99931250D01*
X91993750Y-99825000D01*
X91225000Y-99825000D01*
X91175000Y-99825000D01*
X91155000Y-99825000D01*
X91155000Y-99775000D01*
X91175000Y-99775000D01*
X91175000Y-99755000D01*
X91225000Y-99755000D01*
X91225000Y-99775000D01*
X91993750Y-99775000D01*
X92100000Y-99668750D01*
X92100000Y-99190462D01*
X92035298Y-99034257D01*
X91915743Y-98914702D01*
X91818310Y-98874344D01*
X91911846Y-98811846D01*
X92057262Y-98594214D01*
X92108326Y-98337500D01*
X92108326Y-97762500D01*
X92057262Y-97505786D01*
X91911846Y-97288154D01*
X91694214Y-97142738D01*
X91437500Y-97091674D01*
X90962500Y-97091674D01*
X90705786Y-97142738D01*
X90488154Y-97288154D01*
X90433326Y-97370210D01*
X90433326Y-97200000D01*
X90400341Y-97034173D01*
X90306408Y-96893592D01*
X90165827Y-96799659D01*
X90149192Y-96796350D01*
X90149192Y-91706243D01*
X90435897Y-91825000D01*
X90764103Y-91825000D01*
X91067325Y-91699401D01*
X91075001Y-91691725D01*
X91075001Y-92975000D01*
X90835897Y-92975000D01*
X90532675Y-93100599D01*
X90300599Y-93332675D01*
X90175000Y-93635897D01*
X90175000Y-93964103D01*
X90300599Y-94267325D01*
X90532675Y-94499401D01*
X90835897Y-94625000D01*
X91164103Y-94625000D01*
X91467325Y-94499401D01*
X91475001Y-94491725D01*
X91475001Y-95182537D01*
X91282538Y-95375000D01*
X91035897Y-95375000D01*
X90732675Y-95500599D01*
X90500599Y-95732675D01*
X90375000Y-96035897D01*
X90375000Y-96364103D01*
X90500599Y-96667325D01*
X90732675Y-96899401D01*
X91035897Y-97025000D01*
X91364103Y-97025000D01*
X91667325Y-96899401D01*
X91875001Y-96691725D01*
X91875001Y-96748289D01*
X91864715Y-96800000D01*
X91905461Y-97004844D01*
X91905462Y-97004845D01*
X92021497Y-97178504D01*
X92065334Y-97207795D01*
X93035758Y-98178220D01*
X92778977Y-98562520D01*
X92680022Y-99060000D01*
X92778977Y-99557480D01*
X93060777Y-99979223D01*
X93482520Y-100261023D01*
X93854427Y-100335000D01*
X94105573Y-100335000D01*
X94477480Y-100261023D01*
X94899223Y-99979223D01*
X95181023Y-99557480D01*
X95279978Y-99060000D01*
X95181023Y-98562520D01*
X94899223Y-98140777D01*
X94477480Y-97858977D01*
X94132897Y-97790435D01*
X94132171Y-97789709D01*
X94477480Y-97721023D01*
X94899223Y-97439223D01*
X95181023Y-97017480D01*
X95279978Y-96520000D01*
X95181023Y-96022520D01*
X94899223Y-95600777D01*
X94477480Y-95318977D01*
X94130710Y-95250000D01*
X94477480Y-95181023D01*
X94899223Y-94899223D01*
X95181023Y-94477480D01*
X95279978Y-93980000D01*
X95181023Y-93482520D01*
X94899223Y-93060777D01*
X94477480Y-92778977D01*
X94130710Y-92710000D01*
X94477480Y-92641023D01*
X94899223Y-92359223D01*
X95181023Y-91937480D01*
X95279978Y-91440000D01*
X95181023Y-90942520D01*
X94899223Y-90520777D01*
X94477480Y-90238977D01*
X94130710Y-90170000D01*
X94477480Y-90101023D01*
X94899223Y-89819223D01*
X95181023Y-89397480D01*
X95279978Y-88900000D01*
X95181023Y-88402520D01*
X94899223Y-87980777D01*
X94477480Y-87698977D01*
X94130710Y-87630000D01*
X94477480Y-87561023D01*
X94899223Y-87279223D01*
X95181023Y-86857480D01*
X95279978Y-86360000D01*
X95181023Y-85862520D01*
X94899223Y-85440777D01*
X94477480Y-85158977D01*
X94130710Y-85090000D01*
X94477480Y-85021023D01*
X94899223Y-84739223D01*
X95181023Y-84317480D01*
X95279978Y-83820000D01*
X95181023Y-83322520D01*
X94899223Y-82900777D01*
X94477480Y-82618977D01*
X94130710Y-82550000D01*
X94477480Y-82481023D01*
X94899223Y-82199223D01*
X95181023Y-81777480D01*
X95279978Y-81280000D01*
X95181023Y-80782520D01*
X94899223Y-80360777D01*
X94477480Y-80078977D01*
X94130710Y-80010000D01*
X94477480Y-79941023D01*
X94899223Y-79659223D01*
X95181023Y-79237480D01*
X95279978Y-78740000D01*
X95181023Y-78242520D01*
X94899223Y-77820777D01*
X94477480Y-77538977D01*
X94155846Y-77475000D01*
X94914538Y-77475000D01*
X95070743Y-77410298D01*
X95190298Y-77290743D01*
X95255000Y-77134538D01*
X95255000Y-76331250D01*
X95148750Y-76225000D01*
X94005000Y-76225000D01*
X94005000Y-76245000D01*
X93955000Y-76245000D01*
X93955000Y-76225000D01*
X93935000Y-76225000D01*
X93935000Y-76175000D01*
X93955000Y-76175000D01*
X93955000Y-75031250D01*
X94005000Y-75031250D01*
X94005000Y-76175000D01*
X95148750Y-76175000D01*
X95255000Y-76068750D01*
X95255000Y-75265462D01*
X95190298Y-75109257D01*
X95070743Y-74989702D01*
X94914538Y-74925000D01*
X94111250Y-74925000D01*
X94005000Y-75031250D01*
X93955000Y-75031250D01*
X93848750Y-74925000D01*
X93045462Y-74925000D01*
X92889257Y-74989702D01*
X92769702Y-75109257D01*
X92705000Y-75265462D01*
X92705000Y-75362538D01*
X91825000Y-74482539D01*
X91825000Y-74235897D01*
X91699401Y-73932675D01*
X91467325Y-73700599D01*
X91164103Y-73575000D01*
X90908917Y-73575000D01*
X90804846Y-73505462D01*
X90651707Y-73475001D01*
X90600001Y-73464716D01*
X90548295Y-73475001D01*
X87687707Y-73475001D01*
X87636001Y-73464716D01*
X87584295Y-73475001D01*
X87431156Y-73505462D01*
X87257497Y-73621497D01*
X87228206Y-73665334D01*
X86776003Y-74117538D01*
X86699430Y-73932675D01*
X86467354Y-73700599D01*
X86164132Y-73575000D01*
X85835926Y-73575000D01*
X85532704Y-73700599D01*
X85500007Y-73733297D01*
X85467309Y-73700599D01*
X85164087Y-73575000D01*
X84835881Y-73575000D01*
X84532659Y-73700599D01*
X84300583Y-73932675D01*
X84174984Y-74235897D01*
X84174984Y-74482539D01*
X83869525Y-74787998D01*
X83825689Y-74817288D01*
X83766759Y-74905483D01*
X83709653Y-74990948D01*
X83668907Y-75195792D01*
X83679193Y-75247503D01*
X83679193Y-75586269D01*
X83579192Y-75686270D01*
X83579192Y-75838683D01*
X83578851Y-75839193D01*
X83554192Y-75963162D01*
X83529533Y-75839193D01*
X83529192Y-75838683D01*
X83529192Y-75686270D01*
X83429192Y-75586270D01*
X83429192Y-74398029D01*
X83667325Y-74299391D01*
X83899401Y-74067315D01*
X84025000Y-73764093D01*
X84025000Y-73435887D01*
X83899401Y-73132665D01*
X83667325Y-72900589D01*
X83364103Y-72774990D01*
X83035897Y-72774990D01*
X82882344Y-72838594D01*
X82793750Y-72750000D01*
X82025000Y-72750000D01*
X82025000Y-72770000D01*
X81975000Y-72770000D01*
X81975000Y-72750000D01*
X81206250Y-72750000D01*
X81100000Y-72856250D01*
X81100000Y-73334538D01*
X81164702Y-73490743D01*
X81284257Y-73610298D01*
X81381690Y-73650656D01*
X81288154Y-73713154D01*
X81142738Y-73930786D01*
X81091674Y-74187500D01*
X81091674Y-74749213D01*
X80908326Y-74565865D01*
X80908326Y-74187500D01*
X80857262Y-73930786D01*
X80711846Y-73713154D01*
X80618310Y-73650656D01*
X80715743Y-73610298D01*
X80835298Y-73490743D01*
X80900000Y-73334538D01*
X80900000Y-72856250D01*
X80793750Y-72750000D01*
X80025000Y-72750000D01*
X80025000Y-72770000D01*
X79975000Y-72770000D01*
X79975000Y-72750000D01*
X79955000Y-72750000D01*
X79955000Y-72700000D01*
X79975000Y-72700000D01*
X79975000Y-71881250D01*
X80025000Y-71881250D01*
X80025000Y-72700000D01*
X80793750Y-72700000D01*
X80900000Y-72593750D01*
X80900000Y-72115462D01*
X81100000Y-72115462D01*
X81100000Y-72593750D01*
X81206250Y-72700000D01*
X81975000Y-72700000D01*
X81975000Y-71881250D01*
X82025000Y-71881250D01*
X82025000Y-72700000D01*
X82793750Y-72700000D01*
X82900000Y-72593750D01*
X82900000Y-72115462D01*
X82835298Y-71959257D01*
X82715743Y-71839702D01*
X82559538Y-71775000D01*
X82131250Y-71775000D01*
X82025000Y-71881250D01*
X81975000Y-71881250D01*
X81868750Y-71775000D01*
X81440462Y-71775000D01*
X81284257Y-71839702D01*
X81164702Y-71959257D01*
X81100000Y-72115462D01*
X80900000Y-72115462D01*
X80835298Y-71959257D01*
X80715743Y-71839702D01*
X80559538Y-71775000D01*
X80131250Y-71775000D01*
X80025000Y-71881250D01*
X79975000Y-71881250D01*
X79868750Y-71775000D01*
X79440462Y-71775000D01*
X79284257Y-71839702D01*
X79164702Y-71959257D01*
X79100000Y-72115462D01*
X79100000Y-72520643D01*
X79057262Y-72305786D01*
X78911846Y-72088154D01*
X78694214Y-71942738D01*
X78437500Y-71891674D01*
X78434136Y-71891674D01*
X77967462Y-71425000D01*
X78268750Y-71425000D01*
X78375000Y-71318750D01*
X78375000Y-70425000D01*
X78425000Y-70425000D01*
X78425000Y-71318750D01*
X78531250Y-71425000D01*
X79084538Y-71425000D01*
X79240743Y-71360298D01*
X79360298Y-71240743D01*
X79425000Y-71084538D01*
X79425000Y-70531250D01*
X79318750Y-70425000D01*
X78425000Y-70425000D01*
X78375000Y-70425000D01*
X77481250Y-70425000D01*
X77375000Y-70531250D01*
X77375000Y-70832539D01*
X77233326Y-70690865D01*
X77233326Y-70381250D01*
X80975000Y-70381250D01*
X80975000Y-71034538D01*
X81039702Y-71190743D01*
X81159257Y-71310298D01*
X81315462Y-71375000D01*
X82068750Y-71375000D01*
X82175000Y-71268750D01*
X82175000Y-70275000D01*
X82225000Y-70275000D01*
X82225000Y-71268750D01*
X82331250Y-71375000D01*
X83084538Y-71375000D01*
X83240743Y-71310298D01*
X83360298Y-71190743D01*
X83425000Y-71034538D01*
X83425000Y-70606250D01*
X83475000Y-70606250D01*
X83475000Y-71234538D01*
X83539702Y-71390743D01*
X83659257Y-71510298D01*
X83815462Y-71575000D01*
X83968750Y-71575000D01*
X84075000Y-71468750D01*
X84075000Y-70500000D01*
X83581250Y-70500000D01*
X83475000Y-70606250D01*
X83425000Y-70606250D01*
X83425000Y-70381250D01*
X83318750Y-70275000D01*
X82225000Y-70275000D01*
X82175000Y-70275000D01*
X81081250Y-70275000D01*
X80975000Y-70381250D01*
X77233326Y-70381250D01*
X77233326Y-69800000D01*
X77216511Y-69715462D01*
X77375000Y-69715462D01*
X77375000Y-70268750D01*
X77481250Y-70375000D01*
X78375000Y-70375000D01*
X78375000Y-69481250D01*
X78425000Y-69481250D01*
X78425000Y-70375000D01*
X79318750Y-70375000D01*
X79425000Y-70268750D01*
X79425000Y-69715462D01*
X79360298Y-69559257D01*
X79266503Y-69465462D01*
X80975000Y-69465462D01*
X80975000Y-70118750D01*
X81081250Y-70225000D01*
X82175000Y-70225000D01*
X82175000Y-69231250D01*
X82068750Y-69125000D01*
X81315462Y-69125000D01*
X81159257Y-69189702D01*
X81039702Y-69309257D01*
X80975000Y-69465462D01*
X79266503Y-69465462D01*
X79240743Y-69439702D01*
X79084538Y-69375000D01*
X78531250Y-69375000D01*
X78425000Y-69481250D01*
X78375000Y-69481250D01*
X78268750Y-69375000D01*
X77715462Y-69375000D01*
X77559257Y-69439702D01*
X77439702Y-69559257D01*
X77375000Y-69715462D01*
X77216511Y-69715462D01*
X77200341Y-69634173D01*
X77106408Y-69493592D01*
X76965827Y-69399659D01*
X76800000Y-69366674D01*
X75600000Y-69366674D01*
X75434173Y-69399659D01*
X75293592Y-69493592D01*
X75199659Y-69634173D01*
X75166674Y-69800000D01*
X75166674Y-71000000D01*
X75199659Y-71165827D01*
X75293592Y-71306408D01*
X75434173Y-71400341D01*
X75600000Y-71433326D01*
X76490865Y-71433326D01*
X77113165Y-72055627D01*
X76944214Y-71942738D01*
X76687500Y-71891674D01*
X76112500Y-71891674D01*
X75855786Y-71942738D01*
X75638154Y-72088154D01*
X75492738Y-72305786D01*
X75441674Y-72562500D01*
X75441674Y-73037500D01*
X75492738Y-73294214D01*
X75638154Y-73511846D01*
X75675001Y-73536466D01*
X75675000Y-74916674D01*
X75350000Y-74916674D01*
X75184173Y-74949659D01*
X75043592Y-75043592D01*
X74949659Y-75184173D01*
X74916674Y-75350000D01*
X74916674Y-77050000D01*
X74949659Y-77215827D01*
X75043592Y-77356408D01*
X75184173Y-77450341D01*
X75350000Y-77483326D01*
X75982296Y-77483326D01*
X75702520Y-77538977D01*
X75280777Y-77820777D01*
X74998977Y-78242520D01*
X74900022Y-78740000D01*
X74160000Y-78740000D01*
X74160000Y-68611455D01*
X74227939Y-68073661D01*
X74326390Y-67825000D01*
X81225000Y-67825000D01*
X81225000Y-68175000D01*
X81301172Y-68507945D01*
X81498959Y-68786396D01*
X81788249Y-68967962D01*
X81938483Y-69009964D01*
X82075000Y-68918343D01*
X82075000Y-67825000D01*
X82125000Y-67825000D01*
X82125000Y-68918343D01*
X82261517Y-69009964D01*
X82411751Y-68967962D01*
X82701041Y-68786396D01*
X82825000Y-68611882D01*
X82825000Y-68834538D01*
X82889702Y-68990743D01*
X83009257Y-69110298D01*
X83044751Y-69125000D01*
X82331250Y-69125000D01*
X82225000Y-69231250D01*
X82225000Y-70225000D01*
X83318750Y-70225000D01*
X83425000Y-70118750D01*
X83425000Y-69715462D01*
X83475000Y-69715462D01*
X83475000Y-70343750D01*
X83581250Y-70450000D01*
X84075000Y-70450000D01*
X84075000Y-69800000D01*
X84116674Y-69800000D01*
X84116674Y-71150000D01*
X84125000Y-71191858D01*
X84125000Y-71468750D01*
X84231250Y-71575000D01*
X84384538Y-71575000D01*
X84424638Y-71558390D01*
X84484976Y-71570392D01*
X84375000Y-71835897D01*
X84375000Y-72164103D01*
X84500599Y-72467325D01*
X84732675Y-72699401D01*
X85035897Y-72825000D01*
X85364103Y-72825000D01*
X85667325Y-72699401D01*
X85800000Y-72566726D01*
X85932675Y-72699401D01*
X86235897Y-72825000D01*
X86564103Y-72825000D01*
X86867325Y-72699401D01*
X87099401Y-72467325D01*
X87157588Y-72326849D01*
X87200000Y-72335285D01*
X87251706Y-72325000D01*
X88558274Y-72325000D01*
X88732675Y-72499401D01*
X89035897Y-72625000D01*
X89364103Y-72625000D01*
X89667325Y-72499401D01*
X89841726Y-72325000D01*
X90598294Y-72325000D01*
X90650000Y-72335285D01*
X90701706Y-72325000D01*
X90854845Y-72294539D01*
X91028504Y-72178504D01*
X91057797Y-72134665D01*
X91284135Y-71908326D01*
X91737500Y-71908326D01*
X91994214Y-71857262D01*
X92211846Y-71711846D01*
X92274344Y-71618310D01*
X92314702Y-71715743D01*
X92434257Y-71835298D01*
X92590462Y-71900000D01*
X93068750Y-71900000D01*
X93175000Y-71793750D01*
X93175000Y-71025000D01*
X93225000Y-71025000D01*
X93225000Y-71793750D01*
X93331250Y-71900000D01*
X93809538Y-71900000D01*
X93965743Y-71835298D01*
X94085298Y-71715743D01*
X94150000Y-71559538D01*
X94150000Y-71131250D01*
X94043750Y-71025000D01*
X93225000Y-71025000D01*
X93175000Y-71025000D01*
X93155000Y-71025000D01*
X93155000Y-70975000D01*
X93175000Y-70975000D01*
X93175000Y-70206250D01*
X93225000Y-70206250D01*
X93225000Y-70975000D01*
X94043750Y-70975000D01*
X94150000Y-70868750D01*
X94150000Y-70440462D01*
X94085298Y-70284257D01*
X93965743Y-70164702D01*
X93809538Y-70100000D01*
X93331250Y-70100000D01*
X93225000Y-70206250D01*
X93175000Y-70206250D01*
X93068750Y-70100000D01*
X92590462Y-70100000D01*
X92434257Y-70164702D01*
X92314702Y-70284257D01*
X92274344Y-70381690D01*
X92211846Y-70288154D01*
X91994214Y-70142738D01*
X91737500Y-70091674D01*
X91162500Y-70091674D01*
X90905786Y-70142738D01*
X90688154Y-70288154D01*
X90542738Y-70505786D01*
X90491674Y-70762500D01*
X90491674Y-71215865D01*
X90432539Y-71275000D01*
X89841726Y-71275000D01*
X89758884Y-71192158D01*
X89760298Y-71190743D01*
X89825000Y-71034538D01*
X89825000Y-70381250D01*
X89718750Y-70275000D01*
X88625000Y-70275000D01*
X88625000Y-70295000D01*
X88575000Y-70295000D01*
X88575000Y-70275000D01*
X87481250Y-70275000D01*
X87375000Y-70381250D01*
X87375000Y-70407538D01*
X87333326Y-70365864D01*
X87333326Y-69800000D01*
X87300341Y-69634173D01*
X87206408Y-69493592D01*
X87065827Y-69399659D01*
X86900000Y-69366674D01*
X86500000Y-69366674D01*
X86375000Y-69391538D01*
X86250000Y-69366674D01*
X85850000Y-69366674D01*
X85725000Y-69391538D01*
X85600000Y-69366674D01*
X85200000Y-69366674D01*
X85075000Y-69391538D01*
X84950000Y-69366674D01*
X84550000Y-69366674D01*
X84424638Y-69391610D01*
X84384538Y-69375000D01*
X84231250Y-69375000D01*
X84125000Y-69481250D01*
X84125000Y-69758142D01*
X84116674Y-69800000D01*
X84075000Y-69800000D01*
X84075000Y-69481250D01*
X83968750Y-69375000D01*
X83815462Y-69375000D01*
X83659257Y-69439702D01*
X83539702Y-69559257D01*
X83475000Y-69715462D01*
X83425000Y-69715462D01*
X83425000Y-69465462D01*
X83360298Y-69309257D01*
X83240743Y-69189702D01*
X83205249Y-69175000D01*
X84068750Y-69175000D01*
X84175000Y-69068750D01*
X84175000Y-67825000D01*
X84225000Y-67825000D01*
X84225000Y-69068750D01*
X84331250Y-69175000D01*
X85234538Y-69175000D01*
X85390743Y-69110298D01*
X85400000Y-69101041D01*
X85409257Y-69110298D01*
X85565462Y-69175000D01*
X86468750Y-69175000D01*
X86575000Y-69068750D01*
X86575000Y-67825000D01*
X86625000Y-67825000D01*
X86625000Y-69068750D01*
X86731250Y-69175000D01*
X87594751Y-69175000D01*
X87559257Y-69189702D01*
X87439702Y-69309257D01*
X87375000Y-69465462D01*
X87375000Y-70118750D01*
X87481250Y-70225000D01*
X88575000Y-70225000D01*
X88575000Y-69231250D01*
X88625000Y-69231250D01*
X88625000Y-70225000D01*
X89718750Y-70225000D01*
X89825000Y-70118750D01*
X89825000Y-69465462D01*
X89760298Y-69309257D01*
X89640743Y-69189702D01*
X89484538Y-69125000D01*
X88731250Y-69125000D01*
X88625000Y-69231250D01*
X88575000Y-69231250D01*
X88468750Y-69125000D01*
X87755249Y-69125000D01*
X87790743Y-69110298D01*
X87910298Y-68990743D01*
X87975000Y-68834538D01*
X87975000Y-68611882D01*
X88098959Y-68786396D01*
X88388249Y-68967962D01*
X88538483Y-69009964D01*
X88675000Y-68918343D01*
X88675000Y-67825000D01*
X88725000Y-67825000D01*
X88725000Y-68918343D01*
X88861517Y-69009964D01*
X89011751Y-68967962D01*
X89301041Y-68786396D01*
X89498828Y-68507945D01*
X89575000Y-68175000D01*
X89575000Y-67825000D01*
X88725000Y-67825000D01*
X88675000Y-67825000D01*
X86625000Y-67825000D01*
X86575000Y-67825000D01*
X84225000Y-67825000D01*
X84175000Y-67825000D01*
X82125000Y-67825000D01*
X82075000Y-67825000D01*
X81225000Y-67825000D01*
X74326390Y-67825000D01*
X74415815Y-67599140D01*
X74542335Y-67425000D01*
X81225000Y-67425000D01*
X81225000Y-67775000D01*
X82075000Y-67775000D01*
X82075000Y-66681657D01*
X81938483Y-66590036D01*
X81788249Y-66632038D01*
X81498959Y-66813604D01*
X81301172Y-67092055D01*
X81225000Y-67425000D01*
X74542335Y-67425000D01*
X74715801Y-67186245D01*
X75109045Y-66860925D01*
X75570831Y-66643624D01*
X76095553Y-66543529D01*
X76207845Y-66540000D01*
X82958959Y-66540000D01*
X82889702Y-66609257D01*
X82889702Y-66609257D01*
G37*
X82889702Y-66609257D02*
X82825000Y-66765462D01*
X82825000Y-66988118D01*
X82701041Y-66813604D01*
X82411751Y-66632038D01*
X82261517Y-66590036D01*
X82125000Y-66681657D01*
X82125000Y-67775000D01*
X84175000Y-67775000D01*
X84175000Y-67755000D01*
X84225000Y-67755000D01*
X84225000Y-67775000D01*
X86575000Y-67775000D01*
X86575000Y-67755000D01*
X86625000Y-67755000D01*
X86625000Y-67775000D01*
X88675000Y-67775000D01*
X88675000Y-66681657D01*
X88725000Y-66681657D01*
X88725000Y-67775000D01*
X89575000Y-67775000D01*
X89575000Y-67425000D01*
X89498828Y-67092055D01*
X89301041Y-66813604D01*
X89011751Y-66632038D01*
X88861517Y-66590036D01*
X88725000Y-66681657D01*
X88675000Y-66681657D01*
X88538483Y-66590036D01*
X88388249Y-66632038D01*
X88098959Y-66813604D01*
X87975000Y-66988118D01*
X87975000Y-66765462D01*
X87910298Y-66609257D01*
X87841041Y-66540000D01*
X93948545Y-66540000D01*
X94486339Y-66607939D01*
X94960860Y-66795815D01*
X95373755Y-67095801D01*
X95699075Y-67489045D01*
X95916376Y-67950831D01*
X96016471Y-68475553D01*
X96020000Y-68587845D01*
X96020001Y-99028537D01*
X95952061Y-99566339D01*
X95764184Y-100040862D01*
X95464196Y-100453759D01*
X95070955Y-100779075D01*
X94609169Y-100996376D01*
X94084448Y-101096471D01*
X93972155Y-101100000D01*
X76231455Y-101100000D01*
X75693661Y-101032061D01*
X75219138Y-100844184D01*
X74806241Y-100544196D01*
X74480925Y-100150955D01*
X74263624Y-99689169D01*
X74163529Y-99164448D01*
X74160000Y-99052155D01*
X74160000Y-78740000D01*
X74900022Y-78740000D01*
X74998977Y-79237480D01*
X75280777Y-79659223D01*
X75702520Y-79941023D01*
X76049290Y-80010000D01*
X75702520Y-80078977D01*
X75280777Y-80360777D01*
X74998977Y-80782520D01*
X74900022Y-81280000D01*
X74998977Y-81777480D01*
X75280777Y-82199223D01*
X75702520Y-82481023D01*
X76049290Y-82550000D01*
X75702520Y-82618977D01*
X75280777Y-82900777D01*
X74998977Y-83322520D01*
X74900022Y-83820000D01*
X74998977Y-84317480D01*
X75280777Y-84739223D01*
X75702520Y-85021023D01*
X76049290Y-85090000D01*
X75702520Y-85158977D01*
X75280777Y-85440777D01*
X74998977Y-85862520D01*
X74900022Y-86360000D01*
X74998977Y-86857480D01*
X75280777Y-87279223D01*
X75702520Y-87561023D01*
X76049290Y-87630000D01*
X75702520Y-87698977D01*
X75280777Y-87980777D01*
X74998977Y-88402520D01*
X74900022Y-88900000D01*
X74998977Y-89397480D01*
X75280777Y-89819223D01*
X75702520Y-90101023D01*
X76049290Y-90170000D01*
X75702520Y-90238977D01*
X75280777Y-90520777D01*
X74998977Y-90942520D01*
X74900022Y-91440000D01*
X74998977Y-91937480D01*
X75280777Y-92359223D01*
X75702520Y-92641023D01*
X76049290Y-92710000D01*
X75702520Y-92778977D01*
X75280777Y-93060777D01*
X74998977Y-93482520D01*
X74900022Y-93980000D01*
X74998977Y-94477480D01*
X75280777Y-94899223D01*
X75702520Y-95181023D01*
X76049290Y-95250000D01*
X75702520Y-95318977D01*
X75280777Y-95600777D01*
X74998977Y-96022520D01*
X74900022Y-96520000D01*
X74998977Y-97017480D01*
X75280777Y-97439223D01*
X75702520Y-97721023D01*
X76049290Y-97790000D01*
X75702520Y-97858977D01*
X75280777Y-98140777D01*
X74998977Y-98562520D01*
X74900022Y-99060000D01*
X74998977Y-99557480D01*
X75280777Y-99979223D01*
X75702520Y-100261023D01*
X76074427Y-100335000D01*
X76325573Y-100335000D01*
X76697480Y-100261023D01*
X77078774Y-100006250D01*
X78300000Y-100006250D01*
X78300000Y-100484538D01*
X78364702Y-100640743D01*
X78484257Y-100760298D01*
X78640462Y-100825000D01*
X79068750Y-100825000D01*
X79175000Y-100718750D01*
X79175000Y-99900000D01*
X78406250Y-99900000D01*
X78300000Y-100006250D01*
X77078774Y-100006250D01*
X77119223Y-99979223D01*
X77401023Y-99557480D01*
X77499978Y-99060000D01*
X77401023Y-98562520D01*
X77232361Y-98310100D01*
X78534667Y-97007795D01*
X78578504Y-96978504D01*
X78694539Y-96804845D01*
X78725000Y-96651706D01*
X78735285Y-96600001D01*
X78725000Y-96548295D01*
X78725000Y-94005040D01*
X78742738Y-94094214D01*
X78888154Y-94311846D01*
X79075000Y-94436692D01*
X79075000Y-94558274D01*
X78900599Y-94732675D01*
X78775000Y-95035897D01*
X78775000Y-95364103D01*
X78900599Y-95667325D01*
X79132675Y-95899401D01*
X79435897Y-96025000D01*
X79764103Y-96025000D01*
X80067325Y-95899401D01*
X80299401Y-95667325D01*
X80425000Y-95364103D01*
X80425000Y-95035897D01*
X80299401Y-94732675D01*
X80125000Y-94558274D01*
X80125000Y-94436692D01*
X80311846Y-94311846D01*
X80457262Y-94094214D01*
X80468862Y-94035897D01*
X80775000Y-94035897D01*
X80775000Y-94364103D01*
X80900599Y-94667325D01*
X81132675Y-94899401D01*
X81435897Y-95025000D01*
X81764103Y-95025000D01*
X82067325Y-94899401D01*
X82075156Y-94891570D01*
X82168592Y-95031408D01*
X82309173Y-95125341D01*
X82475000Y-95158326D01*
X83525000Y-95158326D01*
X83690827Y-95125341D01*
X83831408Y-95031408D01*
X83902507Y-94925000D01*
X86247493Y-94925000D01*
X86318592Y-95031408D01*
X86459173Y-95125341D01*
X86625000Y-95158326D01*
X87675000Y-95158326D01*
X87840827Y-95125341D01*
X87981408Y-95031408D01*
X88075341Y-94890827D01*
X88108326Y-94725000D01*
X88108326Y-94075000D01*
X88075341Y-93909173D01*
X87981408Y-93768592D01*
X87840827Y-93674659D01*
X87675000Y-93641674D01*
X86625000Y-93641674D01*
X86459173Y-93674659D01*
X86318592Y-93768592D01*
X86247493Y-93875000D01*
X83902507Y-93875000D01*
X83831408Y-93768592D01*
X83690827Y-93674659D01*
X83525000Y-93641674D01*
X82475000Y-93641674D01*
X82309173Y-93674659D01*
X82308663Y-93675000D01*
X82241726Y-93675000D01*
X82067325Y-93500599D01*
X81764103Y-93375000D01*
X81435897Y-93375000D01*
X81132675Y-93500599D01*
X80900599Y-93732675D01*
X80775000Y-94035897D01*
X80468862Y-94035897D01*
X80508326Y-93837500D01*
X80508326Y-93434135D01*
X81067462Y-92875000D01*
X82097493Y-92875000D01*
X82168592Y-92981408D01*
X82309173Y-93075341D01*
X82475000Y-93108326D01*
X83525000Y-93108326D01*
X83690827Y-93075341D01*
X83831408Y-92981408D01*
X83902507Y-92875000D01*
X86247493Y-92875000D01*
X86318592Y-92981408D01*
X86459173Y-93075341D01*
X86625000Y-93108326D01*
X87675000Y-93108326D01*
X87840827Y-93075341D01*
X87981408Y-92981408D01*
X88075341Y-92840827D01*
X88108326Y-92675000D01*
X88108326Y-92025000D01*
X88075341Y-91859173D01*
X87981408Y-91718592D01*
X87840827Y-91624659D01*
X87675000Y-91591674D01*
X86625000Y-91591674D01*
X86459173Y-91624659D01*
X86318592Y-91718592D01*
X86247493Y-91825000D01*
X83902507Y-91825000D01*
X83831408Y-91718592D01*
X83690827Y-91624659D01*
X83525000Y-91591674D01*
X82475000Y-91591674D01*
X82309173Y-91624659D01*
X82168592Y-91718592D01*
X82097493Y-91825000D01*
X80901704Y-91825000D01*
X80849999Y-91814715D01*
X80798294Y-91825000D01*
X80645155Y-91855461D01*
X80508326Y-91946887D01*
X80508326Y-91525000D01*
X82148294Y-91525000D01*
X82200000Y-91535285D01*
X82251706Y-91525000D01*
X82404845Y-91494539D01*
X82578504Y-91378504D01*
X82607797Y-91334665D01*
X82984136Y-90958326D01*
X83525000Y-90958326D01*
X83690827Y-90925341D01*
X83831408Y-90831408D01*
X83902507Y-90725000D01*
X86247493Y-90725000D01*
X86318592Y-90831408D01*
X86459173Y-90925341D01*
X86625000Y-90958326D01*
X87675000Y-90958326D01*
X87840827Y-90925341D01*
X87981408Y-90831408D01*
X88075341Y-90690827D01*
X88108326Y-90525000D01*
X88108326Y-89875000D01*
X88075341Y-89709173D01*
X87981408Y-89568592D01*
X87840827Y-89474659D01*
X87675000Y-89441674D01*
X87525000Y-89441674D01*
X87525000Y-87541716D01*
X87699401Y-87367315D01*
X87748328Y-87249194D01*
X87764687Y-87288687D01*
X87996763Y-87520763D01*
X88275001Y-87636013D01*
X88275000Y-94782538D01*
X87782539Y-95275000D01*
X82251706Y-95275000D01*
X82200000Y-95264715D01*
X82148294Y-95275000D01*
X81995155Y-95305461D01*
X81821496Y-95421496D01*
X81792203Y-95465336D01*
X81665336Y-95592203D01*
X81665330Y-95592207D01*
X80665333Y-96592206D01*
X80621497Y-96621496D01*
X80569443Y-96699401D01*
X80524492Y-96766674D01*
X80400000Y-96766674D01*
X80234173Y-96799659D01*
X80093592Y-96893592D01*
X79999659Y-97034173D01*
X79966674Y-97200000D01*
X79966674Y-97445210D01*
X79911846Y-97363154D01*
X79694214Y-97217738D01*
X79437500Y-97166674D01*
X78962500Y-97166674D01*
X78705786Y-97217738D01*
X78488154Y-97363154D01*
X78342738Y-97580786D01*
X78291674Y-97837500D01*
X78291674Y-98412500D01*
X78342738Y-98669214D01*
X78488154Y-98886846D01*
X78581690Y-98949344D01*
X78484257Y-98989702D01*
X78364702Y-99109257D01*
X78300000Y-99265462D01*
X78300000Y-99743750D01*
X78406250Y-99850000D01*
X79175000Y-99850000D01*
X79175000Y-99830000D01*
X79225000Y-99830000D01*
X79225000Y-99850000D01*
X79245000Y-99850000D01*
X79245000Y-99900000D01*
X79225000Y-99900000D01*
X79225000Y-100718750D01*
X79331250Y-100825000D01*
X79759538Y-100825000D01*
X79915743Y-100760298D01*
X79984819Y-100691222D01*
X79999659Y-100765827D01*
X80093592Y-100906408D01*
X80234173Y-101000341D01*
X80400000Y-101033326D01*
X81600000Y-101033326D01*
X81765827Y-101000341D01*
X81906408Y-100906408D01*
X82000341Y-100765827D01*
X82033326Y-100600000D01*
X82033326Y-99400000D01*
X82000341Y-99234173D01*
X81906408Y-99093592D01*
X81765827Y-98999659D01*
X81600000Y-98966674D01*
X81408691Y-98966674D01*
X81378504Y-98921496D01*
X81334667Y-98892205D01*
X81275788Y-98833326D01*
X81600000Y-98833326D01*
X81765827Y-98800341D01*
X81906408Y-98706408D01*
X82000341Y-98565827D01*
X82033326Y-98400000D01*
X82033326Y-97200000D01*
X82000341Y-97034173D01*
X81906408Y-96893592D01*
X81871916Y-96870546D01*
X82041674Y-96700788D01*
X82041674Y-96875000D01*
X82074659Y-97040827D01*
X82168592Y-97181408D01*
X82309173Y-97275341D01*
X82475000Y-97308326D01*
X83525000Y-97308326D01*
X83690827Y-97275341D01*
X83831408Y-97181408D01*
X83902507Y-97075000D01*
X86247493Y-97075000D01*
X86318592Y-97181408D01*
X86459173Y-97275341D01*
X86625000Y-97308326D01*
X87675000Y-97308326D01*
X87840827Y-97275341D01*
X87981408Y-97181408D01*
X88052507Y-97075000D01*
X88198294Y-97075000D01*
X88250000Y-97085285D01*
X88301706Y-97075000D01*
X88395239Y-97056395D01*
X88366674Y-97200000D01*
X88366674Y-98400000D01*
X88399659Y-98565827D01*
X88493592Y-98706408D01*
X88634173Y-98800341D01*
X88800000Y-98833326D01*
X89224213Y-98833326D01*
X89090865Y-98966674D01*
X88800000Y-98966674D01*
X88634173Y-98999659D01*
X88493592Y-99093592D01*
X88399659Y-99234173D01*
X88366674Y-99400000D01*
X88366674Y-100600000D01*
X88399659Y-100765827D01*
X88493592Y-100906408D01*
X88634173Y-101000341D01*
X88800000Y-101033326D01*
X90000000Y-101033326D01*
X90165827Y-101000341D01*
X90306408Y-100906408D01*
X90400341Y-100765827D01*
X90427624Y-100628665D01*
X90484257Y-100685298D01*
X90640462Y-100750000D01*
X91068750Y-100750000D01*
X91175000Y-100643750D01*
X91175000Y-99825000D01*
X91225000Y-99825000D01*
X91225000Y-100643750D01*
X91331250Y-100750000D01*
X91759538Y-100750000D01*
X91915743Y-100685298D01*
X92035298Y-100565743D01*
X92100000Y-100409538D01*
X92100000Y-99931250D01*
X91993750Y-99825000D01*
X91225000Y-99825000D01*
X91175000Y-99825000D01*
X91155000Y-99825000D01*
X91155000Y-99775000D01*
X91175000Y-99775000D01*
X91175000Y-99755000D01*
X91225000Y-99755000D01*
X91225000Y-99775000D01*
X91993750Y-99775000D01*
X92100000Y-99668750D01*
X92100000Y-99190462D01*
X92035298Y-99034257D01*
X91915743Y-98914702D01*
X91818310Y-98874344D01*
X91911846Y-98811846D01*
X92057262Y-98594214D01*
X92108326Y-98337500D01*
X92108326Y-97762500D01*
X92057262Y-97505786D01*
X91911846Y-97288154D01*
X91694214Y-97142738D01*
X91437500Y-97091674D01*
X90962500Y-97091674D01*
X90705786Y-97142738D01*
X90488154Y-97288154D01*
X90433326Y-97370210D01*
X90433326Y-97200000D01*
X90400341Y-97034173D01*
X90306408Y-96893592D01*
X90165827Y-96799659D01*
X90149192Y-96796350D01*
X90149192Y-91706243D01*
X90435897Y-91825000D01*
X90764103Y-91825000D01*
X91067325Y-91699401D01*
X91075001Y-91691725D01*
X91075001Y-92975000D01*
X90835897Y-92975000D01*
X90532675Y-93100599D01*
X90300599Y-93332675D01*
X90175000Y-93635897D01*
X90175000Y-93964103D01*
X90300599Y-94267325D01*
X90532675Y-94499401D01*
X90835897Y-94625000D01*
X91164103Y-94625000D01*
X91467325Y-94499401D01*
X91475001Y-94491725D01*
X91475001Y-95182537D01*
X91282538Y-95375000D01*
X91035897Y-95375000D01*
X90732675Y-95500599D01*
X90500599Y-95732675D01*
X90375000Y-96035897D01*
X90375000Y-96364103D01*
X90500599Y-96667325D01*
X90732675Y-96899401D01*
X91035897Y-97025000D01*
X91364103Y-97025000D01*
X91667325Y-96899401D01*
X91875001Y-96691725D01*
X91875001Y-96748289D01*
X91864715Y-96800000D01*
X91905461Y-97004844D01*
X91905462Y-97004845D01*
X92021497Y-97178504D01*
X92065334Y-97207795D01*
X93035758Y-98178220D01*
X92778977Y-98562520D01*
X92680022Y-99060000D01*
X92778977Y-99557480D01*
X93060777Y-99979223D01*
X93482520Y-100261023D01*
X93854427Y-100335000D01*
X94105573Y-100335000D01*
X94477480Y-100261023D01*
X94899223Y-99979223D01*
X95181023Y-99557480D01*
X95279978Y-99060000D01*
X95181023Y-98562520D01*
X94899223Y-98140777D01*
X94477480Y-97858977D01*
X94132897Y-97790435D01*
X94132171Y-97789709D01*
X94477480Y-97721023D01*
X94899223Y-97439223D01*
X95181023Y-97017480D01*
X95279978Y-96520000D01*
X95181023Y-96022520D01*
X94899223Y-95600777D01*
X94477480Y-95318977D01*
X94130710Y-95250000D01*
X94477480Y-95181023D01*
X94899223Y-94899223D01*
X95181023Y-94477480D01*
X95279978Y-93980000D01*
X95181023Y-93482520D01*
X94899223Y-93060777D01*
X94477480Y-92778977D01*
X94130710Y-92710000D01*
X94477480Y-92641023D01*
X94899223Y-92359223D01*
X95181023Y-91937480D01*
X95279978Y-91440000D01*
X95181023Y-90942520D01*
X94899223Y-90520777D01*
X94477480Y-90238977D01*
X94130710Y-90170000D01*
X94477480Y-90101023D01*
X94899223Y-89819223D01*
X95181023Y-89397480D01*
X95279978Y-88900000D01*
X95181023Y-88402520D01*
X94899223Y-87980777D01*
X94477480Y-87698977D01*
X94130710Y-87630000D01*
X94477480Y-87561023D01*
X94899223Y-87279223D01*
X95181023Y-86857480D01*
X95279978Y-86360000D01*
X95181023Y-85862520D01*
X94899223Y-85440777D01*
X94477480Y-85158977D01*
X94130710Y-85090000D01*
X94477480Y-85021023D01*
X94899223Y-84739223D01*
X95181023Y-84317480D01*
X95279978Y-83820000D01*
X95181023Y-83322520D01*
X94899223Y-82900777D01*
X94477480Y-82618977D01*
X94130710Y-82550000D01*
X94477480Y-82481023D01*
X94899223Y-82199223D01*
X95181023Y-81777480D01*
X95279978Y-81280000D01*
X95181023Y-80782520D01*
X94899223Y-80360777D01*
X94477480Y-80078977D01*
X94130710Y-80010000D01*
X94477480Y-79941023D01*
X94899223Y-79659223D01*
X95181023Y-79237480D01*
X95279978Y-78740000D01*
X95181023Y-78242520D01*
X94899223Y-77820777D01*
X94477480Y-77538977D01*
X94155846Y-77475000D01*
X94914538Y-77475000D01*
X95070743Y-77410298D01*
X95190298Y-77290743D01*
X95255000Y-77134538D01*
X95255000Y-76331250D01*
X95148750Y-76225000D01*
X94005000Y-76225000D01*
X94005000Y-76245000D01*
X93955000Y-76245000D01*
X93955000Y-76225000D01*
X93935000Y-76225000D01*
X93935000Y-76175000D01*
X93955000Y-76175000D01*
X93955000Y-75031250D01*
X94005000Y-75031250D01*
X94005000Y-76175000D01*
X95148750Y-76175000D01*
X95255000Y-76068750D01*
X95255000Y-75265462D01*
X95190298Y-75109257D01*
X95070743Y-74989702D01*
X94914538Y-74925000D01*
X94111250Y-74925000D01*
X94005000Y-75031250D01*
X93955000Y-75031250D01*
X93848750Y-74925000D01*
X93045462Y-74925000D01*
X92889257Y-74989702D01*
X92769702Y-75109257D01*
X92705000Y-75265462D01*
X92705000Y-75362538D01*
X91825000Y-74482539D01*
X91825000Y-74235897D01*
X91699401Y-73932675D01*
X91467325Y-73700599D01*
X91164103Y-73575000D01*
X90908917Y-73575000D01*
X90804846Y-73505462D01*
X90651707Y-73475001D01*
X90600001Y-73464716D01*
X90548295Y-73475001D01*
X87687707Y-73475001D01*
X87636001Y-73464716D01*
X87584295Y-73475001D01*
X87431156Y-73505462D01*
X87257497Y-73621497D01*
X87228206Y-73665334D01*
X86776003Y-74117538D01*
X86699430Y-73932675D01*
X86467354Y-73700599D01*
X86164132Y-73575000D01*
X85835926Y-73575000D01*
X85532704Y-73700599D01*
X85500007Y-73733297D01*
X85467309Y-73700599D01*
X85164087Y-73575000D01*
X84835881Y-73575000D01*
X84532659Y-73700599D01*
X84300583Y-73932675D01*
X84174984Y-74235897D01*
X84174984Y-74482539D01*
X83869525Y-74787998D01*
X83825689Y-74817288D01*
X83766759Y-74905483D01*
X83709653Y-74990948D01*
X83668907Y-75195792D01*
X83679193Y-75247503D01*
X83679193Y-75586269D01*
X83579192Y-75686270D01*
X83579192Y-75838683D01*
X83578851Y-75839193D01*
X83554192Y-75963162D01*
X83529533Y-75839193D01*
X83529192Y-75838683D01*
X83529192Y-75686270D01*
X83429192Y-75586270D01*
X83429192Y-74398029D01*
X83667325Y-74299391D01*
X83899401Y-74067315D01*
X84025000Y-73764093D01*
X84025000Y-73435887D01*
X83899401Y-73132665D01*
X83667325Y-72900589D01*
X83364103Y-72774990D01*
X83035897Y-72774990D01*
X82882344Y-72838594D01*
X82793750Y-72750000D01*
X82025000Y-72750000D01*
X82025000Y-72770000D01*
X81975000Y-72770000D01*
X81975000Y-72750000D01*
X81206250Y-72750000D01*
X81100000Y-72856250D01*
X81100000Y-73334538D01*
X81164702Y-73490743D01*
X81284257Y-73610298D01*
X81381690Y-73650656D01*
X81288154Y-73713154D01*
X81142738Y-73930786D01*
X81091674Y-74187500D01*
X81091674Y-74749213D01*
X80908326Y-74565865D01*
X80908326Y-74187500D01*
X80857262Y-73930786D01*
X80711846Y-73713154D01*
X80618310Y-73650656D01*
X80715743Y-73610298D01*
X80835298Y-73490743D01*
X80900000Y-73334538D01*
X80900000Y-72856250D01*
X80793750Y-72750000D01*
X80025000Y-72750000D01*
X80025000Y-72770000D01*
X79975000Y-72770000D01*
X79975000Y-72750000D01*
X79955000Y-72750000D01*
X79955000Y-72700000D01*
X79975000Y-72700000D01*
X79975000Y-71881250D01*
X80025000Y-71881250D01*
X80025000Y-72700000D01*
X80793750Y-72700000D01*
X80900000Y-72593750D01*
X80900000Y-72115462D01*
X81100000Y-72115462D01*
X81100000Y-72593750D01*
X81206250Y-72700000D01*
X81975000Y-72700000D01*
X81975000Y-71881250D01*
X82025000Y-71881250D01*
X82025000Y-72700000D01*
X82793750Y-72700000D01*
X82900000Y-72593750D01*
X82900000Y-72115462D01*
X82835298Y-71959257D01*
X82715743Y-71839702D01*
X82559538Y-71775000D01*
X82131250Y-71775000D01*
X82025000Y-71881250D01*
X81975000Y-71881250D01*
X81868750Y-71775000D01*
X81440462Y-71775000D01*
X81284257Y-71839702D01*
X81164702Y-71959257D01*
X81100000Y-72115462D01*
X80900000Y-72115462D01*
X80835298Y-71959257D01*
X80715743Y-71839702D01*
X80559538Y-71775000D01*
X80131250Y-71775000D01*
X80025000Y-71881250D01*
X79975000Y-71881250D01*
X79868750Y-71775000D01*
X79440462Y-71775000D01*
X79284257Y-71839702D01*
X79164702Y-71959257D01*
X79100000Y-72115462D01*
X79100000Y-72520643D01*
X79057262Y-72305786D01*
X78911846Y-72088154D01*
X78694214Y-71942738D01*
X78437500Y-71891674D01*
X78434136Y-71891674D01*
X77967462Y-71425000D01*
X78268750Y-71425000D01*
X78375000Y-71318750D01*
X78375000Y-70425000D01*
X78425000Y-70425000D01*
X78425000Y-71318750D01*
X78531250Y-71425000D01*
X79084538Y-71425000D01*
X79240743Y-71360298D01*
X79360298Y-71240743D01*
X79425000Y-71084538D01*
X79425000Y-70531250D01*
X79318750Y-70425000D01*
X78425000Y-70425000D01*
X78375000Y-70425000D01*
X77481250Y-70425000D01*
X77375000Y-70531250D01*
X77375000Y-70832539D01*
X77233326Y-70690865D01*
X77233326Y-70381250D01*
X80975000Y-70381250D01*
X80975000Y-71034538D01*
X81039702Y-71190743D01*
X81159257Y-71310298D01*
X81315462Y-71375000D01*
X82068750Y-71375000D01*
X82175000Y-71268750D01*
X82175000Y-70275000D01*
X82225000Y-70275000D01*
X82225000Y-71268750D01*
X82331250Y-71375000D01*
X83084538Y-71375000D01*
X83240743Y-71310298D01*
X83360298Y-71190743D01*
X83425000Y-71034538D01*
X83425000Y-70606250D01*
X83475000Y-70606250D01*
X83475000Y-71234538D01*
X83539702Y-71390743D01*
X83659257Y-71510298D01*
X83815462Y-71575000D01*
X83968750Y-71575000D01*
X84075000Y-71468750D01*
X84075000Y-70500000D01*
X83581250Y-70500000D01*
X83475000Y-70606250D01*
X83425000Y-70606250D01*
X83425000Y-70381250D01*
X83318750Y-70275000D01*
X82225000Y-70275000D01*
X82175000Y-70275000D01*
X81081250Y-70275000D01*
X80975000Y-70381250D01*
X77233326Y-70381250D01*
X77233326Y-69800000D01*
X77216511Y-69715462D01*
X77375000Y-69715462D01*
X77375000Y-70268750D01*
X77481250Y-70375000D01*
X78375000Y-70375000D01*
X78375000Y-69481250D01*
X78425000Y-69481250D01*
X78425000Y-70375000D01*
X79318750Y-70375000D01*
X79425000Y-70268750D01*
X79425000Y-69715462D01*
X79360298Y-69559257D01*
X79266503Y-69465462D01*
X80975000Y-69465462D01*
X80975000Y-70118750D01*
X81081250Y-70225000D01*
X82175000Y-70225000D01*
X82175000Y-69231250D01*
X82068750Y-69125000D01*
X81315462Y-69125000D01*
X81159257Y-69189702D01*
X81039702Y-69309257D01*
X80975000Y-69465462D01*
X79266503Y-69465462D01*
X79240743Y-69439702D01*
X79084538Y-69375000D01*
X78531250Y-69375000D01*
X78425000Y-69481250D01*
X78375000Y-69481250D01*
X78268750Y-69375000D01*
X77715462Y-69375000D01*
X77559257Y-69439702D01*
X77439702Y-69559257D01*
X77375000Y-69715462D01*
X77216511Y-69715462D01*
X77200341Y-69634173D01*
X77106408Y-69493592D01*
X76965827Y-69399659D01*
X76800000Y-69366674D01*
X75600000Y-69366674D01*
X75434173Y-69399659D01*
X75293592Y-69493592D01*
X75199659Y-69634173D01*
X75166674Y-69800000D01*
X75166674Y-71000000D01*
X75199659Y-71165827D01*
X75293592Y-71306408D01*
X75434173Y-71400341D01*
X75600000Y-71433326D01*
X76490865Y-71433326D01*
X77113165Y-72055627D01*
X76944214Y-71942738D01*
X76687500Y-71891674D01*
X76112500Y-71891674D01*
X75855786Y-71942738D01*
X75638154Y-72088154D01*
X75492738Y-72305786D01*
X75441674Y-72562500D01*
X75441674Y-73037500D01*
X75492738Y-73294214D01*
X75638154Y-73511846D01*
X75675001Y-73536466D01*
X75675000Y-74916674D01*
X75350000Y-74916674D01*
X75184173Y-74949659D01*
X75043592Y-75043592D01*
X74949659Y-75184173D01*
X74916674Y-75350000D01*
X74916674Y-77050000D01*
X74949659Y-77215827D01*
X75043592Y-77356408D01*
X75184173Y-77450341D01*
X75350000Y-77483326D01*
X75982296Y-77483326D01*
X75702520Y-77538977D01*
X75280777Y-77820777D01*
X74998977Y-78242520D01*
X74900022Y-78740000D01*
X74160000Y-78740000D01*
X74160000Y-68611455D01*
X74227939Y-68073661D01*
X74326390Y-67825000D01*
X81225000Y-67825000D01*
X81225000Y-68175000D01*
X81301172Y-68507945D01*
X81498959Y-68786396D01*
X81788249Y-68967962D01*
X81938483Y-69009964D01*
X82075000Y-68918343D01*
X82075000Y-67825000D01*
X82125000Y-67825000D01*
X82125000Y-68918343D01*
X82261517Y-69009964D01*
X82411751Y-68967962D01*
X82701041Y-68786396D01*
X82825000Y-68611882D01*
X82825000Y-68834538D01*
X82889702Y-68990743D01*
X83009257Y-69110298D01*
X83044751Y-69125000D01*
X82331250Y-69125000D01*
X82225000Y-69231250D01*
X82225000Y-70225000D01*
X83318750Y-70225000D01*
X83425000Y-70118750D01*
X83425000Y-69715462D01*
X83475000Y-69715462D01*
X83475000Y-70343750D01*
X83581250Y-70450000D01*
X84075000Y-70450000D01*
X84075000Y-69800000D01*
X84116674Y-69800000D01*
X84116674Y-71150000D01*
X84125000Y-71191858D01*
X84125000Y-71468750D01*
X84231250Y-71575000D01*
X84384538Y-71575000D01*
X84424638Y-71558390D01*
X84484976Y-71570392D01*
X84375000Y-71835897D01*
X84375000Y-72164103D01*
X84500599Y-72467325D01*
X84732675Y-72699401D01*
X85035897Y-72825000D01*
X85364103Y-72825000D01*
X85667325Y-72699401D01*
X85800000Y-72566726D01*
X85932675Y-72699401D01*
X86235897Y-72825000D01*
X86564103Y-72825000D01*
X86867325Y-72699401D01*
X87099401Y-72467325D01*
X87157588Y-72326849D01*
X87200000Y-72335285D01*
X87251706Y-72325000D01*
X88558274Y-72325000D01*
X88732675Y-72499401D01*
X89035897Y-72625000D01*
X89364103Y-72625000D01*
X89667325Y-72499401D01*
X89841726Y-72325000D01*
X90598294Y-72325000D01*
X90650000Y-72335285D01*
X90701706Y-72325000D01*
X90854845Y-72294539D01*
X91028504Y-72178504D01*
X91057797Y-72134665D01*
X91284135Y-71908326D01*
X91737500Y-71908326D01*
X91994214Y-71857262D01*
X92211846Y-71711846D01*
X92274344Y-71618310D01*
X92314702Y-71715743D01*
X92434257Y-71835298D01*
X92590462Y-71900000D01*
X93068750Y-71900000D01*
X93175000Y-71793750D01*
X93175000Y-71025000D01*
X93225000Y-71025000D01*
X93225000Y-71793750D01*
X93331250Y-71900000D01*
X93809538Y-71900000D01*
X93965743Y-71835298D01*
X94085298Y-71715743D01*
X94150000Y-71559538D01*
X94150000Y-71131250D01*
X94043750Y-71025000D01*
X93225000Y-71025000D01*
X93175000Y-71025000D01*
X93155000Y-71025000D01*
X93155000Y-70975000D01*
X93175000Y-70975000D01*
X93175000Y-70206250D01*
X93225000Y-70206250D01*
X93225000Y-70975000D01*
X94043750Y-70975000D01*
X94150000Y-70868750D01*
X94150000Y-70440462D01*
X94085298Y-70284257D01*
X93965743Y-70164702D01*
X93809538Y-70100000D01*
X93331250Y-70100000D01*
X93225000Y-70206250D01*
X93175000Y-70206250D01*
X93068750Y-70100000D01*
X92590462Y-70100000D01*
X92434257Y-70164702D01*
X92314702Y-70284257D01*
X92274344Y-70381690D01*
X92211846Y-70288154D01*
X91994214Y-70142738D01*
X91737500Y-70091674D01*
X91162500Y-70091674D01*
X90905786Y-70142738D01*
X90688154Y-70288154D01*
X90542738Y-70505786D01*
X90491674Y-70762500D01*
X90491674Y-71215865D01*
X90432539Y-71275000D01*
X89841726Y-71275000D01*
X89758884Y-71192158D01*
X89760298Y-71190743D01*
X89825000Y-71034538D01*
X89825000Y-70381250D01*
X89718750Y-70275000D01*
X88625000Y-70275000D01*
X88625000Y-70295000D01*
X88575000Y-70295000D01*
X88575000Y-70275000D01*
X87481250Y-70275000D01*
X87375000Y-70381250D01*
X87375000Y-70407538D01*
X87333326Y-70365864D01*
X87333326Y-69800000D01*
X87300341Y-69634173D01*
X87206408Y-69493592D01*
X87065827Y-69399659D01*
X86900000Y-69366674D01*
X86500000Y-69366674D01*
X86375000Y-69391538D01*
X86250000Y-69366674D01*
X85850000Y-69366674D01*
X85725000Y-69391538D01*
X85600000Y-69366674D01*
X85200000Y-69366674D01*
X85075000Y-69391538D01*
X84950000Y-69366674D01*
X84550000Y-69366674D01*
X84424638Y-69391610D01*
X84384538Y-69375000D01*
X84231250Y-69375000D01*
X84125000Y-69481250D01*
X84125000Y-69758142D01*
X84116674Y-69800000D01*
X84075000Y-69800000D01*
X84075000Y-69481250D01*
X83968750Y-69375000D01*
X83815462Y-69375000D01*
X83659257Y-69439702D01*
X83539702Y-69559257D01*
X83475000Y-69715462D01*
X83425000Y-69715462D01*
X83425000Y-69465462D01*
X83360298Y-69309257D01*
X83240743Y-69189702D01*
X83205249Y-69175000D01*
X84068750Y-69175000D01*
X84175000Y-69068750D01*
X84175000Y-67825000D01*
X84225000Y-67825000D01*
X84225000Y-69068750D01*
X84331250Y-69175000D01*
X85234538Y-69175000D01*
X85390743Y-69110298D01*
X85400000Y-69101041D01*
X85409257Y-69110298D01*
X85565462Y-69175000D01*
X86468750Y-69175000D01*
X86575000Y-69068750D01*
X86575000Y-67825000D01*
X86625000Y-67825000D01*
X86625000Y-69068750D01*
X86731250Y-69175000D01*
X87594751Y-69175000D01*
X87559257Y-69189702D01*
X87439702Y-69309257D01*
X87375000Y-69465462D01*
X87375000Y-70118750D01*
X87481250Y-70225000D01*
X88575000Y-70225000D01*
X88575000Y-69231250D01*
X88625000Y-69231250D01*
X88625000Y-70225000D01*
X89718750Y-70225000D01*
X89825000Y-70118750D01*
X89825000Y-69465462D01*
X89760298Y-69309257D01*
X89640743Y-69189702D01*
X89484538Y-69125000D01*
X88731250Y-69125000D01*
X88625000Y-69231250D01*
X88575000Y-69231250D01*
X88468750Y-69125000D01*
X87755249Y-69125000D01*
X87790743Y-69110298D01*
X87910298Y-68990743D01*
X87975000Y-68834538D01*
X87975000Y-68611882D01*
X88098959Y-68786396D01*
X88388249Y-68967962D01*
X88538483Y-69009964D01*
X88675000Y-68918343D01*
X88675000Y-67825000D01*
X88725000Y-67825000D01*
X88725000Y-68918343D01*
X88861517Y-69009964D01*
X89011751Y-68967962D01*
X89301041Y-68786396D01*
X89498828Y-68507945D01*
X89575000Y-68175000D01*
X89575000Y-67825000D01*
X88725000Y-67825000D01*
X88675000Y-67825000D01*
X86625000Y-67825000D01*
X86575000Y-67825000D01*
X84225000Y-67825000D01*
X84175000Y-67825000D01*
X82125000Y-67825000D01*
X82075000Y-67825000D01*
X81225000Y-67825000D01*
X74326390Y-67825000D01*
X74415815Y-67599140D01*
X74542335Y-67425000D01*
X81225000Y-67425000D01*
X81225000Y-67775000D01*
X82075000Y-67775000D01*
X82075000Y-66681657D01*
X81938483Y-66590036D01*
X81788249Y-66632038D01*
X81498959Y-66813604D01*
X81301172Y-67092055D01*
X81225000Y-67425000D01*
X74542335Y-67425000D01*
X74715801Y-67186245D01*
X75109045Y-66860925D01*
X75570831Y-66643624D01*
X76095553Y-66543529D01*
X76207845Y-66540000D01*
X82958959Y-66540000D01*
X82889702Y-66609257D01*
G36*
X86175000Y-86735887D02*
X86175000Y-87064093D01*
X86300599Y-87367315D01*
X86475000Y-87541716D01*
X86475001Y-89471511D01*
X86459173Y-89474659D01*
X86318592Y-89568592D01*
X86247493Y-89675000D01*
X83902507Y-89675000D01*
X83831408Y-89568592D01*
X83690827Y-89474659D01*
X83525000Y-89441674D01*
X82475000Y-89441674D01*
X82309173Y-89474659D01*
X82184496Y-89557965D01*
X84617462Y-87125000D01*
X84748294Y-87125000D01*
X84800000Y-87135285D01*
X84851706Y-87125000D01*
X85004845Y-87094539D01*
X85178504Y-86978504D01*
X85207797Y-86934665D01*
X85579116Y-86563346D01*
X86114192Y-86563346D01*
X86258346Y-86534672D01*
X86175000Y-86735887D01*
X86175000Y-86735887D01*
G37*
X86175000Y-86735887D02*
X86175000Y-87064093D01*
X86300599Y-87367315D01*
X86475000Y-87541716D01*
X86475001Y-89471511D01*
X86459173Y-89474659D01*
X86318592Y-89568592D01*
X86247493Y-89675000D01*
X83902507Y-89675000D01*
X83831408Y-89568592D01*
X83690827Y-89474659D01*
X83525000Y-89441674D01*
X82475000Y-89441674D01*
X82309173Y-89474659D01*
X82184496Y-89557965D01*
X84617462Y-87125000D01*
X84748294Y-87125000D01*
X84800000Y-87135285D01*
X84851706Y-87125000D01*
X85004845Y-87094539D01*
X85178504Y-86978504D01*
X85207797Y-86934665D01*
X85579116Y-86563346D01*
X86114192Y-86563346D01*
X86258346Y-86534672D01*
X86175000Y-86735887D01*
G36*
X83299192Y-79955020D02*
X83319192Y-79955020D01*
X83319192Y-80005020D01*
X83299192Y-80005020D01*
X83299192Y-80025020D01*
X83249192Y-80025020D01*
X83249192Y-80005020D01*
X83229192Y-80005020D01*
X83229192Y-79955020D01*
X83249192Y-79955020D01*
X83249192Y-79935020D01*
X83299192Y-79935020D01*
X83299192Y-79955020D01*
X83299192Y-79955020D01*
G37*
X83299192Y-79955020D02*
X83319192Y-79955020D01*
X83319192Y-80005020D01*
X83299192Y-80005020D01*
X83299192Y-80025020D01*
X83249192Y-80025020D01*
X83249192Y-80005020D01*
X83229192Y-80005020D01*
X83229192Y-79955020D01*
X83249192Y-79955020D01*
X83249192Y-79935020D01*
X83299192Y-79935020D01*
X83299192Y-79955020D01*
G36*
X83578851Y-77620847D02*
X83579192Y-77621357D01*
X83579192Y-77773770D01*
X83685442Y-77880020D01*
X83863730Y-77880020D01*
X83887609Y-77870129D01*
X83979192Y-77888346D01*
X84429192Y-77888346D01*
X84529192Y-77868455D01*
X84629192Y-77888346D01*
X84769192Y-77888346D01*
X84209525Y-78448013D01*
X84165689Y-78477304D01*
X84086943Y-78595156D01*
X84049653Y-78650964D01*
X84008907Y-78855808D01*
X84012468Y-78873710D01*
X83937784Y-78923612D01*
X83910163Y-78964950D01*
X83814935Y-78869722D01*
X83658730Y-78805020D01*
X83405442Y-78805020D01*
X83299194Y-78911268D01*
X83299194Y-78849621D01*
X83398731Y-78700653D01*
X83411612Y-78635897D01*
X83439477Y-78495809D01*
X83429192Y-78444103D01*
X83429192Y-77873770D01*
X83529192Y-77773770D01*
X83529192Y-77621357D01*
X83529533Y-77620847D01*
X83554192Y-77496878D01*
X83578851Y-77620847D01*
X83578851Y-77620847D01*
G37*
X83578851Y-77620847D02*
X83579192Y-77621357D01*
X83579192Y-77773770D01*
X83685442Y-77880020D01*
X83863730Y-77880020D01*
X83887609Y-77870129D01*
X83979192Y-77888346D01*
X84429192Y-77888346D01*
X84529192Y-77868455D01*
X84629192Y-77888346D01*
X84769192Y-77888346D01*
X84209525Y-78448013D01*
X84165689Y-78477304D01*
X84086943Y-78595156D01*
X84049653Y-78650964D01*
X84008907Y-78855808D01*
X84012468Y-78873710D01*
X83937784Y-78923612D01*
X83910163Y-78964950D01*
X83814935Y-78869722D01*
X83658730Y-78805020D01*
X83405442Y-78805020D01*
X83299194Y-78911268D01*
X83299194Y-78849621D01*
X83398731Y-78700653D01*
X83411612Y-78635897D01*
X83439477Y-78495809D01*
X83429192Y-78444103D01*
X83429192Y-77873770D01*
X83529192Y-77773770D01*
X83529192Y-77621357D01*
X83529533Y-77620847D01*
X83554192Y-77496878D01*
X83578851Y-77620847D01*
G36*
X83249190Y-78911268D02*
X83240457Y-78902535D01*
X83249190Y-78896700D01*
X83249190Y-78911268D01*
X83249190Y-78911268D01*
G37*
X83249190Y-78911268D02*
X83240457Y-78902535D01*
X83249190Y-78896700D01*
X83249190Y-78911268D01*
G04 #@! TD*
M02*
