G04 #@! TF.GenerationSoftware,KiCad,Pcbnew,(5.0.0)*
G04 #@! TF.CreationDate,2020-05-15T17:20:18+01:00*
G04 #@! TF.ProjectId,CH552-USB-Devboard,43483535322D5553422D446576626F61,rev?*
G04 #@! TF.SameCoordinates,Original*
G04 #@! TF.FileFunction,Soldermask,Top*
G04 #@! TF.FilePolarity,Negative*
%FSLAX46Y46*%
G04 Gerber Fmt 4.6, Leading zero omitted, Abs format (unit mm)*
G04 Created by KiCad (PCBNEW (5.0.0)) date 05/15/20 17:20:18*
%MOMM*%
%LPD*%
G01*
G04 APERTURE LIST*
%ADD10R,1.450000X1.050000*%
%ADD11R,0.800000X1.750000*%
%ADD12O,1.300000X2.000000*%
%ADD13R,2.000000X1.800000*%
%ADD14R,2.300000X2.300000*%
%ADD15C,0.100000*%
%ADD16C,1.350000*%
%ADD17O,2.100000X2.100000*%
%ADD18R,2.100000X2.100000*%
%ADD19R,1.000000X1.900000*%
%ADD20R,0.850000X1.850000*%
%ADD21R,1.600000X1.600000*%
G04 APERTURE END LIST*
D10*
G04 #@! TO.C,SW2*
X87150000Y-92350000D03*
X83000000Y-92350000D03*
X87150000Y-90200000D03*
X83000000Y-90200000D03*
G04 #@! TD*
G04 #@! TO.C,SW1*
X83000000Y-94400000D03*
X87150000Y-94400000D03*
X83000000Y-96550000D03*
X87150000Y-96550000D03*
G04 #@! TD*
D11*
G04 #@! TO.C,J3*
X85400000Y-70475000D03*
X84750000Y-70475000D03*
X84100000Y-70475000D03*
X86050000Y-70475000D03*
X86700000Y-70475000D03*
D12*
X82100000Y-67800000D03*
X88700000Y-67800000D03*
D13*
X88600000Y-70250000D03*
X82200000Y-70250000D03*
D14*
X86600000Y-67800000D03*
X84200000Y-67800000D03*
G04 #@! TD*
D15*
G04 #@! TO.C,C1*
G36*
X82370581Y-72001625D02*
X82403343Y-72006485D01*
X82435471Y-72014533D01*
X82466656Y-72025691D01*
X82496596Y-72039852D01*
X82525005Y-72056879D01*
X82551608Y-72076609D01*
X82576149Y-72098851D01*
X82598391Y-72123392D01*
X82618121Y-72149995D01*
X82635148Y-72178404D01*
X82649309Y-72208344D01*
X82660467Y-72239529D01*
X82668515Y-72271657D01*
X82673375Y-72304419D01*
X82675000Y-72337500D01*
X82675000Y-73112500D01*
X82673375Y-73145581D01*
X82668515Y-73178343D01*
X82660467Y-73210471D01*
X82649309Y-73241656D01*
X82635148Y-73271596D01*
X82618121Y-73300005D01*
X82598391Y-73326608D01*
X82576149Y-73351149D01*
X82551608Y-73373391D01*
X82525005Y-73393121D01*
X82496596Y-73410148D01*
X82466656Y-73424309D01*
X82435471Y-73435467D01*
X82403343Y-73443515D01*
X82370581Y-73448375D01*
X82337500Y-73450000D01*
X81662500Y-73450000D01*
X81629419Y-73448375D01*
X81596657Y-73443515D01*
X81564529Y-73435467D01*
X81533344Y-73424309D01*
X81503404Y-73410148D01*
X81474995Y-73393121D01*
X81448392Y-73373391D01*
X81423851Y-73351149D01*
X81401609Y-73326608D01*
X81381879Y-73300005D01*
X81364852Y-73271596D01*
X81350691Y-73241656D01*
X81339533Y-73210471D01*
X81331485Y-73178343D01*
X81326625Y-73145581D01*
X81325000Y-73112500D01*
X81325000Y-72337500D01*
X81326625Y-72304419D01*
X81331485Y-72271657D01*
X81339533Y-72239529D01*
X81350691Y-72208344D01*
X81364852Y-72178404D01*
X81381879Y-72149995D01*
X81401609Y-72123392D01*
X81423851Y-72098851D01*
X81448392Y-72076609D01*
X81474995Y-72056879D01*
X81503404Y-72039852D01*
X81533344Y-72025691D01*
X81564529Y-72014533D01*
X81596657Y-72006485D01*
X81629419Y-72001625D01*
X81662500Y-72000000D01*
X82337500Y-72000000D01*
X82370581Y-72001625D01*
X82370581Y-72001625D01*
G37*
D16*
X82000000Y-72725000D03*
D15*
G36*
X82370581Y-73751625D02*
X82403343Y-73756485D01*
X82435471Y-73764533D01*
X82466656Y-73775691D01*
X82496596Y-73789852D01*
X82525005Y-73806879D01*
X82551608Y-73826609D01*
X82576149Y-73848851D01*
X82598391Y-73873392D01*
X82618121Y-73899995D01*
X82635148Y-73928404D01*
X82649309Y-73958344D01*
X82660467Y-73989529D01*
X82668515Y-74021657D01*
X82673375Y-74054419D01*
X82675000Y-74087500D01*
X82675000Y-74862500D01*
X82673375Y-74895581D01*
X82668515Y-74928343D01*
X82660467Y-74960471D01*
X82649309Y-74991656D01*
X82635148Y-75021596D01*
X82618121Y-75050005D01*
X82598391Y-75076608D01*
X82576149Y-75101149D01*
X82551608Y-75123391D01*
X82525005Y-75143121D01*
X82496596Y-75160148D01*
X82466656Y-75174309D01*
X82435471Y-75185467D01*
X82403343Y-75193515D01*
X82370581Y-75198375D01*
X82337500Y-75200000D01*
X81662500Y-75200000D01*
X81629419Y-75198375D01*
X81596657Y-75193515D01*
X81564529Y-75185467D01*
X81533344Y-75174309D01*
X81503404Y-75160148D01*
X81474995Y-75143121D01*
X81448392Y-75123391D01*
X81423851Y-75101149D01*
X81401609Y-75076608D01*
X81381879Y-75050005D01*
X81364852Y-75021596D01*
X81350691Y-74991656D01*
X81339533Y-74960471D01*
X81331485Y-74928343D01*
X81326625Y-74895581D01*
X81325000Y-74862500D01*
X81325000Y-74087500D01*
X81326625Y-74054419D01*
X81331485Y-74021657D01*
X81339533Y-73989529D01*
X81350691Y-73958344D01*
X81364852Y-73928404D01*
X81381879Y-73899995D01*
X81401609Y-73873392D01*
X81423851Y-73848851D01*
X81448392Y-73826609D01*
X81474995Y-73806879D01*
X81503404Y-73789852D01*
X81533344Y-73775691D01*
X81564529Y-73764533D01*
X81596657Y-73756485D01*
X81629419Y-73751625D01*
X81662500Y-73750000D01*
X82337500Y-73750000D01*
X82370581Y-73751625D01*
X82370581Y-73751625D01*
G37*
D16*
X82000000Y-74475000D03*
G04 #@! TD*
D15*
G04 #@! TO.C,C2*
G36*
X80370581Y-73751625D02*
X80403343Y-73756485D01*
X80435471Y-73764533D01*
X80466656Y-73775691D01*
X80496596Y-73789852D01*
X80525005Y-73806879D01*
X80551608Y-73826609D01*
X80576149Y-73848851D01*
X80598391Y-73873392D01*
X80618121Y-73899995D01*
X80635148Y-73928404D01*
X80649309Y-73958344D01*
X80660467Y-73989529D01*
X80668515Y-74021657D01*
X80673375Y-74054419D01*
X80675000Y-74087500D01*
X80675000Y-74862500D01*
X80673375Y-74895581D01*
X80668515Y-74928343D01*
X80660467Y-74960471D01*
X80649309Y-74991656D01*
X80635148Y-75021596D01*
X80618121Y-75050005D01*
X80598391Y-75076608D01*
X80576149Y-75101149D01*
X80551608Y-75123391D01*
X80525005Y-75143121D01*
X80496596Y-75160148D01*
X80466656Y-75174309D01*
X80435471Y-75185467D01*
X80403343Y-75193515D01*
X80370581Y-75198375D01*
X80337500Y-75200000D01*
X79662500Y-75200000D01*
X79629419Y-75198375D01*
X79596657Y-75193515D01*
X79564529Y-75185467D01*
X79533344Y-75174309D01*
X79503404Y-75160148D01*
X79474995Y-75143121D01*
X79448392Y-75123391D01*
X79423851Y-75101149D01*
X79401609Y-75076608D01*
X79381879Y-75050005D01*
X79364852Y-75021596D01*
X79350691Y-74991656D01*
X79339533Y-74960471D01*
X79331485Y-74928343D01*
X79326625Y-74895581D01*
X79325000Y-74862500D01*
X79325000Y-74087500D01*
X79326625Y-74054419D01*
X79331485Y-74021657D01*
X79339533Y-73989529D01*
X79350691Y-73958344D01*
X79364852Y-73928404D01*
X79381879Y-73899995D01*
X79401609Y-73873392D01*
X79423851Y-73848851D01*
X79448392Y-73826609D01*
X79474995Y-73806879D01*
X79503404Y-73789852D01*
X79533344Y-73775691D01*
X79564529Y-73764533D01*
X79596657Y-73756485D01*
X79629419Y-73751625D01*
X79662500Y-73750000D01*
X80337500Y-73750000D01*
X80370581Y-73751625D01*
X80370581Y-73751625D01*
G37*
D16*
X80000000Y-74475000D03*
D15*
G36*
X80370581Y-72001625D02*
X80403343Y-72006485D01*
X80435471Y-72014533D01*
X80466656Y-72025691D01*
X80496596Y-72039852D01*
X80525005Y-72056879D01*
X80551608Y-72076609D01*
X80576149Y-72098851D01*
X80598391Y-72123392D01*
X80618121Y-72149995D01*
X80635148Y-72178404D01*
X80649309Y-72208344D01*
X80660467Y-72239529D01*
X80668515Y-72271657D01*
X80673375Y-72304419D01*
X80675000Y-72337500D01*
X80675000Y-73112500D01*
X80673375Y-73145581D01*
X80668515Y-73178343D01*
X80660467Y-73210471D01*
X80649309Y-73241656D01*
X80635148Y-73271596D01*
X80618121Y-73300005D01*
X80598391Y-73326608D01*
X80576149Y-73351149D01*
X80551608Y-73373391D01*
X80525005Y-73393121D01*
X80496596Y-73410148D01*
X80466656Y-73424309D01*
X80435471Y-73435467D01*
X80403343Y-73443515D01*
X80370581Y-73448375D01*
X80337500Y-73450000D01*
X79662500Y-73450000D01*
X79629419Y-73448375D01*
X79596657Y-73443515D01*
X79564529Y-73435467D01*
X79533344Y-73424309D01*
X79503404Y-73410148D01*
X79474995Y-73393121D01*
X79448392Y-73373391D01*
X79423851Y-73351149D01*
X79401609Y-73326608D01*
X79381879Y-73300005D01*
X79364852Y-73271596D01*
X79350691Y-73241656D01*
X79339533Y-73210471D01*
X79331485Y-73178343D01*
X79326625Y-73145581D01*
X79325000Y-73112500D01*
X79325000Y-72337500D01*
X79326625Y-72304419D01*
X79331485Y-72271657D01*
X79339533Y-72239529D01*
X79350691Y-72208344D01*
X79364852Y-72178404D01*
X79381879Y-72149995D01*
X79401609Y-72123392D01*
X79423851Y-72098851D01*
X79448392Y-72076609D01*
X79474995Y-72056879D01*
X79503404Y-72039852D01*
X79533344Y-72025691D01*
X79564529Y-72014533D01*
X79596657Y-72006485D01*
X79629419Y-72001625D01*
X79662500Y-72000000D01*
X80337500Y-72000000D01*
X80370581Y-72001625D01*
X80370581Y-72001625D01*
G37*
D16*
X80000000Y-72725000D03*
G04 #@! TD*
D15*
G04 #@! TO.C,C3*
G36*
X79970581Y-91076625D02*
X80003343Y-91081485D01*
X80035471Y-91089533D01*
X80066656Y-91100691D01*
X80096596Y-91114852D01*
X80125005Y-91131879D01*
X80151608Y-91151609D01*
X80176149Y-91173851D01*
X80198391Y-91198392D01*
X80218121Y-91224995D01*
X80235148Y-91253404D01*
X80249309Y-91283344D01*
X80260467Y-91314529D01*
X80268515Y-91346657D01*
X80273375Y-91379419D01*
X80275000Y-91412500D01*
X80275000Y-92187500D01*
X80273375Y-92220581D01*
X80268515Y-92253343D01*
X80260467Y-92285471D01*
X80249309Y-92316656D01*
X80235148Y-92346596D01*
X80218121Y-92375005D01*
X80198391Y-92401608D01*
X80176149Y-92426149D01*
X80151608Y-92448391D01*
X80125005Y-92468121D01*
X80096596Y-92485148D01*
X80066656Y-92499309D01*
X80035471Y-92510467D01*
X80003343Y-92518515D01*
X79970581Y-92523375D01*
X79937500Y-92525000D01*
X79262500Y-92525000D01*
X79229419Y-92523375D01*
X79196657Y-92518515D01*
X79164529Y-92510467D01*
X79133344Y-92499309D01*
X79103404Y-92485148D01*
X79074995Y-92468121D01*
X79048392Y-92448391D01*
X79023851Y-92426149D01*
X79001609Y-92401608D01*
X78981879Y-92375005D01*
X78964852Y-92346596D01*
X78950691Y-92316656D01*
X78939533Y-92285471D01*
X78931485Y-92253343D01*
X78926625Y-92220581D01*
X78925000Y-92187500D01*
X78925000Y-91412500D01*
X78926625Y-91379419D01*
X78931485Y-91346657D01*
X78939533Y-91314529D01*
X78950691Y-91283344D01*
X78964852Y-91253404D01*
X78981879Y-91224995D01*
X79001609Y-91198392D01*
X79023851Y-91173851D01*
X79048392Y-91151609D01*
X79074995Y-91131879D01*
X79103404Y-91114852D01*
X79133344Y-91100691D01*
X79164529Y-91089533D01*
X79196657Y-91081485D01*
X79229419Y-91076625D01*
X79262500Y-91075000D01*
X79937500Y-91075000D01*
X79970581Y-91076625D01*
X79970581Y-91076625D01*
G37*
D16*
X79600000Y-91800000D03*
D15*
G36*
X79970581Y-92826625D02*
X80003343Y-92831485D01*
X80035471Y-92839533D01*
X80066656Y-92850691D01*
X80096596Y-92864852D01*
X80125005Y-92881879D01*
X80151608Y-92901609D01*
X80176149Y-92923851D01*
X80198391Y-92948392D01*
X80218121Y-92974995D01*
X80235148Y-93003404D01*
X80249309Y-93033344D01*
X80260467Y-93064529D01*
X80268515Y-93096657D01*
X80273375Y-93129419D01*
X80275000Y-93162500D01*
X80275000Y-93937500D01*
X80273375Y-93970581D01*
X80268515Y-94003343D01*
X80260467Y-94035471D01*
X80249309Y-94066656D01*
X80235148Y-94096596D01*
X80218121Y-94125005D01*
X80198391Y-94151608D01*
X80176149Y-94176149D01*
X80151608Y-94198391D01*
X80125005Y-94218121D01*
X80096596Y-94235148D01*
X80066656Y-94249309D01*
X80035471Y-94260467D01*
X80003343Y-94268515D01*
X79970581Y-94273375D01*
X79937500Y-94275000D01*
X79262500Y-94275000D01*
X79229419Y-94273375D01*
X79196657Y-94268515D01*
X79164529Y-94260467D01*
X79133344Y-94249309D01*
X79103404Y-94235148D01*
X79074995Y-94218121D01*
X79048392Y-94198391D01*
X79023851Y-94176149D01*
X79001609Y-94151608D01*
X78981879Y-94125005D01*
X78964852Y-94096596D01*
X78950691Y-94066656D01*
X78939533Y-94035471D01*
X78931485Y-94003343D01*
X78926625Y-93970581D01*
X78925000Y-93937500D01*
X78925000Y-93162500D01*
X78926625Y-93129419D01*
X78931485Y-93096657D01*
X78939533Y-93064529D01*
X78950691Y-93033344D01*
X78964852Y-93003404D01*
X78981879Y-92974995D01*
X79001609Y-92948392D01*
X79023851Y-92923851D01*
X79048392Y-92901609D01*
X79074995Y-92881879D01*
X79103404Y-92864852D01*
X79133344Y-92850691D01*
X79164529Y-92839533D01*
X79196657Y-92831485D01*
X79229419Y-92826625D01*
X79262500Y-92825000D01*
X79937500Y-92825000D01*
X79970581Y-92826625D01*
X79970581Y-92826625D01*
G37*
D16*
X79600000Y-93550000D03*
G04 #@! TD*
D15*
G04 #@! TO.C,C4*
G36*
X91870581Y-70326625D02*
X91903343Y-70331485D01*
X91935471Y-70339533D01*
X91966656Y-70350691D01*
X91996596Y-70364852D01*
X92025005Y-70381879D01*
X92051608Y-70401609D01*
X92076149Y-70423851D01*
X92098391Y-70448392D01*
X92118121Y-70474995D01*
X92135148Y-70503404D01*
X92149309Y-70533344D01*
X92160467Y-70564529D01*
X92168515Y-70596657D01*
X92173375Y-70629419D01*
X92175000Y-70662500D01*
X92175000Y-71337500D01*
X92173375Y-71370581D01*
X92168515Y-71403343D01*
X92160467Y-71435471D01*
X92149309Y-71466656D01*
X92135148Y-71496596D01*
X92118121Y-71525005D01*
X92098391Y-71551608D01*
X92076149Y-71576149D01*
X92051608Y-71598391D01*
X92025005Y-71618121D01*
X91996596Y-71635148D01*
X91966656Y-71649309D01*
X91935471Y-71660467D01*
X91903343Y-71668515D01*
X91870581Y-71673375D01*
X91837500Y-71675000D01*
X91062500Y-71675000D01*
X91029419Y-71673375D01*
X90996657Y-71668515D01*
X90964529Y-71660467D01*
X90933344Y-71649309D01*
X90903404Y-71635148D01*
X90874995Y-71618121D01*
X90848392Y-71598391D01*
X90823851Y-71576149D01*
X90801609Y-71551608D01*
X90781879Y-71525005D01*
X90764852Y-71496596D01*
X90750691Y-71466656D01*
X90739533Y-71435471D01*
X90731485Y-71403343D01*
X90726625Y-71370581D01*
X90725000Y-71337500D01*
X90725000Y-70662500D01*
X90726625Y-70629419D01*
X90731485Y-70596657D01*
X90739533Y-70564529D01*
X90750691Y-70533344D01*
X90764852Y-70503404D01*
X90781879Y-70474995D01*
X90801609Y-70448392D01*
X90823851Y-70423851D01*
X90848392Y-70401609D01*
X90874995Y-70381879D01*
X90903404Y-70364852D01*
X90933344Y-70350691D01*
X90964529Y-70339533D01*
X90996657Y-70331485D01*
X91029419Y-70326625D01*
X91062500Y-70325000D01*
X91837500Y-70325000D01*
X91870581Y-70326625D01*
X91870581Y-70326625D01*
G37*
D16*
X91450000Y-71000000D03*
D15*
G36*
X93620581Y-70326625D02*
X93653343Y-70331485D01*
X93685471Y-70339533D01*
X93716656Y-70350691D01*
X93746596Y-70364852D01*
X93775005Y-70381879D01*
X93801608Y-70401609D01*
X93826149Y-70423851D01*
X93848391Y-70448392D01*
X93868121Y-70474995D01*
X93885148Y-70503404D01*
X93899309Y-70533344D01*
X93910467Y-70564529D01*
X93918515Y-70596657D01*
X93923375Y-70629419D01*
X93925000Y-70662500D01*
X93925000Y-71337500D01*
X93923375Y-71370581D01*
X93918515Y-71403343D01*
X93910467Y-71435471D01*
X93899309Y-71466656D01*
X93885148Y-71496596D01*
X93868121Y-71525005D01*
X93848391Y-71551608D01*
X93826149Y-71576149D01*
X93801608Y-71598391D01*
X93775005Y-71618121D01*
X93746596Y-71635148D01*
X93716656Y-71649309D01*
X93685471Y-71660467D01*
X93653343Y-71668515D01*
X93620581Y-71673375D01*
X93587500Y-71675000D01*
X92812500Y-71675000D01*
X92779419Y-71673375D01*
X92746657Y-71668515D01*
X92714529Y-71660467D01*
X92683344Y-71649309D01*
X92653404Y-71635148D01*
X92624995Y-71618121D01*
X92598392Y-71598391D01*
X92573851Y-71576149D01*
X92551609Y-71551608D01*
X92531879Y-71525005D01*
X92514852Y-71496596D01*
X92500691Y-71466656D01*
X92489533Y-71435471D01*
X92481485Y-71403343D01*
X92476625Y-71370581D01*
X92475000Y-71337500D01*
X92475000Y-70662500D01*
X92476625Y-70629419D01*
X92481485Y-70596657D01*
X92489533Y-70564529D01*
X92500691Y-70533344D01*
X92514852Y-70503404D01*
X92531879Y-70474995D01*
X92551609Y-70448392D01*
X92573851Y-70423851D01*
X92598392Y-70401609D01*
X92624995Y-70381879D01*
X92653404Y-70364852D01*
X92683344Y-70350691D01*
X92714529Y-70339533D01*
X92746657Y-70331485D01*
X92779419Y-70326625D01*
X92812500Y-70325000D01*
X93587500Y-70325000D01*
X93620581Y-70326625D01*
X93620581Y-70326625D01*
G37*
D16*
X93200000Y-71000000D03*
G04 #@! TD*
D17*
G04 #@! TO.C,J1*
X76200000Y-99060000D03*
X76200000Y-96520000D03*
X76200000Y-93980000D03*
X76200000Y-91440000D03*
X76200000Y-88900000D03*
X76200000Y-86360000D03*
X76200000Y-83820000D03*
X76200000Y-81280000D03*
X76200000Y-78740000D03*
D18*
X76200000Y-76200000D03*
G04 #@! TD*
G04 #@! TO.C,J2*
X93980000Y-76200000D03*
D17*
X93980000Y-78740000D03*
X93980000Y-81280000D03*
X93980000Y-83820000D03*
X93980000Y-86360000D03*
X93980000Y-88900000D03*
X93980000Y-91440000D03*
X93980000Y-93980000D03*
X93980000Y-96520000D03*
X93980000Y-99060000D03*
G04 #@! TD*
D19*
G04 #@! TO.C,U2*
X80734192Y-79980020D03*
X82004192Y-79980020D03*
X83274192Y-79980020D03*
X84544192Y-79980020D03*
X85814192Y-79980020D03*
X87084192Y-79980020D03*
X88354192Y-79980020D03*
X89624192Y-79980020D03*
X89624192Y-85380020D03*
X88354192Y-85380020D03*
X87084192Y-85380020D03*
X85814192Y-85380020D03*
X84544192Y-85380020D03*
X83274192Y-85380020D03*
X82004192Y-85380020D03*
X80734192Y-85380020D03*
G04 #@! TD*
D20*
G04 #@! TO.C,U1*
X82254192Y-76730020D03*
X82904192Y-76730020D03*
X83554192Y-76730020D03*
X84204192Y-76730020D03*
X84854192Y-76730020D03*
X85504192Y-76730020D03*
X86154192Y-76730020D03*
X86804192Y-76730020D03*
X87454192Y-76730020D03*
X88104192Y-76730020D03*
X88104192Y-82630020D03*
X87454192Y-82630020D03*
X86804192Y-82630020D03*
X86154192Y-82630020D03*
X85504192Y-82630020D03*
X84854192Y-82630020D03*
X84204192Y-82630020D03*
X83554192Y-82630020D03*
X82904192Y-82630020D03*
X82254192Y-82630020D03*
G04 #@! TD*
D21*
G04 #@! TO.C,D3*
X78400000Y-70400000D03*
X76200000Y-70400000D03*
G04 #@! TD*
G04 #@! TO.C,D2*
X89400000Y-97800000D03*
X89400000Y-100000000D03*
G04 #@! TD*
G04 #@! TO.C,D1*
X81000000Y-100000000D03*
X81000000Y-97800000D03*
G04 #@! TD*
D15*
G04 #@! TO.C,R4*
G36*
X91570581Y-99076625D02*
X91603343Y-99081485D01*
X91635471Y-99089533D01*
X91666656Y-99100691D01*
X91696596Y-99114852D01*
X91725005Y-99131879D01*
X91751608Y-99151609D01*
X91776149Y-99173851D01*
X91798391Y-99198392D01*
X91818121Y-99224995D01*
X91835148Y-99253404D01*
X91849309Y-99283344D01*
X91860467Y-99314529D01*
X91868515Y-99346657D01*
X91873375Y-99379419D01*
X91875000Y-99412500D01*
X91875000Y-100187500D01*
X91873375Y-100220581D01*
X91868515Y-100253343D01*
X91860467Y-100285471D01*
X91849309Y-100316656D01*
X91835148Y-100346596D01*
X91818121Y-100375005D01*
X91798391Y-100401608D01*
X91776149Y-100426149D01*
X91751608Y-100448391D01*
X91725005Y-100468121D01*
X91696596Y-100485148D01*
X91666656Y-100499309D01*
X91635471Y-100510467D01*
X91603343Y-100518515D01*
X91570581Y-100523375D01*
X91537500Y-100525000D01*
X90862500Y-100525000D01*
X90829419Y-100523375D01*
X90796657Y-100518515D01*
X90764529Y-100510467D01*
X90733344Y-100499309D01*
X90703404Y-100485148D01*
X90674995Y-100468121D01*
X90648392Y-100448391D01*
X90623851Y-100426149D01*
X90601609Y-100401608D01*
X90581879Y-100375005D01*
X90564852Y-100346596D01*
X90550691Y-100316656D01*
X90539533Y-100285471D01*
X90531485Y-100253343D01*
X90526625Y-100220581D01*
X90525000Y-100187500D01*
X90525000Y-99412500D01*
X90526625Y-99379419D01*
X90531485Y-99346657D01*
X90539533Y-99314529D01*
X90550691Y-99283344D01*
X90564852Y-99253404D01*
X90581879Y-99224995D01*
X90601609Y-99198392D01*
X90623851Y-99173851D01*
X90648392Y-99151609D01*
X90674995Y-99131879D01*
X90703404Y-99114852D01*
X90733344Y-99100691D01*
X90764529Y-99089533D01*
X90796657Y-99081485D01*
X90829419Y-99076625D01*
X90862500Y-99075000D01*
X91537500Y-99075000D01*
X91570581Y-99076625D01*
X91570581Y-99076625D01*
G37*
D16*
X91200000Y-99800000D03*
D15*
G36*
X91570581Y-97326625D02*
X91603343Y-97331485D01*
X91635471Y-97339533D01*
X91666656Y-97350691D01*
X91696596Y-97364852D01*
X91725005Y-97381879D01*
X91751608Y-97401609D01*
X91776149Y-97423851D01*
X91798391Y-97448392D01*
X91818121Y-97474995D01*
X91835148Y-97503404D01*
X91849309Y-97533344D01*
X91860467Y-97564529D01*
X91868515Y-97596657D01*
X91873375Y-97629419D01*
X91875000Y-97662500D01*
X91875000Y-98437500D01*
X91873375Y-98470581D01*
X91868515Y-98503343D01*
X91860467Y-98535471D01*
X91849309Y-98566656D01*
X91835148Y-98596596D01*
X91818121Y-98625005D01*
X91798391Y-98651608D01*
X91776149Y-98676149D01*
X91751608Y-98698391D01*
X91725005Y-98718121D01*
X91696596Y-98735148D01*
X91666656Y-98749309D01*
X91635471Y-98760467D01*
X91603343Y-98768515D01*
X91570581Y-98773375D01*
X91537500Y-98775000D01*
X90862500Y-98775000D01*
X90829419Y-98773375D01*
X90796657Y-98768515D01*
X90764529Y-98760467D01*
X90733344Y-98749309D01*
X90703404Y-98735148D01*
X90674995Y-98718121D01*
X90648392Y-98698391D01*
X90623851Y-98676149D01*
X90601609Y-98651608D01*
X90581879Y-98625005D01*
X90564852Y-98596596D01*
X90550691Y-98566656D01*
X90539533Y-98535471D01*
X90531485Y-98503343D01*
X90526625Y-98470581D01*
X90525000Y-98437500D01*
X90525000Y-97662500D01*
X90526625Y-97629419D01*
X90531485Y-97596657D01*
X90539533Y-97564529D01*
X90550691Y-97533344D01*
X90564852Y-97503404D01*
X90581879Y-97474995D01*
X90601609Y-97448392D01*
X90623851Y-97423851D01*
X90648392Y-97401609D01*
X90674995Y-97381879D01*
X90703404Y-97364852D01*
X90733344Y-97350691D01*
X90764529Y-97339533D01*
X90796657Y-97331485D01*
X90829419Y-97326625D01*
X90862500Y-97325000D01*
X91537500Y-97325000D01*
X91570581Y-97326625D01*
X91570581Y-97326625D01*
G37*
D16*
X91200000Y-98050000D03*
G04 #@! TD*
D15*
G04 #@! TO.C,R5*
G36*
X78570581Y-72126625D02*
X78603343Y-72131485D01*
X78635471Y-72139533D01*
X78666656Y-72150691D01*
X78696596Y-72164852D01*
X78725005Y-72181879D01*
X78751608Y-72201609D01*
X78776149Y-72223851D01*
X78798391Y-72248392D01*
X78818121Y-72274995D01*
X78835148Y-72303404D01*
X78849309Y-72333344D01*
X78860467Y-72364529D01*
X78868515Y-72396657D01*
X78873375Y-72429419D01*
X78875000Y-72462500D01*
X78875000Y-73137500D01*
X78873375Y-73170581D01*
X78868515Y-73203343D01*
X78860467Y-73235471D01*
X78849309Y-73266656D01*
X78835148Y-73296596D01*
X78818121Y-73325005D01*
X78798391Y-73351608D01*
X78776149Y-73376149D01*
X78751608Y-73398391D01*
X78725005Y-73418121D01*
X78696596Y-73435148D01*
X78666656Y-73449309D01*
X78635471Y-73460467D01*
X78603343Y-73468515D01*
X78570581Y-73473375D01*
X78537500Y-73475000D01*
X77762500Y-73475000D01*
X77729419Y-73473375D01*
X77696657Y-73468515D01*
X77664529Y-73460467D01*
X77633344Y-73449309D01*
X77603404Y-73435148D01*
X77574995Y-73418121D01*
X77548392Y-73398391D01*
X77523851Y-73376149D01*
X77501609Y-73351608D01*
X77481879Y-73325005D01*
X77464852Y-73296596D01*
X77450691Y-73266656D01*
X77439533Y-73235471D01*
X77431485Y-73203343D01*
X77426625Y-73170581D01*
X77425000Y-73137500D01*
X77425000Y-72462500D01*
X77426625Y-72429419D01*
X77431485Y-72396657D01*
X77439533Y-72364529D01*
X77450691Y-72333344D01*
X77464852Y-72303404D01*
X77481879Y-72274995D01*
X77501609Y-72248392D01*
X77523851Y-72223851D01*
X77548392Y-72201609D01*
X77574995Y-72181879D01*
X77603404Y-72164852D01*
X77633344Y-72150691D01*
X77664529Y-72139533D01*
X77696657Y-72131485D01*
X77729419Y-72126625D01*
X77762500Y-72125000D01*
X78537500Y-72125000D01*
X78570581Y-72126625D01*
X78570581Y-72126625D01*
G37*
D16*
X78150000Y-72800000D03*
D15*
G36*
X76820581Y-72126625D02*
X76853343Y-72131485D01*
X76885471Y-72139533D01*
X76916656Y-72150691D01*
X76946596Y-72164852D01*
X76975005Y-72181879D01*
X77001608Y-72201609D01*
X77026149Y-72223851D01*
X77048391Y-72248392D01*
X77068121Y-72274995D01*
X77085148Y-72303404D01*
X77099309Y-72333344D01*
X77110467Y-72364529D01*
X77118515Y-72396657D01*
X77123375Y-72429419D01*
X77125000Y-72462500D01*
X77125000Y-73137500D01*
X77123375Y-73170581D01*
X77118515Y-73203343D01*
X77110467Y-73235471D01*
X77099309Y-73266656D01*
X77085148Y-73296596D01*
X77068121Y-73325005D01*
X77048391Y-73351608D01*
X77026149Y-73376149D01*
X77001608Y-73398391D01*
X76975005Y-73418121D01*
X76946596Y-73435148D01*
X76916656Y-73449309D01*
X76885471Y-73460467D01*
X76853343Y-73468515D01*
X76820581Y-73473375D01*
X76787500Y-73475000D01*
X76012500Y-73475000D01*
X75979419Y-73473375D01*
X75946657Y-73468515D01*
X75914529Y-73460467D01*
X75883344Y-73449309D01*
X75853404Y-73435148D01*
X75824995Y-73418121D01*
X75798392Y-73398391D01*
X75773851Y-73376149D01*
X75751609Y-73351608D01*
X75731879Y-73325005D01*
X75714852Y-73296596D01*
X75700691Y-73266656D01*
X75689533Y-73235471D01*
X75681485Y-73203343D01*
X75676625Y-73170581D01*
X75675000Y-73137500D01*
X75675000Y-72462500D01*
X75676625Y-72429419D01*
X75681485Y-72396657D01*
X75689533Y-72364529D01*
X75700691Y-72333344D01*
X75714852Y-72303404D01*
X75731879Y-72274995D01*
X75751609Y-72248392D01*
X75773851Y-72223851D01*
X75798392Y-72201609D01*
X75824995Y-72181879D01*
X75853404Y-72164852D01*
X75883344Y-72150691D01*
X75914529Y-72139533D01*
X75946657Y-72131485D01*
X75979419Y-72126625D01*
X76012500Y-72125000D01*
X76787500Y-72125000D01*
X76820581Y-72126625D01*
X76820581Y-72126625D01*
G37*
D16*
X76400000Y-72800000D03*
G04 #@! TD*
D15*
G04 #@! TO.C,R3*
G36*
X79570581Y-99151625D02*
X79603343Y-99156485D01*
X79635471Y-99164533D01*
X79666656Y-99175691D01*
X79696596Y-99189852D01*
X79725005Y-99206879D01*
X79751608Y-99226609D01*
X79776149Y-99248851D01*
X79798391Y-99273392D01*
X79818121Y-99299995D01*
X79835148Y-99328404D01*
X79849309Y-99358344D01*
X79860467Y-99389529D01*
X79868515Y-99421657D01*
X79873375Y-99454419D01*
X79875000Y-99487500D01*
X79875000Y-100262500D01*
X79873375Y-100295581D01*
X79868515Y-100328343D01*
X79860467Y-100360471D01*
X79849309Y-100391656D01*
X79835148Y-100421596D01*
X79818121Y-100450005D01*
X79798391Y-100476608D01*
X79776149Y-100501149D01*
X79751608Y-100523391D01*
X79725005Y-100543121D01*
X79696596Y-100560148D01*
X79666656Y-100574309D01*
X79635471Y-100585467D01*
X79603343Y-100593515D01*
X79570581Y-100598375D01*
X79537500Y-100600000D01*
X78862500Y-100600000D01*
X78829419Y-100598375D01*
X78796657Y-100593515D01*
X78764529Y-100585467D01*
X78733344Y-100574309D01*
X78703404Y-100560148D01*
X78674995Y-100543121D01*
X78648392Y-100523391D01*
X78623851Y-100501149D01*
X78601609Y-100476608D01*
X78581879Y-100450005D01*
X78564852Y-100421596D01*
X78550691Y-100391656D01*
X78539533Y-100360471D01*
X78531485Y-100328343D01*
X78526625Y-100295581D01*
X78525000Y-100262500D01*
X78525000Y-99487500D01*
X78526625Y-99454419D01*
X78531485Y-99421657D01*
X78539533Y-99389529D01*
X78550691Y-99358344D01*
X78564852Y-99328404D01*
X78581879Y-99299995D01*
X78601609Y-99273392D01*
X78623851Y-99248851D01*
X78648392Y-99226609D01*
X78674995Y-99206879D01*
X78703404Y-99189852D01*
X78733344Y-99175691D01*
X78764529Y-99164533D01*
X78796657Y-99156485D01*
X78829419Y-99151625D01*
X78862500Y-99150000D01*
X79537500Y-99150000D01*
X79570581Y-99151625D01*
X79570581Y-99151625D01*
G37*
D16*
X79200000Y-99875000D03*
D15*
G36*
X79570581Y-97401625D02*
X79603343Y-97406485D01*
X79635471Y-97414533D01*
X79666656Y-97425691D01*
X79696596Y-97439852D01*
X79725005Y-97456879D01*
X79751608Y-97476609D01*
X79776149Y-97498851D01*
X79798391Y-97523392D01*
X79818121Y-97549995D01*
X79835148Y-97578404D01*
X79849309Y-97608344D01*
X79860467Y-97639529D01*
X79868515Y-97671657D01*
X79873375Y-97704419D01*
X79875000Y-97737500D01*
X79875000Y-98512500D01*
X79873375Y-98545581D01*
X79868515Y-98578343D01*
X79860467Y-98610471D01*
X79849309Y-98641656D01*
X79835148Y-98671596D01*
X79818121Y-98700005D01*
X79798391Y-98726608D01*
X79776149Y-98751149D01*
X79751608Y-98773391D01*
X79725005Y-98793121D01*
X79696596Y-98810148D01*
X79666656Y-98824309D01*
X79635471Y-98835467D01*
X79603343Y-98843515D01*
X79570581Y-98848375D01*
X79537500Y-98850000D01*
X78862500Y-98850000D01*
X78829419Y-98848375D01*
X78796657Y-98843515D01*
X78764529Y-98835467D01*
X78733344Y-98824309D01*
X78703404Y-98810148D01*
X78674995Y-98793121D01*
X78648392Y-98773391D01*
X78623851Y-98751149D01*
X78601609Y-98726608D01*
X78581879Y-98700005D01*
X78564852Y-98671596D01*
X78550691Y-98641656D01*
X78539533Y-98610471D01*
X78531485Y-98578343D01*
X78526625Y-98545581D01*
X78525000Y-98512500D01*
X78525000Y-97737500D01*
X78526625Y-97704419D01*
X78531485Y-97671657D01*
X78539533Y-97639529D01*
X78550691Y-97608344D01*
X78564852Y-97578404D01*
X78581879Y-97549995D01*
X78601609Y-97523392D01*
X78623851Y-97498851D01*
X78648392Y-97476609D01*
X78674995Y-97456879D01*
X78703404Y-97439852D01*
X78733344Y-97425691D01*
X78764529Y-97414533D01*
X78796657Y-97406485D01*
X78829419Y-97401625D01*
X78862500Y-97400000D01*
X79537500Y-97400000D01*
X79570581Y-97401625D01*
X79570581Y-97401625D01*
G37*
D16*
X79200000Y-98125000D03*
G04 #@! TD*
M02*
