G04 #@! TF.GenerationSoftware,KiCad,Pcbnew,(5.0.0)*
G04 #@! TF.CreationDate,2020-05-15T17:20:18+01:00*
G04 #@! TF.ProjectId,CH552-USB-Devboard,43483535322D5553422D446576626F61,rev?*
G04 #@! TF.SameCoordinates,Original*
G04 #@! TF.FileFunction,Legend,Top*
G04 #@! TF.FilePolarity,Positive*
%FSLAX46Y46*%
G04 Gerber Fmt 4.6, Leading zero omitted, Abs format (unit mm)*
G04 Created by KiCad (PCBNEW (5.0.0)) date 05/15/20 17:20:18*
%MOMM*%
%LPD*%
G01*
G04 APERTURE LIST*
%ADD10C,0.300000*%
%ADD11C,0.120000*%
%ADD12C,0.100000*%
%ADD13C,0.150000*%
%ADD14C,0.010000*%
G04 APERTURE END LIST*
D10*
X90514285Y-67478571D02*
X91014285Y-68978571D01*
X91514285Y-67478571D01*
X92800000Y-68978571D02*
X91942857Y-68978571D01*
X92371428Y-68978571D02*
X92371428Y-67478571D01*
X92228571Y-67692857D01*
X92085714Y-67835714D01*
X91942857Y-67907142D01*
X93442857Y-68835714D02*
X93514285Y-68907142D01*
X93442857Y-68978571D01*
X93371428Y-68907142D01*
X93442857Y-68835714D01*
X93442857Y-68978571D01*
X94442857Y-67478571D02*
X94585714Y-67478571D01*
X94728571Y-67550000D01*
X94800000Y-67621428D01*
X94871428Y-67764285D01*
X94942857Y-68050000D01*
X94942857Y-68407142D01*
X94871428Y-68692857D01*
X94800000Y-68835714D01*
X94728571Y-68907142D01*
X94585714Y-68978571D01*
X94442857Y-68978571D01*
X94300000Y-68907142D01*
X94228571Y-68835714D01*
X94157142Y-68692857D01*
X94085714Y-68407142D01*
X94085714Y-68050000D01*
X94157142Y-67764285D01*
X94228571Y-67621428D01*
X94300000Y-67550000D01*
X94442857Y-67478571D01*
D11*
G04 #@! TO.C,SW2*
X87275000Y-89575000D02*
X82875000Y-89575000D01*
X82875000Y-89575000D02*
X82875000Y-89695000D01*
X82875000Y-90705000D02*
X82875000Y-91845000D01*
X82875000Y-92855000D02*
X82875000Y-92975000D01*
X82875000Y-92975000D02*
X87275000Y-92975000D01*
X87275000Y-92975000D02*
X87275000Y-92855000D01*
X87275000Y-91845000D02*
X87275000Y-90705000D01*
X87275000Y-89695000D02*
X87275000Y-89575000D01*
G04 #@! TO.C,SW1*
X87275000Y-93895000D02*
X87275000Y-93775000D01*
X87275000Y-96045000D02*
X87275000Y-94905000D01*
X87275000Y-97175000D02*
X87275000Y-97055000D01*
X82875000Y-97175000D02*
X87275000Y-97175000D01*
X82875000Y-97055000D02*
X82875000Y-97175000D01*
X82875000Y-94905000D02*
X82875000Y-96045000D01*
X82875000Y-93775000D02*
X82875000Y-93895000D01*
X87275000Y-93775000D02*
X82875000Y-93775000D01*
D12*
G04 #@! TO.C,J3*
X89450000Y-71000000D02*
X89450000Y-69550000D01*
X89450000Y-71010000D02*
X87800000Y-71010000D01*
X81340000Y-71020000D02*
X83000000Y-71020000D01*
X81340000Y-71020000D02*
X81340000Y-69550000D01*
X89413324Y-65340000D02*
X89413324Y-64960000D01*
X89413324Y-64960000D02*
X89043324Y-64960000D01*
X81385092Y-64958152D02*
X81755092Y-64958152D01*
X81385092Y-65338152D02*
X81385092Y-64958152D01*
D11*
G04 #@! TO.C,C1*
X82510000Y-73771267D02*
X82510000Y-73428733D01*
X81490000Y-73771267D02*
X81490000Y-73428733D01*
G04 #@! TO.C,C2*
X79490000Y-73771267D02*
X79490000Y-73428733D01*
X80510000Y-73771267D02*
X80510000Y-73428733D01*
G04 #@! TO.C,C3*
X80110000Y-92846267D02*
X80110000Y-92503733D01*
X79090000Y-92846267D02*
X79090000Y-92503733D01*
G04 #@! TO.C,C4*
X92153733Y-70490000D02*
X92496267Y-70490000D01*
X92153733Y-71510000D02*
X92496267Y-71510000D01*
G04 #@! TO.C,J1*
X76200000Y-74870000D02*
X77530000Y-74870000D01*
X77530000Y-74870000D02*
X77530000Y-76200000D01*
X77530000Y-77470000D02*
X77530000Y-100390000D01*
X74870000Y-100390000D02*
X77530000Y-100390000D01*
X74870000Y-77470000D02*
X74870000Y-100390000D01*
X74870000Y-77470000D02*
X77530000Y-77470000D01*
G04 #@! TO.C,J2*
X92650000Y-77470000D02*
X95310000Y-77470000D01*
X92650000Y-77470000D02*
X92650000Y-100390000D01*
X92650000Y-100390000D02*
X95310000Y-100390000D01*
X95310000Y-77470000D02*
X95310000Y-100390000D01*
X95310000Y-74870000D02*
X95310000Y-76200000D01*
X93980000Y-74870000D02*
X95310000Y-74870000D01*
D13*
G04 #@! TO.C,U2*
X80129192Y-84755020D02*
X80129192Y-86130020D01*
X90254192Y-84755020D02*
X90254192Y-80605020D01*
X80104192Y-84755020D02*
X80104192Y-80605020D01*
X90254192Y-84755020D02*
X90149192Y-84755020D01*
X90254192Y-80605020D02*
X90149192Y-80605020D01*
X80104192Y-80605020D02*
X80209192Y-80605020D01*
X80104192Y-84755020D02*
X80129192Y-84755020D01*
G04 #@! TO.C,U1*
X81729192Y-83430020D02*
X81729192Y-77455020D01*
X88629192Y-81905020D02*
X88629192Y-77455020D01*
D11*
G04 #@! TO.C,D3*
X79100000Y-71100000D02*
X76300000Y-71100000D01*
X79100000Y-69700000D02*
X76300000Y-69700000D01*
X79100000Y-71100000D02*
X79100000Y-69700000D01*
G04 #@! TO.C,D2*
X88700000Y-100700000D02*
X90100000Y-100700000D01*
X90100000Y-100700000D02*
X90100000Y-97900000D01*
X88700000Y-100700000D02*
X88700000Y-97900000D01*
G04 #@! TO.C,D1*
X80300000Y-100700000D02*
X80300000Y-97900000D01*
X81700000Y-100700000D02*
X81700000Y-97900000D01*
X80300000Y-100700000D02*
X81700000Y-100700000D01*
G04 #@! TO.C,R4*
X90690000Y-99096267D02*
X90690000Y-98753733D01*
X91710000Y-99096267D02*
X91710000Y-98753733D01*
G04 #@! TO.C,R5*
X77103733Y-73310000D02*
X77446267Y-73310000D01*
X77103733Y-72290000D02*
X77446267Y-72290000D01*
G04 #@! TO.C,R3*
X78690000Y-99171267D02*
X78690000Y-98828733D01*
X79710000Y-99171267D02*
X79710000Y-98828733D01*
D14*
G04 #@! TO.C,G\002A\002A\002A*
G36*
X79177413Y-68049534D02*
X79301574Y-68094762D01*
X79378362Y-68174987D01*
X79412900Y-68294174D01*
X79416040Y-68356713D01*
X79402295Y-68448165D01*
X79368059Y-68542914D01*
X79323831Y-68617074D01*
X79289217Y-68645240D01*
X79288186Y-68675991D01*
X79313499Y-68748715D01*
X79360107Y-68850006D01*
X79383198Y-68894795D01*
X79441027Y-69006233D01*
X79485219Y-69096079D01*
X79508684Y-69149738D01*
X79510691Y-69157331D01*
X79483285Y-69173106D01*
X79414804Y-69180995D01*
X79400140Y-69181203D01*
X79341299Y-69177595D01*
X79298812Y-69158598D01*
X79260350Y-69111952D01*
X79213582Y-69025397D01*
X79185290Y-68967579D01*
X79116285Y-68834472D01*
X79065807Y-68761387D01*
X79031590Y-68748177D01*
X79011369Y-68794695D01*
X79002878Y-68900795D01*
X79002256Y-68955744D01*
X79002256Y-69181203D01*
X78811278Y-69181203D01*
X78811278Y-68385464D01*
X79002256Y-68385464D01*
X79006099Y-68481946D01*
X79021209Y-68529958D01*
X79052955Y-68544415D01*
X79059549Y-68544612D01*
X79130154Y-68524459D01*
X79155037Y-68506416D01*
X79189398Y-68435884D01*
X79188567Y-68349927D01*
X79155359Y-68278318D01*
X79131666Y-68259265D01*
X79061524Y-68230584D01*
X79021934Y-68243971D01*
X79004950Y-68307176D01*
X79002256Y-68385464D01*
X78811278Y-68385464D01*
X78811278Y-68035339D01*
X79000758Y-68035339D01*
X79177413Y-68049534D01*
X79177413Y-68049534D01*
G37*
X79177413Y-68049534D02*
X79301574Y-68094762D01*
X79378362Y-68174987D01*
X79412900Y-68294174D01*
X79416040Y-68356713D01*
X79402295Y-68448165D01*
X79368059Y-68542914D01*
X79323831Y-68617074D01*
X79289217Y-68645240D01*
X79288186Y-68675991D01*
X79313499Y-68748715D01*
X79360107Y-68850006D01*
X79383198Y-68894795D01*
X79441027Y-69006233D01*
X79485219Y-69096079D01*
X79508684Y-69149738D01*
X79510691Y-69157331D01*
X79483285Y-69173106D01*
X79414804Y-69180995D01*
X79400140Y-69181203D01*
X79341299Y-69177595D01*
X79298812Y-69158598D01*
X79260350Y-69111952D01*
X79213582Y-69025397D01*
X79185290Y-68967579D01*
X79116285Y-68834472D01*
X79065807Y-68761387D01*
X79031590Y-68748177D01*
X79011369Y-68794695D01*
X79002878Y-68900795D01*
X79002256Y-68955744D01*
X79002256Y-69181203D01*
X78811278Y-69181203D01*
X78811278Y-68385464D01*
X79002256Y-68385464D01*
X79006099Y-68481946D01*
X79021209Y-68529958D01*
X79052955Y-68544415D01*
X79059549Y-68544612D01*
X79130154Y-68524459D01*
X79155037Y-68506416D01*
X79189398Y-68435884D01*
X79188567Y-68349927D01*
X79155359Y-68278318D01*
X79131666Y-68259265D01*
X79061524Y-68230584D01*
X79021934Y-68243971D01*
X79004950Y-68307176D01*
X79002256Y-68385464D01*
X78811278Y-68385464D01*
X78811278Y-68035339D01*
X79000758Y-68035339D01*
X79177413Y-68049534D01*
G36*
X78652130Y-68146742D02*
X78649073Y-68215193D01*
X78628350Y-68247607D01*
X78572636Y-68257458D01*
X78508897Y-68258146D01*
X78365664Y-68258146D01*
X78365664Y-68512782D01*
X78508897Y-68512782D01*
X78596973Y-68515550D01*
X78638689Y-68531533D01*
X78651321Y-68572247D01*
X78652130Y-68608271D01*
X78647978Y-68666988D01*
X78624004Y-68694799D01*
X78562933Y-68703220D01*
X78508897Y-68703760D01*
X78365664Y-68703760D01*
X78365664Y-68990226D01*
X78524812Y-68990226D01*
X78619024Y-68992312D01*
X78666003Y-69005139D01*
X78682173Y-69038560D01*
X78683960Y-69085714D01*
X78683960Y-69181203D01*
X78174687Y-69181203D01*
X78174687Y-68035339D01*
X78652130Y-68035339D01*
X78652130Y-68146742D01*
X78652130Y-68146742D01*
G37*
X78652130Y-68146742D02*
X78649073Y-68215193D01*
X78628350Y-68247607D01*
X78572636Y-68257458D01*
X78508897Y-68258146D01*
X78365664Y-68258146D01*
X78365664Y-68512782D01*
X78508897Y-68512782D01*
X78596973Y-68515550D01*
X78638689Y-68531533D01*
X78651321Y-68572247D01*
X78652130Y-68608271D01*
X78647978Y-68666988D01*
X78624004Y-68694799D01*
X78562933Y-68703220D01*
X78508897Y-68703760D01*
X78365664Y-68703760D01*
X78365664Y-68990226D01*
X78524812Y-68990226D01*
X78619024Y-68992312D01*
X78666003Y-69005139D01*
X78682173Y-69038560D01*
X78683960Y-69085714D01*
X78683960Y-69181203D01*
X78174687Y-69181203D01*
X78174687Y-68035339D01*
X78652130Y-68035339D01*
X78652130Y-68146742D01*
G36*
X77559578Y-68036876D02*
X77580931Y-68051451D01*
X77599309Y-68086477D01*
X77617894Y-68150388D01*
X77639867Y-68251620D01*
X77668408Y-68398607D01*
X77705277Y-68592356D01*
X77747888Y-68815163D01*
X77804751Y-68480953D01*
X77834719Y-68305921D01*
X77857539Y-68183993D01*
X77877109Y-68105578D01*
X77897325Y-68061084D01*
X77922087Y-68040921D01*
X77955291Y-68035499D01*
X77985854Y-68035339D01*
X78051978Y-68044003D01*
X78079198Y-68064622D01*
X78072897Y-68105788D01*
X78055778Y-68195576D01*
X78030518Y-68320396D01*
X78002382Y-68454534D01*
X77967207Y-68620582D01*
X77932800Y-68784565D01*
X77903780Y-68924402D01*
X77888722Y-68998183D01*
X77866275Y-69100471D01*
X77843900Y-69155122D01*
X77809878Y-69177056D01*
X77752492Y-69181194D01*
X77744987Y-69181203D01*
X77706219Y-69182411D01*
X77677482Y-69180359D01*
X77655368Y-69166539D01*
X77636470Y-69132437D01*
X77617379Y-69069545D01*
X77594688Y-68969351D01*
X77564989Y-68823344D01*
X77528317Y-68640100D01*
X77486659Y-68433208D01*
X77412751Y-68807206D01*
X77338842Y-69181203D01*
X77106438Y-69181203D01*
X77002432Y-68654608D01*
X76966823Y-68476815D01*
X76934287Y-68319000D01*
X76907252Y-68192583D01*
X76888146Y-68108986D01*
X76880644Y-68081675D01*
X76884123Y-68049597D01*
X76934930Y-68036472D01*
X76974222Y-68035339D01*
X77020199Y-68035102D01*
X77053507Y-68040619D01*
X77078213Y-68061236D01*
X77098381Y-68106296D01*
X77118078Y-68185143D01*
X77141369Y-68307122D01*
X77172319Y-68481576D01*
X77175033Y-68496867D01*
X77231564Y-68815163D01*
X77312389Y-68425251D01*
X77393213Y-68035339D01*
X77495227Y-68035339D01*
X77532071Y-68034318D01*
X77559578Y-68036876D01*
X77559578Y-68036876D01*
G37*
X77559578Y-68036876D02*
X77580931Y-68051451D01*
X77599309Y-68086477D01*
X77617894Y-68150388D01*
X77639867Y-68251620D01*
X77668408Y-68398607D01*
X77705277Y-68592356D01*
X77747888Y-68815163D01*
X77804751Y-68480953D01*
X77834719Y-68305921D01*
X77857539Y-68183993D01*
X77877109Y-68105578D01*
X77897325Y-68061084D01*
X77922087Y-68040921D01*
X77955291Y-68035499D01*
X77985854Y-68035339D01*
X78051978Y-68044003D01*
X78079198Y-68064622D01*
X78072897Y-68105788D01*
X78055778Y-68195576D01*
X78030518Y-68320396D01*
X78002382Y-68454534D01*
X77967207Y-68620582D01*
X77932800Y-68784565D01*
X77903780Y-68924402D01*
X77888722Y-68998183D01*
X77866275Y-69100471D01*
X77843900Y-69155122D01*
X77809878Y-69177056D01*
X77752492Y-69181194D01*
X77744987Y-69181203D01*
X77706219Y-69182411D01*
X77677482Y-69180359D01*
X77655368Y-69166539D01*
X77636470Y-69132437D01*
X77617379Y-69069545D01*
X77594688Y-68969351D01*
X77564989Y-68823344D01*
X77528317Y-68640100D01*
X77486659Y-68433208D01*
X77412751Y-68807206D01*
X77338842Y-69181203D01*
X77106438Y-69181203D01*
X77002432Y-68654608D01*
X76966823Y-68476815D01*
X76934287Y-68319000D01*
X76907252Y-68192583D01*
X76888146Y-68108986D01*
X76880644Y-68081675D01*
X76884123Y-68049597D01*
X76934930Y-68036472D01*
X76974222Y-68035339D01*
X77020199Y-68035102D01*
X77053507Y-68040619D01*
X77078213Y-68061236D01*
X77098381Y-68106296D01*
X77118078Y-68185143D01*
X77141369Y-68307122D01*
X77172319Y-68481576D01*
X77175033Y-68496867D01*
X77231564Y-68815163D01*
X77312389Y-68425251D01*
X77393213Y-68035339D01*
X77495227Y-68035339D01*
X77532071Y-68034318D01*
X77559578Y-68036876D01*
G36*
X75564827Y-68040754D02*
X75724460Y-68058567D01*
X75831119Y-68096964D01*
X75894527Y-68165482D01*
X75924405Y-68273657D01*
X75930702Y-68399698D01*
X75926718Y-68520070D01*
X75910802Y-68598956D01*
X75877009Y-68658250D01*
X75852972Y-68685882D01*
X75756825Y-68753927D01*
X75654037Y-68788003D01*
X75532832Y-68807384D01*
X75532832Y-68994294D01*
X75531501Y-69098588D01*
X75522343Y-69154390D01*
X75497608Y-69176866D01*
X75449549Y-69181184D01*
X75437343Y-69181203D01*
X75341855Y-69181203D01*
X75341855Y-68397973D01*
X75532832Y-68397973D01*
X75534780Y-68499430D01*
X75545263Y-68552693D01*
X75571234Y-68573209D01*
X75613194Y-68576441D01*
X75687628Y-68552951D01*
X75723809Y-68496867D01*
X75735559Y-68419912D01*
X75724073Y-68338632D01*
X75695421Y-68277064D01*
X75663541Y-68258146D01*
X75609392Y-68247615D01*
X75583180Y-68238825D01*
X75554252Y-68237402D01*
X75538905Y-68269732D01*
X75533251Y-68348107D01*
X75532832Y-68397973D01*
X75341855Y-68397973D01*
X75341855Y-68028156D01*
X75564827Y-68040754D01*
X75564827Y-68040754D01*
G37*
X75564827Y-68040754D02*
X75724460Y-68058567D01*
X75831119Y-68096964D01*
X75894527Y-68165482D01*
X75924405Y-68273657D01*
X75930702Y-68399698D01*
X75926718Y-68520070D01*
X75910802Y-68598956D01*
X75877009Y-68658250D01*
X75852972Y-68685882D01*
X75756825Y-68753927D01*
X75654037Y-68788003D01*
X75532832Y-68807384D01*
X75532832Y-68994294D01*
X75531501Y-69098588D01*
X75522343Y-69154390D01*
X75497608Y-69176866D01*
X75449549Y-69181184D01*
X75437343Y-69181203D01*
X75341855Y-69181203D01*
X75341855Y-68397973D01*
X75532832Y-68397973D01*
X75534780Y-68499430D01*
X75545263Y-68552693D01*
X75571234Y-68573209D01*
X75613194Y-68576441D01*
X75687628Y-68552951D01*
X75723809Y-68496867D01*
X75735559Y-68419912D01*
X75724073Y-68338632D01*
X75695421Y-68277064D01*
X75663541Y-68258146D01*
X75609392Y-68247615D01*
X75583180Y-68238825D01*
X75554252Y-68237402D01*
X75538905Y-68269732D01*
X75533251Y-68348107D01*
X75532832Y-68397973D01*
X75341855Y-68397973D01*
X75341855Y-68028156D01*
X75564827Y-68040754D01*
G36*
X76582589Y-68060070D02*
X76700892Y-68134795D01*
X76782327Y-68260305D01*
X76827465Y-68437395D01*
X76837844Y-68608271D01*
X76824273Y-68806841D01*
X76780832Y-68959482D01*
X76703434Y-69078470D01*
X76670013Y-69112196D01*
X76570734Y-69170423D01*
X76445613Y-69200829D01*
X76324968Y-69197796D01*
X76280827Y-69184295D01*
X76184226Y-69116745D01*
X76095733Y-69013026D01*
X76044225Y-68916537D01*
X76017820Y-68794770D01*
X76010614Y-68639055D01*
X76016627Y-68548905D01*
X76210012Y-68548905D01*
X76210313Y-68687981D01*
X76235298Y-68789161D01*
X76299885Y-68910991D01*
X76376464Y-68975796D01*
X76459935Y-68981436D01*
X76545195Y-68925773D01*
X76549742Y-68920990D01*
X76610944Y-68823403D01*
X76641498Y-68705445D01*
X76644505Y-68579572D01*
X76623061Y-68458242D01*
X76580266Y-68353912D01*
X76519218Y-68279039D01*
X76443015Y-68246082D01*
X76383866Y-68254059D01*
X76301633Y-68314494D01*
X76242067Y-68418592D01*
X76210012Y-68548905D01*
X76016627Y-68548905D01*
X76021506Y-68475777D01*
X76049396Y-68331325D01*
X76071189Y-68270320D01*
X76150832Y-68140428D01*
X76252809Y-68065170D01*
X76389622Y-68036290D01*
X76426850Y-68035339D01*
X76582589Y-68060070D01*
X76582589Y-68060070D01*
G37*
X76582589Y-68060070D02*
X76700892Y-68134795D01*
X76782327Y-68260305D01*
X76827465Y-68437395D01*
X76837844Y-68608271D01*
X76824273Y-68806841D01*
X76780832Y-68959482D01*
X76703434Y-69078470D01*
X76670013Y-69112196D01*
X76570734Y-69170423D01*
X76445613Y-69200829D01*
X76324968Y-69197796D01*
X76280827Y-69184295D01*
X76184226Y-69116745D01*
X76095733Y-69013026D01*
X76044225Y-68916537D01*
X76017820Y-68794770D01*
X76010614Y-68639055D01*
X76016627Y-68548905D01*
X76210012Y-68548905D01*
X76210313Y-68687981D01*
X76235298Y-68789161D01*
X76299885Y-68910991D01*
X76376464Y-68975796D01*
X76459935Y-68981436D01*
X76545195Y-68925773D01*
X76549742Y-68920990D01*
X76610944Y-68823403D01*
X76641498Y-68705445D01*
X76644505Y-68579572D01*
X76623061Y-68458242D01*
X76580266Y-68353912D01*
X76519218Y-68279039D01*
X76443015Y-68246082D01*
X76383866Y-68254059D01*
X76301633Y-68314494D01*
X76242067Y-68418592D01*
X76210012Y-68548905D01*
X76016627Y-68548905D01*
X76021506Y-68475777D01*
X76049396Y-68331325D01*
X76071189Y-68270320D01*
X76150832Y-68140428D01*
X76252809Y-68065170D01*
X76389622Y-68036290D01*
X76426850Y-68035339D01*
X76582589Y-68060070D01*
G36*
X95458145Y-72905263D02*
X94439599Y-72905263D01*
X94439599Y-73287218D01*
X95394486Y-73287218D01*
X95394486Y-73669173D01*
X94439599Y-73669173D01*
X94439599Y-74146617D01*
X95489975Y-74146617D01*
X95489975Y-74496742D01*
X94025814Y-74496742D01*
X94025814Y-72555138D01*
X95458145Y-72555138D01*
X95458145Y-72905263D01*
X95458145Y-72905263D01*
G37*
X95458145Y-72905263D02*
X94439599Y-72905263D01*
X94439599Y-73287218D01*
X95394486Y-73287218D01*
X95394486Y-73669173D01*
X94439599Y-73669173D01*
X94439599Y-74146617D01*
X95489975Y-74146617D01*
X95489975Y-74496742D01*
X94025814Y-74496742D01*
X94025814Y-72555138D01*
X95458145Y-72555138D01*
X95458145Y-72905263D01*
G36*
X93675689Y-74496742D02*
X93261905Y-74496742D01*
X93261905Y-72555138D01*
X93675689Y-72555138D01*
X93675689Y-74496742D01*
X93675689Y-74496742D01*
G37*
X93675689Y-74496742D02*
X93261905Y-74496742D01*
X93261905Y-72555138D01*
X93675689Y-72555138D01*
X93675689Y-74496742D01*
G36*
X91917105Y-72555837D02*
X92163538Y-72558501D01*
X92355416Y-72567348D01*
X92501723Y-72584691D01*
X92611447Y-72612841D01*
X92693572Y-72654109D01*
X92757084Y-72710808D01*
X92810969Y-72785250D01*
X92811372Y-72785901D01*
X92860341Y-72907761D01*
X92876388Y-73047295D01*
X92862332Y-73187601D01*
X92820992Y-73311781D01*
X92755188Y-73402933D01*
X92702975Y-73435589D01*
X92681804Y-73455613D01*
X92710687Y-73487373D01*
X92751193Y-73513803D01*
X92872230Y-73620929D01*
X92947206Y-73758054D01*
X92976991Y-73912169D01*
X92962461Y-74070267D01*
X92904486Y-74219339D01*
X92803940Y-74346377D01*
X92690054Y-74425125D01*
X92635986Y-74450383D01*
X92581443Y-74468906D01*
X92515728Y-74481730D01*
X92428145Y-74489890D01*
X92307995Y-74494421D01*
X92144582Y-74496359D01*
X91950148Y-74496742D01*
X91352130Y-74496742D01*
X91352130Y-73669173D01*
X91765915Y-73669173D01*
X91765915Y-74146617D01*
X92085657Y-74146617D01*
X92233316Y-74145478D01*
X92332057Y-74140133D01*
X92396611Y-74127691D01*
X92441705Y-74105259D01*
X92482069Y-74069944D01*
X92483527Y-74068490D01*
X92546003Y-73987834D01*
X92556928Y-73908437D01*
X92526315Y-73817414D01*
X92481369Y-73752037D01*
X92409822Y-73707905D01*
X92301241Y-73681765D01*
X92145194Y-73670365D01*
X92050883Y-73669173D01*
X91765915Y-73669173D01*
X91352130Y-73669173D01*
X91352130Y-72905263D01*
X91765915Y-72905263D01*
X91765915Y-73325193D01*
X92067211Y-73314163D01*
X92224572Y-73305311D01*
X92330006Y-73291063D01*
X92395158Y-73269316D01*
X92421315Y-73250273D01*
X92467771Y-73163652D01*
X92465937Y-73063585D01*
X92417475Y-72976087D01*
X92402959Y-72962888D01*
X92352735Y-72933407D01*
X92281317Y-72915619D01*
X92173682Y-72907079D01*
X92048855Y-72905263D01*
X91765915Y-72905263D01*
X91352130Y-72905263D01*
X91352130Y-72555138D01*
X91917105Y-72555837D01*
X91917105Y-72555837D01*
G37*
X91917105Y-72555837D02*
X92163538Y-72558501D01*
X92355416Y-72567348D01*
X92501723Y-72584691D01*
X92611447Y-72612841D01*
X92693572Y-72654109D01*
X92757084Y-72710808D01*
X92810969Y-72785250D01*
X92811372Y-72785901D01*
X92860341Y-72907761D01*
X92876388Y-73047295D01*
X92862332Y-73187601D01*
X92820992Y-73311781D01*
X92755188Y-73402933D01*
X92702975Y-73435589D01*
X92681804Y-73455613D01*
X92710687Y-73487373D01*
X92751193Y-73513803D01*
X92872230Y-73620929D01*
X92947206Y-73758054D01*
X92976991Y-73912169D01*
X92962461Y-74070267D01*
X92904486Y-74219339D01*
X92803940Y-74346377D01*
X92690054Y-74425125D01*
X92635986Y-74450383D01*
X92581443Y-74468906D01*
X92515728Y-74481730D01*
X92428145Y-74489890D01*
X92307995Y-74494421D01*
X92144582Y-74496359D01*
X91950148Y-74496742D01*
X91352130Y-74496742D01*
X91352130Y-73669173D01*
X91765915Y-73669173D01*
X91765915Y-74146617D01*
X92085657Y-74146617D01*
X92233316Y-74145478D01*
X92332057Y-74140133D01*
X92396611Y-74127691D01*
X92441705Y-74105259D01*
X92482069Y-74069944D01*
X92483527Y-74068490D01*
X92546003Y-73987834D01*
X92556928Y-73908437D01*
X92526315Y-73817414D01*
X92481369Y-73752037D01*
X92409822Y-73707905D01*
X92301241Y-73681765D01*
X92145194Y-73670365D01*
X92050883Y-73669173D01*
X91765915Y-73669173D01*
X91352130Y-73669173D01*
X91352130Y-72905263D01*
X91765915Y-72905263D01*
X91765915Y-73325193D01*
X92067211Y-73314163D01*
X92224572Y-73305311D01*
X92330006Y-73291063D01*
X92395158Y-73269316D01*
X92421315Y-73250273D01*
X92467771Y-73163652D01*
X92465937Y-73063585D01*
X92417475Y-72976087D01*
X92402959Y-72962888D01*
X92352735Y-72933407D01*
X92281317Y-72915619D01*
X92173682Y-72907079D01*
X92048855Y-72905263D01*
X91765915Y-72905263D01*
X91352130Y-72905263D01*
X91352130Y-72555138D01*
X91917105Y-72555837D01*
G36*
X86132080Y-73319048D02*
X86864160Y-73319048D01*
X86864160Y-72555138D01*
X87277945Y-72555138D01*
X87277945Y-74496742D01*
X86864160Y-74496742D01*
X86864160Y-73669173D01*
X86132080Y-73669173D01*
X86132080Y-74496742D01*
X85718296Y-74496742D01*
X85718296Y-72555138D01*
X86132080Y-72555138D01*
X86132080Y-73319048D01*
X86132080Y-73319048D01*
G37*
X86132080Y-73319048D02*
X86864160Y-73319048D01*
X86864160Y-72555138D01*
X87277945Y-72555138D01*
X87277945Y-74496742D01*
X86864160Y-74496742D01*
X86864160Y-73669173D01*
X86132080Y-73669173D01*
X86132080Y-74496742D01*
X85718296Y-74496742D01*
X85718296Y-72555138D01*
X86132080Y-72555138D01*
X86132080Y-73319048D01*
G36*
X90513516Y-72546904D02*
X90702605Y-72614000D01*
X90848947Y-72722191D01*
X90948383Y-72868580D01*
X90992044Y-73015362D01*
X91010334Y-73128070D01*
X90870894Y-73128505D01*
X90766553Y-73133067D01*
X90678618Y-73143891D01*
X90661280Y-73147755D01*
X90605879Y-73149275D01*
X90576204Y-73104578D01*
X90570172Y-73083157D01*
X90513088Y-72977640D01*
X90410766Y-72904908D01*
X90277150Y-72874300D01*
X90257675Y-72873903D01*
X90110223Y-72891816D01*
X90009428Y-72942443D01*
X89960456Y-73022935D01*
X89957648Y-73039457D01*
X89964619Y-73099806D01*
X90006370Y-73150320D01*
X90090790Y-73195826D01*
X90225768Y-73241155D01*
X90334995Y-73270451D01*
X90537213Y-73326452D01*
X90687959Y-73380606D01*
X90799014Y-73438271D01*
X90882156Y-73504803D01*
X90905928Y-73530133D01*
X91005136Y-73686084D01*
X91050258Y-73855996D01*
X91044672Y-74028181D01*
X90991757Y-74190948D01*
X90894889Y-74332609D01*
X90757447Y-74441475D01*
X90627019Y-74495341D01*
X90499777Y-74517050D01*
X90338772Y-74525741D01*
X90168506Y-74521911D01*
X90013483Y-74506053D01*
X89903885Y-74480740D01*
X89767741Y-74405081D01*
X89641772Y-74287369D01*
X89545293Y-74148451D01*
X89506081Y-74051373D01*
X89482528Y-73939672D01*
X89492104Y-73872693D01*
X89543890Y-73839398D01*
X89646969Y-73828750D01*
X89689599Y-73828321D01*
X89794140Y-73830060D01*
X89853668Y-73841508D01*
X89886828Y-73872010D01*
X89912266Y-73930912D01*
X89916263Y-73941930D01*
X89978362Y-74045844D01*
X90057933Y-74116874D01*
X90184003Y-74166020D01*
X90320301Y-74175339D01*
X90449167Y-74148145D01*
X90552938Y-74087749D01*
X90607816Y-74013728D01*
X90631509Y-73934202D01*
X90621830Y-73869325D01*
X90572501Y-73813943D01*
X90477246Y-73762903D01*
X90329785Y-73711051D01*
X90190351Y-73671025D01*
X89967390Y-73599746D01*
X89800599Y-73520835D01*
X89682563Y-73429737D01*
X89605867Y-73321899D01*
X89599279Y-73308035D01*
X89546038Y-73125496D01*
X89552881Y-72951924D01*
X89618312Y-72794833D01*
X89725482Y-72674236D01*
X89845033Y-72596541D01*
X89990111Y-72548486D01*
X90174647Y-72526331D01*
X90285839Y-72523797D01*
X90513516Y-72546904D01*
X90513516Y-72546904D01*
G37*
X90513516Y-72546904D02*
X90702605Y-72614000D01*
X90848947Y-72722191D01*
X90948383Y-72868580D01*
X90992044Y-73015362D01*
X91010334Y-73128070D01*
X90870894Y-73128505D01*
X90766553Y-73133067D01*
X90678618Y-73143891D01*
X90661280Y-73147755D01*
X90605879Y-73149275D01*
X90576204Y-73104578D01*
X90570172Y-73083157D01*
X90513088Y-72977640D01*
X90410766Y-72904908D01*
X90277150Y-72874300D01*
X90257675Y-72873903D01*
X90110223Y-72891816D01*
X90009428Y-72942443D01*
X89960456Y-73022935D01*
X89957648Y-73039457D01*
X89964619Y-73099806D01*
X90006370Y-73150320D01*
X90090790Y-73195826D01*
X90225768Y-73241155D01*
X90334995Y-73270451D01*
X90537213Y-73326452D01*
X90687959Y-73380606D01*
X90799014Y-73438271D01*
X90882156Y-73504803D01*
X90905928Y-73530133D01*
X91005136Y-73686084D01*
X91050258Y-73855996D01*
X91044672Y-74028181D01*
X90991757Y-74190948D01*
X90894889Y-74332609D01*
X90757447Y-74441475D01*
X90627019Y-74495341D01*
X90499777Y-74517050D01*
X90338772Y-74525741D01*
X90168506Y-74521911D01*
X90013483Y-74506053D01*
X89903885Y-74480740D01*
X89767741Y-74405081D01*
X89641772Y-74287369D01*
X89545293Y-74148451D01*
X89506081Y-74051373D01*
X89482528Y-73939672D01*
X89492104Y-73872693D01*
X89543890Y-73839398D01*
X89646969Y-73828750D01*
X89689599Y-73828321D01*
X89794140Y-73830060D01*
X89853668Y-73841508D01*
X89886828Y-73872010D01*
X89912266Y-73930912D01*
X89916263Y-73941930D01*
X89978362Y-74045844D01*
X90057933Y-74116874D01*
X90184003Y-74166020D01*
X90320301Y-74175339D01*
X90449167Y-74148145D01*
X90552938Y-74087749D01*
X90607816Y-74013728D01*
X90631509Y-73934202D01*
X90621830Y-73869325D01*
X90572501Y-73813943D01*
X90477246Y-73762903D01*
X90329785Y-73711051D01*
X90190351Y-73671025D01*
X89967390Y-73599746D01*
X89800599Y-73520835D01*
X89682563Y-73429737D01*
X89605867Y-73321899D01*
X89599279Y-73308035D01*
X89546038Y-73125496D01*
X89552881Y-72951924D01*
X89618312Y-72794833D01*
X89725482Y-72674236D01*
X89845033Y-72596541D01*
X89990111Y-72548486D01*
X90174647Y-72526331D01*
X90285839Y-72523797D01*
X90513516Y-72546904D01*
G36*
X88047274Y-73247431D02*
X88052193Y-73495798D01*
X88058793Y-73688550D01*
X88068918Y-73833735D01*
X88084409Y-73939396D01*
X88107112Y-74013579D01*
X88138869Y-74064331D01*
X88181525Y-74099695D01*
X88236922Y-74127717D01*
X88250286Y-74133397D01*
X88408355Y-74174933D01*
X88551064Y-74158175D01*
X88610171Y-74133089D01*
X88660699Y-74102315D01*
X88699695Y-74063359D01*
X88728630Y-74008173D01*
X88748977Y-73928709D01*
X88762207Y-73816920D01*
X88769794Y-73664756D01*
X88773210Y-73464172D01*
X88773935Y-73237976D01*
X88773935Y-72555138D01*
X89191818Y-72555138D01*
X89181811Y-73327005D01*
X89178460Y-73568934D01*
X89174899Y-73756035D01*
X89170277Y-73897138D01*
X89163741Y-74001070D01*
X89154439Y-74076661D01*
X89141521Y-74132739D01*
X89124132Y-74178132D01*
X89101423Y-74221669D01*
X89094269Y-74234250D01*
X88990106Y-74366541D01*
X88849840Y-74457524D01*
X88667537Y-74509788D01*
X88437262Y-74525920D01*
X88425517Y-74525836D01*
X88288746Y-74521552D01*
X88166909Y-74512600D01*
X88081407Y-74500695D01*
X88067043Y-74497111D01*
X87906871Y-74417150D01*
X87776423Y-74288788D01*
X87712747Y-74181379D01*
X87691158Y-74128759D01*
X87674466Y-74071682D01*
X87661845Y-74000878D01*
X87652471Y-73907076D01*
X87645517Y-73781004D01*
X87640158Y-73613392D01*
X87635568Y-73394969D01*
X87633828Y-73295176D01*
X87621356Y-72555138D01*
X88035620Y-72555138D01*
X88047274Y-73247431D01*
X88047274Y-73247431D01*
G37*
X88047274Y-73247431D02*
X88052193Y-73495798D01*
X88058793Y-73688550D01*
X88068918Y-73833735D01*
X88084409Y-73939396D01*
X88107112Y-74013579D01*
X88138869Y-74064331D01*
X88181525Y-74099695D01*
X88236922Y-74127717D01*
X88250286Y-74133397D01*
X88408355Y-74174933D01*
X88551064Y-74158175D01*
X88610171Y-74133089D01*
X88660699Y-74102315D01*
X88699695Y-74063359D01*
X88728630Y-74008173D01*
X88748977Y-73928709D01*
X88762207Y-73816920D01*
X88769794Y-73664756D01*
X88773210Y-73464172D01*
X88773935Y-73237976D01*
X88773935Y-72555138D01*
X89191818Y-72555138D01*
X89181811Y-73327005D01*
X89178460Y-73568934D01*
X89174899Y-73756035D01*
X89170277Y-73897138D01*
X89163741Y-74001070D01*
X89154439Y-74076661D01*
X89141521Y-74132739D01*
X89124132Y-74178132D01*
X89101423Y-74221669D01*
X89094269Y-74234250D01*
X88990106Y-74366541D01*
X88849840Y-74457524D01*
X88667537Y-74509788D01*
X88437262Y-74525920D01*
X88425517Y-74525836D01*
X88288746Y-74521552D01*
X88166909Y-74512600D01*
X88081407Y-74500695D01*
X88067043Y-74497111D01*
X87906871Y-74417150D01*
X87776423Y-74288788D01*
X87712747Y-74181379D01*
X87691158Y-74128759D01*
X87674466Y-74071682D01*
X87661845Y-74000878D01*
X87652471Y-73907076D01*
X87645517Y-73781004D01*
X87640158Y-73613392D01*
X87635568Y-73394969D01*
X87633828Y-73295176D01*
X87621356Y-72555138D01*
X88035620Y-72555138D01*
X88047274Y-73247431D01*
G36*
X84836020Y-72545960D02*
X85024451Y-72607710D01*
X85179690Y-72701868D01*
X85231375Y-72750295D01*
X85284482Y-72823299D01*
X85338361Y-72920049D01*
X85380868Y-73016020D01*
X85399859Y-73086681D01*
X85400000Y-73090869D01*
X85371461Y-73111654D01*
X85296992Y-73137753D01*
X85202945Y-73161190D01*
X85089466Y-73182254D01*
X85024592Y-73185337D01*
X84995918Y-73170627D01*
X84993008Y-73164363D01*
X84939016Y-73074571D01*
X84848119Y-72985612D01*
X84743762Y-72918583D01*
X84701485Y-72902023D01*
X84547045Y-72886190D01*
X84403857Y-72931094D01*
X84280016Y-73033890D01*
X84261741Y-73056561D01*
X84223723Y-73109948D01*
X84198733Y-73160796D01*
X84184049Y-73223863D01*
X84176949Y-73313907D01*
X84174709Y-73445684D01*
X84174561Y-73529086D01*
X84178772Y-73719667D01*
X84194835Y-73859218D01*
X84227892Y-73960015D01*
X84283086Y-74034331D01*
X84365560Y-74094442D01*
X84424679Y-74126027D01*
X84563675Y-74163236D01*
X84703552Y-74147027D01*
X84829141Y-74084676D01*
X84925271Y-73983460D01*
X84974662Y-73862216D01*
X84988202Y-73803137D01*
X85008805Y-73774440D01*
X85051631Y-73772996D01*
X85131839Y-73795674D01*
X85195395Y-73816637D01*
X85308107Y-73856994D01*
X85369592Y-73892692D01*
X85389854Y-73936488D01*
X85378895Y-74001139D01*
X85367764Y-74036443D01*
X85298905Y-74170961D01*
X85189765Y-74304916D01*
X85060158Y-74416736D01*
X84970301Y-74469188D01*
X84805536Y-74516995D01*
X84611718Y-74531582D01*
X84413646Y-74513677D01*
X84236118Y-74464007D01*
X84197473Y-74446523D01*
X84013571Y-74325679D01*
X83875917Y-74167579D01*
X83782196Y-73968218D01*
X83730094Y-73723592D01*
X83720998Y-73622389D01*
X83727921Y-73345501D01*
X83783422Y-73100485D01*
X83885068Y-72891696D01*
X84030424Y-72723489D01*
X84217056Y-72600219D01*
X84314587Y-72560319D01*
X84404883Y-72540629D01*
X84528665Y-72527327D01*
X84632882Y-72523619D01*
X84836020Y-72545960D01*
X84836020Y-72545960D01*
G37*
X84836020Y-72545960D02*
X85024451Y-72607710D01*
X85179690Y-72701868D01*
X85231375Y-72750295D01*
X85284482Y-72823299D01*
X85338361Y-72920049D01*
X85380868Y-73016020D01*
X85399859Y-73086681D01*
X85400000Y-73090869D01*
X85371461Y-73111654D01*
X85296992Y-73137753D01*
X85202945Y-73161190D01*
X85089466Y-73182254D01*
X85024592Y-73185337D01*
X84995918Y-73170627D01*
X84993008Y-73164363D01*
X84939016Y-73074571D01*
X84848119Y-72985612D01*
X84743762Y-72918583D01*
X84701485Y-72902023D01*
X84547045Y-72886190D01*
X84403857Y-72931094D01*
X84280016Y-73033890D01*
X84261741Y-73056561D01*
X84223723Y-73109948D01*
X84198733Y-73160796D01*
X84184049Y-73223863D01*
X84176949Y-73313907D01*
X84174709Y-73445684D01*
X84174561Y-73529086D01*
X84178772Y-73719667D01*
X84194835Y-73859218D01*
X84227892Y-73960015D01*
X84283086Y-74034331D01*
X84365560Y-74094442D01*
X84424679Y-74126027D01*
X84563675Y-74163236D01*
X84703552Y-74147027D01*
X84829141Y-74084676D01*
X84925271Y-73983460D01*
X84974662Y-73862216D01*
X84988202Y-73803137D01*
X85008805Y-73774440D01*
X85051631Y-73772996D01*
X85131839Y-73795674D01*
X85195395Y-73816637D01*
X85308107Y-73856994D01*
X85369592Y-73892692D01*
X85389854Y-73936488D01*
X85378895Y-74001139D01*
X85367764Y-74036443D01*
X85298905Y-74170961D01*
X85189765Y-74304916D01*
X85060158Y-74416736D01*
X84970301Y-74469188D01*
X84805536Y-74516995D01*
X84611718Y-74531582D01*
X84413646Y-74513677D01*
X84236118Y-74464007D01*
X84197473Y-74446523D01*
X84013571Y-74325679D01*
X83875917Y-74167579D01*
X83782196Y-73968218D01*
X83730094Y-73723592D01*
X83720998Y-73622389D01*
X83727921Y-73345501D01*
X83783422Y-73100485D01*
X83885068Y-72891696D01*
X84030424Y-72723489D01*
X84217056Y-72600219D01*
X84314587Y-72560319D01*
X84404883Y-72540629D01*
X84528665Y-72527327D01*
X84632882Y-72523619D01*
X84836020Y-72545960D01*
G36*
X87086967Y-87324060D02*
X86450376Y-87324060D01*
X86450376Y-89297494D01*
X85972932Y-89297494D01*
X85972932Y-87324060D01*
X85304511Y-87324060D01*
X85304511Y-86878446D01*
X87086967Y-86878446D01*
X87086967Y-87324060D01*
X87086967Y-87324060D01*
G37*
X87086967Y-87324060D02*
X86450376Y-87324060D01*
X86450376Y-89297494D01*
X85972932Y-89297494D01*
X85972932Y-87324060D01*
X85304511Y-87324060D01*
X85304511Y-86878446D01*
X87086967Y-86878446D01*
X87086967Y-87324060D01*
G36*
X84617626Y-86900319D02*
X84795055Y-86967629D01*
X84939960Y-87084534D01*
X85002130Y-87162118D01*
X85051958Y-87239489D01*
X85080711Y-87309837D01*
X85094036Y-87395610D01*
X85097581Y-87519258D01*
X85097619Y-87541629D01*
X85088170Y-87705113D01*
X85055933Y-87852385D01*
X84995075Y-87994686D01*
X84899760Y-88143257D01*
X84764155Y-88309340D01*
X84616207Y-88469185D01*
X84506894Y-88584470D01*
X84415559Y-88683454D01*
X84350313Y-88757146D01*
X84319265Y-88796554D01*
X84317794Y-88800069D01*
X84347613Y-88807639D01*
X84429036Y-88813892D01*
X84550009Y-88818225D01*
X84698483Y-88820032D01*
X84715664Y-88820050D01*
X85113534Y-88820050D01*
X85113534Y-89297494D01*
X83582830Y-89297494D01*
X83602728Y-89178133D01*
X83641176Y-89028186D01*
X83709714Y-88874442D01*
X83813528Y-88708762D01*
X83957808Y-88523007D01*
X84147739Y-88309039D01*
X84175904Y-88278887D01*
X84332598Y-88109923D01*
X84449722Y-87977865D01*
X84532971Y-87874858D01*
X84588038Y-87793045D01*
X84620617Y-87724570D01*
X84636402Y-87661577D01*
X84638956Y-87640010D01*
X84633618Y-87483248D01*
X84585207Y-87372685D01*
X84494218Y-87309001D01*
X84385762Y-87292231D01*
X84261040Y-87320004D01*
X84169005Y-87401088D01*
X84113333Y-87532131D01*
X84110925Y-87542939D01*
X84088159Y-87650415D01*
X83924468Y-87630747D01*
X83818928Y-87619269D01*
X83733312Y-87612042D01*
X83705075Y-87610803D01*
X83660555Y-87584455D01*
X83651453Y-87507743D01*
X83677828Y-87383243D01*
X83698354Y-87320556D01*
X83791839Y-87139890D01*
X83928020Y-87006356D01*
X84106590Y-86920146D01*
X84327241Y-86881455D01*
X84400319Y-86879145D01*
X84617626Y-86900319D01*
X84617626Y-86900319D01*
G37*
X84617626Y-86900319D02*
X84795055Y-86967629D01*
X84939960Y-87084534D01*
X85002130Y-87162118D01*
X85051958Y-87239489D01*
X85080711Y-87309837D01*
X85094036Y-87395610D01*
X85097581Y-87519258D01*
X85097619Y-87541629D01*
X85088170Y-87705113D01*
X85055933Y-87852385D01*
X84995075Y-87994686D01*
X84899760Y-88143257D01*
X84764155Y-88309340D01*
X84616207Y-88469185D01*
X84506894Y-88584470D01*
X84415559Y-88683454D01*
X84350313Y-88757146D01*
X84319265Y-88796554D01*
X84317794Y-88800069D01*
X84347613Y-88807639D01*
X84429036Y-88813892D01*
X84550009Y-88818225D01*
X84698483Y-88820032D01*
X84715664Y-88820050D01*
X85113534Y-88820050D01*
X85113534Y-89297494D01*
X83582830Y-89297494D01*
X83602728Y-89178133D01*
X83641176Y-89028186D01*
X83709714Y-88874442D01*
X83813528Y-88708762D01*
X83957808Y-88523007D01*
X84147739Y-88309039D01*
X84175904Y-88278887D01*
X84332598Y-88109923D01*
X84449722Y-87977865D01*
X84532971Y-87874858D01*
X84588038Y-87793045D01*
X84620617Y-87724570D01*
X84636402Y-87661577D01*
X84638956Y-87640010D01*
X84633618Y-87483248D01*
X84585207Y-87372685D01*
X84494218Y-87309001D01*
X84385762Y-87292231D01*
X84261040Y-87320004D01*
X84169005Y-87401088D01*
X84113333Y-87532131D01*
X84110925Y-87542939D01*
X84088159Y-87650415D01*
X83924468Y-87630747D01*
X83818928Y-87619269D01*
X83733312Y-87612042D01*
X83705075Y-87610803D01*
X83660555Y-87584455D01*
X83651453Y-87507743D01*
X83677828Y-87383243D01*
X83698354Y-87320556D01*
X83791839Y-87139890D01*
X83928020Y-87006356D01*
X84106590Y-86920146D01*
X84327241Y-86881455D01*
X84400319Y-86879145D01*
X84617626Y-86900319D01*
G36*
X89512647Y-86865716D02*
X89731633Y-86924612D01*
X89908400Y-87025696D01*
X90047595Y-87171365D01*
X90123820Y-87298430D01*
X90181142Y-87421550D01*
X90202452Y-87501938D01*
X90183857Y-87551826D01*
X90121465Y-87583442D01*
X90025894Y-87606132D01*
X89893626Y-87630688D01*
X89808055Y-87637781D01*
X89753880Y-87624378D01*
X89715796Y-87587447D01*
X89686623Y-87538910D01*
X89581856Y-87405315D01*
X89442098Y-87324758D01*
X89329163Y-87299894D01*
X89146492Y-87296169D01*
X88998931Y-87334770D01*
X88869950Y-87420792D01*
X88837497Y-87451475D01*
X88741794Y-87570715D01*
X88679745Y-87709720D01*
X88646912Y-87882451D01*
X88638667Y-88076673D01*
X88661127Y-88321845D01*
X88723946Y-88527561D01*
X88822422Y-88690194D01*
X88951852Y-88806118D01*
X89107531Y-88871707D01*
X89284758Y-88883337D01*
X89478830Y-88837380D01*
X89571924Y-88796178D01*
X89667555Y-88745331D01*
X89720194Y-88703852D01*
X89744042Y-88653165D01*
X89753305Y-88574690D01*
X89754438Y-88557456D01*
X89764139Y-88406266D01*
X89251378Y-88406266D01*
X89251378Y-87992481D01*
X90238095Y-87992481D01*
X90238095Y-88976140D01*
X90102819Y-89066748D01*
X89843288Y-89206383D01*
X89564892Y-89294273D01*
X89280439Y-89327871D01*
X89002735Y-89304632D01*
X88956460Y-89294691D01*
X88744876Y-89215575D01*
X88549200Y-89087685D01*
X88386187Y-88923993D01*
X88293237Y-88781265D01*
X88213860Y-88575454D01*
X88162365Y-88334366D01*
X88141123Y-88081050D01*
X88152504Y-87838553D01*
X88180847Y-87688728D01*
X88252598Y-87473613D01*
X88346656Y-87299138D01*
X88475245Y-87143085D01*
X88488430Y-87129686D01*
X88666201Y-86987963D01*
X88870669Y-86896460D01*
X89110101Y-86852091D01*
X89246795Y-86846617D01*
X89512647Y-86865716D01*
X89512647Y-86865716D01*
G37*
X89512647Y-86865716D02*
X89731633Y-86924612D01*
X89908400Y-87025696D01*
X90047595Y-87171365D01*
X90123820Y-87298430D01*
X90181142Y-87421550D01*
X90202452Y-87501938D01*
X90183857Y-87551826D01*
X90121465Y-87583442D01*
X90025894Y-87606132D01*
X89893626Y-87630688D01*
X89808055Y-87637781D01*
X89753880Y-87624378D01*
X89715796Y-87587447D01*
X89686623Y-87538910D01*
X89581856Y-87405315D01*
X89442098Y-87324758D01*
X89329163Y-87299894D01*
X89146492Y-87296169D01*
X88998931Y-87334770D01*
X88869950Y-87420792D01*
X88837497Y-87451475D01*
X88741794Y-87570715D01*
X88679745Y-87709720D01*
X88646912Y-87882451D01*
X88638667Y-88076673D01*
X88661127Y-88321845D01*
X88723946Y-88527561D01*
X88822422Y-88690194D01*
X88951852Y-88806118D01*
X89107531Y-88871707D01*
X89284758Y-88883337D01*
X89478830Y-88837380D01*
X89571924Y-88796178D01*
X89667555Y-88745331D01*
X89720194Y-88703852D01*
X89744042Y-88653165D01*
X89753305Y-88574690D01*
X89754438Y-88557456D01*
X89764139Y-88406266D01*
X89251378Y-88406266D01*
X89251378Y-87992481D01*
X90238095Y-87992481D01*
X90238095Y-88976140D01*
X90102819Y-89066748D01*
X89843288Y-89206383D01*
X89564892Y-89294273D01*
X89280439Y-89327871D01*
X89002735Y-89304632D01*
X88956460Y-89294691D01*
X88744876Y-89215575D01*
X88549200Y-89087685D01*
X88386187Y-88923993D01*
X88293237Y-88781265D01*
X88213860Y-88575454D01*
X88162365Y-88334366D01*
X88141123Y-88081050D01*
X88152504Y-87838553D01*
X88180847Y-87688728D01*
X88252598Y-87473613D01*
X88346656Y-87299138D01*
X88475245Y-87143085D01*
X88488430Y-87129686D01*
X88666201Y-86987963D01*
X88870669Y-86896460D01*
X89110101Y-86852091D01*
X89246795Y-86846617D01*
X89512647Y-86865716D01*
G36*
X87949288Y-86852530D02*
X88002306Y-86871371D01*
X88010025Y-86888680D01*
X88003312Y-86925668D01*
X87984369Y-87016654D01*
X87954994Y-87153542D01*
X87916981Y-87328234D01*
X87872128Y-87532634D01*
X87822231Y-87758646D01*
X87769086Y-87998172D01*
X87714489Y-88243116D01*
X87660236Y-88485382D01*
X87608123Y-88716872D01*
X87559948Y-88929489D01*
X87517505Y-89115138D01*
X87484468Y-89257707D01*
X87467604Y-89299084D01*
X87430734Y-89320596D01*
X87356955Y-89328504D01*
X87291108Y-89329323D01*
X87190437Y-89326769D01*
X87140126Y-89316053D01*
X87126974Y-89292598D01*
X87130505Y-89273622D01*
X87140782Y-89230857D01*
X87163150Y-89133090D01*
X87196003Y-88987488D01*
X87237736Y-88801218D01*
X87286743Y-88581447D01*
X87341420Y-88335341D01*
X87400162Y-88070068D01*
X87408517Y-88032268D01*
X87670532Y-86846617D01*
X87840279Y-86846617D01*
X87949288Y-86852530D01*
X87949288Y-86852530D01*
G37*
X87949288Y-86852530D02*
X88002306Y-86871371D01*
X88010025Y-86888680D01*
X88003312Y-86925668D01*
X87984369Y-87016654D01*
X87954994Y-87153542D01*
X87916981Y-87328234D01*
X87872128Y-87532634D01*
X87822231Y-87758646D01*
X87769086Y-87998172D01*
X87714489Y-88243116D01*
X87660236Y-88485382D01*
X87608123Y-88716872D01*
X87559948Y-88929489D01*
X87517505Y-89115138D01*
X87484468Y-89257707D01*
X87467604Y-89299084D01*
X87430734Y-89320596D01*
X87356955Y-89328504D01*
X87291108Y-89329323D01*
X87190437Y-89326769D01*
X87140126Y-89316053D01*
X87126974Y-89292598D01*
X87130505Y-89273622D01*
X87140782Y-89230857D01*
X87163150Y-89133090D01*
X87196003Y-88987488D01*
X87237736Y-88801218D01*
X87286743Y-88581447D01*
X87341420Y-88335341D01*
X87400162Y-88070068D01*
X87408517Y-88032268D01*
X87670532Y-86846617D01*
X87840279Y-86846617D01*
X87949288Y-86852530D01*
G36*
X83362907Y-87355890D02*
X82949123Y-87355890D01*
X82779295Y-87356644D01*
X82663132Y-87359802D01*
X82590652Y-87366706D01*
X82551869Y-87378700D01*
X82536800Y-87397127D01*
X82534988Y-87411592D01*
X82529663Y-87480159D01*
X82517151Y-87572838D01*
X82515613Y-87582314D01*
X82496588Y-87697336D01*
X82657408Y-87681883D01*
X82841274Y-87677193D01*
X82987712Y-87707063D01*
X83116014Y-87777153D01*
X83189028Y-87837823D01*
X83317836Y-87994797D01*
X83401097Y-88178004D01*
X83440770Y-88376850D01*
X83438816Y-88580738D01*
X83397195Y-88779075D01*
X83317869Y-88961264D01*
X83202798Y-89116712D01*
X83053942Y-89234822D01*
X82919767Y-89292992D01*
X82731523Y-89324654D01*
X82534764Y-89316472D01*
X82400352Y-89284032D01*
X82299495Y-89241889D01*
X82210858Y-89195234D01*
X82202897Y-89190176D01*
X82123583Y-89113994D01*
X82044393Y-88999107D01*
X81979089Y-88868990D01*
X81941431Y-88747121D01*
X81940717Y-88742891D01*
X81932066Y-88667604D01*
X81949585Y-88635938D01*
X82008127Y-88628871D01*
X82029858Y-88628723D01*
X82141611Y-88622785D01*
X82249398Y-88609849D01*
X82319868Y-88602586D01*
X82362618Y-88620060D01*
X82397970Y-88675936D01*
X82420163Y-88724678D01*
X82496814Y-88839015D01*
X82596611Y-88905849D01*
X82706166Y-88923073D01*
X82812087Y-88888582D01*
X82900947Y-88800327D01*
X82954780Y-88672534D01*
X82974525Y-88520824D01*
X82961752Y-88365777D01*
X82918036Y-88227972D01*
X82849893Y-88132329D01*
X82750415Y-88082041D01*
X82626926Y-88076798D01*
X82499334Y-88115563D01*
X82436423Y-88153914D01*
X82365768Y-88200657D01*
X82303104Y-88219433D01*
X82220615Y-88215555D01*
X82161341Y-88206464D01*
X82056317Y-88182873D01*
X82004321Y-88153711D01*
X81993732Y-88125329D01*
X81998885Y-88078075D01*
X82013509Y-87979127D01*
X82035853Y-87839455D01*
X82064164Y-87670026D01*
X82095048Y-87491166D01*
X82196868Y-86910276D01*
X83362907Y-86910276D01*
X83362907Y-87355890D01*
X83362907Y-87355890D01*
G37*
X83362907Y-87355890D02*
X82949123Y-87355890D01*
X82779295Y-87356644D01*
X82663132Y-87359802D01*
X82590652Y-87366706D01*
X82551869Y-87378700D01*
X82536800Y-87397127D01*
X82534988Y-87411592D01*
X82529663Y-87480159D01*
X82517151Y-87572838D01*
X82515613Y-87582314D01*
X82496588Y-87697336D01*
X82657408Y-87681883D01*
X82841274Y-87677193D01*
X82987712Y-87707063D01*
X83116014Y-87777153D01*
X83189028Y-87837823D01*
X83317836Y-87994797D01*
X83401097Y-88178004D01*
X83440770Y-88376850D01*
X83438816Y-88580738D01*
X83397195Y-88779075D01*
X83317869Y-88961264D01*
X83202798Y-89116712D01*
X83053942Y-89234822D01*
X82919767Y-89292992D01*
X82731523Y-89324654D01*
X82534764Y-89316472D01*
X82400352Y-89284032D01*
X82299495Y-89241889D01*
X82210858Y-89195234D01*
X82202897Y-89190176D01*
X82123583Y-89113994D01*
X82044393Y-88999107D01*
X81979089Y-88868990D01*
X81941431Y-88747121D01*
X81940717Y-88742891D01*
X81932066Y-88667604D01*
X81949585Y-88635938D01*
X82008127Y-88628871D01*
X82029858Y-88628723D01*
X82141611Y-88622785D01*
X82249398Y-88609849D01*
X82319868Y-88602586D01*
X82362618Y-88620060D01*
X82397970Y-88675936D01*
X82420163Y-88724678D01*
X82496814Y-88839015D01*
X82596611Y-88905849D01*
X82706166Y-88923073D01*
X82812087Y-88888582D01*
X82900947Y-88800327D01*
X82954780Y-88672534D01*
X82974525Y-88520824D01*
X82961752Y-88365777D01*
X82918036Y-88227972D01*
X82849893Y-88132329D01*
X82750415Y-88082041D01*
X82626926Y-88076798D01*
X82499334Y-88115563D01*
X82436423Y-88153914D01*
X82365768Y-88200657D01*
X82303104Y-88219433D01*
X82220615Y-88215555D01*
X82161341Y-88206464D01*
X82056317Y-88182873D01*
X82004321Y-88153711D01*
X81993732Y-88125329D01*
X81998885Y-88078075D01*
X82013509Y-87979127D01*
X82035853Y-87839455D01*
X82064164Y-87670026D01*
X82095048Y-87491166D01*
X82196868Y-86910276D01*
X83362907Y-86910276D01*
X83362907Y-87355890D01*
G36*
X81612281Y-87355890D02*
X80825322Y-87355890D01*
X80794884Y-87544893D01*
X80779578Y-87648342D01*
X80777692Y-87701196D01*
X80791141Y-87715469D01*
X80820231Y-87704041D01*
X80906447Y-87680941D01*
X81028092Y-87675121D01*
X81159649Y-87685471D01*
X81275601Y-87710882D01*
X81312853Y-87725465D01*
X81435769Y-87808974D01*
X81553805Y-87932093D01*
X81646850Y-88072623D01*
X81667994Y-88117485D01*
X81698810Y-88236599D01*
X81713678Y-88392521D01*
X81712680Y-88560453D01*
X81695898Y-88715594D01*
X81665642Y-88827995D01*
X81552568Y-89025765D01*
X81401992Y-89177605D01*
X81220922Y-89278666D01*
X81016366Y-89324101D01*
X80945567Y-89326074D01*
X80821879Y-89317539D01*
X80705026Y-89299455D01*
X80657720Y-89287452D01*
X80538757Y-89224777D01*
X80419019Y-89121454D01*
X80317569Y-88997323D01*
X80253473Y-88872225D01*
X80250924Y-88864102D01*
X80219512Y-88745782D01*
X80214645Y-88674975D01*
X80239520Y-88639970D01*
X80297338Y-88629055D01*
X80315225Y-88628723D01*
X80423786Y-88623318D01*
X80530075Y-88611578D01*
X80599909Y-88605652D01*
X80643476Y-88623984D01*
X80680865Y-88680183D01*
X80705138Y-88730172D01*
X80787522Y-88852637D01*
X80886579Y-88915584D01*
X80994522Y-88918231D01*
X81103562Y-88859792D01*
X81179513Y-88777929D01*
X81227489Y-88671002D01*
X81249075Y-88531610D01*
X81244224Y-88384761D01*
X81212886Y-88255461D01*
X81180645Y-88195757D01*
X81076187Y-88100754D01*
X80954150Y-88064088D01*
X80823912Y-88086430D01*
X80702598Y-88161655D01*
X80648807Y-88202175D01*
X80596062Y-88219734D01*
X80521760Y-88217927D01*
X80431012Y-88204858D01*
X80327216Y-88185689D01*
X80273420Y-88166064D01*
X80256363Y-88138444D01*
X80259796Y-88107528D01*
X80271156Y-88050643D01*
X80290331Y-87947652D01*
X80315164Y-87810802D01*
X80343499Y-87652341D01*
X80373180Y-87484515D01*
X80402051Y-87319572D01*
X80427955Y-87169760D01*
X80448735Y-87047324D01*
X80462237Y-86964514D01*
X80466385Y-86934148D01*
X80496549Y-86926522D01*
X80580326Y-86919904D01*
X80707671Y-86914713D01*
X80868539Y-86911366D01*
X81039348Y-86910276D01*
X81612281Y-86910276D01*
X81612281Y-87355890D01*
X81612281Y-87355890D01*
G37*
X81612281Y-87355890D02*
X80825322Y-87355890D01*
X80794884Y-87544893D01*
X80779578Y-87648342D01*
X80777692Y-87701196D01*
X80791141Y-87715469D01*
X80820231Y-87704041D01*
X80906447Y-87680941D01*
X81028092Y-87675121D01*
X81159649Y-87685471D01*
X81275601Y-87710882D01*
X81312853Y-87725465D01*
X81435769Y-87808974D01*
X81553805Y-87932093D01*
X81646850Y-88072623D01*
X81667994Y-88117485D01*
X81698810Y-88236599D01*
X81713678Y-88392521D01*
X81712680Y-88560453D01*
X81695898Y-88715594D01*
X81665642Y-88827995D01*
X81552568Y-89025765D01*
X81401992Y-89177605D01*
X81220922Y-89278666D01*
X81016366Y-89324101D01*
X80945567Y-89326074D01*
X80821879Y-89317539D01*
X80705026Y-89299455D01*
X80657720Y-89287452D01*
X80538757Y-89224777D01*
X80419019Y-89121454D01*
X80317569Y-88997323D01*
X80253473Y-88872225D01*
X80250924Y-88864102D01*
X80219512Y-88745782D01*
X80214645Y-88674975D01*
X80239520Y-88639970D01*
X80297338Y-88629055D01*
X80315225Y-88628723D01*
X80423786Y-88623318D01*
X80530075Y-88611578D01*
X80599909Y-88605652D01*
X80643476Y-88623984D01*
X80680865Y-88680183D01*
X80705138Y-88730172D01*
X80787522Y-88852637D01*
X80886579Y-88915584D01*
X80994522Y-88918231D01*
X81103562Y-88859792D01*
X81179513Y-88777929D01*
X81227489Y-88671002D01*
X81249075Y-88531610D01*
X81244224Y-88384761D01*
X81212886Y-88255461D01*
X81180645Y-88195757D01*
X81076187Y-88100754D01*
X80954150Y-88064088D01*
X80823912Y-88086430D01*
X80702598Y-88161655D01*
X80648807Y-88202175D01*
X80596062Y-88219734D01*
X80521760Y-88217927D01*
X80431012Y-88204858D01*
X80327216Y-88185689D01*
X80273420Y-88166064D01*
X80256363Y-88138444D01*
X80259796Y-88107528D01*
X80271156Y-88050643D01*
X80290331Y-87947652D01*
X80315164Y-87810802D01*
X80343499Y-87652341D01*
X80373180Y-87484515D01*
X80402051Y-87319572D01*
X80427955Y-87169760D01*
X80448735Y-87047324D01*
X80462237Y-86964514D01*
X80466385Y-86934148D01*
X80496549Y-86926522D01*
X80580326Y-86919904D01*
X80707671Y-86914713D01*
X80868539Y-86911366D01*
X81039348Y-86910276D01*
X81612281Y-86910276D01*
X81612281Y-87355890D01*
G36*
X91447619Y-90841228D02*
X91443764Y-90912556D01*
X91419966Y-90944254D01*
X91357869Y-90952383D01*
X91320301Y-90952632D01*
X91192982Y-90952632D01*
X91192982Y-91875689D01*
X91002005Y-91875689D01*
X91002005Y-90952632D01*
X90890601Y-90952632D01*
X90815935Y-90947704D01*
X90785314Y-90919905D01*
X90779212Y-90849708D01*
X90779198Y-90841228D01*
X90779198Y-90729825D01*
X91447619Y-90729825D01*
X91447619Y-90841228D01*
X91447619Y-90841228D01*
G37*
X91447619Y-90841228D02*
X91443764Y-90912556D01*
X91419966Y-90944254D01*
X91357869Y-90952383D01*
X91320301Y-90952632D01*
X91192982Y-90952632D01*
X91192982Y-91875689D01*
X91002005Y-91875689D01*
X91002005Y-90952632D01*
X90890601Y-90952632D01*
X90815935Y-90947704D01*
X90785314Y-90919905D01*
X90779212Y-90849708D01*
X90779198Y-90841228D01*
X90779198Y-90729825D01*
X91447619Y-90729825D01*
X91447619Y-90841228D01*
G36*
X90715539Y-90952632D02*
X90397243Y-90952632D01*
X90397243Y-91207268D01*
X90540476Y-91207268D01*
X90628552Y-91210036D01*
X90670268Y-91226019D01*
X90682899Y-91266733D01*
X90683709Y-91302757D01*
X90679557Y-91361475D01*
X90655583Y-91389285D01*
X90594512Y-91397706D01*
X90540476Y-91398246D01*
X90397243Y-91398246D01*
X90397243Y-91652882D01*
X90747368Y-91652882D01*
X90747368Y-91875689D01*
X90206266Y-91875689D01*
X90206266Y-90729825D01*
X90715539Y-90729825D01*
X90715539Y-90952632D01*
X90715539Y-90952632D01*
G37*
X90715539Y-90952632D02*
X90397243Y-90952632D01*
X90397243Y-91207268D01*
X90540476Y-91207268D01*
X90628552Y-91210036D01*
X90670268Y-91226019D01*
X90682899Y-91266733D01*
X90683709Y-91302757D01*
X90679557Y-91361475D01*
X90655583Y-91389285D01*
X90594512Y-91397706D01*
X90540476Y-91398246D01*
X90397243Y-91398246D01*
X90397243Y-91652882D01*
X90747368Y-91652882D01*
X90747368Y-91875689D01*
X90206266Y-91875689D01*
X90206266Y-90729825D01*
X90715539Y-90729825D01*
X90715539Y-90952632D01*
G36*
X89410526Y-90952632D02*
X89092230Y-90952632D01*
X89092230Y-91207268D01*
X89235464Y-91207268D01*
X89323540Y-91210036D01*
X89365256Y-91226019D01*
X89377887Y-91266733D01*
X89378697Y-91302757D01*
X89374545Y-91361475D01*
X89350571Y-91389285D01*
X89289500Y-91397706D01*
X89235464Y-91398246D01*
X89092230Y-91398246D01*
X89092230Y-91652882D01*
X89442356Y-91652882D01*
X89442356Y-91875689D01*
X88901253Y-91875689D01*
X88901253Y-90729825D01*
X89410526Y-90729825D01*
X89410526Y-90952632D01*
X89410526Y-90952632D01*
G37*
X89410526Y-90952632D02*
X89092230Y-90952632D01*
X89092230Y-91207268D01*
X89235464Y-91207268D01*
X89323540Y-91210036D01*
X89365256Y-91226019D01*
X89377887Y-91266733D01*
X89378697Y-91302757D01*
X89374545Y-91361475D01*
X89350571Y-91389285D01*
X89289500Y-91397706D01*
X89235464Y-91398246D01*
X89092230Y-91398246D01*
X89092230Y-91652882D01*
X89442356Y-91652882D01*
X89442356Y-91875689D01*
X88901253Y-91875689D01*
X88901253Y-90729825D01*
X89410526Y-90729825D01*
X89410526Y-90952632D01*
G36*
X88484796Y-90732545D02*
X88564324Y-90744253D01*
X88620063Y-90770264D01*
X88667728Y-90811702D01*
X88714850Y-90866609D01*
X88736677Y-90923584D01*
X88739331Y-91006439D01*
X88734774Y-91072439D01*
X88715906Y-91197797D01*
X88681555Y-91274933D01*
X88656242Y-91300566D01*
X88623941Y-91328914D01*
X88613205Y-91359019D01*
X88626602Y-91406449D01*
X88666703Y-91486770D01*
X88695957Y-91541145D01*
X88752338Y-91650101D01*
X88797675Y-91746123D01*
X88820627Y-91804073D01*
X88827889Y-91852794D01*
X88799547Y-91872363D01*
X88736293Y-91875603D01*
X88679893Y-91871123D01*
X88637129Y-91849771D01*
X88595757Y-91799513D01*
X88543532Y-91708317D01*
X88519298Y-91662348D01*
X88446005Y-91530294D01*
X88393177Y-91457296D01*
X88357969Y-91443174D01*
X88337534Y-91487747D01*
X88329024Y-91590834D01*
X88328321Y-91650230D01*
X88328321Y-91875689D01*
X88137343Y-91875689D01*
X88137343Y-91079950D01*
X88328321Y-91079950D01*
X88331795Y-91175638D01*
X88346232Y-91223345D01*
X88377648Y-91238554D01*
X88390175Y-91239098D01*
X88453881Y-91214714D01*
X88501578Y-91168356D01*
X88538887Y-91101897D01*
X88551128Y-91059227D01*
X88524423Y-90997052D01*
X88461750Y-90943434D01*
X88389706Y-90920802D01*
X88352772Y-90929898D01*
X88334361Y-90967479D01*
X88328516Y-91048983D01*
X88328321Y-91079950D01*
X88137343Y-91079950D01*
X88137343Y-90729825D01*
X88361597Y-90729825D01*
X88484796Y-90732545D01*
X88484796Y-90732545D01*
G37*
X88484796Y-90732545D02*
X88564324Y-90744253D01*
X88620063Y-90770264D01*
X88667728Y-90811702D01*
X88714850Y-90866609D01*
X88736677Y-90923584D01*
X88739331Y-91006439D01*
X88734774Y-91072439D01*
X88715906Y-91197797D01*
X88681555Y-91274933D01*
X88656242Y-91300566D01*
X88623941Y-91328914D01*
X88613205Y-91359019D01*
X88626602Y-91406449D01*
X88666703Y-91486770D01*
X88695957Y-91541145D01*
X88752338Y-91650101D01*
X88797675Y-91746123D01*
X88820627Y-91804073D01*
X88827889Y-91852794D01*
X88799547Y-91872363D01*
X88736293Y-91875603D01*
X88679893Y-91871123D01*
X88637129Y-91849771D01*
X88595757Y-91799513D01*
X88543532Y-91708317D01*
X88519298Y-91662348D01*
X88446005Y-91530294D01*
X88393177Y-91457296D01*
X88357969Y-91443174D01*
X88337534Y-91487747D01*
X88329024Y-91590834D01*
X88328321Y-91650230D01*
X88328321Y-91875689D01*
X88137343Y-91875689D01*
X88137343Y-91079950D01*
X88328321Y-91079950D01*
X88331795Y-91175638D01*
X88346232Y-91223345D01*
X88377648Y-91238554D01*
X88390175Y-91239098D01*
X88453881Y-91214714D01*
X88501578Y-91168356D01*
X88538887Y-91101897D01*
X88551128Y-91059227D01*
X88524423Y-90997052D01*
X88461750Y-90943434D01*
X88389706Y-90920802D01*
X88352772Y-90929898D01*
X88334361Y-90967479D01*
X88328516Y-91048983D01*
X88328321Y-91079950D01*
X88137343Y-91079950D01*
X88137343Y-90729825D01*
X88361597Y-90729825D01*
X88484796Y-90732545D01*
G36*
X89923839Y-90714592D02*
X90003331Y-90732376D01*
X90038268Y-90763749D01*
X90046918Y-90830418D01*
X90047118Y-90861061D01*
X90044039Y-90939862D01*
X90029119Y-90967924D01*
X89993834Y-90958082D01*
X89985551Y-90953752D01*
X89888369Y-90924089D01*
X89793532Y-90929885D01*
X89730511Y-90966512D01*
X89711666Y-91032704D01*
X89751185Y-91109176D01*
X89845786Y-91190332D01*
X89871676Y-91207034D01*
X89989639Y-91297925D01*
X90054985Y-91400068D01*
X90078368Y-91531744D01*
X90078947Y-91562701D01*
X90055840Y-91711576D01*
X89986885Y-91816553D01*
X89872630Y-91876972D01*
X89808396Y-91889240D01*
X89704159Y-91893082D01*
X89612916Y-91883490D01*
X89601504Y-91880583D01*
X89548611Y-91853970D01*
X89522254Y-91801551D01*
X89512142Y-91723231D01*
X89511075Y-91631231D01*
X89530361Y-91595725D01*
X89576965Y-91610969D01*
X89615545Y-91637980D01*
X89701776Y-91677629D01*
X89785660Y-91677015D01*
X89850745Y-91642682D01*
X89880578Y-91581174D01*
X89874983Y-91534790D01*
X89838081Y-91484599D01*
X89765820Y-91424018D01*
X89726492Y-91397987D01*
X89637179Y-91331258D01*
X89567249Y-91257664D01*
X89551131Y-91232721D01*
X89515543Y-91119361D01*
X89508287Y-90989245D01*
X89530274Y-90874697D01*
X89540406Y-90852356D01*
X89610442Y-90780700D01*
X89720370Y-90730430D01*
X89847840Y-90709577D01*
X89923839Y-90714592D01*
X89923839Y-90714592D01*
G37*
X89923839Y-90714592D02*
X90003331Y-90732376D01*
X90038268Y-90763749D01*
X90046918Y-90830418D01*
X90047118Y-90861061D01*
X90044039Y-90939862D01*
X90029119Y-90967924D01*
X89993834Y-90958082D01*
X89985551Y-90953752D01*
X89888369Y-90924089D01*
X89793532Y-90929885D01*
X89730511Y-90966512D01*
X89711666Y-91032704D01*
X89751185Y-91109176D01*
X89845786Y-91190332D01*
X89871676Y-91207034D01*
X89989639Y-91297925D01*
X90054985Y-91400068D01*
X90078368Y-91531744D01*
X90078947Y-91562701D01*
X90055840Y-91711576D01*
X89986885Y-91816553D01*
X89872630Y-91876972D01*
X89808396Y-91889240D01*
X89704159Y-91893082D01*
X89612916Y-91883490D01*
X89601504Y-91880583D01*
X89548611Y-91853970D01*
X89522254Y-91801551D01*
X89512142Y-91723231D01*
X89511075Y-91631231D01*
X89530361Y-91595725D01*
X89576965Y-91610969D01*
X89615545Y-91637980D01*
X89701776Y-91677629D01*
X89785660Y-91677015D01*
X89850745Y-91642682D01*
X89880578Y-91581174D01*
X89874983Y-91534790D01*
X89838081Y-91484599D01*
X89765820Y-91424018D01*
X89726492Y-91397987D01*
X89637179Y-91331258D01*
X89567249Y-91257664D01*
X89551131Y-91232721D01*
X89515543Y-91119361D01*
X89508287Y-90989245D01*
X89530274Y-90874697D01*
X89540406Y-90852356D01*
X89610442Y-90780700D01*
X89720370Y-90730430D01*
X89847840Y-90709577D01*
X89923839Y-90714592D01*
G36*
X91543108Y-96045364D02*
X91702256Y-96045364D01*
X91796467Y-96047450D01*
X91843447Y-96060277D01*
X91859616Y-96093698D01*
X91861403Y-96140852D01*
X91861403Y-96236341D01*
X91352130Y-96236341D01*
X91352130Y-95090476D01*
X91543108Y-95090476D01*
X91543108Y-96045364D01*
X91543108Y-96045364D01*
G37*
X91543108Y-96045364D02*
X91702256Y-96045364D01*
X91796467Y-96047450D01*
X91843447Y-96060277D01*
X91859616Y-96093698D01*
X91861403Y-96140852D01*
X91861403Y-96236341D01*
X91352130Y-96236341D01*
X91352130Y-95090476D01*
X91543108Y-95090476D01*
X91543108Y-96045364D01*
G36*
X91256641Y-95201880D02*
X91251714Y-95276546D01*
X91223915Y-95307167D01*
X91153717Y-95313270D01*
X91145238Y-95313283D01*
X91033834Y-95313283D01*
X91033834Y-96236341D01*
X90811027Y-96236341D01*
X90811027Y-95313283D01*
X90699624Y-95313283D01*
X90624958Y-95308356D01*
X90594337Y-95280557D01*
X90588234Y-95210359D01*
X90588220Y-95201880D01*
X90588220Y-95090476D01*
X91256641Y-95090476D01*
X91256641Y-95201880D01*
X91256641Y-95201880D01*
G37*
X91256641Y-95201880D02*
X91251714Y-95276546D01*
X91223915Y-95307167D01*
X91153717Y-95313270D01*
X91145238Y-95313283D01*
X91033834Y-95313283D01*
X91033834Y-96236341D01*
X90811027Y-96236341D01*
X90811027Y-95313283D01*
X90699624Y-95313283D01*
X90624958Y-95308356D01*
X90594337Y-95280557D01*
X90588234Y-95210359D01*
X90588220Y-95201880D01*
X90588220Y-95090476D01*
X91256641Y-95090476D01*
X91256641Y-95201880D01*
G36*
X88362231Y-95096870D02*
X88470101Y-95113113D01*
X88510161Y-95123890D01*
X88608015Y-95187974D01*
X88663485Y-95288860D01*
X88672670Y-95412641D01*
X88631670Y-95545409D01*
X88629547Y-95549534D01*
X88604113Y-95617583D01*
X88606948Y-95659139D01*
X88609063Y-95660938D01*
X88669858Y-95735126D01*
X88702100Y-95846089D01*
X88703172Y-95972463D01*
X88670455Y-96092884D01*
X88663708Y-96106746D01*
X88625162Y-96168079D01*
X88576732Y-96206497D01*
X88503623Y-96227183D01*
X88391043Y-96235322D01*
X88293888Y-96236341D01*
X88073684Y-96236341D01*
X88073684Y-95902130D01*
X88264662Y-95902130D01*
X88267461Y-95990217D01*
X88283445Y-96031939D01*
X88323989Y-96044565D01*
X88359030Y-96045364D01*
X88449290Y-96022942D01*
X88486349Y-95983797D01*
X88513167Y-95920370D01*
X88519298Y-95890582D01*
X88491979Y-95832054D01*
X88426530Y-95782073D01*
X88347716Y-95759027D01*
X88341962Y-95758897D01*
X88294215Y-95765185D01*
X88271593Y-95795379D01*
X88264924Y-95866473D01*
X88264662Y-95902130D01*
X88073684Y-95902130D01*
X88073684Y-95440602D01*
X88264662Y-95440602D01*
X88270168Y-95524172D01*
X88291998Y-95561036D01*
X88326516Y-95567920D01*
X88390787Y-95543544D01*
X88436406Y-95499340D01*
X88464271Y-95418109D01*
X88438591Y-95350784D01*
X88368287Y-95315159D01*
X88343116Y-95313283D01*
X88292539Y-95320415D01*
X88270062Y-95353712D01*
X88264683Y-95431027D01*
X88264662Y-95440602D01*
X88073684Y-95440602D01*
X88073684Y-95090476D01*
X88243997Y-95090476D01*
X88362231Y-95096870D01*
X88362231Y-95096870D01*
G37*
X88362231Y-95096870D02*
X88470101Y-95113113D01*
X88510161Y-95123890D01*
X88608015Y-95187974D01*
X88663485Y-95288860D01*
X88672670Y-95412641D01*
X88631670Y-95545409D01*
X88629547Y-95549534D01*
X88604113Y-95617583D01*
X88606948Y-95659139D01*
X88609063Y-95660938D01*
X88669858Y-95735126D01*
X88702100Y-95846089D01*
X88703172Y-95972463D01*
X88670455Y-96092884D01*
X88663708Y-96106746D01*
X88625162Y-96168079D01*
X88576732Y-96206497D01*
X88503623Y-96227183D01*
X88391043Y-96235322D01*
X88293888Y-96236341D01*
X88073684Y-96236341D01*
X88073684Y-95902130D01*
X88264662Y-95902130D01*
X88267461Y-95990217D01*
X88283445Y-96031939D01*
X88323989Y-96044565D01*
X88359030Y-96045364D01*
X88449290Y-96022942D01*
X88486349Y-95983797D01*
X88513167Y-95920370D01*
X88519298Y-95890582D01*
X88491979Y-95832054D01*
X88426530Y-95782073D01*
X88347716Y-95759027D01*
X88341962Y-95758897D01*
X88294215Y-95765185D01*
X88271593Y-95795379D01*
X88264924Y-95866473D01*
X88264662Y-95902130D01*
X88073684Y-95902130D01*
X88073684Y-95440602D01*
X88264662Y-95440602D01*
X88270168Y-95524172D01*
X88291998Y-95561036D01*
X88326516Y-95567920D01*
X88390787Y-95543544D01*
X88436406Y-95499340D01*
X88464271Y-95418109D01*
X88438591Y-95350784D01*
X88368287Y-95315159D01*
X88343116Y-95313283D01*
X88292539Y-95320415D01*
X88270062Y-95353712D01*
X88264683Y-95431027D01*
X88264662Y-95440602D01*
X88073684Y-95440602D01*
X88073684Y-95090476D01*
X88243997Y-95090476D01*
X88362231Y-95096870D01*
G36*
X90273453Y-95116075D02*
X90362883Y-95172806D01*
X90456359Y-95289681D01*
X90517977Y-95446439D01*
X90545640Y-95626690D01*
X90537253Y-95814043D01*
X90490719Y-95992107D01*
X90472909Y-96033189D01*
X90386840Y-96152585D01*
X90269811Y-96231805D01*
X90137138Y-96266381D01*
X90004137Y-96251846D01*
X89904178Y-96199056D01*
X89798549Y-96078048D01*
X89730041Y-95920478D01*
X89699149Y-95741848D01*
X89703947Y-95619413D01*
X89902817Y-95619413D01*
X89905134Y-95739652D01*
X89931642Y-95852038D01*
X89977927Y-95946966D01*
X90039574Y-96014830D01*
X90112171Y-96046026D01*
X90191304Y-96030950D01*
X90257034Y-95978363D01*
X90290874Y-95926045D01*
X90309746Y-95851508D01*
X90317141Y-95737529D01*
X90317669Y-95679323D01*
X90313769Y-95545515D01*
X90299741Y-95457795D01*
X90272092Y-95398942D01*
X90257034Y-95380284D01*
X90170328Y-95322575D01*
X90078202Y-95325219D01*
X89993448Y-95387574D01*
X89988408Y-95393794D01*
X89929104Y-95500926D01*
X89902817Y-95619413D01*
X89703947Y-95619413D01*
X89706367Y-95557663D01*
X89752190Y-95383428D01*
X89837112Y-95234646D01*
X89872153Y-95195416D01*
X89996476Y-95111284D01*
X90134873Y-95084624D01*
X90273453Y-95116075D01*
X90273453Y-95116075D01*
G37*
X90273453Y-95116075D02*
X90362883Y-95172806D01*
X90456359Y-95289681D01*
X90517977Y-95446439D01*
X90545640Y-95626690D01*
X90537253Y-95814043D01*
X90490719Y-95992107D01*
X90472909Y-96033189D01*
X90386840Y-96152585D01*
X90269811Y-96231805D01*
X90137138Y-96266381D01*
X90004137Y-96251846D01*
X89904178Y-96199056D01*
X89798549Y-96078048D01*
X89730041Y-95920478D01*
X89699149Y-95741848D01*
X89703947Y-95619413D01*
X89902817Y-95619413D01*
X89905134Y-95739652D01*
X89931642Y-95852038D01*
X89977927Y-95946966D01*
X90039574Y-96014830D01*
X90112171Y-96046026D01*
X90191304Y-96030950D01*
X90257034Y-95978363D01*
X90290874Y-95926045D01*
X90309746Y-95851508D01*
X90317141Y-95737529D01*
X90317669Y-95679323D01*
X90313769Y-95545515D01*
X90299741Y-95457795D01*
X90272092Y-95398942D01*
X90257034Y-95380284D01*
X90170328Y-95322575D01*
X90078202Y-95325219D01*
X89993448Y-95387574D01*
X89988408Y-95393794D01*
X89929104Y-95500926D01*
X89902817Y-95619413D01*
X89703947Y-95619413D01*
X89706367Y-95557663D01*
X89752190Y-95383428D01*
X89837112Y-95234646D01*
X89872153Y-95195416D01*
X89996476Y-95111284D01*
X90134873Y-95084624D01*
X90273453Y-95116075D01*
G36*
X89308994Y-95098504D02*
X89385594Y-95131897D01*
X89458173Y-95195416D01*
X89552730Y-95330111D01*
X89609712Y-95496604D01*
X89629424Y-95678845D01*
X89612169Y-95860782D01*
X89558251Y-96026365D01*
X89467976Y-96159544D01*
X89439390Y-96186208D01*
X89309182Y-96258335D01*
X89169297Y-96272030D01*
X89033742Y-96227950D01*
X88949095Y-96163231D01*
X88848006Y-96019942D01*
X88789353Y-95845665D01*
X88775064Y-95679323D01*
X88996742Y-95679323D01*
X89013114Y-95842215D01*
X89060056Y-95960994D01*
X89134306Y-96029887D01*
X89203634Y-96045364D01*
X89278798Y-96019826D01*
X89344557Y-95961497D01*
X89385323Y-95890644D01*
X89405614Y-95797689D01*
X89410526Y-95679323D01*
X89394154Y-95516432D01*
X89347212Y-95397653D01*
X89272962Y-95328760D01*
X89203634Y-95313283D01*
X89111565Y-95342250D01*
X89044429Y-95425301D01*
X89005489Y-95556666D01*
X88996742Y-95679323D01*
X88775064Y-95679323D01*
X88773134Y-95656863D01*
X88799351Y-95470001D01*
X88868003Y-95301543D01*
X88949095Y-95195416D01*
X89028816Y-95127140D01*
X89106728Y-95096832D01*
X89203634Y-95090476D01*
X89308994Y-95098504D01*
X89308994Y-95098504D01*
G37*
X89308994Y-95098504D02*
X89385594Y-95131897D01*
X89458173Y-95195416D01*
X89552730Y-95330111D01*
X89609712Y-95496604D01*
X89629424Y-95678845D01*
X89612169Y-95860782D01*
X89558251Y-96026365D01*
X89467976Y-96159544D01*
X89439390Y-96186208D01*
X89309182Y-96258335D01*
X89169297Y-96272030D01*
X89033742Y-96227950D01*
X88949095Y-96163231D01*
X88848006Y-96019942D01*
X88789353Y-95845665D01*
X88775064Y-95679323D01*
X88996742Y-95679323D01*
X89013114Y-95842215D01*
X89060056Y-95960994D01*
X89134306Y-96029887D01*
X89203634Y-96045364D01*
X89278798Y-96019826D01*
X89344557Y-95961497D01*
X89385323Y-95890644D01*
X89405614Y-95797689D01*
X89410526Y-95679323D01*
X89394154Y-95516432D01*
X89347212Y-95397653D01*
X89272962Y-95328760D01*
X89203634Y-95313283D01*
X89111565Y-95342250D01*
X89044429Y-95425301D01*
X89005489Y-95556666D01*
X88996742Y-95679323D01*
X88775064Y-95679323D01*
X88773134Y-95656863D01*
X88799351Y-95470001D01*
X88868003Y-95301543D01*
X88949095Y-95195416D01*
X89028816Y-95127140D01*
X89106728Y-95096832D01*
X89203634Y-95090476D01*
X89308994Y-95098504D01*
G36*
X88419873Y-97633064D02*
X88423697Y-97702138D01*
X88423809Y-97717886D01*
X88420083Y-97779795D01*
X88400157Y-97822511D01*
X88350911Y-97859489D01*
X88259226Y-97904181D01*
X88228813Y-97917833D01*
X88033816Y-98004906D01*
X88228813Y-98089043D01*
X88333021Y-98136090D01*
X88391425Y-98172681D01*
X88417241Y-98212228D01*
X88423679Y-98268142D01*
X88423809Y-98286966D01*
X88417942Y-98361087D01*
X88403474Y-98398155D01*
X88399937Y-98399177D01*
X88362502Y-98384658D01*
X88283530Y-98347346D01*
X88177719Y-98294281D01*
X88137343Y-98273434D01*
X88022814Y-98216180D01*
X87926920Y-98172471D01*
X87865743Y-98149494D01*
X87856034Y-98147691D01*
X87808964Y-98159177D01*
X87720212Y-98191171D01*
X87605969Y-98237664D01*
X87560068Y-98257519D01*
X87444641Y-98307591D01*
X87353164Y-98345998D01*
X87299841Y-98366832D01*
X87292318Y-98368922D01*
X87282867Y-98340872D01*
X87278087Y-98271789D01*
X87277945Y-98255895D01*
X87285040Y-98179350D01*
X87318030Y-98134126D01*
X87394473Y-98096628D01*
X87397306Y-98095501D01*
X87520402Y-98046401D01*
X87588140Y-98013629D01*
X87603600Y-97988263D01*
X87569862Y-97961379D01*
X87490004Y-97924056D01*
X87460965Y-97911045D01*
X87360725Y-97863317D01*
X87305847Y-97825365D01*
X87282775Y-97782861D01*
X87277950Y-97721478D01*
X87277945Y-97717621D01*
X87277945Y-97606620D01*
X87524624Y-97720182D01*
X87641832Y-97773941D01*
X87738797Y-97818047D01*
X87799452Y-97845205D01*
X87808891Y-97849259D01*
X87852365Y-97843172D01*
X87938309Y-97814090D01*
X88052164Y-97767300D01*
X88123635Y-97734893D01*
X88243609Y-97679196D01*
X88339978Y-97635445D01*
X88399634Y-97609539D01*
X88412301Y-97605013D01*
X88419873Y-97633064D01*
X88419873Y-97633064D01*
G37*
X88419873Y-97633064D02*
X88423697Y-97702138D01*
X88423809Y-97717886D01*
X88420083Y-97779795D01*
X88400157Y-97822511D01*
X88350911Y-97859489D01*
X88259226Y-97904181D01*
X88228813Y-97917833D01*
X88033816Y-98004906D01*
X88228813Y-98089043D01*
X88333021Y-98136090D01*
X88391425Y-98172681D01*
X88417241Y-98212228D01*
X88423679Y-98268142D01*
X88423809Y-98286966D01*
X88417942Y-98361087D01*
X88403474Y-98398155D01*
X88399937Y-98399177D01*
X88362502Y-98384658D01*
X88283530Y-98347346D01*
X88177719Y-98294281D01*
X88137343Y-98273434D01*
X88022814Y-98216180D01*
X87926920Y-98172471D01*
X87865743Y-98149494D01*
X87856034Y-98147691D01*
X87808964Y-98159177D01*
X87720212Y-98191171D01*
X87605969Y-98237664D01*
X87560068Y-98257519D01*
X87444641Y-98307591D01*
X87353164Y-98345998D01*
X87299841Y-98366832D01*
X87292318Y-98368922D01*
X87282867Y-98340872D01*
X87278087Y-98271789D01*
X87277945Y-98255895D01*
X87285040Y-98179350D01*
X87318030Y-98134126D01*
X87394473Y-98096628D01*
X87397306Y-98095501D01*
X87520402Y-98046401D01*
X87588140Y-98013629D01*
X87603600Y-97988263D01*
X87569862Y-97961379D01*
X87490004Y-97924056D01*
X87460965Y-97911045D01*
X87360725Y-97863317D01*
X87305847Y-97825365D01*
X87282775Y-97782861D01*
X87277950Y-97721478D01*
X87277945Y-97717621D01*
X87277945Y-97606620D01*
X87524624Y-97720182D01*
X87641832Y-97773941D01*
X87738797Y-97818047D01*
X87799452Y-97845205D01*
X87808891Y-97849259D01*
X87852365Y-97843172D01*
X87938309Y-97814090D01*
X88052164Y-97767300D01*
X88123635Y-97734893D01*
X88243609Y-97679196D01*
X88339978Y-97635445D01*
X88399634Y-97609539D01*
X88412301Y-97605013D01*
X88419873Y-97633064D01*
G36*
X87437589Y-98406962D02*
X87463902Y-98438462D01*
X87468922Y-98512156D01*
X87468922Y-98623559D01*
X88423809Y-98623559D01*
X88423809Y-98814536D01*
X87468922Y-98814536D01*
X87468922Y-98941855D01*
X87465151Y-99023492D01*
X87444717Y-99059784D01*
X87393938Y-99068972D01*
X87373433Y-99069173D01*
X87277945Y-99069173D01*
X87277945Y-98400752D01*
X87373433Y-98400752D01*
X87437589Y-98406962D01*
X87437589Y-98406962D01*
G37*
X87437589Y-98406962D02*
X87463902Y-98438462D01*
X87468922Y-98512156D01*
X87468922Y-98623559D01*
X88423809Y-98623559D01*
X88423809Y-98814536D01*
X87468922Y-98814536D01*
X87468922Y-98941855D01*
X87465151Y-99023492D01*
X87444717Y-99059784D01*
X87393938Y-99068972D01*
X87373433Y-99069173D01*
X87277945Y-99069173D01*
X87277945Y-98400752D01*
X87373433Y-98400752D01*
X87437589Y-98406962D01*
G36*
X83171930Y-97859222D02*
X83165793Y-97939119D01*
X83150457Y-97983652D01*
X83144182Y-97986968D01*
X83102055Y-97999078D01*
X83021656Y-98030420D01*
X82945247Y-98063261D01*
X82774060Y-98139554D01*
X83171930Y-98313584D01*
X83171930Y-98710173D01*
X82958219Y-98818056D01*
X82825659Y-98889391D01*
X82752626Y-98941167D01*
X82738961Y-98975954D01*
X82784501Y-98996324D01*
X82889086Y-99004846D01*
X82946470Y-99005514D01*
X83171930Y-99005514D01*
X83171930Y-99196491D01*
X82026065Y-99196491D01*
X82026065Y-98977211D01*
X82026366Y-98971586D01*
X82220917Y-98971586D01*
X82241916Y-98997072D01*
X82301772Y-99004962D01*
X82358161Y-99005514D01*
X82447390Y-99002302D01*
X82489983Y-98986533D01*
X82502875Y-98949006D01*
X82503509Y-98926546D01*
X82482942Y-98857800D01*
X82426452Y-98828239D01*
X82315773Y-98816478D01*
X82248707Y-98849216D01*
X82222886Y-98918255D01*
X82220917Y-98971586D01*
X82026366Y-98971586D01*
X82034680Y-98816364D01*
X82065482Y-98708242D01*
X82125908Y-98643644D01*
X82223396Y-98613365D01*
X82324750Y-98607644D01*
X82441964Y-98613985D01*
X82518781Y-98637214D01*
X82571254Y-98677158D01*
X82640768Y-98746672D01*
X83090722Y-98520078D01*
X82838794Y-98393319D01*
X82586865Y-98266559D01*
X82362167Y-98368589D01*
X82217017Y-98433960D01*
X82120476Y-98473649D01*
X82063116Y-98488135D01*
X82035512Y-98477899D01*
X82028237Y-98443420D01*
X82031846Y-98385402D01*
X82041399Y-98318013D01*
X82065718Y-98274347D01*
X82119700Y-98239964D01*
X82218241Y-98200428D01*
X82225469Y-98197735D01*
X82408958Y-98129472D01*
X82217512Y-98053429D01*
X82113927Y-98010054D01*
X82056552Y-97975427D01*
X82031808Y-97936441D01*
X82026115Y-97879987D01*
X82026065Y-97868629D01*
X82029335Y-97813671D01*
X82045267Y-97783380D01*
X82083040Y-97778789D01*
X82151835Y-97800930D01*
X82260833Y-97850836D01*
X82376343Y-97908037D01*
X82583387Y-98011736D01*
X82774212Y-97915030D01*
X82891140Y-97857149D01*
X83001407Y-97804843D01*
X83068484Y-97774900D01*
X83171930Y-97731477D01*
X83171930Y-97859222D01*
X83171930Y-97859222D01*
G37*
X83171930Y-97859222D02*
X83165793Y-97939119D01*
X83150457Y-97983652D01*
X83144182Y-97986968D01*
X83102055Y-97999078D01*
X83021656Y-98030420D01*
X82945247Y-98063261D01*
X82774060Y-98139554D01*
X83171930Y-98313584D01*
X83171930Y-98710173D01*
X82958219Y-98818056D01*
X82825659Y-98889391D01*
X82752626Y-98941167D01*
X82738961Y-98975954D01*
X82784501Y-98996324D01*
X82889086Y-99004846D01*
X82946470Y-99005514D01*
X83171930Y-99005514D01*
X83171930Y-99196491D01*
X82026065Y-99196491D01*
X82026065Y-98977211D01*
X82026366Y-98971586D01*
X82220917Y-98971586D01*
X82241916Y-98997072D01*
X82301772Y-99004962D01*
X82358161Y-99005514D01*
X82447390Y-99002302D01*
X82489983Y-98986533D01*
X82502875Y-98949006D01*
X82503509Y-98926546D01*
X82482942Y-98857800D01*
X82426452Y-98828239D01*
X82315773Y-98816478D01*
X82248707Y-98849216D01*
X82222886Y-98918255D01*
X82220917Y-98971586D01*
X82026366Y-98971586D01*
X82034680Y-98816364D01*
X82065482Y-98708242D01*
X82125908Y-98643644D01*
X82223396Y-98613365D01*
X82324750Y-98607644D01*
X82441964Y-98613985D01*
X82518781Y-98637214D01*
X82571254Y-98677158D01*
X82640768Y-98746672D01*
X83090722Y-98520078D01*
X82838794Y-98393319D01*
X82586865Y-98266559D01*
X82362167Y-98368589D01*
X82217017Y-98433960D01*
X82120476Y-98473649D01*
X82063116Y-98488135D01*
X82035512Y-98477899D01*
X82028237Y-98443420D01*
X82031846Y-98385402D01*
X82041399Y-98318013D01*
X82065718Y-98274347D01*
X82119700Y-98239964D01*
X82218241Y-98200428D01*
X82225469Y-98197735D01*
X82408958Y-98129472D01*
X82217512Y-98053429D01*
X82113927Y-98010054D01*
X82056552Y-97975427D01*
X82031808Y-97936441D01*
X82026115Y-97879987D01*
X82026065Y-97868629D01*
X82029335Y-97813671D01*
X82045267Y-97783380D01*
X82083040Y-97778789D01*
X82151835Y-97800930D01*
X82260833Y-97850836D01*
X82376343Y-97908037D01*
X82583387Y-98011736D01*
X82774212Y-97915030D01*
X82891140Y-97857149D01*
X83001407Y-97804843D01*
X83068484Y-97774900D01*
X83171930Y-97731477D01*
X83171930Y-97859222D01*
G04 #@! TD*
M02*
