G04 #@! TF.GenerationSoftware,KiCad,Pcbnew,(5.0.0)*
G04 #@! TF.CreationDate,2020-05-05T15:14:54+01:00*
G04 #@! TF.ProjectId,CH552-USB-Devboard,43483535322D5553422D446576626F61,rev?*
G04 #@! TF.SameCoordinates,Original*
G04 #@! TF.FileFunction,Soldermask,Bot*
G04 #@! TF.FilePolarity,Negative*
%FSLAX46Y46*%
G04 Gerber Fmt 4.6, Leading zero omitted, Abs format (unit mm)*
G04 Created by KiCad (PCBNEW (5.0.0)) date 05/05/20 15:14:54*
%MOMM*%
%LPD*%
G01*
G04 APERTURE LIST*
%ADD10O,1.300000X2.000000*%
%ADD11C,0.100000*%
%ADD12C,1.350000*%
%ADD13R,2.400000X4.900000*%
%ADD14O,2.100000X2.100000*%
%ADD15R,2.100000X2.100000*%
G04 APERTURE END LIST*
D10*
G04 #@! TO.C,J3*
X82100000Y-67800000D03*
X88700000Y-67800000D03*
G04 #@! TD*
D11*
G04 #@! TO.C,C5*
G36*
X89170581Y-89726625D02*
X89203343Y-89731485D01*
X89235471Y-89739533D01*
X89266656Y-89750691D01*
X89296596Y-89764852D01*
X89325005Y-89781879D01*
X89351608Y-89801609D01*
X89376149Y-89823851D01*
X89398391Y-89848392D01*
X89418121Y-89874995D01*
X89435148Y-89903404D01*
X89449309Y-89933344D01*
X89460467Y-89964529D01*
X89468515Y-89996657D01*
X89473375Y-90029419D01*
X89475000Y-90062500D01*
X89475000Y-90837500D01*
X89473375Y-90870581D01*
X89468515Y-90903343D01*
X89460467Y-90935471D01*
X89449309Y-90966656D01*
X89435148Y-90996596D01*
X89418121Y-91025005D01*
X89398391Y-91051608D01*
X89376149Y-91076149D01*
X89351608Y-91098391D01*
X89325005Y-91118121D01*
X89296596Y-91135148D01*
X89266656Y-91149309D01*
X89235471Y-91160467D01*
X89203343Y-91168515D01*
X89170581Y-91173375D01*
X89137500Y-91175000D01*
X88462500Y-91175000D01*
X88429419Y-91173375D01*
X88396657Y-91168515D01*
X88364529Y-91160467D01*
X88333344Y-91149309D01*
X88303404Y-91135148D01*
X88274995Y-91118121D01*
X88248392Y-91098391D01*
X88223851Y-91076149D01*
X88201609Y-91051608D01*
X88181879Y-91025005D01*
X88164852Y-90996596D01*
X88150691Y-90966656D01*
X88139533Y-90935471D01*
X88131485Y-90903343D01*
X88126625Y-90870581D01*
X88125000Y-90837500D01*
X88125000Y-90062500D01*
X88126625Y-90029419D01*
X88131485Y-89996657D01*
X88139533Y-89964529D01*
X88150691Y-89933344D01*
X88164852Y-89903404D01*
X88181879Y-89874995D01*
X88201609Y-89848392D01*
X88223851Y-89823851D01*
X88248392Y-89801609D01*
X88274995Y-89781879D01*
X88303404Y-89764852D01*
X88333344Y-89750691D01*
X88364529Y-89739533D01*
X88396657Y-89731485D01*
X88429419Y-89726625D01*
X88462500Y-89725000D01*
X89137500Y-89725000D01*
X89170581Y-89726625D01*
X89170581Y-89726625D01*
G37*
D12*
X88800000Y-90450000D03*
D11*
G36*
X89170581Y-91476625D02*
X89203343Y-91481485D01*
X89235471Y-91489533D01*
X89266656Y-91500691D01*
X89296596Y-91514852D01*
X89325005Y-91531879D01*
X89351608Y-91551609D01*
X89376149Y-91573851D01*
X89398391Y-91598392D01*
X89418121Y-91624995D01*
X89435148Y-91653404D01*
X89449309Y-91683344D01*
X89460467Y-91714529D01*
X89468515Y-91746657D01*
X89473375Y-91779419D01*
X89475000Y-91812500D01*
X89475000Y-92587500D01*
X89473375Y-92620581D01*
X89468515Y-92653343D01*
X89460467Y-92685471D01*
X89449309Y-92716656D01*
X89435148Y-92746596D01*
X89418121Y-92775005D01*
X89398391Y-92801608D01*
X89376149Y-92826149D01*
X89351608Y-92848391D01*
X89325005Y-92868121D01*
X89296596Y-92885148D01*
X89266656Y-92899309D01*
X89235471Y-92910467D01*
X89203343Y-92918515D01*
X89170581Y-92923375D01*
X89137500Y-92925000D01*
X88462500Y-92925000D01*
X88429419Y-92923375D01*
X88396657Y-92918515D01*
X88364529Y-92910467D01*
X88333344Y-92899309D01*
X88303404Y-92885148D01*
X88274995Y-92868121D01*
X88248392Y-92848391D01*
X88223851Y-92826149D01*
X88201609Y-92801608D01*
X88181879Y-92775005D01*
X88164852Y-92746596D01*
X88150691Y-92716656D01*
X88139533Y-92685471D01*
X88131485Y-92653343D01*
X88126625Y-92620581D01*
X88125000Y-92587500D01*
X88125000Y-91812500D01*
X88126625Y-91779419D01*
X88131485Y-91746657D01*
X88139533Y-91714529D01*
X88150691Y-91683344D01*
X88164852Y-91653404D01*
X88181879Y-91624995D01*
X88201609Y-91598392D01*
X88223851Y-91573851D01*
X88248392Y-91551609D01*
X88274995Y-91531879D01*
X88303404Y-91514852D01*
X88333344Y-91500691D01*
X88364529Y-91489533D01*
X88396657Y-91481485D01*
X88429419Y-91476625D01*
X88462500Y-91475000D01*
X89137500Y-91475000D01*
X89170581Y-91476625D01*
X89170581Y-91476625D01*
G37*
D12*
X88800000Y-92200000D03*
G04 #@! TD*
D11*
G04 #@! TO.C,C6*
G36*
X89170581Y-98376625D02*
X89203343Y-98381485D01*
X89235471Y-98389533D01*
X89266656Y-98400691D01*
X89296596Y-98414852D01*
X89325005Y-98431879D01*
X89351608Y-98451609D01*
X89376149Y-98473851D01*
X89398391Y-98498392D01*
X89418121Y-98524995D01*
X89435148Y-98553404D01*
X89449309Y-98583344D01*
X89460467Y-98614529D01*
X89468515Y-98646657D01*
X89473375Y-98679419D01*
X89475000Y-98712500D01*
X89475000Y-99487500D01*
X89473375Y-99520581D01*
X89468515Y-99553343D01*
X89460467Y-99585471D01*
X89449309Y-99616656D01*
X89435148Y-99646596D01*
X89418121Y-99675005D01*
X89398391Y-99701608D01*
X89376149Y-99726149D01*
X89351608Y-99748391D01*
X89325005Y-99768121D01*
X89296596Y-99785148D01*
X89266656Y-99799309D01*
X89235471Y-99810467D01*
X89203343Y-99818515D01*
X89170581Y-99823375D01*
X89137500Y-99825000D01*
X88462500Y-99825000D01*
X88429419Y-99823375D01*
X88396657Y-99818515D01*
X88364529Y-99810467D01*
X88333344Y-99799309D01*
X88303404Y-99785148D01*
X88274995Y-99768121D01*
X88248392Y-99748391D01*
X88223851Y-99726149D01*
X88201609Y-99701608D01*
X88181879Y-99675005D01*
X88164852Y-99646596D01*
X88150691Y-99616656D01*
X88139533Y-99585471D01*
X88131485Y-99553343D01*
X88126625Y-99520581D01*
X88125000Y-99487500D01*
X88125000Y-98712500D01*
X88126625Y-98679419D01*
X88131485Y-98646657D01*
X88139533Y-98614529D01*
X88150691Y-98583344D01*
X88164852Y-98553404D01*
X88181879Y-98524995D01*
X88201609Y-98498392D01*
X88223851Y-98473851D01*
X88248392Y-98451609D01*
X88274995Y-98431879D01*
X88303404Y-98414852D01*
X88333344Y-98400691D01*
X88364529Y-98389533D01*
X88396657Y-98381485D01*
X88429419Y-98376625D01*
X88462500Y-98375000D01*
X89137500Y-98375000D01*
X89170581Y-98376625D01*
X89170581Y-98376625D01*
G37*
D12*
X88800000Y-99100000D03*
D11*
G36*
X89170581Y-96626625D02*
X89203343Y-96631485D01*
X89235471Y-96639533D01*
X89266656Y-96650691D01*
X89296596Y-96664852D01*
X89325005Y-96681879D01*
X89351608Y-96701609D01*
X89376149Y-96723851D01*
X89398391Y-96748392D01*
X89418121Y-96774995D01*
X89435148Y-96803404D01*
X89449309Y-96833344D01*
X89460467Y-96864529D01*
X89468515Y-96896657D01*
X89473375Y-96929419D01*
X89475000Y-96962500D01*
X89475000Y-97737500D01*
X89473375Y-97770581D01*
X89468515Y-97803343D01*
X89460467Y-97835471D01*
X89449309Y-97866656D01*
X89435148Y-97896596D01*
X89418121Y-97925005D01*
X89398391Y-97951608D01*
X89376149Y-97976149D01*
X89351608Y-97998391D01*
X89325005Y-98018121D01*
X89296596Y-98035148D01*
X89266656Y-98049309D01*
X89235471Y-98060467D01*
X89203343Y-98068515D01*
X89170581Y-98073375D01*
X89137500Y-98075000D01*
X88462500Y-98075000D01*
X88429419Y-98073375D01*
X88396657Y-98068515D01*
X88364529Y-98060467D01*
X88333344Y-98049309D01*
X88303404Y-98035148D01*
X88274995Y-98018121D01*
X88248392Y-97998391D01*
X88223851Y-97976149D01*
X88201609Y-97951608D01*
X88181879Y-97925005D01*
X88164852Y-97896596D01*
X88150691Y-97866656D01*
X88139533Y-97835471D01*
X88131485Y-97803343D01*
X88126625Y-97770581D01*
X88125000Y-97737500D01*
X88125000Y-96962500D01*
X88126625Y-96929419D01*
X88131485Y-96896657D01*
X88139533Y-96864529D01*
X88150691Y-96833344D01*
X88164852Y-96803404D01*
X88181879Y-96774995D01*
X88201609Y-96748392D01*
X88223851Y-96723851D01*
X88248392Y-96701609D01*
X88274995Y-96681879D01*
X88303404Y-96664852D01*
X88333344Y-96650691D01*
X88364529Y-96639533D01*
X88396657Y-96631485D01*
X88429419Y-96626625D01*
X88462500Y-96625000D01*
X89137500Y-96625000D01*
X89170581Y-96626625D01*
X89170581Y-96626625D01*
G37*
D12*
X88800000Y-97350000D03*
G04 #@! TD*
D13*
G04 #@! TO.C,Y1*
X85000000Y-90400000D03*
X85000000Y-98900000D03*
G04 #@! TD*
D14*
G04 #@! TO.C,J1*
X76200000Y-99060000D03*
X76200000Y-96520000D03*
X76200000Y-93980000D03*
X76200000Y-91440000D03*
X76200000Y-88900000D03*
X76200000Y-86360000D03*
X76200000Y-83820000D03*
X76200000Y-81280000D03*
X76200000Y-78740000D03*
D15*
X76200000Y-76200000D03*
G04 #@! TD*
G04 #@! TO.C,J2*
X93980000Y-76200000D03*
D14*
X93980000Y-78740000D03*
X93980000Y-81280000D03*
X93980000Y-83820000D03*
X93980000Y-86360000D03*
X93980000Y-88900000D03*
X93980000Y-91440000D03*
X93980000Y-93980000D03*
X93980000Y-96520000D03*
X93980000Y-99060000D03*
G04 #@! TD*
M02*
