G04 #@! TF.GenerationSoftware,KiCad,Pcbnew,(5.0.0)*
G04 #@! TF.CreationDate,2020-07-20T09:31:12+01:00*
G04 #@! TF.ProjectId,CH552-USB-Devboard,43483535322D5553422D446576626F61,rev?*
G04 #@! TF.SameCoordinates,Original*
G04 #@! TF.FileFunction,Paste,Top*
G04 #@! TF.FilePolarity,Positive*
%FSLAX46Y46*%
G04 Gerber Fmt 4.6, Leading zero omitted, Abs format (unit mm)*
G04 Created by KiCad (PCBNEW (5.0.0)) date 07/20/20 09:31:12*
%MOMM*%
%LPD*%
G01*
G04 APERTURE LIST*
%ADD10R,1.060000X0.650000*%
%ADD11C,0.100000*%
%ADD12C,0.950000*%
%ADD13C,1.125000*%
%ADD14R,0.650000X1.060000*%
%ADD15R,0.300000X1.140000*%
%ADD16R,1.050000X0.650000*%
%ADD17R,0.600000X1.500000*%
%ADD18R,0.450000X1.450000*%
%ADD19R,1.200000X1.200000*%
G04 APERTURE END LIST*
D10*
G04 #@! TO.C,U3*
X80500000Y-69550000D03*
X80500000Y-70500000D03*
X80500000Y-71450000D03*
X82700000Y-71450000D03*
X82700000Y-69550000D03*
G04 #@! TD*
D11*
G04 #@! TO.C,C1*
G36*
X79260779Y-77726144D02*
X79283834Y-77729563D01*
X79306443Y-77735227D01*
X79328387Y-77743079D01*
X79349457Y-77753044D01*
X79369448Y-77765026D01*
X79388168Y-77778910D01*
X79405438Y-77794562D01*
X79421090Y-77811832D01*
X79434974Y-77830552D01*
X79446956Y-77850543D01*
X79456921Y-77871613D01*
X79464773Y-77893557D01*
X79470437Y-77916166D01*
X79473856Y-77939221D01*
X79475000Y-77962500D01*
X79475000Y-78537500D01*
X79473856Y-78560779D01*
X79470437Y-78583834D01*
X79464773Y-78606443D01*
X79456921Y-78628387D01*
X79446956Y-78649457D01*
X79434974Y-78669448D01*
X79421090Y-78688168D01*
X79405438Y-78705438D01*
X79388168Y-78721090D01*
X79369448Y-78734974D01*
X79349457Y-78746956D01*
X79328387Y-78756921D01*
X79306443Y-78764773D01*
X79283834Y-78770437D01*
X79260779Y-78773856D01*
X79237500Y-78775000D01*
X78762500Y-78775000D01*
X78739221Y-78773856D01*
X78716166Y-78770437D01*
X78693557Y-78764773D01*
X78671613Y-78756921D01*
X78650543Y-78746956D01*
X78630552Y-78734974D01*
X78611832Y-78721090D01*
X78594562Y-78705438D01*
X78578910Y-78688168D01*
X78565026Y-78669448D01*
X78553044Y-78649457D01*
X78543079Y-78628387D01*
X78535227Y-78606443D01*
X78529563Y-78583834D01*
X78526144Y-78560779D01*
X78525000Y-78537500D01*
X78525000Y-77962500D01*
X78526144Y-77939221D01*
X78529563Y-77916166D01*
X78535227Y-77893557D01*
X78543079Y-77871613D01*
X78553044Y-77850543D01*
X78565026Y-77830552D01*
X78578910Y-77811832D01*
X78594562Y-77794562D01*
X78611832Y-77778910D01*
X78630552Y-77765026D01*
X78650543Y-77753044D01*
X78671613Y-77743079D01*
X78693557Y-77735227D01*
X78716166Y-77729563D01*
X78739221Y-77726144D01*
X78762500Y-77725000D01*
X79237500Y-77725000D01*
X79260779Y-77726144D01*
X79260779Y-77726144D01*
G37*
D12*
X79000000Y-78250000D03*
D11*
G36*
X79260779Y-79476144D02*
X79283834Y-79479563D01*
X79306443Y-79485227D01*
X79328387Y-79493079D01*
X79349457Y-79503044D01*
X79369448Y-79515026D01*
X79388168Y-79528910D01*
X79405438Y-79544562D01*
X79421090Y-79561832D01*
X79434974Y-79580552D01*
X79446956Y-79600543D01*
X79456921Y-79621613D01*
X79464773Y-79643557D01*
X79470437Y-79666166D01*
X79473856Y-79689221D01*
X79475000Y-79712500D01*
X79475000Y-80287500D01*
X79473856Y-80310779D01*
X79470437Y-80333834D01*
X79464773Y-80356443D01*
X79456921Y-80378387D01*
X79446956Y-80399457D01*
X79434974Y-80419448D01*
X79421090Y-80438168D01*
X79405438Y-80455438D01*
X79388168Y-80471090D01*
X79369448Y-80484974D01*
X79349457Y-80496956D01*
X79328387Y-80506921D01*
X79306443Y-80514773D01*
X79283834Y-80520437D01*
X79260779Y-80523856D01*
X79237500Y-80525000D01*
X78762500Y-80525000D01*
X78739221Y-80523856D01*
X78716166Y-80520437D01*
X78693557Y-80514773D01*
X78671613Y-80506921D01*
X78650543Y-80496956D01*
X78630552Y-80484974D01*
X78611832Y-80471090D01*
X78594562Y-80455438D01*
X78578910Y-80438168D01*
X78565026Y-80419448D01*
X78553044Y-80399457D01*
X78543079Y-80378387D01*
X78535227Y-80356443D01*
X78529563Y-80333834D01*
X78526144Y-80310779D01*
X78525000Y-80287500D01*
X78525000Y-79712500D01*
X78526144Y-79689221D01*
X78529563Y-79666166D01*
X78535227Y-79643557D01*
X78543079Y-79621613D01*
X78553044Y-79600543D01*
X78565026Y-79580552D01*
X78578910Y-79561832D01*
X78594562Y-79544562D01*
X78611832Y-79528910D01*
X78630552Y-79515026D01*
X78650543Y-79503044D01*
X78671613Y-79493079D01*
X78693557Y-79485227D01*
X78716166Y-79479563D01*
X78739221Y-79476144D01*
X78762500Y-79475000D01*
X79237500Y-79475000D01*
X79260779Y-79476144D01*
X79260779Y-79476144D01*
G37*
D12*
X79000000Y-80000000D03*
G04 #@! TD*
D11*
G04 #@! TO.C,C7*
G36*
X84760779Y-69101144D02*
X84783834Y-69104563D01*
X84806443Y-69110227D01*
X84828387Y-69118079D01*
X84849457Y-69128044D01*
X84869448Y-69140026D01*
X84888168Y-69153910D01*
X84905438Y-69169562D01*
X84921090Y-69186832D01*
X84934974Y-69205552D01*
X84946956Y-69225543D01*
X84956921Y-69246613D01*
X84964773Y-69268557D01*
X84970437Y-69291166D01*
X84973856Y-69314221D01*
X84975000Y-69337500D01*
X84975000Y-69912500D01*
X84973856Y-69935779D01*
X84970437Y-69958834D01*
X84964773Y-69981443D01*
X84956921Y-70003387D01*
X84946956Y-70024457D01*
X84934974Y-70044448D01*
X84921090Y-70063168D01*
X84905438Y-70080438D01*
X84888168Y-70096090D01*
X84869448Y-70109974D01*
X84849457Y-70121956D01*
X84828387Y-70131921D01*
X84806443Y-70139773D01*
X84783834Y-70145437D01*
X84760779Y-70148856D01*
X84737500Y-70150000D01*
X84262500Y-70150000D01*
X84239221Y-70148856D01*
X84216166Y-70145437D01*
X84193557Y-70139773D01*
X84171613Y-70131921D01*
X84150543Y-70121956D01*
X84130552Y-70109974D01*
X84111832Y-70096090D01*
X84094562Y-70080438D01*
X84078910Y-70063168D01*
X84065026Y-70044448D01*
X84053044Y-70024457D01*
X84043079Y-70003387D01*
X84035227Y-69981443D01*
X84029563Y-69958834D01*
X84026144Y-69935779D01*
X84025000Y-69912500D01*
X84025000Y-69337500D01*
X84026144Y-69314221D01*
X84029563Y-69291166D01*
X84035227Y-69268557D01*
X84043079Y-69246613D01*
X84053044Y-69225543D01*
X84065026Y-69205552D01*
X84078910Y-69186832D01*
X84094562Y-69169562D01*
X84111832Y-69153910D01*
X84130552Y-69140026D01*
X84150543Y-69128044D01*
X84171613Y-69118079D01*
X84193557Y-69110227D01*
X84216166Y-69104563D01*
X84239221Y-69101144D01*
X84262500Y-69100000D01*
X84737500Y-69100000D01*
X84760779Y-69101144D01*
X84760779Y-69101144D01*
G37*
D12*
X84500000Y-69625000D03*
D11*
G36*
X84760779Y-70851144D02*
X84783834Y-70854563D01*
X84806443Y-70860227D01*
X84828387Y-70868079D01*
X84849457Y-70878044D01*
X84869448Y-70890026D01*
X84888168Y-70903910D01*
X84905438Y-70919562D01*
X84921090Y-70936832D01*
X84934974Y-70955552D01*
X84946956Y-70975543D01*
X84956921Y-70996613D01*
X84964773Y-71018557D01*
X84970437Y-71041166D01*
X84973856Y-71064221D01*
X84975000Y-71087500D01*
X84975000Y-71662500D01*
X84973856Y-71685779D01*
X84970437Y-71708834D01*
X84964773Y-71731443D01*
X84956921Y-71753387D01*
X84946956Y-71774457D01*
X84934974Y-71794448D01*
X84921090Y-71813168D01*
X84905438Y-71830438D01*
X84888168Y-71846090D01*
X84869448Y-71859974D01*
X84849457Y-71871956D01*
X84828387Y-71881921D01*
X84806443Y-71889773D01*
X84783834Y-71895437D01*
X84760779Y-71898856D01*
X84737500Y-71900000D01*
X84262500Y-71900000D01*
X84239221Y-71898856D01*
X84216166Y-71895437D01*
X84193557Y-71889773D01*
X84171613Y-71881921D01*
X84150543Y-71871956D01*
X84130552Y-71859974D01*
X84111832Y-71846090D01*
X84094562Y-71830438D01*
X84078910Y-71813168D01*
X84065026Y-71794448D01*
X84053044Y-71774457D01*
X84043079Y-71753387D01*
X84035227Y-71731443D01*
X84029563Y-71708834D01*
X84026144Y-71685779D01*
X84025000Y-71662500D01*
X84025000Y-71087500D01*
X84026144Y-71064221D01*
X84029563Y-71041166D01*
X84035227Y-71018557D01*
X84043079Y-70996613D01*
X84053044Y-70975543D01*
X84065026Y-70955552D01*
X84078910Y-70936832D01*
X84094562Y-70919562D01*
X84111832Y-70903910D01*
X84130552Y-70890026D01*
X84150543Y-70878044D01*
X84171613Y-70868079D01*
X84193557Y-70860227D01*
X84216166Y-70854563D01*
X84239221Y-70851144D01*
X84262500Y-70850000D01*
X84737500Y-70850000D01*
X84760779Y-70851144D01*
X84760779Y-70851144D01*
G37*
D12*
X84500000Y-71375000D03*
G04 #@! TD*
D11*
G04 #@! TO.C,D4*
G36*
X77674505Y-67213704D02*
X77698773Y-67217304D01*
X77722572Y-67223265D01*
X77745671Y-67231530D01*
X77767850Y-67242020D01*
X77788893Y-67254632D01*
X77808599Y-67269247D01*
X77826777Y-67285723D01*
X77843253Y-67303901D01*
X77857868Y-67323607D01*
X77870480Y-67344650D01*
X77880970Y-67366829D01*
X77889235Y-67389928D01*
X77895196Y-67413727D01*
X77898796Y-67437995D01*
X77900000Y-67462499D01*
X77900000Y-68087501D01*
X77898796Y-68112005D01*
X77895196Y-68136273D01*
X77889235Y-68160072D01*
X77880970Y-68183171D01*
X77870480Y-68205350D01*
X77857868Y-68226393D01*
X77843253Y-68246099D01*
X77826777Y-68264277D01*
X77808599Y-68280753D01*
X77788893Y-68295368D01*
X77767850Y-68307980D01*
X77745671Y-68318470D01*
X77722572Y-68326735D01*
X77698773Y-68332696D01*
X77674505Y-68336296D01*
X77650001Y-68337500D01*
X74749999Y-68337500D01*
X74725495Y-68336296D01*
X74701227Y-68332696D01*
X74677428Y-68326735D01*
X74654329Y-68318470D01*
X74632150Y-68307980D01*
X74611107Y-68295368D01*
X74591401Y-68280753D01*
X74573223Y-68264277D01*
X74556747Y-68246099D01*
X74542132Y-68226393D01*
X74529520Y-68205350D01*
X74519030Y-68183171D01*
X74510765Y-68160072D01*
X74504804Y-68136273D01*
X74501204Y-68112005D01*
X74500000Y-68087501D01*
X74500000Y-67462499D01*
X74501204Y-67437995D01*
X74504804Y-67413727D01*
X74510765Y-67389928D01*
X74519030Y-67366829D01*
X74529520Y-67344650D01*
X74542132Y-67323607D01*
X74556747Y-67303901D01*
X74573223Y-67285723D01*
X74591401Y-67269247D01*
X74611107Y-67254632D01*
X74632150Y-67242020D01*
X74654329Y-67231530D01*
X74677428Y-67223265D01*
X74701227Y-67217304D01*
X74725495Y-67213704D01*
X74749999Y-67212500D01*
X77650001Y-67212500D01*
X77674505Y-67213704D01*
X77674505Y-67213704D01*
G37*
D13*
X76200000Y-67775000D03*
D11*
G36*
X77674505Y-62938704D02*
X77698773Y-62942304D01*
X77722572Y-62948265D01*
X77745671Y-62956530D01*
X77767850Y-62967020D01*
X77788893Y-62979632D01*
X77808599Y-62994247D01*
X77826777Y-63010723D01*
X77843253Y-63028901D01*
X77857868Y-63048607D01*
X77870480Y-63069650D01*
X77880970Y-63091829D01*
X77889235Y-63114928D01*
X77895196Y-63138727D01*
X77898796Y-63162995D01*
X77900000Y-63187499D01*
X77900000Y-63812501D01*
X77898796Y-63837005D01*
X77895196Y-63861273D01*
X77889235Y-63885072D01*
X77880970Y-63908171D01*
X77870480Y-63930350D01*
X77857868Y-63951393D01*
X77843253Y-63971099D01*
X77826777Y-63989277D01*
X77808599Y-64005753D01*
X77788893Y-64020368D01*
X77767850Y-64032980D01*
X77745671Y-64043470D01*
X77722572Y-64051735D01*
X77698773Y-64057696D01*
X77674505Y-64061296D01*
X77650001Y-64062500D01*
X74749999Y-64062500D01*
X74725495Y-64061296D01*
X74701227Y-64057696D01*
X74677428Y-64051735D01*
X74654329Y-64043470D01*
X74632150Y-64032980D01*
X74611107Y-64020368D01*
X74591401Y-64005753D01*
X74573223Y-63989277D01*
X74556747Y-63971099D01*
X74542132Y-63951393D01*
X74529520Y-63930350D01*
X74519030Y-63908171D01*
X74510765Y-63885072D01*
X74504804Y-63861273D01*
X74501204Y-63837005D01*
X74500000Y-63812501D01*
X74500000Y-63187499D01*
X74501204Y-63162995D01*
X74504804Y-63138727D01*
X74510765Y-63114928D01*
X74519030Y-63091829D01*
X74529520Y-63069650D01*
X74542132Y-63048607D01*
X74556747Y-63028901D01*
X74573223Y-63010723D01*
X74591401Y-62994247D01*
X74611107Y-62979632D01*
X74632150Y-62967020D01*
X74654329Y-62956530D01*
X74677428Y-62948265D01*
X74701227Y-62942304D01*
X74725495Y-62938704D01*
X74749999Y-62937500D01*
X77650001Y-62937500D01*
X77674505Y-62938704D01*
X77674505Y-62938704D01*
G37*
D13*
X76200000Y-63500000D03*
G04 #@! TD*
D14*
G04 #@! TO.C,Q1*
X93000000Y-67400000D03*
X92050000Y-67400000D03*
X93950000Y-67400000D03*
X93950000Y-69600000D03*
X93000000Y-69600000D03*
X92050000Y-69600000D03*
G04 #@! TD*
D15*
G04 #@! TO.C,J3*
X84750000Y-67250000D03*
X85250000Y-67250000D03*
X85750000Y-67250000D03*
X84250000Y-67250000D03*
X86250000Y-67250000D03*
X86750000Y-67250000D03*
X83750000Y-67250000D03*
X83250000Y-67250000D03*
X87500000Y-67250000D03*
X87250000Y-67250000D03*
X88050000Y-67250000D03*
X88350000Y-67250000D03*
X82750000Y-67250000D03*
X82450000Y-67250000D03*
X81950000Y-67250000D03*
X81650000Y-67250000D03*
G04 #@! TD*
D16*
G04 #@! TO.C,SW2*
X87150000Y-92350000D03*
X83000000Y-92350000D03*
X87150000Y-90200000D03*
X83000000Y-90200000D03*
G04 #@! TD*
G04 #@! TO.C,SW1*
X83000000Y-94400000D03*
X87150000Y-94400000D03*
X83000000Y-96550000D03*
X87150000Y-96550000D03*
G04 #@! TD*
D11*
G04 #@! TO.C,C2*
G36*
X82510779Y-74126144D02*
X82533834Y-74129563D01*
X82556443Y-74135227D01*
X82578387Y-74143079D01*
X82599457Y-74153044D01*
X82619448Y-74165026D01*
X82638168Y-74178910D01*
X82655438Y-74194562D01*
X82671090Y-74211832D01*
X82684974Y-74230552D01*
X82696956Y-74250543D01*
X82706921Y-74271613D01*
X82714773Y-74293557D01*
X82720437Y-74316166D01*
X82723856Y-74339221D01*
X82725000Y-74362500D01*
X82725000Y-74837500D01*
X82723856Y-74860779D01*
X82720437Y-74883834D01*
X82714773Y-74906443D01*
X82706921Y-74928387D01*
X82696956Y-74949457D01*
X82684974Y-74969448D01*
X82671090Y-74988168D01*
X82655438Y-75005438D01*
X82638168Y-75021090D01*
X82619448Y-75034974D01*
X82599457Y-75046956D01*
X82578387Y-75056921D01*
X82556443Y-75064773D01*
X82533834Y-75070437D01*
X82510779Y-75073856D01*
X82487500Y-75075000D01*
X81912500Y-75075000D01*
X81889221Y-75073856D01*
X81866166Y-75070437D01*
X81843557Y-75064773D01*
X81821613Y-75056921D01*
X81800543Y-75046956D01*
X81780552Y-75034974D01*
X81761832Y-75021090D01*
X81744562Y-75005438D01*
X81728910Y-74988168D01*
X81715026Y-74969448D01*
X81703044Y-74949457D01*
X81693079Y-74928387D01*
X81685227Y-74906443D01*
X81679563Y-74883834D01*
X81676144Y-74860779D01*
X81675000Y-74837500D01*
X81675000Y-74362500D01*
X81676144Y-74339221D01*
X81679563Y-74316166D01*
X81685227Y-74293557D01*
X81693079Y-74271613D01*
X81703044Y-74250543D01*
X81715026Y-74230552D01*
X81728910Y-74211832D01*
X81744562Y-74194562D01*
X81761832Y-74178910D01*
X81780552Y-74165026D01*
X81800543Y-74153044D01*
X81821613Y-74143079D01*
X81843557Y-74135227D01*
X81866166Y-74129563D01*
X81889221Y-74126144D01*
X81912500Y-74125000D01*
X82487500Y-74125000D01*
X82510779Y-74126144D01*
X82510779Y-74126144D01*
G37*
D12*
X82200000Y-74600000D03*
D11*
G36*
X84260779Y-74126144D02*
X84283834Y-74129563D01*
X84306443Y-74135227D01*
X84328387Y-74143079D01*
X84349457Y-74153044D01*
X84369448Y-74165026D01*
X84388168Y-74178910D01*
X84405438Y-74194562D01*
X84421090Y-74211832D01*
X84434974Y-74230552D01*
X84446956Y-74250543D01*
X84456921Y-74271613D01*
X84464773Y-74293557D01*
X84470437Y-74316166D01*
X84473856Y-74339221D01*
X84475000Y-74362500D01*
X84475000Y-74837500D01*
X84473856Y-74860779D01*
X84470437Y-74883834D01*
X84464773Y-74906443D01*
X84456921Y-74928387D01*
X84446956Y-74949457D01*
X84434974Y-74969448D01*
X84421090Y-74988168D01*
X84405438Y-75005438D01*
X84388168Y-75021090D01*
X84369448Y-75034974D01*
X84349457Y-75046956D01*
X84328387Y-75056921D01*
X84306443Y-75064773D01*
X84283834Y-75070437D01*
X84260779Y-75073856D01*
X84237500Y-75075000D01*
X83662500Y-75075000D01*
X83639221Y-75073856D01*
X83616166Y-75070437D01*
X83593557Y-75064773D01*
X83571613Y-75056921D01*
X83550543Y-75046956D01*
X83530552Y-75034974D01*
X83511832Y-75021090D01*
X83494562Y-75005438D01*
X83478910Y-74988168D01*
X83465026Y-74969448D01*
X83453044Y-74949457D01*
X83443079Y-74928387D01*
X83435227Y-74906443D01*
X83429563Y-74883834D01*
X83426144Y-74860779D01*
X83425000Y-74837500D01*
X83425000Y-74362500D01*
X83426144Y-74339221D01*
X83429563Y-74316166D01*
X83435227Y-74293557D01*
X83443079Y-74271613D01*
X83453044Y-74250543D01*
X83465026Y-74230552D01*
X83478910Y-74211832D01*
X83494562Y-74194562D01*
X83511832Y-74178910D01*
X83530552Y-74165026D01*
X83550543Y-74153044D01*
X83571613Y-74143079D01*
X83593557Y-74135227D01*
X83616166Y-74129563D01*
X83639221Y-74126144D01*
X83662500Y-74125000D01*
X84237500Y-74125000D01*
X84260779Y-74126144D01*
X84260779Y-74126144D01*
G37*
D12*
X83950000Y-74600000D03*
G04 #@! TD*
D11*
G04 #@! TO.C,C3*
G36*
X79860779Y-91276144D02*
X79883834Y-91279563D01*
X79906443Y-91285227D01*
X79928387Y-91293079D01*
X79949457Y-91303044D01*
X79969448Y-91315026D01*
X79988168Y-91328910D01*
X80005438Y-91344562D01*
X80021090Y-91361832D01*
X80034974Y-91380552D01*
X80046956Y-91400543D01*
X80056921Y-91421613D01*
X80064773Y-91443557D01*
X80070437Y-91466166D01*
X80073856Y-91489221D01*
X80075000Y-91512500D01*
X80075000Y-92087500D01*
X80073856Y-92110779D01*
X80070437Y-92133834D01*
X80064773Y-92156443D01*
X80056921Y-92178387D01*
X80046956Y-92199457D01*
X80034974Y-92219448D01*
X80021090Y-92238168D01*
X80005438Y-92255438D01*
X79988168Y-92271090D01*
X79969448Y-92284974D01*
X79949457Y-92296956D01*
X79928387Y-92306921D01*
X79906443Y-92314773D01*
X79883834Y-92320437D01*
X79860779Y-92323856D01*
X79837500Y-92325000D01*
X79362500Y-92325000D01*
X79339221Y-92323856D01*
X79316166Y-92320437D01*
X79293557Y-92314773D01*
X79271613Y-92306921D01*
X79250543Y-92296956D01*
X79230552Y-92284974D01*
X79211832Y-92271090D01*
X79194562Y-92255438D01*
X79178910Y-92238168D01*
X79165026Y-92219448D01*
X79153044Y-92199457D01*
X79143079Y-92178387D01*
X79135227Y-92156443D01*
X79129563Y-92133834D01*
X79126144Y-92110779D01*
X79125000Y-92087500D01*
X79125000Y-91512500D01*
X79126144Y-91489221D01*
X79129563Y-91466166D01*
X79135227Y-91443557D01*
X79143079Y-91421613D01*
X79153044Y-91400543D01*
X79165026Y-91380552D01*
X79178910Y-91361832D01*
X79194562Y-91344562D01*
X79211832Y-91328910D01*
X79230552Y-91315026D01*
X79250543Y-91303044D01*
X79271613Y-91293079D01*
X79293557Y-91285227D01*
X79316166Y-91279563D01*
X79339221Y-91276144D01*
X79362500Y-91275000D01*
X79837500Y-91275000D01*
X79860779Y-91276144D01*
X79860779Y-91276144D01*
G37*
D12*
X79600000Y-91800000D03*
D11*
G36*
X79860779Y-93026144D02*
X79883834Y-93029563D01*
X79906443Y-93035227D01*
X79928387Y-93043079D01*
X79949457Y-93053044D01*
X79969448Y-93065026D01*
X79988168Y-93078910D01*
X80005438Y-93094562D01*
X80021090Y-93111832D01*
X80034974Y-93130552D01*
X80046956Y-93150543D01*
X80056921Y-93171613D01*
X80064773Y-93193557D01*
X80070437Y-93216166D01*
X80073856Y-93239221D01*
X80075000Y-93262500D01*
X80075000Y-93837500D01*
X80073856Y-93860779D01*
X80070437Y-93883834D01*
X80064773Y-93906443D01*
X80056921Y-93928387D01*
X80046956Y-93949457D01*
X80034974Y-93969448D01*
X80021090Y-93988168D01*
X80005438Y-94005438D01*
X79988168Y-94021090D01*
X79969448Y-94034974D01*
X79949457Y-94046956D01*
X79928387Y-94056921D01*
X79906443Y-94064773D01*
X79883834Y-94070437D01*
X79860779Y-94073856D01*
X79837500Y-94075000D01*
X79362500Y-94075000D01*
X79339221Y-94073856D01*
X79316166Y-94070437D01*
X79293557Y-94064773D01*
X79271613Y-94056921D01*
X79250543Y-94046956D01*
X79230552Y-94034974D01*
X79211832Y-94021090D01*
X79194562Y-94005438D01*
X79178910Y-93988168D01*
X79165026Y-93969448D01*
X79153044Y-93949457D01*
X79143079Y-93928387D01*
X79135227Y-93906443D01*
X79129563Y-93883834D01*
X79126144Y-93860779D01*
X79125000Y-93837500D01*
X79125000Y-93262500D01*
X79126144Y-93239221D01*
X79129563Y-93216166D01*
X79135227Y-93193557D01*
X79143079Y-93171613D01*
X79153044Y-93150543D01*
X79165026Y-93130552D01*
X79178910Y-93111832D01*
X79194562Y-93094562D01*
X79211832Y-93078910D01*
X79230552Y-93065026D01*
X79250543Y-93053044D01*
X79271613Y-93043079D01*
X79293557Y-93035227D01*
X79316166Y-93029563D01*
X79339221Y-93026144D01*
X79362500Y-93025000D01*
X79837500Y-93025000D01*
X79860779Y-93026144D01*
X79860779Y-93026144D01*
G37*
D12*
X79600000Y-93550000D03*
G04 #@! TD*
D11*
G04 #@! TO.C,C4*
G36*
X78760779Y-68976144D02*
X78783834Y-68979563D01*
X78806443Y-68985227D01*
X78828387Y-68993079D01*
X78849457Y-69003044D01*
X78869448Y-69015026D01*
X78888168Y-69028910D01*
X78905438Y-69044562D01*
X78921090Y-69061832D01*
X78934974Y-69080552D01*
X78946956Y-69100543D01*
X78956921Y-69121613D01*
X78964773Y-69143557D01*
X78970437Y-69166166D01*
X78973856Y-69189221D01*
X78975000Y-69212500D01*
X78975000Y-69787500D01*
X78973856Y-69810779D01*
X78970437Y-69833834D01*
X78964773Y-69856443D01*
X78956921Y-69878387D01*
X78946956Y-69899457D01*
X78934974Y-69919448D01*
X78921090Y-69938168D01*
X78905438Y-69955438D01*
X78888168Y-69971090D01*
X78869448Y-69984974D01*
X78849457Y-69996956D01*
X78828387Y-70006921D01*
X78806443Y-70014773D01*
X78783834Y-70020437D01*
X78760779Y-70023856D01*
X78737500Y-70025000D01*
X78262500Y-70025000D01*
X78239221Y-70023856D01*
X78216166Y-70020437D01*
X78193557Y-70014773D01*
X78171613Y-70006921D01*
X78150543Y-69996956D01*
X78130552Y-69984974D01*
X78111832Y-69971090D01*
X78094562Y-69955438D01*
X78078910Y-69938168D01*
X78065026Y-69919448D01*
X78053044Y-69899457D01*
X78043079Y-69878387D01*
X78035227Y-69856443D01*
X78029563Y-69833834D01*
X78026144Y-69810779D01*
X78025000Y-69787500D01*
X78025000Y-69212500D01*
X78026144Y-69189221D01*
X78029563Y-69166166D01*
X78035227Y-69143557D01*
X78043079Y-69121613D01*
X78053044Y-69100543D01*
X78065026Y-69080552D01*
X78078910Y-69061832D01*
X78094562Y-69044562D01*
X78111832Y-69028910D01*
X78130552Y-69015026D01*
X78150543Y-69003044D01*
X78171613Y-68993079D01*
X78193557Y-68985227D01*
X78216166Y-68979563D01*
X78239221Y-68976144D01*
X78262500Y-68975000D01*
X78737500Y-68975000D01*
X78760779Y-68976144D01*
X78760779Y-68976144D01*
G37*
D12*
X78500000Y-69500000D03*
D11*
G36*
X78760779Y-70726144D02*
X78783834Y-70729563D01*
X78806443Y-70735227D01*
X78828387Y-70743079D01*
X78849457Y-70753044D01*
X78869448Y-70765026D01*
X78888168Y-70778910D01*
X78905438Y-70794562D01*
X78921090Y-70811832D01*
X78934974Y-70830552D01*
X78946956Y-70850543D01*
X78956921Y-70871613D01*
X78964773Y-70893557D01*
X78970437Y-70916166D01*
X78973856Y-70939221D01*
X78975000Y-70962500D01*
X78975000Y-71537500D01*
X78973856Y-71560779D01*
X78970437Y-71583834D01*
X78964773Y-71606443D01*
X78956921Y-71628387D01*
X78946956Y-71649457D01*
X78934974Y-71669448D01*
X78921090Y-71688168D01*
X78905438Y-71705438D01*
X78888168Y-71721090D01*
X78869448Y-71734974D01*
X78849457Y-71746956D01*
X78828387Y-71756921D01*
X78806443Y-71764773D01*
X78783834Y-71770437D01*
X78760779Y-71773856D01*
X78737500Y-71775000D01*
X78262500Y-71775000D01*
X78239221Y-71773856D01*
X78216166Y-71770437D01*
X78193557Y-71764773D01*
X78171613Y-71756921D01*
X78150543Y-71746956D01*
X78130552Y-71734974D01*
X78111832Y-71721090D01*
X78094562Y-71705438D01*
X78078910Y-71688168D01*
X78065026Y-71669448D01*
X78053044Y-71649457D01*
X78043079Y-71628387D01*
X78035227Y-71606443D01*
X78029563Y-71583834D01*
X78026144Y-71560779D01*
X78025000Y-71537500D01*
X78025000Y-70962500D01*
X78026144Y-70939221D01*
X78029563Y-70916166D01*
X78035227Y-70893557D01*
X78043079Y-70871613D01*
X78053044Y-70850543D01*
X78065026Y-70830552D01*
X78078910Y-70811832D01*
X78094562Y-70794562D01*
X78111832Y-70778910D01*
X78130552Y-70765026D01*
X78150543Y-70753044D01*
X78171613Y-70743079D01*
X78193557Y-70735227D01*
X78216166Y-70729563D01*
X78239221Y-70726144D01*
X78262500Y-70725000D01*
X78737500Y-70725000D01*
X78760779Y-70726144D01*
X78760779Y-70726144D01*
G37*
D12*
X78500000Y-71250000D03*
G04 #@! TD*
D17*
G04 #@! TO.C,U2*
X80734192Y-79980020D03*
X82004192Y-79980020D03*
X83274192Y-79980020D03*
X84544192Y-79980020D03*
X85814192Y-79980020D03*
X87084192Y-79980020D03*
X88354192Y-79980020D03*
X89624192Y-79980020D03*
X89624192Y-85380020D03*
X88354192Y-85380020D03*
X87084192Y-85380020D03*
X85814192Y-85380020D03*
X84544192Y-85380020D03*
X83274192Y-85380020D03*
X82004192Y-85380020D03*
X80734192Y-85380020D03*
G04 #@! TD*
D18*
G04 #@! TO.C,U1*
X82254192Y-76730020D03*
X82904192Y-76730020D03*
X83554192Y-76730020D03*
X84204192Y-76730020D03*
X84854192Y-76730020D03*
X85504192Y-76730020D03*
X86154192Y-76730020D03*
X86804192Y-76730020D03*
X87454192Y-76730020D03*
X88104192Y-76730020D03*
X88104192Y-82630020D03*
X87454192Y-82630020D03*
X86804192Y-82630020D03*
X86154192Y-82630020D03*
X85504192Y-82630020D03*
X84854192Y-82630020D03*
X84204192Y-82630020D03*
X83554192Y-82630020D03*
X82904192Y-82630020D03*
X82254192Y-82630020D03*
G04 #@! TD*
D19*
G04 #@! TO.C,D3*
X94000000Y-63000000D03*
X91800000Y-63000000D03*
G04 #@! TD*
G04 #@! TO.C,D2*
X80800000Y-97800000D03*
X80800000Y-100000000D03*
G04 #@! TD*
G04 #@! TO.C,D1*
X89600000Y-100000000D03*
X89600000Y-97800000D03*
G04 #@! TD*
D11*
G04 #@! TO.C,R4*
G36*
X79460779Y-99276144D02*
X79483834Y-99279563D01*
X79506443Y-99285227D01*
X79528387Y-99293079D01*
X79549457Y-99303044D01*
X79569448Y-99315026D01*
X79588168Y-99328910D01*
X79605438Y-99344562D01*
X79621090Y-99361832D01*
X79634974Y-99380552D01*
X79646956Y-99400543D01*
X79656921Y-99421613D01*
X79664773Y-99443557D01*
X79670437Y-99466166D01*
X79673856Y-99489221D01*
X79675000Y-99512500D01*
X79675000Y-100087500D01*
X79673856Y-100110779D01*
X79670437Y-100133834D01*
X79664773Y-100156443D01*
X79656921Y-100178387D01*
X79646956Y-100199457D01*
X79634974Y-100219448D01*
X79621090Y-100238168D01*
X79605438Y-100255438D01*
X79588168Y-100271090D01*
X79569448Y-100284974D01*
X79549457Y-100296956D01*
X79528387Y-100306921D01*
X79506443Y-100314773D01*
X79483834Y-100320437D01*
X79460779Y-100323856D01*
X79437500Y-100325000D01*
X78962500Y-100325000D01*
X78939221Y-100323856D01*
X78916166Y-100320437D01*
X78893557Y-100314773D01*
X78871613Y-100306921D01*
X78850543Y-100296956D01*
X78830552Y-100284974D01*
X78811832Y-100271090D01*
X78794562Y-100255438D01*
X78778910Y-100238168D01*
X78765026Y-100219448D01*
X78753044Y-100199457D01*
X78743079Y-100178387D01*
X78735227Y-100156443D01*
X78729563Y-100133834D01*
X78726144Y-100110779D01*
X78725000Y-100087500D01*
X78725000Y-99512500D01*
X78726144Y-99489221D01*
X78729563Y-99466166D01*
X78735227Y-99443557D01*
X78743079Y-99421613D01*
X78753044Y-99400543D01*
X78765026Y-99380552D01*
X78778910Y-99361832D01*
X78794562Y-99344562D01*
X78811832Y-99328910D01*
X78830552Y-99315026D01*
X78850543Y-99303044D01*
X78871613Y-99293079D01*
X78893557Y-99285227D01*
X78916166Y-99279563D01*
X78939221Y-99276144D01*
X78962500Y-99275000D01*
X79437500Y-99275000D01*
X79460779Y-99276144D01*
X79460779Y-99276144D01*
G37*
D12*
X79200000Y-99800000D03*
D11*
G36*
X79460779Y-97526144D02*
X79483834Y-97529563D01*
X79506443Y-97535227D01*
X79528387Y-97543079D01*
X79549457Y-97553044D01*
X79569448Y-97565026D01*
X79588168Y-97578910D01*
X79605438Y-97594562D01*
X79621090Y-97611832D01*
X79634974Y-97630552D01*
X79646956Y-97650543D01*
X79656921Y-97671613D01*
X79664773Y-97693557D01*
X79670437Y-97716166D01*
X79673856Y-97739221D01*
X79675000Y-97762500D01*
X79675000Y-98337500D01*
X79673856Y-98360779D01*
X79670437Y-98383834D01*
X79664773Y-98406443D01*
X79656921Y-98428387D01*
X79646956Y-98449457D01*
X79634974Y-98469448D01*
X79621090Y-98488168D01*
X79605438Y-98505438D01*
X79588168Y-98521090D01*
X79569448Y-98534974D01*
X79549457Y-98546956D01*
X79528387Y-98556921D01*
X79506443Y-98564773D01*
X79483834Y-98570437D01*
X79460779Y-98573856D01*
X79437500Y-98575000D01*
X78962500Y-98575000D01*
X78939221Y-98573856D01*
X78916166Y-98570437D01*
X78893557Y-98564773D01*
X78871613Y-98556921D01*
X78850543Y-98546956D01*
X78830552Y-98534974D01*
X78811832Y-98521090D01*
X78794562Y-98505438D01*
X78778910Y-98488168D01*
X78765026Y-98469448D01*
X78753044Y-98449457D01*
X78743079Y-98428387D01*
X78735227Y-98406443D01*
X78729563Y-98383834D01*
X78726144Y-98360779D01*
X78725000Y-98337500D01*
X78725000Y-97762500D01*
X78726144Y-97739221D01*
X78729563Y-97716166D01*
X78735227Y-97693557D01*
X78743079Y-97671613D01*
X78753044Y-97650543D01*
X78765026Y-97630552D01*
X78778910Y-97611832D01*
X78794562Y-97594562D01*
X78811832Y-97578910D01*
X78830552Y-97565026D01*
X78850543Y-97553044D01*
X78871613Y-97543079D01*
X78893557Y-97535227D01*
X78916166Y-97529563D01*
X78939221Y-97526144D01*
X78962500Y-97525000D01*
X79437500Y-97525000D01*
X79460779Y-97526144D01*
X79460779Y-97526144D01*
G37*
D12*
X79200000Y-98050000D03*
G04 #@! TD*
D11*
G04 #@! TO.C,R5*
G36*
X94310779Y-65026144D02*
X94333834Y-65029563D01*
X94356443Y-65035227D01*
X94378387Y-65043079D01*
X94399457Y-65053044D01*
X94419448Y-65065026D01*
X94438168Y-65078910D01*
X94455438Y-65094562D01*
X94471090Y-65111832D01*
X94484974Y-65130552D01*
X94496956Y-65150543D01*
X94506921Y-65171613D01*
X94514773Y-65193557D01*
X94520437Y-65216166D01*
X94523856Y-65239221D01*
X94525000Y-65262500D01*
X94525000Y-65737500D01*
X94523856Y-65760779D01*
X94520437Y-65783834D01*
X94514773Y-65806443D01*
X94506921Y-65828387D01*
X94496956Y-65849457D01*
X94484974Y-65869448D01*
X94471090Y-65888168D01*
X94455438Y-65905438D01*
X94438168Y-65921090D01*
X94419448Y-65934974D01*
X94399457Y-65946956D01*
X94378387Y-65956921D01*
X94356443Y-65964773D01*
X94333834Y-65970437D01*
X94310779Y-65973856D01*
X94287500Y-65975000D01*
X93712500Y-65975000D01*
X93689221Y-65973856D01*
X93666166Y-65970437D01*
X93643557Y-65964773D01*
X93621613Y-65956921D01*
X93600543Y-65946956D01*
X93580552Y-65934974D01*
X93561832Y-65921090D01*
X93544562Y-65905438D01*
X93528910Y-65888168D01*
X93515026Y-65869448D01*
X93503044Y-65849457D01*
X93493079Y-65828387D01*
X93485227Y-65806443D01*
X93479563Y-65783834D01*
X93476144Y-65760779D01*
X93475000Y-65737500D01*
X93475000Y-65262500D01*
X93476144Y-65239221D01*
X93479563Y-65216166D01*
X93485227Y-65193557D01*
X93493079Y-65171613D01*
X93503044Y-65150543D01*
X93515026Y-65130552D01*
X93528910Y-65111832D01*
X93544562Y-65094562D01*
X93561832Y-65078910D01*
X93580552Y-65065026D01*
X93600543Y-65053044D01*
X93621613Y-65043079D01*
X93643557Y-65035227D01*
X93666166Y-65029563D01*
X93689221Y-65026144D01*
X93712500Y-65025000D01*
X94287500Y-65025000D01*
X94310779Y-65026144D01*
X94310779Y-65026144D01*
G37*
D12*
X94000000Y-65500000D03*
D11*
G36*
X92560779Y-65026144D02*
X92583834Y-65029563D01*
X92606443Y-65035227D01*
X92628387Y-65043079D01*
X92649457Y-65053044D01*
X92669448Y-65065026D01*
X92688168Y-65078910D01*
X92705438Y-65094562D01*
X92721090Y-65111832D01*
X92734974Y-65130552D01*
X92746956Y-65150543D01*
X92756921Y-65171613D01*
X92764773Y-65193557D01*
X92770437Y-65216166D01*
X92773856Y-65239221D01*
X92775000Y-65262500D01*
X92775000Y-65737500D01*
X92773856Y-65760779D01*
X92770437Y-65783834D01*
X92764773Y-65806443D01*
X92756921Y-65828387D01*
X92746956Y-65849457D01*
X92734974Y-65869448D01*
X92721090Y-65888168D01*
X92705438Y-65905438D01*
X92688168Y-65921090D01*
X92669448Y-65934974D01*
X92649457Y-65946956D01*
X92628387Y-65956921D01*
X92606443Y-65964773D01*
X92583834Y-65970437D01*
X92560779Y-65973856D01*
X92537500Y-65975000D01*
X91962500Y-65975000D01*
X91939221Y-65973856D01*
X91916166Y-65970437D01*
X91893557Y-65964773D01*
X91871613Y-65956921D01*
X91850543Y-65946956D01*
X91830552Y-65934974D01*
X91811832Y-65921090D01*
X91794562Y-65905438D01*
X91778910Y-65888168D01*
X91765026Y-65869448D01*
X91753044Y-65849457D01*
X91743079Y-65828387D01*
X91735227Y-65806443D01*
X91729563Y-65783834D01*
X91726144Y-65760779D01*
X91725000Y-65737500D01*
X91725000Y-65262500D01*
X91726144Y-65239221D01*
X91729563Y-65216166D01*
X91735227Y-65193557D01*
X91743079Y-65171613D01*
X91753044Y-65150543D01*
X91765026Y-65130552D01*
X91778910Y-65111832D01*
X91794562Y-65094562D01*
X91811832Y-65078910D01*
X91830552Y-65065026D01*
X91850543Y-65053044D01*
X91871613Y-65043079D01*
X91893557Y-65035227D01*
X91916166Y-65029563D01*
X91939221Y-65026144D01*
X91962500Y-65025000D01*
X92537500Y-65025000D01*
X92560779Y-65026144D01*
X92560779Y-65026144D01*
G37*
D12*
X92250000Y-65500000D03*
G04 #@! TD*
D11*
G04 #@! TO.C,R3*
G36*
X91460779Y-99276144D02*
X91483834Y-99279563D01*
X91506443Y-99285227D01*
X91528387Y-99293079D01*
X91549457Y-99303044D01*
X91569448Y-99315026D01*
X91588168Y-99328910D01*
X91605438Y-99344562D01*
X91621090Y-99361832D01*
X91634974Y-99380552D01*
X91646956Y-99400543D01*
X91656921Y-99421613D01*
X91664773Y-99443557D01*
X91670437Y-99466166D01*
X91673856Y-99489221D01*
X91675000Y-99512500D01*
X91675000Y-100087500D01*
X91673856Y-100110779D01*
X91670437Y-100133834D01*
X91664773Y-100156443D01*
X91656921Y-100178387D01*
X91646956Y-100199457D01*
X91634974Y-100219448D01*
X91621090Y-100238168D01*
X91605438Y-100255438D01*
X91588168Y-100271090D01*
X91569448Y-100284974D01*
X91549457Y-100296956D01*
X91528387Y-100306921D01*
X91506443Y-100314773D01*
X91483834Y-100320437D01*
X91460779Y-100323856D01*
X91437500Y-100325000D01*
X90962500Y-100325000D01*
X90939221Y-100323856D01*
X90916166Y-100320437D01*
X90893557Y-100314773D01*
X90871613Y-100306921D01*
X90850543Y-100296956D01*
X90830552Y-100284974D01*
X90811832Y-100271090D01*
X90794562Y-100255438D01*
X90778910Y-100238168D01*
X90765026Y-100219448D01*
X90753044Y-100199457D01*
X90743079Y-100178387D01*
X90735227Y-100156443D01*
X90729563Y-100133834D01*
X90726144Y-100110779D01*
X90725000Y-100087500D01*
X90725000Y-99512500D01*
X90726144Y-99489221D01*
X90729563Y-99466166D01*
X90735227Y-99443557D01*
X90743079Y-99421613D01*
X90753044Y-99400543D01*
X90765026Y-99380552D01*
X90778910Y-99361832D01*
X90794562Y-99344562D01*
X90811832Y-99328910D01*
X90830552Y-99315026D01*
X90850543Y-99303044D01*
X90871613Y-99293079D01*
X90893557Y-99285227D01*
X90916166Y-99279563D01*
X90939221Y-99276144D01*
X90962500Y-99275000D01*
X91437500Y-99275000D01*
X91460779Y-99276144D01*
X91460779Y-99276144D01*
G37*
D12*
X91200000Y-99800000D03*
D11*
G36*
X91460779Y-97526144D02*
X91483834Y-97529563D01*
X91506443Y-97535227D01*
X91528387Y-97543079D01*
X91549457Y-97553044D01*
X91569448Y-97565026D01*
X91588168Y-97578910D01*
X91605438Y-97594562D01*
X91621090Y-97611832D01*
X91634974Y-97630552D01*
X91646956Y-97650543D01*
X91656921Y-97671613D01*
X91664773Y-97693557D01*
X91670437Y-97716166D01*
X91673856Y-97739221D01*
X91675000Y-97762500D01*
X91675000Y-98337500D01*
X91673856Y-98360779D01*
X91670437Y-98383834D01*
X91664773Y-98406443D01*
X91656921Y-98428387D01*
X91646956Y-98449457D01*
X91634974Y-98469448D01*
X91621090Y-98488168D01*
X91605438Y-98505438D01*
X91588168Y-98521090D01*
X91569448Y-98534974D01*
X91549457Y-98546956D01*
X91528387Y-98556921D01*
X91506443Y-98564773D01*
X91483834Y-98570437D01*
X91460779Y-98573856D01*
X91437500Y-98575000D01*
X90962500Y-98575000D01*
X90939221Y-98573856D01*
X90916166Y-98570437D01*
X90893557Y-98564773D01*
X90871613Y-98556921D01*
X90850543Y-98546956D01*
X90830552Y-98534974D01*
X90811832Y-98521090D01*
X90794562Y-98505438D01*
X90778910Y-98488168D01*
X90765026Y-98469448D01*
X90753044Y-98449457D01*
X90743079Y-98428387D01*
X90735227Y-98406443D01*
X90729563Y-98383834D01*
X90726144Y-98360779D01*
X90725000Y-98337500D01*
X90725000Y-97762500D01*
X90726144Y-97739221D01*
X90729563Y-97716166D01*
X90735227Y-97693557D01*
X90743079Y-97671613D01*
X90753044Y-97650543D01*
X90765026Y-97630552D01*
X90778910Y-97611832D01*
X90794562Y-97594562D01*
X90811832Y-97578910D01*
X90830552Y-97565026D01*
X90850543Y-97553044D01*
X90871613Y-97543079D01*
X90893557Y-97535227D01*
X90916166Y-97529563D01*
X90939221Y-97526144D01*
X90962500Y-97525000D01*
X91437500Y-97525000D01*
X91460779Y-97526144D01*
X91460779Y-97526144D01*
G37*
D12*
X91200000Y-98050000D03*
G04 #@! TD*
M02*
