G04 #@! TF.GenerationSoftware,KiCad,Pcbnew,(5.0.0)*
G04 #@! TF.CreationDate,2020-07-20T09:31:12+01:00*
G04 #@! TF.ProjectId,CH552-USB-Devboard,43483535322D5553422D446576626F61,rev?*
G04 #@! TF.SameCoordinates,Original*
G04 #@! TF.FileFunction,Copper,L2,Bot,Signal*
G04 #@! TF.FilePolarity,Positive*
%FSLAX46Y46*%
G04 Gerber Fmt 4.6, Leading zero omitted, Abs format (unit mm)*
G04 Created by KiCad (PCBNEW (5.0.0)) date 07/20/20 09:31:12*
%MOMM*%
%LPD*%
G01*
G04 APERTURE LIST*
G04 #@! TA.AperFunction,ComponentPad*
%ADD10O,1.700000X1.700000*%
G04 #@! TD*
G04 #@! TA.AperFunction,ComponentPad*
%ADD11R,1.700000X1.700000*%
G04 #@! TD*
G04 #@! TA.AperFunction,SMDPad,CuDef*
%ADD12C,0.500000*%
G04 #@! TD*
G04 #@! TA.AperFunction,Conductor*
%ADD13C,0.100000*%
G04 #@! TD*
G04 #@! TA.AperFunction,ComponentPad*
%ADD14O,0.900000X2.000000*%
G04 #@! TD*
G04 #@! TA.AperFunction,SMDPad,CuDef*
%ADD15C,0.950000*%
G04 #@! TD*
G04 #@! TA.AperFunction,SMDPad,CuDef*
%ADD16R,2.000000X4.500000*%
G04 #@! TD*
G04 #@! TA.AperFunction,ViaPad*
%ADD17C,0.800000*%
G04 #@! TD*
G04 #@! TA.AperFunction,Conductor*
%ADD18C,0.200000*%
G04 #@! TD*
G04 #@! TA.AperFunction,Conductor*
%ADD19C,0.400000*%
G04 #@! TD*
G04 APERTURE END LIST*
D10*
G04 #@! TO.P,J1,11*
G04 #@! TO.N,/P1.7*
X76200000Y-99060000D03*
G04 #@! TO.P,J1,10*
G04 #@! TO.N,/P1.6*
X76200000Y-96520000D03*
G04 #@! TO.P,J1,9*
G04 #@! TO.N,/P1.5*
X76200000Y-93980000D03*
G04 #@! TO.P,J1,8*
G04 #@! TO.N,/P1.4*
X76200000Y-91440000D03*
G04 #@! TO.P,J1,7*
G04 #@! TO.N,/P1.3*
X76200000Y-88900000D03*
G04 #@! TO.P,J1,6*
G04 #@! TO.N,/P1.2*
X76200000Y-86360000D03*
G04 #@! TO.P,J1,5*
G04 #@! TO.N,/P1.1*
X76200000Y-83820000D03*
G04 #@! TO.P,J1,4*
G04 #@! TO.N,/P1.0*
X76200000Y-81280000D03*
G04 #@! TO.P,J1,3*
G04 #@! TO.N,+3V3*
X76200000Y-78740000D03*
G04 #@! TO.P,J1,2*
G04 #@! TO.N,VCC*
X76200000Y-76200000D03*
D11*
G04 #@! TO.P,J1,1*
G04 #@! TO.N,VBUS*
X76200000Y-73660000D03*
G04 #@! TD*
G04 #@! TO.P,J2,1*
G04 #@! TO.N,GND*
X93980000Y-73660000D03*
D10*
G04 #@! TO.P,J2,2*
X93980000Y-76200000D03*
G04 #@! TO.P,J2,3*
G04 #@! TO.N,/RESET*
X93980000Y-78740000D03*
G04 #@! TO.P,J2,4*
G04 #@! TO.N,/P3.0*
X93980000Y-81280000D03*
G04 #@! TO.P,J2,5*
G04 #@! TO.N,/P3.1*
X93980000Y-83820000D03*
G04 #@! TO.P,J2,6*
G04 #@! TO.N,/P3.2*
X93980000Y-86360000D03*
G04 #@! TO.P,J2,7*
G04 #@! TO.N,/P3.3*
X93980000Y-88900000D03*
G04 #@! TO.P,J2,8*
G04 #@! TO.N,/P3.4*
X93980000Y-91440000D03*
G04 #@! TO.P,J2,9*
G04 #@! TO.N,/P3.5*
X93980000Y-93980000D03*
G04 #@! TO.P,J2,10*
G04 #@! TO.N,/P3.6*
X93980000Y-96520000D03*
G04 #@! TO.P,J2,11*
G04 #@! TO.N,/P3.7*
X93980000Y-99060000D03*
G04 #@! TD*
D12*
G04 #@! TO.P,JP1,2*
G04 #@! TO.N,/P1.4*
X86500000Y-68150000D03*
D13*
G04 #@! TD*
G04 #@! TO.N,/P1.4*
G04 #@! TO.C,JP1*
G36*
X87249398Y-68150000D02*
X87249398Y-68174534D01*
X87244588Y-68223365D01*
X87235016Y-68271490D01*
X87220772Y-68318445D01*
X87201995Y-68363778D01*
X87178864Y-68407051D01*
X87151604Y-68447850D01*
X87120476Y-68485779D01*
X87085779Y-68520476D01*
X87047850Y-68551604D01*
X87007051Y-68578864D01*
X86963778Y-68601995D01*
X86918445Y-68620772D01*
X86871490Y-68635016D01*
X86823365Y-68644588D01*
X86774534Y-68649398D01*
X86750000Y-68649398D01*
X86750000Y-68650000D01*
X86250000Y-68650000D01*
X86250000Y-68649398D01*
X86225466Y-68649398D01*
X86176635Y-68644588D01*
X86128510Y-68635016D01*
X86081555Y-68620772D01*
X86036222Y-68601995D01*
X85992949Y-68578864D01*
X85952150Y-68551604D01*
X85914221Y-68520476D01*
X85879524Y-68485779D01*
X85848396Y-68447850D01*
X85821136Y-68407051D01*
X85798005Y-68363778D01*
X85779228Y-68318445D01*
X85764984Y-68271490D01*
X85755412Y-68223365D01*
X85750602Y-68174534D01*
X85750602Y-68150000D01*
X85750000Y-68150000D01*
X85750000Y-67650000D01*
X87250000Y-67650000D01*
X87250000Y-68150000D01*
X87249398Y-68150000D01*
X87249398Y-68150000D01*
G37*
D12*
G04 #@! TO.P,JP1,1*
G04 #@! TO.N,/CC1*
X86500000Y-66850000D03*
D13*
G04 #@! TD*
G04 #@! TO.N,/CC1*
G04 #@! TO.C,JP1*
G36*
X86800000Y-67350000D02*
X86800000Y-67750000D01*
X86200000Y-67750000D01*
X86200000Y-67350000D01*
X85750000Y-67350000D01*
X85750000Y-66850000D01*
X85750602Y-66850000D01*
X85750602Y-66825466D01*
X85755412Y-66776635D01*
X85764984Y-66728510D01*
X85779228Y-66681555D01*
X85798005Y-66636222D01*
X85821136Y-66592949D01*
X85848396Y-66552150D01*
X85879524Y-66514221D01*
X85914221Y-66479524D01*
X85952150Y-66448396D01*
X85992949Y-66421136D01*
X86036222Y-66398005D01*
X86081555Y-66379228D01*
X86128510Y-66364984D01*
X86176635Y-66355412D01*
X86225466Y-66350602D01*
X86250000Y-66350602D01*
X86250000Y-66350000D01*
X86750000Y-66350000D01*
X86750000Y-66350602D01*
X86774534Y-66350602D01*
X86823365Y-66355412D01*
X86871490Y-66364984D01*
X86918445Y-66379228D01*
X86963778Y-66398005D01*
X87007051Y-66421136D01*
X87047850Y-66448396D01*
X87085779Y-66479524D01*
X87120476Y-66514221D01*
X87151604Y-66552150D01*
X87178864Y-66592949D01*
X87201995Y-66636222D01*
X87220772Y-66681555D01*
X87235016Y-66728510D01*
X87244588Y-66776635D01*
X87249398Y-66825466D01*
X87249398Y-66850000D01*
X87250000Y-66850000D01*
X87250000Y-67350000D01*
X86800000Y-67350000D01*
X86800000Y-67350000D01*
G37*
D12*
G04 #@! TO.P,JP2,1*
G04 #@! TO.N,/CC2*
X84000000Y-66850000D03*
D13*
G04 #@! TD*
G04 #@! TO.N,/CC2*
G04 #@! TO.C,JP2*
G36*
X84300000Y-67350000D02*
X84300000Y-67750000D01*
X83700000Y-67750000D01*
X83700000Y-67350000D01*
X83250000Y-67350000D01*
X83250000Y-66850000D01*
X83250602Y-66850000D01*
X83250602Y-66825466D01*
X83255412Y-66776635D01*
X83264984Y-66728510D01*
X83279228Y-66681555D01*
X83298005Y-66636222D01*
X83321136Y-66592949D01*
X83348396Y-66552150D01*
X83379524Y-66514221D01*
X83414221Y-66479524D01*
X83452150Y-66448396D01*
X83492949Y-66421136D01*
X83536222Y-66398005D01*
X83581555Y-66379228D01*
X83628510Y-66364984D01*
X83676635Y-66355412D01*
X83725466Y-66350602D01*
X83750000Y-66350602D01*
X83750000Y-66350000D01*
X84250000Y-66350000D01*
X84250000Y-66350602D01*
X84274534Y-66350602D01*
X84323365Y-66355412D01*
X84371490Y-66364984D01*
X84418445Y-66379228D01*
X84463778Y-66398005D01*
X84507051Y-66421136D01*
X84547850Y-66448396D01*
X84585779Y-66479524D01*
X84620476Y-66514221D01*
X84651604Y-66552150D01*
X84678864Y-66592949D01*
X84701995Y-66636222D01*
X84720772Y-66681555D01*
X84735016Y-66728510D01*
X84744588Y-66776635D01*
X84749398Y-66825466D01*
X84749398Y-66850000D01*
X84750000Y-66850000D01*
X84750000Y-67350000D01*
X84300000Y-67350000D01*
X84300000Y-67350000D01*
G37*
D12*
G04 #@! TO.P,JP2,2*
G04 #@! TO.N,/P1.5*
X84000000Y-68150000D03*
D13*
G04 #@! TD*
G04 #@! TO.N,/P1.5*
G04 #@! TO.C,JP2*
G36*
X84749398Y-68150000D02*
X84749398Y-68174534D01*
X84744588Y-68223365D01*
X84735016Y-68271490D01*
X84720772Y-68318445D01*
X84701995Y-68363778D01*
X84678864Y-68407051D01*
X84651604Y-68447850D01*
X84620476Y-68485779D01*
X84585779Y-68520476D01*
X84547850Y-68551604D01*
X84507051Y-68578864D01*
X84463778Y-68601995D01*
X84418445Y-68620772D01*
X84371490Y-68635016D01*
X84323365Y-68644588D01*
X84274534Y-68649398D01*
X84250000Y-68649398D01*
X84250000Y-68650000D01*
X83750000Y-68650000D01*
X83750000Y-68649398D01*
X83725466Y-68649398D01*
X83676635Y-68644588D01*
X83628510Y-68635016D01*
X83581555Y-68620772D01*
X83536222Y-68601995D01*
X83492949Y-68578864D01*
X83452150Y-68551604D01*
X83414221Y-68520476D01*
X83379524Y-68485779D01*
X83348396Y-68447850D01*
X83321136Y-68407051D01*
X83298005Y-68363778D01*
X83279228Y-68318445D01*
X83264984Y-68271490D01*
X83255412Y-68223365D01*
X83250602Y-68174534D01*
X83250602Y-68150000D01*
X83250000Y-68150000D01*
X83250000Y-67650000D01*
X84750000Y-67650000D01*
X84750000Y-68150000D01*
X84749398Y-68150000D01*
X84749398Y-68150000D01*
G37*
D14*
G04 #@! TO.P,J3,1*
G04 #@! TO.N,GND*
X80675000Y-66680000D03*
X89325000Y-66680000D03*
G04 #@! TO.P,J3,S1*
X89325000Y-62500000D03*
X80675000Y-62500000D03*
G04 #@! TD*
D13*
G04 #@! TO.N,GND*
G04 #@! TO.C,C5*
G36*
X89060779Y-89926144D02*
X89083834Y-89929563D01*
X89106443Y-89935227D01*
X89128387Y-89943079D01*
X89149457Y-89953044D01*
X89169448Y-89965026D01*
X89188168Y-89978910D01*
X89205438Y-89994562D01*
X89221090Y-90011832D01*
X89234974Y-90030552D01*
X89246956Y-90050543D01*
X89256921Y-90071613D01*
X89264773Y-90093557D01*
X89270437Y-90116166D01*
X89273856Y-90139221D01*
X89275000Y-90162500D01*
X89275000Y-90737500D01*
X89273856Y-90760779D01*
X89270437Y-90783834D01*
X89264773Y-90806443D01*
X89256921Y-90828387D01*
X89246956Y-90849457D01*
X89234974Y-90869448D01*
X89221090Y-90888168D01*
X89205438Y-90905438D01*
X89188168Y-90921090D01*
X89169448Y-90934974D01*
X89149457Y-90946956D01*
X89128387Y-90956921D01*
X89106443Y-90964773D01*
X89083834Y-90970437D01*
X89060779Y-90973856D01*
X89037500Y-90975000D01*
X88562500Y-90975000D01*
X88539221Y-90973856D01*
X88516166Y-90970437D01*
X88493557Y-90964773D01*
X88471613Y-90956921D01*
X88450543Y-90946956D01*
X88430552Y-90934974D01*
X88411832Y-90921090D01*
X88394562Y-90905438D01*
X88378910Y-90888168D01*
X88365026Y-90869448D01*
X88353044Y-90849457D01*
X88343079Y-90828387D01*
X88335227Y-90806443D01*
X88329563Y-90783834D01*
X88326144Y-90760779D01*
X88325000Y-90737500D01*
X88325000Y-90162500D01*
X88326144Y-90139221D01*
X88329563Y-90116166D01*
X88335227Y-90093557D01*
X88343079Y-90071613D01*
X88353044Y-90050543D01*
X88365026Y-90030552D01*
X88378910Y-90011832D01*
X88394562Y-89994562D01*
X88411832Y-89978910D01*
X88430552Y-89965026D01*
X88450543Y-89953044D01*
X88471613Y-89943079D01*
X88493557Y-89935227D01*
X88516166Y-89929563D01*
X88539221Y-89926144D01*
X88562500Y-89925000D01*
X89037500Y-89925000D01*
X89060779Y-89926144D01*
X89060779Y-89926144D01*
G37*
D15*
G04 #@! TD*
G04 #@! TO.P,C5,2*
G04 #@! TO.N,GND*
X88800000Y-90450000D03*
D13*
G04 #@! TO.N,/P1.2*
G04 #@! TO.C,C5*
G36*
X89060779Y-91676144D02*
X89083834Y-91679563D01*
X89106443Y-91685227D01*
X89128387Y-91693079D01*
X89149457Y-91703044D01*
X89169448Y-91715026D01*
X89188168Y-91728910D01*
X89205438Y-91744562D01*
X89221090Y-91761832D01*
X89234974Y-91780552D01*
X89246956Y-91800543D01*
X89256921Y-91821613D01*
X89264773Y-91843557D01*
X89270437Y-91866166D01*
X89273856Y-91889221D01*
X89275000Y-91912500D01*
X89275000Y-92487500D01*
X89273856Y-92510779D01*
X89270437Y-92533834D01*
X89264773Y-92556443D01*
X89256921Y-92578387D01*
X89246956Y-92599457D01*
X89234974Y-92619448D01*
X89221090Y-92638168D01*
X89205438Y-92655438D01*
X89188168Y-92671090D01*
X89169448Y-92684974D01*
X89149457Y-92696956D01*
X89128387Y-92706921D01*
X89106443Y-92714773D01*
X89083834Y-92720437D01*
X89060779Y-92723856D01*
X89037500Y-92725000D01*
X88562500Y-92725000D01*
X88539221Y-92723856D01*
X88516166Y-92720437D01*
X88493557Y-92714773D01*
X88471613Y-92706921D01*
X88450543Y-92696956D01*
X88430552Y-92684974D01*
X88411832Y-92671090D01*
X88394562Y-92655438D01*
X88378910Y-92638168D01*
X88365026Y-92619448D01*
X88353044Y-92599457D01*
X88343079Y-92578387D01*
X88335227Y-92556443D01*
X88329563Y-92533834D01*
X88326144Y-92510779D01*
X88325000Y-92487500D01*
X88325000Y-91912500D01*
X88326144Y-91889221D01*
X88329563Y-91866166D01*
X88335227Y-91843557D01*
X88343079Y-91821613D01*
X88353044Y-91800543D01*
X88365026Y-91780552D01*
X88378910Y-91761832D01*
X88394562Y-91744562D01*
X88411832Y-91728910D01*
X88430552Y-91715026D01*
X88450543Y-91703044D01*
X88471613Y-91693079D01*
X88493557Y-91685227D01*
X88516166Y-91679563D01*
X88539221Y-91676144D01*
X88562500Y-91675000D01*
X89037500Y-91675000D01*
X89060779Y-91676144D01*
X89060779Y-91676144D01*
G37*
D15*
G04 #@! TD*
G04 #@! TO.P,C5,1*
G04 #@! TO.N,/P1.2*
X88800000Y-92200000D03*
D13*
G04 #@! TO.N,/P1.3*
G04 #@! TO.C,C6*
G36*
X89060779Y-98576144D02*
X89083834Y-98579563D01*
X89106443Y-98585227D01*
X89128387Y-98593079D01*
X89149457Y-98603044D01*
X89169448Y-98615026D01*
X89188168Y-98628910D01*
X89205438Y-98644562D01*
X89221090Y-98661832D01*
X89234974Y-98680552D01*
X89246956Y-98700543D01*
X89256921Y-98721613D01*
X89264773Y-98743557D01*
X89270437Y-98766166D01*
X89273856Y-98789221D01*
X89275000Y-98812500D01*
X89275000Y-99387500D01*
X89273856Y-99410779D01*
X89270437Y-99433834D01*
X89264773Y-99456443D01*
X89256921Y-99478387D01*
X89246956Y-99499457D01*
X89234974Y-99519448D01*
X89221090Y-99538168D01*
X89205438Y-99555438D01*
X89188168Y-99571090D01*
X89169448Y-99584974D01*
X89149457Y-99596956D01*
X89128387Y-99606921D01*
X89106443Y-99614773D01*
X89083834Y-99620437D01*
X89060779Y-99623856D01*
X89037500Y-99625000D01*
X88562500Y-99625000D01*
X88539221Y-99623856D01*
X88516166Y-99620437D01*
X88493557Y-99614773D01*
X88471613Y-99606921D01*
X88450543Y-99596956D01*
X88430552Y-99584974D01*
X88411832Y-99571090D01*
X88394562Y-99555438D01*
X88378910Y-99538168D01*
X88365026Y-99519448D01*
X88353044Y-99499457D01*
X88343079Y-99478387D01*
X88335227Y-99456443D01*
X88329563Y-99433834D01*
X88326144Y-99410779D01*
X88325000Y-99387500D01*
X88325000Y-98812500D01*
X88326144Y-98789221D01*
X88329563Y-98766166D01*
X88335227Y-98743557D01*
X88343079Y-98721613D01*
X88353044Y-98700543D01*
X88365026Y-98680552D01*
X88378910Y-98661832D01*
X88394562Y-98644562D01*
X88411832Y-98628910D01*
X88430552Y-98615026D01*
X88450543Y-98603044D01*
X88471613Y-98593079D01*
X88493557Y-98585227D01*
X88516166Y-98579563D01*
X88539221Y-98576144D01*
X88562500Y-98575000D01*
X89037500Y-98575000D01*
X89060779Y-98576144D01*
X89060779Y-98576144D01*
G37*
D15*
G04 #@! TD*
G04 #@! TO.P,C6,1*
G04 #@! TO.N,/P1.3*
X88800000Y-99100000D03*
D13*
G04 #@! TO.N,GND*
G04 #@! TO.C,C6*
G36*
X89060779Y-96826144D02*
X89083834Y-96829563D01*
X89106443Y-96835227D01*
X89128387Y-96843079D01*
X89149457Y-96853044D01*
X89169448Y-96865026D01*
X89188168Y-96878910D01*
X89205438Y-96894562D01*
X89221090Y-96911832D01*
X89234974Y-96930552D01*
X89246956Y-96950543D01*
X89256921Y-96971613D01*
X89264773Y-96993557D01*
X89270437Y-97016166D01*
X89273856Y-97039221D01*
X89275000Y-97062500D01*
X89275000Y-97637500D01*
X89273856Y-97660779D01*
X89270437Y-97683834D01*
X89264773Y-97706443D01*
X89256921Y-97728387D01*
X89246956Y-97749457D01*
X89234974Y-97769448D01*
X89221090Y-97788168D01*
X89205438Y-97805438D01*
X89188168Y-97821090D01*
X89169448Y-97834974D01*
X89149457Y-97846956D01*
X89128387Y-97856921D01*
X89106443Y-97864773D01*
X89083834Y-97870437D01*
X89060779Y-97873856D01*
X89037500Y-97875000D01*
X88562500Y-97875000D01*
X88539221Y-97873856D01*
X88516166Y-97870437D01*
X88493557Y-97864773D01*
X88471613Y-97856921D01*
X88450543Y-97846956D01*
X88430552Y-97834974D01*
X88411832Y-97821090D01*
X88394562Y-97805438D01*
X88378910Y-97788168D01*
X88365026Y-97769448D01*
X88353044Y-97749457D01*
X88343079Y-97728387D01*
X88335227Y-97706443D01*
X88329563Y-97683834D01*
X88326144Y-97660779D01*
X88325000Y-97637500D01*
X88325000Y-97062500D01*
X88326144Y-97039221D01*
X88329563Y-97016166D01*
X88335227Y-96993557D01*
X88343079Y-96971613D01*
X88353044Y-96950543D01*
X88365026Y-96930552D01*
X88378910Y-96911832D01*
X88394562Y-96894562D01*
X88411832Y-96878910D01*
X88430552Y-96865026D01*
X88450543Y-96853044D01*
X88471613Y-96843079D01*
X88493557Y-96835227D01*
X88516166Y-96829563D01*
X88539221Y-96826144D01*
X88562500Y-96825000D01*
X89037500Y-96825000D01*
X89060779Y-96826144D01*
X89060779Y-96826144D01*
G37*
D15*
G04 #@! TD*
G04 #@! TO.P,C6,2*
G04 #@! TO.N,GND*
X88800000Y-97350000D03*
D16*
G04 #@! TO.P,Y1,1*
G04 #@! TO.N,/P1.2*
X85000000Y-90400000D03*
G04 #@! TO.P,Y1,2*
G04 #@! TO.N,/P1.3*
X85000000Y-98900000D03*
G04 #@! TD*
D17*
G04 #@! TO.N,VCC*
X95000000Y-68500000D03*
X76600000Y-65800000D03*
X77800000Y-80000000D03*
X75400000Y-69400000D03*
X78800000Y-84200000D03*
X80600000Y-95400000D03*
X79200000Y-88400000D03*
X81600000Y-78400000D03*
G04 #@! TO.N,/RESET*
X86600000Y-84000000D03*
G04 #@! TO.N,/P3.0*
X89000000Y-83000000D03*
G04 #@! TO.N,/P3.1*
X88000000Y-84000000D03*
G04 #@! TO.N,GND*
X89000000Y-72000000D03*
X84000000Y-74800000D03*
X80400000Y-73400000D03*
X80400000Y-75800000D03*
X85400000Y-70600000D03*
X79000000Y-67600000D03*
X84200000Y-93400000D03*
X89600000Y-89600000D03*
X87200000Y-98000000D03*
X92600000Y-100200000D03*
X77800000Y-100400000D03*
X79400000Y-96200000D03*
X83000000Y-97800000D03*
X92800000Y-90200000D03*
X92800000Y-92800000D03*
X92800000Y-87600000D03*
G04 #@! TO.N,/P3.6*
X90400000Y-95200000D03*
X85400000Y-95600000D03*
G04 #@! TO.N,/P1.5*
X83800000Y-84000000D03*
G04 #@! TO.N,+3V3*
X80000000Y-81200000D03*
X79600000Y-83600000D03*
X81200000Y-94600000D03*
X80400000Y-88200000D03*
X80600000Y-77400000D03*
G04 #@! TO.N,/P1.2*
X78200000Y-88000000D03*
X84000000Y-78600000D03*
G04 #@! TO.N,/P1.3*
X85000000Y-78200000D03*
G04 #@! TO.N,/P3.7*
X88000000Y-70800000D03*
X86000000Y-72800000D03*
G04 #@! TO.N,/P3.5*
X89800000Y-94000000D03*
G04 #@! TO.N,/P3.4*
X89800000Y-91200000D03*
G04 #@! TO.N,/P3.3*
X89800000Y-88200000D03*
G04 #@! TO.N,/P1.1*
X78000000Y-81400000D03*
G04 #@! TO.N,/P1.4*
X82400000Y-84000000D03*
G04 #@! TO.N,/P3.2*
X81200000Y-86800000D03*
G04 #@! TO.N,/CC1*
X86400000Y-65800000D03*
G04 #@! TO.N,/CC2*
X84000000Y-65800000D03*
G04 #@! TO.N,VBUS*
X82600000Y-68600000D03*
X91600000Y-68600000D03*
G04 #@! TD*
D18*
G04 #@! TO.N,VCC*
X76200000Y-76200000D02*
X76000000Y-76200000D01*
X75000000Y-77200000D02*
X75000000Y-79400000D01*
X75600000Y-80000000D02*
X77800000Y-80000000D01*
X75000000Y-79400000D02*
X75600000Y-80000000D01*
X75000000Y-77200000D02*
X75000000Y-69800000D01*
X75000000Y-69800000D02*
X75400000Y-69400000D01*
X77800000Y-80000000D02*
X78800000Y-80000000D01*
X78800000Y-84200000D02*
X78800000Y-80000000D01*
X80200000Y-95000000D02*
X80600000Y-95400000D01*
X80200000Y-89400000D02*
X80200000Y-95000000D01*
X79200000Y-88400000D02*
X80200000Y-89400000D01*
X81600000Y-78400000D02*
X80000000Y-80000000D01*
X80000000Y-80000000D02*
X78800000Y-80000000D01*
X76500000Y-65900000D02*
X76500000Y-66000000D01*
X78200000Y-64200000D02*
X76500000Y-65900000D01*
D19*
X76600000Y-65800000D02*
X78200000Y-64200000D01*
D18*
X95000000Y-66500000D02*
X94900000Y-66400000D01*
D19*
X95000000Y-66500000D02*
X95000000Y-68500000D01*
X92700000Y-64200000D02*
X94900000Y-66400000D01*
X88800000Y-64200000D02*
X92700000Y-64200000D01*
X87800000Y-63200000D02*
X88800000Y-64200000D01*
X82000000Y-63200000D02*
X87800000Y-63200000D01*
X78200000Y-64200000D02*
X81000000Y-64200000D01*
X81000000Y-64200000D02*
X82000000Y-63200000D01*
X75200000Y-76200000D02*
X76200000Y-76200000D01*
X74800000Y-75800000D02*
X75200000Y-76200000D01*
X75400000Y-69400000D02*
X74800000Y-70000000D01*
X74800000Y-70000000D02*
X74800000Y-75800000D01*
D18*
G04 #@! TO.N,/RESET*
X86600000Y-84000000D02*
X87000000Y-83600000D01*
X87000000Y-83600000D02*
X87000000Y-79800000D01*
X88060000Y-78740000D02*
X93980000Y-78740000D01*
X87000000Y-79800000D02*
X88060000Y-78740000D01*
G04 #@! TO.N,/P3.0*
X89000000Y-83000000D02*
X92600000Y-83000000D01*
X93980000Y-81620000D02*
X93980000Y-81280000D01*
X92600000Y-83000000D02*
X93980000Y-81620000D01*
G04 #@! TO.N,/P3.1*
X88180000Y-83820000D02*
X88000000Y-84000000D01*
X93980000Y-83820000D02*
X88180000Y-83820000D01*
G04 #@! TO.N,/P3.6*
X90400000Y-95200000D02*
X91720000Y-96520000D01*
X92000000Y-96520000D02*
X93980000Y-96520000D01*
X91720000Y-96520000D02*
X92000000Y-96520000D01*
X86320000Y-96520000D02*
X92000000Y-96520000D01*
X85400000Y-95600000D02*
X86320000Y-96520000D01*
G04 #@! TO.N,/P1.5*
X84800000Y-84000000D02*
X83800000Y-84000000D01*
X85800000Y-83000000D02*
X84800000Y-84000000D01*
X85800000Y-74800000D02*
X85800000Y-83000000D01*
X84000000Y-68150000D02*
X84000000Y-73000000D01*
X84000000Y-73000000D02*
X85800000Y-74800000D01*
G04 #@! TO.N,+3V3*
X80000000Y-81200000D02*
X79600000Y-81600000D01*
X79600000Y-81600000D02*
X79600000Y-83600000D01*
X80600000Y-94000000D02*
X81200000Y-94600000D01*
X80400000Y-88200000D02*
X80600000Y-88400000D01*
X80600000Y-88400000D02*
X80600000Y-94000000D01*
X80600000Y-77400000D02*
X79260000Y-78740000D01*
X79260000Y-78740000D02*
X76200000Y-78740000D01*
G04 #@! TO.N,/P1.2*
X87000000Y-90400000D02*
X88800000Y-92200000D01*
X85000000Y-90400000D02*
X87000000Y-90400000D01*
X85000000Y-90400000D02*
X84200000Y-90400000D01*
X85000000Y-90400000D02*
X83600000Y-90400000D01*
X83600000Y-90400000D02*
X80200000Y-87000000D01*
X80200000Y-87000000D02*
X79200000Y-87000000D01*
X79200000Y-87000000D02*
X78200000Y-88000000D01*
X77840000Y-86360000D02*
X76200000Y-86360000D01*
X84000000Y-80200000D02*
X77840000Y-86360000D01*
X84000000Y-78600000D02*
X84000000Y-80200000D01*
G04 #@! TO.N,/P1.3*
X88600000Y-98900000D02*
X88800000Y-99100000D01*
X85000000Y-98900000D02*
X88600000Y-98900000D01*
X85000000Y-98900000D02*
X79700000Y-98900000D01*
X79700000Y-98900000D02*
X78400000Y-97600000D01*
X78400000Y-91100000D02*
X76200000Y-88900000D01*
X78400000Y-97600000D02*
X78400000Y-91100000D01*
X76200000Y-88600000D02*
X76200000Y-88900000D01*
X85000000Y-79800000D02*
X76200000Y-88600000D01*
X85000000Y-78200000D02*
X85000000Y-79800000D01*
G04 #@! TO.N,/P3.7*
X86000000Y-72800000D02*
X88000000Y-70800000D01*
G04 #@! TO.N,/P3.5*
X89820000Y-93980000D02*
X93980000Y-93980000D01*
X89800000Y-94000000D02*
X89820000Y-93980000D01*
G04 #@! TO.N,/P3.4*
X90040000Y-91440000D02*
X93980000Y-91440000D01*
X89800000Y-91200000D02*
X90040000Y-91440000D01*
G04 #@! TO.N,/P3.3*
X90500000Y-88900000D02*
X93980000Y-88900000D01*
X89800000Y-88200000D02*
X90500000Y-88900000D01*
G04 #@! TO.N,/P1.1*
X78000000Y-82020000D02*
X76200000Y-83820000D01*
X78000000Y-81400000D02*
X78000000Y-82020000D01*
G04 #@! TO.N,/P1.4*
X83200000Y-84800000D02*
X82400000Y-84000000D01*
X84400000Y-72800000D02*
X86200000Y-74600000D01*
X86200000Y-74600000D02*
X86200000Y-83200000D01*
X84400000Y-70250000D02*
X84400000Y-72800000D01*
X86500000Y-68150000D02*
X84400000Y-70250000D01*
X86200000Y-83200000D02*
X84600000Y-84800000D01*
X84600000Y-84800000D02*
X83200000Y-84800000D01*
G04 #@! TO.N,/P3.2*
X81640000Y-86360000D02*
X93980000Y-86360000D01*
X81200000Y-86800000D02*
X81640000Y-86360000D01*
G04 #@! TO.N,/CC1*
X86500000Y-67000000D02*
X86500000Y-65900000D01*
X86500000Y-65900000D02*
X86400000Y-65800000D01*
G04 #@! TO.N,/CC2*
X84000000Y-65800000D02*
X84000000Y-66850000D01*
D19*
G04 #@! TO.N,VBUS*
X82600000Y-68600000D02*
X81260000Y-68600000D01*
X77800000Y-72060000D02*
X76200000Y-73660000D01*
X81260000Y-68600000D02*
X77800000Y-72060000D01*
X91600000Y-65800000D02*
X91600000Y-68600000D01*
X90600000Y-64800000D02*
X91600000Y-65800000D01*
X77800000Y-66200000D02*
X79200000Y-64800000D01*
X79200000Y-64800000D02*
X81400000Y-64800000D01*
X77800000Y-72060000D02*
X77800000Y-66200000D01*
X81400000Y-64800000D02*
X82200000Y-64000000D01*
X88200000Y-64800000D02*
X90600000Y-64800000D01*
X82200000Y-64000000D02*
X87400000Y-64000000D01*
X87400000Y-64000000D02*
X88200000Y-64800000D01*
G04 #@! TD*
D18*
G04 #@! TO.N,GND*
G36*
X94400000Y-66748528D02*
X94400001Y-67968628D01*
X94321793Y-68046836D01*
X94200000Y-68340870D01*
X94200000Y-68659130D01*
X94321793Y-68953164D01*
X94546836Y-69178207D01*
X94840870Y-69300000D01*
X95159130Y-69300000D01*
X95453164Y-69178207D01*
X95525000Y-69106371D01*
X95525001Y-99466151D01*
X95459052Y-99926656D01*
X95280658Y-100319015D01*
X94999312Y-100645532D01*
X94637631Y-100879962D01*
X94208957Y-101008162D01*
X93982374Y-101025000D01*
X86407836Y-101025000D01*
X86407836Y-99400000D01*
X87919650Y-99400000D01*
X87966287Y-99634459D01*
X88106179Y-99843821D01*
X88315541Y-99983713D01*
X88562500Y-100032836D01*
X89037500Y-100032836D01*
X89284459Y-99983713D01*
X89493821Y-99843821D01*
X89633713Y-99634459D01*
X89682836Y-99387500D01*
X89682836Y-99060000D01*
X92705512Y-99060000D01*
X92802527Y-99547725D01*
X93078801Y-99961199D01*
X93492275Y-100237473D01*
X93856891Y-100310000D01*
X94103109Y-100310000D01*
X94467725Y-100237473D01*
X94881199Y-99961199D01*
X95157473Y-99547725D01*
X95254488Y-99060000D01*
X95157473Y-98572275D01*
X94881199Y-98158801D01*
X94467725Y-97882527D01*
X94103109Y-97810000D01*
X93856891Y-97810000D01*
X93492275Y-97882527D01*
X93078801Y-98158801D01*
X92802527Y-98572275D01*
X92705512Y-99060000D01*
X89682836Y-99060000D01*
X89682836Y-98812500D01*
X89633713Y-98565541D01*
X89493821Y-98356179D01*
X89365531Y-98270458D01*
X89501582Y-98214104D01*
X89614104Y-98101582D01*
X89675000Y-97954565D01*
X89675000Y-97500000D01*
X89575000Y-97400000D01*
X88850000Y-97400000D01*
X88850000Y-97420000D01*
X88750000Y-97420000D01*
X88750000Y-97400000D01*
X88025000Y-97400000D01*
X87925000Y-97500000D01*
X87925000Y-97954565D01*
X87985896Y-98101582D01*
X88098418Y-98214104D01*
X88234469Y-98270458D01*
X88106179Y-98356179D01*
X88076899Y-98400000D01*
X86407836Y-98400000D01*
X86407836Y-97020000D01*
X87925000Y-97020000D01*
X87925000Y-97200000D01*
X88025000Y-97300000D01*
X88750000Y-97300000D01*
X88750000Y-97280000D01*
X88850000Y-97280000D01*
X88850000Y-97300000D01*
X89575000Y-97300000D01*
X89675000Y-97200000D01*
X89675000Y-97020000D01*
X91670757Y-97020000D01*
X91720000Y-97029795D01*
X91769243Y-97020000D01*
X92810729Y-97020000D01*
X93078801Y-97421199D01*
X93492275Y-97697473D01*
X93856891Y-97770000D01*
X94103109Y-97770000D01*
X94467725Y-97697473D01*
X94881199Y-97421199D01*
X95157473Y-97007725D01*
X95254488Y-96520000D01*
X95157473Y-96032275D01*
X94881199Y-95618801D01*
X94467725Y-95342527D01*
X94103109Y-95270000D01*
X93856891Y-95270000D01*
X93492275Y-95342527D01*
X93078801Y-95618801D01*
X92810729Y-96020000D01*
X91927107Y-96020000D01*
X91200000Y-95292894D01*
X91200000Y-95040870D01*
X91078207Y-94746836D01*
X90853164Y-94521793D01*
X90752267Y-94480000D01*
X92810729Y-94480000D01*
X93078801Y-94881199D01*
X93492275Y-95157473D01*
X93856891Y-95230000D01*
X94103109Y-95230000D01*
X94467725Y-95157473D01*
X94881199Y-94881199D01*
X95157473Y-94467725D01*
X95254488Y-93980000D01*
X95157473Y-93492275D01*
X94881199Y-93078801D01*
X94467725Y-92802527D01*
X94103109Y-92730000D01*
X93856891Y-92730000D01*
X93492275Y-92802527D01*
X93078801Y-93078801D01*
X92810729Y-93480000D01*
X90411371Y-93480000D01*
X90253164Y-93321793D01*
X89959130Y-93200000D01*
X89640870Y-93200000D01*
X89346836Y-93321793D01*
X89121793Y-93546836D01*
X89000000Y-93840870D01*
X89000000Y-94159130D01*
X89121793Y-94453164D01*
X89346836Y-94678207D01*
X89640870Y-94800000D01*
X89699772Y-94800000D01*
X89600000Y-95040870D01*
X89600000Y-95359130D01*
X89721793Y-95653164D01*
X89946836Y-95878207D01*
X90240870Y-96000000D01*
X90492894Y-96000000D01*
X90512894Y-96020000D01*
X86527107Y-96020000D01*
X86200000Y-95692894D01*
X86200000Y-95440870D01*
X86078207Y-95146836D01*
X85853164Y-94921793D01*
X85559130Y-94800000D01*
X85240870Y-94800000D01*
X84946836Y-94921793D01*
X84721793Y-95146836D01*
X84600000Y-95440870D01*
X84600000Y-95759130D01*
X84721793Y-96053164D01*
X84910793Y-96242164D01*
X84000000Y-96242164D01*
X83843928Y-96273209D01*
X83711616Y-96361616D01*
X83623209Y-96493928D01*
X83592164Y-96650000D01*
X83592164Y-98400000D01*
X79907107Y-98400000D01*
X78900000Y-97392894D01*
X78900000Y-91149243D01*
X78909795Y-91100000D01*
X78870989Y-90904910D01*
X78793122Y-90788373D01*
X78760480Y-90739520D01*
X78718732Y-90711625D01*
X77380353Y-89373247D01*
X77474488Y-88900000D01*
X77377473Y-88412275D01*
X77264263Y-88242843D01*
X77400000Y-88107106D01*
X77400000Y-88159130D01*
X77521793Y-88453164D01*
X77746836Y-88678207D01*
X78040870Y-88800000D01*
X78359130Y-88800000D01*
X78479175Y-88750276D01*
X78521793Y-88853164D01*
X78746836Y-89078207D01*
X79040870Y-89200000D01*
X79292894Y-89200000D01*
X79700000Y-89607107D01*
X79700001Y-94950754D01*
X79690205Y-95000000D01*
X79721529Y-95157473D01*
X79729012Y-95195090D01*
X79800000Y-95301332D01*
X79800000Y-95559130D01*
X79921793Y-95853164D01*
X80146836Y-96078207D01*
X80440870Y-96200000D01*
X80759130Y-96200000D01*
X81053164Y-96078207D01*
X81278207Y-95853164D01*
X81400000Y-95559130D01*
X81400000Y-95383071D01*
X81653164Y-95278207D01*
X81878207Y-95053164D01*
X82000000Y-94759130D01*
X82000000Y-94440870D01*
X81878207Y-94146836D01*
X81653164Y-93921793D01*
X81359130Y-93800000D01*
X81107106Y-93800000D01*
X81100000Y-93792894D01*
X81100000Y-88607106D01*
X83211625Y-90718732D01*
X83239520Y-90760480D01*
X83404910Y-90870989D01*
X83550757Y-90900000D01*
X83550758Y-90900000D01*
X83592164Y-90908236D01*
X83592164Y-92650000D01*
X83623209Y-92806072D01*
X83711616Y-92938384D01*
X83843928Y-93026791D01*
X84000000Y-93057836D01*
X86000000Y-93057836D01*
X86156072Y-93026791D01*
X86288384Y-92938384D01*
X86376791Y-92806072D01*
X86407836Y-92650000D01*
X86407836Y-90900000D01*
X86792894Y-90900000D01*
X87917164Y-92024271D01*
X87917164Y-92487500D01*
X87966287Y-92734459D01*
X88106179Y-92943821D01*
X88315541Y-93083713D01*
X88562500Y-93132836D01*
X89037500Y-93132836D01*
X89284459Y-93083713D01*
X89493821Y-92943821D01*
X89633713Y-92734459D01*
X89682836Y-92487500D01*
X89682836Y-92000000D01*
X89959130Y-92000000D01*
X90103983Y-91940000D01*
X92810729Y-91940000D01*
X93078801Y-92341199D01*
X93492275Y-92617473D01*
X93856891Y-92690000D01*
X94103109Y-92690000D01*
X94467725Y-92617473D01*
X94881199Y-92341199D01*
X95157473Y-91927725D01*
X95254488Y-91440000D01*
X95157473Y-90952275D01*
X94881199Y-90538801D01*
X94467725Y-90262527D01*
X94103109Y-90190000D01*
X93856891Y-90190000D01*
X93492275Y-90262527D01*
X93078801Y-90538801D01*
X92810729Y-90940000D01*
X90558218Y-90940000D01*
X90478207Y-90746836D01*
X90253164Y-90521793D01*
X89959130Y-90400000D01*
X89675000Y-90400000D01*
X89675000Y-90399998D01*
X89575002Y-90399998D01*
X89675000Y-90300000D01*
X89675000Y-89845435D01*
X89614104Y-89698418D01*
X89501582Y-89585896D01*
X89354565Y-89525000D01*
X88950000Y-89525000D01*
X88850000Y-89625000D01*
X88850000Y-90400000D01*
X88870000Y-90400000D01*
X88870000Y-90500000D01*
X88850000Y-90500000D01*
X88850000Y-90520000D01*
X88750000Y-90520000D01*
X88750000Y-90500000D01*
X88025000Y-90500000D01*
X87925000Y-90600000D01*
X87925000Y-90617894D01*
X87388376Y-90081270D01*
X87360480Y-90039520D01*
X87195090Y-89929011D01*
X87049243Y-89900000D01*
X87049241Y-89900000D01*
X87000000Y-89890205D01*
X86950759Y-89900000D01*
X86407836Y-89900000D01*
X86407836Y-89845435D01*
X87925000Y-89845435D01*
X87925000Y-90300000D01*
X88025000Y-90400000D01*
X88750000Y-90400000D01*
X88750000Y-89625000D01*
X88650000Y-89525000D01*
X88245435Y-89525000D01*
X88098418Y-89585896D01*
X87985896Y-89698418D01*
X87925000Y-89845435D01*
X86407836Y-89845435D01*
X86407836Y-88150000D01*
X86386129Y-88040870D01*
X89000000Y-88040870D01*
X89000000Y-88359130D01*
X89121793Y-88653164D01*
X89346836Y-88878207D01*
X89640870Y-89000000D01*
X89892893Y-89000000D01*
X90111625Y-89218732D01*
X90139520Y-89260480D01*
X90304910Y-89370989D01*
X90450757Y-89400000D01*
X90450758Y-89400000D01*
X90499999Y-89409795D01*
X90549240Y-89400000D01*
X92810729Y-89400000D01*
X93078801Y-89801199D01*
X93492275Y-90077473D01*
X93856891Y-90150000D01*
X94103109Y-90150000D01*
X94467725Y-90077473D01*
X94881199Y-89801199D01*
X95157473Y-89387725D01*
X95254488Y-88900000D01*
X95157473Y-88412275D01*
X94881199Y-87998801D01*
X94467725Y-87722527D01*
X94103109Y-87650000D01*
X93856891Y-87650000D01*
X93492275Y-87722527D01*
X93078801Y-87998801D01*
X92810729Y-88400000D01*
X90707107Y-88400000D01*
X90600000Y-88292893D01*
X90600000Y-88040870D01*
X90478207Y-87746836D01*
X90253164Y-87521793D01*
X89959130Y-87400000D01*
X89640870Y-87400000D01*
X89346836Y-87521793D01*
X89121793Y-87746836D01*
X89000000Y-88040870D01*
X86386129Y-88040870D01*
X86376791Y-87993928D01*
X86288384Y-87861616D01*
X86156072Y-87773209D01*
X86000000Y-87742164D01*
X84000000Y-87742164D01*
X83843928Y-87773209D01*
X83711616Y-87861616D01*
X83623209Y-87993928D01*
X83592164Y-88150000D01*
X83592164Y-89685057D01*
X81463765Y-87556659D01*
X81653164Y-87478207D01*
X81878207Y-87253164D01*
X82000000Y-86959130D01*
X82000000Y-86860000D01*
X92810729Y-86860000D01*
X93078801Y-87261199D01*
X93492275Y-87537473D01*
X93856891Y-87610000D01*
X94103109Y-87610000D01*
X94467725Y-87537473D01*
X94881199Y-87261199D01*
X95157473Y-86847725D01*
X95254488Y-86360000D01*
X95157473Y-85872275D01*
X94881199Y-85458801D01*
X94467725Y-85182527D01*
X94103109Y-85110000D01*
X93856891Y-85110000D01*
X93492275Y-85182527D01*
X93078801Y-85458801D01*
X92810729Y-85860000D01*
X81689243Y-85860000D01*
X81640000Y-85850205D01*
X81444909Y-85889011D01*
X81375180Y-85935603D01*
X81279520Y-85999520D01*
X81279199Y-86000000D01*
X81040870Y-86000000D01*
X80746836Y-86121793D01*
X80521793Y-86346836D01*
X80435225Y-86555828D01*
X80395090Y-86529011D01*
X80249243Y-86500000D01*
X80249241Y-86500000D01*
X80200000Y-86490205D01*
X80150759Y-86500000D01*
X79249246Y-86500000D01*
X79200000Y-86490204D01*
X79004910Y-86529011D01*
X78924101Y-86583005D01*
X81600000Y-83907107D01*
X81600000Y-84159130D01*
X81721793Y-84453164D01*
X81946836Y-84678207D01*
X82240870Y-84800000D01*
X82492893Y-84800000D01*
X82811625Y-85118732D01*
X82839520Y-85160480D01*
X83004909Y-85270988D01*
X83004910Y-85270989D01*
X83200000Y-85309795D01*
X83249243Y-85300000D01*
X84550759Y-85300000D01*
X84600000Y-85309795D01*
X84649241Y-85300000D01*
X84649243Y-85300000D01*
X84795090Y-85270989D01*
X84960480Y-85160480D01*
X84988376Y-85118730D01*
X85843341Y-84263765D01*
X85921793Y-84453164D01*
X86146836Y-84678207D01*
X86440870Y-84800000D01*
X86759130Y-84800000D01*
X87053164Y-84678207D01*
X87278207Y-84453164D01*
X87300000Y-84400551D01*
X87321793Y-84453164D01*
X87546836Y-84678207D01*
X87840870Y-84800000D01*
X88159130Y-84800000D01*
X88453164Y-84678207D01*
X88678207Y-84453164D01*
X88733365Y-84320000D01*
X92810729Y-84320000D01*
X93078801Y-84721199D01*
X93492275Y-84997473D01*
X93856891Y-85070000D01*
X94103109Y-85070000D01*
X94467725Y-84997473D01*
X94881199Y-84721199D01*
X95157473Y-84307725D01*
X95254488Y-83820000D01*
X95157473Y-83332275D01*
X94881199Y-82918801D01*
X94467725Y-82642527D01*
X94103109Y-82570000D01*
X93856891Y-82570000D01*
X93707364Y-82599743D01*
X93790344Y-82516763D01*
X93856891Y-82530000D01*
X94103109Y-82530000D01*
X94467725Y-82457473D01*
X94881199Y-82181199D01*
X95157473Y-81767725D01*
X95254488Y-81280000D01*
X95157473Y-80792275D01*
X94881199Y-80378801D01*
X94467725Y-80102527D01*
X94103109Y-80030000D01*
X93856891Y-80030000D01*
X93492275Y-80102527D01*
X93078801Y-80378801D01*
X92802527Y-80792275D01*
X92705512Y-81280000D01*
X92802527Y-81767725D01*
X92931759Y-81961135D01*
X92392894Y-82500000D01*
X89631371Y-82500000D01*
X89453164Y-82321793D01*
X89159130Y-82200000D01*
X88840870Y-82200000D01*
X88546836Y-82321793D01*
X88321793Y-82546836D01*
X88200000Y-82840870D01*
X88200000Y-83159130D01*
X88228900Y-83228900D01*
X88159130Y-83200000D01*
X87840870Y-83200000D01*
X87546836Y-83321793D01*
X87500000Y-83368629D01*
X87500000Y-80007106D01*
X88267107Y-79240000D01*
X92810729Y-79240000D01*
X93078801Y-79641199D01*
X93492275Y-79917473D01*
X93856891Y-79990000D01*
X94103109Y-79990000D01*
X94467725Y-79917473D01*
X94881199Y-79641199D01*
X95157473Y-79227725D01*
X95254488Y-78740000D01*
X95157473Y-78252275D01*
X94881199Y-77838801D01*
X94467725Y-77562527D01*
X94103109Y-77490000D01*
X93856891Y-77490000D01*
X93492275Y-77562527D01*
X93078801Y-77838801D01*
X92810729Y-78240000D01*
X88109240Y-78240000D01*
X88059999Y-78230205D01*
X88010758Y-78240000D01*
X88010757Y-78240000D01*
X87864910Y-78269011D01*
X87699520Y-78379520D01*
X87671626Y-78421267D01*
X86700000Y-79392894D01*
X86700000Y-76444771D01*
X92754199Y-76444771D01*
X92940145Y-76893695D01*
X93284765Y-77238826D01*
X93735228Y-77425805D01*
X93930000Y-77349004D01*
X93930000Y-76250000D01*
X94030000Y-76250000D01*
X94030000Y-77349004D01*
X94224772Y-77425805D01*
X94675235Y-77238826D01*
X95019855Y-76893695D01*
X95205801Y-76444771D01*
X95128913Y-76250000D01*
X94030000Y-76250000D01*
X93930000Y-76250000D01*
X92831087Y-76250000D01*
X92754199Y-76444771D01*
X86700000Y-76444771D01*
X86700000Y-75955229D01*
X92754199Y-75955229D01*
X92831087Y-76150000D01*
X93930000Y-76150000D01*
X93930000Y-75050996D01*
X94030000Y-75050996D01*
X94030000Y-76150000D01*
X95128913Y-76150000D01*
X95205801Y-75955229D01*
X95019855Y-75506305D01*
X94675235Y-75161174D01*
X94224772Y-74974195D01*
X94030000Y-75050996D01*
X93930000Y-75050996D01*
X93735228Y-74974195D01*
X93284765Y-75161174D01*
X92940145Y-75506305D01*
X92754199Y-75955229D01*
X86700000Y-75955229D01*
X86700000Y-74649240D01*
X86709795Y-74599999D01*
X86677873Y-74439520D01*
X86670989Y-74404910D01*
X86560480Y-74239520D01*
X86518733Y-74211626D01*
X86117107Y-73810000D01*
X92730000Y-73810000D01*
X92730000Y-74589565D01*
X92790896Y-74736582D01*
X92903418Y-74849104D01*
X93050435Y-74910000D01*
X93830000Y-74910000D01*
X93930000Y-74810000D01*
X93930000Y-73710000D01*
X94030000Y-73710000D01*
X94030000Y-74810000D01*
X94130000Y-74910000D01*
X94909565Y-74910000D01*
X95056582Y-74849104D01*
X95169104Y-74736582D01*
X95230000Y-74589565D01*
X95230000Y-73810000D01*
X95130000Y-73710000D01*
X94030000Y-73710000D01*
X93930000Y-73710000D01*
X92830000Y-73710000D01*
X92730000Y-73810000D01*
X86117107Y-73810000D01*
X85907107Y-73600000D01*
X86159130Y-73600000D01*
X86453164Y-73478207D01*
X86678207Y-73253164D01*
X86800000Y-72959130D01*
X86800000Y-72730435D01*
X92730000Y-72730435D01*
X92730000Y-73510000D01*
X92830000Y-73610000D01*
X93930000Y-73610000D01*
X93930000Y-72510000D01*
X94030000Y-72510000D01*
X94030000Y-73610000D01*
X95130000Y-73610000D01*
X95230000Y-73510000D01*
X95230000Y-72730435D01*
X95169104Y-72583418D01*
X95056582Y-72470896D01*
X94909565Y-72410000D01*
X94130000Y-72410000D01*
X94030000Y-72510000D01*
X93930000Y-72510000D01*
X93830000Y-72410000D01*
X93050435Y-72410000D01*
X92903418Y-72470896D01*
X92790896Y-72583418D01*
X92730000Y-72730435D01*
X86800000Y-72730435D01*
X86800000Y-72707106D01*
X87907107Y-71600000D01*
X88159130Y-71600000D01*
X88453164Y-71478207D01*
X88678207Y-71253164D01*
X88800000Y-70959130D01*
X88800000Y-70640870D01*
X88678207Y-70346836D01*
X88453164Y-70121793D01*
X88159130Y-70000000D01*
X87840870Y-70000000D01*
X87546836Y-70121793D01*
X87321793Y-70346836D01*
X87200000Y-70640870D01*
X87200000Y-70892893D01*
X86092894Y-72000000D01*
X85840870Y-72000000D01*
X85546836Y-72121793D01*
X85321793Y-72346836D01*
X85200000Y-72640870D01*
X85200000Y-72892894D01*
X84900000Y-72592894D01*
X84900000Y-70457106D01*
X86299271Y-69057836D01*
X86750000Y-69057836D01*
X86762106Y-69055428D01*
X86799009Y-69055428D01*
X86878574Y-69047592D01*
X86974707Y-69028470D01*
X87051212Y-69005262D01*
X87141768Y-68967753D01*
X87212280Y-68930064D01*
X87293779Y-68875608D01*
X87355581Y-68824889D01*
X87424889Y-68755581D01*
X87475608Y-68693779D01*
X87530064Y-68612280D01*
X87567753Y-68541768D01*
X87605262Y-68451212D01*
X87628470Y-68374707D01*
X87647592Y-68278574D01*
X87655428Y-68199009D01*
X87655428Y-68162106D01*
X87657836Y-68150000D01*
X87657836Y-67650000D01*
X87627999Y-67500000D01*
X87657836Y-67350000D01*
X87657836Y-66850000D01*
X87655995Y-66840747D01*
X87750761Y-66880000D01*
X88029239Y-66880000D01*
X88286518Y-66773432D01*
X88329950Y-66730000D01*
X88475000Y-66730000D01*
X88475000Y-67280000D01*
X88558837Y-67601475D01*
X88759315Y-67866396D01*
X89045913Y-68034432D01*
X89142877Y-68060259D01*
X89275000Y-67978331D01*
X89275000Y-66730000D01*
X89375000Y-66730000D01*
X89375000Y-67978331D01*
X89507123Y-68060259D01*
X89604087Y-68034432D01*
X89890685Y-67866396D01*
X90091163Y-67601475D01*
X90175000Y-67280000D01*
X90175000Y-66730000D01*
X89375000Y-66730000D01*
X89275000Y-66730000D01*
X88475000Y-66730000D01*
X88329950Y-66730000D01*
X88475000Y-66584950D01*
X88475000Y-66630000D01*
X89275000Y-66630000D01*
X89275000Y-66610000D01*
X89375000Y-66610000D01*
X89375000Y-66630000D01*
X90175000Y-66630000D01*
X90175000Y-66080000D01*
X90091163Y-65758525D01*
X89890685Y-65493604D01*
X89731036Y-65400000D01*
X90351473Y-65400000D01*
X91000000Y-66048529D01*
X91000001Y-68068628D01*
X90921793Y-68146836D01*
X90800000Y-68440870D01*
X90800000Y-68759130D01*
X90921793Y-69053164D01*
X91146836Y-69278207D01*
X91440870Y-69400000D01*
X91759130Y-69400000D01*
X92053164Y-69278207D01*
X92278207Y-69053164D01*
X92400000Y-68759130D01*
X92400000Y-68440870D01*
X92278207Y-68146836D01*
X92200000Y-68068629D01*
X92200000Y-65859088D01*
X92211753Y-65800000D01*
X92200000Y-65740910D01*
X92200000Y-65740909D01*
X92165187Y-65565892D01*
X92147566Y-65539520D01*
X92066048Y-65417519D01*
X92066045Y-65417516D01*
X92032575Y-65367425D01*
X91982484Y-65333956D01*
X91448528Y-64800000D01*
X92451473Y-64800000D01*
X94400000Y-66748528D01*
X94400000Y-66748528D01*
G37*
X94400000Y-66748528D02*
X94400001Y-67968628D01*
X94321793Y-68046836D01*
X94200000Y-68340870D01*
X94200000Y-68659130D01*
X94321793Y-68953164D01*
X94546836Y-69178207D01*
X94840870Y-69300000D01*
X95159130Y-69300000D01*
X95453164Y-69178207D01*
X95525000Y-69106371D01*
X95525001Y-99466151D01*
X95459052Y-99926656D01*
X95280658Y-100319015D01*
X94999312Y-100645532D01*
X94637631Y-100879962D01*
X94208957Y-101008162D01*
X93982374Y-101025000D01*
X86407836Y-101025000D01*
X86407836Y-99400000D01*
X87919650Y-99400000D01*
X87966287Y-99634459D01*
X88106179Y-99843821D01*
X88315541Y-99983713D01*
X88562500Y-100032836D01*
X89037500Y-100032836D01*
X89284459Y-99983713D01*
X89493821Y-99843821D01*
X89633713Y-99634459D01*
X89682836Y-99387500D01*
X89682836Y-99060000D01*
X92705512Y-99060000D01*
X92802527Y-99547725D01*
X93078801Y-99961199D01*
X93492275Y-100237473D01*
X93856891Y-100310000D01*
X94103109Y-100310000D01*
X94467725Y-100237473D01*
X94881199Y-99961199D01*
X95157473Y-99547725D01*
X95254488Y-99060000D01*
X95157473Y-98572275D01*
X94881199Y-98158801D01*
X94467725Y-97882527D01*
X94103109Y-97810000D01*
X93856891Y-97810000D01*
X93492275Y-97882527D01*
X93078801Y-98158801D01*
X92802527Y-98572275D01*
X92705512Y-99060000D01*
X89682836Y-99060000D01*
X89682836Y-98812500D01*
X89633713Y-98565541D01*
X89493821Y-98356179D01*
X89365531Y-98270458D01*
X89501582Y-98214104D01*
X89614104Y-98101582D01*
X89675000Y-97954565D01*
X89675000Y-97500000D01*
X89575000Y-97400000D01*
X88850000Y-97400000D01*
X88850000Y-97420000D01*
X88750000Y-97420000D01*
X88750000Y-97400000D01*
X88025000Y-97400000D01*
X87925000Y-97500000D01*
X87925000Y-97954565D01*
X87985896Y-98101582D01*
X88098418Y-98214104D01*
X88234469Y-98270458D01*
X88106179Y-98356179D01*
X88076899Y-98400000D01*
X86407836Y-98400000D01*
X86407836Y-97020000D01*
X87925000Y-97020000D01*
X87925000Y-97200000D01*
X88025000Y-97300000D01*
X88750000Y-97300000D01*
X88750000Y-97280000D01*
X88850000Y-97280000D01*
X88850000Y-97300000D01*
X89575000Y-97300000D01*
X89675000Y-97200000D01*
X89675000Y-97020000D01*
X91670757Y-97020000D01*
X91720000Y-97029795D01*
X91769243Y-97020000D01*
X92810729Y-97020000D01*
X93078801Y-97421199D01*
X93492275Y-97697473D01*
X93856891Y-97770000D01*
X94103109Y-97770000D01*
X94467725Y-97697473D01*
X94881199Y-97421199D01*
X95157473Y-97007725D01*
X95254488Y-96520000D01*
X95157473Y-96032275D01*
X94881199Y-95618801D01*
X94467725Y-95342527D01*
X94103109Y-95270000D01*
X93856891Y-95270000D01*
X93492275Y-95342527D01*
X93078801Y-95618801D01*
X92810729Y-96020000D01*
X91927107Y-96020000D01*
X91200000Y-95292894D01*
X91200000Y-95040870D01*
X91078207Y-94746836D01*
X90853164Y-94521793D01*
X90752267Y-94480000D01*
X92810729Y-94480000D01*
X93078801Y-94881199D01*
X93492275Y-95157473D01*
X93856891Y-95230000D01*
X94103109Y-95230000D01*
X94467725Y-95157473D01*
X94881199Y-94881199D01*
X95157473Y-94467725D01*
X95254488Y-93980000D01*
X95157473Y-93492275D01*
X94881199Y-93078801D01*
X94467725Y-92802527D01*
X94103109Y-92730000D01*
X93856891Y-92730000D01*
X93492275Y-92802527D01*
X93078801Y-93078801D01*
X92810729Y-93480000D01*
X90411371Y-93480000D01*
X90253164Y-93321793D01*
X89959130Y-93200000D01*
X89640870Y-93200000D01*
X89346836Y-93321793D01*
X89121793Y-93546836D01*
X89000000Y-93840870D01*
X89000000Y-94159130D01*
X89121793Y-94453164D01*
X89346836Y-94678207D01*
X89640870Y-94800000D01*
X89699772Y-94800000D01*
X89600000Y-95040870D01*
X89600000Y-95359130D01*
X89721793Y-95653164D01*
X89946836Y-95878207D01*
X90240870Y-96000000D01*
X90492894Y-96000000D01*
X90512894Y-96020000D01*
X86527107Y-96020000D01*
X86200000Y-95692894D01*
X86200000Y-95440870D01*
X86078207Y-95146836D01*
X85853164Y-94921793D01*
X85559130Y-94800000D01*
X85240870Y-94800000D01*
X84946836Y-94921793D01*
X84721793Y-95146836D01*
X84600000Y-95440870D01*
X84600000Y-95759130D01*
X84721793Y-96053164D01*
X84910793Y-96242164D01*
X84000000Y-96242164D01*
X83843928Y-96273209D01*
X83711616Y-96361616D01*
X83623209Y-96493928D01*
X83592164Y-96650000D01*
X83592164Y-98400000D01*
X79907107Y-98400000D01*
X78900000Y-97392894D01*
X78900000Y-91149243D01*
X78909795Y-91100000D01*
X78870989Y-90904910D01*
X78793122Y-90788373D01*
X78760480Y-90739520D01*
X78718732Y-90711625D01*
X77380353Y-89373247D01*
X77474488Y-88900000D01*
X77377473Y-88412275D01*
X77264263Y-88242843D01*
X77400000Y-88107106D01*
X77400000Y-88159130D01*
X77521793Y-88453164D01*
X77746836Y-88678207D01*
X78040870Y-88800000D01*
X78359130Y-88800000D01*
X78479175Y-88750276D01*
X78521793Y-88853164D01*
X78746836Y-89078207D01*
X79040870Y-89200000D01*
X79292894Y-89200000D01*
X79700000Y-89607107D01*
X79700001Y-94950754D01*
X79690205Y-95000000D01*
X79721529Y-95157473D01*
X79729012Y-95195090D01*
X79800000Y-95301332D01*
X79800000Y-95559130D01*
X79921793Y-95853164D01*
X80146836Y-96078207D01*
X80440870Y-96200000D01*
X80759130Y-96200000D01*
X81053164Y-96078207D01*
X81278207Y-95853164D01*
X81400000Y-95559130D01*
X81400000Y-95383071D01*
X81653164Y-95278207D01*
X81878207Y-95053164D01*
X82000000Y-94759130D01*
X82000000Y-94440870D01*
X81878207Y-94146836D01*
X81653164Y-93921793D01*
X81359130Y-93800000D01*
X81107106Y-93800000D01*
X81100000Y-93792894D01*
X81100000Y-88607106D01*
X83211625Y-90718732D01*
X83239520Y-90760480D01*
X83404910Y-90870989D01*
X83550757Y-90900000D01*
X83550758Y-90900000D01*
X83592164Y-90908236D01*
X83592164Y-92650000D01*
X83623209Y-92806072D01*
X83711616Y-92938384D01*
X83843928Y-93026791D01*
X84000000Y-93057836D01*
X86000000Y-93057836D01*
X86156072Y-93026791D01*
X86288384Y-92938384D01*
X86376791Y-92806072D01*
X86407836Y-92650000D01*
X86407836Y-90900000D01*
X86792894Y-90900000D01*
X87917164Y-92024271D01*
X87917164Y-92487500D01*
X87966287Y-92734459D01*
X88106179Y-92943821D01*
X88315541Y-93083713D01*
X88562500Y-93132836D01*
X89037500Y-93132836D01*
X89284459Y-93083713D01*
X89493821Y-92943821D01*
X89633713Y-92734459D01*
X89682836Y-92487500D01*
X89682836Y-92000000D01*
X89959130Y-92000000D01*
X90103983Y-91940000D01*
X92810729Y-91940000D01*
X93078801Y-92341199D01*
X93492275Y-92617473D01*
X93856891Y-92690000D01*
X94103109Y-92690000D01*
X94467725Y-92617473D01*
X94881199Y-92341199D01*
X95157473Y-91927725D01*
X95254488Y-91440000D01*
X95157473Y-90952275D01*
X94881199Y-90538801D01*
X94467725Y-90262527D01*
X94103109Y-90190000D01*
X93856891Y-90190000D01*
X93492275Y-90262527D01*
X93078801Y-90538801D01*
X92810729Y-90940000D01*
X90558218Y-90940000D01*
X90478207Y-90746836D01*
X90253164Y-90521793D01*
X89959130Y-90400000D01*
X89675000Y-90400000D01*
X89675000Y-90399998D01*
X89575002Y-90399998D01*
X89675000Y-90300000D01*
X89675000Y-89845435D01*
X89614104Y-89698418D01*
X89501582Y-89585896D01*
X89354565Y-89525000D01*
X88950000Y-89525000D01*
X88850000Y-89625000D01*
X88850000Y-90400000D01*
X88870000Y-90400000D01*
X88870000Y-90500000D01*
X88850000Y-90500000D01*
X88850000Y-90520000D01*
X88750000Y-90520000D01*
X88750000Y-90500000D01*
X88025000Y-90500000D01*
X87925000Y-90600000D01*
X87925000Y-90617894D01*
X87388376Y-90081270D01*
X87360480Y-90039520D01*
X87195090Y-89929011D01*
X87049243Y-89900000D01*
X87049241Y-89900000D01*
X87000000Y-89890205D01*
X86950759Y-89900000D01*
X86407836Y-89900000D01*
X86407836Y-89845435D01*
X87925000Y-89845435D01*
X87925000Y-90300000D01*
X88025000Y-90400000D01*
X88750000Y-90400000D01*
X88750000Y-89625000D01*
X88650000Y-89525000D01*
X88245435Y-89525000D01*
X88098418Y-89585896D01*
X87985896Y-89698418D01*
X87925000Y-89845435D01*
X86407836Y-89845435D01*
X86407836Y-88150000D01*
X86386129Y-88040870D01*
X89000000Y-88040870D01*
X89000000Y-88359130D01*
X89121793Y-88653164D01*
X89346836Y-88878207D01*
X89640870Y-89000000D01*
X89892893Y-89000000D01*
X90111625Y-89218732D01*
X90139520Y-89260480D01*
X90304910Y-89370989D01*
X90450757Y-89400000D01*
X90450758Y-89400000D01*
X90499999Y-89409795D01*
X90549240Y-89400000D01*
X92810729Y-89400000D01*
X93078801Y-89801199D01*
X93492275Y-90077473D01*
X93856891Y-90150000D01*
X94103109Y-90150000D01*
X94467725Y-90077473D01*
X94881199Y-89801199D01*
X95157473Y-89387725D01*
X95254488Y-88900000D01*
X95157473Y-88412275D01*
X94881199Y-87998801D01*
X94467725Y-87722527D01*
X94103109Y-87650000D01*
X93856891Y-87650000D01*
X93492275Y-87722527D01*
X93078801Y-87998801D01*
X92810729Y-88400000D01*
X90707107Y-88400000D01*
X90600000Y-88292893D01*
X90600000Y-88040870D01*
X90478207Y-87746836D01*
X90253164Y-87521793D01*
X89959130Y-87400000D01*
X89640870Y-87400000D01*
X89346836Y-87521793D01*
X89121793Y-87746836D01*
X89000000Y-88040870D01*
X86386129Y-88040870D01*
X86376791Y-87993928D01*
X86288384Y-87861616D01*
X86156072Y-87773209D01*
X86000000Y-87742164D01*
X84000000Y-87742164D01*
X83843928Y-87773209D01*
X83711616Y-87861616D01*
X83623209Y-87993928D01*
X83592164Y-88150000D01*
X83592164Y-89685057D01*
X81463765Y-87556659D01*
X81653164Y-87478207D01*
X81878207Y-87253164D01*
X82000000Y-86959130D01*
X82000000Y-86860000D01*
X92810729Y-86860000D01*
X93078801Y-87261199D01*
X93492275Y-87537473D01*
X93856891Y-87610000D01*
X94103109Y-87610000D01*
X94467725Y-87537473D01*
X94881199Y-87261199D01*
X95157473Y-86847725D01*
X95254488Y-86360000D01*
X95157473Y-85872275D01*
X94881199Y-85458801D01*
X94467725Y-85182527D01*
X94103109Y-85110000D01*
X93856891Y-85110000D01*
X93492275Y-85182527D01*
X93078801Y-85458801D01*
X92810729Y-85860000D01*
X81689243Y-85860000D01*
X81640000Y-85850205D01*
X81444909Y-85889011D01*
X81375180Y-85935603D01*
X81279520Y-85999520D01*
X81279199Y-86000000D01*
X81040870Y-86000000D01*
X80746836Y-86121793D01*
X80521793Y-86346836D01*
X80435225Y-86555828D01*
X80395090Y-86529011D01*
X80249243Y-86500000D01*
X80249241Y-86500000D01*
X80200000Y-86490205D01*
X80150759Y-86500000D01*
X79249246Y-86500000D01*
X79200000Y-86490204D01*
X79004910Y-86529011D01*
X78924101Y-86583005D01*
X81600000Y-83907107D01*
X81600000Y-84159130D01*
X81721793Y-84453164D01*
X81946836Y-84678207D01*
X82240870Y-84800000D01*
X82492893Y-84800000D01*
X82811625Y-85118732D01*
X82839520Y-85160480D01*
X83004909Y-85270988D01*
X83004910Y-85270989D01*
X83200000Y-85309795D01*
X83249243Y-85300000D01*
X84550759Y-85300000D01*
X84600000Y-85309795D01*
X84649241Y-85300000D01*
X84649243Y-85300000D01*
X84795090Y-85270989D01*
X84960480Y-85160480D01*
X84988376Y-85118730D01*
X85843341Y-84263765D01*
X85921793Y-84453164D01*
X86146836Y-84678207D01*
X86440870Y-84800000D01*
X86759130Y-84800000D01*
X87053164Y-84678207D01*
X87278207Y-84453164D01*
X87300000Y-84400551D01*
X87321793Y-84453164D01*
X87546836Y-84678207D01*
X87840870Y-84800000D01*
X88159130Y-84800000D01*
X88453164Y-84678207D01*
X88678207Y-84453164D01*
X88733365Y-84320000D01*
X92810729Y-84320000D01*
X93078801Y-84721199D01*
X93492275Y-84997473D01*
X93856891Y-85070000D01*
X94103109Y-85070000D01*
X94467725Y-84997473D01*
X94881199Y-84721199D01*
X95157473Y-84307725D01*
X95254488Y-83820000D01*
X95157473Y-83332275D01*
X94881199Y-82918801D01*
X94467725Y-82642527D01*
X94103109Y-82570000D01*
X93856891Y-82570000D01*
X93707364Y-82599743D01*
X93790344Y-82516763D01*
X93856891Y-82530000D01*
X94103109Y-82530000D01*
X94467725Y-82457473D01*
X94881199Y-82181199D01*
X95157473Y-81767725D01*
X95254488Y-81280000D01*
X95157473Y-80792275D01*
X94881199Y-80378801D01*
X94467725Y-80102527D01*
X94103109Y-80030000D01*
X93856891Y-80030000D01*
X93492275Y-80102527D01*
X93078801Y-80378801D01*
X92802527Y-80792275D01*
X92705512Y-81280000D01*
X92802527Y-81767725D01*
X92931759Y-81961135D01*
X92392894Y-82500000D01*
X89631371Y-82500000D01*
X89453164Y-82321793D01*
X89159130Y-82200000D01*
X88840870Y-82200000D01*
X88546836Y-82321793D01*
X88321793Y-82546836D01*
X88200000Y-82840870D01*
X88200000Y-83159130D01*
X88228900Y-83228900D01*
X88159130Y-83200000D01*
X87840870Y-83200000D01*
X87546836Y-83321793D01*
X87500000Y-83368629D01*
X87500000Y-80007106D01*
X88267107Y-79240000D01*
X92810729Y-79240000D01*
X93078801Y-79641199D01*
X93492275Y-79917473D01*
X93856891Y-79990000D01*
X94103109Y-79990000D01*
X94467725Y-79917473D01*
X94881199Y-79641199D01*
X95157473Y-79227725D01*
X95254488Y-78740000D01*
X95157473Y-78252275D01*
X94881199Y-77838801D01*
X94467725Y-77562527D01*
X94103109Y-77490000D01*
X93856891Y-77490000D01*
X93492275Y-77562527D01*
X93078801Y-77838801D01*
X92810729Y-78240000D01*
X88109240Y-78240000D01*
X88059999Y-78230205D01*
X88010758Y-78240000D01*
X88010757Y-78240000D01*
X87864910Y-78269011D01*
X87699520Y-78379520D01*
X87671626Y-78421267D01*
X86700000Y-79392894D01*
X86700000Y-76444771D01*
X92754199Y-76444771D01*
X92940145Y-76893695D01*
X93284765Y-77238826D01*
X93735228Y-77425805D01*
X93930000Y-77349004D01*
X93930000Y-76250000D01*
X94030000Y-76250000D01*
X94030000Y-77349004D01*
X94224772Y-77425805D01*
X94675235Y-77238826D01*
X95019855Y-76893695D01*
X95205801Y-76444771D01*
X95128913Y-76250000D01*
X94030000Y-76250000D01*
X93930000Y-76250000D01*
X92831087Y-76250000D01*
X92754199Y-76444771D01*
X86700000Y-76444771D01*
X86700000Y-75955229D01*
X92754199Y-75955229D01*
X92831087Y-76150000D01*
X93930000Y-76150000D01*
X93930000Y-75050996D01*
X94030000Y-75050996D01*
X94030000Y-76150000D01*
X95128913Y-76150000D01*
X95205801Y-75955229D01*
X95019855Y-75506305D01*
X94675235Y-75161174D01*
X94224772Y-74974195D01*
X94030000Y-75050996D01*
X93930000Y-75050996D01*
X93735228Y-74974195D01*
X93284765Y-75161174D01*
X92940145Y-75506305D01*
X92754199Y-75955229D01*
X86700000Y-75955229D01*
X86700000Y-74649240D01*
X86709795Y-74599999D01*
X86677873Y-74439520D01*
X86670989Y-74404910D01*
X86560480Y-74239520D01*
X86518733Y-74211626D01*
X86117107Y-73810000D01*
X92730000Y-73810000D01*
X92730000Y-74589565D01*
X92790896Y-74736582D01*
X92903418Y-74849104D01*
X93050435Y-74910000D01*
X93830000Y-74910000D01*
X93930000Y-74810000D01*
X93930000Y-73710000D01*
X94030000Y-73710000D01*
X94030000Y-74810000D01*
X94130000Y-74910000D01*
X94909565Y-74910000D01*
X95056582Y-74849104D01*
X95169104Y-74736582D01*
X95230000Y-74589565D01*
X95230000Y-73810000D01*
X95130000Y-73710000D01*
X94030000Y-73710000D01*
X93930000Y-73710000D01*
X92830000Y-73710000D01*
X92730000Y-73810000D01*
X86117107Y-73810000D01*
X85907107Y-73600000D01*
X86159130Y-73600000D01*
X86453164Y-73478207D01*
X86678207Y-73253164D01*
X86800000Y-72959130D01*
X86800000Y-72730435D01*
X92730000Y-72730435D01*
X92730000Y-73510000D01*
X92830000Y-73610000D01*
X93930000Y-73610000D01*
X93930000Y-72510000D01*
X94030000Y-72510000D01*
X94030000Y-73610000D01*
X95130000Y-73610000D01*
X95230000Y-73510000D01*
X95230000Y-72730435D01*
X95169104Y-72583418D01*
X95056582Y-72470896D01*
X94909565Y-72410000D01*
X94130000Y-72410000D01*
X94030000Y-72510000D01*
X93930000Y-72510000D01*
X93830000Y-72410000D01*
X93050435Y-72410000D01*
X92903418Y-72470896D01*
X92790896Y-72583418D01*
X92730000Y-72730435D01*
X86800000Y-72730435D01*
X86800000Y-72707106D01*
X87907107Y-71600000D01*
X88159130Y-71600000D01*
X88453164Y-71478207D01*
X88678207Y-71253164D01*
X88800000Y-70959130D01*
X88800000Y-70640870D01*
X88678207Y-70346836D01*
X88453164Y-70121793D01*
X88159130Y-70000000D01*
X87840870Y-70000000D01*
X87546836Y-70121793D01*
X87321793Y-70346836D01*
X87200000Y-70640870D01*
X87200000Y-70892893D01*
X86092894Y-72000000D01*
X85840870Y-72000000D01*
X85546836Y-72121793D01*
X85321793Y-72346836D01*
X85200000Y-72640870D01*
X85200000Y-72892894D01*
X84900000Y-72592894D01*
X84900000Y-70457106D01*
X86299271Y-69057836D01*
X86750000Y-69057836D01*
X86762106Y-69055428D01*
X86799009Y-69055428D01*
X86878574Y-69047592D01*
X86974707Y-69028470D01*
X87051212Y-69005262D01*
X87141768Y-68967753D01*
X87212280Y-68930064D01*
X87293779Y-68875608D01*
X87355581Y-68824889D01*
X87424889Y-68755581D01*
X87475608Y-68693779D01*
X87530064Y-68612280D01*
X87567753Y-68541768D01*
X87605262Y-68451212D01*
X87628470Y-68374707D01*
X87647592Y-68278574D01*
X87655428Y-68199009D01*
X87655428Y-68162106D01*
X87657836Y-68150000D01*
X87657836Y-67650000D01*
X87627999Y-67500000D01*
X87657836Y-67350000D01*
X87657836Y-66850000D01*
X87655995Y-66840747D01*
X87750761Y-66880000D01*
X88029239Y-66880000D01*
X88286518Y-66773432D01*
X88329950Y-66730000D01*
X88475000Y-66730000D01*
X88475000Y-67280000D01*
X88558837Y-67601475D01*
X88759315Y-67866396D01*
X89045913Y-68034432D01*
X89142877Y-68060259D01*
X89275000Y-67978331D01*
X89275000Y-66730000D01*
X89375000Y-66730000D01*
X89375000Y-67978331D01*
X89507123Y-68060259D01*
X89604087Y-68034432D01*
X89890685Y-67866396D01*
X90091163Y-67601475D01*
X90175000Y-67280000D01*
X90175000Y-66730000D01*
X89375000Y-66730000D01*
X89275000Y-66730000D01*
X88475000Y-66730000D01*
X88329950Y-66730000D01*
X88475000Y-66584950D01*
X88475000Y-66630000D01*
X89275000Y-66630000D01*
X89275000Y-66610000D01*
X89375000Y-66610000D01*
X89375000Y-66630000D01*
X90175000Y-66630000D01*
X90175000Y-66080000D01*
X90091163Y-65758525D01*
X89890685Y-65493604D01*
X89731036Y-65400000D01*
X90351473Y-65400000D01*
X91000000Y-66048529D01*
X91000001Y-68068628D01*
X90921793Y-68146836D01*
X90800000Y-68440870D01*
X90800000Y-68759130D01*
X90921793Y-69053164D01*
X91146836Y-69278207D01*
X91440870Y-69400000D01*
X91759130Y-69400000D01*
X92053164Y-69278207D01*
X92278207Y-69053164D01*
X92400000Y-68759130D01*
X92400000Y-68440870D01*
X92278207Y-68146836D01*
X92200000Y-68068629D01*
X92200000Y-65859088D01*
X92211753Y-65800000D01*
X92200000Y-65740910D01*
X92200000Y-65740909D01*
X92165187Y-65565892D01*
X92147566Y-65539520D01*
X92066048Y-65417519D01*
X92066045Y-65417516D01*
X92032575Y-65367425D01*
X91982484Y-65333956D01*
X91448528Y-64800000D01*
X92451473Y-64800000D01*
X94400000Y-66748528D01*
G36*
X74500000Y-76348527D02*
X74500000Y-77150758D01*
X74500001Y-79350754D01*
X74490205Y-79400000D01*
X74529012Y-79595090D01*
X74639521Y-79760480D01*
X74681268Y-79788374D01*
X75211625Y-80318732D01*
X75239520Y-80360480D01*
X75288967Y-80393519D01*
X75022527Y-80792275D01*
X74925512Y-81280000D01*
X75022527Y-81767725D01*
X75298801Y-82181199D01*
X75712275Y-82457473D01*
X76076891Y-82530000D01*
X76323109Y-82530000D01*
X76687725Y-82457473D01*
X77101199Y-82181199D01*
X77321254Y-81851863D01*
X77321793Y-81853164D01*
X77390761Y-81922132D01*
X76673247Y-82639647D01*
X76323109Y-82570000D01*
X76076891Y-82570000D01*
X75712275Y-82642527D01*
X75298801Y-82918801D01*
X75022527Y-83332275D01*
X74925512Y-83820000D01*
X75022527Y-84307725D01*
X75298801Y-84721199D01*
X75712275Y-84997473D01*
X76076891Y-85070000D01*
X76323109Y-85070000D01*
X76687725Y-84997473D01*
X77101199Y-84721199D01*
X77377473Y-84307725D01*
X77474488Y-83820000D01*
X77380353Y-83346753D01*
X78300000Y-82427107D01*
X78300000Y-83568629D01*
X78121793Y-83746836D01*
X78000000Y-84040870D01*
X78000000Y-84359130D01*
X78121793Y-84653164D01*
X78346836Y-84878207D01*
X78536235Y-84956659D01*
X77632894Y-85860000D01*
X77369271Y-85860000D01*
X77101199Y-85458801D01*
X76687725Y-85182527D01*
X76323109Y-85110000D01*
X76076891Y-85110000D01*
X75712275Y-85182527D01*
X75298801Y-85458801D01*
X75022527Y-85872275D01*
X74925512Y-86360000D01*
X75022527Y-86847725D01*
X75298801Y-87261199D01*
X75712275Y-87537473D01*
X76076891Y-87610000D01*
X76323109Y-87610000D01*
X76522569Y-87570325D01*
X76423020Y-87669874D01*
X76323109Y-87650000D01*
X76076891Y-87650000D01*
X75712275Y-87722527D01*
X75298801Y-87998801D01*
X75022527Y-88412275D01*
X74925512Y-88900000D01*
X75022527Y-89387725D01*
X75298801Y-89801199D01*
X75712275Y-90077473D01*
X76076891Y-90150000D01*
X76323109Y-90150000D01*
X76673247Y-90080353D01*
X77900001Y-91307108D01*
X77900000Y-97550759D01*
X77890205Y-97600000D01*
X77900000Y-97649241D01*
X77900000Y-97649242D01*
X77929011Y-97795089D01*
X78039520Y-97960480D01*
X78081270Y-97988376D01*
X79311625Y-99218732D01*
X79339520Y-99260480D01*
X79436705Y-99325416D01*
X79504910Y-99370989D01*
X79700000Y-99409795D01*
X79749243Y-99400000D01*
X83592164Y-99400000D01*
X83592164Y-101025000D01*
X76033842Y-101025000D01*
X75573344Y-100959052D01*
X75180985Y-100780658D01*
X74854468Y-100499312D01*
X74620038Y-100137631D01*
X74491838Y-99708957D01*
X74475000Y-99482374D01*
X74475000Y-99060000D01*
X74925512Y-99060000D01*
X75022527Y-99547725D01*
X75298801Y-99961199D01*
X75712275Y-100237473D01*
X76076891Y-100310000D01*
X76323109Y-100310000D01*
X76687725Y-100237473D01*
X77101199Y-99961199D01*
X77377473Y-99547725D01*
X77474488Y-99060000D01*
X77377473Y-98572275D01*
X77101199Y-98158801D01*
X76687725Y-97882527D01*
X76323109Y-97810000D01*
X76076891Y-97810000D01*
X75712275Y-97882527D01*
X75298801Y-98158801D01*
X75022527Y-98572275D01*
X74925512Y-99060000D01*
X74475000Y-99060000D01*
X74475000Y-96520000D01*
X74925512Y-96520000D01*
X75022527Y-97007725D01*
X75298801Y-97421199D01*
X75712275Y-97697473D01*
X76076891Y-97770000D01*
X76323109Y-97770000D01*
X76687725Y-97697473D01*
X77101199Y-97421199D01*
X77377473Y-97007725D01*
X77474488Y-96520000D01*
X77377473Y-96032275D01*
X77101199Y-95618801D01*
X76687725Y-95342527D01*
X76323109Y-95270000D01*
X76076891Y-95270000D01*
X75712275Y-95342527D01*
X75298801Y-95618801D01*
X75022527Y-96032275D01*
X74925512Y-96520000D01*
X74475000Y-96520000D01*
X74475000Y-93980000D01*
X74925512Y-93980000D01*
X75022527Y-94467725D01*
X75298801Y-94881199D01*
X75712275Y-95157473D01*
X76076891Y-95230000D01*
X76323109Y-95230000D01*
X76687725Y-95157473D01*
X77101199Y-94881199D01*
X77377473Y-94467725D01*
X77474488Y-93980000D01*
X77377473Y-93492275D01*
X77101199Y-93078801D01*
X76687725Y-92802527D01*
X76323109Y-92730000D01*
X76076891Y-92730000D01*
X75712275Y-92802527D01*
X75298801Y-93078801D01*
X75022527Y-93492275D01*
X74925512Y-93980000D01*
X74475000Y-93980000D01*
X74475000Y-91440000D01*
X74925512Y-91440000D01*
X75022527Y-91927725D01*
X75298801Y-92341199D01*
X75712275Y-92617473D01*
X76076891Y-92690000D01*
X76323109Y-92690000D01*
X76687725Y-92617473D01*
X77101199Y-92341199D01*
X77377473Y-91927725D01*
X77474488Y-91440000D01*
X77377473Y-90952275D01*
X77101199Y-90538801D01*
X76687725Y-90262527D01*
X76323109Y-90190000D01*
X76076891Y-90190000D01*
X75712275Y-90262527D01*
X75298801Y-90538801D01*
X75022527Y-90952275D01*
X74925512Y-91440000D01*
X74475000Y-91440000D01*
X74475000Y-76323527D01*
X74500000Y-76348527D01*
X74500000Y-76348527D01*
G37*
X74500000Y-76348527D02*
X74500000Y-77150758D01*
X74500001Y-79350754D01*
X74490205Y-79400000D01*
X74529012Y-79595090D01*
X74639521Y-79760480D01*
X74681268Y-79788374D01*
X75211625Y-80318732D01*
X75239520Y-80360480D01*
X75288967Y-80393519D01*
X75022527Y-80792275D01*
X74925512Y-81280000D01*
X75022527Y-81767725D01*
X75298801Y-82181199D01*
X75712275Y-82457473D01*
X76076891Y-82530000D01*
X76323109Y-82530000D01*
X76687725Y-82457473D01*
X77101199Y-82181199D01*
X77321254Y-81851863D01*
X77321793Y-81853164D01*
X77390761Y-81922132D01*
X76673247Y-82639647D01*
X76323109Y-82570000D01*
X76076891Y-82570000D01*
X75712275Y-82642527D01*
X75298801Y-82918801D01*
X75022527Y-83332275D01*
X74925512Y-83820000D01*
X75022527Y-84307725D01*
X75298801Y-84721199D01*
X75712275Y-84997473D01*
X76076891Y-85070000D01*
X76323109Y-85070000D01*
X76687725Y-84997473D01*
X77101199Y-84721199D01*
X77377473Y-84307725D01*
X77474488Y-83820000D01*
X77380353Y-83346753D01*
X78300000Y-82427107D01*
X78300000Y-83568629D01*
X78121793Y-83746836D01*
X78000000Y-84040870D01*
X78000000Y-84359130D01*
X78121793Y-84653164D01*
X78346836Y-84878207D01*
X78536235Y-84956659D01*
X77632894Y-85860000D01*
X77369271Y-85860000D01*
X77101199Y-85458801D01*
X76687725Y-85182527D01*
X76323109Y-85110000D01*
X76076891Y-85110000D01*
X75712275Y-85182527D01*
X75298801Y-85458801D01*
X75022527Y-85872275D01*
X74925512Y-86360000D01*
X75022527Y-86847725D01*
X75298801Y-87261199D01*
X75712275Y-87537473D01*
X76076891Y-87610000D01*
X76323109Y-87610000D01*
X76522569Y-87570325D01*
X76423020Y-87669874D01*
X76323109Y-87650000D01*
X76076891Y-87650000D01*
X75712275Y-87722527D01*
X75298801Y-87998801D01*
X75022527Y-88412275D01*
X74925512Y-88900000D01*
X75022527Y-89387725D01*
X75298801Y-89801199D01*
X75712275Y-90077473D01*
X76076891Y-90150000D01*
X76323109Y-90150000D01*
X76673247Y-90080353D01*
X77900001Y-91307108D01*
X77900000Y-97550759D01*
X77890205Y-97600000D01*
X77900000Y-97649241D01*
X77900000Y-97649242D01*
X77929011Y-97795089D01*
X78039520Y-97960480D01*
X78081270Y-97988376D01*
X79311625Y-99218732D01*
X79339520Y-99260480D01*
X79436705Y-99325416D01*
X79504910Y-99370989D01*
X79700000Y-99409795D01*
X79749243Y-99400000D01*
X83592164Y-99400000D01*
X83592164Y-101025000D01*
X76033842Y-101025000D01*
X75573344Y-100959052D01*
X75180985Y-100780658D01*
X74854468Y-100499312D01*
X74620038Y-100137631D01*
X74491838Y-99708957D01*
X74475000Y-99482374D01*
X74475000Y-99060000D01*
X74925512Y-99060000D01*
X75022527Y-99547725D01*
X75298801Y-99961199D01*
X75712275Y-100237473D01*
X76076891Y-100310000D01*
X76323109Y-100310000D01*
X76687725Y-100237473D01*
X77101199Y-99961199D01*
X77377473Y-99547725D01*
X77474488Y-99060000D01*
X77377473Y-98572275D01*
X77101199Y-98158801D01*
X76687725Y-97882527D01*
X76323109Y-97810000D01*
X76076891Y-97810000D01*
X75712275Y-97882527D01*
X75298801Y-98158801D01*
X75022527Y-98572275D01*
X74925512Y-99060000D01*
X74475000Y-99060000D01*
X74475000Y-96520000D01*
X74925512Y-96520000D01*
X75022527Y-97007725D01*
X75298801Y-97421199D01*
X75712275Y-97697473D01*
X76076891Y-97770000D01*
X76323109Y-97770000D01*
X76687725Y-97697473D01*
X77101199Y-97421199D01*
X77377473Y-97007725D01*
X77474488Y-96520000D01*
X77377473Y-96032275D01*
X77101199Y-95618801D01*
X76687725Y-95342527D01*
X76323109Y-95270000D01*
X76076891Y-95270000D01*
X75712275Y-95342527D01*
X75298801Y-95618801D01*
X75022527Y-96032275D01*
X74925512Y-96520000D01*
X74475000Y-96520000D01*
X74475000Y-93980000D01*
X74925512Y-93980000D01*
X75022527Y-94467725D01*
X75298801Y-94881199D01*
X75712275Y-95157473D01*
X76076891Y-95230000D01*
X76323109Y-95230000D01*
X76687725Y-95157473D01*
X77101199Y-94881199D01*
X77377473Y-94467725D01*
X77474488Y-93980000D01*
X77377473Y-93492275D01*
X77101199Y-93078801D01*
X76687725Y-92802527D01*
X76323109Y-92730000D01*
X76076891Y-92730000D01*
X75712275Y-92802527D01*
X75298801Y-93078801D01*
X75022527Y-93492275D01*
X74925512Y-93980000D01*
X74475000Y-93980000D01*
X74475000Y-91440000D01*
X74925512Y-91440000D01*
X75022527Y-91927725D01*
X75298801Y-92341199D01*
X75712275Y-92617473D01*
X76076891Y-92690000D01*
X76323109Y-92690000D01*
X76687725Y-92617473D01*
X77101199Y-92341199D01*
X77377473Y-91927725D01*
X77474488Y-91440000D01*
X77377473Y-90952275D01*
X77101199Y-90538801D01*
X76687725Y-90262527D01*
X76323109Y-90190000D01*
X76076891Y-90190000D01*
X75712275Y-90262527D01*
X75298801Y-90538801D01*
X75022527Y-90952275D01*
X74925512Y-91440000D01*
X74475000Y-91440000D01*
X74475000Y-76323527D01*
X74500000Y-76348527D01*
G36*
X83358232Y-68967753D02*
X83448788Y-69005262D01*
X83500000Y-69020797D01*
X83500001Y-72950754D01*
X83490205Y-73000000D01*
X83527676Y-73188373D01*
X83529012Y-73195090D01*
X83639521Y-73360480D01*
X83681268Y-73388374D01*
X85300000Y-75007107D01*
X85300000Y-77458350D01*
X85159130Y-77400000D01*
X84840870Y-77400000D01*
X84546836Y-77521793D01*
X84321793Y-77746836D01*
X84279175Y-77849724D01*
X84159130Y-77800000D01*
X83840870Y-77800000D01*
X83546836Y-77921793D01*
X83321793Y-78146836D01*
X83200000Y-78440870D01*
X83200000Y-78759130D01*
X83321793Y-79053164D01*
X83500000Y-79231371D01*
X83500001Y-79992892D01*
X80298080Y-83194814D01*
X80278207Y-83146836D01*
X80100000Y-82968629D01*
X80100000Y-82000000D01*
X80159130Y-82000000D01*
X80453164Y-81878207D01*
X80678207Y-81653164D01*
X80800000Y-81359130D01*
X80800000Y-81040870D01*
X80678207Y-80746836D01*
X80453164Y-80521793D01*
X80246914Y-80436361D01*
X80360480Y-80360480D01*
X80388376Y-80318730D01*
X81507107Y-79200000D01*
X81759130Y-79200000D01*
X82053164Y-79078207D01*
X82278207Y-78853164D01*
X82400000Y-78559130D01*
X82400000Y-78240870D01*
X82278207Y-77946836D01*
X82053164Y-77721793D01*
X81759130Y-77600000D01*
X81440870Y-77600000D01*
X81371100Y-77628900D01*
X81400000Y-77559130D01*
X81400000Y-77240870D01*
X81278207Y-76946836D01*
X81053164Y-76721793D01*
X80759130Y-76600000D01*
X80440870Y-76600000D01*
X80146836Y-76721793D01*
X79921793Y-76946836D01*
X79800000Y-77240870D01*
X79800000Y-77492893D01*
X79052894Y-78240000D01*
X77369271Y-78240000D01*
X77101199Y-77838801D01*
X76687725Y-77562527D01*
X76323109Y-77490000D01*
X76076891Y-77490000D01*
X75712275Y-77562527D01*
X75500000Y-77704364D01*
X75500000Y-77235636D01*
X75712275Y-77377473D01*
X76076891Y-77450000D01*
X76323109Y-77450000D01*
X76687725Y-77377473D01*
X77101199Y-77101199D01*
X77377473Y-76687725D01*
X77474488Y-76200000D01*
X77377473Y-75712275D01*
X77101199Y-75298801D01*
X76687725Y-75022527D01*
X76323109Y-74950000D01*
X76076891Y-74950000D01*
X75712275Y-75022527D01*
X75500000Y-75164364D01*
X75500000Y-74917836D01*
X77050000Y-74917836D01*
X77206072Y-74886791D01*
X77338384Y-74798384D01*
X77426791Y-74666072D01*
X77457836Y-74510000D01*
X77457836Y-73250692D01*
X78182482Y-72526046D01*
X78232575Y-72492575D01*
X78266049Y-72442478D01*
X81508528Y-69200000D01*
X82068629Y-69200000D01*
X82146836Y-69278207D01*
X82440870Y-69400000D01*
X82759130Y-69400000D01*
X83053164Y-69278207D01*
X83278207Y-69053164D01*
X83321678Y-68948215D01*
X83358232Y-68967753D01*
X83358232Y-68967753D01*
G37*
X83358232Y-68967753D02*
X83448788Y-69005262D01*
X83500000Y-69020797D01*
X83500001Y-72950754D01*
X83490205Y-73000000D01*
X83527676Y-73188373D01*
X83529012Y-73195090D01*
X83639521Y-73360480D01*
X83681268Y-73388374D01*
X85300000Y-75007107D01*
X85300000Y-77458350D01*
X85159130Y-77400000D01*
X84840870Y-77400000D01*
X84546836Y-77521793D01*
X84321793Y-77746836D01*
X84279175Y-77849724D01*
X84159130Y-77800000D01*
X83840870Y-77800000D01*
X83546836Y-77921793D01*
X83321793Y-78146836D01*
X83200000Y-78440870D01*
X83200000Y-78759130D01*
X83321793Y-79053164D01*
X83500000Y-79231371D01*
X83500001Y-79992892D01*
X80298080Y-83194814D01*
X80278207Y-83146836D01*
X80100000Y-82968629D01*
X80100000Y-82000000D01*
X80159130Y-82000000D01*
X80453164Y-81878207D01*
X80678207Y-81653164D01*
X80800000Y-81359130D01*
X80800000Y-81040870D01*
X80678207Y-80746836D01*
X80453164Y-80521793D01*
X80246914Y-80436361D01*
X80360480Y-80360480D01*
X80388376Y-80318730D01*
X81507107Y-79200000D01*
X81759130Y-79200000D01*
X82053164Y-79078207D01*
X82278207Y-78853164D01*
X82400000Y-78559130D01*
X82400000Y-78240870D01*
X82278207Y-77946836D01*
X82053164Y-77721793D01*
X81759130Y-77600000D01*
X81440870Y-77600000D01*
X81371100Y-77628900D01*
X81400000Y-77559130D01*
X81400000Y-77240870D01*
X81278207Y-76946836D01*
X81053164Y-76721793D01*
X80759130Y-76600000D01*
X80440870Y-76600000D01*
X80146836Y-76721793D01*
X79921793Y-76946836D01*
X79800000Y-77240870D01*
X79800000Y-77492893D01*
X79052894Y-78240000D01*
X77369271Y-78240000D01*
X77101199Y-77838801D01*
X76687725Y-77562527D01*
X76323109Y-77490000D01*
X76076891Y-77490000D01*
X75712275Y-77562527D01*
X75500000Y-77704364D01*
X75500000Y-77235636D01*
X75712275Y-77377473D01*
X76076891Y-77450000D01*
X76323109Y-77450000D01*
X76687725Y-77377473D01*
X77101199Y-77101199D01*
X77377473Y-76687725D01*
X77474488Y-76200000D01*
X77377473Y-75712275D01*
X77101199Y-75298801D01*
X76687725Y-75022527D01*
X76323109Y-74950000D01*
X76076891Y-74950000D01*
X75712275Y-75022527D01*
X75500000Y-75164364D01*
X75500000Y-74917836D01*
X77050000Y-74917836D01*
X77206072Y-74886791D01*
X77338384Y-74798384D01*
X77426791Y-74666072D01*
X77457836Y-74510000D01*
X77457836Y-73250692D01*
X78182482Y-72526046D01*
X78232575Y-72492575D01*
X78266049Y-72442478D01*
X81508528Y-69200000D01*
X82068629Y-69200000D01*
X82146836Y-69278207D01*
X82440870Y-69400000D01*
X82759130Y-69400000D01*
X83053164Y-69278207D01*
X83278207Y-69053164D01*
X83321678Y-68948215D01*
X83358232Y-68967753D01*
G36*
X79908837Y-61578525D02*
X79825000Y-61900000D01*
X79825000Y-62450000D01*
X80625000Y-62450000D01*
X80625000Y-62430000D01*
X80725000Y-62430000D01*
X80725000Y-62450000D01*
X81525000Y-62450000D01*
X81525000Y-61900000D01*
X81441163Y-61578525D01*
X81362821Y-61475000D01*
X88637179Y-61475000D01*
X88558837Y-61578525D01*
X88475000Y-61900000D01*
X88475000Y-62450000D01*
X89275000Y-62450000D01*
X89275000Y-62430000D01*
X89375000Y-62430000D01*
X89375000Y-62450000D01*
X90175000Y-62450000D01*
X90175000Y-61900000D01*
X90091163Y-61578525D01*
X90012821Y-61475000D01*
X93966158Y-61475000D01*
X94426658Y-61540949D01*
X94819014Y-61719342D01*
X95145532Y-62000688D01*
X95379961Y-62362368D01*
X95508162Y-62791043D01*
X95525000Y-63017626D01*
X95525000Y-66205748D01*
X95432575Y-66067425D01*
X95372630Y-66027371D01*
X95366047Y-66017519D01*
X93166049Y-63817522D01*
X93132575Y-63767425D01*
X92934108Y-63634813D01*
X92759091Y-63600000D01*
X92759086Y-63600000D01*
X92700000Y-63588247D01*
X92640914Y-63600000D01*
X89956065Y-63600000D01*
X90091163Y-63421475D01*
X90175000Y-63100000D01*
X90175000Y-62550000D01*
X89375000Y-62550000D01*
X89375000Y-62570000D01*
X89275000Y-62570000D01*
X89275000Y-62550000D01*
X88475000Y-62550000D01*
X88475000Y-63026472D01*
X88266048Y-62817521D01*
X88232575Y-62767425D01*
X88034108Y-62634813D01*
X87859091Y-62600000D01*
X87859086Y-62600000D01*
X87800000Y-62588247D01*
X87740914Y-62600000D01*
X82059088Y-62600000D01*
X82000000Y-62588247D01*
X81940912Y-62600000D01*
X81940909Y-62600000D01*
X81783563Y-62631298D01*
X81765892Y-62634813D01*
X81617519Y-62733952D01*
X81617516Y-62733955D01*
X81567425Y-62767425D01*
X81533955Y-62817516D01*
X81525000Y-62826471D01*
X81525000Y-62550000D01*
X80725000Y-62550000D01*
X80725000Y-62570000D01*
X80625000Y-62570000D01*
X80625000Y-62550000D01*
X79825000Y-62550000D01*
X79825000Y-63100000D01*
X79908837Y-63421475D01*
X80043935Y-63600000D01*
X78259088Y-63600000D01*
X78200000Y-63588247D01*
X78140912Y-63600000D01*
X78140909Y-63600000D01*
X77965892Y-63634813D01*
X77767425Y-63767425D01*
X77733953Y-63817519D01*
X76551473Y-65000000D01*
X76440870Y-65000000D01*
X76146836Y-65121793D01*
X75921793Y-65346836D01*
X75800000Y-65640870D01*
X75800000Y-65959130D01*
X75921793Y-66253164D01*
X76146836Y-66478207D01*
X76440870Y-66600000D01*
X76759130Y-66600000D01*
X77053164Y-66478207D01*
X77200001Y-66331370D01*
X77200000Y-71811472D01*
X76609308Y-72402164D01*
X75500000Y-72402164D01*
X75500000Y-70200000D01*
X75559130Y-70200000D01*
X75853164Y-70078207D01*
X76078207Y-69853164D01*
X76200000Y-69559130D01*
X76200000Y-69240870D01*
X76078207Y-68946836D01*
X75853164Y-68721793D01*
X75559130Y-68600000D01*
X75240870Y-68600000D01*
X74946836Y-68721793D01*
X74721793Y-68946836D01*
X74600000Y-69240870D01*
X74600000Y-69351473D01*
X74475000Y-69476473D01*
X74475000Y-63033842D01*
X74540949Y-62573342D01*
X74719342Y-62180986D01*
X75000688Y-61854468D01*
X75362368Y-61620039D01*
X75791043Y-61491838D01*
X76017626Y-61475000D01*
X79987179Y-61475000D01*
X79908837Y-61578525D01*
X79908837Y-61578525D01*
G37*
X79908837Y-61578525D02*
X79825000Y-61900000D01*
X79825000Y-62450000D01*
X80625000Y-62450000D01*
X80625000Y-62430000D01*
X80725000Y-62430000D01*
X80725000Y-62450000D01*
X81525000Y-62450000D01*
X81525000Y-61900000D01*
X81441163Y-61578525D01*
X81362821Y-61475000D01*
X88637179Y-61475000D01*
X88558837Y-61578525D01*
X88475000Y-61900000D01*
X88475000Y-62450000D01*
X89275000Y-62450000D01*
X89275000Y-62430000D01*
X89375000Y-62430000D01*
X89375000Y-62450000D01*
X90175000Y-62450000D01*
X90175000Y-61900000D01*
X90091163Y-61578525D01*
X90012821Y-61475000D01*
X93966158Y-61475000D01*
X94426658Y-61540949D01*
X94819014Y-61719342D01*
X95145532Y-62000688D01*
X95379961Y-62362368D01*
X95508162Y-62791043D01*
X95525000Y-63017626D01*
X95525000Y-66205748D01*
X95432575Y-66067425D01*
X95372630Y-66027371D01*
X95366047Y-66017519D01*
X93166049Y-63817522D01*
X93132575Y-63767425D01*
X92934108Y-63634813D01*
X92759091Y-63600000D01*
X92759086Y-63600000D01*
X92700000Y-63588247D01*
X92640914Y-63600000D01*
X89956065Y-63600000D01*
X90091163Y-63421475D01*
X90175000Y-63100000D01*
X90175000Y-62550000D01*
X89375000Y-62550000D01*
X89375000Y-62570000D01*
X89275000Y-62570000D01*
X89275000Y-62550000D01*
X88475000Y-62550000D01*
X88475000Y-63026472D01*
X88266048Y-62817521D01*
X88232575Y-62767425D01*
X88034108Y-62634813D01*
X87859091Y-62600000D01*
X87859086Y-62600000D01*
X87800000Y-62588247D01*
X87740914Y-62600000D01*
X82059088Y-62600000D01*
X82000000Y-62588247D01*
X81940912Y-62600000D01*
X81940909Y-62600000D01*
X81783563Y-62631298D01*
X81765892Y-62634813D01*
X81617519Y-62733952D01*
X81617516Y-62733955D01*
X81567425Y-62767425D01*
X81533955Y-62817516D01*
X81525000Y-62826471D01*
X81525000Y-62550000D01*
X80725000Y-62550000D01*
X80725000Y-62570000D01*
X80625000Y-62570000D01*
X80625000Y-62550000D01*
X79825000Y-62550000D01*
X79825000Y-63100000D01*
X79908837Y-63421475D01*
X80043935Y-63600000D01*
X78259088Y-63600000D01*
X78200000Y-63588247D01*
X78140912Y-63600000D01*
X78140909Y-63600000D01*
X77965892Y-63634813D01*
X77767425Y-63767425D01*
X77733953Y-63817519D01*
X76551473Y-65000000D01*
X76440870Y-65000000D01*
X76146836Y-65121793D01*
X75921793Y-65346836D01*
X75800000Y-65640870D01*
X75800000Y-65959130D01*
X75921793Y-66253164D01*
X76146836Y-66478207D01*
X76440870Y-66600000D01*
X76759130Y-66600000D01*
X77053164Y-66478207D01*
X77200001Y-66331370D01*
X77200000Y-71811472D01*
X76609308Y-72402164D01*
X75500000Y-72402164D01*
X75500000Y-70200000D01*
X75559130Y-70200000D01*
X75853164Y-70078207D01*
X76078207Y-69853164D01*
X76200000Y-69559130D01*
X76200000Y-69240870D01*
X76078207Y-68946836D01*
X75853164Y-68721793D01*
X75559130Y-68600000D01*
X75240870Y-68600000D01*
X74946836Y-68721793D01*
X74721793Y-68946836D01*
X74600000Y-69240870D01*
X74600000Y-69351473D01*
X74475000Y-69476473D01*
X74475000Y-63033842D01*
X74540949Y-62573342D01*
X74719342Y-62180986D01*
X75000688Y-61854468D01*
X75362368Y-61620039D01*
X75791043Y-61491838D01*
X76017626Y-61475000D01*
X79987179Y-61475000D01*
X79908837Y-61578525D01*
G36*
X87733952Y-65182480D02*
X87767425Y-65232575D01*
X87817519Y-65266047D01*
X87965891Y-65365187D01*
X88007687Y-65373501D01*
X88140909Y-65400000D01*
X88140912Y-65400000D01*
X88200000Y-65411753D01*
X88259088Y-65400000D01*
X88918964Y-65400000D01*
X88759315Y-65493604D01*
X88558837Y-65758525D01*
X88525710Y-65885551D01*
X88483432Y-65783482D01*
X88286518Y-65586568D01*
X88029239Y-65480000D01*
X87750761Y-65480000D01*
X87493482Y-65586568D01*
X87296568Y-65783482D01*
X87190000Y-66040761D01*
X87190000Y-66058027D01*
X87164648Y-66044477D01*
X87200000Y-65959130D01*
X87200000Y-65640870D01*
X87078207Y-65346836D01*
X86853164Y-65121793D01*
X86559130Y-65000000D01*
X86240870Y-65000000D01*
X85946836Y-65121793D01*
X85721793Y-65346836D01*
X85600000Y-65640870D01*
X85600000Y-65959130D01*
X85678035Y-66147523D01*
X85644419Y-66175111D01*
X85575111Y-66244419D01*
X85524392Y-66306221D01*
X85469936Y-66387720D01*
X85432247Y-66458232D01*
X85394738Y-66548788D01*
X85371530Y-66625293D01*
X85352408Y-66721426D01*
X85344572Y-66800991D01*
X85344572Y-66837894D01*
X85342164Y-66850000D01*
X85342164Y-67350000D01*
X85372001Y-67500000D01*
X85342164Y-67650000D01*
X85342164Y-68150000D01*
X85344572Y-68162106D01*
X85344572Y-68199009D01*
X85352408Y-68278574D01*
X85371530Y-68374707D01*
X85394738Y-68451212D01*
X85423132Y-68519762D01*
X84500000Y-69442894D01*
X84500000Y-69020797D01*
X84551212Y-69005262D01*
X84641768Y-68967753D01*
X84712280Y-68930064D01*
X84793779Y-68875608D01*
X84855581Y-68824889D01*
X84924889Y-68755581D01*
X84975608Y-68693779D01*
X85030064Y-68612280D01*
X85067753Y-68541768D01*
X85105262Y-68451212D01*
X85128470Y-68374707D01*
X85147592Y-68278574D01*
X85155428Y-68199009D01*
X85155428Y-68162106D01*
X85157836Y-68150000D01*
X85157836Y-67650000D01*
X85127999Y-67500000D01*
X85157836Y-67350000D01*
X85157836Y-66850000D01*
X85155428Y-66837894D01*
X85155428Y-66800991D01*
X85147592Y-66721426D01*
X85128470Y-66625293D01*
X85105262Y-66548788D01*
X85067753Y-66458232D01*
X85030064Y-66387720D01*
X84975608Y-66306221D01*
X84924889Y-66244419D01*
X84855581Y-66175111D01*
X84793779Y-66124392D01*
X84745037Y-66091823D01*
X84800000Y-65959130D01*
X84800000Y-65640870D01*
X84678207Y-65346836D01*
X84453164Y-65121793D01*
X84159130Y-65000000D01*
X83840870Y-65000000D01*
X83546836Y-65121793D01*
X83321793Y-65346836D01*
X83200000Y-65640870D01*
X83200000Y-65959130D01*
X83254963Y-66091823D01*
X83206221Y-66124392D01*
X83144419Y-66175111D01*
X83075111Y-66244419D01*
X83024392Y-66306221D01*
X82969936Y-66387720D01*
X82932247Y-66458232D01*
X82894738Y-66548788D01*
X82871530Y-66625293D01*
X82852408Y-66721426D01*
X82844572Y-66800991D01*
X82844572Y-66837894D01*
X82842164Y-66850000D01*
X82842164Y-67350000D01*
X82872001Y-67500000D01*
X82842164Y-67650000D01*
X82842164Y-67834394D01*
X82759130Y-67800000D01*
X82440870Y-67800000D01*
X82146836Y-67921793D01*
X82068629Y-68000000D01*
X81319086Y-68000000D01*
X81260000Y-67988247D01*
X81200913Y-68000000D01*
X81200909Y-68000000D01*
X81025892Y-68034813D01*
X80827425Y-68167425D01*
X80793953Y-68217519D01*
X78400000Y-70611473D01*
X78400000Y-66730000D01*
X79825000Y-66730000D01*
X79825000Y-67280000D01*
X79908837Y-67601475D01*
X80109315Y-67866396D01*
X80395913Y-68034432D01*
X80492877Y-68060259D01*
X80625000Y-67978331D01*
X80625000Y-66730000D01*
X80725000Y-66730000D01*
X80725000Y-67978331D01*
X80857123Y-68060259D01*
X80954087Y-68034432D01*
X81240685Y-67866396D01*
X81441163Y-67601475D01*
X81525000Y-67280000D01*
X81525000Y-66730000D01*
X80725000Y-66730000D01*
X80625000Y-66730000D01*
X79825000Y-66730000D01*
X78400000Y-66730000D01*
X78400000Y-66448527D01*
X79448528Y-65400000D01*
X80268964Y-65400000D01*
X80109315Y-65493604D01*
X79908837Y-65758525D01*
X79825000Y-66080000D01*
X79825000Y-66630000D01*
X80625000Y-66630000D01*
X80625000Y-66610000D01*
X80725000Y-66610000D01*
X80725000Y-66630000D01*
X81525000Y-66630000D01*
X81525000Y-66584950D01*
X81713482Y-66773432D01*
X81970761Y-66880000D01*
X82249239Y-66880000D01*
X82506518Y-66773432D01*
X82703432Y-66576518D01*
X82810000Y-66319239D01*
X82810000Y-66040761D01*
X82703432Y-65783482D01*
X82506518Y-65586568D01*
X82249239Y-65480000D01*
X81970761Y-65480000D01*
X81713482Y-65586568D01*
X81516568Y-65783482D01*
X81474290Y-65885551D01*
X81441163Y-65758525D01*
X81240685Y-65493604D01*
X81081036Y-65400000D01*
X81340914Y-65400000D01*
X81400000Y-65411753D01*
X81459086Y-65400000D01*
X81459091Y-65400000D01*
X81634108Y-65365187D01*
X81832575Y-65232575D01*
X81866048Y-65182479D01*
X82448528Y-64600000D01*
X87151473Y-64600000D01*
X87733952Y-65182480D01*
X87733952Y-65182480D01*
G37*
X87733952Y-65182480D02*
X87767425Y-65232575D01*
X87817519Y-65266047D01*
X87965891Y-65365187D01*
X88007687Y-65373501D01*
X88140909Y-65400000D01*
X88140912Y-65400000D01*
X88200000Y-65411753D01*
X88259088Y-65400000D01*
X88918964Y-65400000D01*
X88759315Y-65493604D01*
X88558837Y-65758525D01*
X88525710Y-65885551D01*
X88483432Y-65783482D01*
X88286518Y-65586568D01*
X88029239Y-65480000D01*
X87750761Y-65480000D01*
X87493482Y-65586568D01*
X87296568Y-65783482D01*
X87190000Y-66040761D01*
X87190000Y-66058027D01*
X87164648Y-66044477D01*
X87200000Y-65959130D01*
X87200000Y-65640870D01*
X87078207Y-65346836D01*
X86853164Y-65121793D01*
X86559130Y-65000000D01*
X86240870Y-65000000D01*
X85946836Y-65121793D01*
X85721793Y-65346836D01*
X85600000Y-65640870D01*
X85600000Y-65959130D01*
X85678035Y-66147523D01*
X85644419Y-66175111D01*
X85575111Y-66244419D01*
X85524392Y-66306221D01*
X85469936Y-66387720D01*
X85432247Y-66458232D01*
X85394738Y-66548788D01*
X85371530Y-66625293D01*
X85352408Y-66721426D01*
X85344572Y-66800991D01*
X85344572Y-66837894D01*
X85342164Y-66850000D01*
X85342164Y-67350000D01*
X85372001Y-67500000D01*
X85342164Y-67650000D01*
X85342164Y-68150000D01*
X85344572Y-68162106D01*
X85344572Y-68199009D01*
X85352408Y-68278574D01*
X85371530Y-68374707D01*
X85394738Y-68451212D01*
X85423132Y-68519762D01*
X84500000Y-69442894D01*
X84500000Y-69020797D01*
X84551212Y-69005262D01*
X84641768Y-68967753D01*
X84712280Y-68930064D01*
X84793779Y-68875608D01*
X84855581Y-68824889D01*
X84924889Y-68755581D01*
X84975608Y-68693779D01*
X85030064Y-68612280D01*
X85067753Y-68541768D01*
X85105262Y-68451212D01*
X85128470Y-68374707D01*
X85147592Y-68278574D01*
X85155428Y-68199009D01*
X85155428Y-68162106D01*
X85157836Y-68150000D01*
X85157836Y-67650000D01*
X85127999Y-67500000D01*
X85157836Y-67350000D01*
X85157836Y-66850000D01*
X85155428Y-66837894D01*
X85155428Y-66800991D01*
X85147592Y-66721426D01*
X85128470Y-66625293D01*
X85105262Y-66548788D01*
X85067753Y-66458232D01*
X85030064Y-66387720D01*
X84975608Y-66306221D01*
X84924889Y-66244419D01*
X84855581Y-66175111D01*
X84793779Y-66124392D01*
X84745037Y-66091823D01*
X84800000Y-65959130D01*
X84800000Y-65640870D01*
X84678207Y-65346836D01*
X84453164Y-65121793D01*
X84159130Y-65000000D01*
X83840870Y-65000000D01*
X83546836Y-65121793D01*
X83321793Y-65346836D01*
X83200000Y-65640870D01*
X83200000Y-65959130D01*
X83254963Y-66091823D01*
X83206221Y-66124392D01*
X83144419Y-66175111D01*
X83075111Y-66244419D01*
X83024392Y-66306221D01*
X82969936Y-66387720D01*
X82932247Y-66458232D01*
X82894738Y-66548788D01*
X82871530Y-66625293D01*
X82852408Y-66721426D01*
X82844572Y-66800991D01*
X82844572Y-66837894D01*
X82842164Y-66850000D01*
X82842164Y-67350000D01*
X82872001Y-67500000D01*
X82842164Y-67650000D01*
X82842164Y-67834394D01*
X82759130Y-67800000D01*
X82440870Y-67800000D01*
X82146836Y-67921793D01*
X82068629Y-68000000D01*
X81319086Y-68000000D01*
X81260000Y-67988247D01*
X81200913Y-68000000D01*
X81200909Y-68000000D01*
X81025892Y-68034813D01*
X80827425Y-68167425D01*
X80793953Y-68217519D01*
X78400000Y-70611473D01*
X78400000Y-66730000D01*
X79825000Y-66730000D01*
X79825000Y-67280000D01*
X79908837Y-67601475D01*
X80109315Y-67866396D01*
X80395913Y-68034432D01*
X80492877Y-68060259D01*
X80625000Y-67978331D01*
X80625000Y-66730000D01*
X80725000Y-66730000D01*
X80725000Y-67978331D01*
X80857123Y-68060259D01*
X80954087Y-68034432D01*
X81240685Y-67866396D01*
X81441163Y-67601475D01*
X81525000Y-67280000D01*
X81525000Y-66730000D01*
X80725000Y-66730000D01*
X80625000Y-66730000D01*
X79825000Y-66730000D01*
X78400000Y-66730000D01*
X78400000Y-66448527D01*
X79448528Y-65400000D01*
X80268964Y-65400000D01*
X80109315Y-65493604D01*
X79908837Y-65758525D01*
X79825000Y-66080000D01*
X79825000Y-66630000D01*
X80625000Y-66630000D01*
X80625000Y-66610000D01*
X80725000Y-66610000D01*
X80725000Y-66630000D01*
X81525000Y-66630000D01*
X81525000Y-66584950D01*
X81713482Y-66773432D01*
X81970761Y-66880000D01*
X82249239Y-66880000D01*
X82506518Y-66773432D01*
X82703432Y-66576518D01*
X82810000Y-66319239D01*
X82810000Y-66040761D01*
X82703432Y-65783482D01*
X82506518Y-65586568D01*
X82249239Y-65480000D01*
X81970761Y-65480000D01*
X81713482Y-65586568D01*
X81516568Y-65783482D01*
X81474290Y-65885551D01*
X81441163Y-65758525D01*
X81240685Y-65493604D01*
X81081036Y-65400000D01*
X81340914Y-65400000D01*
X81400000Y-65411753D01*
X81459086Y-65400000D01*
X81459091Y-65400000D01*
X81634108Y-65365187D01*
X81832575Y-65232575D01*
X81866048Y-65182479D01*
X82448528Y-64600000D01*
X87151473Y-64600000D01*
X87733952Y-65182480D01*
G04 #@! TD*
M02*
