G04 #@! TF.GenerationSoftware,KiCad,Pcbnew,(5.0.0)*
G04 #@! TF.CreationDate,2020-08-04T11:38:10+01:00*
G04 #@! TF.ProjectId,CH552-USB-Devboard,43483535322D5553422D446576626F61,rev?*
G04 #@! TF.SameCoordinates,Original*
G04 #@! TF.FileFunction,Soldermask,Top*
G04 #@! TF.FilePolarity,Negative*
%FSLAX46Y46*%
G04 Gerber Fmt 4.6, Leading zero omitted, Abs format (unit mm)*
G04 Created by KiCad (PCBNEW (5.0.0)) date 08/04/20 11:38:10*
%MOMM*%
%LPD*%
G01*
G04 APERTURE LIST*
%ADD10R,1.460000X1.050000*%
%ADD11C,0.100000*%
%ADD12C,1.350000*%
%ADD13O,2.100000X2.100000*%
%ADD14R,2.100000X2.100000*%
%ADD15C,1.525000*%
%ADD16R,1.050000X1.460000*%
%ADD17O,1.300000X2.400000*%
%ADD18C,1.000000*%
%ADD19R,0.700000X1.540000*%
%ADD20R,1.450000X1.050000*%
%ADD21R,1.000000X1.900000*%
%ADD22R,0.850000X1.850000*%
%ADD23R,1.600000X1.600000*%
G04 APERTURE END LIST*
D10*
G04 #@! TO.C,U3*
X80500000Y-69550000D03*
X80500000Y-70500000D03*
X80500000Y-71450000D03*
X82700000Y-71450000D03*
X82700000Y-69550000D03*
G04 #@! TD*
D11*
G04 #@! TO.C,C1*
G36*
X79370581Y-77526625D02*
X79403343Y-77531485D01*
X79435471Y-77539533D01*
X79466656Y-77550691D01*
X79496596Y-77564852D01*
X79525005Y-77581879D01*
X79551608Y-77601609D01*
X79576149Y-77623851D01*
X79598391Y-77648392D01*
X79618121Y-77674995D01*
X79635148Y-77703404D01*
X79649309Y-77733344D01*
X79660467Y-77764529D01*
X79668515Y-77796657D01*
X79673375Y-77829419D01*
X79675000Y-77862500D01*
X79675000Y-78637500D01*
X79673375Y-78670581D01*
X79668515Y-78703343D01*
X79660467Y-78735471D01*
X79649309Y-78766656D01*
X79635148Y-78796596D01*
X79618121Y-78825005D01*
X79598391Y-78851608D01*
X79576149Y-78876149D01*
X79551608Y-78898391D01*
X79525005Y-78918121D01*
X79496596Y-78935148D01*
X79466656Y-78949309D01*
X79435471Y-78960467D01*
X79403343Y-78968515D01*
X79370581Y-78973375D01*
X79337500Y-78975000D01*
X78662500Y-78975000D01*
X78629419Y-78973375D01*
X78596657Y-78968515D01*
X78564529Y-78960467D01*
X78533344Y-78949309D01*
X78503404Y-78935148D01*
X78474995Y-78918121D01*
X78448392Y-78898391D01*
X78423851Y-78876149D01*
X78401609Y-78851608D01*
X78381879Y-78825005D01*
X78364852Y-78796596D01*
X78350691Y-78766656D01*
X78339533Y-78735471D01*
X78331485Y-78703343D01*
X78326625Y-78670581D01*
X78325000Y-78637500D01*
X78325000Y-77862500D01*
X78326625Y-77829419D01*
X78331485Y-77796657D01*
X78339533Y-77764529D01*
X78350691Y-77733344D01*
X78364852Y-77703404D01*
X78381879Y-77674995D01*
X78401609Y-77648392D01*
X78423851Y-77623851D01*
X78448392Y-77601609D01*
X78474995Y-77581879D01*
X78503404Y-77564852D01*
X78533344Y-77550691D01*
X78564529Y-77539533D01*
X78596657Y-77531485D01*
X78629419Y-77526625D01*
X78662500Y-77525000D01*
X79337500Y-77525000D01*
X79370581Y-77526625D01*
X79370581Y-77526625D01*
G37*
D12*
X79000000Y-78250000D03*
D11*
G36*
X79370581Y-79276625D02*
X79403343Y-79281485D01*
X79435471Y-79289533D01*
X79466656Y-79300691D01*
X79496596Y-79314852D01*
X79525005Y-79331879D01*
X79551608Y-79351609D01*
X79576149Y-79373851D01*
X79598391Y-79398392D01*
X79618121Y-79424995D01*
X79635148Y-79453404D01*
X79649309Y-79483344D01*
X79660467Y-79514529D01*
X79668515Y-79546657D01*
X79673375Y-79579419D01*
X79675000Y-79612500D01*
X79675000Y-80387500D01*
X79673375Y-80420581D01*
X79668515Y-80453343D01*
X79660467Y-80485471D01*
X79649309Y-80516656D01*
X79635148Y-80546596D01*
X79618121Y-80575005D01*
X79598391Y-80601608D01*
X79576149Y-80626149D01*
X79551608Y-80648391D01*
X79525005Y-80668121D01*
X79496596Y-80685148D01*
X79466656Y-80699309D01*
X79435471Y-80710467D01*
X79403343Y-80718515D01*
X79370581Y-80723375D01*
X79337500Y-80725000D01*
X78662500Y-80725000D01*
X78629419Y-80723375D01*
X78596657Y-80718515D01*
X78564529Y-80710467D01*
X78533344Y-80699309D01*
X78503404Y-80685148D01*
X78474995Y-80668121D01*
X78448392Y-80648391D01*
X78423851Y-80626149D01*
X78401609Y-80601608D01*
X78381879Y-80575005D01*
X78364852Y-80546596D01*
X78350691Y-80516656D01*
X78339533Y-80485471D01*
X78331485Y-80453343D01*
X78326625Y-80420581D01*
X78325000Y-80387500D01*
X78325000Y-79612500D01*
X78326625Y-79579419D01*
X78331485Y-79546657D01*
X78339533Y-79514529D01*
X78350691Y-79483344D01*
X78364852Y-79453404D01*
X78381879Y-79424995D01*
X78401609Y-79398392D01*
X78423851Y-79373851D01*
X78448392Y-79351609D01*
X78474995Y-79331879D01*
X78503404Y-79314852D01*
X78533344Y-79300691D01*
X78564529Y-79289533D01*
X78596657Y-79281485D01*
X78629419Y-79276625D01*
X78662500Y-79275000D01*
X79337500Y-79275000D01*
X79370581Y-79276625D01*
X79370581Y-79276625D01*
G37*
D12*
X79000000Y-80000000D03*
G04 #@! TD*
D11*
G04 #@! TO.C,C7*
G36*
X84870581Y-68901625D02*
X84903343Y-68906485D01*
X84935471Y-68914533D01*
X84966656Y-68925691D01*
X84996596Y-68939852D01*
X85025005Y-68956879D01*
X85051608Y-68976609D01*
X85076149Y-68998851D01*
X85098391Y-69023392D01*
X85118121Y-69049995D01*
X85135148Y-69078404D01*
X85149309Y-69108344D01*
X85160467Y-69139529D01*
X85168515Y-69171657D01*
X85173375Y-69204419D01*
X85175000Y-69237500D01*
X85175000Y-70012500D01*
X85173375Y-70045581D01*
X85168515Y-70078343D01*
X85160467Y-70110471D01*
X85149309Y-70141656D01*
X85135148Y-70171596D01*
X85118121Y-70200005D01*
X85098391Y-70226608D01*
X85076149Y-70251149D01*
X85051608Y-70273391D01*
X85025005Y-70293121D01*
X84996596Y-70310148D01*
X84966656Y-70324309D01*
X84935471Y-70335467D01*
X84903343Y-70343515D01*
X84870581Y-70348375D01*
X84837500Y-70350000D01*
X84162500Y-70350000D01*
X84129419Y-70348375D01*
X84096657Y-70343515D01*
X84064529Y-70335467D01*
X84033344Y-70324309D01*
X84003404Y-70310148D01*
X83974995Y-70293121D01*
X83948392Y-70273391D01*
X83923851Y-70251149D01*
X83901609Y-70226608D01*
X83881879Y-70200005D01*
X83864852Y-70171596D01*
X83850691Y-70141656D01*
X83839533Y-70110471D01*
X83831485Y-70078343D01*
X83826625Y-70045581D01*
X83825000Y-70012500D01*
X83825000Y-69237500D01*
X83826625Y-69204419D01*
X83831485Y-69171657D01*
X83839533Y-69139529D01*
X83850691Y-69108344D01*
X83864852Y-69078404D01*
X83881879Y-69049995D01*
X83901609Y-69023392D01*
X83923851Y-68998851D01*
X83948392Y-68976609D01*
X83974995Y-68956879D01*
X84003404Y-68939852D01*
X84033344Y-68925691D01*
X84064529Y-68914533D01*
X84096657Y-68906485D01*
X84129419Y-68901625D01*
X84162500Y-68900000D01*
X84837500Y-68900000D01*
X84870581Y-68901625D01*
X84870581Y-68901625D01*
G37*
D12*
X84500000Y-69625000D03*
D11*
G36*
X84870581Y-70651625D02*
X84903343Y-70656485D01*
X84935471Y-70664533D01*
X84966656Y-70675691D01*
X84996596Y-70689852D01*
X85025005Y-70706879D01*
X85051608Y-70726609D01*
X85076149Y-70748851D01*
X85098391Y-70773392D01*
X85118121Y-70799995D01*
X85135148Y-70828404D01*
X85149309Y-70858344D01*
X85160467Y-70889529D01*
X85168515Y-70921657D01*
X85173375Y-70954419D01*
X85175000Y-70987500D01*
X85175000Y-71762500D01*
X85173375Y-71795581D01*
X85168515Y-71828343D01*
X85160467Y-71860471D01*
X85149309Y-71891656D01*
X85135148Y-71921596D01*
X85118121Y-71950005D01*
X85098391Y-71976608D01*
X85076149Y-72001149D01*
X85051608Y-72023391D01*
X85025005Y-72043121D01*
X84996596Y-72060148D01*
X84966656Y-72074309D01*
X84935471Y-72085467D01*
X84903343Y-72093515D01*
X84870581Y-72098375D01*
X84837500Y-72100000D01*
X84162500Y-72100000D01*
X84129419Y-72098375D01*
X84096657Y-72093515D01*
X84064529Y-72085467D01*
X84033344Y-72074309D01*
X84003404Y-72060148D01*
X83974995Y-72043121D01*
X83948392Y-72023391D01*
X83923851Y-72001149D01*
X83901609Y-71976608D01*
X83881879Y-71950005D01*
X83864852Y-71921596D01*
X83850691Y-71891656D01*
X83839533Y-71860471D01*
X83831485Y-71828343D01*
X83826625Y-71795581D01*
X83825000Y-71762500D01*
X83825000Y-70987500D01*
X83826625Y-70954419D01*
X83831485Y-70921657D01*
X83839533Y-70889529D01*
X83850691Y-70858344D01*
X83864852Y-70828404D01*
X83881879Y-70799995D01*
X83901609Y-70773392D01*
X83923851Y-70748851D01*
X83948392Y-70726609D01*
X83974995Y-70706879D01*
X84003404Y-70689852D01*
X84033344Y-70675691D01*
X84064529Y-70664533D01*
X84096657Y-70656485D01*
X84129419Y-70651625D01*
X84162500Y-70650000D01*
X84837500Y-70650000D01*
X84870581Y-70651625D01*
X84870581Y-70651625D01*
G37*
D12*
X84500000Y-71375000D03*
G04 #@! TD*
D13*
G04 #@! TO.C,J1*
X76200000Y-99060000D03*
X76200000Y-96520000D03*
X76200000Y-93980000D03*
X76200000Y-91440000D03*
X76200000Y-88900000D03*
X76200000Y-86360000D03*
X76200000Y-83820000D03*
X76200000Y-81280000D03*
X76200000Y-78740000D03*
X76200000Y-76200000D03*
D14*
X76200000Y-73660000D03*
G04 #@! TD*
G04 #@! TO.C,J2*
X93980000Y-73660000D03*
D13*
X93980000Y-76200000D03*
X93980000Y-78740000D03*
X93980000Y-81280000D03*
X93980000Y-83820000D03*
X93980000Y-86360000D03*
X93980000Y-88900000D03*
X93980000Y-91440000D03*
X93980000Y-93980000D03*
X93980000Y-96520000D03*
X93980000Y-99060000D03*
G04 #@! TD*
D11*
G04 #@! TO.C,D4*
G36*
X77794329Y-67014132D02*
X77827226Y-67019012D01*
X77859486Y-67027092D01*
X77890799Y-67038296D01*
X77920863Y-67052515D01*
X77949388Y-67069613D01*
X77976100Y-67089424D01*
X78000742Y-67111758D01*
X78023076Y-67136400D01*
X78042887Y-67163112D01*
X78059985Y-67191637D01*
X78074204Y-67221701D01*
X78085408Y-67253014D01*
X78093488Y-67285274D01*
X78098368Y-67318171D01*
X78100000Y-67351388D01*
X78100000Y-68198612D01*
X78098368Y-68231829D01*
X78093488Y-68264726D01*
X78085408Y-68296986D01*
X78074204Y-68328299D01*
X78059985Y-68358363D01*
X78042887Y-68386888D01*
X78023076Y-68413600D01*
X78000742Y-68438242D01*
X77976100Y-68460576D01*
X77949388Y-68480387D01*
X77920863Y-68497485D01*
X77890799Y-68511704D01*
X77859486Y-68522908D01*
X77827226Y-68530988D01*
X77794329Y-68535868D01*
X77761112Y-68537500D01*
X74638888Y-68537500D01*
X74605671Y-68535868D01*
X74572774Y-68530988D01*
X74540514Y-68522908D01*
X74509201Y-68511704D01*
X74479137Y-68497485D01*
X74450612Y-68480387D01*
X74423900Y-68460576D01*
X74399258Y-68438242D01*
X74376924Y-68413600D01*
X74357113Y-68386888D01*
X74340015Y-68358363D01*
X74325796Y-68328299D01*
X74314592Y-68296986D01*
X74306512Y-68264726D01*
X74301632Y-68231829D01*
X74300000Y-68198612D01*
X74300000Y-67351388D01*
X74301632Y-67318171D01*
X74306512Y-67285274D01*
X74314592Y-67253014D01*
X74325796Y-67221701D01*
X74340015Y-67191637D01*
X74357113Y-67163112D01*
X74376924Y-67136400D01*
X74399258Y-67111758D01*
X74423900Y-67089424D01*
X74450612Y-67069613D01*
X74479137Y-67052515D01*
X74509201Y-67038296D01*
X74540514Y-67027092D01*
X74572774Y-67019012D01*
X74605671Y-67014132D01*
X74638888Y-67012500D01*
X77761112Y-67012500D01*
X77794329Y-67014132D01*
X77794329Y-67014132D01*
G37*
D15*
X76200000Y-67775000D03*
D11*
G36*
X77794329Y-62739132D02*
X77827226Y-62744012D01*
X77859486Y-62752092D01*
X77890799Y-62763296D01*
X77920863Y-62777515D01*
X77949388Y-62794613D01*
X77976100Y-62814424D01*
X78000742Y-62836758D01*
X78023076Y-62861400D01*
X78042887Y-62888112D01*
X78059985Y-62916637D01*
X78074204Y-62946701D01*
X78085408Y-62978014D01*
X78093488Y-63010274D01*
X78098368Y-63043171D01*
X78100000Y-63076388D01*
X78100000Y-63923612D01*
X78098368Y-63956829D01*
X78093488Y-63989726D01*
X78085408Y-64021986D01*
X78074204Y-64053299D01*
X78059985Y-64083363D01*
X78042887Y-64111888D01*
X78023076Y-64138600D01*
X78000742Y-64163242D01*
X77976100Y-64185576D01*
X77949388Y-64205387D01*
X77920863Y-64222485D01*
X77890799Y-64236704D01*
X77859486Y-64247908D01*
X77827226Y-64255988D01*
X77794329Y-64260868D01*
X77761112Y-64262500D01*
X74638888Y-64262500D01*
X74605671Y-64260868D01*
X74572774Y-64255988D01*
X74540514Y-64247908D01*
X74509201Y-64236704D01*
X74479137Y-64222485D01*
X74450612Y-64205387D01*
X74423900Y-64185576D01*
X74399258Y-64163242D01*
X74376924Y-64138600D01*
X74357113Y-64111888D01*
X74340015Y-64083363D01*
X74325796Y-64053299D01*
X74314592Y-64021986D01*
X74306512Y-63989726D01*
X74301632Y-63956829D01*
X74300000Y-63923612D01*
X74300000Y-63076388D01*
X74301632Y-63043171D01*
X74306512Y-63010274D01*
X74314592Y-62978014D01*
X74325796Y-62946701D01*
X74340015Y-62916637D01*
X74357113Y-62888112D01*
X74376924Y-62861400D01*
X74399258Y-62836758D01*
X74423900Y-62814424D01*
X74450612Y-62794613D01*
X74479137Y-62777515D01*
X74509201Y-62763296D01*
X74540514Y-62752092D01*
X74572774Y-62744012D01*
X74605671Y-62739132D01*
X74638888Y-62737500D01*
X77761112Y-62737500D01*
X77794329Y-62739132D01*
X77794329Y-62739132D01*
G37*
D15*
X76200000Y-63500000D03*
G04 #@! TD*
D16*
G04 #@! TO.C,Q1*
X93000000Y-67400000D03*
X92050000Y-67400000D03*
X93950000Y-67400000D03*
X93950000Y-69600000D03*
X93000000Y-69600000D03*
X92050000Y-69600000D03*
G04 #@! TD*
D17*
G04 #@! TO.C,J3*
X80675000Y-66680000D03*
X89325000Y-66680000D03*
X89325000Y-62500000D03*
X80675000Y-62500000D03*
D18*
X82110000Y-66180000D03*
D19*
X84750000Y-67250000D03*
X85250000Y-67250000D03*
X85750000Y-67250000D03*
X84250000Y-67250000D03*
X86250000Y-67250000D03*
X86750000Y-67250000D03*
X83750000Y-67250000D03*
X83250000Y-67250000D03*
D18*
X87890000Y-66180000D03*
D19*
X87500000Y-67250000D03*
X87250000Y-67250000D03*
X88050000Y-67250000D03*
X88350000Y-67250000D03*
X82750000Y-67250000D03*
X82450000Y-67250000D03*
X81950000Y-67250000D03*
X81650000Y-67250000D03*
G04 #@! TD*
D20*
G04 #@! TO.C,SW2*
X87150000Y-92350000D03*
X83000000Y-92350000D03*
X87150000Y-90200000D03*
X83000000Y-90200000D03*
G04 #@! TD*
G04 #@! TO.C,SW1*
X83000000Y-94400000D03*
X87150000Y-94400000D03*
X83000000Y-96550000D03*
X87150000Y-96550000D03*
G04 #@! TD*
D11*
G04 #@! TO.C,C2*
G36*
X82620581Y-73926625D02*
X82653343Y-73931485D01*
X82685471Y-73939533D01*
X82716656Y-73950691D01*
X82746596Y-73964852D01*
X82775005Y-73981879D01*
X82801608Y-74001609D01*
X82826149Y-74023851D01*
X82848391Y-74048392D01*
X82868121Y-74074995D01*
X82885148Y-74103404D01*
X82899309Y-74133344D01*
X82910467Y-74164529D01*
X82918515Y-74196657D01*
X82923375Y-74229419D01*
X82925000Y-74262500D01*
X82925000Y-74937500D01*
X82923375Y-74970581D01*
X82918515Y-75003343D01*
X82910467Y-75035471D01*
X82899309Y-75066656D01*
X82885148Y-75096596D01*
X82868121Y-75125005D01*
X82848391Y-75151608D01*
X82826149Y-75176149D01*
X82801608Y-75198391D01*
X82775005Y-75218121D01*
X82746596Y-75235148D01*
X82716656Y-75249309D01*
X82685471Y-75260467D01*
X82653343Y-75268515D01*
X82620581Y-75273375D01*
X82587500Y-75275000D01*
X81812500Y-75275000D01*
X81779419Y-75273375D01*
X81746657Y-75268515D01*
X81714529Y-75260467D01*
X81683344Y-75249309D01*
X81653404Y-75235148D01*
X81624995Y-75218121D01*
X81598392Y-75198391D01*
X81573851Y-75176149D01*
X81551609Y-75151608D01*
X81531879Y-75125005D01*
X81514852Y-75096596D01*
X81500691Y-75066656D01*
X81489533Y-75035471D01*
X81481485Y-75003343D01*
X81476625Y-74970581D01*
X81475000Y-74937500D01*
X81475000Y-74262500D01*
X81476625Y-74229419D01*
X81481485Y-74196657D01*
X81489533Y-74164529D01*
X81500691Y-74133344D01*
X81514852Y-74103404D01*
X81531879Y-74074995D01*
X81551609Y-74048392D01*
X81573851Y-74023851D01*
X81598392Y-74001609D01*
X81624995Y-73981879D01*
X81653404Y-73964852D01*
X81683344Y-73950691D01*
X81714529Y-73939533D01*
X81746657Y-73931485D01*
X81779419Y-73926625D01*
X81812500Y-73925000D01*
X82587500Y-73925000D01*
X82620581Y-73926625D01*
X82620581Y-73926625D01*
G37*
D12*
X82200000Y-74600000D03*
D11*
G36*
X84370581Y-73926625D02*
X84403343Y-73931485D01*
X84435471Y-73939533D01*
X84466656Y-73950691D01*
X84496596Y-73964852D01*
X84525005Y-73981879D01*
X84551608Y-74001609D01*
X84576149Y-74023851D01*
X84598391Y-74048392D01*
X84618121Y-74074995D01*
X84635148Y-74103404D01*
X84649309Y-74133344D01*
X84660467Y-74164529D01*
X84668515Y-74196657D01*
X84673375Y-74229419D01*
X84675000Y-74262500D01*
X84675000Y-74937500D01*
X84673375Y-74970581D01*
X84668515Y-75003343D01*
X84660467Y-75035471D01*
X84649309Y-75066656D01*
X84635148Y-75096596D01*
X84618121Y-75125005D01*
X84598391Y-75151608D01*
X84576149Y-75176149D01*
X84551608Y-75198391D01*
X84525005Y-75218121D01*
X84496596Y-75235148D01*
X84466656Y-75249309D01*
X84435471Y-75260467D01*
X84403343Y-75268515D01*
X84370581Y-75273375D01*
X84337500Y-75275000D01*
X83562500Y-75275000D01*
X83529419Y-75273375D01*
X83496657Y-75268515D01*
X83464529Y-75260467D01*
X83433344Y-75249309D01*
X83403404Y-75235148D01*
X83374995Y-75218121D01*
X83348392Y-75198391D01*
X83323851Y-75176149D01*
X83301609Y-75151608D01*
X83281879Y-75125005D01*
X83264852Y-75096596D01*
X83250691Y-75066656D01*
X83239533Y-75035471D01*
X83231485Y-75003343D01*
X83226625Y-74970581D01*
X83225000Y-74937500D01*
X83225000Y-74262500D01*
X83226625Y-74229419D01*
X83231485Y-74196657D01*
X83239533Y-74164529D01*
X83250691Y-74133344D01*
X83264852Y-74103404D01*
X83281879Y-74074995D01*
X83301609Y-74048392D01*
X83323851Y-74023851D01*
X83348392Y-74001609D01*
X83374995Y-73981879D01*
X83403404Y-73964852D01*
X83433344Y-73950691D01*
X83464529Y-73939533D01*
X83496657Y-73931485D01*
X83529419Y-73926625D01*
X83562500Y-73925000D01*
X84337500Y-73925000D01*
X84370581Y-73926625D01*
X84370581Y-73926625D01*
G37*
D12*
X83950000Y-74600000D03*
G04 #@! TD*
D11*
G04 #@! TO.C,C3*
G36*
X79970581Y-91076625D02*
X80003343Y-91081485D01*
X80035471Y-91089533D01*
X80066656Y-91100691D01*
X80096596Y-91114852D01*
X80125005Y-91131879D01*
X80151608Y-91151609D01*
X80176149Y-91173851D01*
X80198391Y-91198392D01*
X80218121Y-91224995D01*
X80235148Y-91253404D01*
X80249309Y-91283344D01*
X80260467Y-91314529D01*
X80268515Y-91346657D01*
X80273375Y-91379419D01*
X80275000Y-91412500D01*
X80275000Y-92187500D01*
X80273375Y-92220581D01*
X80268515Y-92253343D01*
X80260467Y-92285471D01*
X80249309Y-92316656D01*
X80235148Y-92346596D01*
X80218121Y-92375005D01*
X80198391Y-92401608D01*
X80176149Y-92426149D01*
X80151608Y-92448391D01*
X80125005Y-92468121D01*
X80096596Y-92485148D01*
X80066656Y-92499309D01*
X80035471Y-92510467D01*
X80003343Y-92518515D01*
X79970581Y-92523375D01*
X79937500Y-92525000D01*
X79262500Y-92525000D01*
X79229419Y-92523375D01*
X79196657Y-92518515D01*
X79164529Y-92510467D01*
X79133344Y-92499309D01*
X79103404Y-92485148D01*
X79074995Y-92468121D01*
X79048392Y-92448391D01*
X79023851Y-92426149D01*
X79001609Y-92401608D01*
X78981879Y-92375005D01*
X78964852Y-92346596D01*
X78950691Y-92316656D01*
X78939533Y-92285471D01*
X78931485Y-92253343D01*
X78926625Y-92220581D01*
X78925000Y-92187500D01*
X78925000Y-91412500D01*
X78926625Y-91379419D01*
X78931485Y-91346657D01*
X78939533Y-91314529D01*
X78950691Y-91283344D01*
X78964852Y-91253404D01*
X78981879Y-91224995D01*
X79001609Y-91198392D01*
X79023851Y-91173851D01*
X79048392Y-91151609D01*
X79074995Y-91131879D01*
X79103404Y-91114852D01*
X79133344Y-91100691D01*
X79164529Y-91089533D01*
X79196657Y-91081485D01*
X79229419Y-91076625D01*
X79262500Y-91075000D01*
X79937500Y-91075000D01*
X79970581Y-91076625D01*
X79970581Y-91076625D01*
G37*
D12*
X79600000Y-91800000D03*
D11*
G36*
X79970581Y-92826625D02*
X80003343Y-92831485D01*
X80035471Y-92839533D01*
X80066656Y-92850691D01*
X80096596Y-92864852D01*
X80125005Y-92881879D01*
X80151608Y-92901609D01*
X80176149Y-92923851D01*
X80198391Y-92948392D01*
X80218121Y-92974995D01*
X80235148Y-93003404D01*
X80249309Y-93033344D01*
X80260467Y-93064529D01*
X80268515Y-93096657D01*
X80273375Y-93129419D01*
X80275000Y-93162500D01*
X80275000Y-93937500D01*
X80273375Y-93970581D01*
X80268515Y-94003343D01*
X80260467Y-94035471D01*
X80249309Y-94066656D01*
X80235148Y-94096596D01*
X80218121Y-94125005D01*
X80198391Y-94151608D01*
X80176149Y-94176149D01*
X80151608Y-94198391D01*
X80125005Y-94218121D01*
X80096596Y-94235148D01*
X80066656Y-94249309D01*
X80035471Y-94260467D01*
X80003343Y-94268515D01*
X79970581Y-94273375D01*
X79937500Y-94275000D01*
X79262500Y-94275000D01*
X79229419Y-94273375D01*
X79196657Y-94268515D01*
X79164529Y-94260467D01*
X79133344Y-94249309D01*
X79103404Y-94235148D01*
X79074995Y-94218121D01*
X79048392Y-94198391D01*
X79023851Y-94176149D01*
X79001609Y-94151608D01*
X78981879Y-94125005D01*
X78964852Y-94096596D01*
X78950691Y-94066656D01*
X78939533Y-94035471D01*
X78931485Y-94003343D01*
X78926625Y-93970581D01*
X78925000Y-93937500D01*
X78925000Y-93162500D01*
X78926625Y-93129419D01*
X78931485Y-93096657D01*
X78939533Y-93064529D01*
X78950691Y-93033344D01*
X78964852Y-93003404D01*
X78981879Y-92974995D01*
X79001609Y-92948392D01*
X79023851Y-92923851D01*
X79048392Y-92901609D01*
X79074995Y-92881879D01*
X79103404Y-92864852D01*
X79133344Y-92850691D01*
X79164529Y-92839533D01*
X79196657Y-92831485D01*
X79229419Y-92826625D01*
X79262500Y-92825000D01*
X79937500Y-92825000D01*
X79970581Y-92826625D01*
X79970581Y-92826625D01*
G37*
D12*
X79600000Y-93550000D03*
G04 #@! TD*
D11*
G04 #@! TO.C,C4*
G36*
X78870581Y-68776625D02*
X78903343Y-68781485D01*
X78935471Y-68789533D01*
X78966656Y-68800691D01*
X78996596Y-68814852D01*
X79025005Y-68831879D01*
X79051608Y-68851609D01*
X79076149Y-68873851D01*
X79098391Y-68898392D01*
X79118121Y-68924995D01*
X79135148Y-68953404D01*
X79149309Y-68983344D01*
X79160467Y-69014529D01*
X79168515Y-69046657D01*
X79173375Y-69079419D01*
X79175000Y-69112500D01*
X79175000Y-69887500D01*
X79173375Y-69920581D01*
X79168515Y-69953343D01*
X79160467Y-69985471D01*
X79149309Y-70016656D01*
X79135148Y-70046596D01*
X79118121Y-70075005D01*
X79098391Y-70101608D01*
X79076149Y-70126149D01*
X79051608Y-70148391D01*
X79025005Y-70168121D01*
X78996596Y-70185148D01*
X78966656Y-70199309D01*
X78935471Y-70210467D01*
X78903343Y-70218515D01*
X78870581Y-70223375D01*
X78837500Y-70225000D01*
X78162500Y-70225000D01*
X78129419Y-70223375D01*
X78096657Y-70218515D01*
X78064529Y-70210467D01*
X78033344Y-70199309D01*
X78003404Y-70185148D01*
X77974995Y-70168121D01*
X77948392Y-70148391D01*
X77923851Y-70126149D01*
X77901609Y-70101608D01*
X77881879Y-70075005D01*
X77864852Y-70046596D01*
X77850691Y-70016656D01*
X77839533Y-69985471D01*
X77831485Y-69953343D01*
X77826625Y-69920581D01*
X77825000Y-69887500D01*
X77825000Y-69112500D01*
X77826625Y-69079419D01*
X77831485Y-69046657D01*
X77839533Y-69014529D01*
X77850691Y-68983344D01*
X77864852Y-68953404D01*
X77881879Y-68924995D01*
X77901609Y-68898392D01*
X77923851Y-68873851D01*
X77948392Y-68851609D01*
X77974995Y-68831879D01*
X78003404Y-68814852D01*
X78033344Y-68800691D01*
X78064529Y-68789533D01*
X78096657Y-68781485D01*
X78129419Y-68776625D01*
X78162500Y-68775000D01*
X78837500Y-68775000D01*
X78870581Y-68776625D01*
X78870581Y-68776625D01*
G37*
D12*
X78500000Y-69500000D03*
D11*
G36*
X78870581Y-70526625D02*
X78903343Y-70531485D01*
X78935471Y-70539533D01*
X78966656Y-70550691D01*
X78996596Y-70564852D01*
X79025005Y-70581879D01*
X79051608Y-70601609D01*
X79076149Y-70623851D01*
X79098391Y-70648392D01*
X79118121Y-70674995D01*
X79135148Y-70703404D01*
X79149309Y-70733344D01*
X79160467Y-70764529D01*
X79168515Y-70796657D01*
X79173375Y-70829419D01*
X79175000Y-70862500D01*
X79175000Y-71637500D01*
X79173375Y-71670581D01*
X79168515Y-71703343D01*
X79160467Y-71735471D01*
X79149309Y-71766656D01*
X79135148Y-71796596D01*
X79118121Y-71825005D01*
X79098391Y-71851608D01*
X79076149Y-71876149D01*
X79051608Y-71898391D01*
X79025005Y-71918121D01*
X78996596Y-71935148D01*
X78966656Y-71949309D01*
X78935471Y-71960467D01*
X78903343Y-71968515D01*
X78870581Y-71973375D01*
X78837500Y-71975000D01*
X78162500Y-71975000D01*
X78129419Y-71973375D01*
X78096657Y-71968515D01*
X78064529Y-71960467D01*
X78033344Y-71949309D01*
X78003404Y-71935148D01*
X77974995Y-71918121D01*
X77948392Y-71898391D01*
X77923851Y-71876149D01*
X77901609Y-71851608D01*
X77881879Y-71825005D01*
X77864852Y-71796596D01*
X77850691Y-71766656D01*
X77839533Y-71735471D01*
X77831485Y-71703343D01*
X77826625Y-71670581D01*
X77825000Y-71637500D01*
X77825000Y-70862500D01*
X77826625Y-70829419D01*
X77831485Y-70796657D01*
X77839533Y-70764529D01*
X77850691Y-70733344D01*
X77864852Y-70703404D01*
X77881879Y-70674995D01*
X77901609Y-70648392D01*
X77923851Y-70623851D01*
X77948392Y-70601609D01*
X77974995Y-70581879D01*
X78003404Y-70564852D01*
X78033344Y-70550691D01*
X78064529Y-70539533D01*
X78096657Y-70531485D01*
X78129419Y-70526625D01*
X78162500Y-70525000D01*
X78837500Y-70525000D01*
X78870581Y-70526625D01*
X78870581Y-70526625D01*
G37*
D12*
X78500000Y-71250000D03*
G04 #@! TD*
D21*
G04 #@! TO.C,U2*
X80734192Y-79980020D03*
X82004192Y-79980020D03*
X83274192Y-79980020D03*
X84544192Y-79980020D03*
X85814192Y-79980020D03*
X87084192Y-79980020D03*
X88354192Y-79980020D03*
X89624192Y-79980020D03*
X89624192Y-85380020D03*
X88354192Y-85380020D03*
X87084192Y-85380020D03*
X85814192Y-85380020D03*
X84544192Y-85380020D03*
X83274192Y-85380020D03*
X82004192Y-85380020D03*
X80734192Y-85380020D03*
G04 #@! TD*
D22*
G04 #@! TO.C,U1*
X82254192Y-76730020D03*
X82904192Y-76730020D03*
X83554192Y-76730020D03*
X84204192Y-76730020D03*
X84854192Y-76730020D03*
X85504192Y-76730020D03*
X86154192Y-76730020D03*
X86804192Y-76730020D03*
X87454192Y-76730020D03*
X88104192Y-76730020D03*
X88104192Y-82630020D03*
X87454192Y-82630020D03*
X86804192Y-82630020D03*
X86154192Y-82630020D03*
X85504192Y-82630020D03*
X84854192Y-82630020D03*
X84204192Y-82630020D03*
X83554192Y-82630020D03*
X82904192Y-82630020D03*
X82254192Y-82630020D03*
G04 #@! TD*
D23*
G04 #@! TO.C,D3*
X94000000Y-63000000D03*
X91800000Y-63000000D03*
G04 #@! TD*
G04 #@! TO.C,D2*
X80800000Y-97800000D03*
X80800000Y-100000000D03*
G04 #@! TD*
G04 #@! TO.C,D1*
X89600000Y-100000000D03*
X89600000Y-97800000D03*
G04 #@! TD*
D11*
G04 #@! TO.C,R4*
G36*
X79570581Y-99076625D02*
X79603343Y-99081485D01*
X79635471Y-99089533D01*
X79666656Y-99100691D01*
X79696596Y-99114852D01*
X79725005Y-99131879D01*
X79751608Y-99151609D01*
X79776149Y-99173851D01*
X79798391Y-99198392D01*
X79818121Y-99224995D01*
X79835148Y-99253404D01*
X79849309Y-99283344D01*
X79860467Y-99314529D01*
X79868515Y-99346657D01*
X79873375Y-99379419D01*
X79875000Y-99412500D01*
X79875000Y-100187500D01*
X79873375Y-100220581D01*
X79868515Y-100253343D01*
X79860467Y-100285471D01*
X79849309Y-100316656D01*
X79835148Y-100346596D01*
X79818121Y-100375005D01*
X79798391Y-100401608D01*
X79776149Y-100426149D01*
X79751608Y-100448391D01*
X79725005Y-100468121D01*
X79696596Y-100485148D01*
X79666656Y-100499309D01*
X79635471Y-100510467D01*
X79603343Y-100518515D01*
X79570581Y-100523375D01*
X79537500Y-100525000D01*
X78862500Y-100525000D01*
X78829419Y-100523375D01*
X78796657Y-100518515D01*
X78764529Y-100510467D01*
X78733344Y-100499309D01*
X78703404Y-100485148D01*
X78674995Y-100468121D01*
X78648392Y-100448391D01*
X78623851Y-100426149D01*
X78601609Y-100401608D01*
X78581879Y-100375005D01*
X78564852Y-100346596D01*
X78550691Y-100316656D01*
X78539533Y-100285471D01*
X78531485Y-100253343D01*
X78526625Y-100220581D01*
X78525000Y-100187500D01*
X78525000Y-99412500D01*
X78526625Y-99379419D01*
X78531485Y-99346657D01*
X78539533Y-99314529D01*
X78550691Y-99283344D01*
X78564852Y-99253404D01*
X78581879Y-99224995D01*
X78601609Y-99198392D01*
X78623851Y-99173851D01*
X78648392Y-99151609D01*
X78674995Y-99131879D01*
X78703404Y-99114852D01*
X78733344Y-99100691D01*
X78764529Y-99089533D01*
X78796657Y-99081485D01*
X78829419Y-99076625D01*
X78862500Y-99075000D01*
X79537500Y-99075000D01*
X79570581Y-99076625D01*
X79570581Y-99076625D01*
G37*
D12*
X79200000Y-99800000D03*
D11*
G36*
X79570581Y-97326625D02*
X79603343Y-97331485D01*
X79635471Y-97339533D01*
X79666656Y-97350691D01*
X79696596Y-97364852D01*
X79725005Y-97381879D01*
X79751608Y-97401609D01*
X79776149Y-97423851D01*
X79798391Y-97448392D01*
X79818121Y-97474995D01*
X79835148Y-97503404D01*
X79849309Y-97533344D01*
X79860467Y-97564529D01*
X79868515Y-97596657D01*
X79873375Y-97629419D01*
X79875000Y-97662500D01*
X79875000Y-98437500D01*
X79873375Y-98470581D01*
X79868515Y-98503343D01*
X79860467Y-98535471D01*
X79849309Y-98566656D01*
X79835148Y-98596596D01*
X79818121Y-98625005D01*
X79798391Y-98651608D01*
X79776149Y-98676149D01*
X79751608Y-98698391D01*
X79725005Y-98718121D01*
X79696596Y-98735148D01*
X79666656Y-98749309D01*
X79635471Y-98760467D01*
X79603343Y-98768515D01*
X79570581Y-98773375D01*
X79537500Y-98775000D01*
X78862500Y-98775000D01*
X78829419Y-98773375D01*
X78796657Y-98768515D01*
X78764529Y-98760467D01*
X78733344Y-98749309D01*
X78703404Y-98735148D01*
X78674995Y-98718121D01*
X78648392Y-98698391D01*
X78623851Y-98676149D01*
X78601609Y-98651608D01*
X78581879Y-98625005D01*
X78564852Y-98596596D01*
X78550691Y-98566656D01*
X78539533Y-98535471D01*
X78531485Y-98503343D01*
X78526625Y-98470581D01*
X78525000Y-98437500D01*
X78525000Y-97662500D01*
X78526625Y-97629419D01*
X78531485Y-97596657D01*
X78539533Y-97564529D01*
X78550691Y-97533344D01*
X78564852Y-97503404D01*
X78581879Y-97474995D01*
X78601609Y-97448392D01*
X78623851Y-97423851D01*
X78648392Y-97401609D01*
X78674995Y-97381879D01*
X78703404Y-97364852D01*
X78733344Y-97350691D01*
X78764529Y-97339533D01*
X78796657Y-97331485D01*
X78829419Y-97326625D01*
X78862500Y-97325000D01*
X79537500Y-97325000D01*
X79570581Y-97326625D01*
X79570581Y-97326625D01*
G37*
D12*
X79200000Y-98050000D03*
G04 #@! TD*
D11*
G04 #@! TO.C,R5*
G36*
X94420581Y-64826625D02*
X94453343Y-64831485D01*
X94485471Y-64839533D01*
X94516656Y-64850691D01*
X94546596Y-64864852D01*
X94575005Y-64881879D01*
X94601608Y-64901609D01*
X94626149Y-64923851D01*
X94648391Y-64948392D01*
X94668121Y-64974995D01*
X94685148Y-65003404D01*
X94699309Y-65033344D01*
X94710467Y-65064529D01*
X94718515Y-65096657D01*
X94723375Y-65129419D01*
X94725000Y-65162500D01*
X94725000Y-65837500D01*
X94723375Y-65870581D01*
X94718515Y-65903343D01*
X94710467Y-65935471D01*
X94699309Y-65966656D01*
X94685148Y-65996596D01*
X94668121Y-66025005D01*
X94648391Y-66051608D01*
X94626149Y-66076149D01*
X94601608Y-66098391D01*
X94575005Y-66118121D01*
X94546596Y-66135148D01*
X94516656Y-66149309D01*
X94485471Y-66160467D01*
X94453343Y-66168515D01*
X94420581Y-66173375D01*
X94387500Y-66175000D01*
X93612500Y-66175000D01*
X93579419Y-66173375D01*
X93546657Y-66168515D01*
X93514529Y-66160467D01*
X93483344Y-66149309D01*
X93453404Y-66135148D01*
X93424995Y-66118121D01*
X93398392Y-66098391D01*
X93373851Y-66076149D01*
X93351609Y-66051608D01*
X93331879Y-66025005D01*
X93314852Y-65996596D01*
X93300691Y-65966656D01*
X93289533Y-65935471D01*
X93281485Y-65903343D01*
X93276625Y-65870581D01*
X93275000Y-65837500D01*
X93275000Y-65162500D01*
X93276625Y-65129419D01*
X93281485Y-65096657D01*
X93289533Y-65064529D01*
X93300691Y-65033344D01*
X93314852Y-65003404D01*
X93331879Y-64974995D01*
X93351609Y-64948392D01*
X93373851Y-64923851D01*
X93398392Y-64901609D01*
X93424995Y-64881879D01*
X93453404Y-64864852D01*
X93483344Y-64850691D01*
X93514529Y-64839533D01*
X93546657Y-64831485D01*
X93579419Y-64826625D01*
X93612500Y-64825000D01*
X94387500Y-64825000D01*
X94420581Y-64826625D01*
X94420581Y-64826625D01*
G37*
D12*
X94000000Y-65500000D03*
D11*
G36*
X92670581Y-64826625D02*
X92703343Y-64831485D01*
X92735471Y-64839533D01*
X92766656Y-64850691D01*
X92796596Y-64864852D01*
X92825005Y-64881879D01*
X92851608Y-64901609D01*
X92876149Y-64923851D01*
X92898391Y-64948392D01*
X92918121Y-64974995D01*
X92935148Y-65003404D01*
X92949309Y-65033344D01*
X92960467Y-65064529D01*
X92968515Y-65096657D01*
X92973375Y-65129419D01*
X92975000Y-65162500D01*
X92975000Y-65837500D01*
X92973375Y-65870581D01*
X92968515Y-65903343D01*
X92960467Y-65935471D01*
X92949309Y-65966656D01*
X92935148Y-65996596D01*
X92918121Y-66025005D01*
X92898391Y-66051608D01*
X92876149Y-66076149D01*
X92851608Y-66098391D01*
X92825005Y-66118121D01*
X92796596Y-66135148D01*
X92766656Y-66149309D01*
X92735471Y-66160467D01*
X92703343Y-66168515D01*
X92670581Y-66173375D01*
X92637500Y-66175000D01*
X91862500Y-66175000D01*
X91829419Y-66173375D01*
X91796657Y-66168515D01*
X91764529Y-66160467D01*
X91733344Y-66149309D01*
X91703404Y-66135148D01*
X91674995Y-66118121D01*
X91648392Y-66098391D01*
X91623851Y-66076149D01*
X91601609Y-66051608D01*
X91581879Y-66025005D01*
X91564852Y-65996596D01*
X91550691Y-65966656D01*
X91539533Y-65935471D01*
X91531485Y-65903343D01*
X91526625Y-65870581D01*
X91525000Y-65837500D01*
X91525000Y-65162500D01*
X91526625Y-65129419D01*
X91531485Y-65096657D01*
X91539533Y-65064529D01*
X91550691Y-65033344D01*
X91564852Y-65003404D01*
X91581879Y-64974995D01*
X91601609Y-64948392D01*
X91623851Y-64923851D01*
X91648392Y-64901609D01*
X91674995Y-64881879D01*
X91703404Y-64864852D01*
X91733344Y-64850691D01*
X91764529Y-64839533D01*
X91796657Y-64831485D01*
X91829419Y-64826625D01*
X91862500Y-64825000D01*
X92637500Y-64825000D01*
X92670581Y-64826625D01*
X92670581Y-64826625D01*
G37*
D12*
X92250000Y-65500000D03*
G04 #@! TD*
D11*
G04 #@! TO.C,R3*
G36*
X91570581Y-99076625D02*
X91603343Y-99081485D01*
X91635471Y-99089533D01*
X91666656Y-99100691D01*
X91696596Y-99114852D01*
X91725005Y-99131879D01*
X91751608Y-99151609D01*
X91776149Y-99173851D01*
X91798391Y-99198392D01*
X91818121Y-99224995D01*
X91835148Y-99253404D01*
X91849309Y-99283344D01*
X91860467Y-99314529D01*
X91868515Y-99346657D01*
X91873375Y-99379419D01*
X91875000Y-99412500D01*
X91875000Y-100187500D01*
X91873375Y-100220581D01*
X91868515Y-100253343D01*
X91860467Y-100285471D01*
X91849309Y-100316656D01*
X91835148Y-100346596D01*
X91818121Y-100375005D01*
X91798391Y-100401608D01*
X91776149Y-100426149D01*
X91751608Y-100448391D01*
X91725005Y-100468121D01*
X91696596Y-100485148D01*
X91666656Y-100499309D01*
X91635471Y-100510467D01*
X91603343Y-100518515D01*
X91570581Y-100523375D01*
X91537500Y-100525000D01*
X90862500Y-100525000D01*
X90829419Y-100523375D01*
X90796657Y-100518515D01*
X90764529Y-100510467D01*
X90733344Y-100499309D01*
X90703404Y-100485148D01*
X90674995Y-100468121D01*
X90648392Y-100448391D01*
X90623851Y-100426149D01*
X90601609Y-100401608D01*
X90581879Y-100375005D01*
X90564852Y-100346596D01*
X90550691Y-100316656D01*
X90539533Y-100285471D01*
X90531485Y-100253343D01*
X90526625Y-100220581D01*
X90525000Y-100187500D01*
X90525000Y-99412500D01*
X90526625Y-99379419D01*
X90531485Y-99346657D01*
X90539533Y-99314529D01*
X90550691Y-99283344D01*
X90564852Y-99253404D01*
X90581879Y-99224995D01*
X90601609Y-99198392D01*
X90623851Y-99173851D01*
X90648392Y-99151609D01*
X90674995Y-99131879D01*
X90703404Y-99114852D01*
X90733344Y-99100691D01*
X90764529Y-99089533D01*
X90796657Y-99081485D01*
X90829419Y-99076625D01*
X90862500Y-99075000D01*
X91537500Y-99075000D01*
X91570581Y-99076625D01*
X91570581Y-99076625D01*
G37*
D12*
X91200000Y-99800000D03*
D11*
G36*
X91570581Y-97326625D02*
X91603343Y-97331485D01*
X91635471Y-97339533D01*
X91666656Y-97350691D01*
X91696596Y-97364852D01*
X91725005Y-97381879D01*
X91751608Y-97401609D01*
X91776149Y-97423851D01*
X91798391Y-97448392D01*
X91818121Y-97474995D01*
X91835148Y-97503404D01*
X91849309Y-97533344D01*
X91860467Y-97564529D01*
X91868515Y-97596657D01*
X91873375Y-97629419D01*
X91875000Y-97662500D01*
X91875000Y-98437500D01*
X91873375Y-98470581D01*
X91868515Y-98503343D01*
X91860467Y-98535471D01*
X91849309Y-98566656D01*
X91835148Y-98596596D01*
X91818121Y-98625005D01*
X91798391Y-98651608D01*
X91776149Y-98676149D01*
X91751608Y-98698391D01*
X91725005Y-98718121D01*
X91696596Y-98735148D01*
X91666656Y-98749309D01*
X91635471Y-98760467D01*
X91603343Y-98768515D01*
X91570581Y-98773375D01*
X91537500Y-98775000D01*
X90862500Y-98775000D01*
X90829419Y-98773375D01*
X90796657Y-98768515D01*
X90764529Y-98760467D01*
X90733344Y-98749309D01*
X90703404Y-98735148D01*
X90674995Y-98718121D01*
X90648392Y-98698391D01*
X90623851Y-98676149D01*
X90601609Y-98651608D01*
X90581879Y-98625005D01*
X90564852Y-98596596D01*
X90550691Y-98566656D01*
X90539533Y-98535471D01*
X90531485Y-98503343D01*
X90526625Y-98470581D01*
X90525000Y-98437500D01*
X90525000Y-97662500D01*
X90526625Y-97629419D01*
X90531485Y-97596657D01*
X90539533Y-97564529D01*
X90550691Y-97533344D01*
X90564852Y-97503404D01*
X90581879Y-97474995D01*
X90601609Y-97448392D01*
X90623851Y-97423851D01*
X90648392Y-97401609D01*
X90674995Y-97381879D01*
X90703404Y-97364852D01*
X90733344Y-97350691D01*
X90764529Y-97339533D01*
X90796657Y-97331485D01*
X90829419Y-97326625D01*
X90862500Y-97325000D01*
X91537500Y-97325000D01*
X91570581Y-97326625D01*
X91570581Y-97326625D01*
G37*
D12*
X91200000Y-98050000D03*
G04 #@! TD*
M02*
