M48
;DRILL file {KiCad (5.0.0)} date 07/20/20 09:31:20
;FORMAT={-:-/ absolute / inch / decimal}
FMAT,2
INCH,TZ
T1C0.0157
T2C0.0236
T3C0.0394
%
G90
G05
M72
T1
X2.9685Y-2.7323
X3.0157Y-2.5906
X3.063Y-3.1496
X3.063Y-3.9528
X3.0709Y-3.2047
X3.0787Y-3.4646
X3.1024Y-3.315
X3.1102Y-2.6614
X3.1181Y-3.4803
X3.126Y-3.7874
X3.1339Y-3.2913
X3.1496Y-3.1969
X3.1654Y-2.8898
X3.1654Y-2.9843
X3.1654Y-3.4724
X3.1732Y-3.0472
X3.1732Y-3.7559
X3.1969Y-3.4173
X3.1969Y-3.7244
X3.2126Y-3.0866
X3.2441Y-3.3071
X3.252Y-2.7008
X3.2677Y-3.8504
X3.2992Y-3.3071
X3.3071Y-2.5906
X3.3071Y-2.9449
X3.3071Y-3.0945
X3.315Y-3.6772
X3.3465Y-3.0787
X3.3622Y-2.7795
X3.3622Y-3.7638
X3.3858Y-2.8661
X3.4016Y-2.5906
X3.4094Y-3.3071
X3.4331Y-3.8583
X3.4646Y-2.7874
X3.4646Y-3.3071
X3.5039Y-2.8346
X3.5039Y-3.2677
X3.5276Y-3.5276
X3.5354Y-3.4724
X3.5354Y-3.5906
X3.5354Y-3.7008
X3.5591Y-3.748
X3.6063Y-2.7008
X3.6457Y-3.9449
X3.6535Y-3.4488
X3.6535Y-3.5512
X3.6535Y-3.6535
X3.7402Y-2.6969
T3
X3.7Y-2.9
X3.7Y-3.
X3.7Y-3.1
X3.7Y-3.2
X3.7Y-3.3
X3.7Y-3.4
X3.7Y-3.5
X3.7Y-3.6
X3.7Y-3.7
X3.7Y-3.8
X3.7Y-3.9
X3.Y-2.9
X3.Y-3.
X3.Y-3.1
X3.Y-3.2
X3.Y-3.3
X3.Y-3.4
X3.Y-3.5
X3.Y-3.6
X3.Y-3.7
X3.Y-3.8
X3.Y-3.9
T2
X3.1762Y-2.4823G85X3.1762Y-2.439
G05
X3.1762Y-2.6469G85X3.1762Y-2.6035
G05
X3.5167Y-2.4823G85X3.5167Y-2.439
G05
X3.5167Y-2.6469G85X3.5167Y-2.6035
G05
T0
M30
