G04 #@! TF.GenerationSoftware,KiCad,Pcbnew,(5.0.0)*
G04 #@! TF.CreationDate,2020-07-20T09:31:12+01:00*
G04 #@! TF.ProjectId,CH552-USB-Devboard,43483535322D5553422D446576626F61,rev?*
G04 #@! TF.SameCoordinates,Original*
G04 #@! TF.FileFunction,Legend,Top*
G04 #@! TF.FilePolarity,Positive*
%FSLAX46Y46*%
G04 Gerber Fmt 4.6, Leading zero omitted, Abs format (unit mm)*
G04 Created by KiCad (PCBNEW (5.0.0)) date 07/20/20 09:31:12*
%MOMM*%
%LPD*%
G01*
G04 APERTURE LIST*
%ADD10C,0.300000*%
%ADD11C,0.120000*%
%ADD12C,0.150000*%
G04 APERTURE END LIST*
D10*
X90514285Y-67478571D02*
X91014285Y-68978571D01*
X91514285Y-67478571D01*
X92800000Y-68978571D02*
X91942857Y-68978571D01*
X92371428Y-68978571D02*
X92371428Y-67478571D01*
X92228571Y-67692857D01*
X92085714Y-67835714D01*
X91942857Y-67907142D01*
X93442857Y-68835714D02*
X93514285Y-68907142D01*
X93442857Y-68978571D01*
X93371428Y-68907142D01*
X93442857Y-68835714D01*
X93442857Y-68978571D01*
X94442857Y-67478571D02*
X94585714Y-67478571D01*
X94728571Y-67550000D01*
X94800000Y-67621428D01*
X94871428Y-67764285D01*
X94942857Y-68050000D01*
X94942857Y-68407142D01*
X94871428Y-68692857D01*
X94800000Y-68835714D01*
X94728571Y-68907142D01*
X94585714Y-68978571D01*
X94442857Y-68978571D01*
X94300000Y-68907142D01*
X94228571Y-68835714D01*
X94157142Y-68692857D01*
X94085714Y-68407142D01*
X94085714Y-68050000D01*
X94157142Y-67764285D01*
X94228571Y-67621428D01*
X94300000Y-67550000D01*
X94442857Y-67478571D01*
D11*
G04 #@! TO.C,U3*
X80700000Y-72110000D02*
X82500000Y-72110000D01*
X82500000Y-68890000D02*
X80050000Y-68890000D01*
G04 #@! TO.C,C1*
X79510000Y-79296267D02*
X79510000Y-78953733D01*
X78490000Y-79296267D02*
X78490000Y-78953733D01*
G04 #@! TO.C,C7*
X85010000Y-70328733D02*
X85010000Y-70671267D01*
X83990000Y-70328733D02*
X83990000Y-70671267D01*
G04 #@! TO.C,J1*
X74870000Y-72330000D02*
X76200000Y-72330000D01*
X74870000Y-73660000D02*
X74870000Y-72330000D01*
X74870000Y-74930000D02*
X77530000Y-74930000D01*
X77530000Y-74930000D02*
X77530000Y-100390000D01*
X74870000Y-74930000D02*
X74870000Y-100390000D01*
X74870000Y-100390000D02*
X77530000Y-100390000D01*
G04 #@! TO.C,J2*
X92650000Y-100390000D02*
X95310000Y-100390000D01*
X92650000Y-74930000D02*
X92650000Y-100390000D01*
X95310000Y-74930000D02*
X95310000Y-100390000D01*
X92650000Y-74930000D02*
X95310000Y-74930000D01*
X92650000Y-73660000D02*
X92650000Y-72330000D01*
X92650000Y-72330000D02*
X93980000Y-72330000D01*
G04 #@! TO.C,D4*
X74240000Y-63387500D02*
X74240000Y-68597500D01*
X74240000Y-68597500D02*
X78160000Y-68597500D01*
X78160000Y-68597500D02*
X78160000Y-63387500D01*
G04 #@! TO.C,Q1*
X91390000Y-67600000D02*
X91390000Y-70050000D01*
X94610000Y-69400000D02*
X94610000Y-67600000D01*
G04 #@! TO.C,SW2*
X87275000Y-89575000D02*
X82875000Y-89575000D01*
X82875000Y-89575000D02*
X82875000Y-89695000D01*
X82875000Y-90705000D02*
X82875000Y-91845000D01*
X82875000Y-92855000D02*
X82875000Y-92975000D01*
X82875000Y-92975000D02*
X87275000Y-92975000D01*
X87275000Y-92975000D02*
X87275000Y-92855000D01*
X87275000Y-91845000D02*
X87275000Y-90705000D01*
X87275000Y-89695000D02*
X87275000Y-89575000D01*
G04 #@! TO.C,SW1*
X87275000Y-93895000D02*
X87275000Y-93775000D01*
X87275000Y-96045000D02*
X87275000Y-94905000D01*
X87275000Y-97175000D02*
X87275000Y-97055000D01*
X82875000Y-97175000D02*
X87275000Y-97175000D01*
X82875000Y-97055000D02*
X82875000Y-97175000D01*
X82875000Y-94905000D02*
X82875000Y-96045000D01*
X82875000Y-93775000D02*
X82875000Y-93895000D01*
X87275000Y-93775000D02*
X82875000Y-93775000D01*
G04 #@! TO.C,C2*
X82903733Y-74090000D02*
X83246267Y-74090000D01*
X82903733Y-75110000D02*
X83246267Y-75110000D01*
G04 #@! TO.C,C3*
X80110000Y-92846267D02*
X80110000Y-92503733D01*
X79090000Y-92846267D02*
X79090000Y-92503733D01*
G04 #@! TO.C,C4*
X79010000Y-70203733D02*
X79010000Y-70546267D01*
X77990000Y-70203733D02*
X77990000Y-70546267D01*
D12*
G04 #@! TO.C,U2*
X80129192Y-84755020D02*
X80129192Y-86130020D01*
X90254192Y-84755020D02*
X90254192Y-80605020D01*
X80104192Y-84755020D02*
X80104192Y-80605020D01*
X90254192Y-84755020D02*
X90149192Y-84755020D01*
X90254192Y-80605020D02*
X90149192Y-80605020D01*
X80104192Y-80605020D02*
X80209192Y-80605020D01*
X80104192Y-84755020D02*
X80129192Y-84755020D01*
G04 #@! TO.C,U1*
X81729192Y-83430020D02*
X81729192Y-77455020D01*
X88629192Y-81905020D02*
X88629192Y-77455020D01*
D11*
G04 #@! TO.C,D3*
X94700000Y-63700000D02*
X91900000Y-63700000D01*
X94700000Y-62300000D02*
X91900000Y-62300000D01*
X94700000Y-63700000D02*
X94700000Y-62300000D01*
G04 #@! TO.C,D2*
X80100000Y-100700000D02*
X81500000Y-100700000D01*
X81500000Y-100700000D02*
X81500000Y-97900000D01*
X80100000Y-100700000D02*
X80100000Y-97900000D01*
G04 #@! TO.C,D1*
X88900000Y-100700000D02*
X88900000Y-97900000D01*
X90300000Y-100700000D02*
X90300000Y-97900000D01*
X88900000Y-100700000D02*
X90300000Y-100700000D01*
G04 #@! TO.C,R4*
X78690000Y-99096267D02*
X78690000Y-98753733D01*
X79710000Y-99096267D02*
X79710000Y-98753733D01*
G04 #@! TO.C,R5*
X92953733Y-66010000D02*
X93296267Y-66010000D01*
X92953733Y-64990000D02*
X93296267Y-64990000D01*
G04 #@! TO.C,R3*
X90690000Y-99096267D02*
X90690000Y-98753733D01*
X91710000Y-99096267D02*
X91710000Y-98753733D01*
G04 #@! TO.C,U3*
D12*
X80838095Y-67052380D02*
X80838095Y-67861904D01*
X80885714Y-67957142D01*
X80933333Y-68004761D01*
X81028571Y-68052380D01*
X81219047Y-68052380D01*
X81314285Y-68004761D01*
X81361904Y-67957142D01*
X81409523Y-67861904D01*
X81409523Y-67052380D01*
X81790476Y-67052380D02*
X82409523Y-67052380D01*
X82076190Y-67433333D01*
X82219047Y-67433333D01*
X82314285Y-67480952D01*
X82361904Y-67528571D01*
X82409523Y-67623809D01*
X82409523Y-67861904D01*
X82361904Y-67957142D01*
X82314285Y-68004761D01*
X82219047Y-68052380D01*
X81933333Y-68052380D01*
X81838095Y-68004761D01*
X81790476Y-67957142D01*
G04 #@! TO.C,C7*
X86287142Y-70666666D02*
X86334761Y-70714285D01*
X86382380Y-70857142D01*
X86382380Y-70952380D01*
X86334761Y-71095238D01*
X86239523Y-71190476D01*
X86144285Y-71238095D01*
X85953809Y-71285714D01*
X85810952Y-71285714D01*
X85620476Y-71238095D01*
X85525238Y-71190476D01*
X85430000Y-71095238D01*
X85382380Y-70952380D01*
X85382380Y-70857142D01*
X85430000Y-70714285D01*
X85477619Y-70666666D01*
X85382380Y-70333333D02*
X85382380Y-69666666D01*
X86382380Y-70095238D01*
G04 #@! TO.C,J1*
X75866666Y-70782380D02*
X75866666Y-71496666D01*
X75819047Y-71639523D01*
X75723809Y-71734761D01*
X75580952Y-71782380D01*
X75485714Y-71782380D01*
X76866666Y-71782380D02*
X76295238Y-71782380D01*
X76580952Y-71782380D02*
X76580952Y-70782380D01*
X76485714Y-70925238D01*
X76390476Y-71020476D01*
X76295238Y-71068095D01*
G04 #@! TO.C,J2*
X93646666Y-70782380D02*
X93646666Y-71496666D01*
X93599047Y-71639523D01*
X93503809Y-71734761D01*
X93360952Y-71782380D01*
X93265714Y-71782380D01*
X94075238Y-70877619D02*
X94122857Y-70830000D01*
X94218095Y-70782380D01*
X94456190Y-70782380D01*
X94551428Y-70830000D01*
X94599047Y-70877619D01*
X94646666Y-70972857D01*
X94646666Y-71068095D01*
X94599047Y-71210952D01*
X94027619Y-71782380D01*
X94646666Y-71782380D01*
G04 #@! TO.C,D4*
X74002380Y-66375595D02*
X73002380Y-66375595D01*
X73002380Y-66137500D01*
X73050000Y-65994642D01*
X73145238Y-65899404D01*
X73240476Y-65851785D01*
X73430952Y-65804166D01*
X73573809Y-65804166D01*
X73764285Y-65851785D01*
X73859523Y-65899404D01*
X73954761Y-65994642D01*
X74002380Y-66137500D01*
X74002380Y-66375595D01*
X73335714Y-64947023D02*
X74002380Y-64947023D01*
X72954761Y-65185119D02*
X73669047Y-65423214D01*
X73669047Y-64804166D01*
G04 #@! TO.C,Q1*
X90647619Y-68595238D02*
X90600000Y-68690476D01*
X90504761Y-68785714D01*
X90361904Y-68928571D01*
X90314285Y-69023809D01*
X90314285Y-69119047D01*
X90552380Y-69071428D02*
X90504761Y-69166666D01*
X90409523Y-69261904D01*
X90219047Y-69309523D01*
X89885714Y-69309523D01*
X89695238Y-69261904D01*
X89600000Y-69166666D01*
X89552380Y-69071428D01*
X89552380Y-68880952D01*
X89600000Y-68785714D01*
X89695238Y-68690476D01*
X89885714Y-68642857D01*
X90219047Y-68642857D01*
X90409523Y-68690476D01*
X90504761Y-68785714D01*
X90552380Y-68880952D01*
X90552380Y-69071428D01*
X90552380Y-67690476D02*
X90552380Y-68261904D01*
X90552380Y-67976190D02*
X89552380Y-67976190D01*
X89695238Y-68071428D01*
X89790476Y-68166666D01*
X89838095Y-68261904D01*
G04 #@! TO.C,J3*
X76466666Y-63232380D02*
X76466666Y-63946666D01*
X76419047Y-64089523D01*
X76323809Y-64184761D01*
X76180952Y-64232380D01*
X76085714Y-64232380D01*
X76847619Y-63232380D02*
X77466666Y-63232380D01*
X77133333Y-63613333D01*
X77276190Y-63613333D01*
X77371428Y-63660952D01*
X77419047Y-63708571D01*
X77466666Y-63803809D01*
X77466666Y-64041904D01*
X77419047Y-64137142D01*
X77371428Y-64184761D01*
X77276190Y-64232380D01*
X76990476Y-64232380D01*
X76895238Y-64184761D01*
X76847619Y-64137142D01*
G04 #@! TD*
M02*
