<?xml version="1.0" standalone="no"?>
 <!DOCTYPE svg PUBLIC "-//W3C//DTD SVG 1.1//EN" 
 "http://www.w3.org/Graphics/SVG/1.1/DTD/svg11.dtd"> 
<svg xmlns="http://www.w3.org/2000/svg" version="1.1" 
    width="2.30886cm" height="4.12242cm" viewBox="0 0 9090 16230 ">
<title>SVG Picture created as CH552-USB-Devboard-brd.svg date 2020/12/10 10:20:50 </title>
  <desc>Picture generated by PCBNEW </desc>
<g style="fill:#000000; fill-opacity:1;stroke:#000000; stroke-opacity:1;
stroke-linecap:round; stroke-linejoin:round; "
 transform="translate(0 0) scale(1 1)">
</g>
<g style="fill:#000000; fill-opacity:0.0; 
stroke:#000000; stroke-width:-0.000393701; stroke-opacity:1; 
stroke-linecap:round; stroke-linejoin:round;">
</g>
<g style="fill:#840084; fill-opacity:0.0; 
stroke:#840084; stroke-width:-0.000393701; stroke-opacity:1; 
stroke-linecap:round; stroke-linejoin:round;">
</g>
<g style="fill:#840084; fill-opacity:0.0; 
stroke:#840084; stroke-width:47.2441; stroke-opacity:1; 
stroke-linecap:round; stroke-linejoin:round;">
<path d="M4724 2538
L4724 3089
" />
<path d="M5000 3365
L5236 3365
" />
<path d="M5511 3089
L5511 2538
" />
<path d="M5236 2262
L5000 2262
" />
<path d="M5000 2262.93 A275.591 275.591 0.0 0 0 4724.41 2538.52 " />
<path d="M5511.81 2538.52 A275.591 275.591 0.0 0 0 5236.22 2262.93 " />
<path d="M5236.22 3365.29 A275.591 275.591 0.0 0 0 5511.81 3089.7 " />
<path d="M4724.41 3089.7 A275.591 275.591 0.0 0 0 5000 3365.29 " />
<path d="M3740.16 3089.7 A275.591 275.591 0.0 0 0 4015.75 3365.29 " />
<path d="M4251.97 3365.29 A275.591 275.591 0.0 0 0 4527.56 3089.7 " />
<path d="M4527.56 2538.52 A275.591 275.591 0.0 0 0 4251.97 2262.93 " />
<path d="M4015.75 2262.93 A275.591 275.591 0.0 0 0 3740.16 2538.52 " />
<path d="M4251 2262
L4015 2262
" />
<path d="M4527 3089
L4527 2538
" />
<path d="M4015 3365
L4251 3365
" />
<path d="M3740 2538
L3740 3089
" />
<path d="M5822 12261
L5822 12126
" />
<path d="M6224 12261
L6224 12126
" />
<path d="M6224 14977
L6224 14843
" />
<path d="M5822 14977
L5822 14843
" />
<path d="M3523 15825
L3523 10865
" />
<path d="M3523 10865
L5531 10865
" />
<path d="M5531 10865
L5531 15825
" />
</g>
<g style="fill:#840084; fill-opacity:0.0; 
stroke:#840084; stroke-width:59.0551; stroke-opacity:1; 
stroke-linecap:round; stroke-linejoin:round;">
<path d="M4193 2486
L4475 2486
L4531 2467
L4568 2429
L4587 2373
L4587 2336
" />
<path d="M4587 2673
L4193 2673
L4193 2823
L4212 2860
L4231 2879
L4268 2898
L4325 2898
L4362 2879
L4381 2860
L4400 2823
L4400 2673
" />
<path d="M4587 3273
L4587 3048
" />
<path d="M4587 3160
L4193 3160
L4250 3123
L4287 3085
L4306 3048
" />
<path d="M3209 2486
L3490 2486
L3547 2467
L3584 2429
L3603 2373
L3603 2336
" />
<path d="M3603 2673
L3209 2673
L3209 2823
L3228 2860
L3247 2879
L3284 2898
L3340 2898
L3378 2879
L3397 2860
L3415 2823
L3415 2673
" />
<path d="M3247 3048
L3228 3067
L3209 3104
L3209 3198
L3228 3235
L3247 3254
L3284 3273
L3322 3273
L3378 3254
L3603 3029
L3603 3273
" />
</g>
<g style="fill:#000000; fill-opacity:0.0; 
stroke:#000000; stroke-width:59.0551; stroke-opacity:1; 
stroke-linecap:round; stroke-linejoin:round;">
</g>
<g style="fill:#848400; fill-opacity:0.0; 
stroke:#848400; stroke-width:59.0551; stroke-opacity:1; 
stroke-linecap:round; stroke-linejoin:round;">
</g>
<g style="fill:#848400; fill-opacity:0.0; 
stroke:#848400; stroke-width:826.772; stroke-opacity:1; 
stroke-linecap:round; stroke-linejoin:round;">
<path d="M1062 15239
L1062 15239
" />
<path d="M1062 14239
L1062 14239
" />
<path d="M1062 13239
L1062 13239
" />
<path d="M1062 12239
L1062 12239
" />
<path d="M1062 11239
L1062 11239
" />
<path d="M1062 10239
L1062 10239
" />
<path d="M1062 9239
L1062 9239
" />
<path d="M1062 8239
L1062 8239
" />
<path d="M1062 7239
L1062 7239
" />
<path d="M1062 6239
L1062 6239
" />
</g>
<g style="fill:#848400; fill-opacity:0.0; 
stroke:#848400; stroke-width:0; stroke-opacity:1; 
stroke-linecap:round; stroke-linejoin:round;">
</g>
<g style="fill:#848400; fill-opacity:1.0; 
stroke:#848400; stroke-width:0; stroke-opacity:1; 
stroke-linecap:round; stroke-linejoin:round;">
<polyline style="fill-rule:evenodd;"
points="649,5652
649,4825
1476,4825
1476,5652
649,5652
" /> 
<polyline style="fill-rule:evenodd;"
points="7649,5652
7649,4825
8476,4825
8476,5652
7649,5652
" /> 
</g>
<g style="fill:#848400; fill-opacity:1.0; 
stroke:#848400; stroke-width:826.772; stroke-opacity:1; 
stroke-linecap:round; stroke-linejoin:round;">
</g>
<g style="fill:#848400; fill-opacity:0.0; 
stroke:#848400; stroke-width:826.772; stroke-opacity:1; 
stroke-linecap:round; stroke-linejoin:round;">
<path d="M8062 6239
L8062 6239
" />
<path d="M8062 7239
L8062 7239
" />
<path d="M8062 8239
L8062 8239
" />
<path d="M8062 9239
L8062 9239
" />
<path d="M8062 10239
L8062 10239
" />
<path d="M8062 11239
L8062 11239
" />
<path d="M8062 12239
L8062 12239
" />
<path d="M8062 13239
L8062 13239
" />
<path d="M8062 14239
L8062 14239
" />
<path d="M8062 15239
L8062 15239
" />
</g>
<g style="fill:#008400; fill-opacity:0.0; 
stroke:#008400; stroke-width:826.772; stroke-opacity:1; 
stroke-linecap:round; stroke-linejoin:round;">
</g>
<g style="fill:#008400; fill-opacity:0.0; 
stroke:#008400; stroke-width:0; stroke-opacity:1; 
stroke-linecap:round; stroke-linejoin:round;">
</g>
<g style="fill:#008400; fill-opacity:1.0; 
stroke:#008400; stroke-width:0; stroke-opacity:1; 
stroke-linecap:round; stroke-linejoin:round;">
<polyline style="fill-rule:evenodd;"
points="5491,3072
5491,3079
5491,3087
5489,3106
5488,3114
5484,3133
5482,3140
5477,3159
5474,3166
5467,3184
5463,3191
5454,3208
5450,3214
5440,3231
5435,3237
5423,3252
5418,3257
5404,3271
5398,3276
5383,3288
5377,3293
5361,3304
5354,3308
5337,3317
5330,3320
5312,3328
5305,3330
5287,3336
5279,3338
5260,3341
5253,3343
5233,3344
5226,3345
5218,3345
5216,3345
5019,3345
5017,3345
5010,3345
5002,3344
4983,3343
4975,3341
4956,3338
4948,3336
4930,3330
4923,3328
4905,3320
4898,3317
4881,3308
4874,3304
4858,3293
4852,3288
4837,3276
4831,3271
4818,3257
4812,3252
4800,3237
4796,3231
4785,3214
4781,3208
4772,3191
4768,3184
4761,3166
4758,3159
4753,3140
4751,3133
4747,3114
4746,3106
4744,3087
4744,3079
4744,3072
4744,3070
4744,2873
4745,2857
4750,2843
4757,2829
4767,2817
4779,2807
4792,2800
4807,2795
4822,2794
5413,2794
5428,2795
5443,2800
5457,2807
5469,2817
5478,2829
5486,2843
5490,2857
5492,2873
5492,3070
5491,3072
" /> 
<polyline style="fill-rule:evenodd;"
points="5490,2770
5486,2785
5478,2798
5469,2810
5457,2820
5443,2827
5428,2832
5413,2833
5314,2833
5314,2912
5313,2927
5308,2942
5301,2956
5291,2968
5279,2978
5266,2985
5251,2989
5236,2991
5000,2991
4984,2989
4969,2985
4956,2978
4944,2968
4934,2956
4927,2942
4922,2927
4921,2912
4921,2833
4822,2833
4807,2832
4792,2827
4779,2820
4767,2810
4757,2798
4750,2785
4745,2770
4744,2755
4744,2558
4744,2555
4744,2548
4744,2540
4746,2521
4747,2513
4751,2495
4753,2487
4758,2469
4761,2461
4768,2443
4772,2436
4781,2419
4785,2413
4796,2397
4800,2390
4812,2376
4818,2370
4831,2356
4837,2351
4852,2339
4858,2334
4874,2323
4881,2319
4898,2310
4905,2307
4923,2300
4930,2297
4948,2291
4956,2290
4975,2286
4983,2285
5002,2283
5010,2282
5017,2282
5019,2282
5216,2282
5218,2282
5226,2282
5233,2283
5253,2285
5260,2286
5279,2290
5287,2291
5305,2297
5312,2300
5330,2307
5337,2310
5354,2319
5361,2323
5377,2334
5383,2339
5398,2351
5404,2356
5418,2370
5423,2376
5435,2390
5440,2397
5450,2413
5454,2419
5463,2436
5467,2443
5474,2461
5477,2469
5482,2487
5484,2495
5488,2513
5489,2521
5491,2540
5491,2548
5491,2555
5492,2558
5492,2755
5490,2770
" /> 
<polyline style="fill-rule:evenodd;"
points="4506,2770
4501,2785
4494,2798
4484,2810
4472,2820
4459,2827
4444,2832
4429,2833
4330,2833
4330,2912
4329,2927
4324,2942
4317,2956
4307,2968
4295,2978
4282,2985
4267,2989
4251,2991
4015,2991
4000,2989
3985,2985
3972,2978
3960,2968
3950,2956
3943,2942
3938,2927
3937,2912
3937,2833
3838,2833
3823,2832
3808,2827
3794,2820
3782,2810
3773,2798
3765,2785
3761,2770
3759,2755
3759,2558
3760,2555
3760,2548
3760,2540
3762,2521
3763,2513
3767,2495
3769,2487
3774,2469
3777,2461
3784,2443
3788,2436
3797,2419
3801,2413
3811,2397
3816,2390
3828,2376
3833,2370
3847,2356
3853,2351
3868,2339
3874,2334
3890,2323
3897,2319
3914,2310
3921,2307
3938,2300
3946,2297
3964,2291
3972,2290
3991,2286
3998,2285
4018,2283
4025,2282
4033,2282
4035,2282
4232,2282
4234,2282
4241,2282
4249,2283
4268,2285
4276,2286
4295,2290
4302,2291
4321,2297
4328,2300
4346,2307
4353,2310
4370,2319
4377,2323
4393,2334
4399,2339
4414,2351
4420,2356
4433,2370
4439,2376
4451,2390
4455,2397
4466,2413
4470,2419
4479,2436
4482,2443
4490,2461
4492,2469
4498,2487
4500,2495
4504,2513
4505,2521
4507,2540
4507,2548
4507,2555
4507,2558
4507,2755
4506,2770
" /> 
<polyline style="fill-rule:evenodd;"
points="4507,3072
4507,3079
4507,3087
4505,3106
4504,3114
4500,3133
4498,3140
4492,3159
4490,3166
4482,3184
4479,3191
4470,3208
4466,3214
4455,3231
4451,3237
4439,3252
4433,3257
4420,3271
4414,3276
4399,3288
4393,3293
4377,3304
4370,3308
4353,3317
4346,3320
4328,3328
4321,3330
4302,3336
4295,3338
4276,3341
4268,3343
4249,3344
4241,3345
4234,3345
4232,3345
4035,3345
4033,3345
4025,3345
4018,3344
3998,3343
3991,3341
3972,3338
3964,3336
3946,3330
3938,3328
3921,3320
3914,3317
3897,3308
3890,3304
3874,3293
3868,3288
3853,3276
3847,3271
3833,3257
3828,3252
3816,3237
3811,3231
3801,3214
3797,3208
3788,3191
3784,3184
3777,3166
3774,3159
3769,3140
3767,3133
3763,3114
3762,3106
3760,3087
3760,3079
3760,3072
3759,3070
3759,2873
3761,2857
3765,2843
3773,2829
3782,2817
3794,2807
3808,2800
3823,2795
3838,2794
4429,2794
4444,2795
4459,2800
4472,2807
4484,2817
4494,2829
4501,2843
4506,2857
4507,2873
4507,3070
4507,3072
" /> 
</g>
<g style="fill:#848400; fill-opacity:1.0; 
stroke:#848400; stroke-width:0; stroke-opacity:1; 
stroke-linecap:round; stroke-linejoin:round;">
</g>
<g style="fill:#848400; fill-opacity:1.0; 
stroke:#848400; stroke-width:511.811; stroke-opacity:1; 
stroke-linecap:round; stroke-linejoin:round;">
</g>
<g style="fill:#848400; fill-opacity:0.0; 
stroke:#848400; stroke-width:511.811; stroke-opacity:1; 
stroke-linecap:round; stroke-linejoin:round;">
<path d="M2824 2707
L2824 2274
" />
<path d="M6230 2707
L6230 2274
" />
<path d="M6230 1062
L6230 629
" />
<path d="M2824 1062
L2824 629
" />
</g>
<g style="fill:#848400; fill-opacity:1.0; 
stroke:#848400; stroke-width:0; stroke-opacity:1; 
stroke-linecap:round; stroke-linejoin:round;">
<circle cx="3389.76" cy="2294.43" r="196.85" /> 
</g>
<g style="fill:#848400; fill-opacity:1.0; 
stroke:#848400; stroke-width:39.3701; stroke-opacity:1; 
stroke-linecap:round; stroke-linejoin:round;">
</g>
<g style="fill:#848400; fill-opacity:1.0; 
stroke:#848400; stroke-width:0; stroke-opacity:1; 
stroke-linecap:round; stroke-linejoin:round;">
<circle cx="5665.35" cy="2294.43" r="196.85" /> 
</g>
<g style="fill:#848400; fill-opacity:1.0; 
stroke:#848400; stroke-width:39.3701; stroke-opacity:1; 
stroke-linecap:round; stroke-linejoin:round;">
</g>
<g style="fill:#008400; fill-opacity:1.0; 
stroke:#008400; stroke-width:39.3701; stroke-opacity:1; 
stroke-linecap:round; stroke-linejoin:round;">
</g>
<g style="fill:#008400; fill-opacity:1.0; 
stroke:#008400; stroke-width:0; stroke-opacity:1; 
stroke-linecap:round; stroke-linejoin:round;">
<polyline style="fill-rule:evenodd;"
points="6169,11564
6182,11566
6195,11569
6207,11574
6219,11579
6230,11586
6240,11594
6250,11603
6259,11612
6266,11623
6273,11634
6279,11646
6283,11658
6286,11671
6288,11683
6289,11696
6289,12002
6288,12015
6286,12028
6283,12040
6279,12052
6273,12064
6266,12075
6259,12086
6250,12096
6240,12104
6230,12112
6219,12119
6207,12124
6195,12129
6182,12132
6169,12134
6156,12134
5890,12134
5877,12134
5864,12132
5852,12129
5839,12124
5828,12119
5816,12112
5806,12104
5796,12096
5788,12086
5780,12075
5773,12064
5767,12052
5763,12040
5760,12028
5758,12015
5757,12002
5757,11696
5758,11683
5760,11671
5763,11658
5767,11646
5773,11634
5780,11623
5788,11612
5796,11603
5806,11594
5816,11586
5828,11579
5839,11574
5852,11569
5864,11566
5877,11564
5890,11564
6156,11564
6169,11564
" /> 
<polyline style="fill-rule:evenodd;"
points="6169,12253
6182,12255
6195,12258
6207,12263
6219,12268
6230,12275
6240,12283
6250,12292
6259,12301
6266,12312
6273,12323
6279,12335
6283,12347
6286,12360
6288,12372
6289,12385
6289,12691
6288,12704
6286,12717
6283,12729
6279,12741
6273,12753
6266,12764
6259,12775
6250,12785
6240,12793
6230,12801
6219,12808
6207,12813
6195,12818
6182,12821
6169,12823
6156,12823
5890,12823
5877,12823
5864,12821
5852,12818
5839,12813
5828,12808
5816,12801
5806,12793
5796,12785
5788,12775
5780,12764
5773,12753
5767,12741
5763,12729
5760,12717
5758,12704
5757,12691
5757,12385
5758,12372
5760,12360
5763,12347
5767,12335
5773,12323
5780,12312
5788,12301
5796,12292
5806,12283
5816,12275
5828,12268
5839,12263
5852,12258
5864,12255
5877,12253
5890,12253
6156,12253
6169,12253
" /> 
<polyline style="fill-rule:evenodd;"
points="6169,14970
6182,14972
6195,14975
6207,14979
6219,14985
6230,14992
6240,14999
6250,15008
6259,15018
6266,15028
6273,15039
6279,15051
6283,15063
6286,15076
6288,15089
6289,15102
6289,15407
6288,15420
6286,15433
6283,15446
6279,15458
6273,15470
6266,15481
6259,15491
6250,15501
6240,15510
6230,15518
6219,15524
6207,15530
6195,15534
6182,15537
6169,15539
6156,15540
5890,15540
5877,15539
5864,15537
5852,15534
5839,15530
5828,15524
5816,15518
5806,15510
5796,15501
5788,15491
5780,15481
5773,15470
5767,15458
5763,15446
5760,15433
5758,15420
5757,15407
5757,15102
5758,15089
5760,15076
5763,15063
5767,15051
5773,15039
5780,15028
5788,15018
5796,15008
5806,14999
5816,14992
5828,14985
5839,14979
5852,14975
5864,14972
5877,14970
5890,14969
6156,14969
6169,14970
" /> 
<polyline style="fill-rule:evenodd;"
points="6169,14281
6182,14283
6195,14286
6207,14290
6219,14296
6230,14303
6240,14310
6250,14319
6259,14329
6266,14339
6273,14350
6279,14362
6283,14374
6286,14387
6288,14400
6289,14413
6289,14718
6288,14731
6286,14744
6283,14757
6279,14769
6273,14781
6266,14792
6259,14802
6250,14812
6240,14821
6230,14829
6219,14835
6207,14841
6195,14845
6182,14848
6169,14850
6156,14851
5890,14851
5877,14850
5864,14848
5852,14845
5839,14841
5828,14835
5816,14829
5806,14821
5796,14812
5788,14802
5780,14792
5773,14781
5767,14769
5763,14757
5760,14744
5758,14731
5757,14718
5757,14413
5758,14400
5760,14387
5763,14374
5767,14362
5773,14350
5780,14339
5788,14329
5796,14319
5806,14310
5816,14303
5828,14296
5839,14290
5852,14286
5864,14283
5877,14281
5890,14280
6156,14280
6169,14281
" /> 
<polyline style="fill-rule:evenodd;"
points="4055,10865
5000,10865
5000,12794
4055,12794
4055,10865
" /> 
<polyline style="fill-rule:evenodd;"
points="4055,14211
5000,14211
5000,16140
4055,16140
4055,14211
" /> 
</g>
<g style="fill:#000000; fill-opacity:1.0; 
stroke:#000000; stroke-width:0; stroke-opacity:1; 
stroke-linecap:round; stroke-linejoin:round;">
</g>
<g style="fill:#840000; fill-opacity:1.0; 
stroke:#840000; stroke-width:0; stroke-opacity:1; 
stroke-linecap:round; stroke-linejoin:round;">
<polyline style="fill-rule:evenodd;"
points="2468,3827
2468,3414
3043,3414
3043,3827
2468,3827
" /> 
<polyline style="fill-rule:evenodd;"
points="2468,4201
2468,3788
3043,3788
3043,4201
2468,4201
" /> 
<polyline style="fill-rule:evenodd;"
points="2468,4575
2468,4162
3043,4162
3043,4575
2468,4575
" /> 
<polyline style="fill-rule:evenodd;"
points="3334,4575
3334,4162
3909,4162
3909,4575
3334,4575
" /> 
<polyline style="fill-rule:evenodd;"
points="3334,3827
3334,3414
3909,3414
3909,3827
3334,3827
" /> 
<polyline style="fill-rule:evenodd;"
points="2311,6761
2324,6763
2336,6766
2349,6771
2360,6776
2372,6783
2382,6791
2392,6799
2400,6809
2408,6820
2415,6831
2420,6842
2425,6855
2428,6867
2430,6880
2431,6893
2431,7198
2430,7211
2428,7224
2425,7237
2420,7249
2415,7261
2408,7272
2400,7283
2392,7292
2382,7301
2372,7309
2360,7316
2349,7321
2336,7326
2324,7329
2311,7331
2298,7331
2032,7331
2019,7331
2006,7329
1993,7326
1981,7321
1969,7316
1958,7309
1948,7301
1938,7292
1929,7283
1921,7272
1915,7261
1909,7249
1905,7237
1902,7224
1900,7211
1899,7198
1899,6893
1900,6880
1902,6867
1905,6855
1909,6842
1915,6831
1921,6820
1929,6809
1938,6799
1948,6791
1958,6783
1969,6776
1981,6771
1993,6766
2006,6763
2019,6761
2032,6760
2298,6760
2311,6761
" /> 
<polyline style="fill-rule:evenodd;"
points="2311,7450
2324,7452
2336,7455
2349,7460
2360,7465
2372,7472
2382,7480
2392,7488
2400,7498
2408,7508
2415,7520
2420,7531
2425,7544
2428,7556
2430,7569
2431,7582
2431,7887
2430,7900
2428,7913
2425,7926
2420,7938
2415,7950
2408,7961
2400,7972
2392,7981
2382,7990
2372,7998
2360,8005
2349,8010
2336,8015
2324,8018
2311,8020
2298,8020
2032,8020
2019,8020
2006,8018
1993,8015
1981,8010
1969,8005
1958,7998
1948,7990
1938,7981
1929,7972
1921,7961
1915,7950
1909,7938
1905,7926
1902,7913
1900,7900
1899,7887
1899,7582
1900,7569
1902,7556
1905,7544
1909,7531
1915,7520
1921,7508
1929,7498
1938,7488
1948,7480
1958,7472
1969,7465
1981,7460
1993,7455
2006,7452
2019,7450
2032,7449
2298,7449
2311,7450
" /> 
<polyline style="fill-rule:evenodd;"
points="4476,3365
4489,3367
4502,3371
4514,3375
4526,3380
4537,3387
4547,3395
4557,3404
4566,3413
4574,3424
4580,3435
4586,3447
4590,3459
4593,3472
4595,3485
4596,3498
4596,3803
4595,3816
4593,3829
4590,3841
4586,3854
4580,3865
4574,3877
4566,3887
4557,3897
4547,3905
4537,3913
4526,3920
4514,3926
4502,3930
4489,3933
4476,3935
4463,3936
4197,3936
4184,3935
4171,3933
4159,3930
4146,3926
4135,3920
4124,3913
4113,3905
4103,3897
4095,3887
4087,3877
4080,3865
4075,3854
4070,3841
4067,3829
4065,3816
4064,3803
4064,3498
4065,3485
4067,3472
4070,3459
4075,3447
4080,3435
4087,3424
4095,3413
4103,3404
4113,3395
4124,3387
4135,3380
4146,3375
4159,3371
4171,3367
4184,3365
4197,3365
4463,3365
4476,3365
" /> 
<polyline style="fill-rule:evenodd;"
points="4476,4054
4489,4056
4502,4059
4514,4064
4526,4069
4537,4076
4547,4084
4557,4093
4566,4102
4574,4113
4580,4124
4586,4136
4590,4148
4593,4161
4595,4174
4596,4187
4596,4492
4595,4505
4593,4518
4590,4530
4586,4543
4580,4554
4574,4566
4566,4576
4557,4586
4547,4594
4537,4602
4526,4609
4514,4615
4502,4619
4489,4622
4476,4624
4463,4625
4197,4625
4184,4624
4171,4622
4159,4619
4146,4615
4135,4609
4124,4602
4113,4594
4103,4586
4095,4576
4087,4566
4080,4554
4075,4543
4070,4530
4067,4518
4065,4505
4064,4492
4064,4187
4065,4174
4067,4161
4070,4148
4075,4136
4080,4124
4087,4113
4095,4102
4103,4093
4113,4084
4124,4076
4135,4069
4146,4064
4159,4059
4171,4056
4184,4054
4197,4054
4463,4054
4476,4054
" /> 
</g>
<g style="fill:#848400; fill-opacity:1.0; 
stroke:#848400; stroke-width:0; stroke-opacity:1; 
stroke-linecap:round; stroke-linejoin:round;">
</g>
<g style="fill:#848400; fill-opacity:1.0; 
stroke:#848400; stroke-width:826.772; stroke-opacity:1; 
stroke-linecap:round; stroke-linejoin:round;">
</g>
<g style="fill:#848400; fill-opacity:0.0; 
stroke:#848400; stroke-width:826.772; stroke-opacity:1; 
stroke-linecap:round; stroke-linejoin:round;">
<path d="M1062 15239
L1062 15239
" />
<path d="M1062 14239
L1062 14239
" />
<path d="M1062 13239
L1062 13239
" />
<path d="M1062 12239
L1062 12239
" />
<path d="M1062 11239
L1062 11239
" />
<path d="M1062 10239
L1062 10239
" />
<path d="M1062 9239
L1062 9239
" />
<path d="M1062 8239
L1062 8239
" />
<path d="M1062 7239
L1062 7239
" />
<path d="M1062 6239
L1062 6239
" />
</g>
<g style="fill:#848400; fill-opacity:0.0; 
stroke:#848400; stroke-width:0; stroke-opacity:1; 
stroke-linecap:round; stroke-linejoin:round;">
</g>
<g style="fill:#848400; fill-opacity:1.0; 
stroke:#848400; stroke-width:0; stroke-opacity:1; 
stroke-linecap:round; stroke-linejoin:round;">
<polyline style="fill-rule:evenodd;"
points="649,5652
649,4825
1476,4825
1476,5652
649,5652
" /> 
<polyline style="fill-rule:evenodd;"
points="7649,5652
7649,4825
8476,4825
8476,5652
7649,5652
" /> 
</g>
<g style="fill:#848400; fill-opacity:1.0; 
stroke:#848400; stroke-width:826.772; stroke-opacity:1; 
stroke-linecap:round; stroke-linejoin:round;">
</g>
<g style="fill:#848400; fill-opacity:0.0; 
stroke:#848400; stroke-width:826.772; stroke-opacity:1; 
stroke-linecap:round; stroke-linejoin:round;">
<path d="M8062 6239
L8062 6239
" />
<path d="M8062 7239
L8062 7239
" />
<path d="M8062 8239
L8062 8239
" />
<path d="M8062 9239
L8062 9239
" />
<path d="M8062 10239
L8062 10239
" />
<path d="M8062 11239
L8062 11239
" />
<path d="M8062 12239
L8062 12239
" />
<path d="M8062 13239
L8062 13239
" />
<path d="M8062 14239
L8062 14239
" />
<path d="M8062 15239
L8062 15239
" />
</g>
<g style="fill:#840000; fill-opacity:0.0; 
stroke:#840000; stroke-width:826.772; stroke-opacity:1; 
stroke-linecap:round; stroke-linejoin:round;">
</g>
<g style="fill:#840000; fill-opacity:0.0; 
stroke:#840000; stroke-width:0; stroke-opacity:1; 
stroke-linecap:round; stroke-linejoin:round;">
</g>
<g style="fill:#840000; fill-opacity:1.0; 
stroke:#840000; stroke-width:0; stroke-opacity:1; 
stroke-linecap:round; stroke-linejoin:round;">
<polyline style="fill-rule:evenodd;"
points="1690,2622
1703,2624
1716,2627
1728,2632
1740,2637
1751,2644
1762,2652
1771,2661
1780,2670
1788,2681
1795,2692
1800,2704
1805,2716
1808,2729
1810,2742
1811,2755
1811,3089
1810,3102
1808,3115
1805,3127
1800,3140
1795,3152
1788,3163
1780,3173
1771,3183
1762,3192
1751,3200
1740,3206
1728,3212
1716,3216
1703,3220
1690,3221
1677,3222
448,3222
435,3221
422,3220
409,3216
397,3212
385,3206
374,3200
363,3192
354,3183
345,3173
337,3163
330,3152
325,3140
320,3127
317,3115
315,3102
314,3089
314,2755
315,2742
317,2729
320,2716
325,2704
330,2692
337,2681
345,2670
354,2661
363,2652
374,2644
385,2637
397,2632
409,2627
422,2624
435,2622
448,2622
1677,2622
1690,2622
" /> 
<polyline style="fill-rule:evenodd;"
points="1690,939
1703,941
1716,944
1728,949
1740,954
1751,961
1762,969
1771,978
1780,987
1788,998
1795,1009
1800,1021
1805,1033
1808,1046
1810,1059
1811,1072
1811,1406
1810,1419
1808,1432
1805,1444
1800,1457
1795,1468
1788,1480
1780,1490
1771,1500
1762,1509
1751,1517
1740,1523
1728,1529
1716,1533
1703,1536
1690,1538
1677,1539
448,1539
435,1538
422,1536
409,1533
397,1529
385,1523
374,1517
363,1509
354,1500
345,1490
337,1480
330,1468
325,1457
320,1444
317,1432
315,1419
314,1406
314,1072
315,1059
317,1046
320,1033
325,1021
330,1009
337,998
345,987
354,978
363,969
374,961
385,954
397,949
409,944
422,941
435,939
448,939
1677,939
1690,939
" /> 
<polyline style="fill-rule:evenodd;"
points="7883,3062
7470,3062
7470,2487
7883,2487
7883,3062
" /> 
<polyline style="fill-rule:evenodd;"
points="7509,3062
7096,3062
7096,2487
7509,2487
7509,3062
" /> 
<polyline style="fill-rule:evenodd;"
points="8257,3062
7844,3062
7844,2487
8257,2487
8257,3062
" /> 
<polyline style="fill-rule:evenodd;"
points="8257,3928
7844,3928
7844,3353
8257,3353
8257,3928
" /> 
<polyline style="fill-rule:evenodd;"
points="7883,3928
7470,3928
7470,3353
7883,3353
7883,3928
" /> 
<polyline style="fill-rule:evenodd;"
points="7509,3928
7096,3928
7096,3353
7509,3353
7509,3928
" /> 
</g>
<g style="fill:#848400; fill-opacity:1.0; 
stroke:#848400; stroke-width:0; stroke-opacity:1; 
stroke-linecap:round; stroke-linejoin:round;">
</g>
<g style="fill:#848400; fill-opacity:1.0; 
stroke:#848400; stroke-width:511.811; stroke-opacity:1; 
stroke-linecap:round; stroke-linejoin:round;">
</g>
<g style="fill:#848400; fill-opacity:0.0; 
stroke:#848400; stroke-width:511.811; stroke-opacity:1; 
stroke-linecap:round; stroke-linejoin:round;">
<path d="M2824 2707
L2824 2274
" />
<path d="M6230 2707
L6230 2274
" />
<path d="M6230 1062
L6230 629
" />
<path d="M2824 1062
L2824 629
" />
</g>
<g style="fill:#848400; fill-opacity:1.0; 
stroke:#848400; stroke-width:0; stroke-opacity:1; 
stroke-linecap:round; stroke-linejoin:round;">
<circle cx="3389.76" cy="2294.43" r="196.85" /> 
</g>
<g style="fill:#848400; fill-opacity:1.0; 
stroke:#848400; stroke-width:39.3701; stroke-opacity:1; 
stroke-linecap:round; stroke-linejoin:round;">
</g>
<g style="fill:#840000; fill-opacity:1.0; 
stroke:#840000; stroke-width:39.3701; stroke-opacity:1; 
stroke-linecap:round; stroke-linejoin:round;">
</g>
<g style="fill:#840000; fill-opacity:1.0; 
stroke:#840000; stroke-width:0; stroke-opacity:1; 
stroke-linecap:round; stroke-linejoin:round;">
<polyline style="fill-rule:evenodd;"
points="4566,2412
4566,3018
4291,3018
4291,2412
4566,2412
" /> 
<polyline style="fill-rule:evenodd;"
points="4763,2412
4763,3018
4488,3018
4488,2412
4763,2412
" /> 
<polyline style="fill-rule:evenodd;"
points="4960,2412
4960,3018
4685,3018
4685,2412
4960,2412
" /> 
<polyline style="fill-rule:evenodd;"
points="4370,2412
4370,3018
4094,3018
4094,2412
4370,2412
" /> 
<polyline style="fill-rule:evenodd;"
points="5157,2412
5157,3018
4881,3018
4881,2412
5157,2412
" /> 
<polyline style="fill-rule:evenodd;"
points="5354,2412
5354,3018
5078,3018
5078,2412
5354,2412
" /> 
<polyline style="fill-rule:evenodd;"
points="4173,2412
4173,3018
3897,3018
3897,2412
4173,2412
" /> 
<polyline style="fill-rule:evenodd;"
points="3976,2412
3976,3018
3700,3018
3700,2412
3976,2412
" /> 
</g>
<g style="fill:#848400; fill-opacity:1.0; 
stroke:#848400; stroke-width:0; stroke-opacity:1; 
stroke-linecap:round; stroke-linejoin:round;">
<circle cx="5665.35" cy="2294.43" r="196.85" /> 
</g>
<g style="fill:#848400; fill-opacity:1.0; 
stroke:#848400; stroke-width:39.3701; stroke-opacity:1; 
stroke-linecap:round; stroke-linejoin:round;">
</g>
<g style="fill:#840000; fill-opacity:1.0; 
stroke:#840000; stroke-width:39.3701; stroke-opacity:1; 
stroke-linecap:round; stroke-linejoin:round;">
</g>
<g style="fill:#840000; fill-opacity:1.0; 
stroke:#840000; stroke-width:0; stroke-opacity:1; 
stroke-linecap:round; stroke-linejoin:round;">
<polyline style="fill-rule:evenodd;"
points="5649,2412
5649,3018
5374,3018
5374,2412
5649,2412
" /> 
<polyline style="fill-rule:evenodd;"
points="5551,2412
5551,3018
5275,3018
5275,2412
5551,2412
" /> 
<polyline style="fill-rule:evenodd;"
points="5866,2412
5866,3018
5590,3018
5590,2412
5866,2412
" /> 
<polyline style="fill-rule:evenodd;"
points="5984,2412
5984,3018
5708,3018
5708,2412
5984,2412
" /> 
<polyline style="fill-rule:evenodd;"
points="3779,2412
3779,3018
3503,3018
3503,2412
3779,2412
" /> 
<polyline style="fill-rule:evenodd;"
points="3661,2412
3661,3018
3385,3018
3385,2412
3661,2412
" /> 
<polyline style="fill-rule:evenodd;"
points="3464,2412
3464,3018
3188,3018
3188,2412
3464,2412
" /> 
<polyline style="fill-rule:evenodd;"
points="3346,2412
3346,3018
3070,3018
3070,2412
3346,2412
" /> 
<polyline style="fill-rule:evenodd;"
points="5088,12804
5088,12390
5659,12390
5659,12804
5088,12804
" /> 
<polyline style="fill-rule:evenodd;"
points="3454,12804
3454,12390
4025,12390
4025,12804
3454,12804
" /> 
<polyline style="fill-rule:evenodd;"
points="5088,11957
5088,11544
5659,11544
5659,11957
5088,11957
" /> 
<polyline style="fill-rule:evenodd;"
points="3454,11957
3454,11544
4025,11544
4025,11957
3454,11957
" /> 
<polyline style="fill-rule:evenodd;"
points="3454,13611
3454,13197
4025,13197
4025,13611
3454,13611
" /> 
<polyline style="fill-rule:evenodd;"
points="5088,13611
5088,13197
5659,13197
5659,13611
5088,13611
" /> 
<polyline style="fill-rule:evenodd;"
points="3454,14457
3454,14044
4025,14044
4025,14457
3454,14457
" /> 
<polyline style="fill-rule:evenodd;"
points="5088,14457
5088,14044
5659,14044
5659,14457
5088,14457
" /> 
<polyline style="fill-rule:evenodd;"
points="3590,5344
3603,5346
3616,5349
3628,5353
3640,5359
3651,5366
3662,5373
3671,5382
3680,5392
3688,5402
3694,5413
3700,5425
3704,5437
3708,5450
3709,5463
3710,5476
3710,5742
3709,5755
3708,5768
3704,5780
3700,5793
3694,5804
3688,5816
3680,5826
3671,5836
3662,5844
3651,5852
3640,5859
3628,5865
3616,5869
3603,5872
3590,5874
3577,5875
3272,5875
3259,5874
3246,5872
3234,5869
3221,5865
3210,5859
3198,5852
3188,5844
3178,5836
3169,5826
3162,5816
3155,5804
3149,5793
3145,5780
3142,5768
3140,5755
3139,5742
3139,5476
3140,5463
3142,5450
3145,5437
3149,5425
3155,5413
3162,5402
3169,5392
3178,5382
3188,5373
3198,5366
3210,5359
3221,5353
3234,5349
3246,5346
3259,5344
3272,5343
3577,5343
3590,5344
" /> 
<polyline style="fill-rule:evenodd;"
points="4279,5344
4292,5346
4305,5349
4317,5353
4329,5359
4340,5366
4351,5373
4360,5382
4369,5392
4377,5402
4383,5413
4389,5425
4393,5437
4397,5450
4398,5463
4399,5476
4399,5742
4398,5755
4397,5768
4393,5780
4389,5793
4383,5804
4377,5816
4369,5826
4360,5836
4351,5844
4340,5852
4329,5859
4317,5865
4305,5869
4292,5872
4279,5874
4266,5875
3961,5875
3948,5874
3935,5872
3923,5869
3910,5865
3898,5859
3887,5852
3877,5844
3867,5836
3858,5826
3851,5816
3844,5804
3838,5793
3834,5780
3831,5768
3829,5755
3828,5742
3828,5476
3829,5463
3831,5450
3834,5437
3838,5425
3844,5413
3851,5402
3858,5392
3867,5382
3877,5373
3887,5366
3898,5359
3910,5353
3923,5349
3935,5346
3948,5344
3961,5343
4266,5343
4279,5344
" /> 
<polyline style="fill-rule:evenodd;"
points="2547,12096
2560,12098
2573,12101
2585,12105
2597,12111
2608,12118
2618,12125
2628,12134
2637,12144
2644,12154
2651,12165
2657,12177
2661,12189
2664,12202
2666,12215
2667,12228
2667,12533
2666,12546
2664,12559
2661,12572
2657,12584
2651,12596
2644,12607
2637,12617
2628,12627
2618,12636
2608,12644
2597,12650
2585,12656
2573,12660
2560,12663
2547,12665
2534,12666
2268,12666
2255,12665
2242,12663
2230,12660
2217,12656
2206,12650
2194,12644
2184,12636
2174,12627
2165,12617
2158,12607
2151,12596
2145,12584
2141,12572
2138,12559
2136,12546
2135,12533
2135,12228
2136,12215
2138,12202
2141,12189
2145,12177
2151,12165
2158,12154
2165,12144
2174,12134
2184,12125
2194,12118
2206,12111
2217,12105
2230,12101
2242,12098
2255,12096
2268,12095
2534,12095
2547,12096
" /> 
<polyline style="fill-rule:evenodd;"
points="2547,12785
2560,12787
2573,12790
2585,12794
2597,12800
2608,12806
2618,12814
2628,12823
2637,12833
2644,12843
2651,12854
2657,12866
2661,12878
2664,12891
2666,12904
2667,12917
2667,13222
2666,13235
2664,13248
2661,13261
2657,13273
2651,13285
2644,13296
2637,13306
2628,13316
2618,13325
2608,13333
2597,13339
2585,13345
2573,13349
2560,13352
2547,13354
2534,13355
2268,13355
2255,13354
2242,13352
2230,13349
2217,13345
2206,13339
2194,13333
2184,13325
2174,13316
2165,13306
2158,13296
2151,13285
2145,13273
2141,13261
2138,13248
2136,13235
2135,13222
2135,12917
2136,12904
2138,12891
2141,12878
2145,12866
2151,12854
2158,12843
2165,12833
2174,12823
2184,12814
2194,12806
2206,12800
2217,12794
2230,12790
2242,12787
2255,12785
2268,12784
2534,12784
2547,12785
" /> 
<polyline style="fill-rule:evenodd;"
points="2114,3316
2127,3318
2139,3321
2152,3326
2164,3331
2175,3338
2185,3346
2195,3354
2204,3364
2211,3375
2218,3386
2224,3398
2228,3410
2231,3423
2233,3435
2234,3448
2234,3754
2233,3767
2231,3779
2228,3792
2224,3804
2218,3816
2211,3827
2204,3838
2195,3848
2185,3856
2175,3864
2164,3871
2152,3876
2139,3881
2127,3884
2114,3886
2101,3886
1835,3886
1822,3886
1809,3884
1797,3881
1784,3876
1772,3871
1761,3864
1751,3856
1741,3848
1732,3838
1725,3827
1718,3816
1712,3804
1708,3792
1705,3779
1703,3767
1702,3754
1702,3448
1703,3435
1705,3423
1708,3410
1712,3398
1718,3386
1725,3375
1732,3364
1741,3354
1751,3346
1761,3338
1772,3331
1784,3326
1797,3321
1809,3318
1822,3316
1835,3316
2101,3316
2114,3316
" /> 
<polyline style="fill-rule:evenodd;"
points="2114,4005
2127,4007
2139,4010
2152,4015
2164,4020
2175,4027
2185,4035
2195,4043
2204,4053
2211,4064
2218,4075
2224,4087
2228,4099
2231,4112
2233,4124
2234,4137
2234,4443
2233,4456
2231,4468
2228,4481
2224,4493
2218,4505
2211,4516
2204,4527
2195,4537
2185,4545
2175,4553
2164,4560
2152,4565
2139,4570
2127,4573
2114,4575
2101,4575
1835,4575
1822,4575
1809,4573
1797,4570
1784,4565
1772,4560
1761,4553
1751,4545
1741,4537
1732,4527
1725,4516
1718,4505
1712,4493
1708,4481
1705,4468
1703,4456
1702,4443
1702,4137
1703,4124
1705,4112
1708,4099
1712,4087
1718,4075
1725,4064
1732,4053
1741,4043
1751,4035
1761,4027
1772,4020
1784,4015
1797,4010
1809,4007
1822,4005
1835,4005
2101,4005
2114,4005
" /> 
<polyline style="fill-rule:evenodd;"
points="3044,8101
2651,8101
2651,7353
3044,7353
3044,8101
" /> 
<polyline style="fill-rule:evenodd;"
points="3544,8101
3151,8101
3151,7353
3544,7353
3544,8101
" /> 
<polyline style="fill-rule:evenodd;"
points="4044,8101
3651,8101
3651,7353
4044,7353
4044,8101
" /> 
<polyline style="fill-rule:evenodd;"
points="4544,8101
4151,8101
4151,7353
4544,7353
4544,8101
" /> 
<polyline style="fill-rule:evenodd;"
points="5044,8101
4651,8101
4651,7353
5044,7353
5044,8101
" /> 
<polyline style="fill-rule:evenodd;"
points="5544,8101
5151,8101
5151,7353
5544,7353
5544,8101
" /> 
<polyline style="fill-rule:evenodd;"
points="6044,8101
5651,8101
5651,7353
6044,7353
6044,8101
" /> 
<polyline style="fill-rule:evenodd;"
points="6544,8101
6151,8101
6151,7353
6544,7353
6544,8101
" /> 
<polyline style="fill-rule:evenodd;"
points="6544,10227
6151,10227
6151,9479
6544,9479
6544,10227
" /> 
<polyline style="fill-rule:evenodd;"
points="6044,10227
5651,10227
5651,9479
6044,9479
6044,10227
" /> 
<polyline style="fill-rule:evenodd;"
points="5544,10227
5151,10227
5151,9479
5544,9479
5544,10227
" /> 
<polyline style="fill-rule:evenodd;"
points="5044,10227
4651,10227
4651,9479
5044,9479
5044,10227
" /> 
<polyline style="fill-rule:evenodd;"
points="4544,10227
4151,10227
4151,9479
4544,9479
4544,10227
" /> 
<polyline style="fill-rule:evenodd;"
points="4044,10227
3651,10227
3651,9479
4044,9479
4044,10227
" /> 
<polyline style="fill-rule:evenodd;"
points="3544,10227
3151,10227
3151,9479
3544,9479
3544,10227
" /> 
<polyline style="fill-rule:evenodd;"
points="3044,10227
2651,10227
2651,9479
3044,9479
3044,10227
" /> 
<polyline style="fill-rule:evenodd;"
points="3613,6812
3279,6812
3279,6083
3613,6083
3613,6812
" /> 
<polyline style="fill-rule:evenodd;"
points="3869,6812
3535,6812
3535,6083
3869,6083
3869,6812
" /> 
<polyline style="fill-rule:evenodd;"
points="4125,6812
3791,6812
3791,6083
4125,6083
4125,6812
" /> 
<polyline style="fill-rule:evenodd;"
points="4381,6812
4046,6812
4046,6083
4381,6083
4381,6812
" /> 
<polyline style="fill-rule:evenodd;"
points="4637,6812
4302,6812
4302,6083
4637,6083
4637,6812
" /> 
<polyline style="fill-rule:evenodd;"
points="4893,6812
4558,6812
4558,6083
4893,6083
4893,6812
" /> 
<polyline style="fill-rule:evenodd;"
points="5149,6812
4814,6812
4814,6083
5149,6083
5149,6812
" /> 
<polyline style="fill-rule:evenodd;"
points="5405,6812
5070,6812
5070,6083
5405,6083
5405,6812
" /> 
<polyline style="fill-rule:evenodd;"
points="5661,6812
5326,6812
5326,6083
5661,6083
5661,6812
" /> 
<polyline style="fill-rule:evenodd;"
points="5917,6812
5582,6812
5582,6083
5917,6083
5917,6812
" /> 
<polyline style="fill-rule:evenodd;"
points="5917,9134
5582,9134
5582,8406
5917,8406
5917,9134
" /> 
<polyline style="fill-rule:evenodd;"
points="5661,9134
5326,9134
5326,8406
5661,8406
5661,9134
" /> 
<polyline style="fill-rule:evenodd;"
points="5405,9134
5070,9134
5070,8406
5405,8406
5405,9134
" /> 
<polyline style="fill-rule:evenodd;"
points="5149,9134
4814,9134
4814,8406
5149,8406
5149,9134
" /> 
<polyline style="fill-rule:evenodd;"
points="4893,9134
4558,9134
4558,8406
4893,8406
4893,9134
" /> 
<polyline style="fill-rule:evenodd;"
points="4637,9134
4302,9134
4302,8406
4637,8406
4637,9134
" /> 
<polyline style="fill-rule:evenodd;"
points="4381,9134
4046,9134
4046,8406
4381,8406
4381,9134
" /> 
<polyline style="fill-rule:evenodd;"
points="4125,9134
3791,9134
3791,8406
4125,8406
4125,9134
" /> 
<polyline style="fill-rule:evenodd;"
points="3869,9134
3535,9134
3535,8406
3869,8406
3869,9134
" /> 
<polyline style="fill-rule:evenodd;"
points="3613,9134
3279,9134
3279,8406
3613,8406
3613,9134
" /> 
<polyline style="fill-rule:evenodd;"
points="7755,1357
7755,727
8385,727
8385,1357
7755,1357
" /> 
<polyline style="fill-rule:evenodd;"
points="6889,1357
6889,727
7519,727
7519,1357
6889,1357
" /> 
<polyline style="fill-rule:evenodd;"
points="2559,14428
3188,14428
3188,15058
2559,15058
2559,14428
" /> 
<polyline style="fill-rule:evenodd;"
points="2559,15294
3188,15294
3188,15924
2559,15924
2559,15294
" /> 
<polyline style="fill-rule:evenodd;"
points="6023,15294
6653,15294
6653,15924
6023,15924
6023,15294
" /> 
<polyline style="fill-rule:evenodd;"
points="6023,14428
6653,14428
6653,15058
6023,15058
6023,14428
" /> 
<polyline style="fill-rule:evenodd;"
points="2389,15245
2402,15247
2415,15250
2427,15255
2439,15260
2450,15267
2461,15275
2470,15284
2479,15293
2487,15304
2494,15315
2499,15327
2504,15339
2507,15352
2509,15365
2509,15378
2509,15683
2509,15696
2507,15709
2504,15721
2499,15734
2494,15745
2487,15757
2479,15767
2470,15777
2461,15785
2450,15793
2439,15800
2427,15805
2415,15810
2402,15813
2389,15815
2376,15816
2111,15816
2098,15815
2085,15813
2072,15810
2060,15805
2048,15800
2037,15793
2026,15785
2017,15777
2008,15767
2000,15757
1994,15745
1988,15734
1984,15721
1980,15709
1978,15696
1978,15683
1978,15378
1978,15365
1980,15352
1984,15339
1988,15327
1994,15315
2000,15304
2008,15293
2017,15284
2026,15275
2037,15267
2048,15260
2060,15255
2072,15250
2085,15247
2098,15245
2111,15245
2376,15245
2389,15245
" /> 
<polyline style="fill-rule:evenodd;"
points="2389,14556
2402,14558
2415,14561
2427,14566
2439,14571
2450,14578
2461,14586
2470,14595
2479,14604
2487,14615
2494,14626
2499,14638
2504,14650
2507,14663
2509,14676
2509,14689
2509,14994
2509,15007
2507,15020
2504,15032
2499,15045
2494,15056
2487,15068
2479,15078
2470,15088
2461,15096
2450,15104
2439,15111
2427,15116
2415,15121
2402,15124
2389,15126
2376,15127
2111,15127
2098,15126
2085,15124
2072,15121
2060,15116
2048,15111
2037,15104
2026,15096
2017,15088
2008,15078
2000,15068
1994,15056
1988,15045
1984,15032
1980,15020
1978,15007
1978,14994
1978,14689
1978,14676
1980,14663
1984,14650
1988,14638
1994,14626
2000,14615
2008,14604
2017,14595
2026,14586
2037,14578
2048,14571
2060,14566
2072,14561
2085,14558
2098,14556
2111,14556
2376,14556
2389,14556
" /> 
<polyline style="fill-rule:evenodd;"
points="8236,1761
8249,1763
8261,1766
8274,1771
8286,1776
8297,1783
8307,1791
8317,1799
8326,1809
8333,1820
8340,1831
8346,1842
8350,1855
8353,1867
8355,1880
8356,1893
8356,2159
8355,2172
8353,2185
8350,2198
8346,2210
8340,2222
8333,2233
8326,2243
8317,2253
8307,2262
8297,2270
8286,2276
8274,2282
8261,2286
8249,2289
8236,2291
8223,2292
7918,2292
7905,2291
7892,2289
7879,2286
7867,2282
7855,2276
7844,2270
7834,2262
7824,2253
7815,2243
7807,2233
7801,2222
7795,2210
7791,2198
7787,2185
7786,2172
7785,2159
7785,1893
7786,1880
7787,1867
7791,1855
7795,1842
7801,1831
7807,1820
7815,1809
7824,1799
7834,1791
7844,1783
7855,1776
7867,1771
7879,1766
7892,1763
7905,1761
7918,1760
8223,1760
8236,1761
" /> 
<polyline style="fill-rule:evenodd;"
points="7547,1761
7560,1763
7573,1766
7585,1771
7597,1776
7608,1783
7618,1791
7628,1799
7637,1809
7644,1820
7651,1831
7657,1842
7661,1855
7664,1867
7666,1880
7667,1893
7667,2159
7666,2172
7664,2185
7661,2198
7657,2210
7651,2222
7644,2233
7637,2243
7628,2253
7618,2262
7608,2270
7597,2276
7585,2282
7573,2286
7560,2289
7547,2291
7534,2292
7229,2292
7216,2291
7203,2289
7190,2286
7178,2282
7166,2276
7155,2270
7145,2262
7135,2253
7126,2243
7118,2233
7112,2222
7106,2210
7102,2198
7099,2185
7097,2172
7096,2159
7096,1893
7097,1880
7099,1867
7102,1855
7106,1842
7112,1831
7118,1820
7126,1809
7135,1799
7145,1791
7155,1783
7166,1776
7178,1771
7190,1766
7203,1763
7216,1761
7229,1760
7534,1760
7547,1761
" /> 
<polyline style="fill-rule:evenodd;"
points="7114,15245
7127,15247
7139,15250
7152,15255
7164,15260
7175,15267
7185,15275
7195,15284
7204,15293
7211,15304
7218,15315
7224,15327
7228,15339
7231,15352
7233,15365
7234,15378
7234,15683
7233,15696
7231,15709
7228,15721
7224,15734
7218,15745
7211,15757
7204,15767
7195,15777
7185,15785
7175,15793
7164,15800
7152,15805
7139,15810
7127,15813
7114,15815
7101,15816
6835,15816
6822,15815
6809,15813
6797,15810
6784,15805
6772,15800
6761,15793
6751,15785
6741,15777
6732,15767
6725,15757
6718,15745
6712,15734
6708,15721
6705,15709
6703,15696
6702,15683
6702,15378
6703,15365
6705,15352
6708,15339
6712,15327
6718,15315
6725,15304
6732,15293
6741,15284
6751,15275
6761,15267
6772,15260
6784,15255
6797,15250
6809,15247
6822,15245
6835,15245
7101,15245
7114,15245
" /> 
<polyline style="fill-rule:evenodd;"
points="7114,14556
7127,14558
7139,14561
7152,14566
7164,14571
7175,14578
7185,14586
7195,14595
7204,14604
7211,14615
7218,14626
7224,14638
7228,14650
7231,14663
7233,14676
7234,14689
7234,14994
7233,15007
7231,15020
7228,15032
7224,15045
7218,15056
7211,15068
7204,15078
7195,15088
7185,15096
7175,15104
7164,15111
7152,15116
7139,15121
7127,15124
7114,15126
7101,15127
6835,15127
6822,15126
6809,15124
6797,15121
6784,15116
6772,15111
6761,15104
6751,15096
6741,15088
6732,15078
6725,15068
6718,15056
6712,15045
6708,15032
6705,15020
6703,15007
6702,14994
6702,14689
6703,14676
6705,14663
6708,14650
6712,14638
6718,14626
6725,14615
6732,14604
6741,14595
6751,14586
6761,14578
6772,14571
6784,14566
6797,14561
6809,14558
6822,14556
6835,14556
7101,14556
7114,14556
" /> 
</g>
<g style="fill:#000000; fill-opacity:1.0; 
stroke:#000000; stroke-width:0; stroke-opacity:1; 
stroke-linecap:round; stroke-linejoin:round;">
</g>
<g style="fill:#008484; fill-opacity:1.0; 
stroke:#008484; stroke-width:0; stroke-opacity:1; 
stroke-linecap:round; stroke-linejoin:round;">
</g>
<g style="fill:#008484; fill-opacity:0.0; 
stroke:#008484; stroke-width:0; stroke-opacity:1; 
stroke-linecap:round; stroke-linejoin:round;">
</g>
<g style="fill:#008484; fill-opacity:0.0; 
stroke:#008484; stroke-width:118.11; stroke-opacity:1; 
stroke-linecap:round; stroke-linejoin:round;">
<path d="M6698 2805
L6895 3396
L7092 2805
" />
<path d="M7598 3396
L7260 3396
" />
<path d="M7429 3396
L7429 2805
L7373 2890
L7317 2946
L7260 2974
" />
<path d="M7851 3339
L7879 3368
L7851 3396
L7823 3368
L7851 3339
L7851 3396
" />
<path d="M8245 2805
L8301 2805
L8357 2833
L8385 2861
L8413 2918
L8442 3030
L8442 3171
L8413 3283
L8385 3339
L8357 3368
L8301 3396
L8245 3396
L8188 3368
L8160 3339
L8132 3283
L8104 3171
L8104 3030
L8132 2918
L8160 2861
L8188 2833
L8245 2805
" />
</g>
<g style="fill:#008484; fill-opacity:0.0; 
stroke:#008484; stroke-width:47.2441; stroke-opacity:1; 
stroke-linecap:round; stroke-linejoin:round;">
<path d="M2834 4629
L3543 4629
" />
<path d="M3543 3361
L2578 3361
" />
<path d="M2366 7458
L2366 7323
" />
<path d="M1964 7458
L1964 7323
" />
<path d="M4531 3927
L4531 4062
" />
<path d="M4129 3927
L4129 4062
" />
<path d="M539 4715
L1062 4715
" />
<path d="M539 5239
L539 4715
" />
<path d="M539 5739
L1586 5739
" />
<path d="M1586 5739
L1586 15762
" />
<path d="M539 5739
L539 15762
" />
<path d="M539 15762
L1586 15762
" />
<path d="M7539 15762
L8586 15762
" />
<path d="M7539 5739
L7539 15762
" />
<path d="M8586 5739
L8586 15762
" />
<path d="M7539 5739
L8586 5739
" />
<path d="M7539 5239
L7539 4715
" />
<path d="M7539 4715
L8062 4715
" />
<path d="M291 1195
L291 3246
" />
<path d="M291 3246
L1834 3246
" />
<path d="M1834 3246
L1834 1195
" />
<path d="M7043 2853
L7043 3818
" />
<path d="M8311 3562
L8311 2853
" />
<path d="M5423 11505
L3690 11505
" />
<path d="M3690 11505
L3690 11552
" />
<path d="M3690 11949
L3690 12398
" />
<path d="M3690 12796
L3690 12843
" />
<path d="M3690 12843
L5423 12843
" />
<path d="M5423 12843
L5423 12796
" />
<path d="M5423 12398
L5423 11949
" />
<path d="M5423 11552
L5423 11505
" />
<path d="M5423 13205
L5423 13158
" />
<path d="M5423 14052
L5423 13603
" />
<path d="M5423 14497
L5423 14449
" />
<path d="M3690 14497
L5423 14497
" />
<path d="M3690 14449
L3690 14497
" />
<path d="M3690 13603
L3690 14052
" />
<path d="M3690 13158
L3690 13205
" />
<path d="M5423 13158
L3690 13158
" />
<path d="M3702 5408
L3837 5408
" />
<path d="M3702 5810
L3837 5810
" />
<path d="M2602 12792
L2602 12658
" />
<path d="M2200 12792
L2200 12658
" />
<path d="M2169 3878
L2169 4013
" />
<path d="M1767 3878
L1767 4013
" />
</g>
<g style="fill:#008484; fill-opacity:0.0; 
stroke:#008484; stroke-width:59.0551; stroke-opacity:1; 
stroke-linecap:round; stroke-linejoin:round;">
<path d="M2609 9607
L2609 10148
" />
<path d="M6596 9607
L6596 7973
" />
<path d="M2600 9607
L2600 7973
" />
<path d="M6596 9607
L6554 9607
" />
<path d="M6596 7973
L6554 7973
" />
<path d="M2600 7973
L2641 7973
" />
<path d="M2600 9607
L2609 9607
" />
<path d="M3239 9085
L3239 6733
" />
<path d="M5956 8485
L5956 6733
" />
</g>
<g style="fill:#008484; fill-opacity:0.0; 
stroke:#008484; stroke-width:47.2441; stroke-opacity:1; 
stroke-linecap:round; stroke-linejoin:round;">
<path d="M8346 1318
L7244 1318
" />
<path d="M8346 766
L7244 766
" />
<path d="M8346 1318
L8346 766
" />
<path d="M2598 15884
L3149 15884
" />
<path d="M3149 15884
L3149 14782
" />
<path d="M2598 15884
L2598 14782
" />
<path d="M6062 15884
L6062 14782
" />
<path d="M6614 15884
L6614 14782
" />
<path d="M6062 15884
L6614 15884
" />
<path d="M2043 15253
L2043 15118
" />
<path d="M2444 15253
L2444 15118
" />
<path d="M7658 2227
L7793 2227
" />
<path d="M7658 1825
L7793 1825
" />
<path d="M6767 15253
L6767 15118
" />
<path d="M7169 15253
L7169 15118
" />
</g>
<g style="fill:#008484; fill-opacity:0.0; 
stroke:#008484; stroke-width:59.0551; stroke-opacity:1; 
stroke-linecap:round; stroke-linejoin:round;">
<path d="M2889 2637
L2889 2956
L2907 2994
L2926 3012
L2964 3031
L3038 3031
L3076 3012
L3095 2994
L3113 2956
L3113 2637
" />
<path d="M3263 2637
L3507 2637
L3376 2787
L3432 2787
L3470 2806
L3488 2825
L3507 2862
L3507 2956
L3488 2994
L3470 3012
L3432 3031
L3320 3031
L3282 3012
L3263 2994
" />
<path d="M5034 4060
L5053 4079
L5071 4135
L5071 4173
L5053 4229
L5015 4267
L4978 4285
L4903 4304
L4846 4304
L4771 4285
L4734 4267
L4696 4229
L4678 4173
L4678 4135
L4696 4079
L4715 4060
" />
<path d="M4678 3929
L4678 3667
L5071 3835
" />
<path d="M931 4106
L931 4387
L913 4443
L875 4481
L819 4500
L781 4500
" />
<path d="M1325 4500
L1100 4500
" />
<path d="M1212 4500
L1212 4106
L1175 4162
L1137 4200
L1100 4218
" />
<path d="M7931 4106
L7931 4387
L7913 4443
L7875 4481
L7819 4500
L7781 4500
" />
<path d="M8100 4143
L8119 4125
L8156 4106
L8250 4106
L8287 4125
L8306 4143
L8325 4181
L8325 4218
L8306 4275
L8081 4500
L8325 4500
" />
<path d="M197 2371
L-195 2371
L-195 2277
L-177 2221
L-139 2183
L-102 2165
L-27 2146
L29 2146
L104 2165
L141 2183
L179 2221
L197 2277
L197 2371
" />
<path d="M-64 1809
L197 1809
" />
<path d="M-214 1902
L66 1996
L66 1752
" />
<path d="M6751 3245
L6732 3282
L6694 3320
L6638 3376
L6619 3414
L6619 3451
" />
<path d="M6713 3432
L6694 3470
L6657 3507
L6582 3526
L6451 3526
L6376 3507
L6338 3470
L6319 3432
L6319 3357
L6338 3320
L6376 3282
L6451 3264
L6582 3264
L6657 3282
L6694 3320
L6713 3357
L6713 3432
" />
<path d="M6713 2889
L6713 3114
" />
<path d="M6713 3001
L6319 3001
L6376 3039
L6413 3076
L6432 3114
" />
<path d="M1167 1133
L1167 1415
L1149 1471
L1111 1508
L1055 1527
L1017 1527
" />
<path d="M1317 1133
L1561 1133
L1430 1283
L1486 1283
L1524 1302
L1542 1321
L1561 1358
L1561 1452
L1542 1490
L1524 1508
L1486 1527
L1374 1527
L1336 1508
L1317 1490
" />
</g>
<g style="fill:#000000; fill-opacity:0.0; 
stroke:#000000; stroke-width:59.0551; stroke-opacity:1; 
stroke-linecap:round; stroke-linejoin:round;">
</g>
<g style="fill:#C2C200; fill-opacity:0.0; 
stroke:#C2C200; stroke-width:59.0551; stroke-opacity:1; 
stroke-linecap:round; stroke-linejoin:round;">
<path d="M984.252 255.057 A787.402 787.402 0.0 0 0 196.85 1042.46 " />
<path d="M196.85 15412.5 A787.402 787.402 0.0 0 0 984.252 16199.9 " />
<path d="M8070.87 16199.9 A787.402 787.402 0.0 0 0 8858.27 15412.5 " />
<path d="M8858.27 1042.46 A787.402 787.402 0.0 0 0 8070.87 255.057 " />
<path d="M8070 16199
L984 16199
" />
<path d="M8858 1042
L8858 15412
" />
<path d="M984 255
L8070 255
" />
<path d="M196 15412
L196 1042
" />
</g> 
</svg>
