G04 #@! TF.GenerationSoftware,KiCad,Pcbnew,(5.0.0)*
G04 #@! TF.CreationDate,2020-08-04T11:38:10+01:00*
G04 #@! TF.ProjectId,CH552-USB-Devboard,43483535322D5553422D446576626F61,rev?*
G04 #@! TF.SameCoordinates,Original*
G04 #@! TF.FileFunction,Legend,Top*
G04 #@! TF.FilePolarity,Positive*
%FSLAX46Y46*%
G04 Gerber Fmt 4.6, Leading zero omitted, Abs format (unit mm)*
G04 Created by KiCad (PCBNEW (5.0.0)) date 08/04/20 11:38:10*
%MOMM*%
%LPD*%
G01*
G04 APERTURE LIST*
%ADD10C,0.120000*%
%ADD11C,0.150000*%
%ADD12C,0.010000*%
G04 APERTURE END LIST*
D10*
G04 #@! TO.C,U3*
X80700000Y-72110000D02*
X82500000Y-72110000D01*
X82500000Y-68890000D02*
X80050000Y-68890000D01*
G04 #@! TO.C,C1*
X79510000Y-79296267D02*
X79510000Y-78953733D01*
X78490000Y-79296267D02*
X78490000Y-78953733D01*
G04 #@! TO.C,C7*
X85010000Y-70328733D02*
X85010000Y-70671267D01*
X83990000Y-70328733D02*
X83990000Y-70671267D01*
G04 #@! TO.C,J1*
X74870000Y-72330000D02*
X76200000Y-72330000D01*
X74870000Y-73660000D02*
X74870000Y-72330000D01*
X74870000Y-74930000D02*
X77530000Y-74930000D01*
X77530000Y-74930000D02*
X77530000Y-100390000D01*
X74870000Y-74930000D02*
X74870000Y-100390000D01*
X74870000Y-100390000D02*
X77530000Y-100390000D01*
G04 #@! TO.C,J2*
X92650000Y-100390000D02*
X95310000Y-100390000D01*
X92650000Y-74930000D02*
X92650000Y-100390000D01*
X95310000Y-74930000D02*
X95310000Y-100390000D01*
X92650000Y-74930000D02*
X95310000Y-74930000D01*
X92650000Y-73660000D02*
X92650000Y-72330000D01*
X92650000Y-72330000D02*
X93980000Y-72330000D01*
G04 #@! TO.C,D4*
X74240000Y-63387500D02*
X74240000Y-68597500D01*
X74240000Y-68597500D02*
X78160000Y-68597500D01*
X78160000Y-68597500D02*
X78160000Y-63387500D01*
G04 #@! TO.C,Q1*
X91390000Y-67600000D02*
X91390000Y-70050000D01*
X94610000Y-69400000D02*
X94610000Y-67600000D01*
G04 #@! TO.C,SW2*
X87275000Y-89575000D02*
X82875000Y-89575000D01*
X82875000Y-89575000D02*
X82875000Y-89695000D01*
X82875000Y-90705000D02*
X82875000Y-91845000D01*
X82875000Y-92855000D02*
X82875000Y-92975000D01*
X82875000Y-92975000D02*
X87275000Y-92975000D01*
X87275000Y-92975000D02*
X87275000Y-92855000D01*
X87275000Y-91845000D02*
X87275000Y-90705000D01*
X87275000Y-89695000D02*
X87275000Y-89575000D01*
G04 #@! TO.C,SW1*
X87275000Y-93895000D02*
X87275000Y-93775000D01*
X87275000Y-96045000D02*
X87275000Y-94905000D01*
X87275000Y-97175000D02*
X87275000Y-97055000D01*
X82875000Y-97175000D02*
X87275000Y-97175000D01*
X82875000Y-97055000D02*
X82875000Y-97175000D01*
X82875000Y-94905000D02*
X82875000Y-96045000D01*
X82875000Y-93775000D02*
X82875000Y-93895000D01*
X87275000Y-93775000D02*
X82875000Y-93775000D01*
G04 #@! TO.C,C2*
X82903733Y-74090000D02*
X83246267Y-74090000D01*
X82903733Y-75110000D02*
X83246267Y-75110000D01*
G04 #@! TO.C,C3*
X80110000Y-92846267D02*
X80110000Y-92503733D01*
X79090000Y-92846267D02*
X79090000Y-92503733D01*
G04 #@! TO.C,C4*
X79010000Y-70203733D02*
X79010000Y-70546267D01*
X77990000Y-70203733D02*
X77990000Y-70546267D01*
D11*
G04 #@! TO.C,U2*
X80129192Y-84755020D02*
X80129192Y-86130020D01*
X90254192Y-84755020D02*
X90254192Y-80605020D01*
X80104192Y-84755020D02*
X80104192Y-80605020D01*
X90254192Y-84755020D02*
X90149192Y-84755020D01*
X90254192Y-80605020D02*
X90149192Y-80605020D01*
X80104192Y-80605020D02*
X80209192Y-80605020D01*
X80104192Y-84755020D02*
X80129192Y-84755020D01*
G04 #@! TO.C,U1*
X81729192Y-83430020D02*
X81729192Y-77455020D01*
X88629192Y-81905020D02*
X88629192Y-77455020D01*
D10*
G04 #@! TO.C,D3*
X94700000Y-63700000D02*
X91900000Y-63700000D01*
X94700000Y-62300000D02*
X91900000Y-62300000D01*
X94700000Y-63700000D02*
X94700000Y-62300000D01*
G04 #@! TO.C,D2*
X80100000Y-100700000D02*
X81500000Y-100700000D01*
X81500000Y-100700000D02*
X81500000Y-97900000D01*
X80100000Y-100700000D02*
X80100000Y-97900000D01*
G04 #@! TO.C,D1*
X88900000Y-100700000D02*
X88900000Y-97900000D01*
X90300000Y-100700000D02*
X90300000Y-97900000D01*
X88900000Y-100700000D02*
X90300000Y-100700000D01*
G04 #@! TO.C,R4*
X78690000Y-99096267D02*
X78690000Y-98753733D01*
X79710000Y-99096267D02*
X79710000Y-98753733D01*
G04 #@! TO.C,R5*
X92953733Y-66010000D02*
X93296267Y-66010000D01*
X92953733Y-64990000D02*
X93296267Y-64990000D01*
G04 #@! TO.C,R3*
X90690000Y-99096267D02*
X90690000Y-98753733D01*
X91710000Y-99096267D02*
X91710000Y-98753733D01*
D12*
G04 #@! TO.C,G\002A\002A\002A*
G36*
X87877685Y-68646961D02*
X88004233Y-68695303D01*
X88110470Y-68795467D01*
X88183222Y-68938657D01*
X88219339Y-69111931D01*
X88215667Y-69302346D01*
X88186442Y-69443394D01*
X88146308Y-69554802D01*
X88089361Y-69654878D01*
X88002904Y-69763506D01*
X87934352Y-69838140D01*
X87781838Y-70002362D01*
X87672535Y-70127984D01*
X87602839Y-70219548D01*
X87569150Y-70281594D01*
X87564661Y-70304322D01*
X87577070Y-70325664D01*
X87620925Y-70339370D01*
X87706166Y-70346857D01*
X87842738Y-70349539D01*
X87882957Y-70349624D01*
X88201253Y-70349624D01*
X88201253Y-70699750D01*
X87206164Y-70699750D01*
X87221188Y-70465650D01*
X87245361Y-70279223D01*
X87296999Y-70115197D01*
X87383838Y-69957818D01*
X87513615Y-69791329D01*
X87597561Y-69699176D01*
X87693917Y-69594088D01*
X87775975Y-69498885D01*
X87831779Y-69427707D01*
X87846502Y-69404787D01*
X87874957Y-69307206D01*
X87881239Y-69187243D01*
X87864889Y-69078715D01*
X87851392Y-69045107D01*
X87785221Y-68982051D01*
X87686522Y-68960481D01*
X87569605Y-68978770D01*
X87448781Y-69035291D01*
X87365726Y-69100336D01*
X87278195Y-69183840D01*
X87278195Y-68759440D01*
X87404245Y-68695134D01*
X87551281Y-68645807D01*
X87717326Y-68629753D01*
X87877685Y-68646961D01*
X87877685Y-68646961D01*
G37*
X87877685Y-68646961D02*
X88004233Y-68695303D01*
X88110470Y-68795467D01*
X88183222Y-68938657D01*
X88219339Y-69111931D01*
X88215667Y-69302346D01*
X88186442Y-69443394D01*
X88146308Y-69554802D01*
X88089361Y-69654878D01*
X88002904Y-69763506D01*
X87934352Y-69838140D01*
X87781838Y-70002362D01*
X87672535Y-70127984D01*
X87602839Y-70219548D01*
X87569150Y-70281594D01*
X87564661Y-70304322D01*
X87577070Y-70325664D01*
X87620925Y-70339370D01*
X87706166Y-70346857D01*
X87842738Y-70349539D01*
X87882957Y-70349624D01*
X88201253Y-70349624D01*
X88201253Y-70699750D01*
X87206164Y-70699750D01*
X87221188Y-70465650D01*
X87245361Y-70279223D01*
X87296999Y-70115197D01*
X87383838Y-69957818D01*
X87513615Y-69791329D01*
X87597561Y-69699176D01*
X87693917Y-69594088D01*
X87775975Y-69498885D01*
X87831779Y-69427707D01*
X87846502Y-69404787D01*
X87874957Y-69307206D01*
X87881239Y-69187243D01*
X87864889Y-69078715D01*
X87851392Y-69045107D01*
X87785221Y-68982051D01*
X87686522Y-68960481D01*
X87569605Y-68978770D01*
X87448781Y-69035291D01*
X87365726Y-69100336D01*
X87278195Y-69183840D01*
X87278195Y-68759440D01*
X87404245Y-68695134D01*
X87551281Y-68645807D01*
X87717326Y-68629753D01*
X87877685Y-68646961D01*
G36*
X87010336Y-68666302D02*
X87072703Y-68675689D01*
X87087218Y-68684422D01*
X87079256Y-68719619D01*
X87057010Y-68807074D01*
X87022940Y-68937629D01*
X86979506Y-69102125D01*
X86929167Y-69291401D01*
X86874382Y-69496300D01*
X86817612Y-69707662D01*
X86761316Y-69916328D01*
X86707954Y-70113138D01*
X86659986Y-70288935D01*
X86619870Y-70434558D01*
X86590068Y-70540848D01*
X86573784Y-70596304D01*
X86551272Y-70655801D01*
X86519722Y-70686572D01*
X86460295Y-70698070D01*
X86367585Y-70699750D01*
X86252716Y-70692394D01*
X86188516Y-70671539D01*
X86179007Y-70659963D01*
X86165835Y-70616263D01*
X86139325Y-70521479D01*
X86101888Y-70384665D01*
X86055931Y-70214881D01*
X86003863Y-70021180D01*
X85948093Y-69812621D01*
X85891030Y-69598260D01*
X85835082Y-69387153D01*
X85782657Y-69188357D01*
X85736164Y-69010928D01*
X85698013Y-68863923D01*
X85670610Y-68756399D01*
X85656367Y-68697411D01*
X85654887Y-68689245D01*
X85683667Y-68674661D01*
X85757884Y-68665004D01*
X85829343Y-68662657D01*
X85931457Y-68665689D01*
X85987138Y-68679036D01*
X86013490Y-68709072D01*
X86021497Y-68734274D01*
X86033962Y-68785288D01*
X86058988Y-68888170D01*
X86094147Y-69032918D01*
X86137011Y-69209530D01*
X86185149Y-69408007D01*
X86207061Y-69498387D01*
X86374926Y-70190883D01*
X86559347Y-69426770D01*
X86743767Y-68662657D01*
X86915492Y-68662657D01*
X87010336Y-68666302D01*
X87010336Y-68666302D01*
G37*
X87010336Y-68666302D02*
X87072703Y-68675689D01*
X87087218Y-68684422D01*
X87079256Y-68719619D01*
X87057010Y-68807074D01*
X87022940Y-68937629D01*
X86979506Y-69102125D01*
X86929167Y-69291401D01*
X86874382Y-69496300D01*
X86817612Y-69707662D01*
X86761316Y-69916328D01*
X86707954Y-70113138D01*
X86659986Y-70288935D01*
X86619870Y-70434558D01*
X86590068Y-70540848D01*
X86573784Y-70596304D01*
X86551272Y-70655801D01*
X86519722Y-70686572D01*
X86460295Y-70698070D01*
X86367585Y-70699750D01*
X86252716Y-70692394D01*
X86188516Y-70671539D01*
X86179007Y-70659963D01*
X86165835Y-70616263D01*
X86139325Y-70521479D01*
X86101888Y-70384665D01*
X86055931Y-70214881D01*
X86003863Y-70021180D01*
X85948093Y-69812621D01*
X85891030Y-69598260D01*
X85835082Y-69387153D01*
X85782657Y-69188357D01*
X85736164Y-69010928D01*
X85698013Y-68863923D01*
X85670610Y-68756399D01*
X85656367Y-68697411D01*
X85654887Y-68689245D01*
X85683667Y-68674661D01*
X85757884Y-68665004D01*
X85829343Y-68662657D01*
X85931457Y-68665689D01*
X85987138Y-68679036D01*
X86013490Y-68709072D01*
X86021497Y-68734274D01*
X86033962Y-68785288D01*
X86058988Y-68888170D01*
X86094147Y-69032918D01*
X86137011Y-69209530D01*
X86185149Y-69408007D01*
X86207061Y-69498387D01*
X86374926Y-70190883D01*
X86559347Y-69426770D01*
X86743767Y-68662657D01*
X86915492Y-68662657D01*
X87010336Y-68666302D01*
G36*
X89672466Y-68635632D02*
X89745636Y-68658079D01*
X89815065Y-68710591D01*
X89856640Y-68750906D01*
X89927845Y-68831869D01*
X89980818Y-68919717D01*
X90018596Y-69025889D01*
X90044215Y-69161823D01*
X90060712Y-69338957D01*
X90070756Y-69557496D01*
X90070285Y-69872468D01*
X90045365Y-70132449D01*
X89994895Y-70341672D01*
X89917776Y-70504368D01*
X89812909Y-70624770D01*
X89788410Y-70644221D01*
X89673399Y-70697749D01*
X89531013Y-70720141D01*
X89390897Y-70708571D01*
X89328503Y-70688071D01*
X89237253Y-70629589D01*
X89161331Y-70555886D01*
X89085962Y-70420022D01*
X89029572Y-70236885D01*
X88992625Y-70020109D01*
X88975587Y-69783330D01*
X88976987Y-69681203D01*
X89331203Y-69681203D01*
X89332280Y-69877799D01*
X89336242Y-70022123D01*
X89344178Y-70125539D01*
X89357181Y-70199409D01*
X89376343Y-70255095D01*
X89388724Y-70279947D01*
X89456149Y-70361158D01*
X89531565Y-70381461D01*
X89608071Y-70341838D01*
X89678769Y-70243275D01*
X89681328Y-70238221D01*
X89707521Y-70177395D01*
X89725523Y-70109305D01*
X89736783Y-70020902D01*
X89742753Y-69899137D01*
X89744881Y-69730963D01*
X89744987Y-69665289D01*
X89743781Y-69479527D01*
X89739198Y-69344346D01*
X89729786Y-69246698D01*
X89714097Y-69173533D01*
X89690680Y-69111804D01*
X89681328Y-69092356D01*
X89613455Y-68995361D01*
X89540507Y-68961254D01*
X89465925Y-68990228D01*
X89396646Y-69076442D01*
X89371335Y-69125593D01*
X89353472Y-69180552D01*
X89341791Y-69253002D01*
X89335029Y-69354623D01*
X89331921Y-69497098D01*
X89331203Y-69681203D01*
X88976987Y-69681203D01*
X88978921Y-69540181D01*
X89003093Y-69304298D01*
X89048568Y-69089314D01*
X89105902Y-68929712D01*
X89196560Y-68779168D01*
X89310158Y-68684231D01*
X89457204Y-68638070D01*
X89565712Y-68630946D01*
X89672466Y-68635632D01*
X89672466Y-68635632D01*
G37*
X89672466Y-68635632D02*
X89745636Y-68658079D01*
X89815065Y-68710591D01*
X89856640Y-68750906D01*
X89927845Y-68831869D01*
X89980818Y-68919717D01*
X90018596Y-69025889D01*
X90044215Y-69161823D01*
X90060712Y-69338957D01*
X90070756Y-69557496D01*
X90070285Y-69872468D01*
X90045365Y-70132449D01*
X89994895Y-70341672D01*
X89917776Y-70504368D01*
X89812909Y-70624770D01*
X89788410Y-70644221D01*
X89673399Y-70697749D01*
X89531013Y-70720141D01*
X89390897Y-70708571D01*
X89328503Y-70688071D01*
X89237253Y-70629589D01*
X89161331Y-70555886D01*
X89085962Y-70420022D01*
X89029572Y-70236885D01*
X88992625Y-70020109D01*
X88975587Y-69783330D01*
X88976987Y-69681203D01*
X89331203Y-69681203D01*
X89332280Y-69877799D01*
X89336242Y-70022123D01*
X89344178Y-70125539D01*
X89357181Y-70199409D01*
X89376343Y-70255095D01*
X89388724Y-70279947D01*
X89456149Y-70361158D01*
X89531565Y-70381461D01*
X89608071Y-70341838D01*
X89678769Y-70243275D01*
X89681328Y-70238221D01*
X89707521Y-70177395D01*
X89725523Y-70109305D01*
X89736783Y-70020902D01*
X89742753Y-69899137D01*
X89744881Y-69730963D01*
X89744987Y-69665289D01*
X89743781Y-69479527D01*
X89739198Y-69344346D01*
X89729786Y-69246698D01*
X89714097Y-69173533D01*
X89690680Y-69111804D01*
X89681328Y-69092356D01*
X89613455Y-68995361D01*
X89540507Y-68961254D01*
X89465925Y-68990228D01*
X89396646Y-69076442D01*
X89371335Y-69125593D01*
X89353472Y-69180552D01*
X89341791Y-69253002D01*
X89335029Y-69354623D01*
X89331921Y-69497098D01*
X89331203Y-69681203D01*
X88976987Y-69681203D01*
X88978921Y-69540181D01*
X89003093Y-69304298D01*
X89048568Y-69089314D01*
X89105902Y-68929712D01*
X89196560Y-68779168D01*
X89310158Y-68684231D01*
X89457204Y-68638070D01*
X89565712Y-68630946D01*
X89672466Y-68635632D01*
G36*
X88725675Y-70304916D02*
X88781723Y-70366257D01*
X88804782Y-70476722D01*
X88806015Y-70520790D01*
X88787747Y-70621784D01*
X88735273Y-70682030D01*
X88639418Y-70726712D01*
X88557485Y-70711041D01*
X88490029Y-70647713D01*
X88435318Y-70540210D01*
X88432179Y-70436491D01*
X88475076Y-70350701D01*
X88558471Y-70296984D01*
X88631637Y-70285965D01*
X88725675Y-70304916D01*
X88725675Y-70304916D01*
G37*
X88725675Y-70304916D02*
X88781723Y-70366257D01*
X88804782Y-70476722D01*
X88806015Y-70520790D01*
X88787747Y-70621784D01*
X88735273Y-70682030D01*
X88639418Y-70726712D01*
X88557485Y-70711041D01*
X88490029Y-70647713D01*
X88435318Y-70540210D01*
X88432179Y-70436491D01*
X88475076Y-70350701D01*
X88558471Y-70296984D01*
X88631637Y-70285965D01*
X88725675Y-70304916D01*
G36*
X88742356Y-71750126D02*
X89092481Y-71750126D01*
X89092481Y-71272682D01*
X89283458Y-71272682D01*
X89283458Y-72418547D01*
X89092481Y-72418547D01*
X89092481Y-71972933D01*
X88742356Y-71972933D01*
X88742356Y-72418547D01*
X88551378Y-72418547D01*
X88551378Y-71272682D01*
X88742356Y-71272682D01*
X88742356Y-71750126D01*
X88742356Y-71750126D01*
G37*
X88742356Y-71750126D02*
X89092481Y-71750126D01*
X89092481Y-71272682D01*
X89283458Y-71272682D01*
X89283458Y-72418547D01*
X89092481Y-72418547D01*
X89092481Y-71972933D01*
X88742356Y-71972933D01*
X88742356Y-72418547D01*
X88551378Y-72418547D01*
X88551378Y-71272682D01*
X88742356Y-71272682D01*
X88742356Y-71750126D01*
G36*
X88455889Y-71384086D02*
X88452035Y-71455413D01*
X88428236Y-71487112D01*
X88366140Y-71495240D01*
X88328571Y-71495489D01*
X88201253Y-71495489D01*
X88201253Y-72418547D01*
X88010275Y-72418547D01*
X88010275Y-71495489D01*
X87898872Y-71495489D01*
X87824206Y-71490562D01*
X87793584Y-71462763D01*
X87787482Y-71392565D01*
X87787468Y-71384086D01*
X87787468Y-71272682D01*
X88455889Y-71272682D01*
X88455889Y-71384086D01*
X88455889Y-71384086D01*
G37*
X88455889Y-71384086D02*
X88452035Y-71455413D01*
X88428236Y-71487112D01*
X88366140Y-71495240D01*
X88328571Y-71495489D01*
X88201253Y-71495489D01*
X88201253Y-72418547D01*
X88010275Y-72418547D01*
X88010275Y-71495489D01*
X87898872Y-71495489D01*
X87824206Y-71490562D01*
X87793584Y-71462763D01*
X87787482Y-71392565D01*
X87787468Y-71384086D01*
X87787468Y-71272682D01*
X88455889Y-71272682D01*
X88455889Y-71384086D01*
G36*
X87691980Y-72418547D02*
X87501002Y-72418547D01*
X87501002Y-71272682D01*
X87691980Y-71272682D01*
X87691980Y-72418547D01*
X87691980Y-72418547D01*
G37*
X87691980Y-72418547D02*
X87501002Y-72418547D01*
X87501002Y-71272682D01*
X87691980Y-71272682D01*
X87691980Y-72418547D01*
G36*
X86377148Y-71274997D02*
X86400675Y-71291577D01*
X86419789Y-71330607D01*
X86438340Y-71401210D01*
X86460179Y-71512511D01*
X86489154Y-71673636D01*
X86502890Y-71750126D01*
X86557457Y-72052507D01*
X86638493Y-71662594D01*
X86719529Y-71272682D01*
X86920755Y-71272682D01*
X86995815Y-71662255D01*
X87070875Y-72051829D01*
X87127763Y-71733872D01*
X87159680Y-71555223D01*
X87183347Y-71429747D01*
X87202471Y-71348095D01*
X87220762Y-71300913D01*
X87241926Y-71278850D01*
X87269673Y-71272555D01*
X87307710Y-71272675D01*
X87310631Y-71272682D01*
X87377425Y-71281217D01*
X87405511Y-71301763D01*
X87405513Y-71301965D01*
X87399212Y-71343131D01*
X87382093Y-71432919D01*
X87356834Y-71557739D01*
X87328698Y-71691878D01*
X87293522Y-71857926D01*
X87259116Y-72021909D01*
X87230095Y-72161746D01*
X87215037Y-72235527D01*
X87192562Y-72337829D01*
X87170158Y-72392483D01*
X87136183Y-72414412D01*
X87078992Y-72418539D01*
X87072241Y-72418547D01*
X87033972Y-72418662D01*
X87004682Y-72413527D01*
X86981107Y-72394922D01*
X86959983Y-72354625D01*
X86938045Y-72284418D01*
X86912029Y-72176079D01*
X86878670Y-72021389D01*
X86838401Y-71829700D01*
X86811631Y-71702381D01*
X86776829Y-71861529D01*
X86750364Y-71984787D01*
X86719753Y-72130507D01*
X86701362Y-72219612D01*
X86660697Y-72418547D01*
X86433957Y-72418547D01*
X86325639Y-71885401D01*
X86289103Y-71707227D01*
X86256136Y-71549559D01*
X86229119Y-71423536D01*
X86210431Y-71340297D01*
X86203250Y-71312469D01*
X86218230Y-71283317D01*
X86292017Y-71272751D01*
X86301459Y-71272682D01*
X86345360Y-71271740D01*
X86377148Y-71274997D01*
X86377148Y-71274997D01*
G37*
X86377148Y-71274997D02*
X86400675Y-71291577D01*
X86419789Y-71330607D01*
X86438340Y-71401210D01*
X86460179Y-71512511D01*
X86489154Y-71673636D01*
X86502890Y-71750126D01*
X86557457Y-72052507D01*
X86638493Y-71662594D01*
X86719529Y-71272682D01*
X86920755Y-71272682D01*
X86995815Y-71662255D01*
X87070875Y-72051829D01*
X87127763Y-71733872D01*
X87159680Y-71555223D01*
X87183347Y-71429747D01*
X87202471Y-71348095D01*
X87220762Y-71300913D01*
X87241926Y-71278850D01*
X87269673Y-71272555D01*
X87307710Y-71272675D01*
X87310631Y-71272682D01*
X87377425Y-71281217D01*
X87405511Y-71301763D01*
X87405513Y-71301965D01*
X87399212Y-71343131D01*
X87382093Y-71432919D01*
X87356834Y-71557739D01*
X87328698Y-71691878D01*
X87293522Y-71857926D01*
X87259116Y-72021909D01*
X87230095Y-72161746D01*
X87215037Y-72235527D01*
X87192562Y-72337829D01*
X87170158Y-72392483D01*
X87136183Y-72414412D01*
X87078992Y-72418539D01*
X87072241Y-72418547D01*
X87033972Y-72418662D01*
X87004682Y-72413527D01*
X86981107Y-72394922D01*
X86959983Y-72354625D01*
X86938045Y-72284418D01*
X86912029Y-72176079D01*
X86878670Y-72021389D01*
X86838401Y-71829700D01*
X86811631Y-71702381D01*
X86776829Y-71861529D01*
X86750364Y-71984787D01*
X86719753Y-72130507D01*
X86701362Y-72219612D01*
X86660697Y-72418547D01*
X86433957Y-72418547D01*
X86325639Y-71885401D01*
X86289103Y-71707227D01*
X86256136Y-71549559D01*
X86229119Y-71423536D01*
X86210431Y-71340297D01*
X86203250Y-71312469D01*
X86218230Y-71283317D01*
X86292017Y-71272751D01*
X86301459Y-71272682D01*
X86345360Y-71271740D01*
X86377148Y-71274997D01*
G36*
X88571885Y-73756992D02*
X88623976Y-73767500D01*
X88643747Y-73795460D01*
X88646867Y-73849417D01*
X88646867Y-73850878D01*
X88643927Y-73905467D01*
X88624662Y-73933880D01*
X88573403Y-73944665D01*
X88474481Y-73946366D01*
X88471804Y-73946366D01*
X88371724Y-73944763D01*
X88319632Y-73934255D01*
X88299861Y-73906295D01*
X88296742Y-73852338D01*
X88296741Y-73850878D01*
X88299681Y-73796288D01*
X88318946Y-73767875D01*
X88370205Y-73757091D01*
X88469127Y-73755389D01*
X88471804Y-73755389D01*
X88571885Y-73756992D01*
X88571885Y-73756992D01*
G37*
X88571885Y-73756992D02*
X88623976Y-73767500D01*
X88643747Y-73795460D01*
X88646867Y-73849417D01*
X88646867Y-73850878D01*
X88643927Y-73905467D01*
X88624662Y-73933880D01*
X88573403Y-73944665D01*
X88474481Y-73946366D01*
X88471804Y-73946366D01*
X88371724Y-73944763D01*
X88319632Y-73934255D01*
X88299861Y-73906295D01*
X88296742Y-73852338D01*
X88296741Y-73850878D01*
X88299681Y-73796288D01*
X88318946Y-73767875D01*
X88370205Y-73757091D01*
X88469127Y-73755389D01*
X88471804Y-73755389D01*
X88571885Y-73756992D01*
G36*
X87920992Y-73162316D02*
X88037315Y-73200343D01*
X88106763Y-73269145D01*
X88135787Y-73373160D01*
X88137594Y-73416406D01*
X88126576Y-73518211D01*
X88099260Y-73602794D01*
X88090859Y-73616969D01*
X88062077Y-73671397D01*
X88078899Y-73713135D01*
X88106774Y-73740388D01*
X88148409Y-73799263D01*
X88166482Y-73889104D01*
X88168411Y-73959257D01*
X88153460Y-74099492D01*
X88105776Y-74197505D01*
X88018051Y-74259071D01*
X87882981Y-74289968D01*
X87741816Y-74296492D01*
X87532832Y-74296492D01*
X87532832Y-73962281D01*
X87755639Y-73962281D01*
X87759985Y-74052112D01*
X87777575Y-74094542D01*
X87815239Y-74105505D01*
X87817024Y-74105514D01*
X87889105Y-74083893D01*
X87928428Y-74055496D01*
X87974533Y-73974986D01*
X87966472Y-73896826D01*
X87911801Y-73838956D01*
X87828847Y-73819048D01*
X87783525Y-73826060D01*
X87762055Y-73858328D01*
X87755825Y-73932699D01*
X87755639Y-73962281D01*
X87532832Y-73962281D01*
X87532832Y-73468923D01*
X87755639Y-73468923D01*
X87761659Y-73553416D01*
X87784336Y-73590389D01*
X87812932Y-73596241D01*
X87883537Y-73576089D01*
X87908421Y-73558046D01*
X87944390Y-73485787D01*
X87927402Y-73412860D01*
X87885050Y-73374554D01*
X87810722Y-73345289D01*
X87770819Y-73363046D01*
X87756360Y-73434374D01*
X87755639Y-73468923D01*
X87532832Y-73468923D01*
X87532832Y-73150627D01*
X87751346Y-73150627D01*
X87920992Y-73162316D01*
X87920992Y-73162316D01*
G37*
X87920992Y-73162316D02*
X88037315Y-73200343D01*
X88106763Y-73269145D01*
X88135787Y-73373160D01*
X88137594Y-73416406D01*
X88126576Y-73518211D01*
X88099260Y-73602794D01*
X88090859Y-73616969D01*
X88062077Y-73671397D01*
X88078899Y-73713135D01*
X88106774Y-73740388D01*
X88148409Y-73799263D01*
X88166482Y-73889104D01*
X88168411Y-73959257D01*
X88153460Y-74099492D01*
X88105776Y-74197505D01*
X88018051Y-74259071D01*
X87882981Y-74289968D01*
X87741816Y-74296492D01*
X87532832Y-74296492D01*
X87532832Y-73962281D01*
X87755639Y-73962281D01*
X87759985Y-74052112D01*
X87777575Y-74094542D01*
X87815239Y-74105505D01*
X87817024Y-74105514D01*
X87889105Y-74083893D01*
X87928428Y-74055496D01*
X87974533Y-73974986D01*
X87966472Y-73896826D01*
X87911801Y-73838956D01*
X87828847Y-73819048D01*
X87783525Y-73826060D01*
X87762055Y-73858328D01*
X87755825Y-73932699D01*
X87755639Y-73962281D01*
X87532832Y-73962281D01*
X87532832Y-73468923D01*
X87755639Y-73468923D01*
X87761659Y-73553416D01*
X87784336Y-73590389D01*
X87812932Y-73596241D01*
X87883537Y-73576089D01*
X87908421Y-73558046D01*
X87944390Y-73485787D01*
X87927402Y-73412860D01*
X87885050Y-73374554D01*
X87810722Y-73345289D01*
X87770819Y-73363046D01*
X87756360Y-73434374D01*
X87755639Y-73468923D01*
X87532832Y-73468923D01*
X87532832Y-73150627D01*
X87751346Y-73150627D01*
X87920992Y-73162316D01*
G36*
X89300661Y-73141087D02*
X89372319Y-73158019D01*
X89403397Y-73191497D01*
X89410693Y-73263033D01*
X89410777Y-73282110D01*
X89408219Y-73360331D01*
X89401854Y-73402750D01*
X89399612Y-73405264D01*
X89365089Y-73395871D01*
X89295855Y-73372973D01*
X89287663Y-73370130D01*
X89202830Y-73351529D01*
X89133167Y-73371581D01*
X89105192Y-73388521D01*
X89014081Y-73483318D01*
X88959800Y-73612363D01*
X88943975Y-73756865D01*
X88968230Y-73898035D01*
X89034192Y-74017081D01*
X89049396Y-74033493D01*
X89123246Y-74085818D01*
X89209464Y-74096765D01*
X89325405Y-74067646D01*
X89355075Y-74056593D01*
X89392425Y-74052225D01*
X89408180Y-74087494D01*
X89410777Y-74147975D01*
X89403890Y-74227479D01*
X89386999Y-74274835D01*
X89383868Y-74277535D01*
X89324504Y-74295726D01*
X89230283Y-74308643D01*
X89129945Y-74313789D01*
X89052233Y-74308670D01*
X89044736Y-74306977D01*
X88949578Y-74256123D01*
X88858175Y-74165393D01*
X88790424Y-74056490D01*
X88774161Y-74011835D01*
X88755354Y-73910809D01*
X88744017Y-73785695D01*
X88742533Y-73730494D01*
X88765335Y-73529266D01*
X88830494Y-73363158D01*
X88932458Y-73238035D01*
X89065671Y-73159764D01*
X89224580Y-73134209D01*
X89300661Y-73141087D01*
X89300661Y-73141087D01*
G37*
X89300661Y-73141087D02*
X89372319Y-73158019D01*
X89403397Y-73191497D01*
X89410693Y-73263033D01*
X89410777Y-73282110D01*
X89408219Y-73360331D01*
X89401854Y-73402750D01*
X89399612Y-73405264D01*
X89365089Y-73395871D01*
X89295855Y-73372973D01*
X89287663Y-73370130D01*
X89202830Y-73351529D01*
X89133167Y-73371581D01*
X89105192Y-73388521D01*
X89014081Y-73483318D01*
X88959800Y-73612363D01*
X88943975Y-73756865D01*
X88968230Y-73898035D01*
X89034192Y-74017081D01*
X89049396Y-74033493D01*
X89123246Y-74085818D01*
X89209464Y-74096765D01*
X89325405Y-74067646D01*
X89355075Y-74056593D01*
X89392425Y-74052225D01*
X89408180Y-74087494D01*
X89410777Y-74147975D01*
X89403890Y-74227479D01*
X89386999Y-74274835D01*
X89383868Y-74277535D01*
X89324504Y-74295726D01*
X89230283Y-74308643D01*
X89129945Y-74313789D01*
X89052233Y-74308670D01*
X89044736Y-74306977D01*
X88949578Y-74256123D01*
X88858175Y-74165393D01*
X88790424Y-74056490D01*
X88774161Y-74011835D01*
X88755354Y-73910809D01*
X88744017Y-73785695D01*
X88742533Y-73730494D01*
X88765335Y-73529266D01*
X88830494Y-73363158D01*
X88932458Y-73238035D01*
X89065671Y-73159764D01*
X89224580Y-73134209D01*
X89300661Y-73141087D01*
G36*
X87283607Y-73142845D02*
X87359803Y-73166492D01*
X87396578Y-73216535D01*
X87405513Y-73292861D01*
X87403031Y-73372541D01*
X87384975Y-73399886D01*
X87335433Y-73386216D01*
X87297955Y-73369394D01*
X87206218Y-73349175D01*
X87137309Y-73354086D01*
X87071246Y-73394244D01*
X87054123Y-73458369D01*
X87085537Y-73530207D01*
X87142919Y-73580786D01*
X87299165Y-73700692D01*
X87394093Y-73825519D01*
X87430044Y-73960102D01*
X87409361Y-74109277D01*
X87405182Y-74122435D01*
X87339024Y-74230492D01*
X87232114Y-74298841D01*
X87096541Y-74323272D01*
X86944395Y-74299576D01*
X86920112Y-74291326D01*
X86861921Y-74260406D01*
X86837163Y-74209874D01*
X86832581Y-74134691D01*
X86835719Y-74047875D01*
X86853387Y-74016321D01*
X86897965Y-74031666D01*
X86943047Y-74060083D01*
X87032967Y-74094582D01*
X87109033Y-74099870D01*
X87178486Y-74077438D01*
X87206373Y-74019747D01*
X87208337Y-74005751D01*
X87201595Y-73939181D01*
X87153968Y-73884721D01*
X87112306Y-73856547D01*
X86976112Y-73758389D01*
X86893148Y-73659972D01*
X86854348Y-73547913D01*
X86848496Y-73467082D01*
X86871843Y-73317664D01*
X86940717Y-73212069D01*
X87053364Y-73152167D01*
X87156449Y-73138439D01*
X87283607Y-73142845D01*
X87283607Y-73142845D01*
G37*
X87283607Y-73142845D02*
X87359803Y-73166492D01*
X87396578Y-73216535D01*
X87405513Y-73292861D01*
X87403031Y-73372541D01*
X87384975Y-73399886D01*
X87335433Y-73386216D01*
X87297955Y-73369394D01*
X87206218Y-73349175D01*
X87137309Y-73354086D01*
X87071246Y-73394244D01*
X87054123Y-73458369D01*
X87085537Y-73530207D01*
X87142919Y-73580786D01*
X87299165Y-73700692D01*
X87394093Y-73825519D01*
X87430044Y-73960102D01*
X87409361Y-74109277D01*
X87405182Y-74122435D01*
X87339024Y-74230492D01*
X87232114Y-74298841D01*
X87096541Y-74323272D01*
X86944395Y-74299576D01*
X86920112Y-74291326D01*
X86861921Y-74260406D01*
X86837163Y-74209874D01*
X86832581Y-74134691D01*
X86835719Y-74047875D01*
X86853387Y-74016321D01*
X86897965Y-74031666D01*
X86943047Y-74060083D01*
X87032967Y-74094582D01*
X87109033Y-74099870D01*
X87178486Y-74077438D01*
X87206373Y-74019747D01*
X87208337Y-74005751D01*
X87201595Y-73939181D01*
X87153968Y-73884721D01*
X87112306Y-73856547D01*
X86976112Y-73758389D01*
X86893148Y-73659972D01*
X86854348Y-73547913D01*
X86848496Y-73467082D01*
X86871843Y-73317664D01*
X86940717Y-73212069D01*
X87053364Y-73152167D01*
X87156449Y-73138439D01*
X87283607Y-73142845D01*
G36*
X86195990Y-73511917D02*
X86199003Y-73667840D01*
X86207160Y-73809564D01*
X86219133Y-73919394D01*
X86230480Y-73972146D01*
X86282258Y-74060426D01*
X86350451Y-74095854D01*
X86423001Y-74074687D01*
X86456608Y-74042372D01*
X86481006Y-74003454D01*
X86497543Y-73949893D01*
X86507646Y-73869755D01*
X86512747Y-73751106D01*
X86514274Y-73582013D01*
X86514285Y-73560885D01*
X86514285Y-73150627D01*
X86705263Y-73150627D01*
X86705144Y-73604198D01*
X86704097Y-73788743D01*
X86700139Y-73921859D01*
X86691875Y-74015761D01*
X86677913Y-74082660D01*
X86656857Y-74134771D01*
X86641470Y-74162009D01*
X86543909Y-74269393D01*
X86422038Y-74320999D01*
X86286034Y-74314559D01*
X86174071Y-74266199D01*
X86112606Y-74217489D01*
X86067451Y-74150905D01*
X86036370Y-74057060D01*
X86017130Y-73926561D01*
X86007495Y-73750021D01*
X86005190Y-73556454D01*
X86005012Y-73150627D01*
X86195990Y-73150627D01*
X86195990Y-73511917D01*
X86195990Y-73511917D01*
G37*
X86195990Y-73511917D02*
X86199003Y-73667840D01*
X86207160Y-73809564D01*
X86219133Y-73919394D01*
X86230480Y-73972146D01*
X86282258Y-74060426D01*
X86350451Y-74095854D01*
X86423001Y-74074687D01*
X86456608Y-74042372D01*
X86481006Y-74003454D01*
X86497543Y-73949893D01*
X86507646Y-73869755D01*
X86512747Y-73751106D01*
X86514274Y-73582013D01*
X86514285Y-73560885D01*
X86514285Y-73150627D01*
X86705263Y-73150627D01*
X86705144Y-73604198D01*
X86704097Y-73788743D01*
X86700139Y-73921859D01*
X86691875Y-74015761D01*
X86677913Y-74082660D01*
X86656857Y-74134771D01*
X86641470Y-74162009D01*
X86543909Y-74269393D01*
X86422038Y-74320999D01*
X86286034Y-74314559D01*
X86174071Y-74266199D01*
X86112606Y-74217489D01*
X86067451Y-74150905D01*
X86036370Y-74057060D01*
X86017130Y-73926561D01*
X86007495Y-73750021D01*
X86005190Y-73556454D01*
X86005012Y-73150627D01*
X86195990Y-73150627D01*
X86195990Y-73511917D01*
G36*
X85631015Y-74762434D02*
X86184783Y-74838808D01*
X86694593Y-74949910D01*
X87171826Y-75099005D01*
X87627862Y-75289355D01*
X87843436Y-75396787D01*
X88373056Y-75709500D01*
X88861163Y-76068989D01*
X89305419Y-76472308D01*
X89703488Y-76916512D01*
X90053032Y-77398656D01*
X90351715Y-77915796D01*
X90597199Y-78464986D01*
X90787147Y-79043281D01*
X90812078Y-79137722D01*
X90848466Y-79297587D01*
X90884567Y-79486206D01*
X90917569Y-79685333D01*
X90944658Y-79876725D01*
X90963022Y-80042136D01*
X90969843Y-80161091D01*
X90970426Y-80280452D01*
X85463909Y-80280452D01*
X85463909Y-79739349D01*
X87930701Y-79739349D01*
X88402575Y-79739156D01*
X88814301Y-79738538D01*
X89169392Y-79737440D01*
X89471358Y-79735805D01*
X89723711Y-79733576D01*
X89929963Y-79730696D01*
X90093623Y-79727109D01*
X90218205Y-79722758D01*
X90307218Y-79717586D01*
X90364174Y-79711537D01*
X90392584Y-79704555D01*
X90397408Y-79699562D01*
X90389914Y-79654449D01*
X90369597Y-79561477D01*
X90339602Y-79434410D01*
X90304769Y-79293735D01*
X90131559Y-78733969D01*
X89903040Y-78205691D01*
X89619423Y-77709268D01*
X89280919Y-77245066D01*
X88887738Y-76813450D01*
X88864522Y-76790655D01*
X88421705Y-76401094D01*
X87948855Y-76067659D01*
X87446069Y-75790402D01*
X86913446Y-75569376D01*
X86351082Y-75404633D01*
X86251691Y-75382046D01*
X85973183Y-75321337D01*
X85973183Y-78625314D01*
X88870968Y-78625314D01*
X88809465Y-78505953D01*
X88644407Y-78233215D01*
X88429485Y-77952157D01*
X88175532Y-77673667D01*
X87893377Y-77408631D01*
X87593849Y-77167937D01*
X87287780Y-76962473D01*
X87254323Y-76942575D01*
X87087218Y-76844509D01*
X87087332Y-77527193D01*
X87222550Y-77612794D01*
X87317297Y-77679784D01*
X87431760Y-77770550D01*
X87532832Y-77858029D01*
X87707894Y-78017662D01*
X86577944Y-78020552D01*
X86577944Y-77049750D01*
X86578422Y-76808479D01*
X86579775Y-76589071D01*
X86581883Y-76399241D01*
X86584624Y-76246706D01*
X86587879Y-76139182D01*
X86591526Y-76084384D01*
X86593133Y-76078948D01*
X86647001Y-76092218D01*
X86745214Y-76128386D01*
X86875122Y-76181993D01*
X87024076Y-76247576D01*
X87179428Y-76319676D01*
X87328528Y-76392832D01*
X87372888Y-76415590D01*
X87803155Y-76673411D01*
X88208537Y-76984099D01*
X88582242Y-77340018D01*
X88917482Y-77733535D01*
X89207464Y-78157014D01*
X89445398Y-78602822D01*
X89558424Y-78872720D01*
X89596708Y-78978786D01*
X89623779Y-79062126D01*
X89633584Y-79103484D01*
X89602028Y-79110226D01*
X89508448Y-79116199D01*
X89354474Y-79121378D01*
X89141736Y-79125738D01*
X88871865Y-79129256D01*
X88546491Y-79131907D01*
X88167244Y-79133667D01*
X87735755Y-79134511D01*
X87548747Y-79134587D01*
X85463909Y-79134587D01*
X85463909Y-74745105D01*
X85631015Y-74762434D01*
X85631015Y-74762434D01*
G37*
X85631015Y-74762434D02*
X86184783Y-74838808D01*
X86694593Y-74949910D01*
X87171826Y-75099005D01*
X87627862Y-75289355D01*
X87843436Y-75396787D01*
X88373056Y-75709500D01*
X88861163Y-76068989D01*
X89305419Y-76472308D01*
X89703488Y-76916512D01*
X90053032Y-77398656D01*
X90351715Y-77915796D01*
X90597199Y-78464986D01*
X90787147Y-79043281D01*
X90812078Y-79137722D01*
X90848466Y-79297587D01*
X90884567Y-79486206D01*
X90917569Y-79685333D01*
X90944658Y-79876725D01*
X90963022Y-80042136D01*
X90969843Y-80161091D01*
X90970426Y-80280452D01*
X85463909Y-80280452D01*
X85463909Y-79739349D01*
X87930701Y-79739349D01*
X88402575Y-79739156D01*
X88814301Y-79738538D01*
X89169392Y-79737440D01*
X89471358Y-79735805D01*
X89723711Y-79733576D01*
X89929963Y-79730696D01*
X90093623Y-79727109D01*
X90218205Y-79722758D01*
X90307218Y-79717586D01*
X90364174Y-79711537D01*
X90392584Y-79704555D01*
X90397408Y-79699562D01*
X90389914Y-79654449D01*
X90369597Y-79561477D01*
X90339602Y-79434410D01*
X90304769Y-79293735D01*
X90131559Y-78733969D01*
X89903040Y-78205691D01*
X89619423Y-77709268D01*
X89280919Y-77245066D01*
X88887738Y-76813450D01*
X88864522Y-76790655D01*
X88421705Y-76401094D01*
X87948855Y-76067659D01*
X87446069Y-75790402D01*
X86913446Y-75569376D01*
X86351082Y-75404633D01*
X86251691Y-75382046D01*
X85973183Y-75321337D01*
X85973183Y-78625314D01*
X88870968Y-78625314D01*
X88809465Y-78505953D01*
X88644407Y-78233215D01*
X88429485Y-77952157D01*
X88175532Y-77673667D01*
X87893377Y-77408631D01*
X87593849Y-77167937D01*
X87287780Y-76962473D01*
X87254323Y-76942575D01*
X87087218Y-76844509D01*
X87087332Y-77527193D01*
X87222550Y-77612794D01*
X87317297Y-77679784D01*
X87431760Y-77770550D01*
X87532832Y-77858029D01*
X87707894Y-78017662D01*
X86577944Y-78020552D01*
X86577944Y-77049750D01*
X86578422Y-76808479D01*
X86579775Y-76589071D01*
X86581883Y-76399241D01*
X86584624Y-76246706D01*
X86587879Y-76139182D01*
X86591526Y-76084384D01*
X86593133Y-76078948D01*
X86647001Y-76092218D01*
X86745214Y-76128386D01*
X86875122Y-76181993D01*
X87024076Y-76247576D01*
X87179428Y-76319676D01*
X87328528Y-76392832D01*
X87372888Y-76415590D01*
X87803155Y-76673411D01*
X88208537Y-76984099D01*
X88582242Y-77340018D01*
X88917482Y-77733535D01*
X89207464Y-78157014D01*
X89445398Y-78602822D01*
X89558424Y-78872720D01*
X89596708Y-78978786D01*
X89623779Y-79062126D01*
X89633584Y-79103484D01*
X89602028Y-79110226D01*
X89508448Y-79116199D01*
X89354474Y-79121378D01*
X89141736Y-79125738D01*
X88871865Y-79129256D01*
X88546491Y-79131907D01*
X88167244Y-79133667D01*
X87735755Y-79134511D01*
X87548747Y-79134587D01*
X85463909Y-79134587D01*
X85463909Y-74745105D01*
X85631015Y-74762434D01*
G36*
X84859148Y-79134587D02*
X80685183Y-79134587D01*
X80707423Y-79062970D01*
X80729628Y-79002412D01*
X80770146Y-78901207D01*
X80821820Y-78777051D01*
X80846326Y-78719524D01*
X81091444Y-78227268D01*
X81387036Y-77772565D01*
X81730232Y-77358237D01*
X82118157Y-76987105D01*
X82547938Y-76661990D01*
X83016703Y-76385712D01*
X83405651Y-76206709D01*
X83535124Y-76154345D01*
X83641130Y-76112369D01*
X83710900Y-76085784D01*
X83731904Y-76078948D01*
X83735187Y-76109491D01*
X83738172Y-76195977D01*
X83740755Y-76330690D01*
X83742830Y-76505914D01*
X83744293Y-76713932D01*
X83745038Y-76947028D01*
X83745112Y-77049750D01*
X83745112Y-78020552D01*
X83180137Y-78020466D01*
X82615163Y-78020380D01*
X82758396Y-77893984D01*
X82869038Y-77801642D01*
X82996655Y-77702586D01*
X83068734Y-77650058D01*
X83235839Y-77532527D01*
X83235839Y-77203607D01*
X83233477Y-77067595D01*
X83227094Y-76958981D01*
X83217748Y-76891017D01*
X83209600Y-76874687D01*
X83173899Y-76891158D01*
X83097026Y-76935841D01*
X82990781Y-77001647D01*
X82883347Y-77070751D01*
X82653697Y-77238468D01*
X82410901Y-77446504D01*
X82170431Y-77679432D01*
X81947756Y-77921822D01*
X81758348Y-78158248D01*
X81680095Y-78270714D01*
X81601842Y-78392734D01*
X81538584Y-78495942D01*
X81497451Y-78568396D01*
X81485213Y-78596968D01*
X81516102Y-78603105D01*
X81605011Y-78608720D01*
X81746304Y-78613703D01*
X81934341Y-78617942D01*
X82163485Y-78621325D01*
X82428099Y-78623740D01*
X82722545Y-78625076D01*
X82917543Y-78625314D01*
X84349874Y-78625314D01*
X84349874Y-76986091D01*
X84349838Y-76621431D01*
X84349590Y-76315308D01*
X84348927Y-76062602D01*
X84347642Y-75858191D01*
X84345528Y-75696953D01*
X84342382Y-75573766D01*
X84337996Y-75483510D01*
X84332166Y-75421063D01*
X84324684Y-75381304D01*
X84315347Y-75359110D01*
X84303947Y-75349361D01*
X84290279Y-75346935D01*
X84284026Y-75346868D01*
X84226493Y-75354460D01*
X84123807Y-75374938D01*
X83992343Y-75404852D01*
X83894398Y-75428942D01*
X83340991Y-75601131D01*
X82817079Y-75828090D01*
X82325671Y-76106700D01*
X81869776Y-76433843D01*
X81452402Y-76806402D01*
X81076558Y-77221257D01*
X80745253Y-77675291D01*
X80461496Y-78165386D01*
X80228295Y-78688423D01*
X80048658Y-79241284D01*
X79991715Y-79473494D01*
X79932476Y-79739349D01*
X84859148Y-79739349D01*
X84859148Y-80280452D01*
X79349470Y-80280452D01*
X79369431Y-80081517D01*
X79452276Y-79496477D01*
X79581691Y-78946480D01*
X79761401Y-78421292D01*
X79995128Y-77910679D01*
X80286597Y-77404406D01*
X80414713Y-77208898D01*
X80538574Y-77043323D01*
X80701882Y-76850792D01*
X80893280Y-76642702D01*
X81101408Y-76430452D01*
X81314909Y-76225441D01*
X81522424Y-76039068D01*
X81712593Y-75882730D01*
X81803508Y-75815210D01*
X82177254Y-75576154D01*
X82587944Y-75358541D01*
X83021616Y-75167694D01*
X83464308Y-75008937D01*
X83902055Y-74887596D01*
X84320897Y-74808995D01*
X84493107Y-74789541D01*
X84616465Y-74777568D01*
X84722926Y-74765203D01*
X84787531Y-74755451D01*
X84859148Y-74740893D01*
X84859148Y-79134587D01*
X84859148Y-79134587D01*
G37*
X84859148Y-79134587D02*
X80685183Y-79134587D01*
X80707423Y-79062970D01*
X80729628Y-79002412D01*
X80770146Y-78901207D01*
X80821820Y-78777051D01*
X80846326Y-78719524D01*
X81091444Y-78227268D01*
X81387036Y-77772565D01*
X81730232Y-77358237D01*
X82118157Y-76987105D01*
X82547938Y-76661990D01*
X83016703Y-76385712D01*
X83405651Y-76206709D01*
X83535124Y-76154345D01*
X83641130Y-76112369D01*
X83710900Y-76085784D01*
X83731904Y-76078948D01*
X83735187Y-76109491D01*
X83738172Y-76195977D01*
X83740755Y-76330690D01*
X83742830Y-76505914D01*
X83744293Y-76713932D01*
X83745038Y-76947028D01*
X83745112Y-77049750D01*
X83745112Y-78020552D01*
X83180137Y-78020466D01*
X82615163Y-78020380D01*
X82758396Y-77893984D01*
X82869038Y-77801642D01*
X82996655Y-77702586D01*
X83068734Y-77650058D01*
X83235839Y-77532527D01*
X83235839Y-77203607D01*
X83233477Y-77067595D01*
X83227094Y-76958981D01*
X83217748Y-76891017D01*
X83209600Y-76874687D01*
X83173899Y-76891158D01*
X83097026Y-76935841D01*
X82990781Y-77001647D01*
X82883347Y-77070751D01*
X82653697Y-77238468D01*
X82410901Y-77446504D01*
X82170431Y-77679432D01*
X81947756Y-77921822D01*
X81758348Y-78158248D01*
X81680095Y-78270714D01*
X81601842Y-78392734D01*
X81538584Y-78495942D01*
X81497451Y-78568396D01*
X81485213Y-78596968D01*
X81516102Y-78603105D01*
X81605011Y-78608720D01*
X81746304Y-78613703D01*
X81934341Y-78617942D01*
X82163485Y-78621325D01*
X82428099Y-78623740D01*
X82722545Y-78625076D01*
X82917543Y-78625314D01*
X84349874Y-78625314D01*
X84349874Y-76986091D01*
X84349838Y-76621431D01*
X84349590Y-76315308D01*
X84348927Y-76062602D01*
X84347642Y-75858191D01*
X84345528Y-75696953D01*
X84342382Y-75573766D01*
X84337996Y-75483510D01*
X84332166Y-75421063D01*
X84324684Y-75381304D01*
X84315347Y-75359110D01*
X84303947Y-75349361D01*
X84290279Y-75346935D01*
X84284026Y-75346868D01*
X84226493Y-75354460D01*
X84123807Y-75374938D01*
X83992343Y-75404852D01*
X83894398Y-75428942D01*
X83340991Y-75601131D01*
X82817079Y-75828090D01*
X82325671Y-76106700D01*
X81869776Y-76433843D01*
X81452402Y-76806402D01*
X81076558Y-77221257D01*
X80745253Y-77675291D01*
X80461496Y-78165386D01*
X80228295Y-78688423D01*
X80048658Y-79241284D01*
X79991715Y-79473494D01*
X79932476Y-79739349D01*
X84859148Y-79739349D01*
X84859148Y-80280452D01*
X79349470Y-80280452D01*
X79369431Y-80081517D01*
X79452276Y-79496477D01*
X79581691Y-78946480D01*
X79761401Y-78421292D01*
X79995128Y-77910679D01*
X80286597Y-77404406D01*
X80414713Y-77208898D01*
X80538574Y-77043323D01*
X80701882Y-76850792D01*
X80893280Y-76642702D01*
X81101408Y-76430452D01*
X81314909Y-76225441D01*
X81522424Y-76039068D01*
X81712593Y-75882730D01*
X81803508Y-75815210D01*
X82177254Y-75576154D01*
X82587944Y-75358541D01*
X83021616Y-75167694D01*
X83464308Y-75008937D01*
X83902055Y-74887596D01*
X84320897Y-74808995D01*
X84493107Y-74789541D01*
X84616465Y-74777568D01*
X84722926Y-74765203D01*
X84787531Y-74755451D01*
X84859148Y-74740893D01*
X84859148Y-79134587D01*
G36*
X90958281Y-81108752D02*
X90881196Y-81663278D01*
X90744206Y-82217010D01*
X90550591Y-82761378D01*
X90303629Y-83287812D01*
X90006599Y-83787742D01*
X89844982Y-84018793D01*
X89695100Y-84207125D01*
X89509100Y-84417810D01*
X89302063Y-84635372D01*
X89089070Y-84844334D01*
X88885203Y-85029220D01*
X88757026Y-85135224D01*
X88282573Y-85468874D01*
X87772079Y-85755237D01*
X87234202Y-85990870D01*
X86677600Y-86172329D01*
X86110930Y-86296170D01*
X85710589Y-86346937D01*
X85463909Y-86368681D01*
X85463909Y-81967419D01*
X87548747Y-81967419D01*
X87980416Y-81967651D01*
X88352230Y-81968397D01*
X88667990Y-81969728D01*
X88931497Y-81971717D01*
X89146555Y-81974437D01*
X89316964Y-81977960D01*
X89446527Y-81982359D01*
X89539046Y-81987706D01*
X89598321Y-81994074D01*
X89628156Y-82001536D01*
X89633568Y-82007206D01*
X89619515Y-82073741D01*
X89580423Y-82185480D01*
X89520844Y-82331263D01*
X89445330Y-82499931D01*
X89361586Y-82673996D01*
X89101593Y-83126309D01*
X88788473Y-83549365D01*
X88428432Y-83936974D01*
X88027675Y-84282948D01*
X87592409Y-84581097D01*
X87273433Y-84756579D01*
X87114972Y-84832117D01*
X86956837Y-84901721D01*
X86812290Y-84960103D01*
X86694598Y-85001978D01*
X86617025Y-85022059D01*
X86604791Y-85023058D01*
X86598119Y-84992515D01*
X86592052Y-84906030D01*
X86586802Y-84771319D01*
X86582584Y-84596098D01*
X86579610Y-84388082D01*
X86578095Y-84154988D01*
X86577944Y-84052256D01*
X86577944Y-83081454D01*
X87134962Y-83081454D01*
X87315276Y-83082805D01*
X87471259Y-83086552D01*
X87592723Y-83092240D01*
X87669485Y-83099411D01*
X87691980Y-83106423D01*
X87668641Y-83138730D01*
X87606804Y-83198999D01*
X87518737Y-83276784D01*
X87416709Y-83361639D01*
X87312989Y-83443118D01*
X87219843Y-83510774D01*
X87206579Y-83519727D01*
X87087218Y-83599187D01*
X87087218Y-83929167D01*
X87088603Y-84065423D01*
X87092348Y-84174299D01*
X87097832Y-84242562D01*
X87102654Y-84259148D01*
X87140732Y-84242547D01*
X87217933Y-84198337D01*
X87320878Y-84134913D01*
X87436189Y-84060668D01*
X87550487Y-83983996D01*
X87628320Y-83929356D01*
X87975851Y-83644826D01*
X88303263Y-83309155D01*
X88599325Y-82934240D01*
X88682084Y-82813270D01*
X88758949Y-82694542D01*
X88820571Y-82594949D01*
X88859614Y-82526626D01*
X88869674Y-82502932D01*
X88838896Y-82497564D01*
X88750765Y-82492565D01*
X88611589Y-82488050D01*
X88427675Y-82484131D01*
X88205327Y-82480924D01*
X87950854Y-82478541D01*
X87670561Y-82477097D01*
X87416436Y-82476692D01*
X85963198Y-82476692D01*
X85985970Y-84123085D01*
X85990583Y-84440575D01*
X85995341Y-84738380D01*
X86000117Y-85010517D01*
X86004787Y-85251005D01*
X86009223Y-85453860D01*
X86013302Y-85613102D01*
X86016898Y-85722747D01*
X86019884Y-85776813D01*
X86020762Y-85781498D01*
X86054407Y-85778805D01*
X86137415Y-85762705D01*
X86257538Y-85735800D01*
X86402527Y-85700696D01*
X86412488Y-85698201D01*
X86974992Y-85526143D01*
X87503116Y-85300665D01*
X87998505Y-85020833D01*
X88462806Y-84685710D01*
X88897665Y-84294361D01*
X88917418Y-84274557D01*
X89297861Y-83852424D01*
X89620926Y-83408760D01*
X89891199Y-82936635D01*
X90077636Y-82520907D01*
X90128545Y-82384105D01*
X90182321Y-82224402D01*
X90235842Y-82053043D01*
X90285985Y-81881271D01*
X90329628Y-81720333D01*
X90363649Y-81581473D01*
X90384927Y-81475935D01*
X90390339Y-81414965D01*
X90387318Y-81405531D01*
X90353598Y-81402649D01*
X90261117Y-81399464D01*
X90114774Y-81396045D01*
X89919467Y-81392461D01*
X89680094Y-81388781D01*
X89401553Y-81385073D01*
X89088741Y-81381407D01*
X88746556Y-81377852D01*
X88379897Y-81374476D01*
X87993662Y-81371349D01*
X87917250Y-81370780D01*
X85463909Y-81352755D01*
X85463909Y-80853384D01*
X90979578Y-80853384D01*
X90958281Y-81108752D01*
X90958281Y-81108752D01*
G37*
X90958281Y-81108752D02*
X90881196Y-81663278D01*
X90744206Y-82217010D01*
X90550591Y-82761378D01*
X90303629Y-83287812D01*
X90006599Y-83787742D01*
X89844982Y-84018793D01*
X89695100Y-84207125D01*
X89509100Y-84417810D01*
X89302063Y-84635372D01*
X89089070Y-84844334D01*
X88885203Y-85029220D01*
X88757026Y-85135224D01*
X88282573Y-85468874D01*
X87772079Y-85755237D01*
X87234202Y-85990870D01*
X86677600Y-86172329D01*
X86110930Y-86296170D01*
X85710589Y-86346937D01*
X85463909Y-86368681D01*
X85463909Y-81967419D01*
X87548747Y-81967419D01*
X87980416Y-81967651D01*
X88352230Y-81968397D01*
X88667990Y-81969728D01*
X88931497Y-81971717D01*
X89146555Y-81974437D01*
X89316964Y-81977960D01*
X89446527Y-81982359D01*
X89539046Y-81987706D01*
X89598321Y-81994074D01*
X89628156Y-82001536D01*
X89633568Y-82007206D01*
X89619515Y-82073741D01*
X89580423Y-82185480D01*
X89520844Y-82331263D01*
X89445330Y-82499931D01*
X89361586Y-82673996D01*
X89101593Y-83126309D01*
X88788473Y-83549365D01*
X88428432Y-83936974D01*
X88027675Y-84282948D01*
X87592409Y-84581097D01*
X87273433Y-84756579D01*
X87114972Y-84832117D01*
X86956837Y-84901721D01*
X86812290Y-84960103D01*
X86694598Y-85001978D01*
X86617025Y-85022059D01*
X86604791Y-85023058D01*
X86598119Y-84992515D01*
X86592052Y-84906030D01*
X86586802Y-84771319D01*
X86582584Y-84596098D01*
X86579610Y-84388082D01*
X86578095Y-84154988D01*
X86577944Y-84052256D01*
X86577944Y-83081454D01*
X87134962Y-83081454D01*
X87315276Y-83082805D01*
X87471259Y-83086552D01*
X87592723Y-83092240D01*
X87669485Y-83099411D01*
X87691980Y-83106423D01*
X87668641Y-83138730D01*
X87606804Y-83198999D01*
X87518737Y-83276784D01*
X87416709Y-83361639D01*
X87312989Y-83443118D01*
X87219843Y-83510774D01*
X87206579Y-83519727D01*
X87087218Y-83599187D01*
X87087218Y-83929167D01*
X87088603Y-84065423D01*
X87092348Y-84174299D01*
X87097832Y-84242562D01*
X87102654Y-84259148D01*
X87140732Y-84242547D01*
X87217933Y-84198337D01*
X87320878Y-84134913D01*
X87436189Y-84060668D01*
X87550487Y-83983996D01*
X87628320Y-83929356D01*
X87975851Y-83644826D01*
X88303263Y-83309155D01*
X88599325Y-82934240D01*
X88682084Y-82813270D01*
X88758949Y-82694542D01*
X88820571Y-82594949D01*
X88859614Y-82526626D01*
X88869674Y-82502932D01*
X88838896Y-82497564D01*
X88750765Y-82492565D01*
X88611589Y-82488050D01*
X88427675Y-82484131D01*
X88205327Y-82480924D01*
X87950854Y-82478541D01*
X87670561Y-82477097D01*
X87416436Y-82476692D01*
X85963198Y-82476692D01*
X85985970Y-84123085D01*
X85990583Y-84440575D01*
X85995341Y-84738380D01*
X86000117Y-85010517D01*
X86004787Y-85251005D01*
X86009223Y-85453860D01*
X86013302Y-85613102D01*
X86016898Y-85722747D01*
X86019884Y-85776813D01*
X86020762Y-85781498D01*
X86054407Y-85778805D01*
X86137415Y-85762705D01*
X86257538Y-85735800D01*
X86402527Y-85700696D01*
X86412488Y-85698201D01*
X86974992Y-85526143D01*
X87503116Y-85300665D01*
X87998505Y-85020833D01*
X88462806Y-84685710D01*
X88897665Y-84294361D01*
X88917418Y-84274557D01*
X89297861Y-83852424D01*
X89620926Y-83408760D01*
X89891199Y-82936635D01*
X90077636Y-82520907D01*
X90128545Y-82384105D01*
X90182321Y-82224402D01*
X90235842Y-82053043D01*
X90285985Y-81881271D01*
X90329628Y-81720333D01*
X90363649Y-81581473D01*
X90384927Y-81475935D01*
X90390339Y-81414965D01*
X90387318Y-81405531D01*
X90353598Y-81402649D01*
X90261117Y-81399464D01*
X90114774Y-81396045D01*
X89919467Y-81392461D01*
X89680094Y-81388781D01*
X89401553Y-81385073D01*
X89088741Y-81381407D01*
X88746556Y-81377852D01*
X88379897Y-81374476D01*
X87993662Y-81371349D01*
X87917250Y-81370780D01*
X85463909Y-81352755D01*
X85463909Y-80853384D01*
X90979578Y-80853384D01*
X90958281Y-81108752D01*
G36*
X84859148Y-81359365D02*
X82426819Y-81368969D01*
X82038851Y-81370805D01*
X81669371Y-81373147D01*
X81323318Y-81375927D01*
X81005632Y-81379077D01*
X80721250Y-81382530D01*
X80475113Y-81386217D01*
X80272159Y-81390073D01*
X80117326Y-81394028D01*
X80015555Y-81398016D01*
X79971784Y-81401970D01*
X79970541Y-81402539D01*
X79959129Y-81453487D01*
X79969187Y-81553757D01*
X79997860Y-81693845D01*
X80042294Y-81864244D01*
X80099633Y-82055450D01*
X80167023Y-82257958D01*
X80241608Y-82462261D01*
X80320534Y-82658854D01*
X80400945Y-82838231D01*
X80403103Y-82842732D01*
X80680190Y-83347592D01*
X81006619Y-83814048D01*
X81379219Y-84239686D01*
X81794822Y-84622090D01*
X82250260Y-84958846D01*
X82742364Y-85247540D01*
X83267965Y-85485756D01*
X83823894Y-85671080D01*
X84246428Y-85771457D01*
X84349874Y-85792026D01*
X84349874Y-82476692D01*
X81448191Y-82476692D01*
X81520067Y-82596053D01*
X81691654Y-82862096D01*
X81879385Y-83120576D01*
X82066392Y-83348637D01*
X82115992Y-83403568D01*
X82286389Y-83572350D01*
X82490594Y-83750654D01*
X82710837Y-83924583D01*
X82929348Y-84080240D01*
X83128355Y-84203728D01*
X83164223Y-84223326D01*
X83235839Y-84261388D01*
X83235839Y-83599552D01*
X83005075Y-83422732D01*
X82891467Y-83333131D01*
X82788726Y-83247609D01*
X82713917Y-83180520D01*
X82697146Y-83163684D01*
X82619981Y-83081454D01*
X83745112Y-83081454D01*
X83745112Y-84052256D01*
X83744115Y-84342539D01*
X83741196Y-84586011D01*
X83736466Y-84779196D01*
X83730037Y-84918618D01*
X83722020Y-85000801D01*
X83714111Y-85023058D01*
X83664919Y-85010794D01*
X83572368Y-84977952D01*
X83450977Y-84930456D01*
X83315267Y-84874229D01*
X83179760Y-84815197D01*
X83058976Y-84759283D01*
X83017543Y-84738869D01*
X82630782Y-84513551D01*
X82252144Y-84235532D01*
X81893167Y-83915678D01*
X81565390Y-83564853D01*
X81280352Y-83193926D01*
X81134031Y-82965201D01*
X81052515Y-82817978D01*
X80963753Y-82642633D01*
X80875907Y-82456851D01*
X80797142Y-82278313D01*
X80735621Y-82124705D01*
X80706459Y-82039036D01*
X80685183Y-81967419D01*
X84859148Y-81967419D01*
X84859148Y-86359900D01*
X84739787Y-86354806D01*
X84622980Y-86347720D01*
X84509340Y-86337816D01*
X84509022Y-86337782D01*
X83947415Y-86246319D01*
X83392438Y-86094909D01*
X82851004Y-85887263D01*
X82330028Y-85627092D01*
X81836423Y-85318109D01*
X81377102Y-84964023D01*
X80958980Y-84568546D01*
X80725716Y-84306893D01*
X80355825Y-83816205D01*
X80044048Y-83301264D01*
X79789667Y-82760336D01*
X79591962Y-82191687D01*
X79450217Y-81593585D01*
X79370679Y-81036404D01*
X79352075Y-80853384D01*
X84859148Y-80853384D01*
X84859148Y-81359365D01*
X84859148Y-81359365D01*
G37*
X84859148Y-81359365D02*
X82426819Y-81368969D01*
X82038851Y-81370805D01*
X81669371Y-81373147D01*
X81323318Y-81375927D01*
X81005632Y-81379077D01*
X80721250Y-81382530D01*
X80475113Y-81386217D01*
X80272159Y-81390073D01*
X80117326Y-81394028D01*
X80015555Y-81398016D01*
X79971784Y-81401970D01*
X79970541Y-81402539D01*
X79959129Y-81453487D01*
X79969187Y-81553757D01*
X79997860Y-81693845D01*
X80042294Y-81864244D01*
X80099633Y-82055450D01*
X80167023Y-82257958D01*
X80241608Y-82462261D01*
X80320534Y-82658854D01*
X80400945Y-82838231D01*
X80403103Y-82842732D01*
X80680190Y-83347592D01*
X81006619Y-83814048D01*
X81379219Y-84239686D01*
X81794822Y-84622090D01*
X82250260Y-84958846D01*
X82742364Y-85247540D01*
X83267965Y-85485756D01*
X83823894Y-85671080D01*
X84246428Y-85771457D01*
X84349874Y-85792026D01*
X84349874Y-82476692D01*
X81448191Y-82476692D01*
X81520067Y-82596053D01*
X81691654Y-82862096D01*
X81879385Y-83120576D01*
X82066392Y-83348637D01*
X82115992Y-83403568D01*
X82286389Y-83572350D01*
X82490594Y-83750654D01*
X82710837Y-83924583D01*
X82929348Y-84080240D01*
X83128355Y-84203728D01*
X83164223Y-84223326D01*
X83235839Y-84261388D01*
X83235839Y-83599552D01*
X83005075Y-83422732D01*
X82891467Y-83333131D01*
X82788726Y-83247609D01*
X82713917Y-83180520D01*
X82697146Y-83163684D01*
X82619981Y-83081454D01*
X83745112Y-83081454D01*
X83745112Y-84052256D01*
X83744115Y-84342539D01*
X83741196Y-84586011D01*
X83736466Y-84779196D01*
X83730037Y-84918618D01*
X83722020Y-85000801D01*
X83714111Y-85023058D01*
X83664919Y-85010794D01*
X83572368Y-84977952D01*
X83450977Y-84930456D01*
X83315267Y-84874229D01*
X83179760Y-84815197D01*
X83058976Y-84759283D01*
X83017543Y-84738869D01*
X82630782Y-84513551D01*
X82252144Y-84235532D01*
X81893167Y-83915678D01*
X81565390Y-83564853D01*
X81280352Y-83193926D01*
X81134031Y-82965201D01*
X81052515Y-82817978D01*
X80963753Y-82642633D01*
X80875907Y-82456851D01*
X80797142Y-82278313D01*
X80735621Y-82124705D01*
X80706459Y-82039036D01*
X80685183Y-81967419D01*
X84859148Y-81967419D01*
X84859148Y-86359900D01*
X84739787Y-86354806D01*
X84622980Y-86347720D01*
X84509340Y-86337816D01*
X84509022Y-86337782D01*
X83947415Y-86246319D01*
X83392438Y-86094909D01*
X82851004Y-85887263D01*
X82330028Y-85627092D01*
X81836423Y-85318109D01*
X81377102Y-84964023D01*
X80958980Y-84568546D01*
X80725716Y-84306893D01*
X80355825Y-83816205D01*
X80044048Y-83301264D01*
X79789667Y-82760336D01*
X79591962Y-82191687D01*
X79450217Y-81593585D01*
X79370679Y-81036404D01*
X79352075Y-80853384D01*
X84859148Y-80853384D01*
X84859148Y-81359365D01*
G36*
X91504209Y-86957462D02*
X91649336Y-87033743D01*
X91765568Y-87165522D01*
X91789029Y-87204325D01*
X91828248Y-87287955D01*
X91850450Y-87379989D01*
X91859734Y-87502192D01*
X91860819Y-87585339D01*
X91853383Y-87741454D01*
X91827107Y-87882338D01*
X91776459Y-88020921D01*
X91695909Y-88170130D01*
X91579926Y-88342896D01*
X91477792Y-88480698D01*
X91390323Y-88597388D01*
X91319223Y-88695330D01*
X91272217Y-88763670D01*
X91256892Y-88791036D01*
X91286414Y-88799519D01*
X91365765Y-88806176D01*
X91481122Y-88810105D01*
X91559273Y-88810777D01*
X91861654Y-88810777D01*
X91861654Y-89256391D01*
X90707136Y-89256391D01*
X90727759Y-89105932D01*
X90782570Y-88898616D01*
X90893716Y-88663638D01*
X91060686Y-88401998D01*
X91146428Y-88285589D01*
X91280492Y-88106332D01*
X91378260Y-87965469D01*
X91444970Y-87853147D01*
X91485856Y-87759513D01*
X91506154Y-87674716D01*
X91511145Y-87599298D01*
X91491326Y-87463791D01*
X91439029Y-87370567D01*
X91366233Y-87321895D01*
X91284916Y-87320045D01*
X91207055Y-87367284D01*
X91144627Y-87465882D01*
X91125122Y-87526173D01*
X91088433Y-87671879D01*
X90926560Y-87650406D01*
X90832489Y-87636174D01*
X90768680Y-87623223D01*
X90753373Y-87617617D01*
X90753043Y-87582883D01*
X90764166Y-87505399D01*
X90777440Y-87435867D01*
X90840592Y-87232259D01*
X90935510Y-87082942D01*
X91064547Y-86985749D01*
X91230056Y-86938515D01*
X91323801Y-86932951D01*
X91504209Y-86957462D01*
X91504209Y-86957462D01*
G37*
X91504209Y-86957462D02*
X91649336Y-87033743D01*
X91765568Y-87165522D01*
X91789029Y-87204325D01*
X91828248Y-87287955D01*
X91850450Y-87379989D01*
X91859734Y-87502192D01*
X91860819Y-87585339D01*
X91853383Y-87741454D01*
X91827107Y-87882338D01*
X91776459Y-88020921D01*
X91695909Y-88170130D01*
X91579926Y-88342896D01*
X91477792Y-88480698D01*
X91390323Y-88597388D01*
X91319223Y-88695330D01*
X91272217Y-88763670D01*
X91256892Y-88791036D01*
X91286414Y-88799519D01*
X91365765Y-88806176D01*
X91481122Y-88810105D01*
X91559273Y-88810777D01*
X91861654Y-88810777D01*
X91861654Y-89256391D01*
X90707136Y-89256391D01*
X90727759Y-89105932D01*
X90782570Y-88898616D01*
X90893716Y-88663638D01*
X91060686Y-88401998D01*
X91146428Y-88285589D01*
X91280492Y-88106332D01*
X91378260Y-87965469D01*
X91444970Y-87853147D01*
X91485856Y-87759513D01*
X91506154Y-87674716D01*
X91511145Y-87599298D01*
X91491326Y-87463791D01*
X91439029Y-87370567D01*
X91366233Y-87321895D01*
X91284916Y-87320045D01*
X91207055Y-87367284D01*
X91144627Y-87465882D01*
X91125122Y-87526173D01*
X91088433Y-87671879D01*
X90926560Y-87650406D01*
X90832489Y-87636174D01*
X90768680Y-87623223D01*
X90753373Y-87617617D01*
X90753043Y-87582883D01*
X90764166Y-87505399D01*
X90777440Y-87435867D01*
X90840592Y-87232259D01*
X90935510Y-87082942D01*
X91064547Y-86985749D01*
X91230056Y-86938515D01*
X91323801Y-86932951D01*
X91504209Y-86957462D01*
G36*
X87914787Y-87346617D02*
X86991729Y-87346617D01*
X86991729Y-87824061D01*
X87851127Y-87824061D01*
X87851127Y-88237845D01*
X86991729Y-88237845D01*
X86991729Y-88842607D01*
X87946616Y-88842607D01*
X87946616Y-89256391D01*
X87299415Y-89256391D01*
X87102567Y-89255392D01*
X86927734Y-89252604D01*
X86784783Y-89248340D01*
X86683581Y-89242913D01*
X86633997Y-89236637D01*
X86630994Y-89235172D01*
X86626104Y-89199514D01*
X86621611Y-89107494D01*
X86617650Y-88966408D01*
X86614352Y-88783553D01*
X86611852Y-88566224D01*
X86610282Y-88321718D01*
X86609774Y-88073392D01*
X86609774Y-86932833D01*
X87914787Y-86932833D01*
X87914787Y-87346617D01*
X87914787Y-87346617D01*
G37*
X87914787Y-87346617D02*
X86991729Y-87346617D01*
X86991729Y-87824061D01*
X87851127Y-87824061D01*
X87851127Y-88237845D01*
X86991729Y-88237845D01*
X86991729Y-88842607D01*
X87946616Y-88842607D01*
X87946616Y-89256391D01*
X87299415Y-89256391D01*
X87102567Y-89255392D01*
X86927734Y-89252604D01*
X86784783Y-89248340D01*
X86683581Y-89242913D01*
X86633997Y-89236637D01*
X86630994Y-89235172D01*
X86626104Y-89199514D01*
X86621611Y-89107494D01*
X86617650Y-88966408D01*
X86614352Y-88783553D01*
X86611852Y-88566224D01*
X86610282Y-88321718D01*
X86609774Y-88073392D01*
X86609774Y-86932833D01*
X87914787Y-86932833D01*
X87914787Y-87346617D01*
G36*
X86323308Y-89256391D02*
X85973183Y-89256391D01*
X85973183Y-86932833D01*
X86323308Y-86932833D01*
X86323308Y-89256391D01*
X86323308Y-89256391D01*
G37*
X86323308Y-89256391D02*
X85973183Y-89256391D01*
X85973183Y-86932833D01*
X86323308Y-86932833D01*
X86323308Y-89256391D01*
G36*
X84777326Y-86938051D02*
X84974746Y-86942794D01*
X85119197Y-86948606D01*
X85221369Y-86956824D01*
X85291951Y-86968784D01*
X85341633Y-86985821D01*
X85381104Y-87009271D01*
X85388079Y-87014373D01*
X85505257Y-87120761D01*
X85576031Y-87238491D01*
X85611091Y-87388143D01*
X85617121Y-87455215D01*
X85613035Y-87658457D01*
X85573466Y-87819236D01*
X85499943Y-87931533D01*
X85494955Y-87936174D01*
X85460705Y-87971512D01*
X85456077Y-88003323D01*
X85485777Y-88049246D01*
X85542185Y-88113281D01*
X85649379Y-88277431D01*
X85704326Y-88467782D01*
X85706051Y-88672801D01*
X85653582Y-88880961D01*
X85614374Y-88968062D01*
X85565558Y-89053722D01*
X85512707Y-89118593D01*
X85446240Y-89165952D01*
X85356573Y-89199074D01*
X85234126Y-89221237D01*
X85069316Y-89235717D01*
X84852560Y-89245790D01*
X84796341Y-89247760D01*
X84254386Y-89266095D01*
X84254386Y-88851580D01*
X84636340Y-88851580D01*
X84908566Y-88834597D01*
X85067107Y-88819997D01*
X85172892Y-88798163D01*
X85236638Y-88766767D01*
X85242154Y-88762081D01*
X85304248Y-88669443D01*
X85326685Y-88554680D01*
X85311065Y-88438653D01*
X85258985Y-88342223D01*
X85206746Y-88300152D01*
X85142334Y-88280195D01*
X85035601Y-88261430D01*
X84907841Y-88247467D01*
X84886927Y-88245924D01*
X84636340Y-88228749D01*
X84636340Y-88851580D01*
X84254386Y-88851580D01*
X84254386Y-87346617D01*
X84636340Y-87346617D01*
X84636340Y-87862351D01*
X84867105Y-87840922D01*
X84988180Y-87828420D01*
X85088418Y-87815802D01*
X85147098Y-87805691D01*
X85148741Y-87805251D01*
X85201651Y-87763386D01*
X85247273Y-87684213D01*
X85271744Y-87593743D01*
X85272932Y-87572219D01*
X85254038Y-87507758D01*
X85208436Y-87432371D01*
X85206963Y-87430483D01*
X85168884Y-87388262D01*
X85125681Y-87363214D01*
X85060518Y-87350903D01*
X84956560Y-87346895D01*
X84888667Y-87346617D01*
X84636340Y-87346617D01*
X84254386Y-87346617D01*
X84254386Y-86927355D01*
X84777326Y-86938051D01*
X84777326Y-86938051D01*
G37*
X84777326Y-86938051D02*
X84974746Y-86942794D01*
X85119197Y-86948606D01*
X85221369Y-86956824D01*
X85291951Y-86968784D01*
X85341633Y-86985821D01*
X85381104Y-87009271D01*
X85388079Y-87014373D01*
X85505257Y-87120761D01*
X85576031Y-87238491D01*
X85611091Y-87388143D01*
X85617121Y-87455215D01*
X85613035Y-87658457D01*
X85573466Y-87819236D01*
X85499943Y-87931533D01*
X85494955Y-87936174D01*
X85460705Y-87971512D01*
X85456077Y-88003323D01*
X85485777Y-88049246D01*
X85542185Y-88113281D01*
X85649379Y-88277431D01*
X85704326Y-88467782D01*
X85706051Y-88672801D01*
X85653582Y-88880961D01*
X85614374Y-88968062D01*
X85565558Y-89053722D01*
X85512707Y-89118593D01*
X85446240Y-89165952D01*
X85356573Y-89199074D01*
X85234126Y-89221237D01*
X85069316Y-89235717D01*
X84852560Y-89245790D01*
X84796341Y-89247760D01*
X84254386Y-89266095D01*
X84254386Y-88851580D01*
X84636340Y-88851580D01*
X84908566Y-88834597D01*
X85067107Y-88819997D01*
X85172892Y-88798163D01*
X85236638Y-88766767D01*
X85242154Y-88762081D01*
X85304248Y-88669443D01*
X85326685Y-88554680D01*
X85311065Y-88438653D01*
X85258985Y-88342223D01*
X85206746Y-88300152D01*
X85142334Y-88280195D01*
X85035601Y-88261430D01*
X84907841Y-88247467D01*
X84886927Y-88245924D01*
X84636340Y-88228749D01*
X84636340Y-88851580D01*
X84254386Y-88851580D01*
X84254386Y-87346617D01*
X84636340Y-87346617D01*
X84636340Y-87862351D01*
X84867105Y-87840922D01*
X84988180Y-87828420D01*
X85088418Y-87815802D01*
X85147098Y-87805691D01*
X85148741Y-87805251D01*
X85201651Y-87763386D01*
X85247273Y-87684213D01*
X85271744Y-87593743D01*
X85272932Y-87572219D01*
X85254038Y-87507758D01*
X85208436Y-87432371D01*
X85206963Y-87430483D01*
X85168884Y-87388262D01*
X85125681Y-87363214D01*
X85060518Y-87350903D01*
X84956560Y-87346895D01*
X84888667Y-87346617D01*
X84636340Y-87346617D01*
X84254386Y-87346617D01*
X84254386Y-86927355D01*
X84777326Y-86938051D01*
G36*
X79670927Y-87824061D02*
X80307518Y-87824061D01*
X80307518Y-86932833D01*
X80657644Y-86932833D01*
X80657644Y-89256391D01*
X80307518Y-89256391D01*
X80307518Y-88237845D01*
X79670927Y-88237845D01*
X79670927Y-89256391D01*
X79288972Y-89256391D01*
X79288972Y-86932833D01*
X79670927Y-86932833D01*
X79670927Y-87824061D01*
X79670927Y-87824061D01*
G37*
X79670927Y-87824061D02*
X80307518Y-87824061D01*
X80307518Y-86932833D01*
X80657644Y-86932833D01*
X80657644Y-89256391D01*
X80307518Y-89256391D01*
X80307518Y-88237845D01*
X79670927Y-88237845D01*
X79670927Y-89256391D01*
X79288972Y-89256391D01*
X79288972Y-86932833D01*
X79670927Y-86932833D01*
X79670927Y-87824061D01*
G36*
X90524812Y-87410276D02*
X89928379Y-87410276D01*
X89908650Y-87529637D01*
X89893151Y-87634623D01*
X89898068Y-87690227D01*
X89933986Y-87709963D01*
X90011491Y-87707342D01*
X90045332Y-87704131D01*
X90201893Y-87710844D01*
X90330661Y-87767415D01*
X90439041Y-87878644D01*
X90515319Y-88008728D01*
X90583339Y-88207683D01*
X90608859Y-88427416D01*
X90593760Y-88651427D01*
X90539927Y-88863215D01*
X90449241Y-89046279D01*
X90387981Y-89124821D01*
X90253955Y-89226084D01*
X90093080Y-89278164D01*
X89922916Y-89277493D01*
X89806174Y-89243073D01*
X89688682Y-89163250D01*
X89582139Y-89039704D01*
X89501587Y-88892241D01*
X89472873Y-88804263D01*
X89453662Y-88712861D01*
X89445708Y-88650774D01*
X89447554Y-88636072D01*
X89483417Y-88625309D01*
X89561775Y-88611109D01*
X89620083Y-88602672D01*
X89780491Y-88581393D01*
X89831564Y-88711410D01*
X89892366Y-88817796D01*
X89966462Y-88879621D01*
X90027611Y-88899551D01*
X90076527Y-88884815D01*
X90135746Y-88832356D01*
X90181921Y-88778127D01*
X90209401Y-88717268D01*
X90224188Y-88629947D01*
X90231433Y-88516243D01*
X90233538Y-88382007D01*
X90223137Y-88289365D01*
X90196727Y-88216893D01*
X90176812Y-88182143D01*
X90096523Y-88100013D01*
X90001472Y-88077803D01*
X89899938Y-88116092D01*
X89848229Y-88159198D01*
X89789921Y-88209167D01*
X89734171Y-88224966D01*
X89651630Y-88213538D01*
X89634518Y-88209769D01*
X89550939Y-88189131D01*
X89499196Y-88172834D01*
X89492427Y-88169055D01*
X89493825Y-88135674D01*
X89503019Y-88049203D01*
X89518797Y-87919569D01*
X89539950Y-87756701D01*
X89565267Y-87570527D01*
X89566522Y-87561488D01*
X89649498Y-86964704D01*
X90524812Y-86964662D01*
X90524812Y-87410276D01*
X90524812Y-87410276D01*
G37*
X90524812Y-87410276D02*
X89928379Y-87410276D01*
X89908650Y-87529637D01*
X89893151Y-87634623D01*
X89898068Y-87690227D01*
X89933986Y-87709963D01*
X90011491Y-87707342D01*
X90045332Y-87704131D01*
X90201893Y-87710844D01*
X90330661Y-87767415D01*
X90439041Y-87878644D01*
X90515319Y-88008728D01*
X90583339Y-88207683D01*
X90608859Y-88427416D01*
X90593760Y-88651427D01*
X90539927Y-88863215D01*
X90449241Y-89046279D01*
X90387981Y-89124821D01*
X90253955Y-89226084D01*
X90093080Y-89278164D01*
X89922916Y-89277493D01*
X89806174Y-89243073D01*
X89688682Y-89163250D01*
X89582139Y-89039704D01*
X89501587Y-88892241D01*
X89472873Y-88804263D01*
X89453662Y-88712861D01*
X89445708Y-88650774D01*
X89447554Y-88636072D01*
X89483417Y-88625309D01*
X89561775Y-88611109D01*
X89620083Y-88602672D01*
X89780491Y-88581393D01*
X89831564Y-88711410D01*
X89892366Y-88817796D01*
X89966462Y-88879621D01*
X90027611Y-88899551D01*
X90076527Y-88884815D01*
X90135746Y-88832356D01*
X90181921Y-88778127D01*
X90209401Y-88717268D01*
X90224188Y-88629947D01*
X90231433Y-88516243D01*
X90233538Y-88382007D01*
X90223137Y-88289365D01*
X90196727Y-88216893D01*
X90176812Y-88182143D01*
X90096523Y-88100013D01*
X90001472Y-88077803D01*
X89899938Y-88116092D01*
X89848229Y-88159198D01*
X89789921Y-88209167D01*
X89734171Y-88224966D01*
X89651630Y-88213538D01*
X89634518Y-88209769D01*
X89550939Y-88189131D01*
X89499196Y-88172834D01*
X89492427Y-88169055D01*
X89493825Y-88135674D01*
X89503019Y-88049203D01*
X89518797Y-87919569D01*
X89539950Y-87756701D01*
X89565267Y-87570527D01*
X89566522Y-87561488D01*
X89649498Y-86964704D01*
X90524812Y-86964662D01*
X90524812Y-87410276D01*
G36*
X89219799Y-87410276D02*
X88622995Y-87410276D01*
X88603101Y-87509744D01*
X88584259Y-87618739D01*
X88589787Y-87678745D01*
X88630054Y-87702874D01*
X88715427Y-87704237D01*
X88755077Y-87701937D01*
X88860283Y-87699374D01*
X88932175Y-87714994D01*
X89000206Y-87759132D01*
X89055604Y-87807372D01*
X89175272Y-87953060D01*
X89251592Y-88137020D01*
X89286373Y-88364310D01*
X89289075Y-88460652D01*
X89267563Y-88706313D01*
X89205305Y-88914816D01*
X89105717Y-89081616D01*
X88972218Y-89202171D01*
X88808222Y-89271936D01*
X88666760Y-89288196D01*
X88597918Y-89274359D01*
X88503476Y-89239505D01*
X88462991Y-89220787D01*
X88328729Y-89120901D01*
X88224154Y-88975613D01*
X88159545Y-88800153D01*
X88151837Y-88759778D01*
X88130961Y-88629205D01*
X88253638Y-88608938D01*
X88370197Y-88592635D01*
X88440226Y-88594905D01*
X88479368Y-88620636D01*
X88503262Y-88674715D01*
X88507249Y-88688177D01*
X88554543Y-88780842D01*
X88619282Y-88850572D01*
X88687411Y-88890830D01*
X88743246Y-88888781D01*
X88772905Y-88875122D01*
X88847920Y-88802110D01*
X88901219Y-88685093D01*
X88929451Y-88541019D01*
X88929262Y-88386835D01*
X88898155Y-88241923D01*
X88835104Y-88136992D01*
X88745599Y-88084867D01*
X88642815Y-88088569D01*
X88539929Y-88151117D01*
X88532704Y-88158137D01*
X88473476Y-88208152D01*
X88415794Y-88222887D01*
X88329317Y-88209721D01*
X88324780Y-88208708D01*
X88241951Y-88188055D01*
X88190511Y-88171392D01*
X88184333Y-88167876D01*
X88184767Y-88134117D01*
X88193124Y-88047312D01*
X88208243Y-87917423D01*
X88228962Y-87754410D01*
X88254117Y-87568236D01*
X88255221Y-87560288D01*
X88338072Y-86964662D01*
X89219799Y-86964662D01*
X89219799Y-87410276D01*
X89219799Y-87410276D01*
G37*
X89219799Y-87410276D02*
X88622995Y-87410276D01*
X88603101Y-87509744D01*
X88584259Y-87618739D01*
X88589787Y-87678745D01*
X88630054Y-87702874D01*
X88715427Y-87704237D01*
X88755077Y-87701937D01*
X88860283Y-87699374D01*
X88932175Y-87714994D01*
X89000206Y-87759132D01*
X89055604Y-87807372D01*
X89175272Y-87953060D01*
X89251592Y-88137020D01*
X89286373Y-88364310D01*
X89289075Y-88460652D01*
X89267563Y-88706313D01*
X89205305Y-88914816D01*
X89105717Y-89081616D01*
X88972218Y-89202171D01*
X88808222Y-89271936D01*
X88666760Y-89288196D01*
X88597918Y-89274359D01*
X88503476Y-89239505D01*
X88462991Y-89220787D01*
X88328729Y-89120901D01*
X88224154Y-88975613D01*
X88159545Y-88800153D01*
X88151837Y-88759778D01*
X88130961Y-88629205D01*
X88253638Y-88608938D01*
X88370197Y-88592635D01*
X88440226Y-88594905D01*
X88479368Y-88620636D01*
X88503262Y-88674715D01*
X88507249Y-88688177D01*
X88554543Y-88780842D01*
X88619282Y-88850572D01*
X88687411Y-88890830D01*
X88743246Y-88888781D01*
X88772905Y-88875122D01*
X88847920Y-88802110D01*
X88901219Y-88685093D01*
X88929451Y-88541019D01*
X88929262Y-88386835D01*
X88898155Y-88241923D01*
X88835104Y-88136992D01*
X88745599Y-88084867D01*
X88642815Y-88088569D01*
X88539929Y-88151117D01*
X88532704Y-88158137D01*
X88473476Y-88208152D01*
X88415794Y-88222887D01*
X88329317Y-88209721D01*
X88324780Y-88208708D01*
X88241951Y-88188055D01*
X88190511Y-88171392D01*
X88184333Y-88167876D01*
X88184767Y-88134117D01*
X88193124Y-88047312D01*
X88208243Y-87917423D01*
X88228962Y-87754410D01*
X88254117Y-87568236D01*
X88255221Y-87560288D01*
X88338072Y-86964662D01*
X89219799Y-86964662D01*
X89219799Y-87410276D01*
G36*
X83496239Y-86917781D02*
X83644168Y-86971974D01*
X83767695Y-87070790D01*
X83802191Y-87109975D01*
X83859331Y-87199638D01*
X83908979Y-87312749D01*
X83945195Y-87429889D01*
X83962039Y-87531634D01*
X83953573Y-87598563D01*
X83952288Y-87600796D01*
X83911630Y-87618918D01*
X83828802Y-87630633D01*
X83762599Y-87633083D01*
X83663210Y-87630468D01*
X83609384Y-87617121D01*
X83583073Y-87584791D01*
X83571141Y-87545552D01*
X83512723Y-87419755D01*
X83415416Y-87340835D01*
X83292503Y-87314787D01*
X83181304Y-87335406D01*
X83091000Y-87388956D01*
X83035729Y-87462985D01*
X83029631Y-87545036D01*
X83029932Y-87546082D01*
X83059566Y-87606828D01*
X83116328Y-87660793D01*
X83210392Y-87714593D01*
X83351936Y-87774845D01*
X83423548Y-87802020D01*
X83639716Y-87896305D01*
X83798732Y-88001297D01*
X83907049Y-88125099D01*
X83971119Y-88275811D01*
X83997396Y-88461537D01*
X83998872Y-88524311D01*
X83987087Y-88732782D01*
X83947510Y-88896066D01*
X83875592Y-89028239D01*
X83812516Y-89100988D01*
X83662551Y-89208473D01*
X83481493Y-89271711D01*
X83286550Y-89287919D01*
X83094927Y-89254319D01*
X83026695Y-89227974D01*
X82886640Y-89142385D01*
X82777566Y-89022856D01*
X82694195Y-88860899D01*
X82631252Y-88648028D01*
X82613861Y-88564098D01*
X82605555Y-88493412D01*
X82624564Y-88465109D01*
X82668335Y-88460302D01*
X82752048Y-88454767D01*
X82851612Y-88441888D01*
X82854447Y-88441422D01*
X82924156Y-88433436D01*
X82962458Y-88449407D01*
X82987356Y-88503843D01*
X83003493Y-88561527D01*
X83046304Y-88667800D01*
X83106843Y-88760369D01*
X83124085Y-88778618D01*
X83233597Y-88844684D01*
X83352443Y-88859150D01*
X83465923Y-88828105D01*
X83559339Y-88757639D01*
X83617993Y-88653840D01*
X83630526Y-88568823D01*
X83614949Y-88473800D01*
X83562204Y-88399500D01*
X83463273Y-88337579D01*
X83322748Y-88284058D01*
X83088180Y-88191802D01*
X82910954Y-88083420D01*
X82785692Y-87953700D01*
X82707020Y-87797429D01*
X82674817Y-87655787D01*
X82673457Y-87482570D01*
X82709104Y-87303667D01*
X82775248Y-87147937D01*
X82796928Y-87114396D01*
X82907982Y-87010159D01*
X83063519Y-86938115D01*
X83250211Y-86903804D01*
X83308478Y-86901702D01*
X83496239Y-86917781D01*
X83496239Y-86917781D01*
G37*
X83496239Y-86917781D02*
X83644168Y-86971974D01*
X83767695Y-87070790D01*
X83802191Y-87109975D01*
X83859331Y-87199638D01*
X83908979Y-87312749D01*
X83945195Y-87429889D01*
X83962039Y-87531634D01*
X83953573Y-87598563D01*
X83952288Y-87600796D01*
X83911630Y-87618918D01*
X83828802Y-87630633D01*
X83762599Y-87633083D01*
X83663210Y-87630468D01*
X83609384Y-87617121D01*
X83583073Y-87584791D01*
X83571141Y-87545552D01*
X83512723Y-87419755D01*
X83415416Y-87340835D01*
X83292503Y-87314787D01*
X83181304Y-87335406D01*
X83091000Y-87388956D01*
X83035729Y-87462985D01*
X83029631Y-87545036D01*
X83029932Y-87546082D01*
X83059566Y-87606828D01*
X83116328Y-87660793D01*
X83210392Y-87714593D01*
X83351936Y-87774845D01*
X83423548Y-87802020D01*
X83639716Y-87896305D01*
X83798732Y-88001297D01*
X83907049Y-88125099D01*
X83971119Y-88275811D01*
X83997396Y-88461537D01*
X83998872Y-88524311D01*
X83987087Y-88732782D01*
X83947510Y-88896066D01*
X83875592Y-89028239D01*
X83812516Y-89100988D01*
X83662551Y-89208473D01*
X83481493Y-89271711D01*
X83286550Y-89287919D01*
X83094927Y-89254319D01*
X83026695Y-89227974D01*
X82886640Y-89142385D01*
X82777566Y-89022856D01*
X82694195Y-88860899D01*
X82631252Y-88648028D01*
X82613861Y-88564098D01*
X82605555Y-88493412D01*
X82624564Y-88465109D01*
X82668335Y-88460302D01*
X82752048Y-88454767D01*
X82851612Y-88441888D01*
X82854447Y-88441422D01*
X82924156Y-88433436D01*
X82962458Y-88449407D01*
X82987356Y-88503843D01*
X83003493Y-88561527D01*
X83046304Y-88667800D01*
X83106843Y-88760369D01*
X83124085Y-88778618D01*
X83233597Y-88844684D01*
X83352443Y-88859150D01*
X83465923Y-88828105D01*
X83559339Y-88757639D01*
X83617993Y-88653840D01*
X83630526Y-88568823D01*
X83614949Y-88473800D01*
X83562204Y-88399500D01*
X83463273Y-88337579D01*
X83322748Y-88284058D01*
X83088180Y-88191802D01*
X82910954Y-88083420D01*
X82785692Y-87953700D01*
X82707020Y-87797429D01*
X82674817Y-87655787D01*
X82673457Y-87482570D01*
X82709104Y-87303667D01*
X82775248Y-87147937D01*
X82796928Y-87114396D01*
X82907982Y-87010159D01*
X83063519Y-86938115D01*
X83250211Y-86903804D01*
X83308478Y-86901702D01*
X83496239Y-86917781D01*
G36*
X81357894Y-87708678D02*
X81358692Y-87930279D01*
X81360932Y-88135521D01*
X81364384Y-88314240D01*
X81368819Y-88456277D01*
X81374006Y-88551468D01*
X81377697Y-88583539D01*
X81414282Y-88678127D01*
X81473279Y-88764321D01*
X81533028Y-88816139D01*
X81600612Y-88837001D01*
X81696952Y-88836390D01*
X81801580Y-88820987D01*
X81870058Y-88783760D01*
X81911709Y-88736902D01*
X81931756Y-88706999D01*
X81947486Y-88672260D01*
X81959535Y-88624827D01*
X81968541Y-88556843D01*
X81975140Y-88460450D01*
X81979969Y-88327791D01*
X81983664Y-88151007D01*
X81986862Y-87922241D01*
X81988427Y-87789973D01*
X81998283Y-86932833D01*
X82385448Y-86932833D01*
X82367284Y-87832018D01*
X82360801Y-88092720D01*
X82352569Y-88328318D01*
X82343017Y-88530775D01*
X82332571Y-88692053D01*
X82321660Y-88804115D01*
X82312918Y-88852817D01*
X82241314Y-89002321D01*
X82129389Y-89131777D01*
X81994101Y-89224087D01*
X81916357Y-89252707D01*
X81678118Y-89285030D01*
X81457836Y-89257029D01*
X81405639Y-89240725D01*
X81269716Y-89163920D01*
X81148355Y-89042607D01*
X81059372Y-88895855D01*
X81042387Y-88851921D01*
X81027038Y-88772287D01*
X81013613Y-88630323D01*
X81002096Y-88425700D01*
X80992468Y-88158094D01*
X80984802Y-87832018D01*
X80967771Y-86932833D01*
X81357894Y-86932833D01*
X81357894Y-87708678D01*
X81357894Y-87708678D01*
G37*
X81357894Y-87708678D02*
X81358692Y-87930279D01*
X81360932Y-88135521D01*
X81364384Y-88314240D01*
X81368819Y-88456277D01*
X81374006Y-88551468D01*
X81377697Y-88583539D01*
X81414282Y-88678127D01*
X81473279Y-88764321D01*
X81533028Y-88816139D01*
X81600612Y-88837001D01*
X81696952Y-88836390D01*
X81801580Y-88820987D01*
X81870058Y-88783760D01*
X81911709Y-88736902D01*
X81931756Y-88706999D01*
X81947486Y-88672260D01*
X81959535Y-88624827D01*
X81968541Y-88556843D01*
X81975140Y-88460450D01*
X81979969Y-88327791D01*
X81983664Y-88151007D01*
X81986862Y-87922241D01*
X81988427Y-87789973D01*
X81998283Y-86932833D01*
X82385448Y-86932833D01*
X82367284Y-87832018D01*
X82360801Y-88092720D01*
X82352569Y-88328318D01*
X82343017Y-88530775D01*
X82332571Y-88692053D01*
X82321660Y-88804115D01*
X82312918Y-88852817D01*
X82241314Y-89002321D01*
X82129389Y-89131777D01*
X81994101Y-89224087D01*
X81916357Y-89252707D01*
X81678118Y-89285030D01*
X81457836Y-89257029D01*
X81405639Y-89240725D01*
X81269716Y-89163920D01*
X81148355Y-89042607D01*
X81059372Y-88895855D01*
X81042387Y-88851921D01*
X81027038Y-88772287D01*
X81013613Y-88630323D01*
X81002096Y-88425700D01*
X80992468Y-88158094D01*
X80984802Y-87832018D01*
X80967771Y-86932833D01*
X81357894Y-86932833D01*
X81357894Y-87708678D01*
G36*
X78582849Y-86945041D02*
X78734527Y-87031662D01*
X78857051Y-87170632D01*
X78954433Y-87365531D01*
X78974881Y-87422119D01*
X79030333Y-87585339D01*
X78881144Y-87638574D01*
X78768356Y-87676451D01*
X78699591Y-87688192D01*
X78659537Y-87670726D01*
X78632884Y-87620984D01*
X78620895Y-87586380D01*
X78571017Y-87491214D01*
X78496446Y-87402463D01*
X78484912Y-87392244D01*
X78402597Y-87336066D01*
X78324068Y-87321125D01*
X78272187Y-87326438D01*
X78150867Y-87375707D01*
X78045474Y-87474512D01*
X77969623Y-87608771D01*
X77954272Y-87655259D01*
X77935407Y-87765740D01*
X77924560Y-87918262D01*
X77921684Y-88091722D01*
X77926733Y-88265014D01*
X77939661Y-88417033D01*
X77956143Y-88511146D01*
X78015227Y-88658550D01*
X78102278Y-88766751D01*
X78207052Y-88831375D01*
X78319303Y-88848046D01*
X78428786Y-88812393D01*
X78505470Y-88745684D01*
X78568352Y-88649256D01*
X78618895Y-88535691D01*
X78625443Y-88514919D01*
X78649881Y-88431860D01*
X78666266Y-88380011D01*
X78669143Y-88372709D01*
X78698432Y-88380064D01*
X78769409Y-88407579D01*
X78852969Y-88443300D01*
X79031513Y-88522260D01*
X78981722Y-88690391D01*
X78928628Y-88849206D01*
X78872923Y-88964916D01*
X78803794Y-89057547D01*
X78758668Y-89103512D01*
X78595333Y-89216646D01*
X78406965Y-89276113D01*
X78207316Y-89278725D01*
X78101251Y-89255855D01*
X77944174Y-89177180D01*
X77802593Y-89045005D01*
X77684302Y-88869019D01*
X77597094Y-88658913D01*
X77583704Y-88612288D01*
X77563600Y-88501635D01*
X77548450Y-88349117D01*
X77540124Y-88176456D01*
X77539101Y-88094612D01*
X77548284Y-87832230D01*
X77577790Y-87616915D01*
X77630558Y-87434496D01*
X77709523Y-87270802D01*
X77710020Y-87269952D01*
X77840825Y-87094650D01*
X77995925Y-86977427D01*
X78180075Y-86915775D01*
X78398005Y-86907185D01*
X78582849Y-86945041D01*
X78582849Y-86945041D01*
G37*
X78582849Y-86945041D02*
X78734527Y-87031662D01*
X78857051Y-87170632D01*
X78954433Y-87365531D01*
X78974881Y-87422119D01*
X79030333Y-87585339D01*
X78881144Y-87638574D01*
X78768356Y-87676451D01*
X78699591Y-87688192D01*
X78659537Y-87670726D01*
X78632884Y-87620984D01*
X78620895Y-87586380D01*
X78571017Y-87491214D01*
X78496446Y-87402463D01*
X78484912Y-87392244D01*
X78402597Y-87336066D01*
X78324068Y-87321125D01*
X78272187Y-87326438D01*
X78150867Y-87375707D01*
X78045474Y-87474512D01*
X77969623Y-87608771D01*
X77954272Y-87655259D01*
X77935407Y-87765740D01*
X77924560Y-87918262D01*
X77921684Y-88091722D01*
X77926733Y-88265014D01*
X77939661Y-88417033D01*
X77956143Y-88511146D01*
X78015227Y-88658550D01*
X78102278Y-88766751D01*
X78207052Y-88831375D01*
X78319303Y-88848046D01*
X78428786Y-88812393D01*
X78505470Y-88745684D01*
X78568352Y-88649256D01*
X78618895Y-88535691D01*
X78625443Y-88514919D01*
X78649881Y-88431860D01*
X78666266Y-88380011D01*
X78669143Y-88372709D01*
X78698432Y-88380064D01*
X78769409Y-88407579D01*
X78852969Y-88443300D01*
X79031513Y-88522260D01*
X78981722Y-88690391D01*
X78928628Y-88849206D01*
X78872923Y-88964916D01*
X78803794Y-89057547D01*
X78758668Y-89103512D01*
X78595333Y-89216646D01*
X78406965Y-89276113D01*
X78207316Y-89278725D01*
X78101251Y-89255855D01*
X77944174Y-89177180D01*
X77802593Y-89045005D01*
X77684302Y-88869019D01*
X77597094Y-88658913D01*
X77583704Y-88612288D01*
X77563600Y-88501635D01*
X77548450Y-88349117D01*
X77540124Y-88176456D01*
X77539101Y-88094612D01*
X77548284Y-87832230D01*
X77577790Y-87616915D01*
X77630558Y-87434496D01*
X77709523Y-87270802D01*
X77710020Y-87269952D01*
X77840825Y-87094650D01*
X77995925Y-86977427D01*
X78180075Y-86915775D01*
X78398005Y-86907185D01*
X78582849Y-86945041D01*
G36*
X91129574Y-90752381D02*
X91123363Y-90816537D01*
X91091863Y-90842850D01*
X91018170Y-90847870D01*
X90906767Y-90847870D01*
X90906767Y-91802757D01*
X90683960Y-91802757D01*
X90683960Y-90847870D01*
X90572556Y-90847870D01*
X90497708Y-90842547D01*
X90467009Y-90815547D01*
X90461153Y-90752381D01*
X90461153Y-90656893D01*
X91129574Y-90656893D01*
X91129574Y-90752381D01*
X91129574Y-90752381D01*
G37*
X91129574Y-90752381D02*
X91123363Y-90816537D01*
X91091863Y-90842850D01*
X91018170Y-90847870D01*
X90906767Y-90847870D01*
X90906767Y-91802757D01*
X90683960Y-91802757D01*
X90683960Y-90847870D01*
X90572556Y-90847870D01*
X90497708Y-90842547D01*
X90467009Y-90815547D01*
X90461153Y-90752381D01*
X90461153Y-90656893D01*
X91129574Y-90656893D01*
X91129574Y-90752381D01*
G36*
X90397493Y-90752381D02*
X90393341Y-90811099D01*
X90369368Y-90838909D01*
X90308296Y-90847330D01*
X90254260Y-90847870D01*
X90111027Y-90847870D01*
X90111027Y-91102507D01*
X90254260Y-91102507D01*
X90342269Y-91104885D01*
X90383944Y-91121003D01*
X90396610Y-91164335D01*
X90397493Y-91213910D01*
X90394436Y-91282361D01*
X90373713Y-91314775D01*
X90318000Y-91324627D01*
X90254260Y-91325314D01*
X90111027Y-91325314D01*
X90111027Y-91579950D01*
X90429323Y-91579950D01*
X90429323Y-91802757D01*
X89888220Y-91802757D01*
X89888220Y-90656893D01*
X90397493Y-90656893D01*
X90397493Y-90752381D01*
X90397493Y-90752381D01*
G37*
X90397493Y-90752381D02*
X90393341Y-90811099D01*
X90369368Y-90838909D01*
X90308296Y-90847330D01*
X90254260Y-90847870D01*
X90111027Y-90847870D01*
X90111027Y-91102507D01*
X90254260Y-91102507D01*
X90342269Y-91104885D01*
X90383944Y-91121003D01*
X90396610Y-91164335D01*
X90397493Y-91213910D01*
X90394436Y-91282361D01*
X90373713Y-91314775D01*
X90318000Y-91324627D01*
X90254260Y-91325314D01*
X90111027Y-91325314D01*
X90111027Y-91579950D01*
X90429323Y-91579950D01*
X90429323Y-91802757D01*
X89888220Y-91802757D01*
X89888220Y-90656893D01*
X90397493Y-90656893D01*
X90397493Y-90752381D01*
G36*
X89633728Y-90636088D02*
X89649498Y-90638878D01*
X89721471Y-90657565D01*
X89753070Y-90691462D01*
X89760776Y-90762286D01*
X89760902Y-90785653D01*
X89753308Y-90876981D01*
X89728679Y-90909256D01*
X89684242Y-90885470D01*
X89675826Y-90877381D01*
X89622887Y-90856762D01*
X89540589Y-90852962D01*
X89534185Y-90853509D01*
X89455091Y-90871800D01*
X89420916Y-90914172D01*
X89416704Y-90933996D01*
X89425314Y-90986486D01*
X89472529Y-91044602D01*
X89565951Y-91118605D01*
X89688262Y-91233136D01*
X89762592Y-91358864D01*
X89790733Y-91485603D01*
X89774477Y-91603164D01*
X89715616Y-91701362D01*
X89615941Y-91770008D01*
X89477245Y-91798915D01*
X89446271Y-91799065D01*
X89344545Y-91793733D01*
X89263126Y-91784713D01*
X89243671Y-91780816D01*
X89206389Y-91753484D01*
X89190040Y-91687299D01*
X89187970Y-91628005D01*
X89187970Y-91489750D01*
X89314518Y-91558722D01*
X89404489Y-91600427D01*
X89464603Y-91606379D01*
X89497538Y-91592614D01*
X89557422Y-91532790D01*
X89557288Y-91463344D01*
X89496494Y-91382190D01*
X89411386Y-91312876D01*
X89274071Y-91188340D01*
X89200075Y-91057461D01*
X89189361Y-90920115D01*
X89241894Y-90776180D01*
X89250230Y-90762066D01*
X89339906Y-90673355D01*
X89469600Y-90630789D01*
X89633728Y-90636088D01*
X89633728Y-90636088D01*
G37*
X89633728Y-90636088D02*
X89649498Y-90638878D01*
X89721471Y-90657565D01*
X89753070Y-90691462D01*
X89760776Y-90762286D01*
X89760902Y-90785653D01*
X89753308Y-90876981D01*
X89728679Y-90909256D01*
X89684242Y-90885470D01*
X89675826Y-90877381D01*
X89622887Y-90856762D01*
X89540589Y-90852962D01*
X89534185Y-90853509D01*
X89455091Y-90871800D01*
X89420916Y-90914172D01*
X89416704Y-90933996D01*
X89425314Y-90986486D01*
X89472529Y-91044602D01*
X89565951Y-91118605D01*
X89688262Y-91233136D01*
X89762592Y-91358864D01*
X89790733Y-91485603D01*
X89774477Y-91603164D01*
X89715616Y-91701362D01*
X89615941Y-91770008D01*
X89477245Y-91798915D01*
X89446271Y-91799065D01*
X89344545Y-91793733D01*
X89263126Y-91784713D01*
X89243671Y-91780816D01*
X89206389Y-91753484D01*
X89190040Y-91687299D01*
X89187970Y-91628005D01*
X89187970Y-91489750D01*
X89314518Y-91558722D01*
X89404489Y-91600427D01*
X89464603Y-91606379D01*
X89497538Y-91592614D01*
X89557422Y-91532790D01*
X89557288Y-91463344D01*
X89496494Y-91382190D01*
X89411386Y-91312876D01*
X89274071Y-91188340D01*
X89200075Y-91057461D01*
X89189361Y-90920115D01*
X89241894Y-90776180D01*
X89250230Y-90762066D01*
X89339906Y-90673355D01*
X89469600Y-90630789D01*
X89633728Y-90636088D01*
G36*
X89092481Y-90752381D02*
X89088329Y-90811099D01*
X89064355Y-90838909D01*
X89003284Y-90847330D01*
X88949248Y-90847870D01*
X88806015Y-90847870D01*
X88806015Y-91102507D01*
X88949248Y-91102507D01*
X89037256Y-91104885D01*
X89078931Y-91121003D01*
X89091597Y-91164335D01*
X89092481Y-91213910D01*
X89089423Y-91282361D01*
X89068700Y-91314775D01*
X89012987Y-91324627D01*
X88949248Y-91325314D01*
X88806015Y-91325314D01*
X88806015Y-91579950D01*
X89124310Y-91579950D01*
X89124310Y-91802757D01*
X88583208Y-91802757D01*
X88583208Y-90656893D01*
X89092481Y-90656893D01*
X89092481Y-90752381D01*
X89092481Y-90752381D01*
G37*
X89092481Y-90752381D02*
X89088329Y-90811099D01*
X89064355Y-90838909D01*
X89003284Y-90847330D01*
X88949248Y-90847870D01*
X88806015Y-90847870D01*
X88806015Y-91102507D01*
X88949248Y-91102507D01*
X89037256Y-91104885D01*
X89078931Y-91121003D01*
X89091597Y-91164335D01*
X89092481Y-91213910D01*
X89089423Y-91282361D01*
X89068700Y-91314775D01*
X89012987Y-91324627D01*
X88949248Y-91325314D01*
X88806015Y-91325314D01*
X88806015Y-91579950D01*
X89124310Y-91579950D01*
X89124310Y-91802757D01*
X88583208Y-91802757D01*
X88583208Y-90656893D01*
X89092481Y-90656893D01*
X89092481Y-90752381D01*
G36*
X88178699Y-90659518D02*
X88259616Y-90670358D01*
X88313461Y-90693855D01*
X88354852Y-90730561D01*
X88410145Y-90830900D01*
X88428606Y-90958383D01*
X88410660Y-91088533D01*
X88356731Y-91196874D01*
X88346559Y-91208665D01*
X88302189Y-91267000D01*
X88291384Y-91304484D01*
X88294383Y-91307941D01*
X88319940Y-91343109D01*
X88361880Y-91418722D01*
X88411452Y-91516734D01*
X88459908Y-91619102D01*
X88498501Y-91707782D01*
X88518480Y-91764728D01*
X88519549Y-91772357D01*
X88491736Y-91792701D01*
X88423988Y-91801492D01*
X88416102Y-91801483D01*
X88361559Y-91796596D01*
X88321043Y-91775361D01*
X88283238Y-91725498D01*
X88236827Y-91634728D01*
X88210770Y-91578676D01*
X88141852Y-91443068D01*
X88087920Y-91369217D01*
X88048500Y-91357126D01*
X88023121Y-91406797D01*
X88011308Y-91518234D01*
X88010275Y-91579950D01*
X88010275Y-91802757D01*
X87819298Y-91802757D01*
X87819298Y-91007018D01*
X88010275Y-91007018D01*
X88020228Y-91115864D01*
X88051207Y-91165071D01*
X88104893Y-91155647D01*
X88169423Y-91102507D01*
X88223810Y-91016879D01*
X88225265Y-90935555D01*
X88179032Y-90874073D01*
X88090356Y-90847972D01*
X88083483Y-90847870D01*
X88039921Y-90854041D01*
X88018185Y-90883305D01*
X88010856Y-90951793D01*
X88010275Y-91007018D01*
X87819298Y-91007018D01*
X87819298Y-90656893D01*
X88052471Y-90656893D01*
X88178699Y-90659518D01*
X88178699Y-90659518D01*
G37*
X88178699Y-90659518D02*
X88259616Y-90670358D01*
X88313461Y-90693855D01*
X88354852Y-90730561D01*
X88410145Y-90830900D01*
X88428606Y-90958383D01*
X88410660Y-91088533D01*
X88356731Y-91196874D01*
X88346559Y-91208665D01*
X88302189Y-91267000D01*
X88291384Y-91304484D01*
X88294383Y-91307941D01*
X88319940Y-91343109D01*
X88361880Y-91418722D01*
X88411452Y-91516734D01*
X88459908Y-91619102D01*
X88498501Y-91707782D01*
X88518480Y-91764728D01*
X88519549Y-91772357D01*
X88491736Y-91792701D01*
X88423988Y-91801492D01*
X88416102Y-91801483D01*
X88361559Y-91796596D01*
X88321043Y-91775361D01*
X88283238Y-91725498D01*
X88236827Y-91634728D01*
X88210770Y-91578676D01*
X88141852Y-91443068D01*
X88087920Y-91369217D01*
X88048500Y-91357126D01*
X88023121Y-91406797D01*
X88011308Y-91518234D01*
X88010275Y-91579950D01*
X88010275Y-91802757D01*
X87819298Y-91802757D01*
X87819298Y-91007018D01*
X88010275Y-91007018D01*
X88020228Y-91115864D01*
X88051207Y-91165071D01*
X88104893Y-91155647D01*
X88169423Y-91102507D01*
X88223810Y-91016879D01*
X88225265Y-90935555D01*
X88179032Y-90874073D01*
X88090356Y-90847972D01*
X88083483Y-90847870D01*
X88039921Y-90854041D01*
X88018185Y-90883305D01*
X88010856Y-90951793D01*
X88010275Y-91007018D01*
X87819298Y-91007018D01*
X87819298Y-90656893D01*
X88052471Y-90656893D01*
X88178699Y-90659518D01*
G36*
X91288721Y-95813284D02*
X91607017Y-95813284D01*
X91607017Y-96036091D01*
X91097744Y-96036091D01*
X91097744Y-94890226D01*
X91288721Y-94890226D01*
X91288721Y-95813284D01*
X91288721Y-95813284D01*
G37*
X91288721Y-95813284D02*
X91607017Y-95813284D01*
X91607017Y-96036091D01*
X91097744Y-96036091D01*
X91097744Y-94890226D01*
X91288721Y-94890226D01*
X91288721Y-95813284D01*
G36*
X91002255Y-95001630D02*
X90998401Y-95072957D01*
X90974602Y-95104656D01*
X90912506Y-95112784D01*
X90874937Y-95113033D01*
X90747619Y-95113033D01*
X90747619Y-96036091D01*
X90556641Y-96036091D01*
X90556641Y-95113033D01*
X90429323Y-95113033D01*
X90347806Y-95109660D01*
X90311579Y-95088836D01*
X90302289Y-95034502D01*
X90302005Y-95001630D01*
X90302005Y-94890226D01*
X91002255Y-94890226D01*
X91002255Y-95001630D01*
X91002255Y-95001630D01*
G37*
X91002255Y-95001630D02*
X90998401Y-95072957D01*
X90974602Y-95104656D01*
X90912506Y-95112784D01*
X90874937Y-95113033D01*
X90747619Y-95113033D01*
X90747619Y-96036091D01*
X90556641Y-96036091D01*
X90556641Y-95113033D01*
X90429323Y-95113033D01*
X90347806Y-95109660D01*
X90311579Y-95088836D01*
X90302289Y-95034502D01*
X90302005Y-95001630D01*
X90302005Y-94890226D01*
X91002255Y-94890226D01*
X91002255Y-95001630D01*
G36*
X88187982Y-94903456D02*
X88301222Y-94945850D01*
X88367271Y-95021466D01*
X88391785Y-95134364D01*
X88392230Y-95156005D01*
X88381213Y-95257810D01*
X88353897Y-95342393D01*
X88345496Y-95356568D01*
X88316412Y-95411654D01*
X88333847Y-95453370D01*
X88358548Y-95477397D01*
X88427135Y-95580614D01*
X88441594Y-95716368D01*
X88423796Y-95814264D01*
X88374679Y-95920496D01*
X88289830Y-95989921D01*
X88161145Y-96026904D01*
X88011856Y-96036091D01*
X87819298Y-96036091D01*
X87819298Y-95701880D01*
X88010275Y-95701880D01*
X88020094Y-95801416D01*
X88054344Y-95844590D01*
X88120213Y-95836319D01*
X88171516Y-95812164D01*
X88226738Y-95754050D01*
X88236502Y-95679316D01*
X88206581Y-95609128D01*
X88142750Y-95564650D01*
X88102359Y-95558647D01*
X88045712Y-95563105D01*
X88018880Y-95587979D01*
X88010773Y-95650520D01*
X88010275Y-95701880D01*
X87819298Y-95701880D01*
X87819298Y-95208522D01*
X88010275Y-95208522D01*
X88014168Y-95291725D01*
X88031778Y-95327279D01*
X88072009Y-95331014D01*
X88078641Y-95330096D01*
X88150566Y-95297173D01*
X88181925Y-95264223D01*
X88196627Y-95191210D01*
X88160521Y-95125830D01*
X88085248Y-95088066D01*
X88078641Y-95086947D01*
X88035165Y-95087980D01*
X88015355Y-95118970D01*
X88010311Y-95195746D01*
X88010275Y-95208522D01*
X87819298Y-95208522D01*
X87819298Y-94890226D01*
X88021898Y-94890226D01*
X88187982Y-94903456D01*
X88187982Y-94903456D01*
G37*
X88187982Y-94903456D02*
X88301222Y-94945850D01*
X88367271Y-95021466D01*
X88391785Y-95134364D01*
X88392230Y-95156005D01*
X88381213Y-95257810D01*
X88353897Y-95342393D01*
X88345496Y-95356568D01*
X88316412Y-95411654D01*
X88333847Y-95453370D01*
X88358548Y-95477397D01*
X88427135Y-95580614D01*
X88441594Y-95716368D01*
X88423796Y-95814264D01*
X88374679Y-95920496D01*
X88289830Y-95989921D01*
X88161145Y-96026904D01*
X88011856Y-96036091D01*
X87819298Y-96036091D01*
X87819298Y-95701880D01*
X88010275Y-95701880D01*
X88020094Y-95801416D01*
X88054344Y-95844590D01*
X88120213Y-95836319D01*
X88171516Y-95812164D01*
X88226738Y-95754050D01*
X88236502Y-95679316D01*
X88206581Y-95609128D01*
X88142750Y-95564650D01*
X88102359Y-95558647D01*
X88045712Y-95563105D01*
X88018880Y-95587979D01*
X88010773Y-95650520D01*
X88010275Y-95701880D01*
X87819298Y-95701880D01*
X87819298Y-95208522D01*
X88010275Y-95208522D01*
X88014168Y-95291725D01*
X88031778Y-95327279D01*
X88072009Y-95331014D01*
X88078641Y-95330096D01*
X88150566Y-95297173D01*
X88181925Y-95264223D01*
X88196627Y-95191210D01*
X88160521Y-95125830D01*
X88085248Y-95088066D01*
X88078641Y-95086947D01*
X88035165Y-95087980D01*
X88015355Y-95118970D01*
X88010311Y-95195746D01*
X88010275Y-95208522D01*
X87819298Y-95208522D01*
X87819298Y-94890226D01*
X88021898Y-94890226D01*
X88187982Y-94903456D01*
G36*
X90022600Y-94908357D02*
X90137328Y-94992332D01*
X90217591Y-95126456D01*
X90261436Y-95307884D01*
X90269476Y-95452054D01*
X90251678Y-95649392D01*
X90202402Y-95815415D01*
X90125809Y-95938867D01*
X90072244Y-95985402D01*
X89954511Y-96036174D01*
X89822586Y-96054929D01*
X89744987Y-96046336D01*
X89652110Y-95997069D01*
X89560333Y-95908176D01*
X89489654Y-95800825D01*
X89471615Y-95756994D01*
X89452297Y-95665195D01*
X89439897Y-95543122D01*
X89637154Y-95543122D01*
X89663753Y-95656330D01*
X89720256Y-95749881D01*
X89741871Y-95770932D01*
X89806318Y-95823859D01*
X89847752Y-95841062D01*
X89891635Y-95828079D01*
X89924837Y-95810722D01*
X89989212Y-95747286D01*
X90042594Y-95643726D01*
X90074533Y-95523573D01*
X90079198Y-95463158D01*
X90061950Y-95341987D01*
X90017225Y-95226191D01*
X89955549Y-95139230D01*
X89922744Y-95114475D01*
X89838468Y-95096852D01*
X89764511Y-95130649D01*
X89704137Y-95204021D01*
X89660610Y-95305121D01*
X89637195Y-95422104D01*
X89637154Y-95543122D01*
X89439897Y-95543122D01*
X89439669Y-95540881D01*
X89436677Y-95442508D01*
X89458999Y-95239347D01*
X89521060Y-95076919D01*
X89619338Y-94959755D01*
X89750316Y-94892391D01*
X89875360Y-94877380D01*
X90022600Y-94908357D01*
X90022600Y-94908357D01*
G37*
X90022600Y-94908357D02*
X90137328Y-94992332D01*
X90217591Y-95126456D01*
X90261436Y-95307884D01*
X90269476Y-95452054D01*
X90251678Y-95649392D01*
X90202402Y-95815415D01*
X90125809Y-95938867D01*
X90072244Y-95985402D01*
X89954511Y-96036174D01*
X89822586Y-96054929D01*
X89744987Y-96046336D01*
X89652110Y-95997069D01*
X89560333Y-95908176D01*
X89489654Y-95800825D01*
X89471615Y-95756994D01*
X89452297Y-95665195D01*
X89439897Y-95543122D01*
X89637154Y-95543122D01*
X89663753Y-95656330D01*
X89720256Y-95749881D01*
X89741871Y-95770932D01*
X89806318Y-95823859D01*
X89847752Y-95841062D01*
X89891635Y-95828079D01*
X89924837Y-95810722D01*
X89989212Y-95747286D01*
X90042594Y-95643726D01*
X90074533Y-95523573D01*
X90079198Y-95463158D01*
X90061950Y-95341987D01*
X90017225Y-95226191D01*
X89955549Y-95139230D01*
X89922744Y-95114475D01*
X89838468Y-95096852D01*
X89764511Y-95130649D01*
X89704137Y-95204021D01*
X89660610Y-95305121D01*
X89637195Y-95422104D01*
X89637154Y-95543122D01*
X89439897Y-95543122D01*
X89439669Y-95540881D01*
X89436677Y-95442508D01*
X89458999Y-95239347D01*
X89521060Y-95076919D01*
X89619338Y-94959755D01*
X89750316Y-94892391D01*
X89875360Y-94877380D01*
X90022600Y-94908357D01*
G36*
X89097578Y-94902050D02*
X89210579Y-94983705D01*
X89290694Y-95116934D01*
X89336378Y-95299394D01*
X89347117Y-95470590D01*
X89330584Y-95674751D01*
X89279020Y-95831642D01*
X89189479Y-95948977D01*
X89152911Y-95978997D01*
X89036678Y-96034444D01*
X88902756Y-96055232D01*
X88821929Y-96046254D01*
X88699205Y-95982894D01*
X88605889Y-95867737D01*
X88545268Y-95707040D01*
X88520632Y-95507057D01*
X88520248Y-95472138D01*
X88521097Y-95463158D01*
X88710526Y-95463158D01*
X88728478Y-95589263D01*
X88775771Y-95705204D01*
X88842565Y-95794607D01*
X88919018Y-95841096D01*
X88939515Y-95844145D01*
X88975932Y-95825901D01*
X89037439Y-95779670D01*
X89050919Y-95768295D01*
X89098180Y-95722132D01*
X89125018Y-95672962D01*
X89137126Y-95601560D01*
X89140193Y-95488703D01*
X89140225Y-95466638D01*
X89137658Y-95343941D01*
X89126247Y-95264708D01*
X89100423Y-95208829D01*
X89054619Y-95156192D01*
X89054154Y-95155727D01*
X88991661Y-95101061D01*
X88942678Y-95088204D01*
X88885394Y-95107330D01*
X88808673Y-95172498D01*
X88748112Y-95279629D01*
X88714252Y-95407276D01*
X88710526Y-95463158D01*
X88521097Y-95463158D01*
X88540685Y-95256016D01*
X88599217Y-95085697D01*
X88693983Y-94963748D01*
X88823127Y-94892735D01*
X88953241Y-94874311D01*
X89097578Y-94902050D01*
X89097578Y-94902050D01*
G37*
X89097578Y-94902050D02*
X89210579Y-94983705D01*
X89290694Y-95116934D01*
X89336378Y-95299394D01*
X89347117Y-95470590D01*
X89330584Y-95674751D01*
X89279020Y-95831642D01*
X89189479Y-95948977D01*
X89152911Y-95978997D01*
X89036678Y-96034444D01*
X88902756Y-96055232D01*
X88821929Y-96046254D01*
X88699205Y-95982894D01*
X88605889Y-95867737D01*
X88545268Y-95707040D01*
X88520632Y-95507057D01*
X88520248Y-95472138D01*
X88521097Y-95463158D01*
X88710526Y-95463158D01*
X88728478Y-95589263D01*
X88775771Y-95705204D01*
X88842565Y-95794607D01*
X88919018Y-95841096D01*
X88939515Y-95844145D01*
X88975932Y-95825901D01*
X89037439Y-95779670D01*
X89050919Y-95768295D01*
X89098180Y-95722132D01*
X89125018Y-95672962D01*
X89137126Y-95601560D01*
X89140193Y-95488703D01*
X89140225Y-95466638D01*
X89137658Y-95343941D01*
X89126247Y-95264708D01*
X89100423Y-95208829D01*
X89054619Y-95156192D01*
X89054154Y-95155727D01*
X88991661Y-95101061D01*
X88942678Y-95088204D01*
X88885394Y-95107330D01*
X88808673Y-95172498D01*
X88748112Y-95279629D01*
X88714252Y-95407276D01*
X88710526Y-95463158D01*
X88521097Y-95463158D01*
X88540685Y-95256016D01*
X88599217Y-95085697D01*
X88693983Y-94963748D01*
X88823127Y-94892735D01*
X88953241Y-94874311D01*
X89097578Y-94902050D01*
G36*
X82781180Y-98196605D02*
X82790065Y-98265022D01*
X82790225Y-98276707D01*
X82786397Y-98335798D01*
X82766065Y-98376361D01*
X82715955Y-98410952D01*
X82622793Y-98452128D01*
X82591290Y-98464894D01*
X82487908Y-98507780D01*
X82436305Y-98534997D01*
X82428837Y-98553717D01*
X82457863Y-98571110D01*
X82471929Y-98576896D01*
X82612163Y-98633762D01*
X82703643Y-98675147D01*
X82756780Y-98709058D01*
X82781989Y-98743501D01*
X82789684Y-98786482D01*
X82790225Y-98821606D01*
X82784231Y-98894329D01*
X82769490Y-98929469D01*
X82766353Y-98930104D01*
X82728891Y-98915818D01*
X82648677Y-98879652D01*
X82539938Y-98828120D01*
X82482735Y-98800302D01*
X82222990Y-98672977D01*
X81963963Y-98786865D01*
X81844882Y-98837806D01*
X81747176Y-98876982D01*
X81685948Y-98898448D01*
X81674648Y-98900752D01*
X81654343Y-98872838D01*
X81644527Y-98804506D01*
X81644361Y-98793230D01*
X81648161Y-98733965D01*
X81668612Y-98694101D01*
X81719289Y-98661094D01*
X81813766Y-98622400D01*
X81839821Y-98612610D01*
X82035282Y-98539512D01*
X81867569Y-98465496D01*
X81771781Y-98425208D01*
X81699243Y-98398325D01*
X81672108Y-98391479D01*
X81653764Y-98363486D01*
X81644599Y-98294656D01*
X81644361Y-98280076D01*
X81651706Y-98206432D01*
X81669766Y-98169631D01*
X81673596Y-98168672D01*
X81714280Y-98181631D01*
X81796327Y-98216041D01*
X81904003Y-98265206D01*
X81935292Y-98280076D01*
X82049325Y-98332315D01*
X82144272Y-98371425D01*
X82203315Y-98390599D01*
X82210524Y-98391479D01*
X82257822Y-98378766D01*
X82345923Y-98344959D01*
X82458264Y-98296560D01*
X82494413Y-98280076D01*
X82608419Y-98228827D01*
X82700618Y-98190022D01*
X82755625Y-98170045D01*
X82762878Y-98168672D01*
X82781180Y-98196605D01*
X82781180Y-98196605D01*
G37*
X82781180Y-98196605D02*
X82790065Y-98265022D01*
X82790225Y-98276707D01*
X82786397Y-98335798D01*
X82766065Y-98376361D01*
X82715955Y-98410952D01*
X82622793Y-98452128D01*
X82591290Y-98464894D01*
X82487908Y-98507780D01*
X82436305Y-98534997D01*
X82428837Y-98553717D01*
X82457863Y-98571110D01*
X82471929Y-98576896D01*
X82612163Y-98633762D01*
X82703643Y-98675147D01*
X82756780Y-98709058D01*
X82781989Y-98743501D01*
X82789684Y-98786482D01*
X82790225Y-98821606D01*
X82784231Y-98894329D01*
X82769490Y-98929469D01*
X82766353Y-98930104D01*
X82728891Y-98915818D01*
X82648677Y-98879652D01*
X82539938Y-98828120D01*
X82482735Y-98800302D01*
X82222990Y-98672977D01*
X81963963Y-98786865D01*
X81844882Y-98837806D01*
X81747176Y-98876982D01*
X81685948Y-98898448D01*
X81674648Y-98900752D01*
X81654343Y-98872838D01*
X81644527Y-98804506D01*
X81644361Y-98793230D01*
X81648161Y-98733965D01*
X81668612Y-98694101D01*
X81719289Y-98661094D01*
X81813766Y-98622400D01*
X81839821Y-98612610D01*
X82035282Y-98539512D01*
X81867569Y-98465496D01*
X81771781Y-98425208D01*
X81699243Y-98398325D01*
X81672108Y-98391479D01*
X81653764Y-98363486D01*
X81644599Y-98294656D01*
X81644361Y-98280076D01*
X81651706Y-98206432D01*
X81669766Y-98169631D01*
X81673596Y-98168672D01*
X81714280Y-98181631D01*
X81796327Y-98216041D01*
X81904003Y-98265206D01*
X81935292Y-98280076D01*
X82049325Y-98332315D01*
X82144272Y-98371425D01*
X82203315Y-98390599D01*
X82210524Y-98391479D01*
X82257822Y-98378766D01*
X82345923Y-98344959D01*
X82458264Y-98296560D01*
X82494413Y-98280076D01*
X82608419Y-98228827D01*
X82700618Y-98190022D01*
X82755625Y-98170045D01*
X82762878Y-98168672D01*
X82781180Y-98196605D01*
G36*
X87755639Y-98260392D02*
X87752303Y-98328124D01*
X87733228Y-98372724D01*
X87684809Y-98409130D01*
X87593442Y-98452281D01*
X87572619Y-98461380D01*
X87389599Y-98541108D01*
X87755639Y-98706272D01*
X87755639Y-99124154D01*
X87548747Y-99226177D01*
X87447561Y-99281336D01*
X87373841Y-99331553D01*
X87342151Y-99366770D01*
X87341854Y-99369113D01*
X87364433Y-99393359D01*
X87436846Y-99406517D01*
X87548747Y-99410025D01*
X87755639Y-99410025D01*
X87755639Y-99601003D01*
X86602590Y-99601003D01*
X86615189Y-99378030D01*
X86615371Y-99375991D01*
X86836430Y-99375991D01*
X86857355Y-99401556D01*
X86917092Y-99409470D01*
X86973700Y-99410025D01*
X87064604Y-99405668D01*
X87107836Y-99388305D01*
X87119042Y-99351504D01*
X87119047Y-99350264D01*
X87091840Y-99273095D01*
X87019093Y-99229425D01*
X86937952Y-99224706D01*
X86869003Y-99246759D01*
X86840993Y-99304500D01*
X86838424Y-99322494D01*
X86836430Y-99375991D01*
X86615371Y-99375991D01*
X86626909Y-99247235D01*
X86647591Y-99161364D01*
X86682554Y-99101786D01*
X86699239Y-99083607D01*
X86793016Y-99029670D01*
X86917113Y-99009339D01*
X87047596Y-99022921D01*
X87160530Y-99070726D01*
X87170143Y-99077554D01*
X87257737Y-99142952D01*
X87479923Y-99032117D01*
X87702110Y-98921282D01*
X87447993Y-98795308D01*
X87193875Y-98669334D01*
X86937605Y-98785043D01*
X86818597Y-98837043D01*
X86719993Y-98876932D01*
X86657277Y-98898576D01*
X86645555Y-98900752D01*
X86621663Y-98872839D01*
X86610000Y-98804420D01*
X86609774Y-98792217D01*
X86613178Y-98733541D01*
X86632292Y-98694198D01*
X86680470Y-98662299D01*
X86771064Y-98625955D01*
X86813900Y-98610473D01*
X87018027Y-98537265D01*
X86821858Y-98455614D01*
X86715515Y-98408444D01*
X86655062Y-98370077D01*
X86626425Y-98327933D01*
X86615715Y-98271318D01*
X86617538Y-98201552D01*
X86635336Y-98168987D01*
X86637824Y-98168672D01*
X86679901Y-98181146D01*
X86763944Y-98214360D01*
X86874289Y-98262006D01*
X86914365Y-98280076D01*
X87030848Y-98331238D01*
X87127159Y-98370015D01*
X87187231Y-98390058D01*
X87196321Y-98391479D01*
X87240154Y-98378321D01*
X87325814Y-98343108D01*
X87438178Y-98292235D01*
X87494728Y-98265306D01*
X87755639Y-98139133D01*
X87755639Y-98260392D01*
X87755639Y-98260392D01*
G37*
X87755639Y-98260392D02*
X87752303Y-98328124D01*
X87733228Y-98372724D01*
X87684809Y-98409130D01*
X87593442Y-98452281D01*
X87572619Y-98461380D01*
X87389599Y-98541108D01*
X87755639Y-98706272D01*
X87755639Y-99124154D01*
X87548747Y-99226177D01*
X87447561Y-99281336D01*
X87373841Y-99331553D01*
X87342151Y-99366770D01*
X87341854Y-99369113D01*
X87364433Y-99393359D01*
X87436846Y-99406517D01*
X87548747Y-99410025D01*
X87755639Y-99410025D01*
X87755639Y-99601003D01*
X86602590Y-99601003D01*
X86615189Y-99378030D01*
X86615371Y-99375991D01*
X86836430Y-99375991D01*
X86857355Y-99401556D01*
X86917092Y-99409470D01*
X86973700Y-99410025D01*
X87064604Y-99405668D01*
X87107836Y-99388305D01*
X87119042Y-99351504D01*
X87119047Y-99350264D01*
X87091840Y-99273095D01*
X87019093Y-99229425D01*
X86937952Y-99224706D01*
X86869003Y-99246759D01*
X86840993Y-99304500D01*
X86838424Y-99322494D01*
X86836430Y-99375991D01*
X86615371Y-99375991D01*
X86626909Y-99247235D01*
X86647591Y-99161364D01*
X86682554Y-99101786D01*
X86699239Y-99083607D01*
X86793016Y-99029670D01*
X86917113Y-99009339D01*
X87047596Y-99022921D01*
X87160530Y-99070726D01*
X87170143Y-99077554D01*
X87257737Y-99142952D01*
X87479923Y-99032117D01*
X87702110Y-98921282D01*
X87447993Y-98795308D01*
X87193875Y-98669334D01*
X86937605Y-98785043D01*
X86818597Y-98837043D01*
X86719993Y-98876932D01*
X86657277Y-98898576D01*
X86645555Y-98900752D01*
X86621663Y-98872839D01*
X86610000Y-98804420D01*
X86609774Y-98792217D01*
X86613178Y-98733541D01*
X86632292Y-98694198D01*
X86680470Y-98662299D01*
X86771064Y-98625955D01*
X86813900Y-98610473D01*
X87018027Y-98537265D01*
X86821858Y-98455614D01*
X86715515Y-98408444D01*
X86655062Y-98370077D01*
X86626425Y-98327933D01*
X86615715Y-98271318D01*
X86617538Y-98201552D01*
X86635336Y-98168987D01*
X86637824Y-98168672D01*
X86679901Y-98181146D01*
X86763944Y-98214360D01*
X86874289Y-98262006D01*
X86914365Y-98280076D01*
X87030848Y-98331238D01*
X87127159Y-98370015D01*
X87187231Y-98390058D01*
X87196321Y-98391479D01*
X87240154Y-98378321D01*
X87325814Y-98343108D01*
X87438178Y-98292235D01*
X87494728Y-98265306D01*
X87755639Y-98139133D01*
X87755639Y-98260392D01*
G36*
X81827092Y-98936436D02*
X81858790Y-98960235D01*
X81866918Y-99022332D01*
X81867168Y-99059900D01*
X81867168Y-99187218D01*
X82790225Y-99187218D01*
X82790225Y-99378196D01*
X81867168Y-99378196D01*
X81867168Y-99489599D01*
X81862240Y-99564266D01*
X81834441Y-99594887D01*
X81764243Y-99600989D01*
X81755764Y-99601003D01*
X81644361Y-99601003D01*
X81644361Y-98932582D01*
X81755764Y-98932582D01*
X81827092Y-98936436D01*
X81827092Y-98936436D01*
G37*
X81827092Y-98936436D02*
X81858790Y-98960235D01*
X81866918Y-99022332D01*
X81867168Y-99059900D01*
X81867168Y-99187218D01*
X82790225Y-99187218D01*
X82790225Y-99378196D01*
X81867168Y-99378196D01*
X81867168Y-99489599D01*
X81862240Y-99564266D01*
X81834441Y-99594887D01*
X81764243Y-99600989D01*
X81755764Y-99601003D01*
X81644361Y-99601003D01*
X81644361Y-98932582D01*
X81755764Y-98932582D01*
X81827092Y-98936436D01*
G04 #@! TD*
M02*
