G04 #@! TF.GenerationSoftware,KiCad,Pcbnew,(5.0.0)*
G04 #@! TF.CreationDate,2020-07-20T09:31:12+01:00*
G04 #@! TF.ProjectId,CH552-USB-Devboard,43483535322D5553422D446576626F61,rev?*
G04 #@! TF.SameCoordinates,Original*
G04 #@! TF.FileFunction,Legend,Bot*
G04 #@! TF.FilePolarity,Positive*
%FSLAX46Y46*%
G04 Gerber Fmt 4.6, Leading zero omitted, Abs format (unit mm)*
G04 Created by KiCad (PCBNEW (5.0.0)) date 07/20/20 09:31:12*
%MOMM*%
%LPD*%
G01*
G04 APERTURE LIST*
%ADD10C,0.120000*%
%ADD11C,0.150000*%
G04 APERTURE END LIST*
D10*
G04 #@! TO.C,JP1*
X85500000Y-66800000D02*
X85500000Y-68200000D01*
X86200000Y-68900000D02*
X86800000Y-68900000D01*
X87500000Y-68200000D02*
X87500000Y-66800000D01*
X86800000Y-66100000D02*
X86200000Y-66100000D01*
X86200000Y-66100000D02*
G75*
G03X85500000Y-66800000I0J-700000D01*
G01*
X87500000Y-66800000D02*
G75*
G03X86800000Y-66100000I-700000J0D01*
G01*
X86800000Y-68900000D02*
G75*
G03X87500000Y-68200000I0J700000D01*
G01*
X85500000Y-68200000D02*
G75*
G03X86200000Y-68900000I700000J0D01*
G01*
G04 #@! TO.C,JP2*
X83000000Y-68200000D02*
G75*
G03X83700000Y-68900000I700000J0D01*
G01*
X84300000Y-68900000D02*
G75*
G03X85000000Y-68200000I0J700000D01*
G01*
X85000000Y-66800000D02*
G75*
G03X84300000Y-66100000I-700000J0D01*
G01*
X83700000Y-66100000D02*
G75*
G03X83000000Y-66800000I0J-700000D01*
G01*
X84300000Y-66100000D02*
X83700000Y-66100000D01*
X85000000Y-68200000D02*
X85000000Y-66800000D01*
X83700000Y-68900000D02*
X84300000Y-68900000D01*
X83000000Y-66800000D02*
X83000000Y-68200000D01*
G04 #@! TO.C,C5*
X88290000Y-91496267D02*
X88290000Y-91153733D01*
X89310000Y-91496267D02*
X89310000Y-91153733D01*
G04 #@! TO.C,C6*
X89310000Y-98396267D02*
X89310000Y-98053733D01*
X88290000Y-98396267D02*
X88290000Y-98053733D01*
G04 #@! TO.C,Y1*
X82450000Y-100550000D02*
X82450000Y-87950000D01*
X82450000Y-87950000D02*
X87550000Y-87950000D01*
X87550000Y-87950000D02*
X87550000Y-100550000D01*
G04 #@! TO.C,JP1*
D11*
X84152380Y-66666666D02*
X84866666Y-66666666D01*
X85009523Y-66619047D01*
X85104761Y-66523809D01*
X85152380Y-66380952D01*
X85152380Y-66285714D01*
X85152380Y-67142857D02*
X84152380Y-67142857D01*
X84152380Y-67523809D01*
X84200000Y-67619047D01*
X84247619Y-67666666D01*
X84342857Y-67714285D01*
X84485714Y-67714285D01*
X84580952Y-67666666D01*
X84628571Y-67619047D01*
X84676190Y-67523809D01*
X84676190Y-67142857D01*
X85152380Y-68666666D02*
X85152380Y-68095238D01*
X85152380Y-68380952D02*
X84152380Y-68380952D01*
X84295238Y-68285714D01*
X84390476Y-68190476D01*
X84438095Y-68095238D01*
G04 #@! TO.C,JP2*
X81652380Y-66666666D02*
X82366666Y-66666666D01*
X82509523Y-66619047D01*
X82604761Y-66523809D01*
X82652380Y-66380952D01*
X82652380Y-66285714D01*
X82652380Y-67142857D02*
X81652380Y-67142857D01*
X81652380Y-67523809D01*
X81700000Y-67619047D01*
X81747619Y-67666666D01*
X81842857Y-67714285D01*
X81985714Y-67714285D01*
X82080952Y-67666666D01*
X82128571Y-67619047D01*
X82176190Y-67523809D01*
X82176190Y-67142857D01*
X81747619Y-68095238D02*
X81700000Y-68142857D01*
X81652380Y-68238095D01*
X81652380Y-68476190D01*
X81700000Y-68571428D01*
X81747619Y-68619047D01*
X81842857Y-68666666D01*
X81938095Y-68666666D01*
X82080952Y-68619047D01*
X82652380Y-68047619D01*
X82652380Y-68666666D01*
G04 #@! TD*
M02*
